<svg xmlns="http://www.w3.org/2000/svg" xmlns:xlink="http://www.w3.org/1999/xlink" width="96" height="96" viewBox="0 0 96 96">
  <defs>
    <clipPath id="clip-path">
      <rect id="Rectangle_8647" data-name="Rectangle 8647" width="48" height="65" fill="#fff"/>
    </clipPath>
    <clipPath id="clip-lock_2">
      <rect width="96" height="96"/>
    </clipPath>
  </defs>
  <g id="lock_2" data-name="lock – 2" clip-path="url(#clip-lock_2)">
    <g id="Group_41155" data-name="Group 41155" transform="translate(24 16)">
      <g id="Group_41154" data-name="Group 41154" clip-path="url(#clip-path)">
        <path id="Path_42955" data-name="Path 42955" d="M42,25H12.07L12,15.6a11.265,11.265,0,0,1,3.441-8.158A12.111,12.111,0,0,1,23.908,4h.061A11.783,11.783,0,0,1,35.937,15.506l.009,1.507a2,2,0,0,0,4-.025l-.009-1.521A15.782,15.782,0,0,0,23.969,0h-.08A16.085,16.085,0,0,0,12.643,4.587,15.269,15.269,0,0,0,8,15.688L8.07,25H6a6.011,6.011,0,0,0-6,6V59a6.01,6.01,0,0,0,6,6H42a6.01,6.01,0,0,0,6-6V31a6.011,6.011,0,0,0-6-6m2,34a2.006,2.006,0,0,1-2,2H6a2.005,2.005,0,0,1-2-2V31a2.005,2.005,0,0,1,2-2H42a2.006,2.006,0,0,1,2,2Z" fill="#fff"/>
        <path id="Path_42956" data-name="Path 42956" d="M31.378,54.383,28.873,45.45a6.444,6.444,0,1,0-9.971.006l-2.5,8.927a2,2,0,0,0,1.925,2.54H29.452a2,2,0,0,0,1.926-2.54m-10.415-1.46,2.07-7.383a1.992,1.992,0,0,0-.487-1.918,1.96,1.96,0,0,0-.361-.492,2.448,2.448,0,1,1,3.269.124,2.445,2.445,0,0,0-.71,2.286l2.07,7.383Z" fill="#ed780f"/>
      </g>
    </g>
  </g>
</svg>
