<?xml version="1.0" encoding="utf-8"?>
<!-- Generator: Adobe Illustrator 23.0.3, SVG Export Plug-In . SVG Version: 6.00 Build 0)  -->
<svg version="1.1" id="Layer_1" xmlns="http://www.w3.org/2000/svg" xmlns:xlink="http://www.w3.org/1999/xlink" x="0px" y="0px"
	 viewBox="0 0 1080 1080" style="enable-background:new 0 0 1080 1080;" xml:space="preserve">
<style type="text/css">
	.st0{fill:#7BB5E3;}
	.st1{fill:#7CB5E2;}
	.st2{fill:#FFFFFF;}
	.st3{fill:#3D93D0;}
</style>
<g>
	<g>
		<g id="person-team-member_2_">
			<g id="airplane-medical_2_" transform="translate(-8 -8.001)">
				<g id="Group_5460_2_" transform="translate(8 8.001)">
					<g id="Group_2089_2_" transform="translate(0 0)">
						<g id="Group_1287_2_" transform="translate(0)">
							<g id="Group_1279_2_">
								<g id="Ellipse_123_2_">
									<path class="st0" d="M539.91,1026c-267.98,0-486-218.02-486-486s218.02-486,486-486s486,218.02,486,486
										S807.89,1026,539.91,1026z M539.91,114.75c-234.48,0-425.25,190.77-425.25,425.25s190.76,425.25,425.25,425.25
										S965.16,774.48,965.16,540S774.39,114.75,539.91,114.75z"/>
								</g>
							</g>
						</g>
					</g>
				</g>
			</g>
		</g>
	</g>
	<g>
		<path id="Path_1425_2_" class="st0" d="M541.66,645.47c-93.6,0-235.35,15.44-235.35,94.52c-0.04,28.76,4.17,57.36,12.51,84.88
			c130.95,102.24,314.67,102.24,445.61,0c8.37-27.51,12.58-56.12,12.51-84.88C777.49,660.9,635.22,645.47,541.66,645.47z"/>
		<path id="Path_1427_2_" class="st0" d="M729.27,492.1c0,158.67-374.73,158.67-374.73,0s83.91-282.13,187.12-282.13
			S729.27,333.92,729.27,492.1z"/>
		<path id="Path_1428_2_" class="st1" d="M594.08,562.58l-51.94,4.77l-51.93-4.77c0,0,6.56,86.26-22.03,86.26h147.02
			C586.12,648.84,594.08,562.58,594.08,562.58z"/>
		<path id="Path_1429_2_" class="st2" d="M541.66,586.14c86.33,0,137.45-104.65,137.45-191.47s-50.63-141.3-137.45-141.3
			c-86.37,0-137.45,54.98-137.45,141.3S455.28,586.14,541.66,586.14z"/>
		<path id="Path_1430_2_" class="st1" d="M541.66,768.92l-73.49-120.09h147.02L541.66,768.92z"/>
		<path id="Path_1431_2_" class="st2" d="M541.66,768.92l73.54-120.11c-22.9-1.35-21.39-53.79-21.45-76.62
			c54.5-31.35,85.36-109.96,85.36-176.99c0-86.85-50.63-141.83-137.45-141.83V768.92z"/>
		<path id="Path_1432_2_" class="st0" d="M722.5,413.5c0,0-92.12,11.09-164.94-37.62s-97.41-137.93-97.41-137.93
			s92.12-11.09,164.94,37.62S722.5,413.5,722.5,413.5z"/>
		<g id="Group_3758_2_" transform="translate(8.303 19.48)">
			<path id="Path_1433_2_" class="st1" d="M407.96,455.74c-9.16,1.45-19.8-14.47-22.67-31.35c-2.9-17.36,2.9-29.42,12.51-30.86
				L407.96,455.74z"/>
			<path id="Path_1434_2_" class="st3" d="M659.23,455.74c9.16,1.45,19.8-14.47,22.67-31.35c2.9-17.36-2.9-29.42-12.51-30.86
				L659.23,455.74z"/>
		</g>
		<path id="Path_1435_2_" class="st0" d="M484.27,239.39c1.16,40.11-8.15,79.84-27.01,115.27c-20.67,34.38-49.92,62.8-84.88,82.46
			c-1.16-40.11,8.15-79.84,27.01-115.27C420.06,287.48,449.31,259.06,484.27,239.39z"/>
		<rect id="Rectangle_1686_2_" x="584.58" y="764.1" class="st2" width="120.57" height="24.12"/>
		<rect id="Rectangle_1687_2_" x="378.66" y="764.1" class="st2" width="120.57" height="24.12"/>
		<g id="Group_3761_2_" transform="translate(17.583 34.75)">
			<path id="Path_1438_2_" class="st0" d="M471.99,557.66c16.07,8.48,33.95,12.95,52.11,13.02c18.18,0.05,36.09-4.43,52.11-13.02
				c-0.49-6.74-0.49-13.51,0-20.25c-32.23,18.67-71.99,18.67-104.23,0C472.73,544.14,472.73,550.93,471.99,557.66z"/>
		</g>
		<g>
			<path class="st2" d="M737.3,388.39V367.8c0.02-28.96-6.36-57.57-18.7-83.77c-46.19-98.11-163.17-140.19-261.27-94
				c-68.84,32.41-112.76,101.68-112.7,177.77v20.8c-12.89,2.54-22.63,13.88-22.67,27.51v28.06v28.05
				c0.04,15.48,12.58,28.01,28.05,28.06h21.04h7.01v7.01v0.01c0,0.29,0.03,0.57,0.05,0.86c0.01,0.19,0.01,0.39,0.03,0.57
				c0.03,0.29,0.08,0.57,0.13,0.85c0.03,0.18,0.05,0.37,0.08,0.54c0.04,0.21,0.11,0.42,0.16,0.63c0.06,0.24,0.11,0.48,0.18,0.71
				c0.06,0.19,0.14,0.38,0.21,0.57c0.09,0.24,0.17,0.49,0.26,0.72c0.12,0.27,0.25,0.53,0.38,0.8c0.07,0.14,0.13,0.29,0.21,0.43
				c0.17,0.32,0.37,0.62,0.56,0.93c0.05,0.07,0.09,0.15,0.14,0.23c0.19,0.28,0.39,0.54,0.6,0.8c0.07,0.09,0.13,0.19,0.21,0.28
				c0.26,0.31,0.53,0.61,0.81,0.9c0.03,0.03,0.06,0.07,0.09,0.1c0.32,0.32,0.65,0.62,0.99,0.9c0,0,0,0,0,0
				c0.68,0.56,1.41,1.05,2.18,1.48c0.02,0.01,0.03,0.02,0.05,0.03c0.23,0.12,0.47,0.23,0.7,0.34c0.17,0.08,0.34,0.18,0.52,0.25
				c0.04,0.02,0.08,0.03,0.11,0.04c0.38,0.16,0.77,0.31,1.17,0.43c0.36,0.11,0.74,0.2,1.12,0.29c0.08,0.02,0.15,0.04,0.23,0.06
				c0.25,0.05,0.51,0.08,0.77,0.12c0.67,0.1,1.36,0.17,2.06,0.17h14.03c0.75,0,1.48-0.08,2.19-0.19c0.21-0.03,0.43-0.05,0.63-0.1
				c0.06-0.01,0.12-0.03,0.19-0.05c0.39-0.09,0.78-0.18,1.16-0.3c0.15-0.05,0.3-0.11,0.45-0.16c0.72-0.25,1.41-0.54,2.07-0.9
				c0.08-0.04,0.15-0.09,0.22-0.13c0.32-0.18,0.63-0.36,0.93-0.57c0.2-0.14,0.39-0.29,0.59-0.44c0.16-0.12,0.34-0.24,0.5-0.37
				c0.1-0.09,0.2-0.18,0.3-0.27c0.24-0.21,0.48-0.41,0.7-0.64c0.03-0.03,0.05-0.06,0.08-0.09c0.29-0.29,0.56-0.59,0.82-0.91
				c0.1-0.12,0.18-0.24,0.27-0.36c0.18-0.24,0.37-0.47,0.54-0.71c0.09-0.14,0.17-0.28,0.26-0.42c0.15-0.24,0.31-0.48,0.45-0.73
				c0.07-0.14,0.13-0.28,0.2-0.42c0.13-0.27,0.27-0.53,0.39-0.8c0.07-0.16,0.12-0.32,0.18-0.48c0.1-0.27,0.21-0.53,0.3-0.8
				c0.05-0.16,0.08-0.32,0.12-0.48c0.08-0.29,0.16-0.57,0.22-0.86c0.04-0.18,0.05-0.36,0.08-0.54c0.05-0.28,0.1-0.56,0.13-0.85
				c0.02-0.19,0.02-0.38,0.03-0.57c0.02-0.29,0.04-0.57,0.05-0.86v-0.01v-63.12v-63.13c-0.02-7.75-6.3-14.01-14.05-14.03h-14.03
				c-7.74,0.02-14,6.29-14.03,14.03v7.02h-0.01h-7.01h-7.73V367.8c0-98.11,79.53-177.64,177.64-177.64S718.6,269.69,718.6,367.8
				v20.25h-6.4h-7.01h-0.01v-7.02c-0.02-7.74-6.29-14-14.03-14.03h-14.03c-7.75,0.01-14.02,6.28-14.05,14.03v63.13v63.12v0.01
				c0,0.29,0.03,0.57,0.05,0.86c0.01,0.19,0.01,0.39,0.03,0.57c0.03,0.29,0.08,0.57,0.13,0.85c0.03,0.18,0.05,0.36,0.08,0.54
				c0.06,0.29,0.15,0.58,0.22,0.86c0.04,0.16,0.08,0.32,0.12,0.48c0.09,0.27,0.19,0.54,0.3,0.81c0.06,0.16,0.11,0.33,0.18,0.48
				c0.08,0.2,0.18,0.38,0.28,0.57c0.11,0.22,0.2,0.44,0.32,0.66c0.09,0.17,0.2,0.33,0.31,0.5c0.13,0.22,0.26,0.44,0.4,0.65
				c0.17,0.25,0.35,0.48,0.54,0.72c0.09,0.12,0.18,0.25,0.27,0.36c0.26,0.31,0.54,0.61,0.82,0.9c0.03,0.03,0.05,0.06,0.08,0.09
				c0.51,0.51,1.06,0.96,1.64,1.38c0.15,0.11,0.29,0.23,0.44,0.33c0.3,0.2,0.62,0.39,0.93,0.57c0.08,0.04,0.15,0.09,0.22,0.13
				c0.66,0.36,1.35,0.65,2.07,0.9c0.15,0.05,0.29,0.12,0.45,0.16c0.38,0.12,0.77,0.21,1.16,0.3c0.06,0.01,0.12,0.04,0.19,0.05
				c0.21,0.04,0.42,0.06,0.63,0.1c0.72,0.11,1.45,0.19,2.19,0.19h14.03c0.76,0,1.51-0.08,2.24-0.2c0.19-0.03,0.39-0.05,0.58-0.09
				c0.28-0.06,0.55-0.14,0.83-0.21c0.17-0.05,0.35-0.08,0.51-0.13c0.4-0.12,0.79-0.27,1.17-0.43c0.04-0.02,0.08-0.03,0.11-0.04
				c0.18-0.08,0.35-0.17,0.52-0.25c0.24-0.11,0.48-0.22,0.7-0.34c0.02-0.01,0.05-0.03,0.07-0.04c0.37-0.2,0.73-0.42,1.08-0.66
				c0.07-0.05,0.13-0.1,0.2-0.15c0.3-0.21,0.59-0.42,0.88-0.66c0.15-0.12,0.29-0.26,0.43-0.4c0.19-0.17,0.38-0.33,0.56-0.51
				c0.13-0.13,0.25-0.28,0.38-0.42c0.18-0.19,0.36-0.38,0.53-0.58c0.07-0.09,0.14-0.19,0.21-0.28c0.21-0.26,0.41-0.52,0.6-0.8
				c0.09-0.13,0.17-0.28,0.25-0.41c0.15-0.24,0.31-0.49,0.45-0.74c0.16-0.3,0.31-0.61,0.45-0.93c0.05-0.1,0.1-0.19,0.14-0.3
				c0.12-0.29,0.23-0.6,0.33-0.9c0.04-0.13,0.1-0.25,0.14-0.38c0.07-0.23,0.12-0.47,0.18-0.71c0.05-0.21,0.12-0.42,0.16-0.63
				c0.04-0.18,0.05-0.36,0.08-0.54c0.05-0.28,0.1-0.56,0.13-0.85c0.02-0.19,0.02-0.38,0.03-0.57c0.02-0.28,0.04-0.57,0.05-0.86
				v-0.01v-7.01h7.01h6.4v7.97c-0.04,36.13-29.32,65.41-65.45,65.45h-74.77v-0.01c-0.03-10.31-8.38-18.67-18.7-18.7h-37.42
				c-10.32,0.03-18.67,8.39-18.7,18.7v18.7c0.02,10.33,8.39,18.7,18.73,18.72h37.39c10.32-0.03,18.68-8.4,18.7-18.72h74.77
				c46.43-0.07,84.06-37.69,84.14-84.12v-8.33c13.55-2,23.96-13.63,24-27.72v-28.05v-28.06
				C761.26,402.01,750.84,390.39,737.3,388.39z"/>
			<path class="st2" d="M559.7,616.07h-37.41c-13.04-0.02-23.67-10.64-23.69-23.67v-18.71c0.03-13.02,10.64-23.63,23.65-23.67h37.44
				c11.32,0.03,20.82,8.06,23.13,18.7h70.34c33.31-0.04,60.44-27.17,60.48-60.49v-2.99h-3.48v2.04c0,0.33-0.02,0.65-0.04,0.98
				l-4.97-0.09l4.95,0.39c-0.01,0.23-0.02,0.45-0.04,0.67c-0.03,0.32-0.08,0.64-0.14,0.96l-0.04,0.27
				c-0.03,0.22-0.07,0.43-0.11,0.65c-0.05,0.25-0.11,0.49-0.18,0.73l-0.07,0.29c-0.07,0.27-0.14,0.54-0.22,0.81l-0.2,0.56
				c-0.15,0.43-0.29,0.82-0.45,1.2l-0.23,0.48c-0.14,0.32-0.34,0.75-0.57,1.17c-0.16,0.3-0.34,0.59-0.52,0.87
				c-0.21,0.35-0.31,0.51-0.42,0.67c-0.26,0.38-0.54,0.74-0.82,1.1c-0.06,0.09-0.16,0.22-0.25,0.34c-0.24,0.28-0.44,0.5-0.64,0.72
				c-0.31,0.34-0.46,0.51-0.61,0.66c-0.2,0.2-0.42,0.4-0.65,0.6c-0.34,0.32-0.51,0.47-0.68,0.61c-0.39,0.32-0.79,0.61-1.19,0.9
				c-0.03,0.03-0.16,0.12-0.29,0.21c-0.42,0.28-0.87,0.56-1.32,0.81l-0.21,0.12c-0.26,0.14-0.53,0.27-0.79,0.39l-2.32-4.4l2.04,4.53
				c-0.19,0.1-0.38,0.19-0.58,0.27l-0.41,0.16c-0.29,0.13-0.82,0.33-1.37,0.5c-0.19,0.06-0.41,0.12-0.64,0.17
				c-0.51,0.14-0.84,0.23-1.18,0.3c-0.22,0.05-0.46,0.08-0.7,0.12c-1.17,0.19-2.16,0.28-3.12,0.28h-14.03
				c-0.94,0-1.88-0.08-2.97-0.25c-0.39-0.05-0.64-0.09-0.89-0.15l-0.4-0.1c-0.36-0.08-0.89-0.21-1.4-0.37
				c-0.21-0.07-0.39-0.13-0.57-0.2c-1.07-0.37-1.98-0.77-2.83-1.24l-0.41-0.24c-0.31-0.17-0.73-0.42-1.14-0.7
				c-0.2-0.14-0.37-0.26-0.52-0.38c-0.92-0.68-1.65-1.29-2.3-1.94l-0.2-0.21c-0.37-0.38-0.7-0.74-1.01-1.12
				c-0.16-0.2-0.26-0.33-0.36-0.47c-0.35-0.45-0.56-0.72-0.75-1.01c-0.16-0.24-0.32-0.5-0.47-0.75c-0.25-0.4-0.38-0.62-0.5-0.84
				c-0.12-0.21-0.24-0.47-0.36-0.73c-0.22-0.45-0.33-0.68-0.43-0.91c-0.09-0.21-0.16-0.4-0.22-0.58c-0.2-0.52-0.31-0.82-0.41-1.13
				c-0.07-0.23-0.13-0.43-0.17-0.64c-0.15-0.54-0.24-0.87-0.31-1.21c-0.04-0.21-0.08-0.42-0.1-0.63l-0.05-0.29
				c-0.06-0.32-0.11-0.65-0.14-0.97c-0.02-0.21-0.03-0.43-0.04-0.66l-0.02-0.31c-0.02-0.3-0.04-0.61-0.04-0.92V381.03
				c0.03-10.46,8.56-18.98,19.01-18.99h14.03c10.45,0.03,18.96,8.55,18.99,18.98v2.07h3.48V367.8
				c0-95.21-77.46-172.67-172.67-172.67S368.29,272.59,368.29,367.8v15.29h4.81l0-2.06c0.03-10.44,8.55-18.96,18.98-18.99h14.04
				c10.46,0.02,18.98,8.53,19.02,18.98v126.26c0,0.36-0.02,0.66-0.04,0.97l-4.97-0.08l4.95,0.39c-0.01,0.23-0.02,0.45-0.04,0.67
				c-0.03,0.32-0.08,0.64-0.14,0.96l-4.94-0.55l4.9,0.84c-0.03,0.21-0.06,0.42-0.1,0.63c-0.07,0.35-0.16,0.68-0.25,1.01
				c-0.11,0.43-0.17,0.66-0.24,0.88c-0.08,0.26-0.2,0.58-0.32,0.9c-0.14,0.38-0.21,0.57-0.29,0.76c-0.15,0.35-0.3,0.66-0.46,0.97
				c-0.18,0.38-0.27,0.57-0.37,0.74c-0.15,0.28-0.33,0.57-0.52,0.87c-0.2,0.33-0.31,0.51-0.43,0.68c-0.2,0.29-0.41,0.57-0.63,0.85
				c-0.22,0.3-0.34,0.45-0.46,0.6c-0.32,0.38-0.64,0.75-0.99,1.1l-0.31,0.32c-0.21,0.21-0.51,0.48-0.81,0.74l-0.47,0.41
				c-0.18,0.15-0.38,0.3-0.58,0.44l-0.21,0.16c-0.22,0.17-0.43,0.33-0.66,0.48c-0.43,0.29-0.86,0.54-1.29,0.79
				c-0.01,0.01-0.14,0.09-0.27,0.16c-0.87,0.47-1.78,0.87-2.82,1.23c-0.21,0.08-0.4,0.15-0.58,0.21c-0.53,0.17-1.06,0.3-1.59,0.41
				l-0.32,0.07c-0.17,0.04-0.41,0.07-0.66,0.11c-1.22,0.19-2.17,0.27-3.1,0.27h-14.03c-0.88,0-1.79-0.08-2.8-0.23
				c-0.44-0.06-0.74-0.11-1.03-0.17l-0.45-0.11c-0.37-0.08-0.88-0.21-1.37-0.36c-0.49-0.16-0.98-0.33-1.46-0.53l-0.21-0.08
				c-0.29-0.13-0.48-0.22-0.68-0.32l-0.28-0.13c-0.26-0.12-0.53-0.25-0.78-0.39l-0.22-0.12c-0.89-0.48-1.88-1.15-2.79-1.91
				c-0.48-0.4-0.92-0.8-1.35-1.23l-0.22-0.23c-0.36-0.37-0.69-0.73-1-1.11l-0.31-0.41c-0.25-0.32-0.53-0.68-0.79-1.06l-0.24-0.37
				c-0.22-0.34-0.48-0.75-0.71-1.17c-0.11-0.2-0.2-0.38-0.28-0.56c-0.25-0.5-0.4-0.8-0.53-1.1c-0.11-0.27-0.21-0.54-0.31-0.81
				l4.6-1.87l-4.71,1.59c-0.08-0.22-0.16-0.43-0.24-0.65c-0.08-0.27-0.15-0.55-0.22-0.82l-0.07-0.29c-0.07-0.24-0.13-0.49-0.18-0.74
				c-0.04-0.17-0.08-0.42-0.11-0.67l-0.04-0.25c-0.06-0.32-0.11-0.64-0.14-0.97c-0.02-0.21-0.03-0.44-0.04-0.66l-0.02-0.31
				c-0.02-0.3-0.04-0.61-0.04-0.92v-2.09h-23.09c-18.16-0.06-32.97-14.86-33.02-33.01v-56.13c0.04-14.33,9.36-26.91,22.67-31.33
				V367.8c-0.05-77.65,45.31-149.19,115.56-182.27c48.64-22.91,103.3-25.5,153.9-7.29c50.59,18.2,91.07,55.02,113.98,103.67
				c12.56,26.69,19.19,56.39,19.17,85.89v16.59c13.9,4,23.96,16.94,24,31.7v56.13c-0.04,14.77-10.09,27.71-24,31.71v4.33
				c-0.09,49.05-40.06,89.01-89.1,89.09h-70.35C580.51,608,571.01,616.03,559.7,616.07z M522.26,559.95
				c-7.54,0.02-13.71,6.19-13.73,13.75v18.68c0.01,7.57,6.19,13.74,13.77,13.75h37.39c7.55-0.02,13.72-6.2,13.73-13.76l0.01-4.96
				h79.73c43.58-0.07,79.1-35.58,79.18-79.17v-12.6l4.24-0.63c11.23-1.66,19.73-11.47,19.76-22.82v-56.1
				c-0.03-11.33-8.53-21.14-19.76-22.8l-4.24-0.63V367.8c0.02-28.05-6.28-56.29-18.23-81.66c-21.77-46.25-60.25-81.25-108.35-98.55
				c-48.1-17.3-100.06-14.84-146.31,6.93c-66.78,31.44-109.91,99.46-109.86,173.28v24.88l-4.01,0.79
				c-10.78,2.12-18.63,11.65-18.66,22.65v56.1c0.04,12.69,10.4,23.05,23.1,23.09h33.01l0.37,14.49l0.75,1.83
				c0.09,0.17,0.22,0.37,0.35,0.57l0.17,0.28c0.03,0.04,0.16,0.2,0.29,0.37l0.23,0.3c0.07,0.08,0.25,0.27,0.43,0.46l0.16,0.17
				c0.18,0.17,0.36,0.34,0.55,0.49c0.43,0.36,0.91,0.68,1.41,0.96l0.87,0.42c0.28,0.12,0.53,0.21,0.78,0.29
				c0.24,0.08,0.49,0.13,0.73,0.19l0.62,0.11c0.45,0.07,0.89,0.12,1.34,0.12h14.02c0.4,0,0.86-0.04,1.42-0.13l0.33-0.05l-0.16,0.05
				l0.43-0.11c0.17-0.04,0.42-0.1,0.66-0.17l0.27-0.11c0.55-0.19,0.98-0.38,1.36-0.58l0.15-0.1c0.21-0.12,0.41-0.23,0.61-0.36
				l0.89-0.7c0.15-0.13,0.27-0.23,0.37-0.33l0-0.01c0.32-0.32,0.49-0.51,0.66-0.71l0.16-0.23c0.2-0.26,0.29-0.36,0.36-0.47
				l1.22-2.68l0.34-2.42V381.03c-0.01-4.98-4.09-9.05-9.09-9.06h-14.02c-4.97,0.01-9.05,4.09-9.06,9.08v11.97h-24.68V367.8
				c0-100.69,81.92-182.61,182.61-182.61s182.61,81.92,182.61,182.61v25.22h-23.34l-0.01-11.98c-0.01-4.97-4.08-9.05-9.07-9.06
				h-14.01c-4.99,0.01-9.07,4.08-9.08,9.08l0.28,128.4l0.73,1.95l-4.18,2.73l4.3-2.5l0.3,0.5c0.2,0.32,0.28,0.42,0.36,0.52
				l0.33,0.43c0.12,0.15,0.3,0.35,0.49,0.54l0.13,0.13c0.34,0.33,0.66,0.58,0.99,0.82l0.28,0.21c0.19,0.13,0.4,0.25,0.6,0.37
				l0.33,0.2c0.19,0.1,0.63,0.29,1.15,0.47l0.33,0.12c0.21,0.07,0.46,0.12,0.71,0.18l0.54,0.09c0.55,0.09,1,0.13,1.41,0.13h14.03
				c0.41,0,0.88-0.04,1.43-0.14l1.26-0.28c0.24-0.07,0.49-0.17,0.74-0.27l1.09-0.53c0.06-0.04,0.29-0.18,0.52-0.33l0.17-0.13
				c0.16-0.11,0.35-0.24,0.53-0.39l0.47-0.43l3.8,3.24l-3.6-3.42l0.73-0.84c0.11-0.14,0.24-0.3,0.36-0.48l0.46-0.75
				c0.1-0.19,0.19-0.39,0.28-0.58l0.17-0.35c0.01-0.02,0.06-0.18,0.11-0.34l0.55-3.03v-11.98h23.35v12.93
				c-0.04,38.79-31.63,70.37-70.41,70.41h-79.74v-4.97c-0.02-7.55-6.19-13.71-13.75-13.74H522.26z"/>
		</g>
		<path class="st0" d="M737.3,388.39V367.8c0.02-28.96-6.36-57.57-18.7-83.77c-46.19-98.11-163.17-140.19-261.27-94
			c-68.84,32.41-112.76,101.68-112.7,177.77v20.8c-12.89,2.54-22.63,13.88-22.67,27.51v28.06v28.05
			c0.04,15.48,12.58,28.01,28.05,28.06h21.04h7.01v7.01v0.01c0,0.29,0.03,0.57,0.05,0.86c0.01,0.19,0.01,0.39,0.03,0.57
			c0.03,0.29,0.08,0.57,0.13,0.85c0.03,0.18,0.05,0.37,0.08,0.54c0.04,0.21,0.11,0.42,0.16,0.63c0.06,0.24,0.11,0.48,0.18,0.71
			c0.06,0.19,0.14,0.38,0.21,0.57c0.09,0.24,0.17,0.49,0.26,0.72c0.12,0.27,0.25,0.53,0.38,0.8c0.07,0.14,0.13,0.29,0.21,0.43
			c0.17,0.32,0.37,0.62,0.56,0.93c0.05,0.07,0.09,0.15,0.14,0.23c0.19,0.28,0.39,0.54,0.6,0.8c0.07,0.09,0.13,0.19,0.21,0.28
			c0.26,0.31,0.53,0.61,0.81,0.9c0.03,0.03,0.06,0.07,0.09,0.1c0.32,0.32,0.65,0.62,0.99,0.9c0,0,0,0,0,0
			c0.68,0.56,1.41,1.05,2.18,1.48c0.02,0.01,0.03,0.02,0.05,0.03c0.23,0.12,0.47,0.23,0.7,0.34c0.17,0.08,0.34,0.18,0.52,0.25
			c0.04,0.02,0.08,0.03,0.11,0.04c0.38,0.16,0.77,0.31,1.17,0.43c0.36,0.11,0.74,0.2,1.12,0.29c0.08,0.02,0.15,0.04,0.23,0.06
			c0.25,0.05,0.51,0.08,0.77,0.12c0.67,0.1,1.36,0.17,2.06,0.17h14.03c0.75,0,1.48-0.08,2.19-0.19c0.21-0.03,0.43-0.05,0.63-0.1
			c0.06-0.01,0.12-0.03,0.19-0.05c0.39-0.09,0.78-0.18,1.16-0.3c0.15-0.05,0.3-0.11,0.45-0.16c0.72-0.25,1.41-0.54,2.07-0.9
			c0.08-0.04,0.15-0.09,0.22-0.13c0.32-0.18,0.63-0.36,0.93-0.57c0.2-0.14,0.39-0.29,0.59-0.44c0.16-0.12,0.34-0.24,0.5-0.37
			c0.1-0.09,0.2-0.18,0.3-0.27c0.24-0.21,0.48-0.41,0.7-0.64c0.03-0.03,0.05-0.06,0.08-0.09c0.29-0.29,0.56-0.59,0.82-0.91
			c0.1-0.12,0.18-0.24,0.27-0.36c0.18-0.24,0.37-0.47,0.54-0.71c0.09-0.14,0.17-0.28,0.26-0.42c0.15-0.24,0.31-0.48,0.45-0.73
			c0.07-0.14,0.13-0.28,0.2-0.42c0.13-0.27,0.27-0.53,0.39-0.8c0.07-0.16,0.12-0.32,0.18-0.48c0.1-0.27,0.21-0.53,0.3-0.8
			c0.05-0.16,0.08-0.32,0.12-0.48c0.08-0.29,0.16-0.57,0.22-0.86c0.04-0.18,0.05-0.36,0.08-0.54c0.05-0.28,0.1-0.56,0.13-0.85
			c0.02-0.19,0.02-0.38,0.03-0.57c0.02-0.29,0.04-0.57,0.05-0.86v-0.01v-63.12v-63.13c-0.02-7.75-6.3-14.01-14.05-14.03h-14.03
			c-7.74,0.02-14,6.29-14.03,14.03v7.02h-0.01h-7.01h-7.73V367.8c0-98.11,79.53-177.64,177.64-177.64S718.6,269.69,718.6,367.8
			v20.25h-6.4h-7.01h-0.01v-7.02c-0.02-7.74-6.29-14-14.03-14.03h-14.03c-7.75,0.01-14.02,6.28-14.05,14.03v63.13v63.12v0.01
			c0,0.29,0.03,0.57,0.05,0.86c0.01,0.19,0.01,0.39,0.03,0.57c0.03,0.29,0.08,0.57,0.13,0.85c0.03,0.18,0.05,0.36,0.08,0.54
			c0.06,0.29,0.15,0.58,0.22,0.86c0.04,0.16,0.08,0.32,0.12,0.48c0.09,0.27,0.19,0.54,0.3,0.81c0.06,0.16,0.11,0.33,0.18,0.48
			c0.08,0.2,0.18,0.38,0.28,0.57c0.11,0.22,0.2,0.44,0.32,0.66c0.09,0.17,0.2,0.33,0.31,0.5c0.13,0.22,0.26,0.44,0.4,0.65
			c0.17,0.25,0.35,0.48,0.54,0.72c0.09,0.12,0.18,0.25,0.27,0.36c0.26,0.31,0.54,0.61,0.82,0.9c0.03,0.03,0.05,0.06,0.08,0.09
			c0.51,0.51,1.06,0.96,1.64,1.38c0.15,0.11,0.29,0.23,0.44,0.33c0.3,0.2,0.62,0.39,0.93,0.57c0.08,0.04,0.15,0.09,0.22,0.13
			c0.66,0.36,1.35,0.65,2.07,0.9c0.15,0.05,0.29,0.12,0.45,0.16c0.38,0.12,0.77,0.21,1.16,0.3c0.06,0.01,0.12,0.04,0.19,0.05
			c0.21,0.04,0.42,0.06,0.63,0.1c0.72,0.11,1.45,0.19,2.19,0.19h14.03c0.76,0,1.51-0.08,2.24-0.2c0.19-0.03,0.39-0.05,0.58-0.09
			c0.28-0.06,0.55-0.14,0.83-0.21c0.17-0.05,0.35-0.08,0.51-0.13c0.4-0.12,0.79-0.27,1.17-0.43c0.04-0.02,0.08-0.03,0.11-0.04
			c0.18-0.08,0.35-0.17,0.52-0.25c0.24-0.11,0.48-0.22,0.7-0.34c0.02-0.01,0.05-0.03,0.07-0.04c0.37-0.2,0.73-0.42,1.08-0.66
			c0.07-0.05,0.13-0.1,0.2-0.15c0.3-0.21,0.59-0.42,0.88-0.66c0.15-0.12,0.29-0.26,0.43-0.4c0.19-0.17,0.38-0.33,0.56-0.51
			c0.13-0.13,0.25-0.28,0.38-0.42c0.18-0.19,0.36-0.38,0.53-0.58c0.07-0.09,0.14-0.19,0.21-0.28c0.21-0.26,0.41-0.52,0.6-0.8
			c0.09-0.13,0.17-0.28,0.25-0.41c0.15-0.24,0.31-0.49,0.45-0.74c0.16-0.3,0.31-0.61,0.45-0.93c0.05-0.1,0.1-0.19,0.14-0.3
			c0.12-0.29,0.23-0.6,0.33-0.9c0.04-0.13,0.1-0.25,0.14-0.38c0.07-0.23,0.12-0.47,0.18-0.71c0.05-0.21,0.12-0.42,0.16-0.63
			c0.04-0.18,0.05-0.36,0.08-0.54c0.05-0.28,0.1-0.56,0.13-0.85c0.02-0.19,0.02-0.38,0.03-0.57c0.02-0.28,0.04-0.57,0.05-0.86v-0.01
			v-7.01h7.01h6.4v7.97c-0.04,36.13-29.32,65.41-65.45,65.45h-74.77v-0.01c-0.03-10.31-8.38-18.67-18.7-18.7h-37.42
			c-10.32,0.03-18.67,8.39-18.7,18.7v18.7c0.02,10.33,8.39,18.7,18.73,18.72h37.39c10.32-0.03,18.68-8.4,18.7-18.72h74.77
			c46.43-0.07,84.06-37.69,84.14-84.12v-8.33c13.55-2,23.96-13.63,24-27.72v-28.05v-28.06C761.26,402.01,750.84,390.39,737.3,388.39
			z"/>
	</g>
</g>
</svg>
