<?xml version="1.0" encoding="UTF-8"?>
<svg id="Layer_4" data-name="Layer 4" xmlns="http://www.w3.org/2000/svg" viewBox="0 0 96 96">
  <defs>
    <style>
      .cls-1 {
        fill: none;
      }

      .cls-2 {
        fill: #fd6f00;
      }

      .cls-3 {
        fill: #003e74;
      }
    </style>
  </defs>
  <g id="Titles">
    <g>
      <path class="cls-1" d="M86.74,76.27l.02-5.31c0-.32-.04-.48-.05-.53-.02.02-.15-.06-.46-.15-2.8-.68-5.65-1.24-8.52-1.69-.07,0-.14.02-.21.02h-26.96c-1.1,0-2-.9-2-2v-7.25h-3.83s0,0,0,0l-.09.41c-.2.89-.38,2.09-.55,3.26-.45,3.06-.64,4.32-1.67,5.02-.55.39-1.27.58-2.3.58l-29.44-.07c-.7,0-1.07.03-1.27.06-.03.13-.07.34-.11.67-.11,1.02-.12,2.48-.13,3.88,0,1.09-.02,2.11-.07,2.95-.04.62-.36,1.18-.87,1.53-.05.04-.1.07-.15.1,0,.18,0,.36,0,.55-.01.57-.02,1.24.02,1.75.65.21,2,.4,3.34.4h2.56c.91-4.19,4.65-7.34,9.11-7.34s8.18,3.14,9.1,7.32l35.82-.06c.95-4.15,4.66-7.25,9.08-7.25s8.09,3.07,9.06,7.17l1.56-.02c.07-.36.15-1.01.18-2.19-.7-.32-1.17-1.02-1.17-1.83Z"/>
      <path class="cls-1" d="M66.16,64.62l-4.23-3.44c-1.44-1.17-2.97-1.82-4.3-1.82h-5.07v5.25h13.6Z"/>
      <path class="cls-1" d="M41.4,36.67c.59,0,1-.57,1-1.32v-.04c0-.77-.43-1.36-1.01-1.36s-1,.57-1,1.34h0v.04c0,.76.45,1.34,1.01,1.34Z"/>
      <path class="cls-1" d="M77.11,77.13c-2.94,0-5.32,2.39-5.32,5.32s2.39,5.32,5.32,5.32,5.32-2.39,5.32-5.32-2.39-5.32-5.32-5.32ZM77.12,85.65h0c-1.76,0-3.19-1.43-3.19-3.19,0-1.76,1.43-3.2,3.19-3.2,1.76,0,3.2,1.43,3.2,3.19s-1.43,3.2-3.19,3.2Z"/>
      <path class="cls-1" d="M23.11,77.13c-2.94,0-5.32,2.39-5.32,5.32s2.39,5.32,5.32,5.32,5.32-2.39,5.32-5.32-2.39-5.32-5.32-5.32ZM23.11,85.65h0c-1.76,0-3.19-1.43-3.19-3.19,0-1.76,1.43-3.2,3.19-3.2,1.76,0,3.2,1.43,3.2,3.19,0,1.76-1.43,3.2-3.19,3.2Z"/>
      <path class="cls-1" d="M49.44,42.56c.58,0,1-.57,1-1.32v-.03c0-.77-.43-1.36-1.01-1.36-.62,0-1,.57-1,1.34v.03c0,.76.45,1.34,1.01,1.34Z"/>
      <path class="cls-3" d="M91.91,77.03c-.02-.41-.08-1.52-1.16-2.19l.02-3.87c0-2.45-1.15-3.94-3.54-4.56-5.16-1.26-10.46-2.14-15.75-2.61l-7.03-5.71c-1.52-1.24-3.94-2.72-6.83-2.72h-13.18c-2.94,0-3.38,2.06-3.62,3.16l-.08.36c-.24,1.05-.43,2.33-.61,3.57-.1.66-.23,1.55-.35,2.19l-27.78-.07v2c0,1.1-.9,2-2,2s-2-.9-2-2v-1.7c-1.37.44-2.41,1.5-2.67,4-.13,1.21-.14,2.77-.16,4.28,0,.53,0,1.05-.02,1.53-.63.44-1.12,1.23-1.08,2.61,0,.28,0,.6,0,.94-.02,1.06-.04,2.27.21,3.31.51,1.93,2.92,2.92,7.15,2.92h2.57c.92,4.17,4.65,7.31,9.1,7.31s8.19-3.15,9.11-7.33l35.78-.06c.89,4.22,4.64,7.4,9.12,7.4s8.28-3.21,9.14-7.47h.34s.04,0,.06,0h1.31c.15,0,.29-.02.43-.05.7-.09,1.37-.35,1.99-.78,1.18-.87,1.46-2.67,1.53-5.2.03-.42.03-.85,0-1.24ZM23.11,87.78c-2.94,0-5.32-2.39-5.32-5.32s2.39-5.32,5.32-5.32,5.32,2.39,5.32,5.32-2.39,5.32-5.32,5.32ZM77.11,87.78c-2.94,0-5.32-2.39-5.32-5.32s2.39-5.32,5.32-5.32,5.32,2.39,5.32,5.32-2.39,5.32-5.32,5.32ZM87.73,80.29l-1.56.02c-.98-4.11-4.66-7.17-9.06-7.17s-8.14,3.11-9.08,7.25l-35.82.06c-.92-4.18-4.65-7.32-9.1-7.32s-8.19,3.15-9.11,7.34h-2.56c-1.34,0-2.7-.19-3.34-.4-.04-.52-.03-1.18-.02-1.75,0-.19,0-.37,0-.55.05-.03.1-.06.15-.1.51-.35.83-.91.87-1.53.05-.84.06-1.87.07-2.95.01-1.41.02-2.86.13-3.88.04-.34.07-.55.11-.67.2-.03.57-.06,1.27-.06l29.44.07c1.02,0,1.74-.19,2.3-.58,1.03-.71,1.22-1.97,1.67-5.02.17-1.16.35-2.37.55-3.26l.09-.41s0,0,0,0h3.83v-1.85c0-1.1.9-2,2-2s2,.9,2,2v1.85h5.07c1.33,0,2.86.65,4.3,1.82l4.23,3.44h11.36c1.1,0,2,.9,2,2,0,1.03-.78,1.87-1.79,1.98,2.87.45,5.72,1,8.52,1.69.31.08.44.16.46.15.02.05.05.21.05.53l-.02,5.31c0,.81.47,1.51,1.17,1.83-.03,1.18-.11,1.83-.18,2.19Z"/>
      <path class="cls-3" d="M50.56,68.62h26.96c.07,0,.14-.01.21-.02,1-.11,1.79-.95,1.79-1.98,0-1.1-.9-2-2-2h-24.96v-7.11c0-1.1-.9-2-2-2s-2,.9-2,2v9.11c0,1.1.9,2,2,2Z"/>
      <path class="cls-2" d="M77.11,79.26c-1.76,0-3.19,1.44-3.19,3.2,0,1.76,1.43,3.19,3.19,3.19h0c1.76,0,3.19-1.44,3.19-3.2s-1.44-3.19-3.2-3.19Z"/>
      <path class="cls-2" d="M23.1,79.26c-1.76,0-3.19,1.44-3.19,3.2,0,1.76,1.43,3.19,3.19,3.19h0c1.76,0,3.19-1.44,3.19-3.2,0-1.76-1.44-3.19-3.2-3.19Z"/>
      <path class="cls-3" d="M10.01,68.58c1.1,0,2-.9,2-2V18.22c0-1.1.9-2,2-2h40.07c1.1,0,2,.9,2,2v32.4c0,1.1.9,2,2,2s2-.9,2-2V18.22c0-3.31-2.69-6-6-6H14.01c-3.31,0-6,2.69-6,6v48.36c0,1.1.9,2,2,2Z"/>
      <path class="cls-3" d="M49.78,26.22c0-1.1-.9-2-2-2h-29.78c-1.1,0-2,.9-2,2s.9,2,2,2h29.78c1.1,0,2-.9,2-2Z"/>
      <path class="cls-3" d="M17.16,32.22c-1.1,0-2,.9-2,2s.9,2,2,2h16.48c1.1,0,2-.9,2-2s-.9-2-2-2h-16.48Z"/>
      <polygon class="cls-2" points="46.09 38.8 51.21 32.25 48.89 32.25 44.68 37.81 39.61 44.28 41.92 44.28 46.09 38.8"/>
      <path class="cls-2" d="M41.4,38.44c1.71,0,3.1-1.4,3.09-3.11v-.03c0-.07,0-.15,0-.22-.07-1.71-1.51-3.05-3.22-2.98-1.71.07-3.05,1.51-2.98,3.22v.04c0,1.71,1.4,3.1,3.11,3.09ZM40.38,35.29h0c0-.78.4-1.35,1-1.35s1.01.58,1.01,1.36v.04c0,.76-.41,1.32-1,1.32s-1.01-.59-1.01-1.34v-.03Z"/>
      <path class="cls-2" d="M49.55,44.45c1.71-.07,3.05-1.51,2.98-3.22v-.03c0-.07,0-.15,0-.22-.07-1.71-1.51-3.05-3.22-2.98-1.71.07-3.05,1.51-2.98,3.22v.03h0c0,.08,0,.15,0,.23.07,1.71,1.51,3.05,3.22,2.98ZM48.42,41.19c0-.77.38-1.34,1-1.34.58,0,1.01.58,1.01,1.36v.03c0,.76-.42,1.32-1,1.32s-1.01-.58-1.01-1.34v-.03Z"/>
    </g>
  </g>
</svg>