<svg width="181" height="117" viewBox="0 0 181 117" fill="none" xmlns="http://www.w3.org/2000/svg">
    <rect x="1" y="1" width="179" height="115" rx="9" stroke="#89ADD0" stroke-width="2" stroke-dasharray="5 5"/>
    <g opacity=".5">
        <rect x="6" y="6" width="169" height="105" rx="10" fill="#89ADD0"/>
        <g clip-path="url(#4lundbhrra)">
            <g clip-path="url(#5m49uhigrb)">
                <path d="M91.5 22.988c-19.572 0-35.5 15.928-35.5 35.5 0 19.573 15.928 35.5 35.5 35.5s35.5-15.927 35.5-35.5c0-19.572-15.919-35.5-35.5-35.5zm12.169 64.947-.344-.627s-.027-.07 0-.106c3.415-4.43 5.894-10.562 7.165-17.727 0-.045.044-.071.079-.071h10.025l.079.115c-3.053 8.038-9.336 14.533-17.251 17.807l.247.6v.009zm2.418-18.425c-2.065 10.554-6.795 18.151-12.363 19.828l-.089-.08V69.501c0-.044.036-.08.089-.08h12.283l.08.098v-.01zm1.067-11.022c0 2.153-.123 4.368-.37 6.566 0 .044-.045.07-.08.07H93.733c-.045 0-.089-.035-.089-.08V51.933c0-.044.036-.08.088-.08h12.972s.08.036.08.071c.247 2.197.37 4.412.37 6.565zm13.44-10.915h-10.025s-.079-.027-.079-.07c-1.271-7.166-3.75-13.3-7.165-17.729-.027-.026-.027-.07 0-.106.026-.026.052-.035.07-.035h.035c7.916 3.291 14.199 9.777 17.252 17.816l-.08.115-.008.009zm-26.95-.089.036-19.828s.035-.017.052-.017h.027c5.542 1.676 10.271 9.274 12.345 19.828l-.079.097H93.741c-.044 0-.088-.035-.088-.08h-.009zm28.247 17.755-.15-.044c-.124-.036-.247-.07-.389-.07h-10.174l-.088-.09c.229-2.276.344-4.411.344-6.547 0-2.135-.115-4.27-.318-6.61a.082.082 0 0 1 .062-.026h10.174c.142 0 .283-.035.406-.07l.142-.035.079.07c.494 2.233.741 4.483.741 6.68s-.247 4.447-.741 6.689l.627.141-.724-.07.009-.018zM76.913 47.467c2.065-10.554 6.795-18.152 12.337-19.828h.026l.089.08v19.765c0 .045-.036.08-.089.08H76.993l-.08-.097zm-1.067 11.021c0-2.153.123-4.368.37-6.565 0-.044.044-.07.08-.07h12.971c.045 0 .089.035.089.079v13.113c0 .044-.036.08-.088.08H76.296s-.08-.036-.08-.072a59.179 59.179 0 0 1-.37-6.565zm3.838-28.714c-3.415 4.43-5.894 10.563-7.165 17.728 0 .044-.044.07-.08.07H62.407l-.079-.114c3.053-8.039 9.336-14.534 17.251-17.807h.036l.07.035s.027.07 0 .097v-.009zM61.656 51.852h10.175l.08.089a64.797 64.797 0 0 0-.345 6.547c0 2.127.115 4.271.344 6.548l-.08.088H61.657c-.132 0-.264.035-.406.07l-.14.036-.08-.062a31.073 31.073 0 0 1-.741-6.689c0-2.206.247-4.447.776-6.741.009 0 .027-.01.044-.01l.141.036c.133.035.274.08.415.08l-.009.008zm.75 17.56h10.025s.08.027.08.071c1.27 7.166 3.75 13.298 7.165 17.728a.07.07 0 0 1 0 .097l-.098.027c-7.915-3.283-14.198-9.769-17.242-17.887a.08.08 0 0 1 .07-.035zm14.587 0h12.283c.044 0 .089.036.089.08V89.25l-.106.08c-5.542-1.669-10.272-9.266-12.319-19.89a.08.08 0 0 1 .062-.027h-.01z" fill="#CCE7FF"/>
            </g>
        </g>
    </g>
    <defs>
        <clipPath id="4lundbhrra">
            <path fill="#fff" transform="translate(43 11)" d="M0 0h96v96H0z"/>
        </clipPath>
        <clipPath id="5m49uhigrb">
            <path fill="#fff" transform="translate(56 22.988)" d="M0 0h71v71H0z"/>
        </clipPath>
    </defs>
</svg>
