<?xml version="1.0" encoding="UTF-8"?>
<svg xmlns="http://www.w3.org/2000/svg" xmlns:xlink="http://www.w3.org/1999/xlink" version="1.1" viewBox="0 0 248.12 158.62">
  <!-- Generator: Adobe Illustrator 29.0.1, SVG Export Plug-In . SVG Version: 2.1.0 Build 192)  -->
  <defs>
    <style>
      .st0 {
        fill: none;
      }

      .st1 {
        fill: url(#linear-gradient1);
      }

      .st2 {
        fill: #93c83e;
      }

      .st3 {
        fill: url(#linear-gradient);
      }

      .st4 {
        fill: #f26522;
      }

      .st5 {
        isolation: isolate;
      }

      .st6 {
        fill: #47763d;
      }

      .st7 {
        fill: #c7c7c7;
      }

      .st8 {
        clip-path: url(#clippath-1);
      }

      .st9 {
        clip-path: url(#clippath-2);
      }

      .st10 {
        fill: #fff;
      }

      .st11 {
        fill: #e52423;
      }

      .st12 {
        mix-blend-mode: screen;
      }

      .st13 {
        fill: url(#New_Gradient_Swatch_2);
      }

      .st14 {
        fill: #414141;
      }

      .st15 {
        fill: #f99f1c;
      }

      .st16, .st17 {
        display: none;
      }

      .st17 {
        fill: #b2d676;
        font-family: Gotham-BoldItalic, Gotham;
        font-size: 9.76px;
        font-style: italic;
        font-weight: 700;
        letter-spacing: -.01em;
      }

      .st18 {
        clip-path: url(#clippath);
      }
    </style>
    <linearGradient id="linear-gradient" x1="484.84" y1="574.69" x2="517.42" y2="574.69" gradientTransform="translate(-456.19 -506.71)" gradientUnits="userSpaceOnUse">
      <stop offset="0" stop-color="#e6e6e6"/>
      <stop offset="1" stop-color="#bdbdbd"/>
    </linearGradient>
    <clipPath id="clippath">
      <rect class="st0" x="28.65" y="55.18" width="32.57" height="25.61" rx="7.3" ry="7.3"/>
    </clipPath>
    <clipPath id="clippath-1">
      <path class="st0" d="M235.13,1.32H14.68C8.49,1.32,3.42,6.39,3.42,12.59v131.06c0,6.2,5.07,11.27,11.27,11.27h220.45c6.2,0,11.27-5.07,11.27-11.27V12.59c0-6.2-5.07-11.27-11.27-11.27Z"/>
    </clipPath>
    <linearGradient id="New_Gradient_Swatch_2" data-name="New Gradient Swatch 2" x1="-23.73" y1="97.36" x2="399.59" y2="97.36" gradientUnits="userSpaceOnUse">
      <stop offset="0" stop-color="#345628"/>
      <stop offset=".38" stop-color="#48773c"/>
      <stop offset="1" stop-color="#93c83e"/>
    </linearGradient>
    <linearGradient id="linear-gradient1" x1="484.99" y1="574.69" x2="517.6" y2="574.69" xlink:href="#linear-gradient"/>
    <clipPath id="clippath-2">
      <rect class="st0" x="28.59" y="55.18" width="32.57" height="25.61" rx="7.3" ry="7.3"/>
    </clipPath>
  </defs>
  <g class="st5">
    <g id="Layer_11">
      <g>
        <g>
          <g class="st16">
            <g>
              <path class="st2" d="M108.54,73.76c0-.78,0-1.55,0-2.31s0-1.5,0-2.28h-3.74v4.58h-2.93v-11.51h2.92v4.3h3.74v-4.31h2.92v11.52h-2.91Z"/>
              <path class="st2" d="M80.92,69.45c-.64,2.74-3.18,4.74-6.25,4.54-2.97-.2-5.67-2.58-5.6-6.2.05-3,2.55-5.62,5.51-5.78,3.06-.17,5.97,1.92,6.34,4.58-.09,0-.18.02-.26.02-.84,0-1.68,0-2.52,0-.19,0-.29-.05-.38-.23-.47-.96-1.2-1.61-2.28-1.74-1.42-.18-2.65.54-3.18,1.89-.55,1.4-.39,2.73.59,3.89,1.18,1.39,3.61,1.46,4.75-.56.19-.33.38-.42.73-.41.84.02,1.68,0,2.55,0Z"/>
              <path class="st2" d="M87.96,73.76v-1.66h-.29c-.93,0-1.87,0-2.8,0-.18,0-.28.06-.37.21-.25.44-.52.88-.79,1.31-.05.07-.15.15-.23.15-1.11,0-2.22,0-3.36,0,.04-.08.07-.15.11-.2,2.54-3.72,5.08-7.44,7.63-11.16.06-.08.16-.18.24-.18.91-.01,1.83,0,2.76,0v11.54h-2.9ZM87.92,69.75v-3.19c-.65,1.1-1.26,2.13-1.89,3.19h1.89Z"/>
              <path class="st2" d="M92.29,69.97h2.85c.14.39.23.77.41,1.09.2.37.58.51,1,.46.46-.06.79-.3.93-.76.13-.41.07-.81-.28-1.06-.42-.3-.88-.54-1.34-.77-.59-.3-1.22-.52-1.8-.86-.84-.49-1.42-1.2-1.54-2.22-.15-1.3.36-2.3,1.39-3.05,1.68-1.23,4.27-1.02,5.65.44.54.58.86,1.53.77,2.32h-2.86c-.04-.15-.08-.3-.13-.45-.13-.37-.39-.61-.79-.64-.4-.04-.75.09-.99.43-.26.36-.2.86.16,1.15.29.23.61.41.94.57.89.43,1.81.79,2.61,1.39.98.73,1.28,1.72,1.16,2.9-.21,1.95-1.64,2.87-3.28,3.04-1.05.11-2.07.02-3.02-.46-1.06-.53-1.62-1.43-1.78-2.59-.04-.3-.05-.61-.08-.94Z"/>
            </g>
            <g>
              <path class="st2" d="M141.92,73.77c-.16,0-.31,0-.47,0-.17.01-.25-.04-.3-.22-.35-1.35-.71-2.7-1.07-4.05-.44-1.64-.87-3.27-1.3-4.91-.01-.06-.02-.11-.04-.17-.01-.03-.04-.05-.06-.08-.01.03-.03.05-.04.08-.13.47-.26.94-.38,1.41-.68,2.57-1.36,5.14-2.03,7.71-.04.17-.11.22-.28.22-.35-.02-.69-.02-1.04,0-.16,0-.22-.05-.27-.21-.39-1.38-.78-2.77-1.17-4.15-.65-2.3-1.3-4.59-1.95-6.89-.02-.06-.05-.13-.05-.19,0-.04.05-.1.09-.1.31,0,.63,0,.94,0,.13,0,.13.09.16.18.25.9.5,1.8.75,2.7.64,2.31,1.28,4.61,1.93,6.92.02.07.06.14.09.21.03-.07.06-.13.08-.2.7-2.58,1.4-5.17,2.09-7.75.17-.62.34-1.24.5-1.87.04-.14.1-.2.25-.19.21.02.43.02.64,0,.17-.01.24.05.29.21.24.92.49,1.83.74,2.75.62,2.27,1.23,4.54,1.85,6.81.01.04.02.08.03.12.01.04.04.07.06.1.02-.04.05-.07.06-.11.39-1.4.78-2.8,1.17-4.2.51-1.82,1.02-3.64,1.52-5.46.04-.16.1-.24.28-.22.25.02.49,0,.74,0,.19,0,.19,0,.14.19-.26.92-.52,1.84-.78,2.76-.78,2.76-1.56,5.51-2.35,8.27-.02.06-.04.11-.05.17-.02.11-.08.15-.19.15-.2,0-.4,0-.59,0Z"/>
              <path class="st2" d="M166.7,68c0-1.83,0-3.66,0-5.5,0-.29-.03-.27.27-.27,1.05,0,2.09,0,3.14,0,1.12.01,2.21.2,3.23.71,1.46.74,2.35,1.94,2.79,3.49.77,2.72-.52,5.23-2.5,6.46-.69.43-1.46.64-2.25.77-.71.11-1.43.1-2.15.1-.77,0-1.53,0-2.3,0-.22,0-.23,0-.23-.23,0-1.85,0-3.7,0-5.55ZM167.84,68.01c0,1.49,0,2.98,0,4.48,0,.24,0,.24.24.24.68,0,1.35,0,2.03,0,.57,0,1.13-.07,1.69-.2.94-.23,1.76-.66,2.36-1.44.95-1.23,1.26-2.63.93-4.14-.31-1.44-1.16-2.51-2.5-3.14-.79-.37-1.64-.5-2.5-.52-.67-.01-1.34,0-2,0-.25,0-.25,0-.25.26,0,1.49,0,2.98,0,4.48Z"/>
              <path class="st2" d="M114.74,68.01c0-1.82,0-3.65,0-5.47,0-.07-.01-.14,0-.2.01-.04.06-.08.1-.1.04-.02.1,0,.15,0,1.05,0,2.09,0,3.14,0,.71,0,1.42.08,2.08.35,1.29.52,2.05,1.48,2.23,2.86.27,2.01-1.06,3.71-3.06,3.99q-.3.04-.12.28c.96,1.28,1.92,2.55,2.87,3.83.05.06.08.14.11.21-.07,0-.15.01-.22.01-.32,0-.64,0-.96,0-.14,0-.23-.04-.31-.15-1.2-1.62-2.4-3.24-3.61-4.86-.02-.03-.04-.05-.06-.08-.07-.09-.05-.13.07-.13.23,0,.46,0,.69,0,.51,0,1.02-.01,1.52-.16.82-.24,1.49-.68,1.8-1.53.46-1.28.01-2.93-1.84-3.43-.36-.1-.75-.14-1.12-.15-.7-.02-1.4,0-2.1,0-.24,0-.24,0-.24.25,0,3.31,0,6.62,0,9.92q0,.32-.33.32c-.22,0-.45,0-.67,0-.11,0-.15-.04-.14-.15,0-.06,0-.12,0-.17,0-1.82,0-3.63,0-5.45Z"/>
              <path class="st2" d="M157.29,68c0-1.82,0-3.63,0-5.45,0-.06,0-.12,0-.17,0-.1.02-.16.14-.15.04,0,.08,0,.12,0,1.05,0,2.09,0,3.14,0,.71,0,1.42.08,2.08.35,1.29.52,2.05,1.48,2.23,2.86.26,2.01-1.06,3.71-3.06,3.99q-.29.04-.11.28c.96,1.28,1.92,2.55,2.87,3.83.04.06.08.12.12.19-.08.01-.15.03-.23.03-.33,0-.66,0-.99,0-.12,0-.2-.04-.27-.13-1.21-1.64-2.42-3.27-3.63-4.9-.03-.04-.05-.1-.08-.15.06-.01.12-.04.18-.04.54-.02,1.07-.01,1.61-.06.58-.05,1.11-.25,1.57-.61.57-.44.87-1.02.91-1.75.04-.8-.17-1.51-.78-2.06-.5-.45-1.1-.71-1.77-.74-.91-.05-1.83-.04-2.74-.06-.11,0-.17.03-.16.15,0,.07,0,.13,0,.2,0,3.27,0,6.53,0,9.8,0,.07,0,.13,0,.2,0,.1-.03.15-.14.15-.29,0-.58,0-.87,0-.11,0-.14-.05-.14-.15,0-.13,0-.27,0-.4,0-1.74,0-3.48,0-5.22Z"/>
              <path class="st2" d="M155.39,73.79c-.2-.01-.45.04-.6-.06-.14-.09-.18-.34-.26-.52-.44-1.03-.87-2.05-1.3-3.08-.07-.16-.15-.24-.34-.24-1.62,0-3.23,0-4.85,0-.18,0-.26.06-.32.22-.49,1.16-.99,2.31-1.48,3.46-.06.15-.13.22-.3.21-.26-.02-.53,0-.79,0-.18,0-.18,0-.11-.17.32-.77.65-1.54.98-2.3,1.24-2.93,2.48-5.86,3.71-8.79.08-.2.17-.3.41-.28.24.03.49.02.74,0,.18-.01.27.05.35.22.8,1.89,1.6,3.77,2.4,5.65.77,1.8,1.53,3.6,2.3,5.4,0,.02.02.04.03.07.08.19.08.19-.12.19-.15,0-.3,0-.45,0,0,0,0,0,0,.01ZM150.44,68.85c.68,0,1.35,0,2.03,0,.2,0,.2-.01.13-.2-.68-1.64-1.36-3.28-2.04-4.92-.02-.05-.05-.09-.07-.13-.03.04-.06.08-.08.12-.69,1.64-1.39,3.29-2.08,4.93-.08.18-.07.19.13.19.66,0,1.32,0,1.98,0Z"/>
              <path class="st2" d="M127.19,73.77c-.95,0-1.9,0-2.85,0-.28,0-.26.03-.26-.25,0-3.68,0-7.36,0-11.04,0-.24,0-.25.24-.25,1.92,0,3.84,0,5.76,0,.24,0,.24,0,.24.24,0,.22,0,.43,0,.65,0,.12-.04.17-.16.15-.06,0-.12,0-.17,0-1.5,0-3,0-4.5,0-.29,0-.27-.03-.27.26,0,1.21,0,2.42,0,3.63,0,.26-.04.26.25.26,1.46,0,2.92,0,4.38,0,.07,0,.14-.01.2,0,.04.01.11.06.11.1,0,.27.01.55,0,.82,0,.04-.07.1-.12.11-.06.02-.13,0-.2,0-1.45,0-2.9,0-4.35,0-.27,0-.27,0-.27.27,0,1.24,0,2.49,0,3.73,0,.28-.02.26.25.26,1.53,0,3.07,0,4.6,0,.27,0,.25-.03.25.26,0,.2,0,.4,0,.6.01.16-.05.19-.2.19-.94,0-1.88,0-2.82,0-.04,0-.08,0-.12,0Z"/>
              <path class="st2" d="M183.48,65.16c-.17,0-.39.06-.5-.02-.1-.06-.07-.3-.11-.46-.2-.89-1.02-1.58-1.91-1.6-.99-.02-1.82.57-2.06,1.49-.23.84.06,1.59.82,2.01.38.21.8.36,1.21.49.61.19,1.22.36,1.77.69.61.35,1.08.84,1.37,1.49.83,1.9-.27,4.15-2.29,4.63-1.11.26-2.16.1-3.1-.6-.71-.53-1.11-1.25-1.24-2.13-.02-.15-.03-.3-.05-.44-.01-.1.02-.16.13-.15.29,0,.58,0,.87,0,.11,0,.13.05.15.15.03.2.06.41.12.61.28.92.9,1.45,1.85,1.61,1.14.19,2.27-.48,2.59-1.58.28-.95.03-1.88-.84-2.46-.44-.29-.93-.47-1.42-.63-.54-.18-1.08-.35-1.6-.59-.77-.35-1.29-.93-1.47-1.79-.4-1.95.86-3.54,2.64-3.78.97-.13,1.84.08,2.59.71.67.56,1.01,1.31,1.08,2.18.01.15-.02.22-.18.2-.13-.01-.26,0-.4,0,0,0,0,0,0-.01Z"/>
            </g>
          </g>
          <text class="st17" transform="translate(171.53 82.71)"><tspan x="0" y="0">secured</tspan></text>
        </g>
        <g class="st16">
          <g>
            <rect class="st3" x="28.65" y="55.18" width="32.57" height="25.61" rx="7.3" ry="7.3"/>
            <path class="st14" d="M57.4,81.03h-24.92c-2.24,0-4.06-1.83-4.06-4.09v-17.92c0-2.25,1.82-4.09,4.06-4.09h24.92c2.24,0,4.06,1.83,4.06,4.09v17.92c0,2.25-1.82,4.09-4.06,4.09ZM32.47,55.42c-1.98,0-3.58,1.62-3.58,3.6v17.92c0,1.99,1.61,3.6,3.58,3.6h24.92c1.98,0,3.58-1.62,3.58-3.6v-17.92c0-1.99-1.61-3.6-3.58-3.6h-24.92Z"/>
          </g>
          <g class="st18">
            <g class="st12">
              <path class="st7" d="M41.79,81.19l-.43-.24,2.84-5.09h0s.37-1.24-.39-2.51c-.75-1.26-2.41-1.22-2.42-1.22h-12.27v-.49h12.27c.07,0,1.95-.05,2.85,1.46.89,1.49.43,2.9.41,2.96l-2.86,5.13Z"/>
              <path class="st7" d="M48.9,81.19l-2.84-5.09c-.04-.1-.49-1.52.4-3.01.9-1.51,2.78-1.46,2.86-1.46h12.26v.49h-12.27s-1.68-.04-2.43,1.22c-.77,1.29-.37,2.54-.37,2.56l2.83,5.05-.43.24Z"/>
              <path class="st7" d="M49.25,64.9c-.3,0-1.97-.07-2.8-1.47-.89-1.49-.43-2.9-.41-2.96l3.02-5.41.43.24-3,5.37h0s-.37,1.24.39,2.51c.75,1.26,2.4,1.22,2.42,1.22h12.27v.49h-12.27s-.02,0-.05,0Z"/>
              <path class="st7" d="M41.42,64.9s-.04,0-.05,0h-12.26v-.49h12.27s1.68.04,2.43-1.22c.77-1.29.37-2.54.37-2.56l-2.83-5.05.43-.24,2.84,5.09c.04.1.49,1.52-.4,3.01-.83,1.4-2.5,1.47-2.81,1.47Z"/>
              <rect class="st7" x="41.14" y="64.65" width=".49" height="7.18"/>
              <rect class="st7" x="48.91" y="64.65" width=".49" height="7.18"/>
            </g>
          </g>
          <path class="st14" d="M57.4,81.03h-24.92c-2.24,0-4.06-1.83-4.06-4.09v-17.92c0-2.25,1.82-4.09,4.06-4.09h24.92c2.24,0,4.06,1.83,4.06,4.09v17.92c0,2.25-1.82,4.09-4.06,4.09ZM32.47,55.42c-1.98,0-3.58,1.62-3.58,3.6v17.92c0,1.99,1.61,3.6,3.58,3.6h24.92c1.98,0,3.58-1.62,3.58-3.6v-17.92c0-1.99-1.61-3.6-3.58-3.6h-24.92Z"/>
          <g>
            <path class="st14" d="M41.39,80.91l-.43-.24,2.84-5.09h0s.37-1.24-.39-2.51c-.75-1.26-2.41-1.22-2.42-1.22h-12.27v-.49h12.27c.07,0,1.95-.05,2.85,1.46.89,1.49.43,2.9.41,2.96l-2.86,5.13Z"/>
            <path class="st14" d="M48.5,80.91l-2.84-5.09c-.04-.1-.49-1.52.4-3.01.9-1.51,2.78-1.47,2.86-1.46h12.26v.49h-12.27s-1.68-.04-2.43,1.22c-.77,1.29-.37,2.54-.37,2.55l2.83,5.05-.43.24Z"/>
            <path class="st14" d="M48.85,64.62c-.3,0-1.97-.07-2.8-1.47-.89-1.49-.43-2.9-.41-2.96l2.86-5.13.43.24-2.84,5.09h0s-.37,1.24.39,2.51c.75,1.26,2.4,1.22,2.42,1.22h12.27v.49h-12.27s-.02,0-.05,0Z"/>
            <path class="st14" d="M41.03,64.62s-.04,0-.05,0h-12.26v-.49h12.27s1.68.04,2.43-1.22c.77-1.29.37-2.54.37-2.56l-2.83-5.05.43-.24,2.84,5.09c.04.1.49,1.52-.4,3.01-.83,1.4-2.5,1.47-2.81,1.47Z"/>
            <rect class="st14" x="40.74" y="64.37" width=".49" height="7.18"/>
            <rect class="st14" x="48.51" y="64.37" width=".49" height="7.18"/>
          </g>
        </g>
        <path class="st2" d="M235.05,1.32H13.06C6.82,1.32,1.71,6.46,1.71,12.74v132.74c0,6.28,5.11,11.42,11.35,11.42h221.99c6.24,0,11.35-5.14,11.35-11.42V12.74c0-6.28-5.11-11.42-11.35-11.42Z"/>
        <path class="st6" d="M235.13,1.32H14.68C8.49,1.32,3.42,6.39,3.42,12.59v131.06c0,6.2,5.07,11.27,11.27,11.27h220.45c6.2,0,11.27-5.07,11.27-11.27V12.59c0-6.2-5.07-11.27-11.27-11.27Z"/>
        <g class="st8">
          <path class="st13" d="M337.68-52.49c-78.1-78.15-202.45-82.38-285.58-12.68-4.96,3.75-9.68,7.86-14.2,12.38-4.2,4.2-8.04,8.73-11.64,13.42C-12.13,6.11-29.77,66.19-21.89,125.57h-.16s1.05,6.62,1.05,6.62l1.12,6.57h.25c8.17,41.13,27.95,78.55,57.83,108.45,78.08,78.14,202.46,82.37,285.58,12.68,4.98-3.74,9.74-7.89,14.22-12.37,4.52-4.52,8.62-9.25,12.36-14.23,69.65-83.19,65.41-207.65-12.67-285.79ZM367.24,139.32l-20.96,20.98c-5.83-17.83-14.96-36.91-27.05-56.44l34.78-34.8c8.96,23.45,13.4,47.34,13.24,70.27ZM159.66,263.54l34.76-34.79c19.53,12.09,38.62,21.2,56.43,27.04l-21.03,21.04c-22.85.1-46.72-4.36-70.17-13.3ZM52.51,242.34l19.25-19.27c19.87,18.88,41.82,33.94,64.56,44.93l-15.95,15.96c-24.58-8.86-47.77-22.75-67.86-41.63ZM20.03,120.87c-7.86-22.16-11.51-44.34-11.3-65.58l20.97-20.99c4.48,13.66,11.01,28.21,19.4,43.39l-.07.04,3.35,5.79,3.36,5.78.08-.08c.32.49.6,1.02.91,1.53l-34.86,34.89c-.61-1.59-1.28-3.19-1.86-4.78ZM216.22-68.83l-34.78,34.8c-19.5-12.09-38.58-21.24-56.4-27.07l20.96-20.98c22.91-.16,46.82,4.32,70.22,13.25ZM323.39-47.65l-19.28,19.29c-19.88-18.87-41.78-33.95-64.55-44.91l15.98-15.99c24.57,8.84,47.69,22.76,67.85,41.61ZM294.64-18.88l-41.49,41.52c-19.77-19.23-40.13-35.79-60.2-49.26l36.59-36.62c22.9,10.51,45.08,25.38,65.09,44.36ZM63.93,76.77c-11.03-18.92-18.81-36.87-23.55-53.16L72.59-8.61l41.73,41.76-47.84,47.87c-.84-1.45-1.77-2.85-2.54-4.25ZM25.45,19.61l-15.29,15.3c1.95-14.61,5.91-28.49,11.76-41.29.16,8.09,1.36,16.81,3.53,25.99ZM43.13-38.09l19.99,20-26.33,26.34c-3.22-19.29-1.21-35.26,6.34-46.35ZM72.57-27.54l-20.02-20.03c11.29-7.71,27.32-9.57,46.26-6.23l-26.24,26.26ZM114.15-50.2c17.7,5.17,37.27,14.03,57.37,26.1l-47.76,47.79-41.73-41.76,32.11-32.14ZM123.77,42.61l54.71,54.75-55.7,55.74c-18.72-19.26-35.34-39.84-48.96-60.5l49.96-49.99ZM187.93,106.82l54.73,54.77-49.89,49.93c-20.27-13.3-40.91-29.83-60.54-48.95l55.7-55.74ZM252.1,171.03l41.73,41.76-32.07,32.1c-17.71-5.13-37.27-13.97-57.41-26.07l47.76-47.79ZM303.31,222.28l20,20.02c-11.26,7.67-27.29,9.54-46.27,6.26l26.26-26.28ZM312.76,212.83l26.24-26.26c3.32,18.94,1.46,34.97-6.24,46.28l-20-20.02ZM303.27,203.34l-41.73-41.76,47.76-47.79c12.09,20.15,20.93,39.71,26.09,57.41l-32.11,32.14ZM252.11,152.14l-54.73-54.77,55.74-55.78c19.07,19.68,35.62,40.3,48.92,60.58l-49.93,49.97ZM187.93,87.91l-54.71-54.75,49.93-49.97c20.3,13.33,40.85,29.86,60.52,48.94l-55.74,55.78ZM110.3-65.3c-9.34-2.13-18.17-3.34-26.42-3.49,13.1-6.1,27.19-10.09,41.94-12.05l-15.53,15.54ZM64.15,102.27c13.81,20.6,30.51,41.11,49.14,60.33l-41.48,41.51c-18.5-19.54-33.57-41.7-44.35-65.13l36.68-36.71ZM62.33,213.59l-19.21,19.23C24.55,213.1,10.51,190.09,1.47,164.99l15.95-15.96c11.2,23.24,26.5,45.12,44.9,64.57ZM81.22,213.61l41.53-41.56c19.73,19.24,40.13,35.79,60.21,49.28l-36.6,36.62c-22.97-10.51-45.14-25.38-65.14-44.35ZM265.6,260.01c9.26,2.18,18.12,3.36,26.38,3.5-13.07,6.07-27.19,10.12-41.9,12.03l15.52-15.53ZM350.49,175.06l15.53-15.54c-1.96,14.77-5.96,28.85-12.05,41.96-.15-8.26-1.36-17.1-3.47-26.42ZM311.85,92.35c-13.48-20.1-30.05-40.49-49.24-60.26l41.49-41.52c18.96,20.01,33.81,42.21,44.35,65.16l-36.59,36.62ZM313.56-18.9l19.28-19.29c18.82,20.15,32.75,43.3,41.6,67.91l-15.98,15.99c-10.95-22.79-26.03-44.72-44.89-64.61ZM241.22-93.85l-14.77,14.78c-22.34-9.19-45.17-14.59-67.49-15.98l4.52-4.52c25.92-3.18,52.37-1.26,77.74,5.72ZM140.33-95.34h-.04s.02-.02.04,0ZM-8.88,72.91l4.59-4.6C-3.29,84.94-.11,101.98,5.38,118.97l-.15.09,2.22,6.3,2.25,6.3.19-.07c.56,1.43,1.07,2.9,1.68,4.36l-14.68,14.69c-1.87-6.81-3.53-13.68-4.69-20.65-3.13-19.1-3.44-38.33-1.08-57.09ZM134.68,288.54l14.75-14.76c22.3,9.2,45.18,14.58,67.51,15.96l-4.51,4.51c-25.92,3.2-52.38,1.31-77.75-5.71ZM235.56,290.08l.02-.02.02.02s-.02-.02-.04,0ZM380.52,145.02h0v.04s-.02-.02,0-.04ZM384.72,121.83l-4.52,4.52c-1.39-22.34-6.8-45.2-15.97-67.54l14.77-14.78c7,25.41,8.91,51.87,5.72,77.79Z"/>
        </g>
        <g id="CashRewards_Logo">
          <g>
            <path class="st2" d="M107.09,72.32c0-.75,0-1.48,0-2.21s0-1.44,0-2.18h-3.6v4.38h-2.82v-11.01h2.81v4.12h3.6v-4.12h2.81v11.02h-2.8Z"/>
            <path class="st2" d="M80.54,68.2c-.62,2.62-3.06,4.54-6.01,4.34-2.85-.19-5.45-2.47-5.39-5.93.05-2.87,2.45-5.37,5.3-5.53,2.94-.16,5.74,1.84,6.1,4.38-.09,0-.17.02-.25.02-.81,0-1.62,0-2.43,0-.18,0-.28-.05-.36-.22-.45-.92-1.15-1.54-2.19-1.67-1.37-.17-2.54.52-3.05,1.81-.53,1.34-.37,2.61.57,3.72,1.13,1.33,3.47,1.4,4.56-.53.18-.32.37-.4.7-.39.81.02,1.62,0,2.45,0Z"/>
            <path class="st2" d="M87.3,72.32v-1.58h-.28c-.9,0-1.8,0-2.69,0-.18,0-.27.06-.36.2-.24.42-.5.84-.76,1.25-.04.07-.14.14-.22.14-1.07,0-2.13,0-3.23,0,.04-.08.07-.14.1-.2,2.44-3.56,4.89-7.12,7.33-10.67.05-.08.15-.17.23-.17.88-.01,1.76,0,2.66,0v11.04h-2.79ZM87.27,68.48v-3.05c-.63,1.05-1.21,2.04-1.81,3.05h1.81Z"/>
            <path class="st2" d="M91.47,68.69h2.74c.14.38.22.73.4,1.04.2.35.55.49.96.44.45-.05.76-.29.9-.73.12-.39.06-.77-.27-1.01-.4-.29-.84-.51-1.28-.74-.57-.29-1.18-.5-1.73-.82-.81-.47-1.37-1.15-1.48-2.12-.15-1.24.35-2.2,1.34-2.92,1.61-1.18,4.1-.98,5.43.42.52.55.83,1.47.74,2.22h-2.75c-.04-.14-.07-.29-.12-.43-.13-.36-.37-.58-.76-.62-.39-.03-.72.09-.95.41-.25.34-.19.83.16,1.1.28.22.59.4.91.55.85.41,1.74.75,2.51,1.33.94.7,1.23,1.65,1.11,2.77-.2,1.86-1.58,2.74-3.15,2.91-1.01.1-1.99.02-2.91-.44-1.02-.51-1.56-1.37-1.71-2.48-.04-.29-.05-.58-.07-.89Z"/>
          </g>
          <g>
            <path class="st2" d="M139.19,72.33c-.15,0-.3,0-.45,0-.17.01-.24-.03-.29-.21-.34-1.29-.69-2.58-1.03-3.87-.42-1.56-.84-3.13-1.25-4.69-.01-.05-.02-.11-.04-.16-.01-.03-.04-.05-.06-.07-.01.03-.03.05-.03.08-.12.45-.25.9-.37,1.35-.65,2.46-1.31,4.92-1.95,7.38-.04.16-.1.21-.27.21-.33-.02-.67-.01-1,0-.16,0-.22-.05-.26-.2-.37-1.32-.75-2.65-1.12-3.97-.62-2.2-1.25-4.39-1.87-6.59-.02-.06-.05-.12-.04-.18,0-.03.05-.1.08-.1.3,0,.6,0,.9,0,.12,0,.13.09.15.17.24.86.48,1.72.72,2.58.62,2.21,1.23,4.41,1.85,6.62.02.07.06.13.09.2.03-.06.06-.12.08-.19.67-2.47,1.34-4.94,2.01-7.41.16-.59.32-1.19.48-1.79.03-.13.09-.2.24-.18.21.01.41.02.62,0,.16-.01.23.04.28.2.23.88.47,1.75.71,2.63.59,2.17,1.19,4.34,1.78,6.52.01.04.02.08.03.11.01.04.04.07.05.1.02-.04.04-.07.06-.11.38-1.34.75-2.68,1.13-4.02.49-1.74.98-3.48,1.46-5.23.04-.15.1-.23.27-.21.24.02.48,0,.71,0,.18,0,.18,0,.13.18-.25.88-.5,1.76-.75,2.64-.75,2.64-1.5,5.27-2.26,7.91-.02.05-.04.11-.04.16-.01.11-.07.14-.18.14-.19,0-.38,0-.57,0Z"/>
            <path class="st2" d="M163.02,66.81c0-1.75,0-3.5,0-5.26,0-.28-.03-.25.26-.25,1.01,0,2.01,0,3.02,0,1.08.01,2.13.19,3.1.68,1.4.7,2.26,1.86,2.69,3.34.74,2.61-.5,5.01-2.41,6.18-.66.41-1.4.62-2.16.74-.68.11-1.37.09-2.06.09-.74,0-1.47,0-2.21,0-.22,0-.22,0-.22-.22,0-1.77,0-3.54,0-5.3ZM164.12,66.82c0,1.43,0,2.85,0,4.28,0,.23,0,.23.23.23.65,0,1.3,0,1.95,0,.55,0,1.09-.06,1.62-.19.9-.22,1.69-.63,2.27-1.38.92-1.18,1.21-2.52.9-3.96-.3-1.38-1.11-2.4-2.4-3.01-.76-.36-1.57-.48-2.4-.49-.64-.01-1.28,0-1.93,0-.24,0-.24,0-.24.24,0,1.43,0,2.85,0,4.28Z"/>
            <path class="st2" d="M113.06,66.82c0-1.74,0-3.49,0-5.23,0-.06-.01-.13,0-.19.01-.04.06-.08.1-.09.04-.02.09,0,.14,0,1.01,0,2.01,0,3.02,0,.69,0,1.36.08,2,.34,1.24.5,1.97,1.41,2.14,2.73.26,1.92-1.02,3.55-2.94,3.82q-.29.04-.11.27c.92,1.22,1.84,2.44,2.76,3.66.05.06.07.13.11.2-.07,0-.14.01-.21.01-.31,0-.62,0-.93,0-.13,0-.22-.03-.3-.14-1.15-1.55-2.31-3.1-3.47-4.65-.02-.03-.04-.05-.06-.08-.06-.09-.05-.13.06-.13.22,0,.44,0,.67,0,.49,0,.98-.01,1.46-.15.79-.23,1.44-.65,1.73-1.46.44-1.23.01-2.8-1.77-3.28-.35-.09-.72-.13-1.08-.14-.67-.02-1.35,0-2.02,0-.23,0-.23,0-.23.24,0,3.16,0,6.33,0,9.49q0,.31-.32.31c-.21,0-.43,0-.64,0-.11,0-.14-.04-.13-.14,0-.06,0-.11,0-.17,0-1.74,0-3.47,0-5.21Z"/>
            <path class="st2" d="M153.98,66.81c0-1.74,0-3.47,0-5.21,0-.06,0-.11,0-.17,0-.1.02-.15.13-.14.04,0,.08,0,.12,0,1.01,0,2.01,0,3.02,0,.69,0,1.36.08,2,.34,1.24.5,1.97,1.41,2.14,2.74.25,1.92-1.02,3.55-2.95,3.81q-.28.04-.11.27c.92,1.22,1.84,2.44,2.76,3.66.04.06.07.12.11.18-.07.01-.15.03-.22.03-.32,0-.63,0-.95,0-.12,0-.19-.03-.26-.13-1.16-1.56-2.33-3.13-3.5-4.69-.03-.04-.05-.09-.07-.14.06-.01.11-.03.17-.04.51-.02,1.03,0,1.54-.05.55-.05,1.07-.24,1.51-.59.55-.42.84-.98.87-1.67.04-.77-.17-1.44-.75-1.97-.48-.43-1.06-.68-1.7-.71-.88-.04-1.76-.04-2.64-.05-.11,0-.17.03-.15.15,0,.06,0,.13,0,.19,0,3.12,0,6.25,0,9.37,0,.06,0,.13,0,.19,0,.1-.02.14-.13.14-.28,0-.56,0-.83,0-.11,0-.14-.05-.13-.14,0-.13,0-.25,0-.38,0-1.67,0-3.33,0-5Z"/>
            <path class="st2" d="M152.15,72.34c-.2-.01-.43.04-.57-.06-.13-.09-.17-.33-.25-.5-.42-.98-.84-1.96-1.25-2.95-.07-.16-.14-.23-.33-.23-1.55,0-3.11,0-4.66,0-.17,0-.25.06-.31.21-.47,1.11-.95,2.21-1.42,3.31-.06.14-.12.21-.29.2-.25-.02-.51,0-.76,0-.17,0-.18,0-.11-.17.31-.73.63-1.47.94-2.2,1.19-2.8,2.38-5.6,3.57-8.41.08-.19.17-.29.39-.27.24.03.48.02.71,0,.18-.01.26.05.33.21.77,1.81,1.54,3.61,2.31,5.41.74,1.72,1.47,3.45,2.21,5.17,0,.02.02.04.03.06.07.18.07.18-.11.18-.14,0-.29,0-.43,0,0,0,0,0,0,.01ZM147.39,67.62c.65,0,1.3,0,1.95,0,.19,0,.2-.01.12-.19-.65-1.57-1.3-3.14-1.96-4.71-.02-.04-.04-.08-.07-.12-.02.04-.06.08-.07.12-.67,1.57-1.34,3.14-2,4.72-.07.17-.07.19.12.19.63,0,1.27,0,1.9,0Z"/>
            <path class="st2" d="M125.03,72.33c-.91,0-1.82,0-2.74,0-.27,0-.25.03-.25-.24,0-3.52,0-7.04,0-10.56,0-.23,0-.24.23-.24,1.85,0,3.7,0,5.54,0,.23,0,.23,0,.23.23,0,.21,0,.41,0,.62,0,.11-.04.16-.15.15-.05,0-.11,0-.17,0-1.44,0-2.89,0-4.33,0-.28,0-.26-.03-.26.25,0,1.16,0,2.32,0,3.47,0,.25-.04.24.24.24,1.4,0,2.81,0,4.21,0,.06,0,.13-.01.19,0,.04.01.1.06.1.09,0,.26.01.52,0,.78,0,.04-.07.09-.11.11-.06.02-.13,0-.19,0-1.4,0-2.79,0-4.19,0-.26,0-.26,0-.26.26,0,1.19,0,2.38,0,3.57,0,.27-.02.25.24.25,1.48,0,2.95,0,4.43,0,.26,0,.24-.02.24.25,0,.19,0,.38,0,.57,0,.15-.05.19-.19.18-.9,0-1.81,0-2.71,0-.04,0-.08,0-.12,0Z"/>
            <path class="st2" d="M179.16,64.09c-.17,0-.37.06-.48-.02-.09-.06-.07-.29-.1-.44-.19-.85-.98-1.51-1.83-1.53-.96-.02-1.75.55-1.98,1.42-.22.8.06,1.52.79,1.92.36.2.77.34,1.17.47.58.18,1.17.35,1.7.66.59.34,1.04.8,1.31,1.43.8,1.82-.26,3.97-2.2,4.43-1.07.25-2.08.09-2.98-.57-.68-.5-1.06-1.2-1.2-2.03-.02-.14-.03-.28-.05-.42,0-.09.02-.15.13-.15.28,0,.56,0,.83,0,.1,0,.13.05.14.14.03.2.05.39.11.58.27.88.86,1.39,1.78,1.54,1.1.18,2.18-.46,2.49-1.51.27-.91.03-1.8-.81-2.35-.42-.28-.89-.45-1.37-.6-.52-.17-1.04-.34-1.54-.56-.74-.33-1.24-.89-1.41-1.71-.39-1.86.83-3.39,2.53-3.62.93-.13,1.76.08,2.49.68.65.54.97,1.25,1.04,2.09.01.14-.02.21-.18.19-.13-.01-.25,0-.38,0,0,0,0,0,0-.01Z"/>
          </g>
        </g>
      </g>
      <g>
        <g>
          <path class="st1" d="M55.98,80.54l-22.22.36c-4.01,0-5.17-1.2-4.93-5.59v-14.7c-.17-4.45,1.47-5.57,5.89-5.45l21.26-.12c4.01,0,5.18,1.45,4.94,5.6l.48,16.29c-.3,2.8-1.41,3.6-5.42,3.6Z"/>
          <path class="st14" d="M57.34,81.03h-24.92c-2.24,0-4.06-1.83-4.06-4.09v-17.92c0-2.25,1.82-4.09,4.06-4.09h24.92c2.24,0,4.06,1.83,4.06,4.09v17.92c0,2.25-1.82,4.09-4.06,4.09ZM32.41,55.42c-1.98,0-3.58,1.62-3.58,3.6v17.92c0,1.99,1.61,3.6,3.58,3.6h24.92c1.98,0,3.58-1.62,3.58-3.6v-17.92c0-1.99-1.61-3.6-3.58-3.6h-24.92Z"/>
        </g>
        <g class="st9">
          <g class="st12">
            <path class="st7" d="M41.73,81.19l-.43-.24,2.84-5.09h0s.37-1.24-.39-2.51c-.75-1.26-2.41-1.22-2.42-1.22h-12.27v-.49h12.27c.07,0,1.95-.05,2.85,1.46.89,1.49.43,2.9.41,2.96l-2.86,5.13Z"/>
            <path class="st7" d="M48.84,81.19l-2.84-5.09c-.04-.1-.49-1.52.4-3.01.9-1.51,2.78-1.46,2.86-1.46h12.26v.49h-12.27s-1.68-.04-2.43,1.22c-.77,1.29-.37,2.54-.37,2.56l2.83,5.05-.43.24Z"/>
            <path class="st7" d="M49.19,64.9c-.3,0-1.97-.07-2.8-1.47-.89-1.49-.43-2.9-.41-2.96l3.02-5.41.43.24-3,5.37h0s-.37,1.24.39,2.51c.75,1.26,2.4,1.22,2.42,1.22h12.27v.49h-12.27s-.02,0-.05,0Z"/>
            <path class="st7" d="M41.36,64.9s-.04,0-.05,0h-12.26v-.49h12.27s1.68.04,2.43-1.22c.77-1.29.37-2.54.37-2.56l-2.83-5.05.43-.24,2.84,5.09c.04.1.49,1.52-.4,3.01-.83,1.4-2.5,1.47-2.81,1.47Z"/>
            <rect class="st7" x="41.08" y="64.65" width=".49" height="7.18"/>
            <rect class="st7" x="48.85" y="64.65" width=".49" height="7.18"/>
          </g>
        </g>
        <path class="st14" d="M57.34,81.03h-24.92c-2.24,0-4.06-1.83-4.06-4.09v-17.92c0-2.25,1.82-4.09,4.06-4.09h24.92c2.24,0,4.06,1.83,4.06,4.09v17.92c0,2.25-1.82,4.09-4.06,4.09ZM32.41,55.42c-1.98,0-3.58,1.62-3.58,3.6v17.92c0,1.99,1.61,3.6,3.58,3.6h24.92c1.98,0,3.58-1.62,3.58-3.6v-17.92c0-1.99-1.61-3.6-3.58-3.6h-24.92Z"/>
        <g>
          <path class="st14" d="M41.33,80.91l-.43-.24,2.84-5.09h0s.37-1.24-.39-2.51c-.75-1.26-2.41-1.22-2.42-1.22h-12.27v-.49h12.27c.07,0,1.95-.05,2.85,1.46.89,1.49.43,2.9.41,2.96l-2.86,5.13Z"/>
          <path class="st14" d="M48.44,80.91l-2.84-5.09c-.04-.1-.49-1.52.4-3.01.9-1.51,2.78-1.47,2.86-1.46h12.26v.49h-12.27s-1.68-.04-2.43,1.22c-.77,1.29-.37,2.54-.37,2.55l2.83,5.05-.43.24Z"/>
          <path class="st14" d="M48.79,64.62c-.3,0-1.97-.07-2.8-1.47-.89-1.49-.43-2.9-.41-2.96l2.86-5.13.43.24-2.84,5.09h0s-.37,1.24.39,2.51c.75,1.26,2.4,1.22,2.42,1.22h12.27v.49h-12.27s-.02,0-.05,0Z"/>
          <path class="st14" d="M40.97,64.62s-.04,0-.05,0h-12.26v-.49h12.27s1.68.04,2.43-1.22c.77-1.29.37-2.54.37-2.56l-2.83-5.05.43-.24,2.84,5.09c.04.1.49,1.52-.4,3.01-.83,1.4-2.5,1.47-2.81,1.47Z"/>
          <rect class="st14" x="40.68" y="64.37" width=".49" height="7.18"/>
          <rect class="st14" x="48.45" y="64.37" width=".49" height="7.18"/>
        </g>
      </g>
    </g>
    <g id="Logo">
      <g>
        <path class="st10" d="M186.4,39.27c-.21-.86-.72-1.48-1.74-1.48-1.5,0-2.12,1.41-2.12,2.84s.63,2.84,2.12,2.84c1.08,0,1.68-.87,1.78-1.95h1.19c-.1,1.79-1.28,3.02-2.97,3.02-2.09,0-3.34-1.78-3.34-3.91s1.25-3.91,3.34-3.91c1.57.01,2.81.94,2.96,2.55h-1.22Z"/>
        <path class="st10" d="M188.34,38.96h1.05v1.04h.02c.13-.57.79-1.19,1.48-1.19.25,0,.32.02.42.03v1.15c-.16-.02-.32-.05-.48-.05-.76,0-1.37.66-1.37,1.85v2.57h-1.11v-5.4h0Z"/>
        <path class="st10" d="M195.01,41.18c-.04-.75-.52-1.43-1.27-1.43s-1.3.63-1.33,1.43h2.6ZM192.41,41.96c0,.85.43,1.6,1.36,1.6.65,0,1.04-.3,1.23-.9h1.06c-.24,1.18-1.18,1.84-2.29,1.84-1.58,0-2.47-1.18-2.47-2.84,0-1.54.94-2.85,2.44-2.85,1.59,0,2.57,1.54,2.38,3.16h-3.71Z"/>
        <path class="st10" d="M199,43.56c1,0,1.42-.97,1.42-1.91,0-1.19-.54-1.9-1.4-1.9-1.05,0-1.42.99-1.42,1.96s.43,1.85,1.4,1.85h0ZM201.49,44.36h-1.06v-.73h-.02c-.29.62-.93.88-1.56.88-1.59,0-2.37-1.26-2.37-2.88,0-1.95,1.08-2.81,2.19-2.81.64,0,1.34.25,1.68.85h.02v-2.76h1.11v7.46h0Z"/>
        <path class="st10" d="M202.49,38.96h1.11v5.4h-1.11v-5.4h0ZM202.49,36.9h1.11v1.13h-1.11v-1.13h0Z"/>
        <path class="st10" d="M204.06,38.96h.84v-1.62h1.11v1.62h1.01v.89h-1.01v2.88c0,.49.04.74.54.74.16,0,.31,0,.47-.04v.92c-.24.02-.48.06-.72.06-1.16,0-1.38-.48-1.4-1.38v-3.19h-.84v-.89h0Z"/>
        <path class="st10" d="M209.88,36.9h1.22v4.35c0,1,.06,2.16,1.64,2.16s1.64-1.16,1.64-2.16v-4.35h1.22v4.77c0,1.91-1.14,2.86-2.86,2.86s-2.86-.95-2.86-2.86v-4.77h0Z"/>
        <path class="st10" d="M216.52,38.96h1.06v.79l.02.02c.33-.6.91-.96,1.57-.96,1.09,0,1.79.63,1.79,1.84v3.71h-1.11v-3.4c-.02-.85-.33-1.21-.99-1.21-.74,0-1.22.63-1.22,1.42v3.19h-1.11v-5.4h0Z"/>
        <path class="st10" d="M221.92,38.96h1.11v5.4h-1.11v-5.4h0ZM221.92,36.9h1.11v1.13h-1.11v-1.13h0Z"/>
        <path class="st10" d="M227.65,41.65c0-.93-.44-1.9-1.44-1.9s-1.44.97-1.44,1.9.44,1.91,1.44,1.91,1.44-.97,1.44-1.91h0ZM223.66,41.65c0-1.65.93-2.84,2.55-2.84s2.55,1.19,2.55,2.84-.93,2.85-2.55,2.85-2.55-1.19-2.55-2.85h0Z"/>
        <path class="st10" d="M229.35,38.96h1.06v.79l.02.02c.33-.6.91-.96,1.57-.96,1.09,0,1.79.63,1.79,1.84v3.71h-1.11v-3.4c-.02-.85-.33-1.21-.99-1.21-.74,0-1.22.63-1.22,1.42v3.19h-1.11v-5.4h0Z"/>
        <polygon class="st10" points="181.49 23.06 187.36 23.06 187.36 24.77 183.78 24.77 183.78 26.84 187.11 26.84 187.11 28.54 183.78 28.54 183.78 31.91 181.49 31.91 181.49 23.06 181.49 23.06"/>
        <polygon class="st10" points="187.96 23.06 194.19 23.06 194.19 24.76 190.24 24.76 190.24 26.6 193.96 26.6 193.96 28.3 190.24 28.3 190.24 30.19 194.29 30.19 194.29 31.91 187.96 31.91 187.96 23.06 187.96 23.06"/>
        <path class="st10" d="M197.33,30.21h.99c1.53-.01,2.51-.71,2.51-2.78,0-2.69-1.89-2.69-2.59-2.69h-.91s0,5.47,0,5.47h0ZM194.98,23.04h3.51c.99,0,2.3.11,3.16.74,1.23.9,1.56,2.36,1.56,3.68,0,1.97-.59,3.42-2.27,4.12-.85.34-1.86.34-2.44.34h-3.53v-8.88h0Z"/>
        <polygon class="st10" points="203.79 23.06 210.02 23.06 210.02 24.76 206.07 24.76 206.07 26.6 209.79 26.6 209.79 28.3 206.07 28.3 206.07 30.19 210.12 30.19 210.12 31.91 203.79 31.91 203.79 23.06 203.79 23.06"/>
        <path class="st10" d="M213.04,26.85h.86c.51,0,.76,0,.95-.07.51-.17.61-.73.61-1.01,0-1.09-.9-1.09-1.56-1.09h-.86v2.18h0ZM210.72,23.04h3.84c1.5,0,2.06.1,2.55.64.25.27.58.76.58,1.72s-.37,1.39-.76,1.65c-.53.36-1.04.42-1.27.45v.05c1.61.05,1.7.81,1.89,2.18.08.6.2,1.56.39,2.19h-2.5c-.14-.54-.2-1.22-.28-2-.1-1.07-.14-1.46-1.17-1.46h-.97v3.47h-2.31v-8.88h0Z"/>
        <path class="st10" d="M223.77,28.5l-1.07-3.73h-.03l-1.15,3.73h2.25ZM221.39,23.04h2.81l3.28,8.88h-2.6l-.58-1.78h-3.32l-.56,1.78h-2.3l3.28-8.88h0Z"/>
        <polygon class="st10" points="227.72 23.04 230.05 23.04 230.05 30.17 233.78 30.17 233.78 31.91 227.72 31.91 227.72 23.04 227.72 23.04"/>
        <polygon class="st10" points="181.49 13.21 184.66 13.21 187.47 19.83 187.44 13.21 189.46 13.21 189.46 22.09 186.35 22.09 183.49 15.19 183.51 22.09 181.49 22.09 181.49 13.21 181.49 13.21"/>
        <path class="st10" d="M195.74,18.67l-1.07-3.73h-.03l-1.15,3.73h2.25ZM193.35,13.21h2.81l3.28,8.88h-2.6l-.58-1.78h-3.32l-.56,1.78h-2.3l3.28-8.88h0Z"/>
        <polygon class="st10" points="197.72 13.21 200.26 13.21 202.15 19.65 204.14 13.21 206.43 13.21 203.4 22.09 200.65 22.09 197.72 13.21 197.72 13.21"/>
        <polygon class="st10" points="209.01 13.21 210.83 16.94 212.7 13.21 215.07 13.21 211.83 18.96 211.83 22.09 209.51 22.09 209.51 18.85 206.34 13.21 209.01 13.21 209.01 13.21"/>
        <polygon class="st10" points="233.78 35.28 233.78 32.95 181.49 32.95 181.49 35.28 233.78 35.28 233.78 35.28"/>
        <path class="st10" d="M225.73,21.01h-.16c.36-.41.66-.9.89-1.44h.51c-.32.56-.74,1.05-1.24,1.44h0ZM225.25,21.33h0s0,0,0,0h0ZM220.25,21.33h0,0ZM218.53,19.57h.51c.23.54.53,1.03.89,1.44h-.16c-.5-.39-.93-.88-1.24-1.44h0ZM219.77,13.36h.16c-.27.3-.51.65-.71,1.04h0s-.07.15-.07.15l-.07.15h0s-.03.07-.05.11h-.51c.09-.15.18-.3.28-.44.28-.38.6-.72.97-1h0ZM225.25,13.04h0s0,0,0,0h0ZM226.97,14.81h-.51c-.23-.54-.53-1.03-.89-1.44h.16c.5.39.93.88,1.24,1.44h0ZM226.93,17.35h.67c-.02.67-.18,1.31-.45,1.89h-.55c.2-.58.32-1.22.34-1.89h0ZM224.98,19.24c.11-.58.18-1.22.19-1.89h1.43c-.02.67-.14,1.31-.36,1.89h-1.26ZM224.22,21.33h.54c-.29.22-.6.4-.93.52.14-.15.27-.32.4-.52h0ZM221.28,21.33c.12.2.26.37.4.52-.33-.12-.64-.29-.93-.52h.54ZM218.9,17.35h1.43c0,.67.07,1.31.19,1.89h-1.26c-.22-.58-.34-1.22-.36-1.89h0ZM218.57,17.02h-.66c.02-.66.17-1.3.45-1.89h.55c-.21.59-.32,1.24-.34,1.89h0ZM220.53,15.13c-.12.59-.18,1.24-.19,1.89h-1.43c.02-.66.14-1.3.36-1.89h1.27ZM224.22,13.04c-.12-.2-.26-.37-.4-.52.33.12.64.3.93.52h-.54ZM222.91,17.02v-1.89h1.73c.12.58.19,1.22.2,1.89h-1.93ZM222.91,19.24v-1.89h1.93c-.01.67-.08,1.31-.2,1.89h-1.73ZM222.91,21.01v-1.44h1.65c-.14.56-.32,1.05-.54,1.44h-1.11ZM222.91,21.33h.91c-.27.38-.58.63-.91.69v-.69h0ZM222.59,21.33v.69c-.33-.06-.64-.31-.91-.69h.91ZM222.59,19.57v1.44h-1.11c-.22-.39-.4-.88-.54-1.44h1.65ZM222.59,17.35v1.89h-1.72c-.12-.58-.19-1.22-.2-1.89h1.92ZM222.59,15.13v1.89h-1.92c0-.66.08-1.3.2-1.89h1.73ZM224.02,13.36c.22.39.4.89.54,1.44h-1.65v-1.44h1.11ZM222.91,13.04v-.69c.33.06.64.31.91.69h-.91ZM222.59,12.35v.69h-.91c.28-.39.59-.63.91-.69h0ZM221.29,13.04h-.53c.29-.22.59-.39.92-.51-.14.14-.27.31-.39.51h0ZM220.96,14.69c.14-.52.31-.96.51-1.32h1.11v1.44h-1.65s.02-.08.03-.12h0ZM226.6,17.02h-1.43c0-.67-.08-1.31-.19-1.89h1.26c.21.58.34,1.22.36,1.89h0ZM227.59,17.02h-.67c-.02-.67-.14-1.31-.34-1.89h.55c.27.58.43,1.22.45,1.89h0ZM226.11,14.81h-1.2c-.13-.55-.3-1.03-.51-1.44h.72c.4.39.73.88.98,1.44h0ZM219.44,14.69c.25-.52.57-.96.94-1.33h.72c-.16.31-.3.68-.41,1.08h0s-.04.16-.04.16l-.04.16h0s0,.03-.01.04h-1.2s.03-.08.05-.11h0ZM217.91,17.35h.66c.02.67.14,1.31.34,1.89h-.55c-.27-.58-.43-1.22-.45-1.89h0ZM219.39,19.57h1.2c.13.55.3,1.03.51,1.44h-.73c-.4-.39-.73-.88-.98-1.44h0ZM225.12,21.01h-.72c.21-.41.38-.9.51-1.44h1.2c-.25.56-.59,1.05-.98,1.44h0ZM227.92,17.19c0-2.7-2.07-4.92-4.71-5.15-.15-.02-.3-.03-.46-.03-.15,0-.29.01-.43.03-1.45.12-2.79.85-3.68,2.02h0s-.1.13-.1.13l-.09.13h0c-.57.86-.87,1.84-.87,2.87,0,2.7,2.08,4.92,4.71,5.15.15.02.3.03.46.03s.31-.01.46-.03c2.64-.23,4.71-2.45,4.71-5.15h0Z"/>
        <path class="st10" d="M235.39,33.94h.16c.18,0,.34-.07.34-.24,0-.12-.09-.24-.34-.24-.07,0-.12,0-.16.01v.47h0ZM235.39,34.71h-.22v-1.39c.12-.02.23-.03.39-.03.21,0,.35.04.43.11s.13.16.13.29c0,.18-.12.29-.27.34h0c.12.03.21.14.23.35.03.22.07.3.09.34h-.23s-.07-.17-.09-.36c-.03-.18-.12-.24-.3-.24h-.16v.6h0ZM235.62,32.92c-.55,0-1,.47-1,1.06s.45,1.06,1.01,1.06c.56,0,1-.47,1-1.06s-.44-1.06-1-1.06h0ZM235.63,32.73c.68,0,1.23.56,1.23,1.25s-.54,1.26-1.23,1.26-1.24-.55-1.24-1.26.56-1.25,1.24-1.25h0Z"/>
      </g>
    </g>
    <g id="MC" class="st16">
      <g>
        <rect class="st4" x="209.18" y="113.98" width="12.69" height="22.8"/>
        <path class="st11" d="M209.98,125.38c0-4.63,2.17-8.74,5.54-11.4-2.47-1.94-5.58-3.1-8.96-3.1-8.01,0-14.5,6.49-14.5,14.5s6.49,14.5,14.5,14.5c3.38,0,6.49-1.16,8.96-3.1-3.37-2.65-5.54-6.77-5.54-11.4Z"/>
        <path class="st15" d="M237.6,134.37v-.47h.19v-.1h-.48v.1h.19v.47h.1ZM238.53,134.37v-.56h-.15l-.17.39-.17-.39h-.15v.56h.1v-.42l.16.37h.11l.16-.37v.43h.1Z"/>
        <path class="st15" d="M238.98,125.38c0,8.01-6.49,14.5-14.5,14.5-3.38,0-6.49-1.16-8.96-3.1,3.37-2.65,5.54-6.77,5.54-11.4s-2.17-8.74-5.54-11.4c2.47-1.94,5.58-3.1,8.96-3.1,8.01,0,14.5,6.49,14.5,14.5Z"/>
      </g>
      <path class="st10" d="M200.6,147.17v-2.42c0-.91-.58-1.52-1.51-1.53-.49,0-1,.14-1.35.68-.27-.43-.68-.68-1.27-.68-.41,0-.81.12-1.13.57v-.48h-.84v3.85h.85v-2.13c0-.67.37-1.02.94-1.02s.84.36.84,1.01v2.14h.85v-2.13c0-.67.39-1.02.94-1.02s.85.36.85,1.01v2.14h.85ZM213.11,143.32h-1.37v-1.17h-.85v1.17h-.78v.77h.78v1.76c0,.89.35,1.43,1.34,1.43.36,0,.78-.11,1.05-.3l-.24-.72c-.25.14-.52.22-.74.22-.42,0-.56-.26-.56-.64v-1.74h1.37v-.77ZM220.26,143.23c-.48,0-.8.23-1.01.56v-.47h-.83v3.85h.84v-2.16c0-.64.27-.99.82-.99.17,0,.35.02.52.1l.26-.79c-.19-.07-.43-.1-.6-.1h0ZM209.45,143.63c-.4-.27-.96-.4-1.57-.4-.97,0-1.6.47-1.6,1.23,0,.63.47,1.01,1.33,1.14l.39.06c.46.06.68.19.68.4,0,.3-.31.47-.88.47s-1-.19-1.28-.4l-.39.65c.46.34,1.04.5,1.67.5,1.11,0,1.76-.52,1.76-1.26,0-.68-.51-1.03-1.34-1.15l-.39-.06c-.36-.05-.65-.12-.65-.38,0-.28.27-.45.73-.45.49,0,.97.19,1.2.33l.36-.68ZM231.89,143.23c-.48,0-.8.23-1.01.56v-.47h-.83v3.85h.84v-2.16c0-.64.27-.99.82-.99.17,0,.35.02.52.1l.26-.79c-.19-.07-.43-.1-.6-.1h0ZM221.1,145.25c0,1.17.81,2.02,2.05,2.02.58,0,.97-.13,1.39-.46l-.4-.68c-.31.23-.64.35-1.01.35-.67,0-1.16-.49-1.16-1.23s.49-1.22,1.16-1.23c.36,0,.69.12,1.01.35l.4-.68c-.42-.33-.81-.46-1.39-.46-1.24,0-2.05.85-2.05,2.02h0ZM228.95,145.25v-1.92h-.84v.47c-.27-.35-.67-.56-1.22-.56-1.08,0-1.92.85-1.92,2.02s.85,2.02,1.92,2.02c.55,0,.95-.22,1.22-.56v.47h.84v-1.93ZM225.83,145.25c0-.68.44-1.23,1.17-1.23s1.16.53,1.16,1.23-.47,1.23-1.16,1.23-1.17-.56-1.17-1.23h0ZM215.72,143.23c-1.13,0-1.92.82-1.92,2.02s.82,2.02,1.97,2.02c.58,0,1.11-.15,1.58-.54l-.41-.62c-.32.26-.73.4-1.12.4-.54,0-1.03-.25-1.15-.94h2.86c0-.1.02-.21.02-.32,0-1.2-.75-2.02-1.83-2.02h0ZM215.7,143.97c.54,0,.89.34.97.93h-2c.09-.56.43-.93,1.02-.93h0ZM236.72,145.25v-3.47h-.84v2.01c-.27-.35-.67-.56-1.22-.56-1.08,0-1.92.85-1.92,2.02s.85,2.02,1.92,2.02c.55,0,.95-.22,1.22-.56v.47h.84v-1.93ZM233.6,145.25c0-.68.44-1.23,1.17-1.23s1.16.53,1.16,1.23-.47,1.23-1.16,1.23-1.17-.56-1.17-1.23h0ZM205.32,145.25v-1.92h-.84v.47c-.27-.35-.67-.56-1.22-.56-1.08,0-1.92.85-1.92,2.02s.85,2.02,1.92,2.02c.55,0,.95-.22,1.22-.56v.47h.84v-1.93ZM202.2,145.25c0-.68.44-1.23,1.17-1.23s1.16.53,1.16,1.23-.47,1.23-1.16,1.23-1.17-.56-1.17-1.23ZM238.11,146.61c.05,0,.1.01.15.03.05.02.09.05.12.08.04.03.06.08.08.12s.03.1.03.15-.01.1-.03.15c-.02.05-.05.09-.08.12-.04.03-.08.06-.12.08-.05.02-.1.03-.15.03s-.11-.01-.15-.03c-.05-.02-.09-.05-.12-.08-.04-.03-.06-.08-.08-.12-.02-.05-.03-.1-.03-.15s.01-.1.03-.15c.02-.05.05-.09.08-.12.03-.03.08-.06.12-.08.05-.02.1-.03.15-.03ZM238.11,147.3s.08,0,.12-.02c.04-.02.07-.04.09-.06.03-.03.05-.06.06-.09.02-.04.02-.08.02-.12s0-.08-.02-.12c-.02-.04-.04-.07-.06-.09-.03-.03-.06-.05-.09-.06s-.07-.02-.12-.02-.08,0-.12.02c-.04.02-.07.04-.1.06-.03.03-.05.06-.06.09-.02.04-.02.08-.02.12s0,.08.02.12c.02.04.04.07.06.09.03.03.06.05.1.06.04.02.08.02.12.02ZM238.14,146.82s.08.01.11.03c.02.02.04.05.04.08,0,.03,0,.05-.03.07-.02.02-.05.03-.08.04l.12.13h-.09l-.11-.13h-.03v.13h-.08v-.36h.16ZM238.05,146.88v.09h.09s.04,0,.05-.01c.01,0,.02-.02.02-.04s0-.03-.02-.04c-.01,0-.03-.01-.05-.01h-.09Z"/>
    </g>
    <g id="Visa">
      <path class="st10" d="M206.5,127.45l-6.8,16.23h-4.44l-3.35-12.95c-.2-.8-.38-1.09-1-1.43-1.01-.55-2.67-1.06-4.14-1.38l.1-.47h7.14c.91,0,1.73.61,1.94,1.65l1.77,9.39,4.37-11.05h4.41ZM223.88,138.38c.02-4.28-5.92-4.52-5.88-6.43.01-.58.57-1.2,1.78-1.36.6-.08,2.26-.14,4.14.73l.74-3.44c-1.01-.37-2.31-.72-3.93-.72-4.15,0-7.07,2.21-7.09,5.36-.03,2.34,2.08,3.64,3.68,4.42,1.64.8,2.18,1.3,2.18,2.02-.01,1.09-1.3,1.57-2.51,1.59-2.11.03-3.34-.57-4.31-1.02l-.76,3.56c.98.45,2.79.84,4.67.86,4.41,0,7.29-2.18,7.31-5.55M234.84,143.68h3.88l-3.39-16.23h-3.58c-.81,0-1.48.47-1.79,1.19l-6.3,15.04h4.41l.88-2.42h5.39l.51,2.42ZM230.16,137.93l2.21-6.09,1.27,6.09h-3.48ZM212.5,127.45l-3.47,16.23h-4.2l3.47-16.23h4.2Z"/>
    </g>
    <g id="John" class="st16">
      <path class="st10" d="M15.12,134.44v4.72c0,.59.05,1.21-.73,1.21-.47,0-.71-.27-.71-.72v-.63h-1.03v.58c0,1.04.68,1.71,1.75,1.71s1.75-.63,1.75-1.96v-4.91h-1.03ZM21.72,134.35c-1.72,0-2.4,2.1-2.4,3.47,0,1.49.67,3.49,2.4,3.49s2.4-2,2.4-3.49c0-1.37-.68-3.47-2.4-3.47h0ZM21.72,135.29c1.19,0,1.37,1.71,1.37,2.58s-.2,2.5-1.37,2.5-1.37-1.65-1.37-2.5.17-2.58,1.37-2.58h0ZM30.05,138.17v3.05h1.03v-6.78h-1.03v2.79h-2.26v-2.79h-1.03v6.78h1.03v-3.05h2.26ZM37.43,139.36h-.02l-2.34-4.92h-1.2v6.78h.94v-5.13h.02l2.42,5.13h1.12v-6.78h-.94v4.92h0ZM52.8,141.22h1.24l-1.18-1.51c.39-.59.45-1.36.45-2.05,0-1.44-.49-3.31-2.29-3.31s-2.29,1.87-2.29,3.31.56,3.21,2.29,3.21c.44,0,.88-.15,1.19-.41l.59.76h0ZM51.63,139.71c-.16.17-.4.22-.61.22-1.1,0-1.26-1.57-1.26-2.38s.15-2.26,1.26-2.26,1.26,1.43,1.26,2.26c0,.49,0,.88-.11,1.24l-.7-.88h-1.22l1.38,1.8h0ZM66.37,137.05h-.02l-.79-2.61h-1.59v6.78h1.03v-5.65h.02l.93,3.45h.82l.93-3.45h.02v5.65h1.03v-6.78h-1.59l-.79,2.61h0ZM72.66,135.38h3.03v-.94h-4.06v6.78h4.18v-.94h-3.15v-2.13h2.64v-.94h-2.64v-1.83h0ZM80.77,137.05h-.02l-.79-2.61h-1.59v6.78h1.03v-5.65h.02l.93,3.45h.82l.93-3.45h.02v5.65h1.03v-6.78h-1.59l-.79,2.61h0ZM86.66,135.38h1.22c.65,0,1.43.11,1.43.95s-.65.89-1.29.89h-1.36v-1.84h0ZM86.66,138.07h1.34c.79,0,1.47.18,1.47,1.13,0,.9-.68,1.08-1.42,1.08h-1.39v-2.21h0ZM88.24,141.22c1.57,0,2.26-.99,2.26-2.02,0-.66-.35-1.37-1.03-1.52v-.02c.55-.19.87-.71.87-1.28,0-1.5-1.25-1.94-2.52-1.94h-2.19v6.78h2.61ZM94.26,135.38h3.03v-.94h-4.06v6.78h4.18v-.94h-3.15v-2.13h2.64v-.94h-2.64v-1.83h0ZM101.36,138.41h.82l1.55,2.81h1.18l-1.77-3.02c.88-.16,1.35-.93,1.35-1.78,0-1.34-.95-1.98-2.19-1.98h-1.97v6.78h1.03v-2.81h0ZM101.36,137.47v-2.09h.75c.73,0,1.35.11,1.35,1s-.51,1.09-1.34,1.09h-.76Z"/>
    </g>
    <g id="Jane" class="st16">
      <g>
        <path class="st10" d="M15.65,134.29v5.06c0,1.37-.66,2.02-1.81,2.02s-1.81-.69-1.81-1.76v-.6h1.06v.65c0,.46.25.74.73.74.8,0,.75-.64.75-1.25v-4.87h1.06Z"/>
        <path class="st10" d="M20.57,139.27l-.5,2.01h-1.07l1.91-6.99h1.35l1.91,6.99h-1.07l-.51-2.01h-2.02ZM21.6,135.27h-.02l-.76,3.03h1.54l-.75-3.03Z"/>
        <path class="st10" d="M30.37,134.29h.97v6.99h-1.16l-2.5-5.29h-.02v5.29h-.97v-6.99h1.24l2.41,5.07h.02v-5.07Z"/>
        <path class="st10" d="M35.51,137.14h2.72v.97h-2.72v2.2h3.25v.97h-4.31v-6.99h4.19v.97h-3.13v1.89Z"/>
        <path class="st10" d="M52.29,140.5c-.32.27-.77.42-1.23.42-1.78,0-2.36-1.79-2.36-3.31s.52-3.41,2.36-3.41,2.36,1.93,2.36,3.41c0,.71-.06,1.51-.46,2.11l1.22,1.56h-1.28l-.61-.78ZM50.27,137.87h1.26l.72.91c.11-.37.11-.77.11-1.28,0-.86-.15-2.33-1.3-2.33s-1.3,1.48-1.3,2.33.17,2.45,1.3,2.45c.22,0,.46-.05.63-.23l-1.42-1.86Z"/>
        <path class="st10" d="M66.97,134.29h1.64v6.99h-1.06v-5.83h-.02l-.96,3.56h-.85l-.96-3.56h-.02v5.83h-1.06v-6.99h1.64l.81,2.69h.02l.81-2.69Z"/>
        <path class="st10" d="M72.64,137.14h2.72v.97h-2.72v2.2h3.25v.97h-4.31v-6.99h4.19v.97h-3.13v1.89Z"/>
        <path class="st10" d="M81.82,134.29h1.64v6.99h-1.06v-5.83h-.02l-.96,3.56h-.85l-.96-3.56h-.02v5.83h-1.06v-6.99h1.64l.81,2.69h.02l.81-2.69Z"/>
        <path class="st10" d="M86.02,141.28v-6.99h2.26c1.31,0,2.6.45,2.6,2,0,.59-.33,1.12-.9,1.32v.02c.7.15,1.06.89,1.06,1.57,0,1.06-.71,2.08-2.33,2.08h-2.69ZM87.08,137.15h1.4c.66,0,1.33-.07,1.33-.92s-.8-.98-1.48-.98h-1.26v1.9ZM87.08,140.31h1.43c.76,0,1.46-.19,1.46-1.11,0-.98-.7-1.17-1.52-1.17h-1.38v2.28Z"/>
        <path class="st10" d="M94.92,137.14h2.72v.97h-2.72v2.2h3.25v.97h-4.31v-6.99h4.19v.97h-3.13v1.89Z"/>
        <path class="st10" d="M102.24,141.28h-1.06v-6.99h2.03c1.28,0,2.26.66,2.26,2.04,0,.88-.48,1.67-1.39,1.84l1.83,3.12h-1.22l-1.6-2.9h-.85v2.9ZM103.03,137.41c.86,0,1.38-.21,1.38-1.12s-.64-1.03-1.39-1.03h-.77v2.16h.78Z"/>
      </g>
    </g>
  </g>
</svg>