<?xml version="1.0" encoding="UTF-8"?>
<svg id="Layer_4" data-name="Layer 4" xmlns="http://www.w3.org/2000/svg" viewBox="0 0 96 96">
  <defs>
    <style>
      .cls-1 {
        fill: none;
      }

      .cls-2 {
        fill: #fd6f00;
      }

      .cls-3 {
        fill: #003e74;
      }

      .cls-4 {
        fill: #0f3d70;
      }
    </style>
  </defs>
  <g>
    <path class="cls-1" d="M26.94,76.2c-.57.27-1.63,1.67-2.59,3.34l24.56-.18c-.94-1.59-1.94-2.9-2.49-3.16-2.58-.05-16.9-.05-19.49,0Z"/>
    <path class="cls-1" d="M58.59,74.39c-.04-.25-.04-.52.01-.77,1.02-4.77-1.59-9.92-2.77-11.91H17.92c-1.25,1.94-4.18,7.12-3.15,11.91.06.29.06.58,0,.86-.33,1.45-.3,3.34.14,4.08h5.4c2.79-5.45,5.21-6.34,6.45-6.37,2.32-.05,17.54-.05,19.86,0,1.24.03,3.66.92,6.45,6.37h.03c.13-.03.27-.04.42-.04h4.87c.4-.84.46-2.7.21-4.14ZM45.68,69.04h-18.77c-1.1,0-2-.9-2-2s.9-2,2-2h18.77c1.1,0,2,.9,2,2s-.9,2-2,2Z"/>
    <path class="cls-1" d="M50.2,47.81c-12.67-2.56-23.62-.69-26.84-.02l-3.69,9.19h34.07l-3.54-9.18Z"/>
    <path class="cls-1" d="M63.29,53.81c-.3-.29-.71-.46-1.24-.51v4.41h2.27c.01-1.42-.21-3.12-1.03-3.91Z"/>
    <path class="cls-1" d="M9.04,57.72h2.27v-4.41c-.52.05-.94.22-1.24.51-.82.79-1.04,2.49-1.03,3.91Z"/>
    <rect class="cls-1" x="55.51" y="82.57" width="2.87" height="3.89"/>
    <rect class="cls-1" x="14.98" y="82.57" width="2.9" height="3.92"/>
    <path class="cls-2" d="M45.68,65.04h-18.77c-1.1,0-2,.9-2,2s.9,2,2,2h18.77c1.1,0,2-.9,2-2s-.9-2-2-2Z"/>
    <path class="cls-4" d="M62.08,79.49c-1.1,0-2-.9-2-2s.9-2,2-2h.64c-.03-.57-.09-1.06-.14-1.41.87-4.72-.78-9.4-2.22-12.37h5.79c.97,0,1.8-.7,1.97-1.66.11-.63.98-6.2-2.06-9.13-1.08-1.04-3.07-2.13-6.43-1.41-.92.2-1.58,1.01-1.58,1.96v5.58l-4.52-11.71c-.24-.63-.78-1.09-1.44-1.23-2.07-.45-4.09-.8-6.05-1.05-.28-.76-1.01-1.3-1.87-1.3-.71,0-1.33.37-1.69.94-.38-.03-.76-.06-1.14-.08-.28-.76-1.01-1.3-1.87-1.3-.8,0-1.49.48-1.81,1.16-.69,0-1.35,0-2.01,0-.32-.68-1.01-1.16-1.81-1.16-.86,0-1.58.54-1.87,1.29-.39.02-.78.05-1.15.08-.36-.55-.97-.92-1.68-.92-.85,0-1.57.54-1.86,1.29-3.53.45-5.71,1.01-5.93,1.07-.61.16-1.11.6-1.35,1.19l-4.73,11.78v-5.63c0-.94-.66-1.76-1.58-1.96-3.36-.72-5.35.38-6.43,1.41-3.04,2.93-2.17,8.5-2.06,9.13.17.96,1,1.66,1.97,1.66h6.08c-1.57,2.97-3.36,7.62-2.52,12.32-.2,1.08-.53,3.71.34,5.85-.08.22-.13.44-.13.69v7.92c0,1.1.9,2,2,2h6.9c1.1,0,2-.9,2-2v-4.93l29.63-.22v5.12c0,1.1.9,2,2,2h6.87c1.1,0,2-.9,2-2v-7.94c0-.29-.07-.57-.18-.82.03-.07.05-.15.08-.22h-.2ZM62.06,53.3c.52.05.94.22,1.24.51.82.79,1.04,2.49,1.03,3.91h-2.27v-4.41ZM11.31,57.72h-2.27c-.01-1.42.21-3.12,1.03-3.91.3-.29.71-.46,1.24-.51v4.41ZM53.51,78.53c-.14,0-.28.02-.42.04h-.03c-2.79-5.45-5.21-6.34-6.45-6.37-2.32-.05-17.54-.05-19.86,0-1.24.03-3.66.92-6.45,6.37h-5.4c-.45-.75-.47-2.63-.14-4.08.06-.28.07-.58,0-.86-1.02-4.79,1.9-9.97,3.15-11.91h37.92c1.17,1.99,3.79,7.14,2.77,11.91-.05.25-.06.51-.01.77.25,1.44.19,3.3-.21,4.14h-4.87ZM48.91,79.36l-24.56.18c.97-1.67,2.02-3.06,2.59-3.34,2.58-.05,16.9-.05,19.49,0,.55.26,1.55,1.57,2.49,3.16ZM23.36,47.79c3.22-.67,14.17-2.54,26.84.02l3.54,9.18H19.67l3.69-9.19ZM17.88,86.49h-2.9v-3.92h2.9v3.92ZM55.51,86.47v-3.89h2.87v3.89h-2.87Z"/>
    <path class="cls-3" d="M84.89,10.24h-40.84c-3.35,0-6.08,2.73-6.08,6.08v19.29c0,1.1.9,2,2,2s2-.9,2-2v-19.29c0-1.15.93-2.08,2.08-2.08h40.84c1.15,0,2.08.93,2.08,2.08v57.08c0,1.15-.93,2.08-2.08,2.08h-12.27s-.03,0-.05,0h-10.49c-1.1,0-2,.9-2,2s.9,2,2,2h14.92s.03,0,.05,0h7.83c3.35,0,6.08-2.73,6.08-6.08V16.33c0-3.35-2.73-6.08-6.08-6.08Z"/>
    <path class="cls-3" d="M48.12,26.48h30.35c1.1,0,2-.9,2-2s-.9-2-2-2h-30.35c-1.1,0-2,.9-2,2s.9,2,2,2Z"/>
    <path class="cls-2" d="M48.12,34.63h22.4c1.1,0,2-.9,2-2s-.9-2-2-2h-22.4c-1.1,0-2,.9-2,2s.9,2,2,2Z"/>
  </g>
  <g id="Titles">
    <path class="cls-2" d="M74.08,70.35s-.05,0-.07,0c-.55-.02-1.08-.27-1.44-.69l-3.94-4.54c-.72-.83-.63-2.1.2-2.82.83-.72,2.1-.63,2.82.2l2.54,2.92,6.27-6.28c.78-.78,2.05-.78,2.83,0,.78.78.78,2.05,0,2.83l-7.79,7.79c-.38.38-.89.59-1.42.59Z"/>
  </g>
</svg>