<?xml version="1.0" encoding="utf-8"?>
<!-- Generator: Adobe Illustrator 25.2.1, SVG Export Plug-In . SVG Version: 6.00 Build 0)  -->
<svg version="1.1" id="Layer_1" xmlns="http://www.w3.org/2000/svg" xmlns:xlink="http://www.w3.org/1999/xlink" x="0px" y="0px"
	 viewBox="0 0 102.8 102.8" style="enable-background:new 0 0 102.8 102.8;" xml:space="preserve">
<style type="text/css">
	.st0{fill:#FFFFFF;}
</style>
<g>
	<path class="st0" d="M51.4,97.9c-3.5,0-6.3-1.2-8.7-3.6c-2.3-2.4-3.5-5.4-3.5-8.9c0-3.6,1.2-6.7,3.5-9.1c2.3-2.4,5.2-3.6,8.7-3.6
		c3.5,0,6.3,1.2,8.7,3.6c2.3,2.4,3.5,5.4,3.5,9.1c0,3.5-1.2,6.5-3.5,8.9C57.8,96.7,54.9,97.9,51.4,97.9z M44.9,64.8L42,23L41.3,4.9
		h20.2L60.8,23L58,64.8H44.9z"/>
</g>
</svg>
