<?xml version="1.0" encoding="utf-8"?>
<!-- Generator: Adobe Illustrator 25.2.1, SVG Export Plug-In . SVG Version: 6.00 Build 0)  -->
<svg version="1.1" id="Layer_1" xmlns="http://www.w3.org/2000/svg" xmlns:xlink="http://www.w3.org/1999/xlink" x="0px" y="0px"
	 viewBox="0 0 102.8 102.8" style="enable-background:new 0 0 102.8 102.8;" xml:space="preserve">
<style type="text/css">
	.st0{fill:#FFFFFF;}
</style>
<g>
	<path class="st0" d="M37.9,31l12.8-17.4L32.4,2.1c-0.9-0.6-2.1-0.3-2.7,0.6l0,0c-0.6,0.9-0.3,2.1,0.6,2.7l10.9,6.8
		c-18.4,4.3-31.7,20.7-31.7,40c0,18.8,12.8,35.2,30.8,39.8c1.3,0.3,2.7-0.5,3-1.9l0,0c0.2-1.3-0.5-2.5-1.8-2.8
		c-15.9-4.1-27.2-18.5-27.2-35.1c0-17.5,12.3-32.2,29.1-35.6l-8.8,11.9c-0.6,0.9-0.5,2.1,0.4,2.7l0,0C36,32,37.3,31.8,37.9,31z"/>
	<path class="st0" d="M91.8,52.3c0-16.6-10-31.6-25.2-37.9c-1.3-0.5-2.8,0.1-3.2,1.4v0c-0.4,1.2,0.2,2.5,1.3,3
		C78.1,24.4,87,37.6,87,52.3c0,15.3-9.7,28.9-23.9,34.1L70,73.3c0.5-1,0.1-2.1-0.8-2.6l0,0c-1-0.5-2.1-0.1-2.6,0.8l-10,19.1
		l19.8,8.6c1,0.4,2.1,0,2.6-1l0,0c0.4-1,0-2.2-1-2.6l-11.8-5.1C81.4,84.2,91.8,69.2,91.8,52.3z"/>
</g>
</svg>
