<?xml version="1.0" encoding="utf-8"?>
<!-- Generator: Adobe Illustrator 25.2.1, SVG Export Plug-In . SVG Version: 6.00 Build 0)  -->
<svg version="1.1" id="Layer_1" xmlns="http://www.w3.org/2000/svg" xmlns:xlink="http://www.w3.org/1999/xlink" x="0px" y="0px"
	 viewBox="0 0 102.8 102.8" style="enable-background:new 0 0 102.8 102.8;" xml:space="preserve">
<style type="text/css">
	.st0{fill:#FFFFFF;}
</style>
<g>
	<g>
		<path class="st0" d="M51.4,14.3c-13.8,0-24.9,11.2-24.9,24.9c0,10,8.3,20.5,15.9,27.4c1.3,1.2,2.2,2.7,2.8,4.4h12.6l0.1-0.3
			c0.6-1.5,1.5-2.8,2.6-3.8c7-6.2,15.8-17.8,15.8-27.6C76.3,25.5,65.2,14.3,51.4,14.3z"/>
	</g>
	<g>
		<path class="st0" d="M58.8,76.7H44c-0.5,0-0.9-0.4-0.9-0.9v-2c0-0.5,0.4-0.9,0.9-0.9h14.8c0.5,0,0.9,0.4,0.9,0.9v2
			C59.8,76.3,59.4,76.7,58.8,76.7z"/>
	</g>
	<g>
		<path class="st0" d="M58.8,82.6H44c-0.5,0-0.9-0.4-0.9-0.9v-2c0-0.5,0.4-0.9,0.9-0.9h14.8c0.5,0,0.9,0.4,0.9,0.9v2
			C59.8,82.2,59.4,82.6,58.8,82.6z"/>
	</g>
	<g>
		<path class="st0" d="M57.3,84.6h-5.9h-5.9c-0.7,0-1.2,0.8-0.8,1.4c0.9,1.5,2.6,2.5,4.4,2.5h2.3h2.3c1.8,0,3.5-0.9,4.4-2.5
			C58.5,85.4,58.1,84.6,57.3,84.6z"/>
	</g>
</g>
</svg>
