<?xml version="1.0" encoding="utf-8"?>
<!-- Generator: Adobe Illustrator 25.2.1, SVG Export Plug-In . SVG Version: 6.00 Build 0)  -->
<svg version="1.1" id="Layer_1" xmlns="http://www.w3.org/2000/svg" xmlns:xlink="http://www.w3.org/1999/xlink" x="0px" y="0px"
	 viewBox="0 0 102.8 102.8" style="enable-background:new 0 0 102.8 102.8;" xml:space="preserve">
<style type="text/css">
	.st0{fill:#FFFFFF;}
</style>
<g>
	<g>
		<path class="st0" d="M58.6,85.9H43.7c-0.5,0-0.9-0.4-0.9-0.9v-2c0-0.5,0.4-0.9,0.9-0.9h14.8c0.5,0,0.9,0.4,0.9,0.9v2
			C59.5,85.5,59.1,85.9,58.6,85.9z"/>
	</g>
	<g>
		<path class="st0" d="M58.6,91.8H43.7c-0.5,0-0.9-0.4-0.9-0.9v-2c0-0.5,0.4-0.9,0.9-0.9h14.8c0.5,0,0.9,0.4,0.9,0.9v2
			C59.5,91.4,59.1,91.8,58.6,91.8z"/>
	</g>
	<g>
		<path class="st0" d="M51.2,18.8c-1.1,0-2.1-0.9-2.1-2.1V5.5c0-1.1,0.9-2.1,2.1-2.1s2.1,0.9,2.1,2.1v11.2
			C53.2,17.9,52.3,18.8,51.2,18.8z"/>
	</g>
	<g>
		<path class="st0" d="M25.7,31.1c-0.5,0-1.1-0.2-1.5-0.6l-7.9-7.9c-0.8-0.8-0.8-2.1,0-2.9c0.8-0.8,2.1-0.8,2.9,0l7.9,7.9
			c0.8,0.8,0.8,2.1,0,2.9C26.7,30.9,26.2,31.1,25.7,31.1z"/>
	</g>
	<g>
		<path class="st0" d="M37.2,22c-0.8,0-1.6-0.5-1.9-1.3L31,10.4c-0.4-1.1,0.1-2.3,1.1-2.7c1.1-0.4,2.3,0.1,2.7,1.1l4.3,10.4
			c0.4,1.1-0.1,2.3-1.1,2.7C37.7,22,37.5,22,37.2,22z"/>
	</g>
	<g>
		<path class="st0" d="M18.7,42.6c-0.3,0-0.5-0.1-0.8-0.2L7.5,38.2c-1.1-0.4-1.6-1.7-1.1-2.7c0.4-1.1,1.7-1.6,2.7-1.1l10.4,4.3
			c1.1,0.4,1.6,1.7,1.1,2.7C20.2,42.2,19.5,42.6,18.7,42.6z"/>
	</g>
	<g>
		<path class="st0" d="M87.8,72.8c-0.3,0-0.5-0.1-0.8-0.2l-10.4-4.3c-1.1-0.4-1.6-1.7-1.1-2.7c0.4-1.1,1.7-1.6,2.7-1.1l10.4,4.3
			c1.1,0.4,1.6,1.7,1.1,2.7C89.4,72.3,88.6,72.8,87.8,72.8z"/>
	</g>
	<g>
		<path class="st0" d="M76.6,31.1c-0.5,0-1.1-0.2-1.5-0.6c-0.8-0.8-0.8-2.1,0-2.9l7.9-7.9c0.8-0.8,2.1-0.8,2.9,0
			c0.8,0.8,0.8,2.1,0,2.9l-7.9,7.9C77.7,30.9,77.2,31.1,76.6,31.1z"/>
	</g>
	<g>
		<path class="st0" d="M65.1,22c-0.3,0-0.5-0.1-0.8-0.2c-1.1-0.4-1.6-1.7-1.1-2.7l4.3-10.4c0.4-1.1,1.7-1.6,2.7-1.1
			c1.1,0.4,1.6,1.7,1.1,2.7L67,20.8C66.7,21.6,65.9,22,65.1,22z"/>
	</g>
	<g>
		<path class="st0" d="M84.8,56.6c-1.1,0-2.1-0.9-2.1-2.1c0-1.1,0.9-2.1,2.1-2.1l11.2,0c1.1,0,2.1,0.9,2.1,2.1
			c0,1.1-0.9,2.1-2.1,2.1L84.8,56.6z"/>
	</g>
	<g>
		<path class="st0" d="M17.5,56.6H6.3c-1.1,0-2.1-0.9-2.1-2.1c0-1.1,0.9-2.1,2.1-2.1h11.2c1.1,0,2.1,0.9,2.1,2.1
			C19.6,55.7,18.7,56.6,17.5,56.6z"/>
	</g>
	<g>
		<path class="st0" d="M83.7,42.6c-0.8,0-1.6-0.5-1.9-1.3c-0.4-1.1,0.1-2.3,1.1-2.7l10.4-4.3c1.1-0.4,2.3,0.1,2.7,1.1
			c0.4,1.1-0.1,2.3-1.1,2.7l-10.4,4.3C84.2,42.6,83.9,42.6,83.7,42.6z"/>
	</g>
	<g>
		<path class="st0" d="M12.4,72.8c-0.8,0-1.6-0.5-1.9-1.3c-0.4-1.1,0.1-2.3,1.1-2.7L22,64.5c1.1-0.4,2.3,0.1,2.7,1.1
			c0.4,1.1-0.1,2.3-1.1,2.7l-10.4,4.3C13,72.7,12.7,72.8,12.4,72.8z"/>
	</g>
	<g>
		<path class="st0" d="M57.1,93.8h-5.9h-5.9c-0.7,0-1.2,0.8-0.8,1.4c0.9,1.5,2.6,2.5,4.4,2.5h2.3h2.3c1.8,0,3.5-0.9,4.4-2.5
			C58.3,94.6,57.8,93.8,57.1,93.8z"/>
	</g>
	<g>
		<path class="st0" d="M51.2,23.5c-13.8,0-24.9,11.2-24.9,24.9c0,10,8.3,20.5,15.9,27.4c1.3,1.2,2.2,2.7,2.8,4.4h12.6l0.1-0.3
			c0.6-1.5,1.5-2.8,2.6-3.8c7-6.2,15.8-17.8,15.8-27.6C76.1,34.6,64.9,23.5,51.2,23.5z"/>
	</g>
</g>
</svg>
