<?xml version="1.0" encoding="utf-8"?>
<!-- Generator: Adobe Illustrator 25.2.1, SVG Export Plug-In . SVG Version: 6.00 Build 0)  -->
<svg version="1.1" id="Layer_1" xmlns="http://www.w3.org/2000/svg" xmlns:xlink="http://www.w3.org/1999/xlink" x="0px" y="0px"
	 viewBox="0 0 102.8 102.8" style="enable-background:new 0 0 102.8 102.8;" xml:space="preserve">
<style type="text/css">
	.st0{fill:#FFFFFF;}
</style>
<g>
	<path class="st0" d="M41,65.5c-0.5-3.7-0.3-7,0.7-9.9c1-2.9,2.4-5.6,4.1-8c1.8-2.4,3.6-4.6,5.5-6.6c1.9-2,3.5-4,4.8-5.9
		c1.3-1.9,2-3.9,2-5.9c0-2.8-0.8-4.9-2.5-6.4c-1.7-1.4-3.9-2.2-6.6-2.2c-2.5,0-4.8,0.6-6.7,1.8c-1.9,1.2-3.8,2.7-5.6,4.5l-10.9-10
		c3.2-3.7,6.9-6.7,11.3-8.9c4.4-2.3,9.2-3.4,14.5-3.4c4.9,0,9.2,0.8,13,2.4c3.8,1.6,6.9,4.1,9.1,7.6c2.3,3.4,3.4,7.8,3.4,13.1
		c0,3.3-0.7,6.3-2,8.8c-1.4,2.6-3,4.9-5,7.1c-2,2.2-3.9,4.3-5.8,6.4c-1.9,2.1-3.4,4.4-4.6,6.9c-1.2,2.5-1.6,5.3-1.2,8.6H41z
		 M49.7,98.3c-3.4,0-6.3-1.2-8.5-3.6c-2.3-2.4-3.4-5.3-3.4-8.8c0-3.6,1.1-6.6,3.4-9c2.3-2.4,5.1-3.6,8.5-3.6c3.4,0,6.3,1.2,8.6,3.6
		c2.3,2.4,3.4,5.4,3.4,9c0,3.5-1.1,6.5-3.4,8.8C55.9,97.1,53.1,98.3,49.7,98.3z"/>
</g>
</svg>
