<svg xmlns="http://www.w3.org/2000/svg" width="24" height="24" viewBox="0 0 24 24">
    <path data-name="Subtraction 117" d="M11.958 24A11.938 11.938 0 0 1 0 12.042a12.122 12.122 0 0 1 .938-4.708A11.912 11.912 0 0 1 11.958 0a12.1 12.1 0 0 1 4.708.939 11.956 11.956 0 0 1 6.394 6.395 12.1 12.1 0 0 1 .94 4.708 11.937 11.937 0 0 1-7.334 11.02 12.125 12.125 0 0 1-4.708.938zm.076-10.27 3.819 3.819 1.7-1.7-3.819-3.819 3.819-3.818-1.7-1.7-3.819 3.819-3.818-3.813-1.7 1.7 3.819 3.819-3.816 3.815 1.7 1.7 3.817-3.819z" style="fill:#68696a"/>
</svg>
