<svg width="32" height="32" viewBox="0 0 32 32" fill="none" xmlns="http://www.w3.org/2000/svg">
    <g clip-path="url(#tbw97jryva)">
        <path d="M15.993 2.667a13.319 13.319 0 0 1 12.323 8.23A13.336 13.336 0 0 1 9.173 27.453a13.321 13.321 0 0 1-6.354-9.44 13.36 13.36 0 0 1 .4-5.817 13.3 13.3 0 0 1 2.844-5.09 13.303 13.303 0 0 1 4.743-3.39 13.186 13.186 0 0 1 5.187-1.05zm6.663 17.78 2.223-2.224-6.666-6.666-2.224-2.22-8.89 8.89 2.224 2.22 6.666-6.667 6.667 6.667z" fill="#D56C0E"/>
    </g>
    <defs>
        <clipPath id="tbw97jryva">
            <path fill="#fff" transform="translate(2.667 2.667)" d="M0 0h26.667v26.667H0z"/>
        </clipPath>
    </defs>
</svg>
