<svg width="32" height="32" viewBox="0 0 32 32" fill="none" xmlns="http://www.w3.org/2000/svg">
    <g clip-path="url(#fqeb0boo4a)">
        <path d="M15.993 29.333a13.32 13.32 0 0 0 12.323-8.23A13.335 13.335 0 0 0 9.173 4.546a13.321 13.321 0 0 0-6.354 9.44 13.36 13.36 0 0 0 .4 5.817 13.299 13.299 0 0 0 2.844 5.09 13.304 13.304 0 0 0 4.743 3.39 13.187 13.187 0 0 0 5.187 1.05zm6.663-17.78 2.223 2.223-6.666 6.667-2.224 2.22-8.89-8.89 2.224-2.22 6.666 6.667 6.667-6.667z" fill="#0667BA"/>
    </g>
    <defs>
        <clipPath id="fqeb0boo4a">
            <path fill="#fff" transform="matrix(1 0 0 -1 2.667 29.333)" d="M0 0h26.667v26.667H0z"/>
        </clipPath>
    </defs>
</svg>
