<svg xmlns="http://www.w3.org/2000/svg" width="24" height="24" viewBox="0 0 24 24">
    <path data-name="Path 17315" d="M19011 12992a10 10 0 1 1 7.07-2.93 9.938 9.938 0 0 1-7.07 2.93zm-1.555-11.326a.637.637 0 0 1 .457.152.565.565 0 0 1 .148.3 3.738 3.738 0 0 1-.1.68l-.02.09c-.01.043-.02.092-.027.141l-1.215 4.172a3.753 3.753 0 0 0-.15.834 1.127 1.127 0 0 0 .3.834 1.185 1.185 0 0 0 .91.3c.969 0 1.887-.744 2.809-2.275l-.3-.152a4.454 4.454 0 0 0-.121.17l-.039.053a4.174 4.174 0 0 1-.754.916.555.555 0 0 1-.3.152c-.078 0-.078 0-.152-.074a.229.229 0 0 1-.078-.154 4.518 4.518 0 0 1 .117-.535c.008-.043.023-.094.035-.148l1.82-6.217h-.527l-2.961.453-.152.3zm2.73-4.854a1.259 1.259 0 0 0-.91.379 1.277 1.277 0 0 0-.379.91 1.289 1.289 0 0 0 2.578 0 1 1 0 0 0-.377-.91 1.267 1.267 0 0 0-.911-.377z" transform="translate(-18999 -12970.002)" style="fill:#0c0d0e"/>
</svg>
