<svg xmlns="http://www.w3.org/2000/svg" width="24" height="24" viewBox="0 0 24 24">
    <defs>
        <clipPath id="gqx0gh7wja">
            <path data-name="Rectangle 17936" style="fill:none" d="M0 0h24v24H0z"/>
        </clipPath>
    </defs>
    <g data-name="Group 42569">
        <g data-name="Group 42566">
            <g data-name="Group 42565" style="clip-path:url(#gqx0gh7wja)">
                <path data-name="Path 41517" d="M14.483 10.37a.541.541 0 0 1-.252-.062l-2.129-1.119-2.124 1.119a.543.543 0 0 1-.788-.572l.406-2.37-1.722-1.678a.543.543 0 0 1 .3-.926l2.38-.346 1.064-2.156a.543.543 0 0 1 .973 0l1.064 2.156 2.38.346a.543.543 0 0 1 .3.926l-1.722 1.678.406 2.37a.543.543 0 0 1-.535.634"/>
                <path data-name="Path 41518" d="M12.039 17.085a.465.465 0 0 1-.258-.078l-6.539-4.346a.466.466 0 0 1-.208-.388v-2.11a.466.466 0 0 1 .723-.388l6.284 4.177 6.204-4.046a.465.465 0 0 1 .72.39v2.11a.466.466 0 0 1-.211.39l-6.458 4.21a.468.468 0 0 1-.254.076"/>
                <path data-name="Path 41519" d="M12.039 21.964a.465.465 0 0 1-.258-.078L5.242 17.54a.466.466 0 0 1-.208-.388v-2.11a.466.466 0 0 1 .723-.387l6.284 4.176 6.2-4.048a.465.465 0 0 1 .72.39v2.109a.466.466 0 0 1-.211.39l-6.454 4.218a.468.468 0 0 1-.254.076"/>
            </g>
        </g>
    </g>
</svg>
