<svg xmlns="http://www.w3.org/2000/svg" width="96" height="96" viewBox="0 0 96 96">
    <g data-name="FAQ Graphic" transform="translate(-9.016 8.243)">
        <rect data-name="Rectangle 18781" width="40" height="41" rx="20" transform="translate(11.016 34.757)" style="fill:#cce7ff"/>
        <rect data-name="Rectangle 18782" width="9" height="10" rx="4.5" transform="translate(14.016 20.757)" style="fill:#cce7ff"/>
        <rect data-name="Rectangle 18478" width="80" height="80" rx="40" transform="translate(23.016 -.243)" style="opacity:.398;fill:#cce7ff"/>
        <g data-name="Group 45458">
            <g data-name="Group 45459">
                <path data-name="Union 110" d="M0 23.149A23.22 23.22 0 0 1 23.241 0C36 0 46 10.168 46 23.149A22.563 22.563 0 0 1 23.241 46 23.075 23.075 0 0 1 0 23.149zm3.686 0a19.163 19.163 0 0 0 19.555 19.179A18.921 18.921 0 0 0 42.31 23.149c0-10.921-8.376-19.477-19.069-19.477A19.539 19.539 0 0 0 3.686 23.149z" transform="translate(40.016 16.757)" style="fill:#0f3d70"/>
                <path data-name="Path 41807" d="M57.567 50.106h3.8c-.481-4.645 5.244-6.242 5.244-10.85 0-3.955-2.764-6.024-6.644-6.024a8.9 8.9 0 0 0-6.721 3.157l2.436 2.178a5.211 5.211 0 0 1 3.728-1.851 2.732 2.732 0 0 1 2.99 2.441 2.673 2.673 0 0 1 .007.389c0 3.23-5.611 5.3-4.836 10.56m1.92 8.306a2.784 2.784 0 0 0 2.807-2.76v-.107a2.788 2.788 0 0 0-2.677-2.9h-.128a2.764 2.764 0 0 0-2.774 2.755v.143a2.749 2.749 0 0 0 2.636 2.863h.128" transform="translate(3.24 -6.212)" style="fill:#0f3d70"/>
            </g>
        </g>
    </g>
</svg>
