<?xml version="1.0" encoding="utf-8"?>
<!-- Generator: Adobe Illustrator 23.0.3, SVG Export Plug-In . SVG Version: 6.00 Build 0)  -->
<svg version="1.1" id="Layer_1" xmlns="http://www.w3.org/2000/svg" xmlns:xlink="http://www.w3.org/1999/xlink" x="0px" y="0px"
	 viewBox="0 0 575 575" style="enable-background:new 0 0 575 575;" xml:space="preserve">
<style type="text/css">
	.st0{fill:#1B68B2;}
	.st1{fill:#003767;}
	.st2{fill:#DCEBF8;}
	.st3{fill:#FFFFFF;}
	.st4{fill:#003366;}
	.st5{fill:none;stroke:#1B68B2;stroke-width:9.5099;stroke-linecap:round;stroke-linejoin:round;stroke-miterlimit:10;}
	.st6{fill:#EA7923;}
	.st7{fill:#3B93D0;}
</style>
<title>Artboard 1</title>
<g id="Group_5412">
	<path id="Path_2800" class="st0" d="M179.7,446.1c-87.6-58.9-111.1-178-52.4-266s177.3-111.6,264.9-52.6l3.5,2.4"/>
	<path id="Path_2801" class="st1" d="M395.7,129.9c87.7,59.6,110.7,179.3,51.5,267.4l0,0c-60.7,87.3-180.1,109-267.4,48.6"/>
</g>
<circle class="st2" cx="287.5" cy="287.5" r="171"/>
<path class="st3" d="M287.5,116.5c-94.4,0-171,76.6-171,171s76.6,171,171,171V116.5z"/>
<g id="Group_5413">
	<path id="Path_2804" class="st4" d="M331.7,239.1c-9.3-7.3-20.1-12.4-31.5-15.2l-0.4,44.8c35.2,9.1,50.4,23.2,50.4,48.1v0.4
		c-0.4,25.4-20.2,42.5-50.1,45.1V385h-20.4v-23.5c-20.1-2.4-39.2-10.4-55-23.2l15.2-21.7c11.5,10.5,25.7,17.8,40.9,20.9l0.4-45.9
		c-34.1-9-49.7-21.4-49.7-47.9v-0.4c0.4-25,20.1-42.1,49.3-44.4v-13.8h20.4v14c15.8,2.1,30.9,8.2,43.6,17.8L331.7,239.1z
		 M281.3,263.6l0.4-41.3c-14.8,1.5-22.4,9.1-22.4,19.3v0.4C258.9,251.5,263.5,258,281.3,263.6z M299.5,296.2l-0.4,42.5
		c14.8-1.5,23.2-8.7,23.2-20.1v-0.3C322.6,308.1,317.3,301.7,299.5,296.2L299.5,296.2z"/>
</g>
<g>
	<line class="st5" x1="287.5" y1="422" x2="287.5" y2="448.6"/>
	<line class="st5" x1="287.5" y1="126.4" x2="287.5" y2="153.1"/>
	<line class="st5" x1="421.9" y1="287.5" x2="448.6" y2="287.5"/>
	<line class="st5" x1="126.4" y1="287.5" x2="153.1" y2="287.5"/>
	<line class="st5" x1="353.5" y1="401.8" x2="363.4" y2="419"/>
	<line class="st5" x1="211.6" y1="156.1" x2="221.5" y2="173.2"/>
	<line class="st5" x1="400.9" y1="353" x2="419.9" y2="363.9"/>
	<line class="st5" x1="156.1" y1="211.6" x2="173.2" y2="221.5"/>
	<line class="st5" x1="401.8" y1="221.5" x2="418.9" y2="211.6"/>
	<line class="st5" x1="156.1" y1="363.4" x2="173.2" y2="353.5"/>
	<line class="st5" x1="353.5" y1="173.2" x2="363.4" y2="156.1"/>
	<line class="st5" x1="211.6" y1="418.9" x2="221.5" y2="401.8"/>
</g>
<path class="st6" d="M96.2,287.5C96.2,182,182,96.2,287.5,96.2c82.1,0,152.3,52,179.4,124.7l23.5-36.6l3.7-5.7
	C454.8,104.5,377,53.9,287.5,53.9c-128.8,0-233.6,104.8-233.6,233.6H96.2z"/>
<polygon class="st7" points="424.9,307.2 575,307.2 500,190.5 "/>
<polygon class="st6" points="0,267.8 75,384.5 150.1,267.8 "/>
<path class="st7" d="M108.1,354.1l-23.5,36.6l-3.7,5.7c39.2,74.1,117.1,124.7,206.6,124.7c128.8,0,233.6-104.8,233.6-233.6h-42.3
	c0,105.5-85.8,191.3-191.3,191.3C205.4,478.8,135.2,426.9,108.1,354.1z"/>
</svg>
