<svg xmlns="http://www.w3.org/2000/svg" width="170.881" height="163.716" viewBox="0 0 170.881 163.716">
  <g id="balance-life" transform="translate(-708.712 -941.658)">
    <g id="Group_20325" data-name="Group 20325" transform="translate(727.332 941.658)" style="isolation: isolate">
      <path id="Path_1281" data-name="Path 1281" d="M76.426,97.6,70.8,103.226h0Z" transform="translate(-27.027 -37.229)" fill="#515151"/>
      <path id="Path_1282" data-name="Path 1282" d="M62.644,89.8h0L21.9,130.544V189.65h81.487V130.544Zm-4.019,80.869H42.736V154.223H58.625Zm0-24.422H42.736V130.358H58.625ZM54.112,108.41a8.51,8.51,0,1,1,2.492,6.04,8.532,8.532,0,0,1-2.492-6.04Zm28.378,62.26H66.6V154.223H82.49Zm0-24.422H66.6V130.358H82.49Z" transform="translate(-8.36 -34.251)" fill="#fff"/>
      <path id="Path_1283" data-name="Path 1283" d="M88.227,99.343V73.808H74.13V85.246L54.284,65.4,0,119.622l7.543,7.6,6-6L43.592,91.177,54.284,80.486h0l46.679,46.742,7.543-7.6Z" transform="translate(0 -24.937)" fill="#0f3d70"/>
      <path id="Rectangle_1621" data-name="Rectangle 1621" d="M0,0H89.03V11.438H0Z" transform="translate(9.707 149.278)" fill="#0f3d70"/>
      <path id="Path_1289" data-name="Path 1289" d="M0,0Z" transform="translate(84.046 91.488) rotate(-9)" fill="#ea7923"/>
      <path id="Path_1290" data-name="Path 1290" d="M21.349,10.7a28.061,28.061,0,0,0-2.515,6.153,37.393,37.393,0,0,1-8.079-3.531A38.009,38.009,0,0,1,0,3.852,7.4,7.4,0,0,1,5.351,0a31.275,31.275,0,0,0,8.561,7.544A27.809,27.809,0,0,0,21.349,10.7Z" transform="translate(45.172 66.659) rotate(-9)" fill="#0f3d70"/>
      <g id="Group_8447" data-name="Group 8447" transform="translate(64.226 56.419)">
        <g id="Group_8448" data-name="Group 8448" transform="translate(0 0)">
          <g id="Group_5388" data-name="Group 5388">
            <g id="Group_5375" data-name="Group 5375" transform="translate(0 0.092)">
              <path id="Path_2741" data-name="Path 2741" d="M197.593,51.259a3.867,3.867,0,0,0-2.625-1.313L156.776,47.9a3.7,3.7,0,0,0-3.852,3.361L149.4,89.288a3.94,3.94,0,0,0,.9,2.787l5.081,5.9h0l38.85,45.325a6.1,6.1,0,0,0,8.606.656l33.194-28.441,1.393-18.2Zm-35.08,13.36a5.961,5.961,0,0,1,2.131-4.18,6.032,6.032,0,0,1,8.606.656,6.384,6.384,0,0,1,1.475,4.508,5.961,5.961,0,0,1-2.131,4.18,6.061,6.061,0,0,1-4.426,1.475,5.81,5.81,0,0,1-4.18-2.131h0a6.383,6.383,0,0,1-1.475-4.509Z" transform="translate(-149.391 -47.894)" fill="#c65d17"/>
            </g>
            <path id="Path_2742" data-name="Path 2742" d="M198.656,51.238a3.867,3.867,0,0,0-2.625-1.313l-38.194-2.131a3.411,3.411,0,0,0-2.541.82l10.163,11.8.164-.164a6.032,6.032,0,0,1,8.606.656,6.384,6.384,0,0,1,1.475,4.508,5.961,5.961,0,0,1-2.131,4.18c-.082,0-.082.082-.164.082l49.668,57.782h0L237.093,115.5l1.394-18.2Z" transform="translate(-150.454 -47.781)" fill="#ea7923"/>
            <path id="Path_2743" data-name="Path 2743" d="M253.612,126.278l-6.475-7.539a3.1,3.1,0,0,1,.328-4.344l7.459-6.4Z" transform="translate(-166.888 -58.645)" fill="#c65d17"/>
          </g>
          <path id="Path_2799" data-name="Path 2799" d="M201.673,97.516l-6.391-7.469a19.122,19.122,0,0,1,7.469-2l-.924-5.544a20.339,20.339,0,0,0-9.856,3.311l-2-2.31-3.388,2.923,1.925,2.233c-4.466,4.62-5.39,10.241-1.771,14.4l.077.077c3.773,4.389,8.24,4.236,15.17.847l6.545,7.623a18.655,18.655,0,0,1-9.779,2.464l.616,5.7a24.179,24.179,0,0,0,12.474-4l3.311,3.85,3.388-2.923-3.234-3.773c4.543-4.7,5.467-10.4,1.849-14.631l-.077-.077C213.3,94.051,208.834,93.9,201.673,97.516ZM197.9,99.287c-3.773,1.617-5.39,1.232-6.853-.385h0c-1.463-1.694-1.309-4.081,1-6.391Zm14.708,3.234c1.617,1.849,1.309,4.236-1,6.622l-6.085-7.085c3.774-1.694,5.544-1.386,7.007.385Z" transform="translate(-158.237 -53.769)" fill="#fff"/>
        </g>
      </g>
      <path id="Path_1288" data-name="Path 1288" d="M68.493,59.363A39.084,39.084,0,0,0,75.4,37.64a37.7,37.7,0,1,0-74,10.219L6.959,42.3a27.5,27.5,0,0,1-.375-4.708,31.087,31.087,0,1,1,45.536,27.5h0a30.159,30.159,0,0,1-11.18,3.371,6.85,6.85,0,0,0,.375,4.923,5.983,5.983,0,0,0,1.017,1.552A38.583,38.583,0,0,0,54.585,71.24h0A36.9,36.9,0,0,0,68.5,59.362Z" transform="translate(28.513 11.794) rotate(-9)" fill="#0f3d70"/>
    </g>
    <g id="Group_20326" data-name="Group 20326" transform="translate(708.712 1060.719)">
      <path id="Path_17103" data-name="Path 17103" d="M13262.9,8602.91c2.373-1.165-2.954-4.789-6.6-4.789s-6.6,2.145-6.6,4.789C13249.7,8602.91,13256.24,8606.182,13262.9,8602.91Z" transform="translate(-13247.463 -8560.88)" fill="#c97339"/>
      <path id="Path_17104" data-name="Path 17104" d="M8.887.179A4.072,4.072,0,0,0,6.439.2c-1.734.6-2.674,2.352-2.8,5.214a34.106,34.106,0,0,1-2,11.027A9.993,9.993,0,0,1,0,19.41l.021-.021,2.39,2.446c.422-.413,4.14-4.376,4.648-16.28.075-1.769.495-2.127.5-2.129s.948-.21,3.586,2.047a31.443,31.443,0,0,1,3.028,3.015,1.71,1.71,0,0,0,2.6-2.222,34.6,34.6,0,0,0-3.344-3.339A12.435,12.435,0,0,0,8.887.179Z" transform="matrix(0.956, -0.292, 0.292, 0.956, 64.472, 17.04)" fill="#373737"/>
      <path id="Path_17105" data-name="Path 17105" d="M13434.57,8440.313c0,8.77-12.451,6.8-29.623,6.8s-32.557,1.965-32.557-6.8,13.92-17.479,31.09-17.479S13434.57,8431.544,13434.57,8440.313Z" transform="translate(-13356.991 -8404.399)" fill="#ef9450"/>
      <g id="Group_19961" data-name="Group 19961" transform="translate(0 0)">
        <g id="Group_19959" data-name="Group 19959" transform="translate(11.946 28.448)">
          <path id="Path_17106" data-name="Path 17106" d="M13365.881,8516.543c-2.45-2-6.43,4.456-6.43,4.456-4.681,6.194-18.881,6.151-18.881,6.151-.221,1.256-.341.393-.374,1.613C13340.651,8528.766,13359.456,8533.013,13365.881,8516.543Z" transform="translate(-13340.196 -8516.159)" fill="#373737"/>
        </g>
        <path id="Path_17107" data-name="Path 17107" d="M13270.095,8295.365s.594-2.156-5.484-1.64-14.18,4.685-2.071,18.795Z" transform="translate(-13253.329 -8289.07)" fill="#373737"/>
        <path id="Path_17108" data-name="Path 17108" d="M13260.168,8255.846s-2.191-.16-5.184-.145l-3.557-4.7-.145,3.548-5.285-3.007,2.191,4.534c-4.146.488-8.086,1.559-9.383,3.793-3.1,5.352-2.291,13.6-2.291,13.6l-7.117,1.294s-5.4,19.1,17.785,16.306c0,0,13.146-.613,15.982-10.984Z" transform="translate(-13228.853 -8251.001)" fill="#ef9450"/>
        <g id="Group_19960" data-name="Group 19960" transform="translate(2.902 2.816)">
          <ellipse id="Ellipse_1649" data-name="Ellipse 1649" cx="13.254" cy="10.661" rx="13.254" ry="10.661" transform="translate(15.376 28.023) rotate(-87.642)" fill="#bc7a4a"/>
          <path id="Path_17109" data-name="Path 17109" d="M13264.4,8476.156c-.052,1.271-2.4,3.218-4.743,3.12a3.9,3.9,0,0,1-3.749-3.47c.052-1.272,2-2.227,4.341-2.129S13264.451,8474.883,13264.4,8476.156Z" transform="translate(-13255.905 -8452.598)" fill="#373737"/>
          <ellipse id="Ellipse_1650" data-name="Ellipse 1650" cx="1.297" cy="1.297" rx="1.297" ry="1.297" transform="translate(6.516 14.303)" fill="#373737"/>
          <ellipse id="Ellipse_1651" data-name="Ellipse 1651" cx="1.297" cy="1.297" rx="1.297" ry="1.297" transform="translate(17.6 14.759)" fill="#373737"/>
          <path id="Path_17110" data-name="Path 17110" d="M13503.018,8279.279s-1.7,27.326,6.363,24.055,9.921-13.291,9.921-13.291-10.562-18.748-18.414-10.852Z" transform="translate(-13474.604 -8277.25)" fill="#373737"/>
        </g>
      </g>
      <path id="Path_17111" data-name="Path 17111" d="M13408.79,8613.8c2.373-1.168-2.955-4.789-6.6-4.789s-6.6,2.145-6.6,4.789C13395.59,8613.8,13402.132,8617.069,13408.79,8613.8Z" transform="translate(-13377.701 -8570.6)" fill="#c97339"/>
      <path id="Path_17112" data-name="Path 17112" d="M13678.182,8548.2s-9.462-3.972-15.068,7.943c0,0-7.081-2.583-6.4,4.257h28.362S13686.242,8550.766,13678.182,8548.2Z" transform="translate(-13610.768 -8515.741)" fill="#c97339"/>
    </g>
  </g>
</svg>
