<?xml version="1.0" encoding="UTF-8"?>
<svg id="Layer_2" data-name="Layer 2" xmlns="http://www.w3.org/2000/svg" xmlns:xlink="http://www.w3.org/1999/xlink" version="1.1" viewBox="0 0 650 650">
  <defs>
    <style>
      .cls-1 {
        clip-path: url(#clippath);
      }

      .cls-2 {
        fill: none;
      }

      .cls-2, .cls-3, .cls-4, .cls-5, .cls-6, .cls-7, .cls-8, .cls-9, .cls-10 {
        stroke-width: 0px;
      }

      .cls-3 {
        fill: #7ab4e2;
      }

      .cls-4 {
        fill: #e8f2f9;
      }

      .cls-5 {
        fill: #125993;
      }

      .cls-11 {
        clip-path: url(#clippath-1);
      }

      .cls-6 {
        fill: #f2f2f2;
      }

      .cls-7 {
        fill: #fff;
      }

      .cls-8 {
        fill: #c0d6e2;
      }

      .cls-9 {
        fill: #c65d17;
      }

      .cls-10 {
        fill: #ea7923;
      }
    </style>
    <clipPath id="clippath">
      <path class="cls-2" d="M507.4,310.1H131.4s8.7,21.9,8.7,60.8-8.7,55.6-8.7,55.6h375.9c14.6,0,26.4-11.9,26.5-26.5v-63.7c-.1-14.5-11.9-26.3-26.5-26.3Z"/>
    </clipPath>
    <clipPath id="clippath-1">
      <path class="cls-2" d="M561.7,448.6H67.2s10.1,25.3,10.1,70-10.1,64.2-10.1,64.2h494.5c16.7,0,30.3-13.6,30.3-30.3v-73.6c0-16.7-13.6-30.3-30.3-30.3h0Z"/>
    </clipPath>
  </defs>
  <circle class="cls-6" cx="245" cy="148" r="57.3"/>
  <circle class="cls-6" cx="417.1" cy="205.3" r="57.3"/>
  <path class="cls-7" d="M340.3,403.1v-83c0-3.8.1-7.7,0-11.5s0-.1,0-.2c0-3.9-6-3.9-6,0v83c0,3.8-.1,7.7,0,11.5s0,.1,0,.2c0,3.9,6,3.9,6,0h0Z"/>
  <g>
    <g>
      <g class="cls-1">
        <g>
          <path class="cls-4" d="M131.4,319.4h402.4v20.9H131.4v-20.9Z"/>
          <path class="cls-8" d="M131.4,340.2h402.4v18.9H131.4v-18.9Z"/>
          <path class="cls-4" d="M131.4,359.2h402.4v18.9H131.4v-18.9Z"/>
          <path class="cls-8" d="M131.4,378.1h402.4v20.9H131.4v-20.9Z"/>
          <path class="cls-4" d="M131.4,397h402.4v20.9H131.4v-20.9Z"/>
        </g>
      </g>
      <path class="cls-3" d="M507.4,437.2H131.4c-5.8,0-10.6-4.7-10.6-10.5,0-5.8,4.7-10.6,10.5-10.6h376.1c8.8,0,15.9-7.1,15.9-15.9v-63.7c0-8.8-7.1-15.9-15.9-15.9H131.4c-5.8,0-10.6-4.6-10.7-10.4,0-5.8,4.6-10.6,10.4-10.7.1,0,.2,0,.3,0h375.9c20.4,0,36.9,16.5,37,36.9v63.7c0,20.5-16.5,37.1-37,37.2h0Z"/>
    </g>
    <g>
      <g class="cls-11">
        <g>
          <path class="cls-4" d="M67.2,459.3h524.8v23.7H67.2v-23.7Z"/>
          <path class="cls-8" d="M67.2,481.1h524.8v23.7H67.2v-23.7Z"/>
          <path class="cls-4" d="M67.2,503.1h524.8v23.7H67.2v-23.7Z"/>
          <path class="cls-8" d="M67.2,524.8h524.8v23.7H67.2v-23.7Z"/>
          <path class="cls-4" d="M67.2,548.6h524.8v23.7H67.2v-23.7Z"/>
        </g>
      </g>
      <path class="cls-5" d="M561.7,594.8H67.2c-6.7.1-12.2-5.2-12.3-11.9-.1-6.7,5.2-12.2,11.9-12.3h494.9c10.1,0,18.2-8.2,18.3-18.3v-73.4c0-10.1-8.2-18.2-18.3-18.3H67.2c-6.7,0-12.1-5.4-12.1-12.1s5.4-12.1,12.1-12.1h494.5c23.5,0,42.5,19.1,42.6,42.6v73.4c-.1,23.4-19.1,42.4-42.6,42.4Z"/>
    </g>
  </g>
  <g>
    <path class="cls-2" d="M193.8,148c0,14.4,5.8,27.5,15.3,37l74.3-74.3c-9.5-9.4-22.6-15.3-37-15.3-29,0-52.5,23.6-52.5,52.5Z"/>
    <path class="cls-2" d="M246.3,200.5c29,0,52.5-23.6,52.5-52.5s-5.9-27.6-15.4-37.1l-74.3,74.3c9.5,9.5,22.6,15.4,37.1,15.4Z"/>
    <path class="cls-10" d="M193.8,148c0-29,23.6-52.5,52.5-52.5s27.5,5.8,37,15.3l21.8-21.8-13.7-13.7-9.4,6.3c-4.3-2.3-8.9-4.2-13.7-5.7l-2.2-11.1h-38.9l-2.1,10.9c-4.9,1.4-9.6,3.3-14,5.7l-9.2-6.2-27.5,27.5,6,8.9c-2.6,4.7-4.7,9.7-6.3,15l-10.4,2v38.9l10.5,2c1.6,5.2,3.7,10.2,6.3,14.9l-5.9,8.8,13.2,13.2,21.5-21.5c-9.4-9.5-15.3-22.6-15.3-37Z"/>
    <path class="cls-9" d="M312.6,112.1l6.3-9.4-13.7-13.7-21.8,21.8c9.5,9.5,15.4,22.6,15.4,37.1,0,29-23.6,52.5-52.5,52.5s-27.6-5.9-37.1-15.4l-21.4,21.4,14.2,14.2,9.1-6.1c4.3,2.3,8.9,4.2,13.7,5.6l2.2,11h38.9l2.1-11c4.9-1.5,9.6-3.4,14-5.8l9.5,6.4,27.5-27.5-6.3-9.4c2.4-4.5,4.4-9.2,5.9-14.2l11.5-2.3v-38.9l-11.5-2.2c-1.5-4.9-3.5-9.7-5.9-14.2Z"/>
  </g>
  <g>
    <path class="cls-2" d="M363,200.5c0,14.4,5.8,27.5,15.3,37l74.3-74.3c-9.5-9.4-22.6-15.3-37-15.3-29,0-52.5,23.6-52.5,52.5Z"/>
    <path class="cls-2" d="M415.5,253.1c29,0,52.5-23.6,52.5-52.5s-5.9-27.6-15.4-37.1l-74.3,74.3c9.5,9.5,22.6,15.4,37.1,15.4Z"/>
    <path class="cls-10" d="M363,200.5c0-29,23.6-52.5,52.5-52.5s27.5,5.8,37,15.3l21.8-21.8-13.7-13.7-9.4,6.3c-4.3-2.3-8.9-4.2-13.7-5.7l-2.2-11.1h-38.9l-2.1,10.9c-4.9,1.4-9.6,3.3-14,5.7l-9.2-6.2-27.5,27.5,6,8.9c-2.6,4.7-4.7,9.7-6.3,15l-10.4,2v38.9l10.5,2c1.6,5.2,3.7,10.2,6.3,14.9l-5.9,8.8,13.2,13.2,21.5-21.5c-9.4-9.5-15.3-22.6-15.3-37Z"/>
    <path class="cls-9" d="M481.8,164.7l6.3-9.4-13.7-13.7-21.8,21.8c9.5,9.5,15.4,22.6,15.4,37.1,0,29-23.6,52.5-52.5,52.5s-27.6-5.9-37.1-15.4l-21.4,21.4,14.2,14.2,9.1-6.1c4.3,2.3,8.9,4.2,13.7,5.6l2.2,11h38.9l2.1-11c4.9-1.5,9.6-3.4,14-5.8l9.5,6.4,27.5-27.5-6.3-9.4c2.4-4.5,4.4-9.2,5.9-14.2l11.5-2.3v-38.9l-11.5-2.2c-1.5-4.9-3.5-9.7-5.9-14.2Z"/>
  </g>
</svg>