<svg id="Layer_1" data-name="Layer 1" xmlns="http://www.w3.org/2000/svg" xmlns:xlink="http://www.w3.org/1999/xlink" viewBox="0 0 96 96"><defs><style>.cls-1{fill:none;}.cls-2{clip-path:url(#clip-path);}.cls-3{fill:#e8f2f9;}.cls-4{fill:#c0d6e2;}.cls-5{fill:#0f3d70;}.cls-6{clip-path:url(#clip-path-2);}.cls-7{fill:#ea7923;}.cls-8{fill:#c4e1f7;}.cls-9{fill:#cfe6fa;}.cls-10{fill:#e8f4fd;}.cls-11{fill:#fff;}.cls-12{fill:#ed780f;}</style><clipPath id="clip-path"><path class="cls-1" d="M79.28,45.57H12a32.12,32.12,0,0,1,1.56,10.88c0,6.63-1.56,10-1.56,10H79.28A4.76,4.76,0,0,0,84,61.67V50.28A4.74,4.74,0,0,0,79.28,45.57Z"/></clipPath><clipPath id="clip-path-2"><path class="cls-1" d="M84,69.83H6.57s1.8,4.52,1.8,12.53c0,7.61-1.8,11.48-1.8,11.48H84a5.45,5.45,0,0,0,5.43-5.43V75.25A5.43,5.43,0,0,0,84,69.83Z"/></clipPath></defs><title>book-paper-money copy</title><g id="Group_12191" data-name="Group 12191"><g class="cls-2"><g id="Group_7537" data-name="Group 7537"><path id="Path_3975" data-name="Path 3975" class="cls-3" d="M12,47.23H84V51H12Z"/><rect id="Rectangle_2748" data-name="Rectangle 2748" class="cls-4" x="12" y="50.97" width="72.02" height="3.39"/><rect id="Rectangle_2749" data-name="Rectangle 2749" class="cls-3" x="12" y="54.35" width="72.02" height="3.39"/><path id="Path_3974" data-name="Path 3974" class="cls-4" d="M12,57.74H84v3.74H12Z"/><path id="Path_3976" data-name="Path 3976" class="cls-3" d="M12,61.13H84v3.74H12Z"/></g></g><path id="Path_3971" data-name="Path 3971" class="cls-5" d="M79.28,68.33H12a1.89,1.89,0,0,1,0-3.78H79.28a2.85,2.85,0,0,0,2.85-2.85h0V50.31a2.85,2.85,0,0,0-2.85-2.85H12a1.89,1.89,0,0,1,0-3.78H79.28a6.63,6.63,0,0,1,6.63,6.6V61.67A6.66,6.66,0,0,1,79.28,68.33Z"/><g class="cls-6"><path class="cls-3" d="M6.57,71.76H89.45V76H6.57Z"/><path class="cls-4" d="M6.57,75.66H89.45V79.9H6.57Z"/><path class="cls-3" d="M6.57,79.58H89.45v4.25H6.57Z"/><path class="cls-4" d="M6.57,83.48H89.45v4.25H6.57Z"/><path class="cls-3" d="M6.57,87.73H89.45V92H6.57Z"/></g><path class="cls-7" d="M84,96H6.57a2.18,2.18,0,0,1,0-4.35H84a3.28,3.28,0,0,0,3.27-3.27V75.25A3.29,3.29,0,0,0,84,72H6.57a2.16,2.16,0,1,1-.09-4.31H84a7.61,7.61,0,0,1,7.61,7.61V88.41A7.62,7.62,0,0,1,84,96Z"/><g id="Group_12190" data-name="Group 12190"><g id="Group_12189" data-name="Group 12189"><rect id="Rectangle_2736" data-name="Rectangle 2736" class="cls-8" x="59.11" y="19.79" width="22.73" height="4.16"/><path id="Path_1185" data-name="Path 1185" class="cls-9" d="M61.8,44.28A22.14,22.14,0,0,1,61.8,0"/><path id="Path_1186" data-name="Path 1186" class="cls-10" d="M61.8,0a22.12,22.12,0,1,1,0,44.24"/><circle id="Ellipse_278" data-name="Ellipse 278" class="cls-5" cx="62.36" cy="22.47" r="15.36"/><path id="Path_1189" data-name="Path 1189" class="cls-11" d="M66.51,18.4A7.94,7.94,0,0,0,63.59,17v4.13c3.27.81,4.68,2.1,4.68,4.42v0c0,2.37-1.84,3.91-4.59,4.17v2.1H61.79V29.7a9.8,9.8,0,0,1-5.07-2.15l1.37-2a7.67,7.67,0,0,0,3.78,1.89V23.25c-3.13-.81-4.59-2-4.59-4.42v0c0-2.32,1.84-3.87,4.51-4.13V13.42h1.89v1.29a8.36,8.36,0,0,1,4,1.63Zm-4.64,2.28V16.85c-1.37.13-2.06.86-2.06,1.81h0C59.81,19.56,60.2,20.16,61.87,20.68Zm1.72,3v3.91c1.38-.17,2.15-.82,2.15-1.85v0c0-.95-.52-1.5-2.15-2Z"/></g><path id="Path_1185-2" data-name="Path 1185-2" class="cls-9" d="M32.46,43.64a18.13,18.13,0,0,1,0-36.26"/><path id="Path_1186-2" data-name="Path 1186-2" class="cls-10" d="M32.46,7.38a18.12,18.12,0,1,1,0,36.23"/><circle id="Ellipse_278-2" data-name="Ellipse 278-2" class="cls-12" cx="32.31" cy="25.51" r="13.53"/><path id="Path_1189-2" data-name="Path 1189-2" class="cls-11" d="M35.85,21.79a7.21,7.21,0,0,0-2.61-1.27V24.2c2.91.73,4.18,1.88,4.18,4v0c0,2.11-1.65,3.5-4.1,3.73V33.8h-1.7V31.88A8.76,8.76,0,0,1,27.1,30l1.23-1.77a6.76,6.76,0,0,0,3.37,1.69V26.12c-2.8-.73-4.1-1.76-4.1-3.95v0c0-2.07,1.65-3.45,4-3.68V17.34h1.68v1.15a7.53,7.53,0,0,1,3.61,1.45Zm-4.15,2V20.41c-1.23.11-1.84.77-1.84,1.61h0C29.86,22.82,30.21,23.36,31.7,23.82Zm1.54,2.64V30c1.22-.16,1.91-.73,1.91-1.66v0c0-.83-.45-1.33-1.91-1.79Z"/></g></g></svg>