<?xml version="1.0" encoding="utf-8"?>
<!-- Generator: Adobe Illustrator 25.2.1, SVG Export Plug-In . SVG Version: 6.00 Build 0)  -->
<svg version="1.1" id="Layer_1" xmlns="http://www.w3.org/2000/svg" xmlns:xlink="http://www.w3.org/1999/xlink" x="0px" y="0px"
	 viewBox="0 0 80 80" style="enable-background:new 0 0 80 80;" xml:space="preserve">
<style type="text/css">
	.st0{fill:#FFFFFF;}
	.st1{fill:#7AB4E2;}
	.st2{fill:#3081C4;}
	.st3{fill:#EA7923;}
	.st4{fill:#CC6A1E;}
</style>
<g id="Group_7398-2_6_">
	<g id="Group_7397-2_6_">
	</g>
</g>
<g id="hQp37W_1_">
</g>
<g>
	<path class="st0" d="M23,28.5c1.6-1.4,2.5-3.4,2.5-5.7c0-4.2-3.4-7.7-7.7-7.7s-7.7,3.4-7.7,7.7c0,2.2,1,4.3,2.5,5.7
		c-4,1-7,4.6-7,8.9v7.9l0.9,0.4c0.2,0.1,4.9,1.9,11.2,1.9c6.4,0,10.9-1.8,11.1-1.9l0.9-0.4v-7.9C29.8,33.2,26.9,29.6,23,28.5z"/>
	<circle class="st1" cx="17.8" cy="22.8" r="6.2"/>
	<path class="st1" d="M20.7,29.7h-5.8c-4.2,0-7.7,3.4-7.7,7.7v6.9c0,0,4.5,1.8,10.7,1.8s10.5-1.8,10.5-1.8v-6.9
		C28.3,33.2,24.9,29.7,20.7,29.7z"/>
	<path class="st2" d="M11.7,22.8c0,3.4,2.8,6.2,6.2,6.2V16.7C14.4,16.7,11.7,19.4,11.7,22.8z"/>
	<path class="st2" d="M14.8,29.7c-4.2,0-7.7,3.4-7.7,7.7v6.9c0,0,4.5,1.8,10.7,1.8V29.7H14.8z"/>
</g>
<g>
	<path class="st0" d="M45.1,23.2c1.6-1.4,2.5-3.4,2.5-5.7c0-4.2-3.4-7.7-7.7-7.7s-7.7,3.4-7.7,7.7c0,2.2,1,4.3,2.5,5.7
		c-4,1-7,4.6-7,8.9V40l0.9,0.4c0.2,0.1,4.9,1.9,11.2,1.9c6.4,0,10.9-1.8,11.1-1.9l0.9-0.4v-7.9C52,27.9,49.1,24.3,45.1,23.2z"/>
	<circle class="st1" cx="40" cy="17.5" r="6.2"/>
	<path class="st1" d="M42.8,24.4H37c-4.2,0-7.7,3.4-7.7,7.7V39c0,0,4.5,1.8,10.7,1.8S50.5,39,50.5,39v-6.9
		C50.5,27.9,47.1,24.4,42.8,24.4z"/>
	<path class="st2" d="M33.8,17.5c0,3.4,2.8,6.2,6.2,6.2V11.4C36.6,11.4,33.8,14.1,33.8,17.5z"/>
	<path class="st2" d="M37,24.4c-4.2,0-7.7,3.4-7.7,7.7V39c0,0,4.5,1.8,10.7,1.8V24.4H37z"/>
</g>
<g>
	<g>
		<path class="st0" d="M66.9,28.5c1.6-1.4,2.5-3.4,2.5-5.7c0-4.2-3.4-7.7-7.7-7.7S54,18.5,54,22.8c0,2.2,1,4.3,2.5,5.7
			c-4,1-7,4.6-7,8.9v7.9l0.9,0.4c0.2,0.1,4.9,1.9,11.2,1.9c6.4,0,10.9-1.8,11.1-1.9l0.9-0.4v-7.9C73.8,33.2,70.9,29.6,66.9,28.5z"/>
		<circle class="st1" cx="61.8" cy="22.8" r="6.2"/>
		<path class="st1" d="M64.7,29.7h-5.8c-4.2,0-7.7,3.4-7.7,7.7v6.9c0,0,4.5,1.8,10.7,1.8s10.5-1.8,10.5-1.8v-6.9
			C72.3,33.2,68.9,29.7,64.7,29.7z"/>
		<path class="st2" d="M55.7,22.8c0,3.4,2.8,6.2,6.2,6.2V16.7C58.4,16.7,55.7,19.4,55.7,22.8z"/>
		<path class="st2" d="M58.8,29.7c-4.2,0-7.7,3.4-7.7,7.7v6.9c0,0,4.5,1.8,10.7,1.8V29.7H58.8z"/>
	</g>
</g>
<g>
	<g>
		<path class="st0" d="M32,38c1.6-1.4,2.5-3.4,2.5-5.7c0-4.2-3.4-7.7-7.7-7.7s-7.7,3.4-7.7,7.7c0,2.2,1,4.3,2.5,5.7
			c-4,1-7,4.6-7,8.9v7.9l0.9,0.4c0.2,0.1,4.9,1.9,11.2,1.9c6.4,0,10.9-1.8,11.1-1.9l0.9-0.4v-7.9C38.9,42.6,36,39,32,38z"/>
		<circle class="st1" cx="26.9" cy="32.3" r="6.2"/>
		<path class="st1" d="M29.8,39.2H24c-4.2,0-7.7,3.4-7.7,7.7v6.9c0,0,4.5,1.8,10.7,1.8s10.5-1.8,10.5-1.8v-6.9
			C37.4,42.7,34,39.2,29.8,39.2z"/>
		<path class="st2" d="M20.8,32.3c0,3.4,2.8,6.2,6.2,6.2V26.1C23.5,26.1,20.8,28.9,20.8,32.3z"/>
		<path class="st2" d="M23.9,39.2c-4.2,0-7.7,3.4-7.7,7.7v6.9c0,0,4.5,1.8,10.7,1.8V39.2H23.9z"/>
	</g>
	<g>
		<path class="st0" d="M57.9,38c1.6-1.4,2.5-3.4,2.5-5.7c0-4.2-3.4-7.7-7.7-7.7S45,28,45,32.3c0,2.2,1,4.3,2.5,5.7c-4,1-7,4.6-7,8.9
			v7.9l0.9,0.4c0.2,0.1,4.9,1.9,11.2,1.9c6.4,0,10.9-1.8,11.1-1.9l0.9-0.4v-7.9C64.8,42.6,61.9,39,57.9,38z"/>
		<circle class="st1" cx="52.8" cy="32.3" r="6.2"/>
		<path class="st1" d="M55.6,39.2h-5.8c-4.2,0-7.7,3.4-7.7,7.7v6.9c0,0,4.5,1.8,10.7,1.8s10.5-1.8,10.5-1.8v-6.9
			C63.3,42.7,59.9,39.2,55.6,39.2z"/>
		<path class="st2" d="M46.6,32.3c0,3.4,2.8,6.2,6.2,6.2V26.1C49.4,26.1,46.6,28.9,46.6,32.3z"/>
		<path class="st2" d="M49.8,39.2c-4.2,0-7.7,3.4-7.7,7.7v6.9c0,0,4.5,1.8,10.7,1.8V39.2H49.8z"/>
	</g>
</g>
<g>
	<path class="st0" d="M45.6,50.9c1.7-1.6,2.8-3.8,2.8-6.3c0-4.7-3.8-8.5-8.5-8.5s-8.5,3.8-8.5,8.5c0,2.5,1.1,4.7,2.8,6.3
		c-4.5,1.1-7.8,5.1-7.8,9.9v8.8l1.1,0.4c0.2,0.1,5.4,2.1,12.5,2.1s12.1-2,12.3-2.1l1-0.4v-8.9C53.2,56,49.9,52,45.6,50.9z"/>
	<circle class="st1" cx="39.9" cy="44.5" r="6.9"/>
	<path class="st1" d="M43,52.2h-6.5c-4.7,0-8.5,3.8-8.5,8.5v7.7c0,0,5,2,11.9,2s11.7-2,11.7-2v-7.7C51.5,56,47.7,52.2,43,52.2z"/>
	<path class="st2" d="M33,44.5c0,3.8,3.1,6.9,6.9,6.9V37.7C36.1,37.7,33,40.8,33,44.5z"/>
	<path class="st2" d="M36.5,52.2c-4.7,0-8.5,3.8-8.5,8.5v7.7c0,0,5,2,11.9,2V52.2H36.5z"/>
</g>
<path class="st3" d="M40,5.3c19.1,0,34.7,15.6,34.7,34.7S59.1,74.7,40,74.7S5.3,59.1,5.3,40S20.9,5.3,40,5.3z M40,69.7
	c16.4,0,29.7-13.3,29.7-29.7S56.4,10.3,40,10.3S10.3,23.6,10.3,40S23.6,69.7,40,69.7z"/>
<path class="st4" d="M69.7,40c0,16.4-13.3,29.7-29.7,29.7v5c19.1,0,34.7-15.6,34.7-34.7S59.1,5.3,40,5.3v5
	C56.4,10.3,69.7,23.6,69.7,40z"/>
</svg>
