<?xml version="1.0" encoding="utf-8"?>
<!-- Generator: Adobe Illustrator 23.0.3, SVG Export Plug-In . SVG Version: 6.00 Build 0)  -->
<svg version="1.1" id="Layer_1" xmlns="http://www.w3.org/2000/svg" xmlns:xlink="http://www.w3.org/1999/xlink" x="0px" y="0px"
	 viewBox="0 0 150 150" style="enable-background:new 0 0 150 150;" xml:space="preserve">
<style type="text/css">
	.st0{fill:#ED780F;}
	.st1{fill:#FFAA5F;}
	.st2{fill:#004785;}
	.st3{fill:#003366;}
	.st4{fill:#FFFFFF;}
</style>
<g>
	<circle class="st0" cx="75" cy="75" r="75"/>
	<path class="st1" d="M75,0v150c41.4,0,75-33.6,75-75S116.4,0,75,0z"/>
	<circle class="st2" cx="75" cy="75" r="63.7"/>
	<path class="st3" d="M75,11.3v127.5c35.2,0,63.7-28.5,63.7-63.7C138.7,39.8,110.2,11.3,75,11.3z"/>
	<g>
		<path class="st4" d="M73.6,105.4h4.3l0,0v-6.5l0,0c8.3-0.5,14.2-5.4,14.2-12.6c0-6.8-4.3-10.7-14.4-13l0,0V56.8
			c3.5,0.5,6.8,2.1,10.1,4.8l0,0l0,0l2.9-4l0,0c-3.9-3-7.7-4.8-12.7-5.3l0,0V23.7c0-1.2-1-2.1-2.1-2.1c-1.2,0-2.1,1-2.1,2.1v28.5
			l0,0c-8.2,0.4-14,5.5-14,12.4v0.1c0,7,4.3,10.6,14.2,13l0,0v16.8c-5-0.6-8.9-2.8-12.9-6.4l0,0l0,0l-3,4l0,0
			c4.7,4,9.8,6.3,15.8,6.9l0,0L73.6,105.4L73.6,105.4z M77.7,78.3L77.7,78.3L77.7,78.3c7.3,1.9,9.3,4.3,9.3,8.2v0.1
			c0,4.3-3.5,7.5-9.3,7.8l0,0V78.3z M73.8,72.3L73.8,72.3c-7.3-1.9-9.1-4.4-9.1-8.2c0-4.1,3.4-7.3,9.1-7.5V72.3L73.8,72.3z"/>
		<g>
			<path class="st4" d="M82.4,35.1v4.6c16.6,3.4,29.1,18.2,29.1,35.7c0,20.1-16.4,36.5-36.5,36.5S38.5,95.5,38.5,75.4
				c0-18.1,13.3-33.2,30.6-36v-4.5C49.3,37.8,34,54.9,34,75.5c0,22.6,18.4,41,41,41s41-18.4,41-41C116,55.3,101.4,38.6,82.4,35.1z"
				/>
		</g>
	</g>
</g>
</svg>
