<?xml version="1.0" encoding="utf-8"?>
<!-- Generator: Adobe Illustrator 22.1.0, SVG Export Plug-In . SVG Version: 6.00 Build 0)  -->
<svg version="1.1" id="Layer_1" xmlns="http://www.w3.org/2000/svg" xmlns:xlink="http://www.w3.org/1999/xlink" x="0px" y="0px"
	 viewBox="0 0 80 80" style="enable-background:new 0 0 80 80;" xml:space="preserve">
<style type="text/css">
	.st0{fill:#104E88;}
	.st1{fill:#EA7923;}
	.st2{fill:#0F3D70;}
	.st3{fill:#1F72B5;}
	.st4{fill:#DCEBF8;}
	.st5{font-family:'Gotham-Bold';}
	.st6{font-size:10.4172px;}
	.st7{font-size:6.1125px;}
	.st8{font-size:7.8128px;}
	.st9{font-size:5.6116px;}
</style>
<title>card-lock</title>
<g id="LC5Ccw_1_">
</g>
<g id="Layer_2_1_">
</g>
<path class="st0" d="M40.1,47.6c0,0,8.3-6.1,10.8-8.7s6.7-8.2,4.4-14.2s-8.4-6.1-11.6-4.8c-2.9,1.2-8.1,5.7-8,13.7
	C35.9,41.7,40.1,47.6,40.1,47.6z"/>
<path class="st1" d="M69.9,50.8c0,0-10.9-3.2-16.1-3.2s-10.5,4.8-13.1,5.5s-21.3,1.1-22.2,1.1s-5,1.1-3.2,5.7l21.1,0.5
	c0,0-1.4,1.1-2.5,1.1s-9.5,0-9.5,0s7.1,4,12.3,5.5s5.3,2.2,12.5-0.5s10.6-3.5,13-2.8s3.4,1.3,3.4,1.3L69.9,50.8z"/>
<path class="st1" d="M14.5,55l-8.4-5.1c0,0-2.1-1.6-0.4-4s4.3-0.6,4.3-0.6l12.4,7.6C22.4,52.9,15.6,52.2,14.5,55z"/>
<path class="st1" d="M12.5,45.4L25,53.1h4.5l-13.4-8.4C16.1,44.7,14.2,43.7,12.5,45.4z"/>
<path class="st1" d="M20,45.9c0,0,0.9-1.1,2.9,0s11.4,6.9,11.4,6.9h-3L20,45.9z"/>
<rect x="61.9" y="55.3" transform="matrix(0.2867 -0.958 0.958 0.2867 -5.9145 109.7521)" class="st2" width="17.7" height="7.1"/>
<path class="st3" d="M40.1,22.5c-1.3-1.3-2.6-2.1-3.6-2.5c-3.1-1.3-9.2-1.2-11.6,4.8c-2.3,6,1.8,11.6,4.4,14.2
	c2.6,2.6,10.8,8.7,10.8,8.7s0,0,0,0V22.5z"/>
<text transform="matrix(1 0 0 1 11.0068 30.7749)" class="st4 st5 st6">+</text>
<text transform="matrix(1 0 0 1 28.7868 13.208)" class="st4 st5 st7">+</text>
<text transform="matrix(1 0 0 1 62.5 35.8403)" class="st4 st5 st8">+</text>
<text transform="matrix(1 0 0 1 57.9102 22.7005)" class="st4 st5 st9">+</text>
</svg>
