<svg xmlns="http://www.w3.org/2000/svg" width="174.801" height="106.257" viewBox="0 0 174.801 106.257">
  <g id="maximize-wealth" transform="translate(-1028.292 -981.102)">
    <g id="Group_20331" data-name="Group 20331" transform="translate(1056.766 971.673)">
      <g id="Group_11525" data-name="Group 11525" transform="translate(0 0)">
        <g id="Group_11002" data-name="Group 11002" transform="translate(0 17.191)">
          <g id="Group_8042" data-name="Group 8042" transform="translate(0 0)">
            <g id="Group_7522" data-name="Group 7522">
              <g id="Group_7494" data-name="Group 7494">
                <g id="Group_7384" data-name="Group 7384">
                  <path id="Path_3881" data-name="Path 3881" d="M149.268,128.095H20.56V37.617a3.679,3.679,0,0,1,3.512-3.827H145.733a3.679,3.679,0,0,1,3.512,3.827h0v90.491Z" transform="translate(-11.125 -41.552)" fill="#0f3d70"/>
                  <path id="Path_3882" data-name="Path 3882" d="M85.211,126.84H25.51V41.15H84.45" transform="translate(-10.28 -40.297)" fill="#fff"/>
                  <path id="Path_3883" data-name="Path 3883" d="M75.64,41.15h58.648v85.69H75.9" transform="translate(-1.728 -40.297)" fill="#fff"/>
                  <path id="Path_3884" data-name="Path 3884" d="M12.5,106.17H158.826v8.358a3.4,3.4,0,0,1-3.383,3.406H15.918a3.395,3.395,0,0,1-3.418-3.383h0v-8.37Z" transform="translate(-12.5 -21.441)" fill="#0f3d70"/>
                  <path id="Path_3885" data-name="Path 3885" d="M59.16,106H96.432v3.98a1.089,1.089,0,0,1-1.065,1.1H60.249A1.089,1.089,0,0,1,59.16,110h0Z" transform="translate(-4.539 -21.47)" fill="#fff"/>
                </g>
              </g>
            </g>
            <g id="Group_8041" data-name="Group 8041" transform="translate(28.469 18.307)">
              <rect id="Rectangle_2730" data-name="Rectangle 2730" width="13.204" height="3.383" fill="#ed780f"/>
              <rect id="Rectangle_2731" data-name="Rectangle 2731" width="56.248" height="3.383" transform="translate(36.078)" fill="#ed780f"/>
              <rect id="Rectangle_2732" data-name="Rectangle 2732" width="13.204" height="3.383" transform="translate(0 23.588)" fill="#9ccbe5"/>
              <rect id="Rectangle_2733" data-name="Rectangle 2733" width="56.248" height="3.383" transform="translate(36.078 23.588)" fill="#9ccbe5"/>
              <rect id="Rectangle_2734" data-name="Rectangle 2734" width="13.204" height="3.383" transform="translate(0 34.17)" fill="#9ccbe5"/>
              <rect id="Rectangle_2735" data-name="Rectangle 2735" width="56.248" height="3.383" transform="translate(36.078 34.17)" fill="#9ccbe5"/>
            </g>
          </g>
        </g>
      </g>
    </g>
    <g id="Group_20332" data-name="Group 20332" transform="translate(1028.292 1008.832)">
      <g id="Group_10548" data-name="Group 10548" transform="translate(0.799 31.749)">
        <path id="Path_5716" data-name="Path 5716" d="M26.831-60.336A141.729,141.729,0,0,1,51.8-62.291a141.729,141.729,0,0,1,24.966,1.955c5.789,1.09,9.291,2.435,10.842,4.205a3.54,3.54,0,0,0,.952-2.4c0-3.03-3.637-5.066-11.794-6.6A141.884,141.884,0,0,0,51.8-67.085a141.884,141.884,0,0,0-24.966,1.953c-8.157,1.538-11.794,3.574-11.794,6.6a3.54,3.54,0,0,0,.952,2.4C17.54-57.9,21.042-59.246,26.831-60.336Z" transform="translate(-15.037 67.085)" fill="#c65d17"/>
        <path id="Path_5717" data-name="Path 5717" d="M26.519-53.5a141.74,141.74,0,0,0,24.966,1.953A141.74,141.74,0,0,0,76.451-53.5c5.789-1.092,9.291-2.437,10.842-4.207-1.551-1.77-5.053-3.115-10.842-4.205a141.729,141.729,0,0,0-24.966-1.955,141.73,141.73,0,0,0-24.966,1.955c-5.789,1.09-9.291,2.435-10.842,4.205C17.228-55.932,20.73-54.588,26.519-53.5Z" transform="translate(-14.725 68.656)" fill="#914009"/>
      </g>
      <path id="Path_5718" data-name="Path 5718" d="M39.641-24.582C53-24.582,63.862-38.9,63.862-56.506S53-88.429,39.641-88.429" transform="translate(-2.244 88.429)" fill="#c7eaff"/>
      <path id="Path_5719" data-name="Path 5719" d="M47.579-88.429c-13.356,0-24.221,14.32-24.221,31.923S34.223-24.582,47.579-24.582" transform="translate(-10.182 88.429)" fill="#8bc6ea"/>
      <g id="Group_10549" data-name="Group 10549" transform="translate(26.641 12.168)">
        <path id="Path_5720" data-name="Path 5720" d="M50.206-71.277a14.221,14.221,0,0,0-5.263-2.544l-.057,7.47c5.892,1.493,8.4,3.836,8.367,8v.079c-.031,4.241-3.393,7.072-8.328,7.525l-.03,3.812-3.378-.009.03-3.891a17.8,17.8,0,0,1-9.136-3.876l2.512-3.573a14.153,14.153,0,0,0,6.81,3.442l.058-7.664c-5.658-1.493-8.284-3.6-8.25-8v-.077c.031-4.163,3.354-6.994,8.212-7.409l.016-2.256,3.38.009L45.131-77.9a15.089,15.089,0,0,1,7.278,2.976Zm-8.38,4.1.052-6.887c-2.487.226-3.74,1.508-3.753,3.22v.037C38.113-69.17,38.842-68.117,41.826-67.176Zm3.027,5.416L44.8-54.678c2.489-.266,3.857-1.468,3.87-3.336v-.077C48.682-59.8,47.835-60.855,44.853-61.76Z" transform="translate(-32.41 80.249)" fill="#0f3d70"/>
      </g>
      <g id="Group_10550" data-name="Group 10550" transform="translate(0 38.968)">
        <path id="Path_5721" data-name="Path 5721" d="M88.541-62.232a3.419,3.419,0,0,1,.278,1.339,3.543,3.543,0,0,1-.952,2.4c-1.551,1.77-5.053,3.115-10.842,4.207a141.743,141.743,0,0,1-24.966,1.953A141.743,141.743,0,0,1,27.093-54.29C21.3-55.382,17.8-56.727,16.251-58.5a3.543,3.543,0,0,1-.952-2.4,3.419,3.419,0,0,1,.278-1.339,2.394,2.394,0,0,0-1.077,2A37.6,37.6,0,0,0,52.059-22.674,37.6,37.6,0,0,0,89.618-60.233,2.394,2.394,0,0,0,88.541-62.232Z" transform="translate(-14.5 62.232)" fill="#ea7923"/>
      </g>
    </g>
  </g>
</svg>
