<svg id="Layer_1" data-name="Layer 1" xmlns="http://www.w3.org/2000/svg" viewBox="0 0 150 150"><defs><style>.cls-1{fill:#1b68b2;}.cls-2{fill:#3b93d0;}.cls-3{fill:#fff;}.cls-4{fill:#dcebf8;}.cls-5{fill:#ea7923;}.cls-6{fill:#036;}</style></defs><title>percent-arrow</title><g id="Group_8829" data-name="Group 8829"><circle id="Ellipse_518" data-name="Ellipse 518" class="cls-1" cx="70.29" cy="75" r="50.24"/><path id="Path_4743" data-name="Path 4743" class="cls-2" d="M105.81,39.48a50.24,50.24,0,0,1-71.05,71Z"/><circle id="Ellipse_519" data-name="Ellipse 519" class="cls-3" cx="70.29" cy="75" r="40.19"/><path id="Path_4744" data-name="Path 4744" class="cls-4" d="M70.29,34.81a40.19,40.19,0,0,1,0,80.38Z"/><path id="Path_4745" data-name="Path 4745" class="cls-5" d="M70.29,135.29a60.29,60.29,0,0,1,0-120.58V24.76A50.24,50.24,0,1,0,120.52,75h10A60.36,60.36,0,0,1,70.29,135.29Z"/><path id="Path_4746" data-name="Path 4746" class="cls-5" d="M140,75.23H111.1l14.45-20.09Z"/><g id="Group_8828" data-name="Group 8828"><path id="Path_4747" data-name="Path 4747" class="cls-6" d="M55.42,58.66c6.27,0,10.07,4.52,10.07,11v.23c0,6.54-3.8,11.06-10.07,11.06h-.18C49,81,45.17,76.48,45.17,69.94v-.23c0-6.53,3.8-11,10.07-11Zm-.18,5.46c-2.55,0-3.76,2.15-3.76,5.64v.14c0,3.4,1.21,5.59,3.76,5.59h.18c2.6,0,3.76-2.15,3.76-5.59v-.14c0-3.49-1.16-5.64-3.76-5.64Zm3.22,26.55L75.39,59.33h6.76L65.23,90.67ZM85.33,69C91.6,69,95.4,73.52,95.4,80.06v.22c0,6.54-3.8,11.06-10.07,11.06h-.18c-6.27,0-10.07-4.52-10.07-11.06v-.22c0-6.54,3.8-11.06,10.07-11.06Zm-.18,5.5c-2.55,0-3.76,2.11-3.76,5.6v.13c0,3.45,1.21,5.65,3.76,5.65h.18c2.6,0,3.76-2.2,3.76-5.65V80.1c0-3.49-1.21-5.6-3.76-5.6Z"/></g></g></svg>