<svg xmlns="http://www.w3.org/2000/svg" xmlns:xlink="http://www.w3.org/1999/xlink" viewBox="0 0 80 80">
  <defs>
    <style>
      .cls-1 {
        clip-path: url(#clip-path);
      }

      .cls-2 {
        clip-path: url(#clip-path-2);
      }

      .cls-3 {
        fill: #1b68b2;
      }

      .cls-4 {
        fill: #7ab4e2;
      }

      .cls-5 {
        fill: #dcebf8;
      }

      .cls-6 {
        fill: #fff;
      }

      .cls-7, .cls-8 {
        fill: none;
        stroke-linecap: round;
        stroke-linejoin: round;
        stroke-miterlimit: 10;
      }

      .cls-7 {
        stroke: #1b68b2;
        stroke-width: 2px;
      }

      .cls-8 {
        stroke: #ea7923;
        stroke-width: 3px;
      }

      .cls-9 {
        fill: #ed780f;
      }
    </style>
    <clipPath id="clip-path">
      <rect id="Rectangle_2392" data-name="Rectangle 2392" width="80" height="80"/>
    </clipPath>
    <clipPath id="clip-path-2">
      <rect id="Rectangle_2388" data-name="Rectangle 2388" width="73" height="43.3"/>
    </clipPath>
  </defs>
  <g id="score" class="cls-1">
    <g id="Group_7066" data-name="Group 7066" transform="translate(143 -5)">
      <g id="Group_7062" data-name="Group 7062" transform="translate(-840 -884)">
        <g id="Group_7057" data-name="Group 7057" transform="translate(-286)">
          <g id="Group_5515" data-name="Group 5515" transform="translate(983 884)">
            <g id="Group_5513" data-name="Group 5513" class="cls-1">
              <g id="low-score_1_">
                <g id="Group_5445_1_" transform="translate(4 14.482)">
                  <g id="Group_3647_1_">
                    <g id="Group_4037_1_">
                      <g id="Group_4036_1_">
                        <g id="Group_4034_1_">
                          <g id="Group_4032_1_">
                            <g id="Group_4027_1_" class="cls-2">
                              <g id="Group_4026_1_" transform="translate(2.765 9.226)">
                                <g id="Group_4024_1_">
                                  <g id="Group_4023_1_">
                                    <g id="Group_4022_1_">
                                      <path id="Path_1479_1_" class="cls-3" d="M33.1,66.1A33.05,33.05,0,1,1,33.1,0"/>
                                      <path id="Path_1480_1_" class="cls-4" d="M33.1,0a33.05,33.05,0,0,1,0,66.1"/>
                                    </g>
                                  </g>
                                </g>
                                <g id="Group_4025_1_" transform="translate(6.792 7.664)">
                                  <path id="Path_1481_1_" class="cls-5" d="M25.6,0A25.65,25.65,0,1,1,0,25.6,25.585,25.585,0,0,1,25.6,0h0"/>
                                </g>
                              </g>
                            </g>
                            <g id="Group_4028_1_" class="cls-2">
                              <path id="Path_1482_1_" class="cls-6" d="M35.2,18.1A25.649,25.649,0,0,1,60.8,43.7H35.2Z"/>
                            </g>
                            <g id="Group_4030_1_" class="cls-2">
                              <g id="Group_4029_1_" transform="translate(8.385 15.748)">
                                <path id="Path_1483_1_" class="cls-6" d="M26.8,53.6A26.8,26.8,0,1,1,53.6,26.8h0A26.8,26.8,0,0,1,26.8,53.6Zm0-51.3A24.5,24.5,0,1,0,51.3,26.8h0A24.54,24.54,0,0,0,26.8,2.3Z"/>
                              </g>
                            </g>
                            <g id="Group_4031_1_" class="cls-2">
                              <line id="Line_195_1_" class="cls-7" y2="2.6" transform="translate(35.6 19)"/>
                            </g>
                          </g>
                          <line id="Line_196_1_" class="cls-7" x2="1.8" y2="1.9" transform="translate(19.5 24.7)"/>
                          <line id="Line_198_1_" class="cls-7" x2="2.6" transform="translate(11.7 41.2)"/>
                          <line id="Line_199_1_" class="cls-7" x2="2.6" transform="translate(56.3 41.2)"/>
                          <line id="Line_200_1_" class="cls-8" x1="7" y2="14.982" transform="translate(35.5 28.018)"/>
                          <path id="Path_1484_1_" class="cls-3" d="M32.7,43.8a2.5,2.5,0,0,1,5,0"/>
                        </g>
                      </g>
                    </g>
                    <rect id="Rectangle_1706_1_" class="cls-3" width="70.2" height="3.5" transform="translate(0.5 43.3)"/>
                  </g>
                </g>
              </g>
            </g>
          </g>
          <line id="Line_196_1_2" data-name="Line_196_1_" class="cls-7" x2="1.8" y2="1.9" transform="matrix(-0.087, 0.996, -0.996, -0.087, 1039.425, 923.318)"/>
        </g>
        <g id="Group_7052" data-name="Group 7052" transform="translate(755.003 928.463)">
          <g id="Group_7050" data-name="Group 7050" transform="translate(-0.003 -0.001)">
            <path id="Path_3824" data-name="Path 3824" class="cls-9" d="M17.1,3.018,16.98,2.9A9.961,9.961,0,0,0,3.057,2.776,9.911,9.911,0,0,0,2.775,16.82l.121.121h0A9.946,9.946,0,0,0,17.1,3.018Z" transform="translate(0.003 0.001)"/>
          </g>
          <g id="Group_7051" data-name="Group 7051" transform="translate(3.58 4.104)">
            <path id="Path_3825" data-name="Path 3825" class="cls-6" d="M15.218,22.393a.942.942,0,0,1-.724-.322,1.008,1.008,0,0,1-.322-.724V17.121H9.946a.942.942,0,0,1-.724-.322,1.008,1.008,0,0,1-.322-.724.942.942,0,0,1,.322-.724,1.008,1.008,0,0,1,.724-.322h4.225V11.246a.942.942,0,0,1,.322-.724,1.008,1.008,0,0,1,.724-.322,1.065,1.065,0,0,1,1.046,1.046v3.783h3.783a1.065,1.065,0,0,1,1.046,1.046.942.942,0,0,1-.322.724,1.008,1.008,0,0,1-.724.322H16.264v4.225a1.1,1.1,0,0,1-1.046,1.046Z" transform="translate(-8.9 -10.2)"/>
          </g>
        </g>
      </g>
    </g>
  </g>
</svg>
