<?xml version="1.0" encoding="UTF-8"?>
<svg id="Layer_2" data-name="Layer 2" xmlns="http://www.w3.org/2000/svg" version="1.1" viewBox="0 0 650 650">
  <defs>
    <style>
      .cls-1 {
        fill: #f2f1f0;
      }

      .cls-1, .cls-2, .cls-3, .cls-4, .cls-5, .cls-6, .cls-7, .cls-8, .cls-9, .cls-10, .cls-11 {
        stroke-width: 0px;
      }

      .cls-2 {
        fill: #0f3d70;
      }

      .cls-3 {
        fill: #c6e2f4;
      }

      .cls-4 {
        fill: #3b93d0;
      }

      .cls-5 {
        fill: #e8f2f9;
      }

      .cls-6 {
        fill: #257abe;
      }

      .cls-7 {
        fill: #e8e8e8;
      }

      .cls-12 {
        opacity: .2;
      }

      .cls-12, .cls-13 {
        isolation: isolate;
      }

      .cls-8 {
        fill: #fff;
      }

      .cls-13 {
        opacity: .3;
      }

      .cls-9 {
        fill: #231f20;
      }

      .cls-10 {
        fill: #e37b3d;
      }

      .cls-11 {
        fill: #1b68b2;
      }
    </style>
  </defs>
  <g>
    <path class="cls-3" d="M25.8,98.4v466.4l550.8-2.1V105.7"/>
    <path class="cls-2" d="M25.8,104.9v-24.9c0-7.4,6.4-13.4,18.1-13.4h522.5c3.9,0,10.3,6,10.3,13.4v26.2"/>
    <circle class="cls-5" cx="512.6" cy="87.7" r="4.7"/>
    <circle class="cls-5" cx="530.2" cy="87.7" r="4.7"/>
    <circle class="cls-5" cx="547" cy="87.7" r="4.7"/>
    <path class="cls-8" d="M163.2,371.6h276v11.9H163.2v-11.9Z"/>
    <path class="cls-8" d="M163.2,406.8h276v11.9H163.2v-11.9Z"/>
    <path class="cls-8" d="M163.2,440.9h276v11.9H163.2v-11.9Z"/>
  </g>
  <g>
    <path id="Path_4484" data-name="Path 4484" class="cls-8" d="M461.3,546.3c-17.6-38.5-.7-84,37.8-101.7,9.2-4.2,19.1-6.6,29.2-6.9v-21.3c-53.4,1.6-96,45.2-96.3,98.7,0,3.8.2,7.6.7,11.3,5.7,49.4,47.2,86.8,96.8,87.4v-22.9c-29.4-.6-55.9-17.9-68.2-44.7Z"/>
    <path id="Path_4486" data-name="Path 4486" class="cls-1" d="M530.8,416.2h-.3c-.3,0-.6,0-.9,0v21.3c.4,0,.8,0,1.3,0h.2c42.4,0,76.7,34.3,76.7,76.7s-34.3,76.7-76.7,76.7h-.2c-.4,0-.8,0-1.3,0v22.9c.4,0,.8,0,1.3,0,1.7,0,3.4,0,5.1,0,54.5-2.8,96.4-49.3,93.6-103.8-2.7-52.5-46.1-93.7-98.7-93.8h0Z"/>
    <path id="Path_4487" data-name="Path 4487" class="cls-10" d="M531,437.5h-.2c-.4,0-.8,0-1.3,0s-.8,0-1.2,0c-42.3,1.5-75.4,37-73.9,79.3,1.4,40.7,34.4,73.1,75.1,73.9.4,0,.8,0,1.3,0h.2c42.4,0,76.7-34.3,76.7-76.7s-34.3-76.7-76.7-76.7h0ZM568,501.6l-25.3,28.4-11.9,13.4-1.3,1.4-1.3,1.4-3.3,3.6c-1.5,1.5-3.5,2.3-5.6,2.3-2.1,0-4.2-.9-5.6-2.5l-3-3.5-17.3-19.9-1.6-1.8c-2.7-3.2-2.4-7.9.8-10.7,3-2.6,7.6-2.4,10.4.5,0,0,.2.2.3.3l10.1,11.7,6.1,7.1,6.3-7.1,2.4-2.7,1.2-1.4,1.3-1.4,11.9-13.4,14-15.8c2.6-3.3,7.4-3.8,10.6-1.2,3.3,2.6,3.8,7.4,1.2,10.6-.2.2-.4.4-.5.6h0Z"/>
    <path id="Path_4488" data-name="Path 4488" class="cls-8" d="M567.4,491c-3.1-2.8-7.9-2.5-10.7.6,0,0,0,0,0,0l-14.1,15.8-11.9,13.4-1.3,1.4-1.2,1.4-2.4,2.7-6.3,7.1-6.1-7.1-10.1-11.7c0-.1-.2-.2-.3-.3-2.9-3-7.7-3.1-10.7-.2-2.9,2.8-3.1,7.3-.5,10.4l1.6,1.8,17.3,19.9,3,3.5c1.4,1.6,3.5,2.5,5.6,2.5,2.1,0,4.1-.9,5.6-2.3l3.3-3.6,1.3-1.4,1.3-1.4,11.9-13.4,25.3-28.4c2.8-3.1,2.5-7.9-.6-10.7,0,0,0,0,0,0Z"/>
  </g>
  <g id="Group_8456" data-name="Group 8456">
    <g id="Rectangle_1649" data-name="Rectangle 1649">
      <rect class="cls-4" x="206.2" y="167.5" width="25.9" height="55.5"/>
    </g>
    <g id="Rectangle_1650" data-name="Rectangle 1650">
      <rect class="cls-6" x="219" y="167.4" width="12.9" height="55.5"/>
    </g>
    <g id="Rectangle_1651" data-name="Rectangle 1651" class="cls-12">
      <rect class="cls-9" x="206.2" y="171.1" width="25.9" height="7.4"/>
    </g>
    <g id="Path_1338" data-name="Path 1338">
      <path class="cls-4" d="M307.7,168.7l110.8,66.6v106.5c-.2,2.9-2.7,5.1-5.6,5h-210.6c-2.9.1-5.4-2.1-5.5-5v-106.5l110.8-66.6Z"/>
    </g>
    <g id="Path_1339" data-name="Path 1339">
      <path class="cls-6" d="M307.7,168.7l110.8,66.6v106.5c-.2,2.9-2.7,5.1-5.6,5h-105.3v-178.1Z"/>
    </g>
    <g id="Path_1340" data-name="Path 1340">
      <path class="cls-11" d="M307.7,145.3l-131.6,92.7,13,15,118.6-81.6v-26Z"/>
    </g>
    <g id="Path_1341" data-name="Path 1341" class="cls-12">
      <path class="cls-9" d="M307.7,170.6l-111.3,76.1.4,13,110.8-75.8v-13.3Z"/>
    </g>
    <g id="Path_1342" data-name="Path 1342" class="cls-13">
      <path class="cls-9" d="M418.9,246.7l-111.2-76.1v13.3l110.8,75.8.4-13Z"/>
    </g>
    <g id="Path_1343" data-name="Path 1343">
      <path class="cls-2" d="M439.3,238l-131.5-92.7v26l118.6,81.6,12.9-15Z"/>
    </g>
    <g id="Line_278" data-name="Line 278">
      <rect class="cls-11" x="202.4" y="163.5" width="32.9" height="11.6"/>
    </g>
    <g id="Group_8455" data-name="Group 8455">
      <g id="Path_4357" data-name="Path 4357">
        <path class="cls-8" d="M308,263.5h-21.2v83.2h42.8-21.2l-.5-83.2Z"/>
      </g>
      <g id="Rectangle_3238" data-name="Rectangle 3238">
        <rect class="cls-7" x="308" y="263.5" width="21.4" height="83.3"/>
      </g>
    </g>
    <g id="Rectangle_3239" data-name="Rectangle 3239">
      <rect class="cls-8" x="224.9" y="263.5" width="34.3" height="34.4"/>
    </g>
    <g id="Rectangle_3239-2" data-name="Rectangle 3239-2">
      <rect class="cls-8" x="356.7" y="263.5" width="34.3" height="34.4"/>
    </g>
  </g>
</svg>