<?xml version="1.0" encoding="utf-8"?>
<!-- Generator: Adobe Illustrator 22.1.0, SVG Export Plug-In . SVG Version: 6.00 Build 0)  -->
<svg version="1.1" id="Layer_1" xmlns="http://www.w3.org/2000/svg" xmlns:xlink="http://www.w3.org/1999/xlink" x="0px" y="0px"
	 viewBox="0 0 80 80" style="enable-background:new 0 0 80 80;" xml:space="preserve">
<style type="text/css">
	.st0{fill:#F3F3F3;}
	.st1{fill:#E7E7E7;}
	.st2{fill:#3DB39E;}
	.st3{fill:#0F3D70;}
	.st4{fill:#3AAA96;}
	.st5{fill:#1B68B2;}
	.st6{fill:#D66316;}
	.st7{fill:#A84E11;}
	.st8{fill:#EA7923;}
	.st9{fill:#FFFFFF;}
	.st10{fill:#EFF2F4;}
	.st11{fill:#E5E4E3;}
	.st12{fill:#003366;}
</style>
<g id="Group_8918" transform="translate(-1071.911 -351)">
	<g id="Group_8914" transform="translate(1198.762 351)">
		<path id="Path_4891" class="st0" d="M-59.8,16.7c0.1,0-26.3-10.1-27-10.4c-0.5,0.2-27,10.4-27,10.4v19.1c0,13.2,3.8,30.5,27,36.9
			c23.1-6.4,26.9-24,26.9-36.9C-59.8,29.2-59.8,16.7-59.8,16.7z"/>
		<path id="Path_4892" class="st1" d="M-113.7,35.8c0,13.2,3.8,30.5,27,36.9V6.3c-1,0.4-27,10.4-27,10.4V35.8z"/>
		<g id="Group_8908" transform="translate(101.407 29.204)">
			<path id="Path_4893" class="st2" d="M-209.9,6.7v-16c-0.1,0.1,20.8-8,21.7-8.3l0,0c-0.5,0.2-21.8,8.4-21.8,8.3L-209.9,6.7
				c-0.1,11.1,2.1,26.2,21.7,31.6l0,0C-207.7,32.9-209.9,17.8-209.9,6.7z"/>
			<path id="Path_4894" class="st3" d="M-166.4-8.9c0.1,0-20.4-8.2-21.7-8.7v56c19.5-5.4,21.7-20.8,21.7-31.6
				C-166.4,1.2-166.4-8.9-166.4-8.9z"/>
			<path id="Path_4895" class="st4" d="M-188.1,38.3L-188.1,38.3L-188.1,38.3L-188.1,38.3z"/>
			<path id="Path_4896" class="st4" d="M-188.1-17.7L-188.1-17.7L-188.1-17.7L-188.1-17.7z"/>
			<path id="Path_4897" class="st5" d="M-188.2-17.7c-1,0.3-21.8,8.4-21.7,8.3v16c0,11.1,2.2,26.2,21.7,31.6l0,0L-188.2-17.7
				L-188.2-17.7z"/>
		</g>
		<g id="Group_8911" transform="translate(0 217.914)">
			<g id="Group_8909">
				<path id="Path_4898" class="st6" d="M-108.2-166.5c-0.2,1.2-0.5,2-0.7,2.5c-0.4,0-0.8,0-1.2,0c-6.2,0.1-14.6-1.3-16.5-1.7
					c0.4-0.2,4.1-2.2,5.6-3.3c-1.1-1-2.1-2.1-3.1-3.2c-0.2-0.3-0.3-0.5-0.6-0.8c3.7,0.6,11,0.9,17,0.9h0
					C-107.6-171.9-107.5-170.4-108.2-166.5z"/>
				<path id="Path_4899" class="st7" d="M-107.6-172c0,0.1,0.1,1.4-0.4,4.5c-0.1,0.3-0.1,0.7-0.2,1c-0.2,1.2-0.5,2-0.7,2.5
					c-0.4,0-0.8,0-1.2,0l-1.2-5.5L-107.6-172z"/>
			</g>
			<g id="Group_8910" transform="translate(340.991 2.307)">
				<path id="Path_4900" class="st6" d="M-406.5-168.6c0.2,1.2,0.4,2,0.6,2.6c0.4,0,0.8,0,1.2,0c6.2,0.1,14.6-1.2,16.6-1.5
					c-0.4-0.2-4.1-2.3-5.5-3.3c1.1-1,2.2-2.1,3.1-3.2c0.2-0.3,0.3-0.5,0.6-0.8c-3.7,0.5-11,0.8-17,0.7h0
					C-407-174-407.2-172.5-406.5-168.6z"/>
				<path id="Path_4901" class="st7" d="M-403.5-171.5l-1.2,5.5c-0.4,0-0.8,0-1.2,0c-0.2-0.5-0.4-1.3-0.6-2.6
					c-0.1-0.4-0.1-0.7-0.2-1c-0.5-3.2-0.3-4.4-0.3-4.5L-403.5-171.5z"/>
			</g>
			<path id="Path_4902" class="st8" d="M-62.5-169.2c-4.5,3-9.6,5.1-14.8,6.3c-11.5,2.5-23.5,0.4-33.9-6.5l-3.9,5.2l-0.7,0.9
				c1.2,0.8,2.4,1.6,3.7,2.2c10.9,6.1,23.3,8.1,35.1,5.8c5.4-1,10.6-2.9,15.4-5.6c1.2-0.7,2.5-1.4,3.7-2.2l-0.7-0.9
				C-59.9-165.6-62.3-169-62.5-169.2z"/>
		</g>
		<g id="Group_8913" transform="translate(154.953 107.459)">
			<circle id="Ellipse_525" class="st9" cx="-241.8" cy="-69.8" r="11.4"/>
			<g id="Group_8912">
				<path id="Path_4903" class="st10" d="M-252.4-69.9c0-5.9,4.8-10.7,10.7-10.7v-1.5c0,0-0.1,0-0.1,0c-6.7,0-12.2,5.5-12.2,12.2
					c0,6.7,5.5,12.2,12.2,12.2c0,0,0.1,0,0.1,0v-1.5C-247.6-59.2-252.4-64-252.4-69.9L-252.4-69.9z"/>
				<path id="Path_4904" class="st11" d="M-231.1-69.9c0,5.9-4.8,10.7-10.7,10.7v1.5c6.7-0.1,12.1-5.6,12.1-12.3
					c-0.1-6.7-5.4-12-12.1-12.1v1.5C-235.8-80.6-231.1-75.8-231.1-69.9z"/>
			</g>
		</g>
		<path id="Path_4905" class="st12" d="M-81.5,33.5L-81.5,33.5c-0.5-0.4-1.2-0.4-1.6,0.1l-3.7,4.1l-1.7,1.9l-2.3-2.7l0,0
			c-0.4-0.5-1.1-0.5-1.6-0.1c-0.5,0.4-0.5,1.1-0.1,1.6c0,0,0,0,0,0l3.2,3.6c0.2,0.2,0.5,0.4,0.9,0.4c0.3,0,0.6-0.1,0.9-0.4l0.8-0.9
			l5.4-6.1C-81,34.7-81,33.9-81.5,33.5z"/>
	</g>
</g>
</svg>
