<svg xmlns="http://www.w3.org/2000/svg" width="156.89" height="115.673" viewBox="0 0 156.89 115.673">
  <g id="starting-out" transform="translate(-363.844 -978.105)">
    <g id="Group_20316" data-name="Group 20316" transform="translate(363.844 978.105)">
      <g id="Group_930" data-name="Group 930" transform="translate(0)">
        <g id="Group_929" data-name="Group 929" transform="translate(0)">
          <path id="Path_288" data-name="Path 288" d="M59.18,85.246H6.205A6.21,6.21,0,0,1,0,79.031V6.215A6.21,6.21,0,0,1,6.205,0h53.53" transform="translate(0.093 0)" fill="#d86a18"/>
          <path id="Path_289" data-name="Path 289" d="M0,0H59.55a6.21,6.21,0,0,1,6.205,6.215V78.938a6.21,6.21,0,0,1-6.205,6.215H0" transform="translate(58.346)" fill="#eb7923"/>
          <path id="Path_3937" data-name="Path 3937" d="M0,0H123.762V10.76H0Z" transform="translate(0 12.801)" fill="#0f3d70"/>
          <rect id="Rectangle_1038" data-name="Rectangle 1038" width="33.341" height="3.989" transform="translate(12.503 33.857)" fill="#fff"/>
          <rect id="Rectangle_1039" data-name="Rectangle 1039" width="89.279" height="3.989" transform="translate(12.503 42.113)" fill="#fff"/>
          <rect id="Rectangle_1040" data-name="Rectangle 1040" width="89.279" height="3.989" transform="translate(12.503 50.461)" fill="#fff"/>
        </g>
      </g>
    </g>
    <g id="Group_20318" data-name="Group 20318" transform="translate(411.751 1010.067)">
      <path id="Path_2377" data-name="Path 2377" d="M159.789,258.1H139.9v16.321a3.121,3.121,0,0,0,3.1,3.1h13.689a3.121,3.121,0,0,0,3.1-3.1Z" transform="translate(-136.8 -193.81)" fill="#003056"/>
      <path id="Path_2378" data-name="Path 2378" d="M302.59,258.1H282.7v16.321a3.121,3.121,0,0,0,3.1,3.1h13.689a3.121,3.121,0,0,0,3.1-3.1Z" transform="translate(-196.064 -193.81)" fill="#003056"/>
      <path id="Path_2379" data-name="Path 2379" d="M226.715,148.2H169.153c-5.265,0-9.711,4.8-10.179,11L156.4,184h82.951l-2.574-24.8C236.367,153,231.98,148.2,226.715,148.2Z" transform="translate(-143.647 -148.2)" fill="#2280bf"/>
      <path id="Path_2380" data-name="Path 2380" d="M164.9,182.481l2.106-19.3c.292-3.627,2.691-6.376,5.674-6.376h57.563c2.983,0,5.382,2.749,5.674,6.376l2.106,19.3Z" transform="translate(-147.175 -151.769)" fill="#fff"/>
      <path id="Path_2381" data-name="Path 2381" d="M231.637,207.7l-6.786-2.4H155.53l-6.786,2.4s-10.705,9.535-10.705,12.577c0,1.989-.468,9.652-.059,15.5a5.643,5.643,0,0,0,5.674,5.265h93.364a5.6,5.6,0,0,0,5.616-5.089c.643-5.908-.234-13.689-.234-15.736C242.342,217.234,231.637,207.7,231.637,207.7Z" transform="translate(-135.933 -171.897)" fill="#2280bf"/>
      <path id="Path_2382" data-name="Path 2382" d="M149.225,194.542H147.06l-1.345-3.042a4.886,4.886,0,0,0-4.329-3.1h-3.393a3.705,3.705,0,0,0-3.393,3.978V193.9a3.705,3.705,0,0,0,3.393,3.978h11.934Z" transform="translate(-134.6 -164.884)" fill="#2280bf"/>
      <path id="Path_2383" data-name="Path 2383" d="M295.4,194.784h2.164l1.345-3.042a4.825,4.825,0,0,1,4.329-3.042h3.393c1.872,0,3.393,1.813,3.393,3.978V194.2a3.705,3.705,0,0,1-3.393,3.978H294.7Z" transform="translate(-201.044 -165.008)" fill="#2280bf"/>
      <path id="Path_2384" data-name="Path 2384" d="M231.08,243.4l-45.98.176,2.808,8.365,40.364-.176Z" transform="translate(-153.579 -187.709)" fill="#fe8722"/>
      <path id="Path_2385" data-name="Path 2385" d="M159.471,240.1H149v5.382a5.492,5.492,0,0,0,5.5,5.5h9.535a2.177,2.177,0,0,0,2.047-2.925l-1.579-4.387A5.29,5.29,0,0,0,159.471,240.1Z" transform="translate(-140.576 -186.34)" fill="#fff"/>
      <path id="Path_2386" data-name="Path 2386" d="M284.813,240.1h10.471v5.382a5.492,5.492,0,0,1-5.5,5.5H280.25a2.177,2.177,0,0,1-2.047-2.925l1.579-4.387A5.29,5.29,0,0,1,284.813,240.1Z" transform="translate(-194.14 -186.34)" fill="#fff"/>
    </g>
  </g>
</svg>
