<svg id="Layer_1" data-name="Layer 1" xmlns="http://www.w3.org/2000/svg" viewBox="0 0 150 150"><defs><style>.cls-1{fill:#758393;}.cls-2{fill:#909aa7;}.cls-3{fill:#afb5bf;}.cls-4{fill:#9aa2ae;}.cls-5{fill:#7f8a9a;}.cls-6{fill:#c65d17;}.cls-7{fill:#ea7923;}.cls-8{fill:#f68d3d;}.cls-9{fill:#657585;}.cls-10{fill:#53616e;}</style></defs><title>tools</title><g id="Group_8996" data-name="Group 8996"><g id="Group_8992" data-name="Group 8992"><g id="Group_8991" data-name="Group 8991"><rect id="Rectangle_3585" data-name="Rectangle 3585" class="cls-1" x="29.27" y="52.69" width="22.49" height="11.71" transform="translate(-29.98 48.53) rotate(-47.23)"/><g id="Group_8990" data-name="Group 8990"><path id="Path_5038" data-name="Path 5038" class="cls-2" d="M49.05,60.54a1.49,1.49,0,0,1-2.1.08,1.42,1.42,0,0,1-.25-.3L39.94,49.53A1.48,1.48,0,1,1,42.45,48h0l6.77,10.78A1.51,1.51,0,0,1,49.05,60.54Z"/><path id="Path_5039" data-name="Path 5039" class="cls-2" d="M45,64.94a1.05,1.05,0,0,1-.3.25,1.47,1.47,0,0,1-2-.47h0L35.88,53.93a1.47,1.47,0,0,1,.44-2,1.49,1.49,0,0,1,2,.44l0,0,6.76,10.78A1.48,1.48,0,0,1,45,64.94Z"/><path id="Path_5040" data-name="Path 5040" class="cls-2" d="M40.92,69.34a1.42,1.42,0,0,1-.3.25,1.48,1.48,0,0,1-2-.47L31.81,58.34a1.48,1.48,0,0,1,2.51-1.58l6.77,10.79A1.49,1.49,0,0,1,40.92,69.34Z"/></g></g><path id="Path_5041" data-name="Path 5041" class="cls-1" d="M18.13,40.17,30,51.18,20.71,61.27,16.23,48.21a7.75,7.75,0,0,1,1.64-7.76Z"/><path id="Path_5042" data-name="Path 5042" class="cls-3" d="M47,32,35.1,28A7.73,7.73,0,0,0,27,30.07l11.91,11L18.68,63a3.09,3.09,0,0,0,.18,4.36,3.59,3.59,0,0,0,.63.45l17.65,7.71,12.11,2.92L85.18,128h0l.22.29a9.68,9.68,0,1,0,15.23-12l-.23-.28h0L59.24,67.44l-1.89-23A15.45,15.45,0,0,0,47,32Zm49,94.11a4.83,4.83,0,1,1,.82-6.79h0a4.84,4.84,0,0,1-.82,6.79Zm-44.46-66L42.9,69.42a3.39,3.39,0,0,1-4.79.19l-8.44-7.79a3.41,3.41,0,0,1-.19-4.8l8.65-9.35a3.39,3.39,0,0,1,4.79-.19l8.43,7.79a3.4,3.4,0,0,1,.19,4.8Z"/><path id="Path_5043" data-name="Path 5043" class="cls-4" d="M35.1,28A7.75,7.75,0,0,0,27,30.07l11.91,11-5.17,5.61,2.44,3.1,2-2.13a3.41,3.41,0,0,1,4.8-.19l8.43,7.79a3.41,3.41,0,0,1,.19,4.8l-4,4.29L90,118.45a4.84,4.84,0,1,1,6,7.61h0l3,3.81a9.67,9.67,0,0,0,1.64-13.59h0c-.07-.1-.15-.19-.23-.29h0L59.25,67.43l-1.9-23A15.43,15.43,0,0,0,47,32Z"/><path id="Path_5044" data-name="Path 5044" class="cls-1" d="M84.79,111.78h0a3,3,0,0,1-4.26-.51L59,83.83a3,3,0,0,1,.51-4.25h0a3,3,0,0,1,4.26.52L85.3,107.52A3,3,0,0,1,84.79,111.78Z"/></g><g id="Group_8995" data-name="Group 8995"><g id="Group_8993" data-name="Group 8993"><rect id="Rectangle_3586" data-name="Rectangle 3586" class="cls-3" x="91.45" y="48.02" width="18.02" height="16.57" transform="translate(-12.13 80.49) rotate(-41.39)"/><rect id="Rectangle_3587" data-name="Rectangle 3587" class="cls-5" x="96.88" y="45.96" width="11.82" height="16.57" transform="translate(-10.19 81.51) rotate(-41.39)"/><path id="Path_5045" data-name="Path 5045" class="cls-6" d="M22.19,112.18,84.12,59.66l11,12.44L35.23,127a9.85,9.85,0,0,1-13.93-.61.86.86,0,0,1-.13-.14h0A9.85,9.85,0,0,1,22,112.31Z"/><path id="Path_5046" data-name="Path 5046" class="cls-7" d="M89.6,65.88,21.17,126.22a9.85,9.85,0,0,0,13.91.87l.15-.12L95.08,72.1Z"/><path id="Rectangle_3588" data-name="Rectangle 3588" class="cls-8" d="M82.45,56.16h0a4.63,4.63,0,0,1,6.53.41l9.77,11.09a4.62,4.62,0,0,1-.41,6.53h0a4.62,4.62,0,0,1-6.53-.41L82,62.69A4.62,4.62,0,0,1,82.45,56.16Z"/></g><path id="Path_5047" data-name="Path 5047" class="cls-9" d="M96.58,18.89,82.87,31a3.32,3.32,0,0,0-.3,4.69h0L90,44.13l18.7-16.48-7.46-8.46A3.32,3.32,0,0,0,96.58,18.89Z"/><g id="Group_8994" data-name="Group 8994"><path id="Path_5048" data-name="Path 5048" class="cls-10" d="M85.87,28.33l-3,2.64a3.34,3.34,0,0,0-.3,4.7h0L90,44.13l4.09-3.61-7.46-8.46C85.45,30.68,85.1,29,85.87,28.33Z"/><path id="Path_5049" data-name="Path 5049" class="cls-5" d="M101.28,19.18a3.33,3.33,0,0,0-4.7-.3l-3,2.64c.77-.68,2.38-.12,3.59,1.26l7.46,8.46,4.09-3.6Z"/></g><rect id="Rectangle_3589" data-name="Rectangle 3589" class="cls-3" x="90.51" y="35.48" width="19.91" height="3.25" transform="translate(0.56 75.69) rotate(-41.39)"/><path id="Path_5050" data-name="Path 5050" class="cls-9" d="M110.88,30.08,92.18,46.56l21.37,24.23-5.9,13.49,6.56,7.44,16.62-20.26a14.77,14.77,0,0,0-.34-19.15Z"/><path id="Path_5051" data-name="Path 5051" class="cls-5" d="M128,74l-13.8,17.77,16.62-20.27a14.77,14.77,0,0,0-.34-19.15l-19.6-22.24-4.18,3.69L126.31,56C131.1,61.44,131.82,69,128,74Z"/><path id="Path_5052" data-name="Path 5052" class="cls-10" d="M96.53,42.73,116.17,65l-2.62,5.78L92.18,46.56Z"/></g></g></svg>