<?xml version="1.0" encoding="utf-8"?>
<!-- Generator: Adobe Illustrator 23.0.3, SVG Export Plug-In . SVG Version: 6.00 Build 0)  -->
<svg version="1.1" id="Layer_1" xmlns="http://www.w3.org/2000/svg" xmlns:xlink="http://www.w3.org/1999/xlink" x="0px" y="0px"
	 viewBox="0 0 96 96" style="enable-background:new 0 0 96 96;" xml:space="preserve">
<style type="text/css">
	.st0{fill:#3B93D0;}
	.st1{fill:#257ABE;}
	.st2{fill:#032435;}
	.st3{fill:#075E9E;}
	.st4{fill:#CE640D;}
	.st5{fill:#ED780F;}
	.st6{fill:#FDB07B;}
	.st7{clip-path:url(#SVGID_2_);}
	.st8{fill:#E8F2F9;}
	.st9{fill:#C0D6E2;}
	.st10{fill:#EA7923;}
</style>
<title>jar-paper-pen copy</title>
<g>
	<path id="Path_4679_1_" class="st0" d="M80.5,38.2L80.5,38.2c0-12.8-10.5-23.3-23.3-23.3H33.6c0-1.5-0.6-3-1.7-4.1
		c-1.2-1.3-3.2-1.5-5.7-0.8c-0.3,0.1-0.5,0.3-0.5,0.6v5.3c-6.2,2.1-11.4,6.7-14,12.8c-0.6-0.3-1.2-0.4-1.8-0.4H8.7
		c-2.5,0-4.4,2-4.4,4.4v5.9h76.4C80.5,38.6,80.5,38.4,80.5,38.2z"/>
	<path id="Path_4680_1_" class="st1" d="M8.7,48.2h1.1c0.7,0,1.4-0.2,2.1-0.5c2.9,5.9,8.1,10.6,14.4,12.5v3.7c0,2.2,1.8,3.9,3.9,3.9
		l0,0c2.2,0,3.9-1.8,3.9-3.9l0,0v-2.8h22.9v2.8c0,2.2,1.7,3.9,3.9,3.9l0,0l0,0c2.2,0,3.9-1.7,3.9-3.9l0,0v-4
		c9.2-3.2,15.4-11.7,15.7-21.3H4.2v5.1C4.2,46.2,6.2,48.2,8.7,48.2z"/>
	<g id="Group_8778_1_">
		<path id="Path_4681_1_" class="st2" d="M54.3,22.3c0.9-0.4,1.4-0.9,1.4-1.5c0-1.6-4.6-2.9-10.5-2.9s-10.6,1.3-10.6,2.9
			c0,0.5,0.5,1,1.4,1.5c1.8-0.9,5.1-1.5,9.1-1.5S52.6,21.4,54.3,22.3z"/>
		<path id="Path_4682_1_" class="st3" d="M54.3,22.3c-1.8-0.9-5.1-1.5-9.1-1.5s-7.3,0.6-9.1,1.5c1.8,0.9,5.1,1.5,9.1,1.5
			S52.6,23.3,54.3,22.3z"/>
	</g>
	<g id="Group_4" transform="translate(112.778 50.231)">
		<path id="Path_2" class="st0" d="M-36.4-17.7c-0.3,0-0.6,0-0.8,0c-0.8-0.1-1.4-0.8-1.4-1.6c0.1-0.8,0.8-1.4,1.6-1.4c0,0,0,0,0.1,0
			c2,0.1,3.9-0.6,5.3-1.8c0.3-0.2,0.5-0.4,0.7-0.7c-1.3-0.7-2.3-1.9-2.7-3.3c-0.6-1.5-0.2-3.3,1-4.3c1.1-0.9,2.6-1,3.8-0.3
			c1.6,0.9,2.5,2.8,2.3,5.1c1.5-0.6,2.7-1.7,3.6-3.1c0.4-0.7,1.3-1,2-0.6s1,1.3,0.6,2c-1.6,2.7-4.2,4.4-7.3,4.9
			c-0.6,1-1.4,1.8-2.2,2.5C-31.7-18.6-34.1-17.7-36.4-17.7z M-30.5-28.7c-0.1,0-0.1,0-0.2,0.1c-0.2,0.1-0.2,0.6,0,1.3
			c0.2,0.7,0.6,1.3,1.3,1.6c0-0.1,0-0.1,0-0.2c0.2-1.6-0.3-2.4-0.8-2.7C-30.3-28.7-30.4-28.7-30.5-28.7L-30.5-28.7z"/>
	</g>
	<g id="Group_8784_1_">
		<path id="Path_4684_1_" class="st4" d="M51.1,2.3c-4.7-2.7-10.9-1-13.5,3.9c0,0,0,0,0,0.1l0,0c-2.7,4.7-1,10.9,3.9,13.5
			c0,0,0,0,0.1,0l0,0c4.7,2.7,10.9,1,13.5-3.9c0,0,0,0,0-0.1l0,0C57.8,11.1,56,5,51.1,2.3C51.2,2.3,51.2,2.3,51.1,2.3L51.1,2.3
			L51.1,2.3z"/>
		<g id="Group_8783_1_">
			<path id="Path_4685_1_" class="st5" d="M40.6,19c-4.7-2.7-6.5-8.8-3.9-13.5c0,0,0,0,0-0.1l0,0c2.7-4.7,8.7-6.4,13.4-3.9"/>
			<path id="Path_4686_1_" class="st6" d="M50.3,1.5c4.7,2.7,6.5,8.8,3.9,13.5c-2.7,4.7-8.8,6.5-13.5,3.9"/>
		</g>
	</g>
</g>
<g id="Group_11672_1_">
	<g id="Group_7542_1_">
		<g>
			<g>
				<g>
					<defs>
						<path id="SVGID_1_" d="M83.6,69.9H7.9c0,0,1.8,4.3,1.8,12.3c0,7.5-1.8,11.3-1.8,11.3h75.7c2.9,0,5.2-2.4,5.2-5.2v-13
							C88.9,72.3,86.5,69.9,83.6,69.9L83.6,69.9z"/>
					</defs>
					<clipPath id="SVGID_2_">
						<use xlink:href="#SVGID_1_"  style="overflow:visible;"/>
					</clipPath>
					<g class="st7">
						<g id="Group_7541_1_">
							<path id="Path_3979_1_" class="st8" d="M7.9,71.8h81V76h-81V71.8z"/>
							<path id="Path_3978_1_" class="st9" d="M7.9,75.6h81v4.2h-81V75.6z"/>
							<path id="Path_3977_1_" class="st8" d="M7.9,79.4h81v4.1h-81V79.4z"/>
							<path id="Path_3980_1_" class="st9" d="M7.9,83.3h81v4.2h-81V83.3z"/>
							<path id="Path_3981_1_" class="st8" d="M7.9,87.4h81v4.1h-81V87.4z"/>
						</g>
					</g>
				</g>
			</g>
		</g>
	</g>
	<g id="Group_7543_1_">
		<path id="Path_3973_1_" class="st10" d="M83.6,95.5H7.9c-1.2,0.1-2.2-0.8-2.3-2c-0.1-1.2,0.8-2.2,2-2.3c0.1,0,0.2,0,0.3,0h75.7
			c1.8,0,3.2-1.4,3.2-3.2V75.2c0-1.8-1.4-3.2-3.2-3.2H7.9c-1.2,0-2.1-0.9-2.1-2.1c0-1.2,0.9-2.1,2.1-2.2h75.7c4.1,0,7.5,3.4,7.5,7.5
			v12.8C91,92.2,87.7,95.5,83.6,95.5z"/>
	</g>
</g>
</svg>
