<svg id="Layer_1" data-name="Layer 1" xmlns="http://www.w3.org/2000/svg" viewBox="0 0 96 96"><defs><style>.cls-1{fill:#7ab4e2;}.cls-2{fill:#dcebf8;}.cls-3{fill:#fff;}.cls-4{fill:#3b93d0;}.cls-5{fill:#1b68b2;}.cls-6{fill:#0f3d70;}.cls-7{fill:#257abe;}.cls-11,.cls-8,.cls-9{fill:none;}.cls-8{stroke:#529fe2;stroke-width:1.5px;}.cls-8,.cls-9{stroke-linecap:round;stroke-linejoin:round;}.cls-9{stroke:#dcebf8;stroke-width:1.2px;}.cls-10{fill:#ea7923;}.cls-11{stroke:#ea7923;}</style></defs><title>clipboard-money</title><g id="Group_12167" data-name="Group 12167"><g id="Group_11674" data-name="Group 11674"><g id="Group_11673" data-name="Group 11673"><g id="Group_3010" data-name="Group 3010"><g id="Group_3006" data-name="Group 3006"><path id="Path_846" data-name="Path 846" class="cls-1" d="M14.56,40.06,5.93,72.16,70.19,89.41l8.63-32.16Z"/></g><g id="Group_3007" data-name="Group 3007"><path id="Path_847" data-name="Path 847" class="cls-2" d="M15.8,71,62.25,83.41A5.55,5.55,0,0,1,69,79.47l3.8-14.22a5.54,5.54,0,0,1-3.93-6.76L22.43,46.07A5.55,5.55,0,0,1,15.67,50l-3.8,14.29a5.44,5.44,0,0,1,4,6.62ZM44.72,55.8A9.25,9.25,0,1,1,33.4,62.36h0A9.3,9.3,0,0,1,44.72,55.8Z"/><path id="Path_848" data-name="Path 848" class="cls-2" d="M14.56,40.06,5.93,72.16,70.19,89.41l8.63-32.16Zm54,46.66-60-16.08,7.45-27.89,60,16.09Z"/><path id="Path_849" data-name="Path 849" class="cls-2" d="M38.79,65.94l-1.32,1.11a6.71,6.71,0,0,0,3.11,2.41L40.17,71l1.31.35.41-1.45c1.93.34,3.52-.42,3.94-2.07h0c.41-1.59-.28-2.76-2.42-3.94L44.17,61A6.09,6.09,0,0,1,46,62.56l1.25-1.17a6.13,6.13,0,0,0-2.49-1.87l.21-.89-1.31-.35-.21.9c-1.93-.34-3.45.42-3.86,2h0c-.49,1.66.34,2.76,2.34,3.94l-.76,3A5.81,5.81,0,0,1,38.79,65.94Zm4.14-.27c1,.62,1.24,1.17,1.1,1.79h0c-.21.69-.83,1-1.79.9Zm-1.66-4.21h0c.21-.69.76-1,1.8-.9l-.69,2.62C41.27,62.56,41.06,62.08,41.27,61.46Z"/></g><g id="Group_3009" data-name="Group 3009"><g id="Group_3008" data-name="Group 3008"><path id="Path_850" data-name="Path 850" class="cls-3" d="M46,62.5A6.07,6.07,0,0,0,44.17,61l-.76,2.82c2.14,1.18,2.83,2.35,2.42,3.94h0c-.42,1.66-2,2.35-3.94,2.07l-.41,1.45-1.31-.35.41-1.51A6.8,6.8,0,0,1,37.47,67l1.32-1.1a6.25,6.25,0,0,0,2.27,2l.76-3c-2-1.17-2.83-2.21-2.34-3.93h0c.41-1.59,2-2.35,3.86-2l.21-.89,1.31.34-.21.9a6.11,6.11,0,0,1,2.49,1.86Zm-3.66.75.7-2.62c-1-.14-1.59.21-1.8.83h0c-.14.62.07,1.1,1.11,1.79Zm.62,2.42-.76,2.69c1,.14,1.66-.14,1.8-.9h0c.28-.69,0-1.17-1-1.79Z"/></g></g></g><g id="Group_3015" data-name="Group 3015"><g id="Group_3011" data-name="Group 3011"><path id="Path_851" data-name="Path 851" class="cls-4" d="M15.67,41.44V74.71H82.2V41.44Z"/></g><g id="Group_3012" data-name="Group 3012"><path id="Path_852" data-name="Path 852" class="cls-1" d="M24.91,71H73a5.54,5.54,0,0,1,5.52-5.52V50.69A5.53,5.53,0,0,1,73,45.17h-48a5.53,5.53,0,0,1-5.52,5.52V65.46A5.54,5.54,0,0,1,24.91,71Zm24-22.15a9.25,9.25,0,1,1-9.25,9.25A9.25,9.25,0,0,1,48.93,48.83Z"/><path id="Path_853" data-name="Path 853" class="cls-1" d="M15.67,41.44V74.71H82.2V41.44ZM80,72.5H17.87V43.65H80Z"/><path id="Path_854" data-name="Path 854" class="cls-1" d="M45.83,60.22l-1,1.44a6.86,6.86,0,0,0,3.66,1.52v1.53h1.31V63.18c1.93-.2,3.31-1.31,3.31-3h0c0-1.66-1-2.56-3.31-3.18v-3a4.52,4.52,0,0,1,2.07,1l.9-1.45a6.3,6.3,0,0,0-2.9-1.17v-1H48.59v.9c-1.94.14-3.24,1.31-3.24,3h0c0,1.72,1,2.55,3.31,3.17v3A5.09,5.09,0,0,1,45.83,60.22Zm3.93-1.45c1.17.34,1.52.76,1.52,1.45h0c0,.75-.56,1.24-1.52,1.31ZM47,55.25h0c0-.69.48-1.18,1.45-1.32V56.7C47.35,56.28,47,55.87,47,55.25Z"/></g><g id="Group_3014" data-name="Group 3014"><g id="Group_3013" data-name="Group 3013"><path id="Path_855" data-name="Path 855" class="cls-3" d="M51.83,55a7.59,7.59,0,0,0-2.07-1v3c2.35.55,3.31,1.52,3.31,3.18h0c0,1.65-1.31,2.83-3.31,3v1.52H48.45V63.11a7.12,7.12,0,0,1-3.66-1.51l1-1.45a6,6,0,0,0,2.69,1.38v-3c-2.28-.55-3.32-1.45-3.32-3.17h0c0-1.66,1.32-2.77,3.24-3v-.9h1.32v.9a6.26,6.26,0,0,1,2.9,1.17Zm-3.31,1.59V53.87c-1,.06-1.45.62-1.45,1.31h0C47,55.87,47.34,56.28,48.52,56.63Zm1.24,2.14V61.6c1-.14,1.52-.56,1.52-1.31h0C51.28,59.59,50.93,59.18,49.76,58.77Z"/></g></g></g><g id="Group_3020" data-name="Group 3020"><g id="Group_3016" data-name="Group 3016"><path id="Path_856" data-name="Path 856" class="cls-5" d="M20.5,39.58l8.62,32.16L93.38,54.49,84.75,22.33Z"/></g><g id="Group_3017" data-name="Group 3017"><path id="Path_857" data-name="Path 857" class="cls-4" d="M37.06,65.74,83.51,53.31a5.51,5.51,0,0,1,3.91-6.75h0L83.65,32.26a5.51,5.51,0,0,1-6.76-3.91v0L30.44,40.75a5.53,5.53,0,0,1-3.92,6.76h0L30.3,61.8a5.54,5.54,0,0,1,6.76,3.92ZM54.52,38.13A9.25,9.25,0,1,1,48,49.45h0a9.23,9.23,0,0,1,6.54-11.31Z"/><path id="Path_858" data-name="Path 858" class="cls-4" d="M20.5,39.58l8.62,32.16L93.38,54.49,84.75,22.33ZM90.62,52.9,30.64,69,23.19,41.17l60-16.08Z"/><path id="Path_859" data-name="Path 859" class="cls-4" d="M54.45,49.86l-.55,1.66a7,7,0,0,0,3.93.55l.42,1.52,1.31-.35-.41-1.45C61,51.1,62,49.65,61.56,48.06h0c-.41-1.58-1.66-2.2-4.07-2.2L56.73,43a6.57,6.57,0,0,1,2.28.41l.48-1.65a5.91,5.91,0,0,0-3.11-.42l-.2-.89-1.31.34.21.9c-1.8.69-2.76,2.07-2.35,3.66h0c.48,1.65,1.65,2.21,4,2.21l.76,3A5.86,5.86,0,0,1,54.45,49.86Zm3.45-2.34c1.25.07,1.66.34,1.87,1h0c.21.69-.21,1.31-1.11,1.66Zm-3.59-2.76h0c-.2-.69.14-1.32,1.11-1.66l.69,2.62C54.87,45.72,54.52,45.38,54.31,44.76Z"/></g><g id="Group_3019" data-name="Group 3019"><g id="Group_3018" data-name="Group 3018"><path id="Path_860" data-name="Path 860" class="cls-3" d="M58.94,43.38A5.59,5.59,0,0,0,56.66,43l.76,2.83c2.42-.07,3.66.62,4.07,2.21h0c.42,1.66-.55,3-2.41,3.73l.41,1.45-1.31.34L57.77,52a7,7,0,0,1-3.94-.55l.55-1.66a5.78,5.78,0,0,0,3,.63l-.76-3c-2.34,0-3.59-.49-4-2.21h0c-.41-1.59.55-3,2.35-3.66l-.21-.9L56,40.34l.21.9a5.88,5.88,0,0,1,3.1.41Zm-2.83,2.41-.69-2.62c-.9.34-1.24,1-1.1,1.59h0C54.52,45.38,54.87,45.72,56.11,45.79Zm1.79,1.73.76,2.69c.9-.35,1.31-1,1.11-1.66h0C59.56,47.86,59.08,47.59,57.9,47.52Z"/></g></g></g><g id="Group_3025" data-name="Group 3025"><g id="Group_3021" data-name="Group 3021"><path id="Path_861" data-name="Path 861" class="cls-6" d="M21.74,39.86,38.37,68.71,96,35.44,79.37,6.59Z"/></g><g id="Group_3022" data-name="Group 3022"><path id="Path_862" data-name="Path 862" class="cls-7" d="M44.51,60.84l41.62-24a5.59,5.59,0,0,1,2-7.59L80.75,16.39a5.59,5.59,0,0,1-7.59-2l-41.62,24a5.6,5.6,0,0,1-2,7.59l7.38,12.83A5.58,5.58,0,0,1,44.51,60.84Zm9.74-31.2a9.24,9.24,0,1,1-3.39,12.63A9.25,9.25,0,0,1,54.25,29.64Z"/><path id="Path_863" data-name="Path 863" class="cls-7" d="M21.74,39.86,38.37,68.71,96,35.44,79.37,6.59ZM93,34.61,39.2,65.67l-14.42-25,53.76-31Z"/><path id="Path_864" data-name="Path 864" class="cls-7" d="M57.14,41,57,42.75a7,7,0,0,0,3.93-.48l.76,1.31,1.17-.69-.76-1.31c1.59-1.17,2.21-2.76,1.38-4.21h0c-.82-1.45-2.14-1.72-4.48-1l-1.45-2.56a6.38,6.38,0,0,1,2.34-.2V31.92a6.09,6.09,0,0,0-3.1.41l-.48-.83-1.18.69.42.76c-1.59,1.11-2.14,2.76-1.31,4.15h0c.89,1.51,2.2,1.72,4.41,1.1l1.52,2.62A5,5,0,0,1,57.14,41Zm2.76-3.18c1.18-.27,1.73-.06,2.08.49h0c.34.62.13,1.31-.69,1.93Zm-4.14-1.72h0a1.35,1.35,0,0,1,.52-1.82l.1-.05,1.39,2.35C56.52,36.89,56.1,36.68,55.76,36.13Z"/></g><g id="Group_3024" data-name="Group 3024"><g id="Group_3023" data-name="Group 3023"><path id="Path_865" data-name="Path 865" class="cls-3" d="M59.84,33.58a5.34,5.34,0,0,0-2.35.2l1.45,2.56c2.34-.69,3.66-.35,4.48,1h0c.83,1.45.28,3.11-1.38,4.21l.76,1.31-1.17.69-.76-1.31a6.92,6.92,0,0,1-3.94.48L57.07,41a5,5,0,0,0,3-.21L58.59,38.2c-2.2.62-3.58.41-4.41-1.1h0c-.83-1.45-.28-3,1.31-4.15l-.42-.76,1.18-.69.48.83a6,6,0,0,1,3.11-.41Zm-2.07,3-1.39-2.34A1.33,1.33,0,0,0,55.71,36l0,.1h0C56.11,36.68,56.52,36.89,57.77,36.61Zm2.13,1.24,1.38,2.42c.83-.62,1-1.24.69-1.93h0C61.63,37.79,61.08,37.58,59.9,37.85Z"/></g></g></g></g><g id="Group_11546" data-name="Group 11546"><path id="Path_10742" data-name="Path 10742" class="cls-5" d="M54.92,6.63h-52A2.79,2.79,0,0,0,0,9.3V89.41H57.83V10a3.13,3.13,0,0,0-2.89-3.34Z"/><path id="Rectangle_5169" data-name="Rectangle 5169" class="cls-2" d="M2.87,17.76,49.74,13l6.53,70L9.41,87.74Z"/><rect id="Rectangle_5170" data-name="Rectangle 5170" class="cls-3" x="6.39" y="15.37" width="46.37" height="65.1"/><line id="Line_990" data-name="Line 990" class="cls-8" x1="18.99" y1="25.17" x2="40.32" y2="25.17"/><g id="Group_11545" data-name="Group 11545"><line id="Line_989" data-name="Line 989" class="cls-9" x1="14.7" y1="32.25" x2="47.75" y2="32.25"/><line id="Line_991" data-name="Line 991" class="cls-9" x1="14.7" y1="48.66" x2="47.75" y2="48.66"/><line id="Line_992" data-name="Line 992" class="cls-9" x1="14.7" y1="65.06" x2="47.75" y2="65.06"/><line id="Line_993" data-name="Line 993" class="cls-9" x1="14.7" y1="36.4" x2="47.75" y2="36.4"/><line id="Line_994" data-name="Line 994" class="cls-9" x1="14.7" y1="52.8" x2="47.75" y2="52.8"/><line id="Line_995" data-name="Line 995" class="cls-9" x1="14.7" y1="69.2" x2="47.75" y2="69.2"/><line id="Line_997" data-name="Line 997" class="cls-9" x1="14.7" y1="40.5" x2="47.75" y2="40.5"/><line id="Line_998" data-name="Line 998" class="cls-9" x1="14.7" y1="56.9" x2="47.75" y2="56.9"/><line id="Line_999" data-name="Line 999" class="cls-9" x1="14.7" y1="44.64" x2="47.75" y2="44.64"/><line id="Line_1000" data-name="Line 1000" class="cls-9" x1="14.7" y1="61.05" x2="47.75" y2="61.05"/></g><g id="Ellipse_602" data-name="Ellipse 602"><circle id="Ellipse_583" data-name="Ellipse 583" class="cls-10" cx="10.51" cy="32.72" r="1.21"/><circle id="Ellipse_584" data-name="Ellipse 584" class="cls-11" cx="10.51" cy="32.72" r="0.91"/></g><g id="Ellipse_603" data-name="Ellipse 603"><circle id="Ellipse_585" data-name="Ellipse 585" class="cls-10" cx="10.51" cy="41.29" r="1.21"/><circle id="Ellipse_586" data-name="Ellipse 586" class="cls-11" cx="10.51" cy="41.29" r="0.91"/></g><g id="Ellipse_604" data-name="Ellipse 604"><circle id="Ellipse_587" data-name="Ellipse 587" class="cls-10" cx="10.51" cy="50.43" r="1.21"/><circle id="Ellipse_588" data-name="Ellipse 588" class="cls-11" cx="10.51" cy="50.43" r="0.91"/></g><g id="Ellipse_605" data-name="Ellipse 605"><circle id="Ellipse_589" data-name="Ellipse 589" class="cls-10" cx="10.51" cy="59.57" r="1.21"/><circle id="Ellipse_590" data-name="Ellipse 590" class="cls-11" cx="10.51" cy="59.57" r="0.91"/></g><g id="Ellipse_606" data-name="Ellipse 606"><circle id="Ellipse_591" data-name="Ellipse 591" class="cls-10" cx="10.51" cy="68.71" r="1.21"/><circle id="Ellipse_592" data-name="Ellipse 592" class="cls-11" cx="10.51" cy="68.71" r="0.91"/></g></g></g></g></svg>