<svg xmlns="http://www.w3.org/2000/svg" xmlns:xlink="http://www.w3.org/1999/xlink" viewBox="-6723 5450 80 80">
  <defs>
    <style>
      .cls-1 {
        clip-path: url(#clip-jar-money);
      }

      .cls-2 {
        fill: #7ab4e2;
      }

      .cls-3 {
        fill: #f4f5f8;
      }

      .cls-4 {
        fill: #cfe6fa;
      }

      .cls-5 {
        fill: #1b68b2;
      }

      .cls-6 {
        opacity: 0.4;
      }

      .cls-7 {
        fill: #0f3d70;
      }

      .cls-8 {
        fill: #ea7923;
      }

      .cls-9 {
        fill: #fc993f;
      }

      .cls-10 {
        fill: #ce5f13;
      }

      .cls-11 {
        fill: #b5500b;
      }

      .cls-12 {
        fill: #f9b373;
      }

      .cls-13 {
        fill: #f7c194;
      }
    </style>
    <clipPath id="clip-jar-money">
      <rect x="-6723" y="5450" width="80" height="80"/>
    </clipPath>
  </defs>
  <g id="jar-money" class="cls-1">
    <g id="Group_5452" data-name="Group 5452" transform="translate(-6708 5457.068)">
      <g id="Group_3544_1_" transform="translate(0 0.029)">
        <g id="Group_3007_1_" transform="translate(0 0)">
          <g id="Group_3006_1_">
            <g id="Group_3003_1_" transform="translate(0 4.667)">
              <rect id="Rectangle_1593_1_" class="cls-2" width="35.007" height="7.582" transform="translate(8.233)"/>
              <path id="Path_1141_1_" class="cls-2" d="M6084.533,4616.66c0,8.529-7.167,15.46-16.052,15.46h-19.429c-8.885-.06-16.053-6.931-16.053-15.46v-26.3c0-8.529,7.168-15.46,16.053-15.46h19.369c8.885,0,16.053,6.931,16.053,15.46l.059,26.3Z" transform="translate(-6033 -4569.806)"/>
              <path id="Path_1142_1_" class="cls-3" d="M6062.847,4630.367h-8.293a12.585,12.585,0,0,1-12.854-12.321v-21.028a12.579,12.579,0,0,1,12.854-12.32h7.227" transform="translate(-6036.547 -4573.799)"/>
              <path id="Path_1143_1_" class="cls-4" d="M6075.6,4584.6h8.292a12.586,12.586,0,0,1,12.854,12.32v21.028a12.58,12.58,0,0,1-12.854,12.32h-8.174" transform="translate(-6050.366 -4573.76)"/>
            </g>
            <g id="Group_3005_1_" transform="translate(3.925)">
              <path id="Path_1144_1_" class="cls-5" d="M6079.375,4567.683a4.374,4.374,0,0,1-4.384,4.384h-35.007a4.373,4.373,0,0,1-4.384-4.384h0a4.323,4.323,0,0,1,4.324-4.383h35.066a4.411,4.411,0,0,1,4.384,4.383Z" transform="translate(-6035.6 -4563.3)"/>
              <g id="Group_3004_1_" class="cls-6" transform="translate(2.97 1.359)">
                <path id="Path_1145_1_" class="cls-7" d="M6069.366,4570.183c0,.119-.236.177-.533.177h0c-.3,0-.533-.059-.533-.177v-5.8c0-.119.237-.178.533-.178h0c.3,0,.533.059.533.178Z" transform="translate(-6049.997 -4564.2)"/>
                <path id="Path_1146_1_" class="cls-7" d="M6073.766,4570.183c0,.119-.236.177-.532.177h0c-.3,0-.533-.059-.533-.177v-5.8c0-.119.237-.178.533-.178h0c.3,0,.532.059.532.178Z" transform="translate(-6051.791 -4564.2)"/>
                <path id="Path_1147_1_" class="cls-7" d="M6078.267,4570.183c0,.119-.237.177-.533.177h0c-.3,0-.534-.059-.534-.177v-5.8c0-.119.237-.178.534-.178h0c.3,0,.533.059.533.178Z" transform="translate(-6053.625 -4564.2)"/>
                <path id="Path_1148_1_" class="cls-7" d="M6082.466,4570.183c0,.119-.236.177-.532.177h0c-.3,0-.534-.059-.534-.177v-5.8c0-.119.237-.178.534-.178h0c.3,0,.532.059.532.178Z" transform="translate(-6055.337 -4564.2)"/>
                <path id="Path_1149_1_" class="cls-7" d="M6086.967,4570.183c0,.119-.237.177-.533.177h0c-.3,0-.533-.059-.533-.177v-5.8c0-.119.236-.178.533-.178h0c.3,0,.533.059.533.178Z" transform="translate(-6057.172 -4564.2)"/>
                <path id="Path_1150_1_" class="cls-7" d="M6091.467,4570.183c0,.119-.237.177-.533.177h0c-.3,0-.533-.059-.533-.177v-5.8c0-.119.237-.178.533-.178h0c.3,0,.533.059.533.178Z" transform="translate(-6059.006 -4564.2)"/>
                <path id="Path_1151_1_" class="cls-7" d="M6095.767,4570.183c0,.119-.237.177-.533.177h0c-.3,0-.534-.059-.534-.177v-5.8c0-.119.237-.178.534-.178h0c.3,0,.533.059.533.178Z" transform="translate(-6060.759 -4564.2)"/>
                <path id="Path_1152_1_" class="cls-7" d="M6100.266,4570.183c0,.119-.236.177-.533.177h0c-.3,0-.533-.059-.533-.177v-5.8c0-.119.236-.178.533-.178h0c.3,0,.533.059.533.178Z" transform="translate(-6062.594 -4564.2)"/>
                <path id="Path_1153_1_" class="cls-7" d="M6038.466,4570.183c0,.119-.236.177-.533.177h0c-.3,0-.533-.059-.533-.177v-5.8c0-.119.237-.178.533-.178h0c.3,0,.533.059.533.178Z" transform="translate(-6037.4 -4564.2)"/>
                <path id="Path_1154_1_" class="cls-7" d="M6042.966,4570.183c0,.119-.236.177-.532.177h0c-.3,0-.533-.059-.533-.177v-5.8c0-.119.237-.178.533-.178h0c.3,0,.532.059.532.178Z" transform="translate(-6039.235 -4564.2)"/>
                <path id="Path_1155_1_" class="cls-7" d="M6047.267,4570.183c0,.119-.237.177-.533.177h0c-.3,0-.533-.059-.533-.177v-5.8c0-.119.237-.178.533-.178h0c.3,0,.533.059.533.178Z" transform="translate(-6040.988 -4564.2)"/>
                <path id="Path_1156_1_" class="cls-7" d="M6051.766,4570.183c0,.119-.237.177-.532.177h0c-.3,0-.534-.059-.534-.177v-5.8c0-.119.237-.178.534-.178h0c.3,0,.532.059.532.178Z" transform="translate(-6042.822 -4564.2)"/>
                <path id="Path_1157_1_" class="cls-7" d="M6056.167,4570.183c0,.119-.237.177-.533.177h0c-.3,0-.533-.059-.533-.177v-5.8c0-.119.237-.178.533-.178h0c.3,0,.533.059.533.178Z" transform="translate(-6044.617 -4564.2)"/>
                <path id="Path_1158_1_" class="cls-7" d="M6060.566,4570.183c0,.119-.237.177-.533.177h0c-.3,0-.533-.059-.533-.177v-5.8c0-.119.237-.178.533-.178h0c.3,0,.533.059.533.178Z" transform="translate(-6046.41 -4564.2)"/>
                <path id="Path_1159_1_" class="cls-7" d="M6064.967,4570.183c0,.119-.237.177-.533.177h0c-.3,0-.534-.059-.534-.177v-5.8c0-.119.237-.178.534-.178h0c.3,0,.533.059.533.178Z" transform="translate(-6048.203 -4564.2)"/>
              </g>
            </g>
          </g>
        </g>
      </g>
      <g id="Group_5427" data-name="Group 5427" transform="translate(16.289 21.158)">
        <g id="Group_5426" data-name="Group 5426">
          <circle id="Ellipse_388" data-name="Ellipse 388" class="cls-8" cx="9.714" cy="9.714" r="9.714" transform="translate(1.007 0.059)"/>
          <circle id="Ellipse_389" data-name="Ellipse 389" class="cls-9" cx="9.714" cy="9.714" r="9.714"/>
          <circle id="Ellipse_390" data-name="Ellipse 390" class="cls-10" cx="7.108" cy="7.108" r="7.108" transform="translate(2.606 2.606)"/>
          <path id="Path_2826" data-name="Path 2826" class="cls-11" d="M32.433,47.208A7.111,7.111,0,0,1,39.245,40.1h-.237a7.108,7.108,0,1,0,0,14.216h.237A7.151,7.151,0,0,1,32.433,47.208Z" transform="translate(-29.294 -37.494)"/>
          <g id="Group_5425" data-name="Group 5425" transform="translate(1.56 1.56)">
            <g id="Group_5424" data-name="Group 5424">
              <path id="Path_2827" data-name="Path 2827" class="cls-12" d="M31,57.643l-.77.77a.365.365,0,0,0-.059.415,9.805,9.805,0,0,0,1.3,1.777.308.308,0,0,0,.474,0l.77-.77a.36.36,0,0,0,0-.474A6.527,6.527,0,0,1,31.536,57.7C31.476,57.525,31.18,57.525,31,57.643Z" transform="translate(-30.134 -46.172)"/>
              <path id="Path_2828" data-name="Path 2828" class="cls-12" d="M51.818,40.92l.77-.77a.36.36,0,0,0,0-.474,9.806,9.806,0,0,0-1.777-1.3.365.365,0,0,0-.415.059l-.77.77a.334.334,0,0,0,.059.533,6.527,6.527,0,0,1,1.659,1.185A.358.358,0,0,0,51.818,40.92Z" transform="translate(-38.037 -38.334)"/>
              <path id="Path_2829" data-name="Path 2829" class="cls-12" d="M55.5,43.123l-.77.77a.365.365,0,0,0-.059.415c.118.178.237.415.355.592a.334.334,0,0,0,.533.059l.77-.77a.365.365,0,0,0,.059-.415,3.984,3.984,0,0,0-.415-.652A.308.308,0,0,0,55.5,43.123Z" transform="translate(-40.122 -40.241)"/>
              <path id="Path_2830" data-name="Path 2830" class="cls-12" d="M36.762,63.129a5.21,5.21,0,0,1-.592-.355.365.365,0,0,0-.415.059l-.829.77a.334.334,0,0,0,.059.533c.237.118.415.3.652.415a.365.365,0,0,0,.415-.059l.77-.77A.4.4,0,0,0,36.762,63.129Z" transform="translate(-32.044 -48.281)"/>
            </g>
          </g>
          <path id="Path_2831" data-name="Path 2831" class="cls-11" d="M42.277,52.23c-.355-.059-.652-.118-.948-.178a3.425,3.425,0,0,1-.829-.3l.355-1.125c.355.118.711.178,1.007.3a5.217,5.217,0,0,0,1.007.118,1,1,0,0,0,.77-.237.729.729,0,0,0,.3-.592.842.842,0,0,0-.118-.355c-.059-.118-.178-.178-.237-.3a2.576,2.576,0,0,0-.415-.237l-.533-.178c-.355-.118-.592-.237-.889-.355a2.63,2.63,0,0,1-.652-.474,1.354,1.354,0,0,1-.415-.592,1.64,1.64,0,0,1-.178-.77,2.973,2.973,0,0,1,.118-.711,1.229,1.229,0,0,1,.355-.592,2.127,2.127,0,0,1,.592-.415,2.975,2.975,0,0,1,.77-.3V43.7h1.422v1.185a1.394,1.394,0,0,1,.474.118,3.777,3.777,0,0,1,.415.118A1.228,1.228,0,0,0,45,45.24a1,1,0,0,0,.3.118L45,46.484a4.082,4.082,0,0,1-.474-.178,1.394,1.394,0,0,0-.474-.118.654.654,0,0,1-.474,0c-.178,0-.3-.059-.474-.059a1,1,0,0,0-.77.237.687.687,0,0,0-.237.592.444.444,0,0,0,.059.3c.059.118.118.178.178.3.118.059.237.178.355.237s.3.118.533.237a4.448,4.448,0,0,1,1.066.415A2.132,2.132,0,0,1,45.416,49.5a2.192,2.192,0,0,1,0,1.422,1.229,1.229,0,0,1-.355.592,2.127,2.127,0,0,1-.592.415,2.933,2.933,0,0,1-.77.237v1.362H42.277Z" transform="translate(-32.8 -38.961)"/>
          <path id="Path_2832" data-name="Path 2832" class="cls-13" d="M44.29,49.4a1.354,1.354,0,0,0-.415-.592,2.13,2.13,0,0,0-.711-.474,10.115,10.115,0,0,0-1.066-.415,1.116,1.116,0,0,1-.533-.237c-.118-.059-.237-.178-.355-.237a.326.326,0,0,1-.178-.3.534.534,0,0,1-.059-.3.76.76,0,0,1,.237-.592,1.375,1.375,0,0,1,.592-.237h.178c.178,0,.3.059.474.059.178.059.3.059.474.118s.3.118.474.178h.474l.3-1.125a.452.452,0,0,0-.3-.118.842.842,0,0,0-.355-.118c-.118-.059-.3-.059-.415-.118-.178-.059-.3-.059-.474-.118V43.6h-1.9v1.244a2.975,2.975,0,0,0-.77.3,5.123,5.123,0,0,0-.592.415,1.229,1.229,0,0,0-.355.592,2.973,2.973,0,0,0-.118.711,1.64,1.64,0,0,0,.178.77,2.128,2.128,0,0,0,.415.592,2.63,2.63,0,0,0,.652.474,6.894,6.894,0,0,0,.889.355l.533.178a.955.955,0,0,1,.415.237.591.591,0,0,1,.237.3.842.842,0,0,1,.118.355.729.729,0,0,1-.3.592.884.884,0,0,1-.592.178,2.973,2.973,0,0,1-.711-.118,9.137,9.137,0,0,1-1.007-.3h-.474L38.9,51.6a3.425,3.425,0,0,0,.829.3c.3.059.652.118.948.178v1.3h1.9V52.011a2.932,2.932,0,0,0,.77-.237,2.127,2.127,0,0,0,.592-.415,1.229,1.229,0,0,0,.355-.592,2.973,2.973,0,0,0,.118-.711A3.056,3.056,0,0,0,44.29,49.4Z" transform="translate(-32.147 -38.921)"/>
          <path id="Path_2833" data-name="Path 2833" class="cls-9" d="M40.677,52.23c-.355-.059-.652-.118-.948-.178a3.425,3.425,0,0,1-.829-.3l.355-1.125c.355.118.711.178,1.007.3a5.217,5.217,0,0,0,1.007.118,1,1,0,0,0,.77-.237.729.729,0,0,0,.3-.592.842.842,0,0,0-.118-.355c-.059-.118-.178-.178-.237-.3a2.576,2.576,0,0,0-.415-.237l-.533-.178c-.355-.118-.592-.237-.889-.355a2.63,2.63,0,0,1-.652-.474,1.354,1.354,0,0,1-.415-.592,1.64,1.64,0,0,1-.178-.77,2.973,2.973,0,0,1,.118-.711,1.229,1.229,0,0,1,.355-.592,2.127,2.127,0,0,1,.592-.415,2.975,2.975,0,0,1,.77-.3V43.7h1.422v1.185a1.394,1.394,0,0,1,.474.118,3.777,3.777,0,0,1,.415.118,1.228,1.228,0,0,0,.355.118,1,1,0,0,0,.3.118l-.3,1.125a4.082,4.082,0,0,1-.474-.178,1.394,1.394,0,0,0-.474-.118,1.3,1.3,0,0,0-.474-.059c-.178,0-.3-.059-.474-.059a1,1,0,0,0-.77.237.687.687,0,0,0-.237.592.444.444,0,0,0,.059.3c.059.118.118.178.178.3.118.059.237.178.355.237s.3.118.533.237a4.448,4.448,0,0,1,1.066.415,2.132,2.132,0,0,1,1.125,1.066,2.192,2.192,0,0,1,0,1.422,1.229,1.229,0,0,1-.355.592,2.128,2.128,0,0,1-.592.415,2.933,2.933,0,0,1-.77.237v1.362H40.677Z" transform="translate(-32.147 -38.961)"/>
        </g>
      </g>
      <g id="Group_5431" data-name="Group 5431" transform="translate(7.997 41.89)">
        <g id="Group_5430" data-name="Group 5430">
          <circle id="Ellipse_391" data-name="Ellipse 391" class="cls-8" cx="9.714" cy="9.714" r="9.714" transform="translate(1.007 0.059)"/>
          <circle id="Ellipse_392" data-name="Ellipse 392" class="cls-9" cx="9.714" cy="9.714" r="9.714"/>
          <circle id="Ellipse_393" data-name="Ellipse 393" class="cls-10" cx="7.108" cy="7.108" r="7.108" transform="translate(2.606 2.606)"/>
          <path id="Path_2834" data-name="Path 2834" class="cls-11" d="M18.433,82.208A7.111,7.111,0,0,1,25.245,75.1h-.237a7.108,7.108,0,0,0,0,14.216h.237A7.151,7.151,0,0,1,18.433,82.208Z" transform="translate(-15.294 -72.494)"/>
          <g id="Group_5429" data-name="Group 5429" transform="translate(1.56 1.56)">
            <g id="Group_5428" data-name="Group 5428">
              <path id="Path_2835" data-name="Path 2835" class="cls-12" d="M17,92.643l-.77.77a.365.365,0,0,0-.059.415,9.805,9.805,0,0,0,1.3,1.777.308.308,0,0,0,.474,0l.77-.77a.36.36,0,0,0,0-.474A6.527,6.527,0,0,1,17.536,92.7C17.476,92.525,17.18,92.525,17,92.643Z" transform="translate(-16.134 -81.172)"/>
              <path id="Path_2836" data-name="Path 2836" class="cls-12" d="M37.818,75.92l.77-.77a.36.36,0,0,0,0-.474,9.8,9.8,0,0,0-1.777-1.3.365.365,0,0,0-.415.059l-.77.77a.334.334,0,0,0,.059.533,6.527,6.527,0,0,1,1.659,1.185A.358.358,0,0,0,37.818,75.92Z" transform="translate(-24.037 -73.334)"/>
              <path id="Path_2837" data-name="Path 2837" class="cls-12" d="M41.5,78.123l-.77.77a.365.365,0,0,0-.059.415c.118.178.237.415.355.592a.334.334,0,0,0,.533.059l.77-.77a.365.365,0,0,0,.059-.415,3.984,3.984,0,0,0-.415-.652A.308.308,0,0,0,41.5,78.123Z" transform="translate(-26.122 -75.241)"/>
              <path id="Path_2838" data-name="Path 2838" class="cls-12" d="M22.762,98.129a5.209,5.209,0,0,1-.592-.355.365.365,0,0,0-.415.059l-.829.77a.334.334,0,0,0,.059.533c.237.118.415.3.652.415a.365.365,0,0,0,.415-.059l.77-.77A.4.4,0,0,0,22.762,98.129Z" transform="translate(-18.044 -83.281)"/>
            </g>
          </g>
          <path id="Path_2839" data-name="Path 2839" class="cls-11" d="M28.277,87.23c-.355-.059-.652-.118-.948-.178a3.425,3.425,0,0,1-.829-.3l.355-1.125c.355.118.711.178,1.007.3a5.218,5.218,0,0,0,1.007.118,1,1,0,0,0,.77-.237.729.729,0,0,0,.3-.592.842.842,0,0,0-.118-.355c-.059-.118-.178-.178-.237-.3a2.576,2.576,0,0,0-.415-.237l-.533-.178c-.355-.118-.592-.237-.889-.355a2.63,2.63,0,0,1-.652-.474,1.354,1.354,0,0,1-.415-.592,1.64,1.64,0,0,1-.178-.77,2.973,2.973,0,0,1,.118-.711,1.229,1.229,0,0,1,.355-.592,2.127,2.127,0,0,1,.592-.415,2.975,2.975,0,0,1,.77-.3V78.7h1.422v1.185a1.394,1.394,0,0,1,.474.118,3.775,3.775,0,0,1,.415.118A1.228,1.228,0,0,0,31,80.24a1,1,0,0,0,.3.118L31,81.484a4.081,4.081,0,0,1-.474-.178,1.394,1.394,0,0,0-.474-.118.654.654,0,0,1-.474,0c-.178,0-.3-.059-.474-.059a1,1,0,0,0-.77.237.687.687,0,0,0-.237.592.444.444,0,0,0,.059.3c.059.118.118.178.178.3.118.059.237.178.355.237s.3.118.533.237a4.448,4.448,0,0,1,1.066.415A2.132,2.132,0,0,1,31.416,84.5a2.192,2.192,0,0,1,0,1.422,1.229,1.229,0,0,1-.355.592,2.128,2.128,0,0,1-.592.415,2.933,2.933,0,0,1-.77.237v1.362H28.277v-1.3Z" transform="translate(-18.8 -73.961)"/>
          <path id="Path_2840" data-name="Path 2840" class="cls-13" d="M30.29,84.4a1.354,1.354,0,0,0-.415-.592,2.13,2.13,0,0,0-.711-.474,10.113,10.113,0,0,0-1.066-.415,1.116,1.116,0,0,1-.533-.237c-.118-.059-.237-.178-.355-.237a.326.326,0,0,1-.178-.3.534.534,0,0,1-.059-.3.76.76,0,0,1,.237-.592,1.375,1.375,0,0,1,.592-.237h.178c.178,0,.3.059.474.059.178.059.3.059.474.118s.3.118.474.178h.474l.3-1.125a.452.452,0,0,0-.3-.118.842.842,0,0,0-.355-.118c-.118-.059-.3-.059-.415-.118-.178-.059-.3-.059-.474-.118V78.6h-1.9v1.244a2.976,2.976,0,0,0-.77.3,5.123,5.123,0,0,0-.592.415,1.229,1.229,0,0,0-.355.592,2.973,2.973,0,0,0-.118.711,1.64,1.64,0,0,0,.178.77,2.127,2.127,0,0,0,.415.592,2.63,2.63,0,0,0,.652.474,6.894,6.894,0,0,0,.889.355l.533.178a.955.955,0,0,1,.415.237.591.591,0,0,1,.237.3.842.842,0,0,1,.118.355.729.729,0,0,1-.3.592.884.884,0,0,1-.592.178,2.973,2.973,0,0,1-.711-.118,9.136,9.136,0,0,1-1.007-.3h-.474L24.9,86.6a3.425,3.425,0,0,0,.829.3c.3.059.652.118.948.178v1.3h1.9V87.011a2.933,2.933,0,0,0,.77-.237,2.127,2.127,0,0,0,.592-.415,1.229,1.229,0,0,0,.355-.592,2.973,2.973,0,0,0,.118-.711A3.056,3.056,0,0,0,30.29,84.4Z" transform="translate(-18.147 -73.921)"/>
          <path id="Path_2841" data-name="Path 2841" class="cls-9" d="M26.677,87.23c-.355-.059-.652-.118-.948-.178a3.425,3.425,0,0,1-.829-.3l.355-1.125c.355.118.711.178,1.007.3a5.218,5.218,0,0,0,1.007.118,1,1,0,0,0,.77-.237.729.729,0,0,0,.3-.592.842.842,0,0,0-.118-.355c-.059-.118-.178-.178-.237-.3a2.575,2.575,0,0,0-.415-.237l-.533-.178c-.355-.118-.592-.237-.889-.355a2.63,2.63,0,0,1-.652-.474,1.354,1.354,0,0,1-.415-.592,1.64,1.64,0,0,1-.178-.77,2.973,2.973,0,0,1,.118-.711,1.229,1.229,0,0,1,.355-.592,2.127,2.127,0,0,1,.592-.415,2.975,2.975,0,0,1,.77-.3V78.7h1.422v1.185a1.394,1.394,0,0,1,.474.118,3.775,3.775,0,0,1,.415.118,1.228,1.228,0,0,0,.355.118,1,1,0,0,0,.3.118l-.3,1.125a4.081,4.081,0,0,1-.474-.178,1.394,1.394,0,0,0-.474-.118,1.3,1.3,0,0,0-.474-.059c-.178,0-.3-.059-.474-.059a1,1,0,0,0-.77.237.687.687,0,0,0-.237.592.444.444,0,0,0,.059.3c.059.118.118.178.178.3.118.059.237.178.355.237s.3.118.533.237a4.448,4.448,0,0,1,1.066.415,2.132,2.132,0,0,1,1.125,1.066,2.192,2.192,0,0,1,0,1.422,1.229,1.229,0,0,1-.355.592,2.127,2.127,0,0,1-.592.415,2.933,2.933,0,0,1-.77.237v1.362H26.677V87.23Z" transform="translate(-18.147 -73.961)"/>
        </g>
      </g>
      <g id="Group_5435" data-name="Group 5435" transform="translate(22.213 41.89)">
        <g id="Group_5434" data-name="Group 5434">
          <circle id="Ellipse_394" data-name="Ellipse 394" class="cls-8" cx="9.714" cy="9.714" r="9.714" transform="translate(1.007 0.059)"/>
          <circle id="Ellipse_395" data-name="Ellipse 395" class="cls-9" cx="9.714" cy="9.714" r="9.714"/>
          <circle id="Ellipse_396" data-name="Ellipse 396" class="cls-10" cx="7.108" cy="7.108" r="7.108" transform="translate(2.606 2.606)"/>
          <path id="Path_2842" data-name="Path 2842" class="cls-11" d="M42.433,82.208A7.111,7.111,0,0,1,49.245,75.1h-.237a7.108,7.108,0,1,0,0,14.216h.237A7.151,7.151,0,0,1,42.433,82.208Z" transform="translate(-39.294 -72.494)"/>
          <g id="Group_5433" data-name="Group 5433" transform="translate(1.56 1.56)">
            <g id="Group_5432" data-name="Group 5432">
              <path id="Path_2843" data-name="Path 2843" class="cls-12" d="M41,92.643l-.77.77a.365.365,0,0,0-.059.415,9.8,9.8,0,0,0,1.3,1.777.308.308,0,0,0,.474,0l.77-.77a.36.36,0,0,0,0-.474A6.527,6.527,0,0,1,41.536,92.7C41.476,92.525,41.18,92.525,41,92.643Z" transform="translate(-40.134 -81.172)"/>
              <path id="Path_2844" data-name="Path 2844" class="cls-12" d="M61.818,75.92l.77-.77a.36.36,0,0,0,0-.474,9.8,9.8,0,0,0-1.777-1.3.365.365,0,0,0-.415.059l-.77.77a.334.334,0,0,0,.059.533,6.527,6.527,0,0,1,1.659,1.185A.358.358,0,0,0,61.818,75.92Z" transform="translate(-48.037 -73.334)"/>
              <path id="Path_2845" data-name="Path 2845" class="cls-12" d="M65.5,78.123l-.77.77a.365.365,0,0,0-.059.415c.118.178.237.415.355.592a.334.334,0,0,0,.533.059l.77-.77a.365.365,0,0,0,.059-.415,3.984,3.984,0,0,0-.415-.652A.308.308,0,0,0,65.5,78.123Z" transform="translate(-50.122 -75.241)"/>
              <path id="Path_2846" data-name="Path 2846" class="cls-12" d="M46.762,98.129a5.209,5.209,0,0,1-.592-.355.365.365,0,0,0-.415.059l-.829.77a.334.334,0,0,0,.059.533c.237.118.415.3.652.415a.365.365,0,0,0,.415-.059l.77-.77A.4.4,0,0,0,46.762,98.129Z" transform="translate(-42.044 -83.281)"/>
            </g>
          </g>
          <path id="Path_2847" data-name="Path 2847" class="cls-11" d="M52.277,87.23c-.355-.059-.652-.118-.948-.178a3.425,3.425,0,0,1-.829-.3l.355-1.125c.355.118.711.178,1.007.3a5.218,5.218,0,0,0,1.007.118,1,1,0,0,0,.77-.237.729.729,0,0,0,.3-.592.842.842,0,0,0-.118-.355c-.059-.118-.178-.178-.237-.3a2.576,2.576,0,0,0-.415-.237l-.533-.178c-.355-.118-.592-.237-.889-.355a2.63,2.63,0,0,1-.652-.474,1.354,1.354,0,0,1-.415-.592,1.64,1.64,0,0,1-.178-.77,2.973,2.973,0,0,1,.118-.711,1.229,1.229,0,0,1,.355-.592,2.127,2.127,0,0,1,.592-.415,2.975,2.975,0,0,1,.77-.3V78.7h1.422v1.185a1.394,1.394,0,0,1,.474.118,3.775,3.775,0,0,1,.415.118A1.228,1.228,0,0,0,55,80.24a1,1,0,0,0,.3.118L55,81.484a4.081,4.081,0,0,1-.474-.178,1.394,1.394,0,0,0-.474-.118.654.654,0,0,1-.474,0c-.178,0-.3-.059-.474-.059a1,1,0,0,0-.77.237.687.687,0,0,0-.237.592.444.444,0,0,0,.059.3c.059.118.118.178.178.3.118.059.237.178.355.237s.3.118.533.237a4.448,4.448,0,0,1,1.066.415A2.132,2.132,0,0,1,55.416,84.5a2.192,2.192,0,0,1,0,1.422,1.229,1.229,0,0,1-.355.592,2.128,2.128,0,0,1-.592.415,2.933,2.933,0,0,1-.77.237v1.362H52.277Z" transform="translate(-42.8 -73.961)"/>
          <path id="Path_2848" data-name="Path 2848" class="cls-13" d="M54.29,84.4a1.354,1.354,0,0,0-.415-.592,2.13,2.13,0,0,0-.711-.474,10.114,10.114,0,0,0-1.066-.415,1.116,1.116,0,0,1-.533-.237c-.118-.059-.237-.178-.355-.237a.326.326,0,0,1-.178-.3.534.534,0,0,1-.059-.3.76.76,0,0,1,.237-.592,1.375,1.375,0,0,1,.592-.237h.178c.178,0,.3.059.474.059.178.059.3.059.474.118s.3.118.474.178h.474l.3-1.125a.452.452,0,0,0-.3-.118.842.842,0,0,0-.355-.118c-.118-.059-.3-.059-.415-.118-.178-.059-.3-.059-.474-.118V78.6h-1.9v1.244a2.976,2.976,0,0,0-.77.3,5.123,5.123,0,0,0-.592.415,1.229,1.229,0,0,0-.355.592,2.973,2.973,0,0,0-.118.711,1.64,1.64,0,0,0,.178.77,2.127,2.127,0,0,0,.415.592,2.63,2.63,0,0,0,.652.474,6.894,6.894,0,0,0,.889.355l.533.178a.955.955,0,0,1,.415.237.591.591,0,0,1,.237.3.842.842,0,0,1,.118.355.729.729,0,0,1-.3.592.884.884,0,0,1-.592.178,2.973,2.973,0,0,1-.711-.118,9.135,9.135,0,0,1-1.007-.3h-.474L48.9,86.6a3.425,3.425,0,0,0,.829.3c.3.059.652.118.948.178v1.3h1.9V87.011a2.933,2.933,0,0,0,.77-.237,2.127,2.127,0,0,0,.592-.415,1.229,1.229,0,0,0,.355-.592,2.973,2.973,0,0,0,.118-.711A3.057,3.057,0,0,0,54.29,84.4Z" transform="translate(-42.147 -73.921)"/>
          <path id="Path_2849" data-name="Path 2849" class="cls-9" d="M50.677,87.23c-.355-.059-.652-.118-.948-.178a3.425,3.425,0,0,1-.829-.3l.355-1.125c.355.118.711.178,1.007.3a5.218,5.218,0,0,0,1.007.118,1,1,0,0,0,.77-.237.729.729,0,0,0,.3-.592.842.842,0,0,0-.118-.355c-.059-.118-.178-.178-.237-.3a2.575,2.575,0,0,0-.415-.237l-.533-.178c-.355-.118-.592-.237-.889-.355a2.63,2.63,0,0,1-.652-.474,1.354,1.354,0,0,1-.415-.592,1.64,1.64,0,0,1-.178-.77,2.973,2.973,0,0,1,.118-.711,1.229,1.229,0,0,1,.355-.592,2.128,2.128,0,0,1,.592-.415,2.975,2.975,0,0,1,.77-.3V78.7h1.422v1.185a1.394,1.394,0,0,1,.474.118,3.775,3.775,0,0,1,.415.118,1.228,1.228,0,0,0,.355.118,1,1,0,0,0,.3.118l-.3,1.125a4.081,4.081,0,0,1-.474-.178,1.394,1.394,0,0,0-.474-.118,1.3,1.3,0,0,0-.474-.059c-.178,0-.3-.059-.474-.059a1,1,0,0,0-.77.237.687.687,0,0,0-.237.592.444.444,0,0,0,.059.3c.059.118.118.178.178.3.118.059.237.178.355.237s.3.118.533.237a4.448,4.448,0,0,1,1.066.415,2.132,2.132,0,0,1,1.125,1.066,2.192,2.192,0,0,1,0,1.422,1.229,1.229,0,0,1-.355.592,2.127,2.127,0,0,1-.592.415,2.933,2.933,0,0,1-.77.237v1.362H50.677V87.23Z" transform="translate(-42.147 -73.961)"/>
        </g>
      </g>
      <g id="Group_5439" data-name="Group 5439" transform="translate(10.366 30.044)">
        <g id="Group_5438" data-name="Group 5438">
          <circle id="Ellipse_397" data-name="Ellipse 397" class="cls-8" cx="9.714" cy="9.714" r="9.714" transform="translate(1.007 0.059)"/>
          <circle id="Ellipse_398" data-name="Ellipse 398" class="cls-9" cx="9.714" cy="9.714" r="9.714"/>
          <circle id="Ellipse_399" data-name="Ellipse 399" class="cls-10" cx="7.108" cy="7.108" r="7.108" transform="translate(2.606 2.606)"/>
          <path id="Path_2850" data-name="Path 2850" class="cls-11" d="M22.433,62.208A7.111,7.111,0,0,1,29.245,55.1h-.237a7.108,7.108,0,0,0,0,14.216h.237A7.151,7.151,0,0,1,22.433,62.208Z" transform="translate(-19.294 -52.494)"/>
          <g id="Group_5437" data-name="Group 5437" transform="translate(1.56 1.56)">
            <g id="Group_5436" data-name="Group 5436">
              <path id="Path_2851" data-name="Path 2851" class="cls-12" d="M21,72.643l-.77.77a.365.365,0,0,0-.059.415,9.805,9.805,0,0,0,1.3,1.777.308.308,0,0,0,.474,0l.77-.77a.36.36,0,0,0,0-.474A6.527,6.527,0,0,1,21.536,72.7C21.476,72.525,21.18,72.525,21,72.643Z" transform="translate(-20.134 -61.172)"/>
              <path id="Path_2852" data-name="Path 2852" class="cls-12" d="M41.818,55.92l.77-.77a.36.36,0,0,0,0-.474,9.806,9.806,0,0,0-1.777-1.3.365.365,0,0,0-.415.059l-.77.77a.334.334,0,0,0,.059.533,6.527,6.527,0,0,1,1.659,1.185A.358.358,0,0,0,41.818,55.92Z" transform="translate(-28.037 -53.334)"/>
              <path id="Path_2853" data-name="Path 2853" class="cls-12" d="M45.5,58.123l-.77.77a.365.365,0,0,0-.059.415c.118.178.237.415.355.592a.334.334,0,0,0,.533.059l.77-.77a.365.365,0,0,0,.059-.415,3.984,3.984,0,0,0-.415-.652A.308.308,0,0,0,45.5,58.123Z" transform="translate(-30.122 -55.241)"/>
              <path id="Path_2854" data-name="Path 2854" class="cls-12" d="M26.762,78.129a5.211,5.211,0,0,1-.592-.355.365.365,0,0,0-.415.059l-.829.77a.334.334,0,0,0,.059.533c.237.118.415.3.652.415a.365.365,0,0,0,.415-.059l.77-.77A.4.4,0,0,0,26.762,78.129Z" transform="translate(-22.044 -63.281)"/>
            </g>
          </g>
          <path id="Path_2855" data-name="Path 2855" class="cls-11" d="M32.277,67.23c-.355-.059-.652-.118-.948-.178a3.425,3.425,0,0,1-.829-.3l.355-1.125c.355.118.711.178,1.007.3a5.217,5.217,0,0,0,1.007.118,1,1,0,0,0,.77-.237.729.729,0,0,0,.3-.592.842.842,0,0,0-.118-.355c-.059-.118-.178-.178-.237-.3a2.575,2.575,0,0,0-.415-.237l-.533-.178c-.355-.118-.592-.237-.889-.355a2.63,2.63,0,0,1-.652-.474,1.354,1.354,0,0,1-.415-.592,1.64,1.64,0,0,1-.178-.77,2.973,2.973,0,0,1,.118-.711,1.229,1.229,0,0,1,.355-.592,2.127,2.127,0,0,1,.592-.415,2.976,2.976,0,0,1,.77-.3V58.7h1.422v1.185a1.394,1.394,0,0,1,.474.118,3.773,3.773,0,0,1,.415.118A1.228,1.228,0,0,0,35,60.24a1,1,0,0,0,.3.118L35,61.484a4.08,4.08,0,0,1-.474-.178,1.394,1.394,0,0,0-.474-.118.654.654,0,0,1-.474,0c-.178,0-.3-.059-.474-.059a1,1,0,0,0-.77.237.687.687,0,0,0-.237.592.444.444,0,0,0,.059.3c.059.118.118.178.178.3.118.059.237.178.355.237s.3.118.533.237a4.448,4.448,0,0,1,1.066.415A2.132,2.132,0,0,1,35.416,64.5a2.192,2.192,0,0,1,0,1.422,1.229,1.229,0,0,1-.355.592,2.127,2.127,0,0,1-.592.415,2.933,2.933,0,0,1-.77.237v1.362H32.277Z" transform="translate(-22.8 -53.961)"/>
          <path id="Path_2856" data-name="Path 2856" class="cls-13" d="M34.29,64.4a1.354,1.354,0,0,0-.415-.592,2.13,2.13,0,0,0-.711-.474,10.116,10.116,0,0,0-1.066-.415,1.116,1.116,0,0,1-.533-.237c-.118-.059-.237-.178-.355-.237a.326.326,0,0,1-.178-.3.534.534,0,0,1-.059-.3.76.76,0,0,1,.237-.592,1.375,1.375,0,0,1,.592-.237h.178c.178,0,.3.059.474.059.178.059.3.059.474.118s.3.118.474.178h.474l.3-1.125a.452.452,0,0,0-.3-.118.842.842,0,0,0-.355-.118c-.118-.059-.3-.059-.415-.118-.178-.059-.3-.059-.474-.118V58.6h-1.9v1.244a2.975,2.975,0,0,0-.77.3,5.124,5.124,0,0,0-.592.415,1.229,1.229,0,0,0-.355.592,2.973,2.973,0,0,0-.118.711,1.64,1.64,0,0,0,.178.77,2.127,2.127,0,0,0,.415.592,2.63,2.63,0,0,0,.652.474,6.9,6.9,0,0,0,.889.355l.533.178a.955.955,0,0,1,.415.237.591.591,0,0,1,.237.3.842.842,0,0,1,.118.355.729.729,0,0,1-.3.592.884.884,0,0,1-.592.178,2.973,2.973,0,0,1-.711-.118,9.139,9.139,0,0,1-1.007-.3h-.474L28.9,66.6a3.425,3.425,0,0,0,.829.3c.3.059.652.118.948.178v1.3h1.9V67.011a2.933,2.933,0,0,0,.77-.237,2.128,2.128,0,0,0,.592-.415,1.229,1.229,0,0,0,.355-.592,2.973,2.973,0,0,0,.118-.711A3.057,3.057,0,0,0,34.29,64.4Z" transform="translate(-22.147 -53.921)"/>
          <path id="Path_2857" data-name="Path 2857" class="cls-9" d="M30.677,67.23c-.355-.059-.652-.118-.948-.178a3.425,3.425,0,0,1-.829-.3l.355-1.125c.355.118.711.178,1.007.3a5.217,5.217,0,0,0,1.007.118,1,1,0,0,0,.77-.237.729.729,0,0,0,.3-.592.842.842,0,0,0-.118-.355c-.059-.118-.178-.178-.237-.3a2.575,2.575,0,0,0-.415-.237l-.533-.178c-.355-.118-.592-.237-.889-.355a2.63,2.63,0,0,1-.652-.474,1.354,1.354,0,0,1-.415-.592,1.64,1.64,0,0,1-.178-.77,2.973,2.973,0,0,1,.118-.711,1.229,1.229,0,0,1,.355-.592,2.127,2.127,0,0,1,.592-.415,2.976,2.976,0,0,1,.77-.3V58.7h1.422v1.185a1.394,1.394,0,0,1,.474.118,3.772,3.772,0,0,1,.415.118,1.228,1.228,0,0,0,.355.118,1,1,0,0,0,.3.118l-.3,1.125a4.079,4.079,0,0,1-.474-.178,1.394,1.394,0,0,0-.474-.118,1.3,1.3,0,0,0-.474-.059c-.178,0-.3-.059-.474-.059a1,1,0,0,0-.77.237.687.687,0,0,0-.237.592.444.444,0,0,0,.059.3c.059.118.118.178.178.3.118.059.237.178.355.237s.3.118.533.237a4.449,4.449,0,0,1,1.066.415,2.132,2.132,0,0,1,1.125,1.066,2.192,2.192,0,0,1,0,1.422,1.229,1.229,0,0,1-.355.592,2.127,2.127,0,0,1-.592.415,2.933,2.933,0,0,1-.77.237v1.362H30.677V67.23Z" transform="translate(-22.147 -53.961)"/>
        </g>
      </g>
      <g id="Group_5443" data-name="Group 5443" transform="translate(25.767 32.413)">
        <g id="Group_5442" data-name="Group 5442">
          <circle id="Ellipse_400" data-name="Ellipse 400" class="cls-8" cx="9.714" cy="9.714" r="9.714" transform="translate(1.007 0.059)"/>
          <circle id="Ellipse_401" data-name="Ellipse 401" class="cls-9" cx="9.714" cy="9.714" r="9.714"/>
          <circle id="Ellipse_402" data-name="Ellipse 402" class="cls-10" cx="7.108" cy="7.108" r="7.108" transform="translate(2.606 2.606)"/>
          <path id="Path_2858" data-name="Path 2858" class="cls-11" d="M48.433,66.208A7.111,7.111,0,0,1,55.245,59.1h-.237a7.108,7.108,0,0,0,0,14.216h.237A7.151,7.151,0,0,1,48.433,66.208Z" transform="translate(-45.294 -56.494)"/>
          <g id="Group_5441" data-name="Group 5441" transform="translate(1.56 1.56)">
            <g id="Group_5440" data-name="Group 5440">
              <path id="Path_2859" data-name="Path 2859" class="cls-12" d="M47,76.643l-.77.77a.365.365,0,0,0-.059.415,9.8,9.8,0,0,0,1.3,1.777.308.308,0,0,0,.474,0l.77-.77a.36.36,0,0,0,0-.474A6.527,6.527,0,0,1,47.536,76.7C47.476,76.525,47.18,76.525,47,76.643Z" transform="translate(-46.134 -65.172)"/>
              <path id="Path_2860" data-name="Path 2860" class="cls-12" d="M67.818,59.92l.77-.77a.36.36,0,0,0,0-.474,9.806,9.806,0,0,0-1.777-1.3.365.365,0,0,0-.415.059l-.77.77a.334.334,0,0,0,.059.533,6.527,6.527,0,0,1,1.659,1.185A.358.358,0,0,0,67.818,59.92Z" transform="translate(-54.037 -57.334)"/>
              <path id="Path_2861" data-name="Path 2861" class="cls-12" d="M71.5,62.123l-.77.77a.365.365,0,0,0-.059.415c.118.178.237.415.355.592a.334.334,0,0,0,.533.059l.77-.77a.365.365,0,0,0,.059-.415,3.983,3.983,0,0,0-.415-.652A.308.308,0,0,0,71.5,62.123Z" transform="translate(-56.122 -59.241)"/>
              <path id="Path_2862" data-name="Path 2862" class="cls-12" d="M52.762,82.129a5.211,5.211,0,0,1-.592-.355.365.365,0,0,0-.415.059l-.829.77a.334.334,0,0,0,.059.533c.237.118.415.3.652.415a.365.365,0,0,0,.415-.059l.77-.77A.4.4,0,0,0,52.762,82.129Z" transform="translate(-48.044 -67.281)"/>
            </g>
          </g>
          <path id="Path_2863" data-name="Path 2863" class="cls-11" d="M58.277,71.23c-.355-.059-.652-.118-.948-.178a3.425,3.425,0,0,1-.829-.3l.355-1.125c.355.118.711.178,1.007.3a5.216,5.216,0,0,0,1.007.118,1,1,0,0,0,.77-.237.729.729,0,0,0,.3-.592.842.842,0,0,0-.118-.355c-.059-.118-.178-.178-.237-.3a2.576,2.576,0,0,0-.415-.237l-.533-.178c-.355-.118-.592-.237-.889-.355a2.63,2.63,0,0,1-.652-.474,1.354,1.354,0,0,1-.415-.592,1.64,1.64,0,0,1-.178-.77,2.973,2.973,0,0,1,.118-.711,1.229,1.229,0,0,1,.355-.592,2.128,2.128,0,0,1,.592-.415,2.976,2.976,0,0,1,.77-.3V62.7h1.422v1.185a1.394,1.394,0,0,1,.474.118,3.775,3.775,0,0,1,.415.118A1.228,1.228,0,0,0,61,64.24a1,1,0,0,0,.3.118L61,65.484a4.081,4.081,0,0,1-.474-.178,1.394,1.394,0,0,0-.474-.118.654.654,0,0,1-.474,0c-.178,0-.3-.059-.474-.059a1,1,0,0,0-.77.237.687.687,0,0,0-.237.592.444.444,0,0,0,.059.3c.059.118.118.178.178.3.118.059.237.178.355.237s.3.118.533.237a4.448,4.448,0,0,1,1.066.415A2.132,2.132,0,0,1,61.416,68.5a2.192,2.192,0,0,1,0,1.422,1.229,1.229,0,0,1-.355.592,2.127,2.127,0,0,1-.592.415,2.933,2.933,0,0,1-.77.237v1.362H58.277v-1.3Z" transform="translate(-48.8 -57.961)"/>
          <path id="Path_2864" data-name="Path 2864" class="cls-13" d="M60.29,68.4a1.354,1.354,0,0,0-.415-.592,2.13,2.13,0,0,0-.711-.474,10.118,10.118,0,0,0-1.066-.415,1.116,1.116,0,0,1-.533-.237c-.118-.059-.237-.178-.355-.237a.326.326,0,0,1-.178-.3.534.534,0,0,1-.059-.3.76.76,0,0,1,.237-.592,1.375,1.375,0,0,1,.592-.237h.178c.178,0,.3.059.474.059.178.059.3.059.474.118s.3.118.474.178h.474l.3-1.125a.452.452,0,0,0-.3-.118.842.842,0,0,0-.355-.118c-.118-.059-.3-.059-.415-.118-.178-.059-.3-.059-.474-.118V62.6h-1.9v1.244a2.976,2.976,0,0,0-.77.3,5.124,5.124,0,0,0-.592.415,1.229,1.229,0,0,0-.355.592,2.973,2.973,0,0,0-.118.711,1.64,1.64,0,0,0,.178.77,2.128,2.128,0,0,0,.415.592,2.63,2.63,0,0,0,.652.474,6.9,6.9,0,0,0,.889.355l.533.178a.955.955,0,0,1,.415.237.591.591,0,0,1,.237.3.842.842,0,0,1,.118.355.729.729,0,0,1-.3.592.884.884,0,0,1-.592.178,2.973,2.973,0,0,1-.711-.118,9.141,9.141,0,0,1-1.007-.3h-.474L54.9,70.6a3.426,3.426,0,0,0,.829.3c.3.059.652.118.948.178v1.3h1.9V71.011a2.932,2.932,0,0,0,.77-.237,2.127,2.127,0,0,0,.592-.415,1.229,1.229,0,0,0,.355-.592,2.973,2.973,0,0,0,.118-.711A3.057,3.057,0,0,0,60.29,68.4Z" transform="translate(-48.147 -57.921)"/>
          <path id="Path_2865" data-name="Path 2865" class="cls-9" d="M56.677,71.23c-.355-.059-.652-.118-.948-.178a3.425,3.425,0,0,1-.829-.3l.355-1.125c.355.118.711.178,1.007.3a5.216,5.216,0,0,0,1.007.118,1,1,0,0,0,.77-.237.729.729,0,0,0,.3-.592.842.842,0,0,0-.118-.355c-.059-.118-.178-.178-.237-.3a2.576,2.576,0,0,0-.415-.237l-.533-.178c-.355-.118-.592-.237-.889-.355a2.63,2.63,0,0,1-.652-.474,1.354,1.354,0,0,1-.415-.592,1.64,1.64,0,0,1-.178-.77,2.973,2.973,0,0,1,.118-.711,1.229,1.229,0,0,1,.355-.592,2.128,2.128,0,0,1,.592-.415,2.976,2.976,0,0,1,.77-.3V62.7h1.422v1.185a1.394,1.394,0,0,1,.474.118,3.775,3.775,0,0,1,.415.118,1.228,1.228,0,0,0,.355.118,1,1,0,0,0,.3.118l-.3,1.125a4.081,4.081,0,0,1-.474-.178,1.394,1.394,0,0,0-.474-.118,1.3,1.3,0,0,0-.474-.059c-.178,0-.3-.059-.474-.059a1,1,0,0,0-.77.237.687.687,0,0,0-.237.592.444.444,0,0,0,.059.3c.059.118.118.178.178.3.118.059.237.178.355.237s.3.118.533.237a4.448,4.448,0,0,1,1.066.415,2.132,2.132,0,0,1,1.125,1.066,2.192,2.192,0,0,1,0,1.422,1.229,1.229,0,0,1-.355.592,2.127,2.127,0,0,1-.592.415,2.932,2.932,0,0,1-.77.237v1.362H56.677Z" transform="translate(-48.147 -57.961)"/>
        </g>
      </g>
      <g id="Group_5447" data-name="Group 5447" transform="translate(7.997 41.89)">
        <g id="Group_5446" data-name="Group 5446">
          <circle id="Ellipse_403" data-name="Ellipse 403" class="cls-8" cx="9.714" cy="9.714" r="9.714" transform="translate(1.007 0.059)"/>
          <circle id="Ellipse_404" data-name="Ellipse 404" class="cls-9" cx="9.714" cy="9.714" r="9.714"/>
          <circle id="Ellipse_405" data-name="Ellipse 405" class="cls-10" cx="7.108" cy="7.108" r="7.108" transform="translate(2.606 2.606)"/>
          <path id="Path_2866" data-name="Path 2866" class="cls-11" d="M18.433,82.208A7.111,7.111,0,0,1,25.245,75.1h-.237a7.108,7.108,0,0,0,0,14.216h.237A7.151,7.151,0,0,1,18.433,82.208Z" transform="translate(-15.294 -72.494)"/>
          <g id="Group_5445" data-name="Group 5445" transform="translate(1.56 1.56)">
            <g id="Group_5444" data-name="Group 5444">
              <path id="Path_2867" data-name="Path 2867" class="cls-12" d="M17,92.643l-.77.77a.365.365,0,0,0-.059.415,9.805,9.805,0,0,0,1.3,1.777.308.308,0,0,0,.474,0l.77-.77a.36.36,0,0,0,0-.474A6.527,6.527,0,0,1,17.536,92.7C17.476,92.525,17.18,92.525,17,92.643Z" transform="translate(-16.134 -81.172)"/>
              <path id="Path_2868" data-name="Path 2868" class="cls-12" d="M37.818,75.92l.77-.77a.36.36,0,0,0,0-.474,9.8,9.8,0,0,0-1.777-1.3.365.365,0,0,0-.415.059l-.77.77a.334.334,0,0,0,.059.533,6.527,6.527,0,0,1,1.659,1.185A.358.358,0,0,0,37.818,75.92Z" transform="translate(-24.037 -73.334)"/>
              <path id="Path_2869" data-name="Path 2869" class="cls-12" d="M41.5,78.123l-.77.77a.365.365,0,0,0-.059.415c.118.178.237.415.355.592a.334.334,0,0,0,.533.059l.77-.77a.365.365,0,0,0,.059-.415,3.984,3.984,0,0,0-.415-.652A.308.308,0,0,0,41.5,78.123Z" transform="translate(-26.122 -75.241)"/>
              <path id="Path_2870" data-name="Path 2870" class="cls-12" d="M22.762,98.129a5.209,5.209,0,0,1-.592-.355.365.365,0,0,0-.415.059l-.829.77a.334.334,0,0,0,.059.533c.237.118.415.3.652.415a.365.365,0,0,0,.415-.059l.77-.77A.4.4,0,0,0,22.762,98.129Z" transform="translate(-18.044 -83.281)"/>
            </g>
          </g>
          <path id="Path_2871" data-name="Path 2871" class="cls-11" d="M28.277,87.23c-.355-.059-.652-.118-.948-.178a3.425,3.425,0,0,1-.829-.3l.355-1.125c.355.118.711.178,1.007.3a5.218,5.218,0,0,0,1.007.118,1,1,0,0,0,.77-.237.729.729,0,0,0,.3-.592.842.842,0,0,0-.118-.355c-.059-.118-.178-.178-.237-.3a2.576,2.576,0,0,0-.415-.237l-.533-.178c-.355-.118-.592-.237-.889-.355a2.63,2.63,0,0,1-.652-.474,1.354,1.354,0,0,1-.415-.592,1.64,1.64,0,0,1-.178-.77,2.973,2.973,0,0,1,.118-.711,1.229,1.229,0,0,1,.355-.592,2.127,2.127,0,0,1,.592-.415,2.975,2.975,0,0,1,.77-.3V78.7h1.422v1.185a1.394,1.394,0,0,1,.474.118,3.775,3.775,0,0,1,.415.118A1.228,1.228,0,0,0,31,80.24a1,1,0,0,0,.3.118L31,81.484a4.081,4.081,0,0,1-.474-.178,1.394,1.394,0,0,0-.474-.118.654.654,0,0,1-.474,0c-.178,0-.3-.059-.474-.059a1,1,0,0,0-.77.237.687.687,0,0,0-.237.592.444.444,0,0,0,.059.3c.059.118.118.178.178.3.118.059.237.178.355.237s.3.118.533.237a4.448,4.448,0,0,1,1.066.415A2.132,2.132,0,0,1,31.416,84.5a2.192,2.192,0,0,1,0,1.422,1.229,1.229,0,0,1-.355.592,2.128,2.128,0,0,1-.592.415,2.933,2.933,0,0,1-.77.237v1.362H28.277v-1.3Z" transform="translate(-18.8 -73.961)"/>
          <path id="Path_2872" data-name="Path 2872" class="cls-13" d="M30.29,84.4a1.354,1.354,0,0,0-.415-.592,2.13,2.13,0,0,0-.711-.474,10.113,10.113,0,0,0-1.066-.415,1.116,1.116,0,0,1-.533-.237c-.118-.059-.237-.178-.355-.237a.326.326,0,0,1-.178-.3.534.534,0,0,1-.059-.3.76.76,0,0,1,.237-.592,1.375,1.375,0,0,1,.592-.237h.178c.178,0,.3.059.474.059.178.059.3.059.474.118s.3.118.474.178h.474l.3-1.125a.452.452,0,0,0-.3-.118.842.842,0,0,0-.355-.118c-.118-.059-.3-.059-.415-.118-.178-.059-.3-.059-.474-.118V78.6h-1.9v1.244a2.976,2.976,0,0,0-.77.3,5.123,5.123,0,0,0-.592.415,1.229,1.229,0,0,0-.355.592,2.973,2.973,0,0,0-.118.711,1.64,1.64,0,0,0,.178.77,2.127,2.127,0,0,0,.415.592,2.63,2.63,0,0,0,.652.474,6.894,6.894,0,0,0,.889.355l.533.178a.955.955,0,0,1,.415.237.591.591,0,0,1,.237.3.842.842,0,0,1,.118.355.729.729,0,0,1-.3.592.884.884,0,0,1-.592.178,2.973,2.973,0,0,1-.711-.118,9.136,9.136,0,0,1-1.007-.3h-.474L24.9,86.6a3.425,3.425,0,0,0,.829.3c.3.059.652.118.948.178v1.3h1.9V87.011a2.933,2.933,0,0,0,.77-.237,2.127,2.127,0,0,0,.592-.415,1.229,1.229,0,0,0,.355-.592,2.973,2.973,0,0,0,.118-.711A3.056,3.056,0,0,0,30.29,84.4Z" transform="translate(-18.147 -73.921)"/>
          <path id="Path_2873" data-name="Path 2873" class="cls-9" d="M26.677,87.23c-.355-.059-.652-.118-.948-.178a3.425,3.425,0,0,1-.829-.3l.355-1.125c.355.118.711.178,1.007.3a5.218,5.218,0,0,0,1.007.118,1,1,0,0,0,.77-.237.729.729,0,0,0,.3-.592.842.842,0,0,0-.118-.355c-.059-.118-.178-.178-.237-.3a2.575,2.575,0,0,0-.415-.237l-.533-.178c-.355-.118-.592-.237-.889-.355a2.63,2.63,0,0,1-.652-.474,1.354,1.354,0,0,1-.415-.592,1.64,1.64,0,0,1-.178-.77,2.973,2.973,0,0,1,.118-.711,1.229,1.229,0,0,1,.355-.592,2.127,2.127,0,0,1,.592-.415,2.975,2.975,0,0,1,.77-.3V78.7h1.422v1.185a1.394,1.394,0,0,1,.474.118,3.775,3.775,0,0,1,.415.118,1.228,1.228,0,0,0,.355.118,1,1,0,0,0,.3.118l-.3,1.125a4.081,4.081,0,0,1-.474-.178,1.394,1.394,0,0,0-.474-.118,1.3,1.3,0,0,0-.474-.059c-.178,0-.3-.059-.474-.059a1,1,0,0,0-.77.237.687.687,0,0,0-.237.592.444.444,0,0,0,.059.3c.059.118.118.178.178.3.118.059.237.178.355.237s.3.118.533.237a4.448,4.448,0,0,1,1.066.415,2.132,2.132,0,0,1,1.125,1.066,2.192,2.192,0,0,1,0,1.422,1.229,1.229,0,0,1-.355.592,2.127,2.127,0,0,1-.592.415,2.933,2.933,0,0,1-.77.237v1.362H26.677V87.23Z" transform="translate(-18.147 -73.961)"/>
        </g>
      </g>
      <g id="Group_5451" data-name="Group 5451" transform="translate(22.213 41.89)">
        <g id="Group_5450" data-name="Group 5450">
          <circle id="Ellipse_406" data-name="Ellipse 406" class="cls-8" cx="9.714" cy="9.714" r="9.714" transform="translate(1.007 0.059)"/>
          <circle id="Ellipse_407" data-name="Ellipse 407" class="cls-9" cx="9.714" cy="9.714" r="9.714"/>
          <circle id="Ellipse_408" data-name="Ellipse 408" class="cls-10" cx="7.108" cy="7.108" r="7.108" transform="translate(2.606 2.606)"/>
          <path id="Path_2874" data-name="Path 2874" class="cls-11" d="M42.433,82.208A7.111,7.111,0,0,1,49.245,75.1h-.237a7.108,7.108,0,1,0,0,14.216h.237A7.151,7.151,0,0,1,42.433,82.208Z" transform="translate(-39.294 -72.494)"/>
          <g id="Group_5449" data-name="Group 5449" transform="translate(1.56 1.56)">
            <g id="Group_5448" data-name="Group 5448">
              <path id="Path_2875" data-name="Path 2875" class="cls-12" d="M41,92.643l-.77.77a.365.365,0,0,0-.059.415,9.8,9.8,0,0,0,1.3,1.777.308.308,0,0,0,.474,0l.77-.77a.36.36,0,0,0,0-.474A6.527,6.527,0,0,1,41.536,92.7C41.476,92.525,41.18,92.525,41,92.643Z" transform="translate(-40.134 -81.172)"/>
              <path id="Path_2876" data-name="Path 2876" class="cls-12" d="M61.818,75.92l.77-.77a.36.36,0,0,0,0-.474,9.8,9.8,0,0,0-1.777-1.3.365.365,0,0,0-.415.059l-.77.77a.334.334,0,0,0,.059.533,6.527,6.527,0,0,1,1.659,1.185A.358.358,0,0,0,61.818,75.92Z" transform="translate(-48.037 -73.334)"/>
              <path id="Path_2877" data-name="Path 2877" class="cls-12" d="M65.5,78.123l-.77.77a.365.365,0,0,0-.059.415c.118.178.237.415.355.592a.334.334,0,0,0,.533.059l.77-.77a.365.365,0,0,0,.059-.415,3.984,3.984,0,0,0-.415-.652A.308.308,0,0,0,65.5,78.123Z" transform="translate(-50.122 -75.241)"/>
              <path id="Path_2878" data-name="Path 2878" class="cls-12" d="M46.762,98.129a5.209,5.209,0,0,1-.592-.355.365.365,0,0,0-.415.059l-.829.77a.334.334,0,0,0,.059.533c.237.118.415.3.652.415a.365.365,0,0,0,.415-.059l.77-.77A.4.4,0,0,0,46.762,98.129Z" transform="translate(-42.044 -83.281)"/>
            </g>
          </g>
          <path id="Path_2879" data-name="Path 2879" class="cls-11" d="M52.277,87.23c-.355-.059-.652-.118-.948-.178a3.425,3.425,0,0,1-.829-.3l.355-1.125c.355.118.711.178,1.007.3a5.218,5.218,0,0,0,1.007.118,1,1,0,0,0,.77-.237.729.729,0,0,0,.3-.592.842.842,0,0,0-.118-.355c-.059-.118-.178-.178-.237-.3a2.576,2.576,0,0,0-.415-.237l-.533-.178c-.355-.118-.592-.237-.889-.355a2.63,2.63,0,0,1-.652-.474,1.354,1.354,0,0,1-.415-.592,1.64,1.64,0,0,1-.178-.77,2.973,2.973,0,0,1,.118-.711,1.229,1.229,0,0,1,.355-.592,2.127,2.127,0,0,1,.592-.415,2.975,2.975,0,0,1,.77-.3V78.7h1.422v1.185a1.394,1.394,0,0,1,.474.118,3.775,3.775,0,0,1,.415.118A1.228,1.228,0,0,0,55,80.24a1,1,0,0,0,.3.118L55,81.484a4.081,4.081,0,0,1-.474-.178,1.394,1.394,0,0,0-.474-.118.654.654,0,0,1-.474,0c-.178,0-.3-.059-.474-.059a1,1,0,0,0-.77.237.687.687,0,0,0-.237.592.444.444,0,0,0,.059.3c.059.118.118.178.178.3.118.059.237.178.355.237s.3.118.533.237a4.448,4.448,0,0,1,1.066.415A2.132,2.132,0,0,1,55.416,84.5a2.192,2.192,0,0,1,0,1.422,1.229,1.229,0,0,1-.355.592,2.128,2.128,0,0,1-.592.415,2.933,2.933,0,0,1-.77.237v1.362H52.277Z" transform="translate(-42.8 -73.961)"/>
          <path id="Path_2880" data-name="Path 2880" class="cls-13" d="M54.29,84.4a1.354,1.354,0,0,0-.415-.592,2.13,2.13,0,0,0-.711-.474,10.114,10.114,0,0,0-1.066-.415,1.116,1.116,0,0,1-.533-.237c-.118-.059-.237-.178-.355-.237a.326.326,0,0,1-.178-.3.534.534,0,0,1-.059-.3.76.76,0,0,1,.237-.592,1.375,1.375,0,0,1,.592-.237h.178c.178,0,.3.059.474.059.178.059.3.059.474.118s.3.118.474.178h.474l.3-1.125a.452.452,0,0,0-.3-.118.842.842,0,0,0-.355-.118c-.118-.059-.3-.059-.415-.118-.178-.059-.3-.059-.474-.118V78.6h-1.9v1.244a2.976,2.976,0,0,0-.77.3,5.123,5.123,0,0,0-.592.415,1.229,1.229,0,0,0-.355.592,2.973,2.973,0,0,0-.118.711,1.64,1.64,0,0,0,.178.77,2.127,2.127,0,0,0,.415.592,2.63,2.63,0,0,0,.652.474,6.894,6.894,0,0,0,.889.355l.533.178a.955.955,0,0,1,.415.237.591.591,0,0,1,.237.3.842.842,0,0,1,.118.355.729.729,0,0,1-.3.592.884.884,0,0,1-.592.178,2.973,2.973,0,0,1-.711-.118,9.135,9.135,0,0,1-1.007-.3h-.474L48.9,86.6a3.425,3.425,0,0,0,.829.3c.3.059.652.118.948.178v1.3h1.9V87.011a2.933,2.933,0,0,0,.77-.237,2.127,2.127,0,0,0,.592-.415,1.229,1.229,0,0,0,.355-.592,2.973,2.973,0,0,0,.118-.711A3.057,3.057,0,0,0,54.29,84.4Z" transform="translate(-42.147 -73.921)"/>
          <path id="Path_2881" data-name="Path 2881" class="cls-9" d="M50.677,87.23c-.355-.059-.652-.118-.948-.178a3.425,3.425,0,0,1-.829-.3l.355-1.125c.355.118.711.178,1.007.3a5.218,5.218,0,0,0,1.007.118,1,1,0,0,0,.77-.237.729.729,0,0,0,.3-.592.842.842,0,0,0-.118-.355c-.059-.118-.178-.178-.237-.3a2.575,2.575,0,0,0-.415-.237l-.533-.178c-.355-.118-.592-.237-.889-.355a2.63,2.63,0,0,1-.652-.474,1.354,1.354,0,0,1-.415-.592,1.64,1.64,0,0,1-.178-.77,2.973,2.973,0,0,1,.118-.711,1.229,1.229,0,0,1,.355-.592,2.128,2.128,0,0,1,.592-.415,2.975,2.975,0,0,1,.77-.3V78.7h1.422v1.185a1.394,1.394,0,0,1,.474.118,3.775,3.775,0,0,1,.415.118,1.228,1.228,0,0,0,.355.118,1,1,0,0,0,.3.118l-.3,1.125a4.081,4.081,0,0,1-.474-.178,1.394,1.394,0,0,0-.474-.118,1.3,1.3,0,0,0-.474-.059c-.178,0-.3-.059-.474-.059a1,1,0,0,0-.77.237.687.687,0,0,0-.237.592.444.444,0,0,0,.059.3c.059.118.118.178.178.3.118.059.237.178.355.237s.3.118.533.237a4.448,4.448,0,0,1,1.066.415,2.132,2.132,0,0,1,1.125,1.066,2.192,2.192,0,0,1,0,1.422,1.229,1.229,0,0,1-.355.592,2.127,2.127,0,0,1-.592.415,2.933,2.933,0,0,1-.77.237v1.362H50.677V87.23Z" transform="translate(-42.147 -73.961)"/>
        </g>
      </g>
    </g>
  </g>
</svg>
