<svg id="Layer_1" data-name="Layer 1" xmlns="http://www.w3.org/2000/svg" viewBox="0 0 150 150"><defs><style>.cls-1{fill:#7ab4e2;}.cls-2{fill:#dcebf8;}.cls-3{fill:#fff;}.cls-4{fill:#3b93d0;}.cls-5{fill:#1b68b2;}.cls-6{fill:#0f3d70;}.cls-7{fill:#257abe;}.cls-8{fill:#b7d7e5;}.cls-9{fill:#036;}</style></defs><title>Artboard 1 copy 3</title><g id="Group_11677" data-name="Group 11677"><g id="Group_8827" data-name="Group 8827"><g id="Group_8824" data-name="Group 8824"><g id="Group_8808" data-name="Group 8808"><g id="Group_8804" data-name="Group 8804"><path id="Path_4714" data-name="Path 4714" class="cls-1" d="M55.72,69.76l-7.8,29.12,58.23,15.6L114,85.36Z"/></g><g id="Group_8805" data-name="Group 8805"><path id="Path_4715" data-name="Path 4715" class="cls-2" d="M56.88,97.81l42.05,11.27a5,5,0,0,1,6.15-3.56h0l3.47-12.94A5,5,0,0,1,105,86.43h0L62.94,75.16a5,5,0,0,1-6.15,3.56h0L53.32,91.66A5,5,0,0,1,56.88,97.81ZM83.11,84A8.38,8.38,0,1,1,72.85,90h0A8.39,8.39,0,0,1,83.11,84Z"/><path id="Path_4716" data-name="Path 4716" class="cls-2" d="M55.72,69.76l-7.8,29.12,58.23,15.6L114,85.36Zm49,42.26L50.38,97.46l6.77-25.24,54.34,14.57Z"/><path id="Path_4717" data-name="Path 4717" class="cls-2" d="M77.69,93.23l-1.2,1a6.5,6.5,0,0,0,2.83,2.19L79,97.78l1.17.32.35-1.33c1.76.3,3.19-.37,3.58-1.85v0c.39-1.45-.27-2.49-2.19-3.55l.7-2.6a5.4,5.4,0,0,1,1.6,1.37l1.09-1.06A5.45,5.45,0,0,0,83,87.35l.22-.81-1.18-.31-.21.78c-1.72-.3-3.13.38-3.52,1.82v0c-.41,1.52.32,2.5,2.15,3.54l-.71,2.66A5.12,5.12,0,0,1,77.69,93.23Zm3.77-.29c1,.59,1.15,1,1,1.63v0c-.17.65-.75.94-1.64.8Zm-1.53-3.77h0c.16-.59.71-.92,1.59-.77l-.64,2.39c-1-.61-1.11-1-1-1.61Z"/></g><g id="Group_8807" data-name="Group 8807"><g id="Group_8806" data-name="Group 8806"><path id="Path_4718" data-name="Path 4718" class="cls-3" d="M84.18,90.12a5.4,5.4,0,0,0-1.6-1.37l-.7,2.6c1.92,1.06,2.58,2.1,2.19,3.55v0c-.39,1.48-1.82,2.15-3.57,1.85l-.36,1.33L79,97.78l.36-1.35a6.5,6.5,0,0,1-2.83-2.19l1.2-1a5.12,5.12,0,0,0,2.06,1.83l.71-2.66c-1.84-1-2.56-2-2.15-3.54v0c.39-1.45,1.8-2.12,3.52-1.82l.21-.78,1.18.31-.22.81a5.45,5.45,0,0,1,2.26,1.71Zm-3.29.66.64-2.39c-.88-.15-1.43.18-1.59.77v0c-.15.56,0,1,1,1.6Zm.56,2.16L80.8,95.4c.89.13,1.47-.16,1.64-.81v0c.16-.6,0-1-1-1.63Z"/></g></g></g><g id="Group_8813" data-name="Group 8813"><g id="Group_8809" data-name="Group 8809"><path id="Path_4719" data-name="Path 4719" class="cls-4" d="M56.76,71v30.14H117V71Z"/></g><g id="Group_8810" data-name="Group 8810"><path id="Path_4720" data-name="Path 4720" class="cls-1" d="M65.13,97.81h43.54a5,5,0,0,1,5-5h0V79.39a5,5,0,0,1-5-5H65.13a5,5,0,0,1-5,5v13.4a5,5,0,0,1,5,5ZM86.9,77.72a8.37,8.37,0,1,1-8.37,8.37h0a8.37,8.37,0,0,1,8.37-8.37Z"/><path id="Path_4721" data-name="Path 4721" class="cls-1" d="M56.76,71v30.14H117V71ZM115,99.15H58.77V73H115Z"/><path id="Path_4722" data-name="Path 4722" class="cls-1" d="M84.05,88l-.89,1.29a6.44,6.44,0,0,0,3.29,1.38v1.4h1.22V90.7c1.77-.17,3-1.19,3-2.71v0c0-1.49-.9-2.33-3-2.86V82.41a5.14,5.14,0,0,1,1.9.91L90.29,82A5.35,5.35,0,0,0,87.67,81v-.84H86.45v.81c-1.75.15-2.93,1.17-2.93,2.67v0c0,1.58,1,2.33,3,2.86v2.75A5.08,5.08,0,0,1,84.05,88Zm3.56-1.26c1.08.33,1.38.7,1.38,1.32v0c0,.67-.49,1.11-1.38,1.21ZM85.17,83.5h0c0-.62.44-1.08,1.34-1.16V84.8c-1.08-.33-1.34-.71-1.34-1.3Z"/></g><g id="Group_8812" data-name="Group 8812"><g id="Group_8811" data-name="Group 8811"><path id="Path_4723" data-name="Path 4723" class="cls-3" d="M89.51,83.32a5.14,5.14,0,0,0-1.9-.91v2.68c2.13.54,3,1.37,3,2.87v0c0,1.52-1.21,2.54-3,2.71v1.37H86.46v-1.4a6.43,6.43,0,0,1-3.3-1.38L84.05,88a5.08,5.08,0,0,0,2.46,1.23V86.48c-2-.53-3-1.29-3-2.87v0c0-1.49,1.19-2.51,2.94-2.66v-.81h1.21v.83A5.62,5.62,0,0,1,90.3,82Zm-3,1.48V82.33c-.89.08-1.34.54-1.34,1.16h0C85.17,84.09,85.43,84.47,86.51,84.8Zm1.1,1.94v2.55c.9-.1,1.39-.53,1.39-1.2v0C89,87.44,88.69,87.07,87.61,86.74Z"/></g></g></g><g id="Group_8818" data-name="Group 8818"><g id="Group_8814" data-name="Group 8814"><path id="Path_4724" data-name="Path 4724" class="cls-5" d="M61.12,69.34l7.8,29.11,58.23-15.6-7.8-29.12Z"/></g><g id="Group_8815" data-name="Group 8815"><path id="Path_4725" data-name="Path 4725" class="cls-4" d="M76.14,93.05l42.05-11.27a5,5,0,0,1,3.55-6.15h0l-3.46-12.94a5,5,0,0,1-6.16-3.55L70.07,70.4a5,5,0,0,1-3.55,6.16L70,89.5a5,5,0,0,1,6.15,3.55ZM92,68A8.38,8.38,0,1,1,86,78.26h0A8.39,8.39,0,0,1,92,68Z"/><path id="Path_4726" data-name="Path 4726" class="cls-4" d="M61.12,69.34l7.8,29.11,58.23-15.6-7.8-29.12Zm63.56,12.09L70.34,96,63.58,70.76l54.34-14.57Z"/><path id="Path_4727" data-name="Path 4727" class="cls-4" d="M91.87,78.68l-.53,1.47a6.54,6.54,0,0,0,3.55.49L95.25,82l1.17-.31-.35-1.32c1.67-.62,2.56-1.92,2.17-3.39v0c-.38-1.44-1.48-2-3.67-2l-.69-2.59a5.07,5.07,0,0,1,2.07.38l.41-1.47a5.4,5.4,0,0,0-2.81-.34l-.21-.81-1.18.31.21.78c-1.65.6-2.53,1.9-2.14,3.34v0c.41,1.52,1.53,2,3.63,2l.72,2.66A5.25,5.25,0,0,1,91.87,78.68ZM95,76.54c1.12,0,1.52.32,1.68.91v0c.18.65-.18,1.19-1,1.52ZM91.79,74h0c-.15-.59.16-1.16,1-1.47L93.42,75c-1.13,0-1.48-.34-1.63-.91Z"/></g><g id="Group_8817" data-name="Group 8817"><g id="Group_8816" data-name="Group 8816"><path id="Path_4728" data-name="Path 4728" class="cls-3" d="M95.94,72.74a5.07,5.07,0,0,0-2.07-.38L94.56,75c2.19,0,3.29.54,3.67,2v0c.4,1.47-.5,2.76-2.17,3.39l.35,1.32L95.25,82l-.36-1.35a6.45,6.45,0,0,1-3.55-.48l.54-1.47a5.22,5.22,0,0,0,2.69.55l-.71-2.66c-2.11,0-3.22-.47-3.63-2v0c-.39-1.44.5-2.74,2.14-3.34l-.2-.78,1.17-.31.22.81a5.4,5.4,0,0,1,2.81.34ZM93.42,75l-.64-2.39c-.84.32-1.15.88-1,1.47h0c.15.57.5.87,1.63.91ZM95,76.54,95.65,79c.84-.33,1.2-.87,1-1.52v0c-.16-.59-.56-.88-1.68-.91Z"/></g></g></g><g id="Group_8823" data-name="Group 8823"><g id="Group_8819" data-name="Group 8819"><path id="Path_4729" data-name="Path 4729" class="cls-6" d="M62.23,69.59,77.3,95.69l52.21-30.14-15.07-26.1Z"/></g><g id="Group_8820" data-name="Group 8820"><path id="Path_4730" data-name="Path 4730" class="cls-7" d="M82.88,88.6l37.71-21.77A5,5,0,0,1,122.42,60l-6.69-11.6a5,5,0,0,1-6.87-1.84L71.16,68.3a5,5,0,0,1-1.84,6.87h0L76,86.77a5,5,0,0,1,6.86,1.83Zm8.81-28.28a8.37,8.37,0,1,1-3.07,11.44,8.37,8.37,0,0,1,3.07-11.44Z"/><path id="Path_4731" data-name="Path 4731" class="cls-7" d="M62.23,69.59,77.3,95.69l52.21-30.14-15.07-26.1Zm64.54-4.78L78,93,65,70.32,113.7,42.19Z"/><path id="Path_4732" data-name="Path 4732" class="cls-7" d="M94.36,70.65l-.13,1.56a6.45,6.45,0,0,0,3.55-.45l.7,1.21,1-.61-.69-1.18c1.46-1,2-2.52,1.22-3.84v0c-.75-1.3-2-1.57-4.06-1L94.65,64a5.14,5.14,0,0,1,2.1-.16l0-1.53a5.47,5.47,0,0,0-2.8.39L93.55,62l-1.06.6.41.71c-1.44,1-2,2.48-1.21,3.77l0,0c.79,1.37,2,1.55,4,1l1.38,2.39A5.15,5.15,0,0,1,94.36,70.65Zm2.46-2.87c1.09-.26,1.54-.09,1.85.45l0,0c.33.58.13,1.2-.6,1.73ZM93.08,66.2v0c-.31-.53-.15-1.15.58-1.67l1.24,2.14c-1.1.25-1.52,0-1.81-.45Z"/></g><g id="Group_8822" data-name="Group 8822"><g id="Group_8821" data-name="Group 8821"><path id="Path_4733" data-name="Path 4733" class="cls-3" d="M96.75,63.87a5.14,5.14,0,0,0-2.1.16L96,66.35c2.11-.6,3.31-.33,4.06,1v0c.77,1.32.23,2.8-1.22,3.84l.69,1.18L98.47,73l-.69-1.21a6.45,6.45,0,0,1-3.55.45l.13-1.56a5,5,0,0,0,2.74-.17L95.73,68.1c-2,.56-3.23.38-4-1l0,0c-.75-1.3-.23-2.77,1.21-3.78l-.41-.7L93.55,62l.41.73a5.53,5.53,0,0,1,2.81-.4Zm-1.86,2.78-1.24-2.14c-.73.52-.89,1.14-.58,1.67v0C93.37,66.7,93.79,66.9,94.89,66.65Zm1.93,1.13L98.09,70c.73-.53.93-1.15.6-1.73l0,0c-.31-.54-.76-.71-1.85-.45Z"/></g></g></g></g><path id="Path_4734" data-name="Path 4734" class="cls-2" d="M54.82,27.84l20.34,0,13.9,15.51h0L89,122.19l-68.5-.07.09-94.31,34.24,0"/><path id="Path_4735" data-name="Path 4735" class="cls-8" d="M75.16,27.87V43.36l13.91,0Z"/><g id="Group_8825" data-name="Group 8825"><path id="Path_4736" data-name="Path 4736" class="cls-9" d="M70.41,71.33H29.55a.92.92,0,1,1,0-1.84H70.41a.92.92,0,0,1,0,1.84Z"/><path id="Path_4737" data-name="Path 4737" class="cls-9" d="M70.41,77H29.55a.93.93,0,1,1,0-1.85H70.41a.93.93,0,0,1,0,1.85Z"/><path id="Path_4738" data-name="Path 4738" class="cls-9" d="M70.41,82.59H29.55a.93.93,0,1,1,0-1.85H70.41a.93.93,0,0,1,0,1.85Z"/><path id="Path_4739" data-name="Path 4739" class="cls-9" d="M61,88.22H29.55a.93.93,0,1,1,0-1.85H61a.93.93,0,0,1,0,1.85Z"/><path id="Path_4740" data-name="Path 4740" class="cls-9" d="M53.32,104.74H29.55a.93.93,0,1,1,0-1.85H53.32a.93.93,0,1,1,0,1.85Z"/><path id="Path_4741" data-name="Path 4741" class="cls-9" d="M61,110.37H29.55a.93.93,0,1,1,0-1.85H61a.93.93,0,0,1,0,1.85Z"/></g><g id="Group_8826" data-name="Group 8826"><path id="Path_4742" data-name="Path 4742" class="cls-9" d="M34.4,44.36c3,0,4.77,2.14,4.77,5.24v.1c0,3.1-1.8,5.24-4.77,5.24h-.08c-3,0-4.77-2.14-4.77-5.24v-.1c0-3.1,1.8-5.24,4.77-5.24ZM34.32,47c-1.21,0-1.78,1-1.78,2.67v.06c0,1.61.57,2.65,1.78,2.65h.08c1.23,0,1.78-1,1.78-2.65v-.06C36.18,48,35.63,47,34.4,47Zm1.52,12.57,8-14.84h3.2L39,59.52ZM48.56,49.26c3,0,4.77,2.14,4.77,5.23v.11c0,3.09-1.81,5.23-4.77,5.23h-.08c-3,0-4.77-2.14-4.77-5.23v-.11c0-3.09,1.8-5.23,4.77-5.23Zm-.08,2.61c-1.21,0-1.78,1-1.78,2.65v.06c0,1.63.57,2.67,1.78,2.67h.08c1.23,0,1.78-1,1.78-2.67v-.06c0-1.66-.57-2.65-1.78-2.65Z"/></g></g></g></svg>