<svg id="Layer_1" data-name="Layer 1" xmlns="http://www.w3.org/2000/svg" viewBox="0 0 96 96"><defs><style>.cls-1{fill:#0f3d70;}.cls-2{fill:#1a5387;}.cls-3{fill:#fff;}.cls-4{fill:#7ab4e2;}.cls-5{fill:#f4f5f8;}.cls-6{fill:#cfe6fa;}.cls-7{fill:#1b68b2;}.cls-8{opacity:0.4;}.cls-9{fill:#ea7923;}.cls-10{fill:#fc993f;}.cls-11{fill:#ce5f13;}.cls-12{fill:#b5500b;}.cls-13{fill:#f9b373;}.cls-14{fill:#f7c194;}</style></defs><title>clipboard-money copy</title><g id="Group_12193" data-name="Group 12193"><g id="Group_12164" data-name="Group 12164"><g id="Group_11544" data-name="Group 11544"><path id="Path_4783" data-name="Path 4783" class="cls-1" d="M52.68,11.56a13,13,0,0,0-4.76-2.23L48,16c5.31,1.29,7.59,3.37,7.61,7.1v.06c0,3.8-3,6.36-7.38,6.81l0,3.41-3,0,0-3.48a16.15,16.15,0,0,1-8.25-3.41l2.21-3.22a12.75,12.75,0,0,0,6.15,3l0-6.86c-5.09-1.29-7.47-3.16-7.49-7.1v-.07c0-3.73,2.91-6.29,7.27-6.7l0-2,3,0V5.66a13.72,13.72,0,0,1,6.57,2.61Zm-7.47,3.75,0-6.17c-2.23.23-3.33,1.38-3.32,2.91v0c0,1.46.68,2.39,3.36,3.21ZM48,20.13l0,6.34c2.23-.26,3.45-1.34,3.43-3v-.06c0-1.54-.78-2.48-3.46-3.26Z"/><g id="Group_11543" data-name="Group 11543"><g id="Group_8878" data-name="Group 8878"><path id="Path_4829" data-name="Path 4829" class="cls-1" d="M60,0l20.68,0L94.77,15.83h0L94.7,96,25,95.93,25.12,0,60,0"/><path id="Path_4830" data-name="Path 4830" class="cls-2" d="M80.64.05l0,15.77H94.77Z"/></g></g></g><g id="Group_11546" data-name="Group 11546"><path id="Path_4783-2" data-name="Path 4783-2" class="cls-3" d="M81,67.37a6.92,6.92,0,0,0-2.56-1.2l0,3.6c2.86.7,4.08,1.82,4.1,3.83v0c0,2.05-1.59,3.43-4,3.67v1.84H76.92V77.27a8.65,8.65,0,0,1-4.44-1.83l1.19-1.73A6.89,6.89,0,0,0,77,75.34l0-3.7c-2.74-.7-4-1.7-4-3.82v0c0-2,1.57-3.39,3.92-3.61V63.08h1.63V64.2A7.39,7.39,0,0,1,82,65.6Zm-4,2,0-3.32c-1.2.12-1.8.74-1.79,1.57v0c0,.78.36,1.29,1.81,1.73Zm1.5,2.6,0,3.41c1.2-.14,1.85-.72,1.85-1.62v0c0-.83-.42-1.33-1.87-1.75Z"/><path id="Path_4849" data-name="Path 4849" class="cls-3" d="M62.14,28.31h-30a1.36,1.36,0,0,1,0-2.72h30a1.36,1.36,0,0,1,0,2.72Z"/><path id="Path_4850" data-name="Path 4850" class="cls-3" d="M62.14,34.67h-30a1.36,1.36,0,0,1,0-2.72h30a1.36,1.36,0,0,1,0,2.72Z"/><path id="Path_4851" data-name="Path 4851" class="cls-3" d="M62.14,41h-30a1.36,1.36,0,1,1,0-2.72h30A1.36,1.36,0,0,1,62.2,41Z"/><path id="Path_4852" data-name="Path 4852" class="cls-3" d="M62.14,47.38h-30a1.36,1.36,0,0,1,0-2.72h30a1.36,1.36,0,0,1,0,2.72Z"/><path id="Path_4854" data-name="Path 4854" class="cls-3" d="M79.4,28.31H72.13a1.36,1.36,0,0,1,0-2.72H79.4a1.36,1.36,0,0,1,0,2.72Z"/><path id="Path_4855" data-name="Path 4855" class="cls-3" d="M79.4,34.67H72.13a1.36,1.36,0,1,1,0-2.72H79.4a1.36,1.36,0,0,1,0,2.72Z"/><path id="Path_4856" data-name="Path 4856" class="cls-3" d="M79.4,41H72.13a1.36,1.36,0,1,1,0-2.72H79.4a1.36,1.36,0,0,1,0,2.72Z"/><path id="Path_4857" data-name="Path 4857" class="cls-3" d="M79.4,47.38H72.13a1.36,1.36,0,1,1,0-2.72H79.4a1.36,1.36,0,0,1,0,2.72Z"/></g></g><g id="Group_12165" data-name="Group 12165"><g id="Group_12163" data-name="Group 12163"><g id="Group_12162" data-name="Group 12162"><g id="Group_3544" data-name="Group 3544"><g id="Group_3007" data-name="Group 3007"><g id="Group_3006" data-name="Group 3006"><g id="Group_3003" data-name="Group 3003"><rect id="Rectangle_1593" data-name="Rectangle 1593" class="cls-4" x="10.46" y="25.85" width="39.24" height="8.5"/><path id="Path_1141" data-name="Path 1141" class="cls-4" d="M59,78.38c0,9.56-8,17.33-18,17.33H19.22c-10-.07-18-7.77-18-17.33V48.9c0-9.57,8-17.33,18-17.33H40.93c10,0,18,7.76,18,17.33Z"/><path id="Path_1142" data-name="Path 1142" class="cls-5" d="M30.71,89.27h-9.3A14.11,14.11,0,0,1,7,75.47H7V51.88A14.1,14.1,0,0,1,21.39,38.07h8.12"/><path id="Path_1143" data-name="Path 1143" class="cls-6" d="M29.51,38h9.3A14.1,14.1,0,0,1,53.22,51.8V75.39A14.1,14.1,0,0,1,38.83,89.2H29.65"/></g><g id="Group_3005" data-name="Group 3005"><path id="Path_1144" data-name="Path 1144" class="cls-7" d="M54.7,25.54a4.91,4.91,0,0,1-4.89,4.91H10.54a4.89,4.89,0,0,1-4.91-4.89v0h0a4.85,4.85,0,0,1,4.78-4.92H49.78A5,5,0,0,1,54.7,25.54Z"/><g id="Group_3004" data-name="Group 3004" class="cls-8"><path id="Path_1145" data-name="Path 1145" class="cls-1" d="M30.67,28.85c0,.14-.27.2-.6.2h0c-.33,0-.6-.06-.6-.2v-6.5c0-.14.27-.2.6-.2h0c.33,0,.6.06.6.2Z"/><path id="Path_1146" data-name="Path 1146" class="cls-1" d="M33.59,28.85c0,.14-.27.2-.6.2h0c-.33,0-.6-.06-.6-.2v-6.5c0-.14.27-.2.6-.2h0c.34,0,.6.06.6.2Z"/><path id="Path_1147" data-name="Path 1147" class="cls-1" d="M36.58,28.85c0,.14-.27.2-.6.2h0c-.33,0-.6-.06-.6-.2v-6.5c0-.14.27-.2.6-.2h0c.33,0,.6.06.6.2Z"/><path id="Path_1148" data-name="Path 1148" class="cls-1" d="M39.37,28.85c0,.14-.27.2-.6.2h0c-.33,0-.6-.06-.6-.2v-6.5c0-.14.27-.2.6-.2h0c.33,0,.6.06.6.2Z"/><path id="Path_1149" data-name="Path 1149" class="cls-1" d="M42.35,28.85c0,.14-.26.2-.59.2h0c-.33,0-.6-.06-.6-.2v-6.5c0-.14.27-.2.6-.2h0c.33,0,.59.06.59.2Z"/><path id="Path_1150" data-name="Path 1150" class="cls-1" d="M45.34,28.85c0,.14-.26.2-.59.2h0c-.34,0-.6-.06-.6-.2v-6.5c0-.14.26-.2.6-.2h0c.33,0,.59.06.59.2Z"/><path id="Path_1151" data-name="Path 1151" class="cls-1" d="M48.2,28.85c0,.14-.27.2-.6.2h0c-.33,0-.6-.06-.6-.2v-6.5c0-.14.27-.2.6-.2h0c.33,0,.6.06.6.2Z"/><path id="Path_1152" data-name="Path 1152" class="cls-1" d="M51.19,28.85c0,.14-.27.2-.6.2h0c-.33,0-.6-.06-.6-.2v-6.5c0-.14.27-.2.6-.2h0c.33,0,.6.06.6.2Z"/><path id="Path_1153" data-name="Path 1153" class="cls-1" d="M10.15,28.85c0,.14-.26.2-.6.2h0c-.33,0-.59-.06-.59-.2v-6.5c0-.14.26-.2.59-.2h0c.34,0,.6.06.6.2Z"/><path id="Path_1154" data-name="Path 1154" class="cls-1" d="M13.14,28.85c0,.14-.27.2-.6.2h0c-.33,0-.6-.06-.6-.2v-6.5c0-.14.27-.2.6-.2h0c.33,0,.6.06.6.2Z"/><path id="Path_1155" data-name="Path 1155" class="cls-1" d="M16,28.85c0,.14-.26.2-.6.2h0c-.32,0-.59-.06-.59-.2v-6.5c0-.14.27-.2.6-.2h0c.33,0,.59.06.59.2Z"/><path id="Path_1156" data-name="Path 1156" class="cls-1" d="M19,28.85c0,.14-.26.2-.59.2h0c-.34,0-.6-.06-.6-.2v-6.5c0-.14.26-.2.59-.2h0c.33,0,.6.06.6.2Z"/><path id="Path_1157" data-name="Path 1157" class="cls-1" d="M21.9,28.85c0,.14-.26.2-.6.2h0c-.33,0-.59-.06-.59-.2v-6.5c0-.14.26-.2.6-.2h0c.33,0,.59.06.59.2Z"/><path id="Path_1158" data-name="Path 1158" class="cls-1" d="M24.82,28.85c0,.14-.26.2-.59.2h0c-.34,0-.6-.06-.6-.2v-6.5c0-.14.26-.2.6-.2h0c.33,0,.6.06.6.2Z"/><path id="Path_1159" data-name="Path 1159" class="cls-1" d="M27.75,28.85c0,.14-.27.2-.6.2h0c-.33,0-.6-.06-.6-.2v-6.5c0-.14.27-.2.6-.2h0c.33,0,.6.06.6.2Z"/></g></g></g></g></g><g id="Group_5427" data-name="Group 5427"><g id="Group_5426" data-name="Group 5426"><circle id="Ellipse_388" data-name="Ellipse 388" class="cls-9" cx="31.51" cy="55.26" r="10.89"/><circle id="Ellipse_389" data-name="Ellipse 389" class="cls-10" cx="30.38" cy="55.2" r="10.89"/><circle id="Ellipse_390" data-name="Ellipse 390" class="cls-11" cx="30.38" cy="55.2" r="7.97"/><path id="Path_2826" data-name="Path 2826" class="cls-12" d="M23,55.2a8,8,0,0,1,7.63-8h-.26a8,8,0,1,0-.19,15.94h.45A8,8,0,0,1,23,55.2Z"/><g id="Group_5425" data-name="Group 5425"><g id="Group_5424" data-name="Group 5424"><path id="Path_2827" data-name="Path 2827" class="cls-13" d="M22.21,58.92l-.86.86a.4.4,0,0,0-.07.46,11,11,0,0,0,1.46,2,.35.35,0,0,0,.48,0l.05,0,.87-.87a.41.41,0,0,0,0-.53A7,7,0,0,1,22.81,59C22.74,58.78,22.41,58.78,22.21,58.92Z"/><path id="Path_2828" data-name="Path 2828" class="cls-13" d="M36.69,49l.86-.86a.41.41,0,0,0,0-.53,10.88,10.88,0,0,0-2-1.47.41.41,0,0,0-.47.07l-.86.86a.38.38,0,0,0,0,.53.27.27,0,0,0,.08.07A7.19,7.19,0,0,1,36.15,49,.42.42,0,0,0,36.69,49Z"/><path id="Path_2829" data-name="Path 2829" class="cls-13" d="M38.48,49.29l-.86.86a.41.41,0,0,0-.07.47c.13.19.27.46.4.66a.37.37,0,0,0,.51.14l.09-.07.86-.87a.41.41,0,0,0,.07-.46,5,5,0,0,0-.47-.73.35.35,0,0,0-.48-.06Z"/><path id="Path_2830" data-name="Path 2830" class="cls-13" d="M26.52,62.7a5.52,5.52,0,0,1-.66-.4.41.41,0,0,0-.46.07l-.93.86a.37.37,0,0,0,0,.53.27.27,0,0,0,.08.07c.27.13.47.33.73.47a.43.43,0,0,0,.47-.07l.86-.86a.44.44,0,0,0,0-.63Z"/></g></g><path id="Path_2831" data-name="Path 2831" class="cls-12" d="M30.11,59.18c-.4-.06-.73-.13-1.06-.2a3.82,3.82,0,0,1-.93-.33l.4-1.26c.4.13.79.2,1.13.33a5.36,5.36,0,0,0,1.13.13,1.09,1.09,0,0,0,.85-.26.81.81,0,0,0,.34-.67.9.9,0,0,0-.13-.39c-.07-.14-.2-.2-.26-.34a3.1,3.1,0,0,0-.47-.26l-.6-.2c-.39-.13-.66-.27-1-.4a3,3,0,0,1-.73-.53,1.41,1.41,0,0,1-.47-.66,2,2,0,0,1-.2-.87,3.52,3.52,0,0,1,.13-.79,1.44,1.44,0,0,1,.4-.67,2.52,2.52,0,0,1,.66-.46,3.54,3.54,0,0,1,.87-.33v-1.4h1.59V51a1.59,1.59,0,0,1,.53.13l.47.13a1.36,1.36,0,0,0,.4.14,1.2,1.2,0,0,0,.33.13l-.33,1.26a3.5,3.5,0,0,1-.54-.2,1.53,1.53,0,0,0-.53-.13.7.7,0,0,1-.53,0c-.2,0-.33-.07-.53-.07a1.12,1.12,0,0,0-.86.27.73.73,0,0,0-.27.66.48.48,0,0,0,.07.33c.06.14.13.2.2.34s.26.19.39.26.34.13.6.27a4.73,4.73,0,0,1,1.2.46,2.42,2.42,0,0,1,1.26,1.2,3,3,0,0,1,.13.79,3,3,0,0,1-.13.79,1.36,1.36,0,0,1-.4.67,2.31,2.31,0,0,1-.66.46,3.37,3.37,0,0,1-.87.27v1.53H30.11Z"/><path id="Path_2832" data-name="Path 2832" class="cls-14" d="M33.1,56.06a1.41,1.41,0,0,0-.47-.66,2.24,2.24,0,0,0-.79-.53,10.88,10.88,0,0,0-1.19-.47,1.2,1.2,0,0,1-.6-.26c-.13-.07-.27-.2-.4-.27a.37.37,0,0,1-.2-.33.64.64,0,0,1-.07-.33.88.88,0,0,1,.27-.67,1.59,1.59,0,0,1,.66-.27h.2c.2,0,.33.07.53.07s.33.07.53.13.33.14.53.2h.54L33,51.41a.51.51,0,0,0-.34-.13.9.9,0,0,0-.39-.13c-.14-.07-.34-.07-.47-.13s-.33-.07-.53-.14V49.55H29.11V51a3.33,3.33,0,0,0-.86.33,6.08,6.08,0,0,0-.66.47,1.29,1.29,0,0,0-.4.66,3,3,0,0,0-.13.79,1.77,1.77,0,0,0,.2.87,2.31,2.31,0,0,0,.46.66,3,3,0,0,0,.73.53,7.19,7.19,0,0,0,1,.4l.59.2a1.06,1.06,0,0,1,.47.27.62.62,0,0,1,.26.33.91.91,0,0,1,.14.4.82.82,0,0,1-.34.66.94.94,0,0,1-.66.2,3.11,3.11,0,0,1-.8-.13A11.22,11.22,0,0,1,28,57.26h-.53l-.39,1.26a3.67,3.67,0,0,0,.93.33l1.06.2v1.46h2.12V59a3,3,0,0,0,.87-.26,2.34,2.34,0,0,0,.66-.47,1.4,1.4,0,0,0,.4-.66,3.52,3.52,0,0,0,.13-.79A3.7,3.7,0,0,0,33.1,56.06Z"/><path id="Path_2833" data-name="Path 2833" class="cls-10" d="M29.05,59.18c-.4-.06-.73-.13-1.06-.2a3.67,3.67,0,0,1-.93-.33l.39-1.26c.4.13.8.2,1.14.33a5.36,5.36,0,0,0,1.13.13,1.09,1.09,0,0,0,.85-.26.84.84,0,0,0,.34-.67.9.9,0,0,0-.13-.39c-.07-.14-.2-.2-.27-.34a2.59,2.59,0,0,0-.46-.26l-.6-.2c-.4-.13-.66-.27-1-.4a3.17,3.17,0,0,1-.73-.53,1.47,1.47,0,0,1-.46-.66,1.77,1.77,0,0,1-.2-.87,3,3,0,0,1,.13-.79,1.36,1.36,0,0,1,.4-.67,2.37,2.37,0,0,1,.66-.46,3.33,3.33,0,0,1,.86-.33v-1.4h1.6V51a1.65,1.65,0,0,1,.53.13l.46.13a1.47,1.47,0,0,0,.4.14,1.51,1.51,0,0,0,.33.13l-.33,1.26a3.39,3.39,0,0,1-.53-.2,1.65,1.65,0,0,0-.53-.13,1.36,1.36,0,0,0-.53-.07c-.2,0-.33-.07-.53-.07a1.14,1.14,0,0,0-.87.27.75.75,0,0,0-.26.66.45.45,0,0,0,.07.34c.06.13.13.19.19.33s.27.2.4.26.33.14.6.27a4.9,4.9,0,0,1,1.19.46,2.44,2.44,0,0,1,1.27,1.2,2.5,2.5,0,0,1,0,1.59,1.46,1.46,0,0,1-.4.66,2.56,2.56,0,0,1-.66.47,3.79,3.79,0,0,1-.87.26v1.54H29.05Z"/></g></g><g id="Group_5431" data-name="Group 5431"><g id="Group_5430" data-name="Group 5430"><circle id="Ellipse_391" data-name="Ellipse 391" class="cls-9" cx="22.21" cy="78.51" r="10.89"/><circle id="Ellipse_392" data-name="Ellipse 392" class="cls-10" cx="21.08" cy="78.44" r="10.89"/><circle id="Ellipse_393" data-name="Ellipse 393" class="cls-11" cx="21.08" cy="78.44" r="7.97"/><path id="Path_2834" data-name="Path 2834" class="cls-12" d="M13.71,78.44a8,8,0,0,1,7.64-8h-.27a8,8,0,0,0-.19,15.94h.46A8,8,0,0,1,13.71,78.44Z"/><g id="Group_5429" data-name="Group 5429"><g id="Group_5428" data-name="Group 5428"><path id="Path_2835" data-name="Path 2835" class="cls-13" d="M12.91,82.16l-.86.86a.41.41,0,0,0-.06.47,10.77,10.77,0,0,0,1.45,2,.35.35,0,0,0,.48,0l.05,0,.87-.87a.41.41,0,0,0,0-.53,7,7,0,0,1-1.33-1.86C13.44,82,13.11,82,12.91,82.16Z"/><path id="Path_2836" data-name="Path 2836" class="cls-13" d="M27.39,72.2l.86-.86a.41.41,0,0,0,0-.53,11,11,0,0,0-2-1.47.41.41,0,0,0-.47.07l-.86.86a.38.38,0,0,0,0,.53l.09.07a7.13,7.13,0,0,1,1.85,1.33A.42.42,0,0,0,27.39,72.2Z"/><path id="Path_2837" data-name="Path 2837" class="cls-13" d="M29.18,72.53l-.86.86a.43.43,0,0,0-.07.47c.14.2.27.46.4.66a.37.37,0,0,0,.51.14l.09-.07.86-.87a.39.39,0,0,0,.07-.46,4.32,4.32,0,0,0-.47-.73.34.34,0,0,0-.47-.06Z"/><path id="Path_2838" data-name="Path 2838" class="cls-13" d="M17.23,85.94a6.58,6.58,0,0,1-.67-.4.41.41,0,0,0-.46.07l-.93.86a.38.38,0,0,0,0,.53.31.31,0,0,0,.09.07c.26.13.46.33.73.47a.41.41,0,0,0,.46-.07l.86-.86a.44.44,0,0,0,0-.63Z"/></g></g><path id="Path_2839" data-name="Path 2839" class="cls-12" d="M20.81,82.42c-.39-.06-.73-.13-1.06-.2a4,4,0,0,1-.93-.33l.4-1.26c.4.13.79.2,1.13.33a5.54,5.54,0,0,0,1.14.13,1.11,1.11,0,0,0,.85-.26.82.82,0,0,0,.34-.66.91.91,0,0,0-.14-.4c-.06-.14-.2-.2-.26-.33a2.2,2.2,0,0,0-.47-.27l-.59-.2c-.4-.13-.67-.26-1-.4a3,3,0,0,1-.73-.53,1.47,1.47,0,0,1-.46-.66,1.89,1.89,0,0,1-.21-.87,3,3,0,0,1,.14-.79,1.27,1.27,0,0,1,.39-.66,2.39,2.39,0,0,1,.67-.47,3.33,3.33,0,0,1,.86-.33v-1.4h1.59v1.33a1.64,1.64,0,0,1,.54.13l.46.13a1.47,1.47,0,0,0,.4.14,1.2,1.2,0,0,0,.33.13L23.87,76a3.39,3.39,0,0,1-.53-.2,1.65,1.65,0,0,0-.53-.13.72.72,0,0,1-.54,0c-.2,0-.33-.07-.53-.07a1.13,1.13,0,0,0-.86.27.78.78,0,0,0-.27.66.54.54,0,0,0,.07.33c.07.14.13.2.2.34s.27.2.4.26.33.13.59.27a5.13,5.13,0,0,1,1.2.46,2.35,2.35,0,0,1,1.26,1.2,3.54,3.54,0,0,1,.14.79,3.63,3.63,0,0,1-.14.8,1.36,1.36,0,0,1-.39.66,2.35,2.35,0,0,1-.67.46,3.19,3.19,0,0,1-.86.27v1.53h-1.6Z"/><path id="Path_2840" data-name="Path 2840" class="cls-14" d="M23.8,79.3a1.47,1.47,0,0,0-.46-.66,2.38,2.38,0,0,0-.8-.53,10.14,10.14,0,0,0-1.19-.47,1.2,1.2,0,0,1-.6-.26c-.13-.07-.26-.2-.4-.27a.37.37,0,0,1-.2-.33.63.63,0,0,1-.06-.33.84.84,0,0,1,.26-.67,1.46,1.46,0,0,1,.66-.26h.2c.2,0,.33.06.53.06s.34.07.54.14.33.13.53.19h.53l.33-1.26a.51.51,0,0,0-.33-.13.94.94,0,0,0-.4-.13c-.13-.07-.33-.07-.47-.13s-.33-.07-.53-.14V72.8H19.82v1.39a3.54,3.54,0,0,0-.87.33,6.08,6.08,0,0,0-.66.47,1.46,1.46,0,0,0-.4.66,3.62,3.62,0,0,0-.13.79,1.77,1.77,0,0,0,.2.87,2.31,2.31,0,0,0,.46.66,2.9,2.9,0,0,0,.73.53,7.72,7.72,0,0,0,1,.4l.6.2a1.08,1.08,0,0,1,.46.27.63.63,0,0,1,.27.33.94.94,0,0,1,.13.4.79.79,0,0,1-.34.66.93.93,0,0,1-.66.2,3,3,0,0,1-.79-.13,10.68,10.68,0,0,1-1.14-.33h-.52l-.4,1.26a3.82,3.82,0,0,0,.93.33l1.06.2v1.46h2.13V82.22a2.94,2.94,0,0,0,.86-.26,2.21,2.21,0,0,0,.66-.47,1.22,1.22,0,0,0,.4-.66,3,3,0,0,0,.13-.79A3.1,3.1,0,0,0,23.8,79.3Z"/><path id="Path_2841" data-name="Path 2841" class="cls-10" d="M19.75,82.42c-.4-.06-.73-.13-1.06-.2a3.82,3.82,0,0,1-.93-.33l.4-1.26c.4.13.79.2,1.13.33a5.36,5.36,0,0,0,1.13.13,1.09,1.09,0,0,0,.85-.26.79.79,0,0,0,.34-.66.9.9,0,0,0-.13-.4c-.07-.14-.2-.2-.26-.33a2.48,2.48,0,0,0-.47-.27l-.6-.2c-.39-.13-.66-.26-1-.4a3,3,0,0,1-.73-.53,1.41,1.41,0,0,1-.47-.66,2,2,0,0,1-.2-.87,3.52,3.52,0,0,1,.13-.79,1.36,1.36,0,0,1,.4-.66,2.34,2.34,0,0,1,.66-.47,3.54,3.54,0,0,1,.87-.33v-1.4h1.59v1.33a1.59,1.59,0,0,1,.53.13l.47.13a1.36,1.36,0,0,0,.4.14,1.2,1.2,0,0,0,.33.13L22.81,76a3.5,3.5,0,0,1-.54-.2,1.53,1.53,0,0,0-.53-.13,1.36,1.36,0,0,0-.53-.07c-.2,0-.33-.07-.53-.07a1.12,1.12,0,0,0-.86.27.76.76,0,0,0-.27.66.5.5,0,0,0,.07.34c.07.13.13.2.2.33s.26.2.4.26.33.14.59.27a5.13,5.13,0,0,1,1.2.46,2.46,2.46,0,0,1,1.26,1.2,2.5,2.5,0,0,1,0,1.59,1.37,1.37,0,0,1-.4.66,2.56,2.56,0,0,1-.66.47,3.79,3.79,0,0,1-.87.26v1.54H19.75Z"/></g></g><g id="Group_5435" data-name="Group 5435"><g id="Group_5434" data-name="Group 5434"><circle id="Ellipse_394" data-name="Ellipse 394" class="cls-9" cx="38.14" cy="78.51" r="10.89"/><circle id="Ellipse_395" data-name="Ellipse 395" class="cls-10" cx="37.02" cy="78.44" r="10.89"/><circle id="Ellipse_396" data-name="Ellipse 396" class="cls-11" cx="37.02" cy="78.44" r="7.97"/><path id="Path_2842" data-name="Path 2842" class="cls-12" d="M29.65,78.44a8,8,0,0,1,7.63-8H37a8,8,0,1,0-.19,15.94h.45A8,8,0,0,1,29.65,78.44Z"/><g id="Group_5433" data-name="Group 5433"><g id="Group_5432" data-name="Group 5432"><path id="Path_2843" data-name="Path 2843" class="cls-13" d="M28.85,82.16,28,83a.41.41,0,0,0-.07.47,11.31,11.31,0,0,0,1.46,2,.35.35,0,0,0,.48,0l.05,0,.87-.87a.41.41,0,0,0,0-.53,7,7,0,0,1-1.33-1.86C29.38,82,29.05,82,28.85,82.16Z"/><path id="Path_2844" data-name="Path 2844" class="cls-13" d="M43.32,72.2l.87-.86a.41.41,0,0,0,0-.53,11.36,11.36,0,0,0-2-1.47.41.41,0,0,0-.47.07l-.86.86a.38.38,0,0,0,0,.53.27.27,0,0,0,.08.07,7.19,7.19,0,0,1,1.86,1.33A.41.41,0,0,0,43.32,72.2Z"/><path id="Path_2845" data-name="Path 2845" class="cls-13" d="M45.12,72.53l-.86.86a.41.41,0,0,0-.07.47c.13.2.27.46.4.66a.37.37,0,0,0,.51.14l.08-.07.87-.87a.41.41,0,0,0,.07-.46,5,5,0,0,0-.47-.73.35.35,0,0,0-.48-.06Z"/><path id="Path_2846" data-name="Path 2846" class="cls-13" d="M33.16,85.94a5.52,5.52,0,0,1-.66-.4.41.41,0,0,0-.46.07l-.93.86a.37.37,0,0,0,0,.53.27.27,0,0,0,.08.07c.27.13.47.33.73.47a.43.43,0,0,0,.47-.07l.86-.86a.44.44,0,0,0,0-.63Z"/></g></g><path id="Path_2847" data-name="Path 2847" class="cls-12" d="M36.75,82.42c-.4-.06-.73-.13-1.06-.2a3.82,3.82,0,0,1-.93-.33l.4-1.26c.39.13.79.2,1.13.33a5.36,5.36,0,0,0,1.13.13,1.09,1.09,0,0,0,.85-.26.79.79,0,0,0,.34-.66.9.9,0,0,0-.13-.4c-.07-.14-.2-.2-.26-.33a2.48,2.48,0,0,0-.47-.27l-.6-.2c-.39-.13-.66-.26-1-.4a3,3,0,0,1-.73-.53,1.41,1.41,0,0,1-.47-.66,2,2,0,0,1-.2-.87,3.52,3.52,0,0,1,.13-.79,1.36,1.36,0,0,1,.4-.66,2.34,2.34,0,0,1,.66-.47,3.54,3.54,0,0,1,.87-.33v-1.4h1.59v1.33a1.65,1.65,0,0,1,.53.13l.47.13a1.36,1.36,0,0,0,.4.14,1.2,1.2,0,0,0,.33.13L39.81,76a3.5,3.5,0,0,1-.54-.2,1.53,1.53,0,0,0-.53-.13.7.7,0,0,1-.53,0c-.2,0-.33-.07-.53-.07a1.12,1.12,0,0,0-.86.27.73.73,0,0,0-.27.66.48.48,0,0,0,.07.33c.06.14.13.2.2.34s.26.2.39.26.34.13.6.27a5.13,5.13,0,0,1,1.2.46,2.42,2.42,0,0,1,1.26,1.2,3,3,0,0,1,.13.79,3.11,3.11,0,0,1-.13.8,1.37,1.37,0,0,1-.4.66,2.31,2.31,0,0,1-.66.46,3.37,3.37,0,0,1-.87.27v1.53H36.75Z"/><path id="Path_2848" data-name="Path 2848" class="cls-14" d="M39.74,79.3a1.41,1.41,0,0,0-.47-.66,2.24,2.24,0,0,0-.79-.53,10.88,10.88,0,0,0-1.19-.47,1.2,1.2,0,0,1-.6-.26c-.13-.07-.27-.2-.4-.27a.37.37,0,0,1-.2-.33.64.64,0,0,1-.07-.33.88.88,0,0,1,.27-.67,1.46,1.46,0,0,1,.66-.26h.2c.2,0,.33.06.53.06s.33.07.53.14.33.13.53.19h.54l.33-1.26a.51.51,0,0,0-.34-.13.9.9,0,0,0-.39-.13c-.14-.07-.34-.07-.47-.13s-.33-.07-.53-.14V72.8H35.75v1.39a3.33,3.33,0,0,0-.86.33,6.08,6.08,0,0,0-.66.47,1.37,1.37,0,0,0-.4.66,3.11,3.11,0,0,0-.13.79,1.77,1.77,0,0,0,.2.87,2.31,2.31,0,0,0,.46.66,2.73,2.73,0,0,0,.73.53,7.19,7.19,0,0,0,1,.4l.59.2a1.06,1.06,0,0,1,.47.27.62.62,0,0,1,.26.33,1,1,0,0,1,.14.4.82.82,0,0,1-.34.66.94.94,0,0,1-.66.2,3.11,3.11,0,0,1-.8-.13,11.22,11.22,0,0,1-1.13-.33h-.53l-.39,1.26a3.67,3.67,0,0,0,.93.33l1.06.2v1.46h2.12V82.22a3,3,0,0,0,.87-.26,2.34,2.34,0,0,0,.66-.47,1.36,1.36,0,0,0,.4-.66,3.52,3.52,0,0,0,.13-.79A3.7,3.7,0,0,0,39.74,79.3Z"/><path id="Path_2849" data-name="Path 2849" class="cls-10" d="M35.69,82.42c-.4-.06-.73-.13-1.06-.2a3.67,3.67,0,0,1-.93-.33l.39-1.26c.4.13.8.2,1.14.33a5.36,5.36,0,0,0,1.13.13,1.09,1.09,0,0,0,.85-.26.82.82,0,0,0,.34-.66.9.9,0,0,0-.13-.4c-.07-.14-.2-.2-.27-.33a2.13,2.13,0,0,0-.46-.27l-.6-.2c-.4-.13-.66-.26-1-.4a3.17,3.17,0,0,1-.73-.53,1.47,1.47,0,0,1-.46-.66,1.77,1.77,0,0,1-.2-.87,3,3,0,0,1,.13-.79,1.29,1.29,0,0,1,.4-.66,2.21,2.21,0,0,1,.66-.47,3.33,3.33,0,0,1,.86-.33v-1.4h1.6v1.33a1.65,1.65,0,0,1,.53.13l.46.13a1.47,1.47,0,0,0,.4.14,1.51,1.51,0,0,0,.33.13L38.74,76a3.39,3.39,0,0,1-.53-.2,1.65,1.65,0,0,0-.53-.13,1.36,1.36,0,0,0-.53-.07c-.2,0-.33-.07-.53-.07a1.14,1.14,0,0,0-.87.27.75.75,0,0,0-.26.66.5.5,0,0,0,.06.34c.07.13.14.2.2.33s.27.2.4.26.33.14.6.27a4.9,4.9,0,0,1,1.19.46,2.44,2.44,0,0,1,1.27,1.2,2.5,2.5,0,0,1,0,1.59,1.46,1.46,0,0,1-.4.66,2.45,2.45,0,0,1-.67.47,3.57,3.57,0,0,1-.86.26v1.54H35.69Z"/></g></g><g id="Group_5439" data-name="Group 5439"><g id="Group_5438" data-name="Group 5438"><circle id="Ellipse_397" data-name="Ellipse 397" class="cls-9" cx="24.87" cy="65.22" r="10.89"/><circle id="Ellipse_398" data-name="Ellipse 398" class="cls-10" cx="23.74" cy="65.16" r="10.89"/><circle id="Ellipse_399" data-name="Ellipse 399" class="cls-11" cx="23.74" cy="65.16" r="7.97"/><path id="Path_2850" data-name="Path 2850" class="cls-12" d="M16.37,65.16a8,8,0,0,1,7.63-8h-.26a8,8,0,1,0-.19,15.94H24A8,8,0,0,1,16.37,65.16Z"/><g id="Group_5437" data-name="Group 5437"><g id="Group_5436" data-name="Group 5436"><path id="Path_2851" data-name="Path 2851" class="cls-13" d="M15.57,68.88l-.86.86a.4.4,0,0,0-.07.46,11,11,0,0,0,1.46,2,.35.35,0,0,0,.48,0s0,0,.05,0l.87-.87a.41.41,0,0,0,0-.53,7,7,0,0,1-1.33-1.86C16.1,68.74,15.77,68.74,15.57,68.88Z"/><path id="Path_2852" data-name="Path 2852" class="cls-13" d="M30.05,58.92l.86-.86a.41.41,0,0,0,0-.53,10.88,10.88,0,0,0-2-1.47.41.41,0,0,0-.47.07l-.86.86a.38.38,0,0,0,0,.53.27.27,0,0,0,.08.07,7.19,7.19,0,0,1,1.86,1.33A.42.42,0,0,0,30.05,58.92Z"/><path id="Path_2853" data-name="Path 2853" class="cls-13" d="M31.84,59.25l-.86.86a.41.41,0,0,0-.07.47c.13.19.27.46.4.66a.37.37,0,0,0,.51.14l.09-.07.86-.87a.41.41,0,0,0,.07-.46,5,5,0,0,0-.47-.73.35.35,0,0,0-.48-.06Z"/><path id="Path_2854" data-name="Path 2854" class="cls-13" d="M19.88,72.66a5.52,5.52,0,0,1-.66-.4.41.41,0,0,0-.46.07l-.93.86a.37.37,0,0,0,0,.53.27.27,0,0,0,.08.07c.27.13.47.33.73.47a.43.43,0,0,0,.47-.07l.86-.86a.44.44,0,0,0,0-.63Z"/></g></g><path id="Path_2855" data-name="Path 2855" class="cls-12" d="M23.47,69.14c-.4-.06-.73-.13-1.06-.2a3.82,3.82,0,0,1-.93-.33l.4-1.26c.4.13.79.2,1.13.33a5.36,5.36,0,0,0,1.13.13,1.09,1.09,0,0,0,.85-.26.81.81,0,0,0,.34-.67.9.9,0,0,0-.13-.39c-.07-.14-.2-.2-.26-.34a3.1,3.1,0,0,0-.47-.26l-.6-.2c-.39-.13-.66-.27-1-.4a3,3,0,0,1-.73-.53,1.41,1.41,0,0,1-.47-.66,2,2,0,0,1-.2-.87,3.52,3.52,0,0,1,.13-.79,1.44,1.44,0,0,1,.4-.67,2.52,2.52,0,0,1,.66-.46,3.54,3.54,0,0,1,.87-.33v-1.4h1.59v1.33a1.53,1.53,0,0,1,.53.13l.47.13a1.36,1.36,0,0,0,.4.14,1.2,1.2,0,0,0,.33.13l-.33,1.26a3.5,3.5,0,0,1-.54-.2,1.53,1.53,0,0,0-.53-.13.7.7,0,0,1-.53,0c-.2,0-.33-.07-.53-.07a1.12,1.12,0,0,0-.86.27.73.73,0,0,0-.27.66.48.48,0,0,0,.07.33c.06.14.13.2.2.34s.26.19.39.26.34.13.6.27a4.73,4.73,0,0,1,1.2.46A2.42,2.42,0,0,1,27,66.09a3,3,0,0,1,.13.79,3,3,0,0,1-.13.79,1.36,1.36,0,0,1-.4.67,2.31,2.31,0,0,1-.66.46,3.37,3.37,0,0,1-.87.27V70.6H23.47Z"/><path id="Path_2856" data-name="Path 2856" class="cls-14" d="M26.46,66a1.41,1.41,0,0,0-.47-.66,2.24,2.24,0,0,0-.79-.53A10.88,10.88,0,0,0,24,64.36a1.2,1.2,0,0,1-.6-.26c-.13-.07-.27-.2-.4-.27a.37.37,0,0,1-.2-.33.64.64,0,0,1-.07-.33A.88.88,0,0,1,23,62.5a1.59,1.59,0,0,1,.66-.27h.2c.2,0,.33.07.53.07s.33.07.53.13.33.14.53.2H26l.33-1.26a.51.51,0,0,0-.34-.13.9.9,0,0,0-.39-.13c-.14-.07-.34-.07-.47-.13s-.33-.07-.53-.14V59.51H22.47v1.4a3.33,3.33,0,0,0-.86.33,6.08,6.08,0,0,0-.66.47,1.29,1.29,0,0,0-.4.66,3,3,0,0,0-.13.79,1.77,1.77,0,0,0,.2.87,2.31,2.31,0,0,0,.46.66,3.17,3.17,0,0,0,.73.53,7.19,7.19,0,0,0,1,.4l.59.2a1.06,1.06,0,0,1,.47.27.62.62,0,0,1,.26.33.91.91,0,0,1,.14.4.82.82,0,0,1-.34.66.94.94,0,0,1-.66.2,3.11,3.11,0,0,1-.8-.13,11.22,11.22,0,0,1-1.13-.33h-.53l-.39,1.26a3.67,3.67,0,0,0,.93.33l1.06.2v1.46h2.12V68.94a3,3,0,0,0,.87-.26,2.34,2.34,0,0,0,.66-.47,1.4,1.4,0,0,0,.4-.66,3.52,3.52,0,0,0,.13-.79A3.7,3.7,0,0,0,26.46,66Z"/><path id="Path_2857" data-name="Path 2857" class="cls-10" d="M22.41,69.14c-.4-.06-.73-.13-1.06-.2a3.67,3.67,0,0,1-.93-.33l.39-1.26c.4.13.8.2,1.14.33a5.36,5.36,0,0,0,1.13.13,1.09,1.09,0,0,0,.85-.26.84.84,0,0,0,.34-.67.9.9,0,0,0-.13-.39c-.07-.14-.2-.2-.27-.34a2.59,2.59,0,0,0-.46-.26l-.6-.2c-.4-.13-.66-.27-1-.4a3.17,3.17,0,0,1-.73-.53,1.47,1.47,0,0,1-.46-.66,1.77,1.77,0,0,1-.2-.87,3,3,0,0,1,.13-.79,1.36,1.36,0,0,1,.4-.67,2.37,2.37,0,0,1,.66-.46,3.33,3.33,0,0,1,.86-.33v-1.4h1.6v1.33a1.65,1.65,0,0,1,.53.13l.46.13a1.47,1.47,0,0,0,.4.14,1.51,1.51,0,0,0,.33.13l-.33,1.26a3.39,3.39,0,0,1-.53-.2,1.65,1.65,0,0,0-.53-.13,1.36,1.36,0,0,0-.53-.07c-.2,0-.33-.07-.53-.07a1.14,1.14,0,0,0-.87.27.75.75,0,0,0-.26.66.45.45,0,0,0,.07.34c.06.13.13.19.19.33s.27.2.4.26l.6.27a4.9,4.9,0,0,1,1.19.46A2.44,2.44,0,0,1,25.93,66a2.5,2.5,0,0,1,0,1.59,1.46,1.46,0,0,1-.4.66,2.56,2.56,0,0,1-.66.47A3.79,3.79,0,0,1,24,69v1.54H22.41Z"/></g></g><g id="Group_5443" data-name="Group 5443"><g id="Group_5442" data-name="Group 5442"><circle id="Ellipse_400" data-name="Ellipse 400" class="cls-9" cx="42.13" cy="67.88" r="10.89"/><circle id="Ellipse_401" data-name="Ellipse 401" class="cls-10" cx="41" cy="67.81" r="10.89"/><circle id="Ellipse_402" data-name="Ellipse 402" class="cls-11" cx="41" cy="67.81" r="7.97"/><path id="Path_2858" data-name="Path 2858" class="cls-12" d="M33.63,67.81a8,8,0,0,1,7.64-8H41a8,8,0,0,0,0,15.93h.27A8,8,0,0,1,33.63,67.81Z"/><g id="Group_5441" data-name="Group 5441"><g id="Group_5440" data-name="Group 5440"><path id="Path_2859" data-name="Path 2859" class="cls-13" d="M32.83,71.53,32,72.4a.41.41,0,0,0-.06.46,10.57,10.57,0,0,0,1.45,2,.35.35,0,0,0,.48.06l.06-.06.86-.86a.41.41,0,0,0,0-.53,7.36,7.36,0,0,1-1.33-1.86C33.36,71.4,33,71.4,32.83,71.53Z"/><path id="Path_2860" data-name="Path 2860" class="cls-13" d="M47.31,61.57l.86-.86a.41.41,0,0,0,0-.53,10.62,10.62,0,0,0-2-1.46.39.39,0,0,0-.46.07l-.87.86a.38.38,0,0,0,0,.53l.09.06a7.38,7.38,0,0,1,1.85,1.33A.4.4,0,0,0,47.31,61.57Z"/><path id="Path_2861" data-name="Path 2861" class="cls-13" d="M49.1,61.9l-.86.87a.41.41,0,0,0-.07.46c.14.2.27.47.4.67a.38.38,0,0,0,.51.13.31.31,0,0,0,.09-.07L50,63.1a.41.41,0,0,0,.07-.47,5.58,5.58,0,0,0-.46-.73.35.35,0,0,0-.48,0Z"/><path id="Path_2862" data-name="Path 2862" class="cls-13" d="M37.15,75.32a6.58,6.58,0,0,1-.67-.4A.39.39,0,0,0,36,75l-.93.86a.38.38,0,0,0,0,.53l.09.07c.26.13.46.33.73.46a.39.39,0,0,0,.46-.07l.87-.86a.44.44,0,0,0,0-.62Z"/></g></g><path id="Path_2863" data-name="Path 2863" class="cls-12" d="M40.73,71.8l-1.06-.2a4,4,0,0,1-.93-.33l.4-1.27c.4.14.79.2,1.13.34a6.32,6.32,0,0,0,1.14.13,1.11,1.11,0,0,0,.85-.27.82.82,0,0,0,.34-.66,1,1,0,0,0-.14-.4c-.06-.13-.19-.2-.26-.33a3.59,3.59,0,0,0-.47-.27l-.59-.19c-.4-.14-.67-.27-1-.4a3.17,3.17,0,0,1-.73-.53,1.55,1.55,0,0,1-.46-.67,1.85,1.85,0,0,1-.21-.86,3.63,3.63,0,0,1,.14-.8,1.36,1.36,0,0,1,.39-.66,2.35,2.35,0,0,1,.67-.46,3.35,3.35,0,0,1,.86-.34V62.24h1.6v1.32a1.67,1.67,0,0,1,.53.14,4,4,0,0,1,.46.13,1.44,1.44,0,0,0,.4.13,1,1,0,0,0,.33.13l-.33,1.27-.53-.2a1.67,1.67,0,0,0-.53-.14.72.72,0,0,1-.54,0c-.19,0-.33-.06-.53-.06a1.12,1.12,0,0,0-.86.26.82.82,0,0,0-.27.67.55.55,0,0,0,.07.33c.07.13.13.2.2.33s.27.2.4.27.33.13.6.26a4.84,4.84,0,0,1,1.19.47,2.33,2.33,0,0,1,1.26,1.19,3.12,3.12,0,0,1,.14.8,3,3,0,0,1-.14.79,1.31,1.31,0,0,1-.39.66,2.39,2.39,0,0,1-.67.47,2.86,2.86,0,0,1-.86.26v1.54h-1.6Z"/><path id="Path_2864" data-name="Path 2864" class="cls-14" d="M43.72,68.68a1.55,1.55,0,0,0-.46-.67,2.38,2.38,0,0,0-.8-.53A9.45,9.45,0,0,0,41.27,67a1.31,1.31,0,0,1-.6-.27c-.13-.07-.26-.2-.4-.26a.37.37,0,0,1-.19-.34.54.54,0,0,1-.07-.33.85.85,0,0,1,.26-.66,1.65,1.65,0,0,1,.66-.27h.2c.2,0,.33.07.53.07s.34.06.54.13l.53.2h.53L43.59,64a.51.51,0,0,0-.33-.13,1,1,0,0,0-.4-.14c-.13-.06-.33-.06-.46-.13s-.34-.07-.54-.13V62.17H39.74v1.39a3.57,3.57,0,0,0-.87.34,6,6,0,0,0-.66.46,1.44,1.44,0,0,0-.4.67,3.43,3.43,0,0,0-.13.79,1.81,1.81,0,0,0,.2.86,2.58,2.58,0,0,0,.46.67,3.4,3.4,0,0,0,.73.53,9.47,9.47,0,0,0,1,.4l.6.2a1,1,0,0,1,.46.26.66.66,0,0,1,.27.33.94.94,0,0,1,.13.4.82.82,0,0,1-.34.67,1,1,0,0,1-.66.2,3.43,3.43,0,0,1-.79-.13,8.81,8.81,0,0,1-1.14-.34h-.52l-.4,1.26a3.82,3.82,0,0,0,.93.33l1.06.2v1.47H41.8V71.6a3.19,3.19,0,0,0,.86-.27,2.18,2.18,0,0,0,.66-.46,1.3,1.3,0,0,0,.4-.66,2.16,2.16,0,0,0,0-1.53Z"/><path id="Path_2865" data-name="Path 2865" class="cls-10" d="M39.67,71.8l-1.06-.2a3.82,3.82,0,0,1-.93-.33l.4-1.27c.4.14.79.2,1.13.34a6.12,6.12,0,0,0,1.14.13,1.09,1.09,0,0,0,.84-.27.79.79,0,0,0,.34-.66.94.94,0,0,0-.13-.4c-.07-.13-.2-.2-.26-.33a4.39,4.39,0,0,0-.47-.27l-.6-.19c-.39-.14-.66-.27-1-.4a3,3,0,0,1-.73-.53,1.58,1.58,0,0,1-.47-.67,2,2,0,0,1-.2-.86,3.61,3.61,0,0,1,.13-.8,1.46,1.46,0,0,1,.4-.66,2.31,2.31,0,0,1,.66-.46,3.57,3.57,0,0,1,.87-.34V62.24h1.59v1.32a1.54,1.54,0,0,1,.53.14,3.62,3.62,0,0,1,.47.13,1.34,1.34,0,0,0,.4.13,1,1,0,0,0,.33.13l-.33,1.27-.54-.2a1.54,1.54,0,0,0-.53-.14,1.57,1.57,0,0,0-.53-.06c-.2,0-.33-.07-.53-.07a1.12,1.12,0,0,0-.86.26.82.82,0,0,0-.27.67.55.55,0,0,0,.07.33c.07.13.13.2.2.33s.26.2.4.27.33.13.59.26a5.16,5.16,0,0,1,1.2.47,2.31,2.31,0,0,1,1.26,1.2,3,3,0,0,1,.13.79,3,3,0,0,1-.13.79,1.36,1.36,0,0,1-.4.67,2.18,2.18,0,0,1-.66.46,3.43,3.43,0,0,1-.86.27v1.53h-1.6Z"/></g></g><g id="Group_5447" data-name="Group 5447"><g id="Group_5446" data-name="Group 5446"><circle id="Ellipse_403" data-name="Ellipse 403" class="cls-9" cx="22.21" cy="78.51" r="10.89"/><circle id="Ellipse_404" data-name="Ellipse 404" class="cls-10" cx="21.08" cy="78.44" r="10.89"/><circle id="Ellipse_405" data-name="Ellipse 405" class="cls-11" cx="21.08" cy="78.44" r="7.97"/><path id="Path_2866" data-name="Path 2866" class="cls-12" d="M13.71,78.44a8,8,0,0,1,7.64-8h-.27a8,8,0,0,0-.19,15.94h.46A8,8,0,0,1,13.71,78.44Z"/><g id="Group_5445" data-name="Group 5445"><g id="Group_5444" data-name="Group 5444"><path id="Path_2867" data-name="Path 2867" class="cls-13" d="M12.91,82.16l-.86.86a.41.41,0,0,0-.06.47,10.77,10.77,0,0,0,1.45,2,.35.35,0,0,0,.48,0l.05,0,.87-.87a.41.41,0,0,0,0-.53,7,7,0,0,1-1.33-1.86C13.44,82,13.11,82,12.91,82.16Z"/><path id="Path_2868" data-name="Path 2868" class="cls-13" d="M27.39,72.2l.86-.86a.41.41,0,0,0,0-.53,11,11,0,0,0-2-1.47.41.41,0,0,0-.47.07l-.86.86a.38.38,0,0,0,0,.53l.09.07a7.13,7.13,0,0,1,1.85,1.33A.42.42,0,0,0,27.39,72.2Z"/><path id="Path_2869" data-name="Path 2869" class="cls-13" d="M29.18,72.53l-.86.86a.43.43,0,0,0-.07.47c.14.2.27.46.4.66a.37.37,0,0,0,.51.14l.09-.07.86-.87a.39.39,0,0,0,.07-.46,4.32,4.32,0,0,0-.47-.73.34.34,0,0,0-.47-.06Z"/><path id="Path_2870" data-name="Path 2870" class="cls-13" d="M17.23,85.94a6.58,6.58,0,0,1-.67-.4.41.41,0,0,0-.46.07l-.93.86a.38.38,0,0,0,0,.53.31.31,0,0,0,.09.07c.26.13.46.33.73.47a.41.41,0,0,0,.46-.07l.86-.86a.44.44,0,0,0,0-.63Z"/></g></g><path id="Path_2871" data-name="Path 2871" class="cls-12" d="M20.81,82.42c-.39-.06-.73-.13-1.06-.2a4,4,0,0,1-.93-.33l.4-1.26c.4.13.79.2,1.13.33a5.54,5.54,0,0,0,1.14.13,1.11,1.11,0,0,0,.85-.26.82.82,0,0,0,.34-.66.91.91,0,0,0-.14-.4c-.06-.14-.2-.2-.26-.33a2.2,2.2,0,0,0-.47-.27l-.59-.2c-.4-.13-.67-.26-1-.4a3,3,0,0,1-.73-.53,1.47,1.47,0,0,1-.46-.66,1.89,1.89,0,0,1-.21-.87,3,3,0,0,1,.14-.79,1.27,1.27,0,0,1,.39-.66,2.39,2.39,0,0,1,.67-.47,3.33,3.33,0,0,1,.86-.33v-1.4h1.59v1.33a1.64,1.64,0,0,1,.54.13l.46.13a1.47,1.47,0,0,0,.4.14,1.2,1.2,0,0,0,.33.13L23.87,76a3.39,3.39,0,0,1-.53-.2,1.65,1.65,0,0,0-.53-.13.72.72,0,0,1-.54,0c-.2,0-.33-.07-.53-.07a1.13,1.13,0,0,0-.86.27.78.78,0,0,0-.27.66.54.54,0,0,0,.07.33c.07.14.13.2.2.34s.27.2.4.26.33.13.59.27a5.13,5.13,0,0,1,1.2.46,2.35,2.35,0,0,1,1.26,1.2,3.54,3.54,0,0,1,.14.79,3.63,3.63,0,0,1-.14.8,1.36,1.36,0,0,1-.39.66,2.35,2.35,0,0,1-.67.46,3.19,3.19,0,0,1-.86.27v1.53h-1.6Z"/><path id="Path_2872" data-name="Path 2872" class="cls-14" d="M23.8,79.3a1.47,1.47,0,0,0-.46-.66,2.38,2.38,0,0,0-.8-.53,10.14,10.14,0,0,0-1.19-.47,1.2,1.2,0,0,1-.6-.26c-.13-.07-.26-.2-.4-.27a.37.37,0,0,1-.2-.33.63.63,0,0,1-.06-.33.84.84,0,0,1,.26-.67,1.46,1.46,0,0,1,.66-.26h.2c.2,0,.33.06.53.06s.34.07.54.14.33.13.53.19h.53l.33-1.26a.51.51,0,0,0-.33-.13.94.94,0,0,0-.4-.13c-.13-.07-.33-.07-.47-.13s-.33-.07-.53-.14V72.8H19.82v1.39a3.54,3.54,0,0,0-.87.33,6.08,6.08,0,0,0-.66.47,1.46,1.46,0,0,0-.4.66,3.62,3.62,0,0,0-.13.79,1.77,1.77,0,0,0,.2.87,2.31,2.31,0,0,0,.46.66,2.9,2.9,0,0,0,.73.53,7.72,7.72,0,0,0,1,.4l.6.2a1.08,1.08,0,0,1,.46.27.63.63,0,0,1,.27.33.94.94,0,0,1,.13.4.79.79,0,0,1-.34.66.93.93,0,0,1-.66.2,3,3,0,0,1-.79-.13,10.68,10.68,0,0,1-1.14-.33h-.52l-.4,1.26a3.82,3.82,0,0,0,.93.33l1.06.2v1.46h2.13V82.22a2.94,2.94,0,0,0,.86-.26,2.21,2.21,0,0,0,.66-.47,1.22,1.22,0,0,0,.4-.66,3,3,0,0,0,.13-.79A3.1,3.1,0,0,0,23.8,79.3Z"/><path id="Path_2873" data-name="Path 2873" class="cls-10" d="M19.75,82.42c-.4-.06-.73-.13-1.06-.2a3.82,3.82,0,0,1-.93-.33l.4-1.26c.4.13.79.2,1.13.33a5.36,5.36,0,0,0,1.13.13,1.09,1.09,0,0,0,.85-.26.79.79,0,0,0,.34-.66.9.9,0,0,0-.13-.4c-.07-.14-.2-.2-.26-.33a2.48,2.48,0,0,0-.47-.27l-.6-.2c-.39-.13-.66-.26-1-.4a3,3,0,0,1-.73-.53,1.41,1.41,0,0,1-.47-.66,2,2,0,0,1-.2-.87,3.52,3.52,0,0,1,.13-.79,1.36,1.36,0,0,1,.4-.66,2.34,2.34,0,0,1,.66-.47,3.54,3.54,0,0,1,.87-.33v-1.4h1.59v1.33a1.59,1.59,0,0,1,.53.13l.47.13a1.36,1.36,0,0,0,.4.14,1.2,1.2,0,0,0,.33.13L22.81,76a3.5,3.5,0,0,1-.54-.2,1.53,1.53,0,0,0-.53-.13,1.36,1.36,0,0,0-.53-.07c-.2,0-.33-.07-.53-.07a1.12,1.12,0,0,0-.86.27.76.76,0,0,0-.27.66.5.5,0,0,0,.07.34c.07.13.13.2.2.33s.26.2.4.26.33.14.59.27a5.13,5.13,0,0,1,1.2.46,2.46,2.46,0,0,1,1.26,1.2,2.5,2.5,0,0,1,0,1.59,1.37,1.37,0,0,1-.4.66,2.56,2.56,0,0,1-.66.47,3.79,3.79,0,0,1-.87.26v1.54H19.75Z"/></g></g><g id="Group_5451" data-name="Group 5451"><g id="Group_5450" data-name="Group 5450"><circle id="Ellipse_406" data-name="Ellipse 406" class="cls-9" cx="38.14" cy="78.51" r="10.89"/><circle id="Ellipse_407" data-name="Ellipse 407" class="cls-10" cx="37.02" cy="78.44" r="10.89"/><circle id="Ellipse_408" data-name="Ellipse 408" class="cls-11" cx="37.02" cy="78.44" r="7.97"/><path id="Path_2874" data-name="Path 2874" class="cls-12" d="M29.65,78.44a8,8,0,0,1,7.63-8H37a8,8,0,1,0-.19,15.94h.45A8,8,0,0,1,29.65,78.44Z"/><g id="Group_5449" data-name="Group 5449"><g id="Group_5448" data-name="Group 5448"><path id="Path_2875" data-name="Path 2875" class="cls-13" d="M28.85,82.16,28,83a.41.41,0,0,0-.07.47,11.31,11.31,0,0,0,1.46,2,.35.35,0,0,0,.48,0l.05,0,.87-.87a.41.41,0,0,0,0-.53,7,7,0,0,1-1.33-1.86C29.38,82,29.05,82,28.85,82.16Z"/><path id="Path_2876" data-name="Path 2876" class="cls-13" d="M43.32,72.2l.87-.86a.41.41,0,0,0,0-.53,11.36,11.36,0,0,0-2-1.47.41.41,0,0,0-.47.07l-.86.86a.38.38,0,0,0,0,.53.27.27,0,0,0,.08.07,7.19,7.19,0,0,1,1.86,1.33A.41.41,0,0,0,43.32,72.2Z"/><path id="Path_2877" data-name="Path 2877" class="cls-13" d="M45.12,72.53l-.86.86a.41.41,0,0,0-.07.47c.13.2.27.46.4.66a.37.37,0,0,0,.51.14l.08-.07.87-.87a.41.41,0,0,0,.07-.46,5,5,0,0,0-.47-.73.35.35,0,0,0-.48-.06Z"/><path id="Path_2878" data-name="Path 2878" class="cls-13" d="M33.16,85.94a5.52,5.52,0,0,1-.66-.4.41.41,0,0,0-.46.07l-.93.86a.37.37,0,0,0,0,.53.27.27,0,0,0,.08.07c.27.13.47.33.73.47a.43.43,0,0,0,.47-.07l.86-.86a.44.44,0,0,0,0-.63Z"/></g></g><path id="Path_2879" data-name="Path 2879" class="cls-12" d="M36.75,82.42c-.4-.06-.73-.13-1.06-.2a3.82,3.82,0,0,1-.93-.33l.4-1.26c.39.13.79.2,1.13.33a5.36,5.36,0,0,0,1.13.13,1.09,1.09,0,0,0,.85-.26.79.79,0,0,0,.34-.66.9.9,0,0,0-.13-.4c-.07-.14-.2-.2-.26-.33a2.48,2.48,0,0,0-.47-.27l-.6-.2c-.39-.13-.66-.26-1-.4a3,3,0,0,1-.73-.53,1.41,1.41,0,0,1-.47-.66,2,2,0,0,1-.2-.87,3.52,3.52,0,0,1,.13-.79,1.36,1.36,0,0,1,.4-.66,2.34,2.34,0,0,1,.66-.47,3.54,3.54,0,0,1,.87-.33v-1.4h1.59v1.33a1.65,1.65,0,0,1,.53.13l.47.13a1.36,1.36,0,0,0,.4.14,1.2,1.2,0,0,0,.33.13L39.81,76a3.5,3.5,0,0,1-.54-.2,1.53,1.53,0,0,0-.53-.13.7.7,0,0,1-.53,0c-.2,0-.33-.07-.53-.07a1.12,1.12,0,0,0-.86.27.73.73,0,0,0-.27.66.48.48,0,0,0,.07.33c.06.14.13.2.2.34s.26.2.39.26.34.13.6.27a5.13,5.13,0,0,1,1.2.46,2.42,2.42,0,0,1,1.26,1.2,3,3,0,0,1,.13.79,3.11,3.11,0,0,1-.13.8,1.37,1.37,0,0,1-.4.66,2.31,2.31,0,0,1-.66.46,3.37,3.37,0,0,1-.87.27v1.53H36.75Z"/><path id="Path_2880" data-name="Path 2880" class="cls-14" d="M39.74,79.3a1.41,1.41,0,0,0-.47-.66,2.24,2.24,0,0,0-.79-.53,10.88,10.88,0,0,0-1.19-.47,1.2,1.2,0,0,1-.6-.26c-.13-.07-.27-.2-.4-.27a.37.37,0,0,1-.2-.33.64.64,0,0,1-.07-.33.88.88,0,0,1,.27-.67,1.46,1.46,0,0,1,.66-.26h.2c.2,0,.33.06.53.06s.33.07.53.14.33.13.53.19h.54l.33-1.26a.51.51,0,0,0-.34-.13.9.9,0,0,0-.39-.13c-.14-.07-.34-.07-.47-.13s-.33-.07-.53-.14V72.8H35.75v1.39a3.33,3.33,0,0,0-.86.33,6.08,6.08,0,0,0-.66.47,1.37,1.37,0,0,0-.4.66,3.11,3.11,0,0,0-.13.79,1.77,1.77,0,0,0,.2.87,2.31,2.31,0,0,0,.46.66,2.73,2.73,0,0,0,.73.53,7.19,7.19,0,0,0,1,.4l.59.2a1.06,1.06,0,0,1,.47.27.62.62,0,0,1,.26.33,1,1,0,0,1,.14.4.82.82,0,0,1-.34.66.94.94,0,0,1-.66.2,3.11,3.11,0,0,1-.8-.13,11.22,11.22,0,0,1-1.13-.33h-.53l-.39,1.26a3.67,3.67,0,0,0,.93.33l1.06.2v1.46h2.12V82.22a3,3,0,0,0,.87-.26,2.34,2.34,0,0,0,.66-.47,1.36,1.36,0,0,0,.4-.66,3.52,3.52,0,0,0,.13-.79A3.7,3.7,0,0,0,39.74,79.3Z"/><path id="Path_2881" data-name="Path 2881" class="cls-10" d="M35.69,82.42c-.4-.06-.73-.13-1.06-.2a3.67,3.67,0,0,1-.93-.33l.39-1.26c.4.13.8.2,1.14.33a5.36,5.36,0,0,0,1.13.13,1.09,1.09,0,0,0,.85-.26.82.82,0,0,0,.34-.66.9.9,0,0,0-.13-.4c-.07-.14-.2-.2-.27-.33a2.13,2.13,0,0,0-.46-.27l-.6-.2c-.4-.13-.66-.26-1-.4a3.17,3.17,0,0,1-.73-.53,1.47,1.47,0,0,1-.46-.66,1.77,1.77,0,0,1-.2-.87,3,3,0,0,1,.13-.79,1.29,1.29,0,0,1,.4-.66,2.21,2.21,0,0,1,.66-.47,3.33,3.33,0,0,1,.86-.33v-1.4h1.6v1.33a1.65,1.65,0,0,1,.53.13l.46.13a1.47,1.47,0,0,0,.4.14,1.51,1.51,0,0,0,.33.13L38.74,76a3.39,3.39,0,0,1-.53-.2,1.65,1.65,0,0,0-.53-.13,1.36,1.36,0,0,0-.53-.07c-.2,0-.33-.07-.53-.07a1.14,1.14,0,0,0-.87.27.75.75,0,0,0-.26.66.5.5,0,0,0,.06.34c.07.13.14.2.2.33s.27.2.4.26.33.14.6.27a4.9,4.9,0,0,1,1.19.46,2.44,2.44,0,0,1,1.27,1.2,2.5,2.5,0,0,1,0,1.59,1.46,1.46,0,0,1-.4.66,2.45,2.45,0,0,1-.67.47,3.57,3.57,0,0,1-.86.26v1.54H35.69Z"/></g></g></g></g></g></g></svg>