<?xml version="1.0" encoding="utf-8"?>
<!-- Generator: Adobe Illustrator 23.0.3, SVG Export Plug-In . SVG Version: 6.00 Build 0)  -->
<svg version="1.1" id="Layer_1" xmlns="http://www.w3.org/2000/svg" xmlns:xlink="http://www.w3.org/1999/xlink" x="0px" y="0px"
	 viewBox="0 0 150 150" style="enable-background:new 0 0 150 150;" xml:space="preserve">
<style type="text/css">
	.st0{fill:#FDB07B;}
	.st1{fill:#ED780F;}
	.st2{fill:#03467C;}
	.st3{fill:#003366;}
	.st4{fill:#F2F2F2;}
	.st5{fill:#CE640D;}
	.st6{fill:#3B93D0;}
	.st7{fill:#257ABE;}
	.st8{fill:#032435;}
	.st9{fill:#075E9E;}
</style>
<title>piggy-bank</title>
<g id="Group_8782">
	<path id="Rectangle_3510" class="st0" d="M33.5,101.4h80.2c0.4,0,0.7,0.3,0.7,0.7v7.3c0,0.4-0.3,0.7-0.7,0.7H33.5
		c-0.4,0-0.7-0.3-0.7-0.7v-7.3C32.8,101.8,33.1,101.4,33.5,101.4z"/>
	<path id="Rectangle_3511" class="st1" d="M29.9,108.9h80.2c0.4,0,0.7,0.3,0.7,0.7v7.3c0,0.4-0.3,0.7-0.7,0.7H29.9
		c-0.4,0-0.7-0.3-0.7-0.7v-7.3C29.2,109.2,29.5,108.9,29.9,108.9z"/>
	<path id="Rectangle_3512" class="st0" d="M33.5,117.5h80.2c0.4,0,0.7,0.3,0.7,0.7v7.3c0,0.4-0.3,0.7-0.7,0.7H33.5
		c-0.4,0-0.7-0.3-0.7-0.7v-7.3C32.8,117.8,33.1,117.5,33.5,117.5z"/>
	<path id="Rectangle_3513" class="st1" d="M31.7,124.9h80.2c0.4,0,0.7,0.3,0.7,0.7v7.3c0,0.4-0.3,0.7-0.7,0.7H31.7
		c-0.4,0-0.7-0.3-0.7-0.7v-7.3C31,125.2,31.3,124.9,31.7,124.9z"/>
	<g id="Group_8780">
		<rect id="Rectangle_3514" x="56.5" y="100" class="st2" width="33.1" height="17.5"/>
		<rect id="Rectangle_3515" x="56.5" y="117.5" class="st3" width="33.1" height="17.5"/>
	</g>
	<g id="Group_8781">
		<path id="Path_4683" class="st4" d="M80.2,115.1h-4.2l-0.1-2c-0.7-0.2-1.5-0.3-2.2-0.3c-0.9,0-2.4,0.3-2.4,1.5s1.2,1.5,2.9,1.7
			c3.4,0.3,7.1,1.4,7.1,5.6c0,3.2-2.6,5-5.7,5.5v2.1h-4v-2c-2-0.2-3.8-1-5.3-2.3v-4.4h4.3l0.1,2c1,0.4,2,0.5,3,0.6
			c1.6,0,2.8-0.6,2.8-1.6s-1-1.3-2.9-1.5c-3.5-0.3-7.1-1.3-7.1-5.6c0-3.1,2.6-4.8,5.3-5.3v-2.1h4v2c1.7,0.3,3.2,0.9,4.6,2
			L80.2,115.1z"/>
	</g>
</g>
<g id="Group_8784">
	<path id="Path_4684" class="st5" d="M79.6,17.8c-6.3-3.5-14.3-1.2-17.8,5.1S60.6,37.2,67,40.7c6.3,3.5,14.3,1.2,17.8-5.1l0,0
		C88.2,29.2,86,21.3,79.6,17.8z"/>
	<g id="Group_8783">
		<path id="Path_4685" class="st1" d="M65.8,39.5c-6.3-3.5-8.6-11.5-5.1-17.8s11.5-8.6,17.8-5.1"/>
		<path id="Path_4686" class="st0" d="M78.5,16.6c6.3,3.5,8.6,11.5,5.1,17.8c-3.5,6.3-11.5,8.6-17.8,5.1"/>
	</g>
</g>
<g>
	<g id="Group_8779_1_">
		<g id="Group_8777_1_">
			<path id="Path_4679_1_" class="st6" d="M119.8,64.4L119.8,64.4c0-17.1-13.9-30.9-30.9-30.9H57.3c0-2-0.8-4-2.2-5.5
				c-1.7-1.6-4.4-1.9-7.8-1c-0.4,0.1-0.6,0.5-0.7,0.9v7.2C38.3,37.8,31.5,44,27.9,52c-0.8-0.3-1.6-0.5-2.4-0.5h-1.4
				c-3.2,0-5.9,2.6-6,6v7.9h101.5C119.8,65,119.8,64.7,119.8,64.4z"/>
			<path id="Path_4680_1_" class="st7" d="M24.3,78.3h1.4c1,0,1.9-0.3,2.7-0.7c3.8,7.9,10.7,14,19.2,16.5v5c0.1,2.8,2.5,5.1,5.4,5
				c2.6-0.1,4.9-2.2,5-5v-3.8h30.6v3.6c0.1,2.8,2.5,5.1,5.4,5c2.6-0.1,4.9-2.2,5-5v-5.4c12.2-4.2,20.5-15.5,20.9-28.3H18.3v7
				C18.3,75.6,20.9,78.3,24.3,78.3L24.3,78.3z"/>
		</g>
		<g id="Group_8778_1_">
			<path id="Path_4681_1_" class="st8" d="M85,43.4c1.2-0.6,1.8-1.2,1.8-1.9c0-2.1-6.3-3.9-14-3.9S59,39.3,59,41.5
				c0,0.7,0.7,1.3,1.9,1.9c2.4-1.1,6.9-1.9,12.1-1.9C78.1,41.5,82.6,42.3,85,43.4z"/>
			<path id="Path_4682_1_" class="st9" d="M85,43.4c-2.4-1.1-6.9-1.9-12.1-1.9c-5.2,0-9.6,0.8-12.1,1.9c2.4,1.1,6.9,1.9,12.1,1.9
				C78.1,45.3,82.6,44.5,85,43.4z"/>
		</g>
	</g>
	<g id="Group_8782_1_">
		<path id="Rectangle_3510_1_" class="st0" d="M33.9,101.6h81.3c0.4,0,0.7,0.3,0.7,0.7v7.4c0,0.4-0.3,0.7-0.7,0.7H33.9
			c-0.4,0-0.7-0.3-0.7-0.7v-7.4C33.2,102,33.5,101.6,33.9,101.6z"/>
		<path id="Rectangle_3511_1_" class="st1" d="M30.3,109.2h81.3c0.4,0,0.7,0.3,0.7,0.7v7.4c0,0.4-0.3,0.7-0.7,0.7H30.3
			c-0.4,0-0.7-0.3-0.7-0.7v-7.4C29.6,109.5,29.9,109.2,30.3,109.2z"/>
		<path id="Rectangle_3512_1_" class="st0" d="M33.9,117.9h81.3c0.4,0,0.7,0.3,0.7,0.7v7.4c0,0.4-0.3,0.7-0.7,0.7H33.9
			c-0.4,0-0.7-0.3-0.7-0.7v-7.4C33.2,118.2,33.5,117.9,33.9,117.9z"/>
		<path id="Rectangle_3513_1_" class="st1" d="M32.1,125.4h81.3c0.4,0,0.7,0.3,0.7,0.7v7.4c0,0.4-0.3,0.7-0.7,0.7H32.1
			c-0.4,0-0.7-0.3-0.7-0.7v-7.4C31.4,125.7,31.7,125.4,32.1,125.4z"/>
		<g id="Group_8780_1_">
			<rect id="Rectangle_3514_1_" x="57.2" y="100.2" class="st2" width="33.6" height="17.7"/>
			<rect id="Rectangle_3515_1_" x="57.2" y="117.9" class="st3" width="33.6" height="17.7"/>
		</g>
		<g id="Group_8781_1_">
			<path id="Path_4683_1_" class="st4" d="M81.3,115.5H77l-0.1-2c-0.7-0.2-1.5-0.3-2.2-0.3c-0.9,0-2.4,0.3-2.4,1.5
				c0,1.2,1.2,1.5,2.9,1.7c3.4,0.3,7.2,1.4,7.2,5.7c0,3.2-2.6,5.1-5.8,5.6v2.1h-4.1v-2c-2-0.2-3.9-1-5.4-2.3v-4.5h4.4l0.1,2
				c1,0.4,2,0.5,3,0.6c1.6,0,2.8-0.6,2.8-1.6s-1-1.3-2.9-1.5c-3.5-0.3-7.2-1.3-7.2-5.7c0-3.1,2.6-4.9,5.4-5.4v-2.1h4.1v2
				c1.7,0.3,3.2,0.9,4.7,2L81.3,115.5z"/>
		</g>
	</g>
	<g id="Group_8784_1_">
		<path id="Path_4684_1_" class="st5" d="M80.6,16.8c-6.4-3.5-14.5-1.2-18,5.2c-3.5,6.4-1.2,14.5,5.3,18c6.4,3.5,14.5,1.2,18-5.2
			l0,0C89.4,28.4,87.1,20.4,80.6,16.8z"/>
		<g id="Group_8783_1_">
			<path id="Path_4685_1_" class="st1" d="M66.7,38.8c-6.4-3.5-8.7-11.7-5.2-18c3.5-6.4,11.7-8.7,18-5.2"/>
			<path id="Path_4686_1_" class="st0" d="M79.5,15.6c6.4,3.5,8.7,11.7,5.2,18c-3.5,6.4-11.7,8.7-18,5.2"/>
		</g>
	</g>
	<g id="Group_4" transform="translate(112.778 50.231)">
		<path id="Path_2" class="st6" d="M2.8,11.7c-0.4,0-0.7,0-1.1-0.1c-1-0.1-1.8-1-1.7-2c0.1-1,1-1.8,2-1.7h0.1C4.6,8,7.1,7.2,9,5.6
			c0.3-0.3,0.6-0.5,0.9-0.8C8.3,3.8,7.1,2.3,6.6,0.5c-0.8-2-0.3-4.3,1.2-5.7c1.4-1.1,3.3-1.2,4.9-0.4c2.1,1.1,3.1,3.5,2.9,6.7
			C17.5,0.3,19-1,20.1-2.7c0.5-1,1.6-1.3,2.5-0.8s1.2,1.6,0.7,2.5c-2,3.3-5.4,5.7-9.2,6.3c-0.7,1.3-1.6,2.3-2.7,3.2
			C9,10.5,6,11.6,2.8,11.7z M10.4-2.3c-0.1,0-0.2,0-0.2,0.1c-0.2,0.1-0.3,0.7,0,1.6c0.2,0.9,0.8,1.6,1.6,2c0-0.1,0-0.1,0-0.2
			c0.2-2-0.4-3.1-1-3.4C10.7-2.3,10.6-2.3,10.4-2.3L10.4-2.3z"/>
	</g>
</g>
</svg>
