<?xml version="1.0" encoding="UTF-8"?>
<svg xmlns="http://www.w3.org/2000/svg" xmlns:xlink="http://www.w3.org/1999/xlink" viewBox="0 0 248.21 159.07">
  <defs>
    <style>
      .cls-1, .cls-2, .cls-3, .cls-4 {
        fill: none;
      }

      .cls-5 {
        fill: #231f20;
      }

      .cls-6 {
        fill: url(#linear-gradient);
      }

      .cls-2, .cls-3, .cls-7 {
        stroke: #414141;
      }

      .cls-2, .cls-3, .cls-7, .cls-4 {
        stroke-miterlimit: 10;
      }

      .cls-2, .cls-7 {
        stroke-width: .46px;
      }

      .cls-3, .cls-4 {
        stroke-width: .47px;
      }

      .cls-8 {
        isolation: isolate;
      }

      .cls-9 {
        clip-path: url(#clippath-1);
      }

      .cls-10 {
        fill: #fff;
      }

      .cls-11 {
        mix-blend-mode: screen;
      }

      .cls-7 {
        fill: url(#linear-gradient-2);
      }

      .cls-4 {
        stroke: #c7c7c7;
      }

      .cls-12 {
        clip-path: url(#clippath);
      }
    </style>
    <clipPath id="clippath">
      <path class="cls-1" d="M235.33,1.69H14.6C8.39,1.69,3.32,6.76,3.32,12.97v131.13c0,6.2,5.08,11.28,11.28,11.28h220.74c6.2,0,11.28-5.08,11.28-11.28V12.97c0-6.2-5.08-11.28-11.28-11.28Z"/>
    </clipPath>
    <linearGradient id="linear-gradient" x1="41.62" y1="207.98" x2="270.53" y2="52.61" gradientUnits="userSpaceOnUse">
      <stop offset="0" stop-color="#363436"/>
      <stop offset=".39" stop-color="#545456"/>
      <stop offset=".45" stop-color="#78777a"/>
      <stop offset=".48" stop-color="#8d8c90"/>
      <stop offset=".52" stop-color="#828185"/>
      <stop offset=".59" stop-color="#646567"/>
      <stop offset=".59" stop-color="#616264"/>
      <stop offset="1" stop-color="#302e2f"/>
    </linearGradient>
    <linearGradient id="linear-gradient-2" x1="30.54" y1="67.11" x2="61.82" y2="67.11" gradientUnits="userSpaceOnUse">
      <stop offset="0" stop-color="#e6e6e6"/>
      <stop offset="1" stop-color="#bdbdbd"/>
    </linearGradient>
    <clipPath id="clippath-1">
      <rect class="cls-1" x="30.54" y="54.88" width="31.28" height="24.46" rx="3.67" ry="3.67"/>
    </clipPath>
  </defs>
  <g class="cls-8">
    <g id="Layer_9" data-name="Layer 9">
      <path class="cls-5" d="M235.26,1.69H12.97C6.73,1.69,1.61,6.83,1.61,13.11v132.74c0,6.28,5.11,11.42,11.36,11.42h222.28c6.25,0,11.36-5.14,11.36-11.42V13.11c0-6.28-5.11-11.42-11.36-11.42Z"/>
      <path d="M235.33,1.69H14.6C8.39,1.69,3.32,6.76,3.32,12.97v131.13c0,6.2,5.08,11.28,11.28,11.28h220.74c6.2,0,11.28-5.08,11.28-11.28V12.97c0-6.2-5.08-11.28-11.28-11.28Z"/>
      <g class="cls-12">
        <path class="cls-6" d="M175.92,46.14l-.49-1.04,1.18-4.58.71.18-1.4,5.44ZM146.03-17.74h-.81s29.93,63.95,29.93,63.95l.28-1.11-29.4-62.84ZM193.81,45.86l-5.49,15.64.69.24,5.49-15.64-.69-.24ZM172.48,56.58l.71.18,2.44-9.51-.49-1.04-2.66,10.37ZM127.8-17.99h-.73s-.82,58.49-.82,58.49c.24.21.48.43.72.64l.83-59.13ZM20.92,62.44l-.63.36,8.27,14.32.63-.36-8.27-14.32ZM159.01,36.72l-2.73,16.37.72.12,2.73-16.37-.72-.12ZM141.88,34.55l-.73-.06-1.31,16.54.73.06,1.31-16.54ZM253.93,84.4l-.04.05s.02.04.04.06v-.11ZM253.94,85.54l-.13.16c.04.07.09.14.13.21v-.37ZM125.62,85.18c.24,0,.49,0,.73,0l.09-6.13c-.24,0-.49,0-.73,0l-.09,6.13ZM246.29,94.92l7.52-9.22c-.13-.22-.27-.44-.4-.66l-7.68,9.42.56.46ZM123.9,33.85h-.73s.03,3.97.03,3.97c.24.21.49.42.73.64l-.03-4.6ZM203.69,67.8l.66.3,5.18-11.48-1.02.49-4.82,10.69ZM-10.18-19.87c-7.98,4.21-15.74,8.76-23.24,13.65l.08.82c7.95-5.2,16.18-10.02,24.68-14.45l-1.52-.02ZM36.83,53.92l-.62.29,7.01,14.99.62-.29-7.01-14.99ZM233.1,84.75l9.29-13.66-.6-.41-9.29,13.66.6.41ZM228.78,47.34c8.48,12.12,16.7,24.71,24.62,37.7l.49-.6c-7.87-12.89-16.03-25.38-24.45-37.42l24.34-11.73v-.81s-24.76,11.93-24.76,11.93c-15.61-22.28-32.09-43-49.18-61.75-.6-.66-1.21-1.31-1.82-1.97h-1c.76.81,1.52,1.63,2.28,2.46,17.04,18.7,33.48,39.36,49.05,61.58l-18.36,8.85-.47,1.03,19.25-9.28ZM211.16,53.01l-.66-.3-1.52,3.37,1.02-.49,1.16-2.58ZM91.05,53.54l-2.95-16.33-.72.13,2.95,16.33.72-.13ZM59.12,62.4l-5.7-15.56-.68.25,5.7,15.56.68-.25ZM74.89,57.27l-4.34-16-.7.19,4.34,16,.7-.19ZM126.24,41.46v-.96c-.76-.69-1.53-1.38-2.31-2.05v.96c.78.67,1.54,1.36,2.31,2.04ZM105.2,34.81l1.54,16.52.73-.07-1.54-16.52-.73.07ZM124.01,50.45l-.07-11.03c-.24-.21-.49-.42-.73-.64l.08,11.67h.73ZM2.17,96.16l-10.6-12.64-.56.47,10.6,12.64.56-.47ZM125.72,78.32c.24,0,.49,0,.73,0l.51-36.22c-.24-.22-.48-.43-.72-.65l-.52,36.86ZM15.26,85.86l-9.47-13.53-.6.42,9.47,13.53.6-.42ZM219.08,75.79l8.08-14.43-.64-.36-8.08,14.43.64.36ZM-9.99,107.59l-11.64-11.66-.52.51,11.64,11.66.52-.51ZM273.42,237.55c0,77.06-59.28,140.53-134.68,147.18-4.3.61-8.66.92-13.11.92s-8.81-.31-13.11-.92c-75.39-6.65-134.68-70.12-134.68-147.18,0-29.48,8.69-57.7,24.94-82.02l-.12-.12,2.69-3.79,1.95-2.68-3.91-3.14c-3.49,4.5-6.73,9.17-9.7,14l8.84-4.26c-.54.53-1.08,1.06-1.61,1.58l-7.91,3.81c-1.8,2.98-3.5,6.02-5.1,9.11-.64.64-1.19,1.19-1.65,1.65,1.73-3.46,3.58-6.86,5.56-10.19l-7.78,3.75-.08-.77,8.53-4.11c3.14-5.19,6.59-10.21,10.32-15.03l-4.73-3.8c-5.33,6.88-10.1,14.14-14.26,21.73l-.13-1.26c4.06-7.3,8.67-14.3,13.82-20.93l-17.37-13.97-.1-1.02,17.92,14.41c14.72-18.81,33.72-34.62,56.4-45.73l-27.77-59.38c-3.94,1.74-8.11,2.62-12.3,2.62-3.45,0-6.92-.59-10.27-1.79-5.21-1.85-9.72-5.01-13.22-9.14-7.77,10.68-13.37,24.23-16.78,39.93l-.26-2.51c3.53-15.13,9.09-27.94,16.51-38.05-1.56-1.94-2.89-4.08-3.98-6.4-.45-.97-.85-1.95-1.2-2.93l-12.51,35.89-.17-1.71L-15.25,15.98c-4.11-13.28.97-27.85,12.39-35.55l.07-.2,1.55.02c-.35.21-.68.43-1.02.65L-14.48,15.99c.4,1.27.88,2.53,1.46,3.76,1.03,2.21,2.31,4.25,3.78,6.11C-6.42,22.1-3.34,18.72,0,15.74c-.36-.58-.69-1.17-.98-1.79C-4.84,5.72-1.64-4.09,6.11-8.44L.84-19.72h.81s5.11,10.95,5.11,10.95c.09-.05.18-.1.28-.14,4.05-1.95,8.62-2.2,12.86-.69,4.29,1.53,7.73,4.67,9.68,8.84.29.62.53,1.25.75,1.88,4.37-.74,8.89-1.02,13.55-.86-.48-2.31-1.23-4.61-2.27-6.83-2.48-5.31-6.31-9.67-11.08-12.74l1.34.02c4.44,3.1,8.03,7.33,10.4,12.41,1.09,2.34,1.87,4.75,2.36,7.17,8.32.39,17.09,2.21,26.26,5.47,10.42,3.71,20.96,9.15,31.43,16.11l14.05-40.01h.77s-14.19,40.43-14.19,40.43c6.8,4.56,13.57,9.75,20.25,15.53v.96c-6.76-5.88-13.61-11.17-20.5-15.79l-21.58,61.48c14.59-4.18,29.58-6.23,44.6-6.15v.72c-.3,0-.59,0-.87,0-14.84,0-29.63,2.1-44.03,6.28l-2.52,7.18c15.41-4.95,31.34-7.39,47.32-7.31v.72c-.26,0-.52,0-.77,0-15.83,0-31.6,2.5-46.85,7.46l-1.76,5.01c11.86-4.22,24.3-6.95,37.03-8.02,4.07-.53,8.17-.87,12.29-.87l.05-3.57c.24,0,.49,0,.73,0l-.05,3.57c3.97.03,7.86.3,11.7.8l6.45-3.11c-6.02-.79-12.06-1.2-18.1-1.26v-.73c6.44.06,12.87.54,19.28,1.42l9.59-4.62c-9.54-1.86-19.16-2.83-28.77-2.93v-.73c9.98.1,19.96,1.14,29.85,3.13l4.79-2.31c-10.89-13.94-22.36-26.39-34.12-37.04v-.97c12,10.81,23.69,23.48,34.79,37.69l23.39-11.27-9.5-20.31.28-1.11,9.88,21.11,23.18-11.17-.47,1.03-22.41,10.8,13.53,28.93c21.45,11.22,39.97,27.01,54.47,46.41v1.22c-14.33-19.41-32.68-35.25-53.97-46.54l4.46,9.52c19.82,11.92,36.68,28.12,49.55,47.64v2.69s-1.49,4.3-1.49,4.3c13.19,22.1,20.77,47.92,20.77,75.48ZM-14.83,14.79L-3.27-18.39C-13.57-10.93-18.23,2.4-14.83,14.79ZM167.53,119.03h15.32c-8.25-6.32-17.17-11.3-26.64-14.76,4,4.14,7.76,9.1,11.32,14.76ZM161.98,128.38h-31.69v41.18h47.13c-3.97-15.87-9.25-29.9-15.44-41.18ZM130.29,99.27v19.76h25.9c-7.7-11-16.52-17.98-25.9-19.76ZM130.29,346.73h31.69c6.19-11.27,11.47-25.28,15.44-41.18h-47.13v41.18ZM179.57,296.23c3.44-16.56,5.44-34.9,5.73-54.01h-55.02v54.01h49.28ZM185.3,232.89c-.3-19.12-2.29-37.41-5.73-54h-49.28v54h55.02ZM187.22,169.56h34.32c-7.14-15.95-16.73-29.96-28.12-41.18h-20.69c5.92,11.67,10.82,25.6,14.48,41.18ZM210.68,128.38h-4.46c10.33,11.7,18.93,25.63,25.42,41.18h14.57c-9.08-15.97-21.18-29.96-35.54-41.18ZM235.61,232.89c-.51-19.24-4.13-37.51-10.25-54h-36.11c3.26,16.55,5.14,34.76,5.41,54h40.95ZM194.66,242.21c-.27,19.22-2.16,37.45-5.41,54.01h36.11c6.12-16.52,9.73-34.79,10.25-54.01h-40.95ZM244.95,232.89h19.02c-.65-19.24-5.19-37.51-12.96-54h-15.77c5.83,16.64,9.21,34.88,9.71,54ZM205.16,108.64l2.99,6.38c17.81,12.02,32.87,27.82,44.02,46.24l1.79-5.13c-12.65-19.41-29.26-35.55-48.79-47.49ZM204.03,107.95c-8.72-5.23-18.02-9.63-27.8-13.11-1.18-.42-2.36-.82-3.54-1.21,1.17,1.67,2.33,3.36,3.48,5.07,10.93,3.99,21.25,9.23,30.8,15.55l-2.94-6.29ZM199.08,97.36c-6.61-3.44-13.48-6.46-20.61-9-4.1-1.46-8.23-2.74-12.38-3.86,1.99,2.66,3.96,5.37,5.91,8.13,1.5.48,2.99.98,4.48,1.51,9.49,3.38,18.52,7.62,27.01,12.64l-4.41-9.42ZM162.2,79.42c1.07,1.37,2.12,2.76,3.18,4.16,4.47,1.17,8.92,2.53,13.33,4.11,6.86,2.44,13.49,5.32,19.86,8.6l-13.13-28.06-23.24,11.2ZM157.46,81.71c2.27.48,4.54,1,6.8,1.57-.9-1.19-1.81-2.37-2.72-3.54l-4.08,1.96ZM146.93,86.78c8.04,1.18,16.03,3.02,23.92,5.5-1.94-2.74-3.91-5.43-5.9-8.07-2.85-.74-5.7-1.4-8.57-1.98l-9.45,4.56ZM139.35,90.43c12.39,1.14,24.35,3.83,35.67,7.85-1.15-1.69-2.31-3.37-3.48-5.02-8.5-2.73-17.13-4.69-25.8-5.9l-6.39,3.08ZM64.38,168.35l1.19-4.51,1.2-4.51.05.02c3.34-11.62,7.29-22.02,11.82-30.97h-20.7c-10.58,10.37-19.71,23.11-26.76,37.91-.5,1.07-.96,2.19-1.44,3.27h34.41c.1-.41.22-.81.31-1.21h-.08ZM62.13,178.89H25.92c-6.23,16.87-9.73,35.23-10.23,54h40.94c.28-18.67,2.16-37.02,5.5-54ZM56.63,242.21H15.65c.52,19.22,4.12,37.5,10.28,54.01h36.12c-3.26-16.56-5.17-34.79-5.41-54.01ZM83.79,119.03c3.46-5.6,7.16-10.49,11.07-14.56-9.2,3.43-18,8.32-26.17,14.56h15.09ZM77.12,93.65c-6.3,2.09-12.51,4.59-18.59,7.52-.1.05-.19.1-.29.14l1.83,3.92c4.96-2.46,10.06-4.65,15.28-6.55l1.77-5.04ZM79.96,85.58c-8.26,2.45-16.4,5.57-24.32,9.39-.1.05-.19.1-.29.14l2.59,5.53c.09-.05.19-.09.28-.14,6.28-3.03,12.7-5.6,19.21-7.73l2.53-7.2ZM29.8,1.95c-1.79.32-3.55.72-5.29,1.2,1.69,5.16-.64,10.92-5.6,13.31-.1.05-.2.08-.3.12l2.33,4.97c.1-.04.19-.08.29-.12,7.29-3.51,10.78-11.87,8.57-19.49ZM16.65,12.37c.1-.04.19-.08.29-.12,2.87-1.38,4.2-4.74,3.19-7.72-1.93.69-3.82,1.48-5.68,2.38-.1.05-.19.1-.29.15l2.49,5.31ZM13.52,7.39c-1.53.77-3.02,1.6-4.47,2.5.74,1.22,1.86,2.14,3.2,2.62,1.21.43,2.5.46,3.71.11l-2.44-5.23ZM19.85,3.86c-.71-1.51-1.96-2.64-3.52-3.19-.67-.24-1.36-.36-2.05-.36-.9,0-1.8.2-2.64.61-.1.05-.19.1-.28.15l2.49,5.33c.09-.05.18-.1.28-.14,1.87-.9,3.78-1.7,5.72-2.4ZM10.74,1.46c-2.4,1.72-3.33,4.99-2.04,7.78,1.46-.9,2.97-1.74,4.5-2.51l-2.46-5.27ZM5.82,12.05c1.2,1.93,2.99,3.4,5.15,4.16,2.18.78,4.51.77,6.67,0l-1.37-2.92c-.64.2-1.31.31-1.97.31-.77,0-1.54-.13-2.29-.4-1.5-.54-2.75-1.56-3.57-2.91-.89.56-1.76,1.15-2.62,1.77ZM18.31,15.92c.1-.04.19-.08.29-.12,4.64-2.24,6.81-7.64,5.21-12.46-1.01.29-2.01.6-3,.95,1.14,3.33-.35,7.08-3.56,8.62-.1.05-.2.08-.3.12l1.35,2.89ZM23.55,2.66c-.06-.15-.11-.3-.18-.45-1.16-2.48-3.2-4.34-5.75-5.25-1.09-.39-2.21-.58-3.33-.58-1.47,0-2.93.33-4.3.99-.1.05-.19.1-.28.15l1.35,2.89c.09-.05.18-.1.28-.15,1.66-.8,3.52-.9,5.25-.28,1.75.62,3.15,1.9,3.95,3.6,0,0,0,.02.01.03.99-.34,2-.66,3.01-.96ZM9.07-2.12C4.73.56,3,6.2,5.22,10.96c.07.15.15.29.23.44.86-.61,1.74-1.2,2.63-1.76,0-.02-.02-.03-.03-.05-1.48-3.16-.4-6.89,2.37-8.79l-1.36-2.92ZM.97,15.89c1.93,2.86,4.68,5.03,7.97,6.2,3.72,1.33,7.7,1.22,11.34-.26l-2.33-4.98c-1.18.43-2.41.66-3.64.66s-2.41-.21-3.57-.62c-2.3-.82-4.21-2.37-5.5-4.43-1.46,1.07-2.88,2.21-4.25,3.42ZM7.07-8.11l2.33,4.97c.09-.05.18-.1.28-.15,2.58-1.25,5.49-1.4,8.19-.44,2.73.97,4.92,2.97,6.16,5.63.09.18.15.37.23.56,1.75-.48,3.53-.89,5.34-1.22-.2-.57-.42-1.15-.68-1.71-1.87-3.99-5.16-7-9.26-8.46-1.75-.62-3.56-.93-5.37-.93-2.37,0-4.73.53-6.93,1.6-.1.05-.19.11-.28.15ZM.55,15.26c1.39-1.21,2.82-2.36,4.3-3.43-.1-.18-.2-.36-.29-.55C2.17,6.15,4.06.07,8.76-2.79l-2.33-4.97C-.96-3.59-4.01,5.77-.33,13.64c.26.56.56,1.1.88,1.62ZM26.31,34.74l-5.72-12.23c-2.02.83-4.15,1.24-6.28,1.24-1.89,0-3.78-.32-5.61-.98-3.41-1.21-6.26-3.45-8.28-6.41-3.32,2.99-6.37,6.38-9.15,10.12,3.43,4.1,7.88,7.23,13.01,9.06,7.24,2.58,15.02,2.28,22.02-.81ZM27.26,34.32c12.63-6.09,19.19-19.97,16.76-33.32-.91-.03-1.82-.07-2.72-.07-3.68,0-7.27.3-10.76.88,2.27,7.93-1.4,16.62-8.99,20.27-.1.05-.2.09-.29.13l5.72,12.22c.09-.04.19-.08.29-.13ZM55.04,94.45c.09-.05.19-.09.28-.14,8.12-3.91,16.46-7.1,24.94-9.58l21.82-62.15c-10.47-6.97-21.01-12.42-31.43-16.13-9.04-3.22-17.68-5.03-25.88-5.43,2.41,13.61-4.3,27.74-17.19,33.95-.1.05-.2.09-.29.13l8.94,19.11-.04.02,7.01,14.99.04-.02,11.81,25.25ZM57.28,100.97l-2.59-5.53c-22.58,11.06-41.49,26.8-56.14,45.53l4.73,3.8c14.1-18.01,32.29-33.15,54.01-43.79ZM7.73,148.35l.37-.5.08.08c13.79-18.02,31.4-32.41,51.24-42.37l-1.83-3.92c-21.61,10.59-39.72,25.66-53.75,43.59l3.89,3.13ZM5.08,169.56h14.49c.42-1.02.89-2,1.32-2.98l-.13-.06,2-4.22,2.01-4.21.12.03c5.67-11.09,12.5-21.06,20.21-29.74h-4.53c-10.41,8.09-19.74,17.72-27.62,28.69-2.87,4.01-5.44,8.21-7.87,12.49ZM-12.63,232.89H6.33c.51-18.67,3.75-37.01,9.68-54H.27c-7.91,16.84-12.33,35.11-12.9,54ZM.27,296.23h15.74c-5.8-16.64-9.21-34.9-9.7-54.01H-12.69c.6,19.22,5.2,37.51,12.96,54.01ZM45.08,346.73c-10.33-11.7-18.97-25.65-25.44-41.18H5.08c9.05,15.98,21.18,29.97,35.55,41.18h4.45ZM54.12,356.09h-.02s.02,0,.02.02v-.02ZM57.8,346.73h20.75c-5.91-11.67-10.83-25.59-14.51-41.18H29.73c7.16,15.98,16.75,29.96,28.07,41.18ZM95.05,370.83c-4.01-4.14-7.8-9.1-11.29-14.74h-15.32c8.2,6.32,17.17,11.29,26.61,14.74ZM120.97,356.09h-25.92c7.75,10.98,16.58,17.97,25.92,19.74v-19.74ZM120.97,305.54h-47.13c3.98,15.9,9.27,29.91,15.48,41.18h31.66v-41.18ZM120.97,242.21h-54.98c.26,19.12,2.29,37.45,5.73,54.01h49.24v-54.01ZM120.97,178.89h-49.3c-3.46,16.91-5.41,35.27-5.67,54h54.98v-54ZM120.97,128.38h-31.78c-5.7,10.37-10.71,23.06-14.6,37.83-.31,1.07-.54,2.22-.84,3.35h47.22v-41.18ZM120.97,99.3c-9.19,1.74-18.06,8.63-25.98,19.73h25.98v-19.73ZM156.19,356.09h-25.9v19.74c9.37-1.77,18.2-8.76,25.9-19.74ZM182.86,356.09h-15.32c-3.56,5.64-7.32,10.6-11.32,14.74,9.47-3.46,18.39-8.43,26.64-14.74ZM193.42,346.73c11.39-11.22,20.97-25.2,28.12-41.18h-34.32c-3.66,15.6-8.56,29.52-14.48,41.18h20.69ZM246.22,305.54h-14.57c-6.49,15.54-15.09,29.49-25.42,41.18h4.46c14.36-11.21,26.46-25.2,35.54-41.18ZM263.98,242.21h-19.02c-.5,19.12-3.88,37.38-9.71,54.01h15.77c7.77-16.5,12.31-34.79,12.96-54.01Z"/>
      </g>
      <g id="Flagship_Logo" data-name="Flagship Logo">
        <g>
          <path class="cls-10" d="M71.11,67.63l-.67,3.17c-.03.13-.06.17-.18.19s-.28.04-.5.04-.38-.01-.49-.04c-.13-.03-.13-.09-.11-.19l1.68-7.88c.04-.2.16-.27.34-.27h5.89c.11,0,.14.02.14.12,0,.22-.09.59-.16.77-.04.11-.09.13-.19.13h-4.75c-.11,0-.16.03-.19.15l-.53,2.49c-.02.11,0,.15.11.15h3.21c.11,0,.14.02.14.12,0,.22-.09.59-.16.77-.04.11-.09.13-.19.13h-3.22c-.11,0-.16.04-.19.15Z"/>
          <path class="cls-10" d="M78.94,69.81c-.03.12.02.15.12.15h4.37c.1,0,.13.03.13.12,0,.11-.02.26-.05.4-.03.14-.06.27-.11.38-.04.11-.09.14-.19.14h-5.52c-.23,0-.26-.1-.23-.27l1.67-7.88c.03-.13.06-.17.18-.19.11-.02.29-.04.51-.04s.38.01.5.04c.11.02.12.07.09.19l-1.48,6.96Z"/>
          <path class="cls-10" d="M93.41,70.98c-.15.03-.38.04-.54.04-.13,0-.35,0-.45-.02-.14-.02-.18-.04-.2-.17l-.33-1.78c-.02-.13-.09-.13-.2-.11-.61.08-1.34.11-2.07.11s-1.44-.04-2.02-.11c-.13-.02-.16-.02-.24.11l-1.11,1.79c-.09.14-.14.16-.3.17-.09,0-.24.01-.39.01-.23,0-.49,0-.64-.04-.12-.02-.15-.1-.06-.24l5.05-7.91c.11-.16.19-.19.4-.19h1.24c.21,0,.28.09.32.26l1.69,7.84c.04.16,0,.21-.15.23ZM88.19,67.98c.45.06,1.05.09,1.65.09s1.21-.03,1.69-.09c.11-.01.16-.09.13-.19l-.76-4.02c-.01-.06-.04-.07-.1-.07h-.08c-.06,0-.1.01-.14.07l-2.46,4.02c-.06.11-.06.17.06.19Z"/>
          <path class="cls-10" d="M96.39,66.84c-.45,2.2-.04,3.25,2.09,3.25.77,0,1.58-.11,2.22-.37.12-.05.16-.1.19-.25l.5-2.34c.03-.13.05-.17.17-.19.11-.02.31-.04.53-.04s.4.01.51.04c.1.02.11.06.09.19l-.79,3.7c-.02.1-.05.14-.16.15-.12.01-.28.02-.4.02s-.27,0-.38-.02c-.09-.01-.11-.04-.12-.13l-.03-.21c0-.06-.03-.07-.07-.07h-.11c-.07,0-.1.01-.15.04-.22.13-1.01.49-2.06.49-2.93,0-3.96-1.34-3.33-4.26.63-2.93,2.18-4.3,5.31-4.3,1.45,0,2.59.31,2.83.4.11.04.14.07.14.18-.02.23-.11.58-.21.76-.06.11-.1.13-.23.09-.24-.07-1.21-.38-2.55-.38-2.39,0-3.52,1.05-3.99,3.26Z"/>
          <path class="cls-10" d="M103.86,70.54c.01-.22.1-.58.19-.77.06-.13.09-.13.24-.09.94.22,1.74.37,2.98.37.96,0,2.3-.15,2.56-1.34.03-.12.04-.22.04-.32,0-.72-.7-.92-2.12-1.17-1.42-.26-2.69-.56-2.69-1.84,0-.16.01-.33.06-.53.39-1.83,2.15-2.32,3.9-2.32,1.28,0,2.31.21,2.74.36.13.04.15.09.13.21-.02.22-.1.55-.19.74-.06.13-.09.13-.24.09-.83-.21-1.74-.36-2.69-.36-1.01,0-2.13.22-2.34,1.19-.02.11-.04.2-.04.28,0,.69.72.82,1.99,1.05,1.61.28,2.84.58,2.84,1.93,0,.18-.02.38-.07.6-.43,2-2.41,2.48-4.23,2.48-1.36,0-2.6-.26-2.93-.36-.13-.04-.14-.08-.14-.2Z"/>
          <path class="cls-10" d="M114.31,70.99c-.11.02-.29.04-.51.04s-.38-.01-.5-.04c-.11-.02-.12-.07-.09-.19l1.69-7.95c.03-.13.06-.17.18-.19.11-.02.29-.04.51-.04s.38.01.5.04c.11.02.12.07.09.19l-.67,3.15c-.03.12,0,.15.11.16.55.06,1.44.09,2.34.09s1.81-.01,2.37-.09c.11-.01.16-.06.18-.16l.67-3.15c.03-.13.06-.17.18-.19.11-.02.29-.04.51-.04s.38.01.5.04c.11.02.12.07.09.19l-1.69,7.95c-.03.13-.06.17-.18.19-.11.02-.29.04-.51.04s-.38-.01-.5-.04c-.11-.02-.12-.07-.09-.19l.75-3.5c.02-.1-.01-.14-.12-.13-.8.05-1.6.08-2.39.08s-1.53-.03-2.3-.08h-.02c-.09,0-.13.03-.16.13l-.75,3.5c-.03.13-.06.17-.18.19Z"/>
          <path class="cls-10" d="M127.07,70.09c0,.22-.09.59-.16.77-.04.11-.09.13-.19.13h-3.39c-.11,0-.14-.02-.14-.12,0-.22.09-.59.16-.77.04-.11.09-.13.19-.13h.91c.11,0,.16-.04.18-.15l1.27-6c.03-.12-.02-.15-.12-.15h-.9c-.11,0-.14-.02-.14-.12,0-.22.09-.59.16-.77.04-.11.09-.13.19-.13h3.39c.11,0,.14.02.14.12,0,.22-.09.59-.16.77-.04.11-.09.13-.19.13h-.91c-.11,0-.16.03-.18.15l-1.27,6c-.02.11.01.15.11.15h.9c.11,0,.14.02.14.12Z"/>
          <path class="cls-10" d="M131.28,63.67h-.76c-.11,0-.14-.02-.14-.12,0-.22.09-.59.16-.77.04-.11.09-.13.19-.13h.92s1.53-.06,2.86-.06c1.92,0,3.4.38,3.4,2.07,0,.24-.03.5-.09.8-.52,2.46-2.19,2.81-4.38,2.81-.7,0-1.31-.06-1.52-.07-.13,0-.18.04-.21.14l-.51,2.46c-.03.13-.06.17-.18.19-.13.02-.33.03-.49.03-.18,0-.38-.01-.51-.04-.11-.02-.15-.06-.12-.18l1.49-6.98c.02-.11-.01-.15-.11-.15ZM132.1,67.19c.15.04.77.09,1.55.09,1.48,0,2.49-.21,2.83-1.82.05-.23.07-.43.07-.61,0-1.07-.85-1.28-2.12-1.28-.77,0-1.42.06-1.58.09-.11.02-.16.05-.19.18l-.67,3.17c-.03.13,0,.16.1.18Z"/>
        </g>
        <g>
          <path class="cls-10" d="M145.48,70.99h-.66v-6.46h1.99c.66,0,1.18.14,1.56.43.38.29.57.72.57,1.3,0,.45-.14.83-.42,1.14-.28.31-.69.49-1.23.53l1.86,3.07h-.8l-1.77-3h-1.1v3ZM145.48,67.39h1.17c.29,0,.54-.03.74-.09s.37-.14.49-.24c.12-.1.21-.22.26-.36.06-.14.08-.28.08-.44s-.03-.3-.08-.43c-.05-.14-.14-.26-.26-.36s-.28-.18-.49-.24-.45-.09-.74-.09h-1.17v2.25Z"/>
          <path class="cls-10" d="M151.54,70.39h3.46v.6h-4.12v-6.46h4.01v.6h-3.35v2.2h3.13v.6h-3.13v2.46Z"/>
          <path class="cls-10" d="M158.53,70.06h.02l1.63-5.53h.78l1.63,5.53h.02l1.53-5.53h.73l-1.91,6.46h-.77l-1.63-5.53h-.02l-1.63,5.53h-.77l-1.91-6.46h.73l1.55,5.53Z"/>
          <path class="cls-10" d="M165.98,70.99h-.77l2.81-6.46h.64l2.81,6.46h-.77l-.71-1.7h-3.3l-.71,1.7ZM166.94,68.69h2.8l-1.4-3.4-1.41,3.4Z"/>
          <path class="cls-10" d="M173.68,70.99h-.66v-6.46h1.99c.66,0,1.18.14,1.56.43.38.29.57.72.57,1.3,0,.45-.14.83-.42,1.14-.28.31-.69.49-1.23.53l1.86,3.07h-.8l-1.77-3h-1.1v3ZM173.68,67.39h1.17c.29,0,.54-.03.74-.09s.37-.14.49-.24c.12-.1.21-.22.26-.36.06-.14.08-.28.08-.44s-.03-.3-.08-.43c-.05-.14-.14-.26-.26-.36s-.28-.18-.49-.24-.45-.09-.74-.09h-1.17v2.25Z"/>
          <path class="cls-10" d="M179.03,64.53h2.14c.4,0,.81.07,1.21.2.41.13.77.34,1.1.61.33.27.59.61.79,1.01.2.41.3.88.3,1.41s-.1,1.01-.3,1.42c-.2.4-.46.74-.79,1.01-.32.27-.69.47-1.1.61-.4.13-.81.2-1.21.2h-2.14v-6.46ZM179.69,70.39h1.28c.49,0,.92-.07,1.28-.22.36-.15.66-.35.9-.59.24-.25.42-.53.53-.84.11-.31.17-.64.17-.97s-.06-.66-.17-.97c-.12-.31-.29-.59-.53-.84-.24-.25-.54-.44-.9-.59-.36-.15-.79-.22-1.28-.22h-1.28v5.26Z"/>
          <path class="cls-10" d="M189.47,65.6c-.29-.42-.7-.63-1.25-.63-.17,0-.34.02-.5.07s-.31.12-.44.21c-.13.09-.24.22-.31.37-.08.15-.12.32-.12.52,0,.29.08.52.25.68.16.16.37.29.61.4s.51.2.8.28c.29.08.55.19.8.33.24.14.45.32.61.54.16.22.25.53.25.92,0,.29-.06.56-.19.79s-.29.43-.49.59c-.2.16-.43.28-.68.37-.25.09-.51.13-.76.13-.4,0-.77-.07-1.13-.22-.36-.15-.66-.39-.91-.73l.6-.43c.14.24.33.43.58.57.25.14.54.21.88.21.16,0,.33-.03.49-.08.16-.05.31-.13.44-.23.13-.1.24-.22.32-.37s.13-.31.13-.5c0-.23-.05-.41-.14-.56-.1-.15-.22-.27-.37-.37-.16-.1-.33-.18-.53-.25-.2-.07-.4-.13-.61-.2s-.41-.14-.61-.23c-.2-.09-.37-.19-.53-.32-.16-.13-.28-.3-.37-.49-.09-.2-.14-.45-.14-.74s.06-.58.18-.81.28-.42.47-.58.42-.26.67-.34c.25-.07.51-.11.77-.11.36,0,.7.06.99.17.3.12.58.32.83.61l-.58.45Z"/>
        </g>
      </g>
    </g>
    <g id="Visa_Signature" data-name="Visa Signature">
      <path class="cls-10" d="M206.4,123.88l-6.27,14.98h-4.09l-3.08-11.95c-.19-.74-.35-1.01-.92-1.32-.93-.51-2.46-.98-3.81-1.27l.09-.43h6.58c.84,0,1.59.56,1.78,1.53l1.63,8.67,4.02-10.19h4.06ZM222.42,133.97c.02-3.95-5.46-4.17-5.42-5.94.01-.54.52-1.11,1.64-1.26.56-.07,2.08-.13,3.81.67l.68-3.18c-.93-.34-2.13-.67-3.62-.67-3.82,0-6.51,2.04-6.53,4.95-.03,2.16,1.92,3.36,3.39,4.08,1.51.73,2.01,1.2,2.01,1.86-.01,1-1.2,1.45-2.31,1.47-1.94.03-3.07-.53-3.97-.95l-.7,3.28c.9.42,2.57.78,4.3.8,4.06,0,6.72-2.01,6.73-5.12M232.51,138.86h3.58l-3.12-14.98h-3.3c-.74,0-1.37.43-1.65,1.1l-5.8,13.88h4.06l.81-2.24h4.96l.47,2.24ZM228.2,133.55l2.04-5.63,1.17,5.63h-3.21ZM211.93,123.88l-3.2,14.98h-3.87l3.2-14.98h3.87Z"/>
      <g>
        <path class="cls-10" d="M204.84,146.74c.3.18.73.33,1.19.33.68,0,1.07-.36,1.07-.87,0-.48-.27-.75-.97-1.02-.84-.3-1.35-.73-1.35-1.45,0-.8.66-1.39,1.66-1.39.52,0,.9.12,1.13.25l-.18.54c-.17-.09-.51-.24-.97-.24-.7,0-.97.42-.97.77,0,.48.31.71,1.02.99.87.33,1.31.75,1.31,1.51,0,.79-.59,1.47-1.79,1.47-.49,0-1.03-.14-1.31-.33l.17-.56Z"/>
        <path class="cls-10" d="M209.59,142.83c0,.23-.16.41-.43.41-.24,0-.4-.18-.4-.41s.17-.42.42-.42.41.18.41.42M208.84,143.87h.67v3.68h-.67v-3.68Z"/>
        <path class="cls-10" d="M213.98,143.87c-.02.27-.03.56-.03,1.01v2.14c0,.84-.17,1.36-.52,1.68-.36.33-.87.44-1.34.44s-.93-.11-1.22-.3l.17-.51c.24.15.62.29,1.08.29.68,0,1.19-.36,1.19-1.28v-.41h-.02c-.21.34-.6.62-1.17.62-.91,0-1.57-.78-1.57-1.79,0-1.25.81-1.95,1.66-1.95.64,0,.99.33,1.15.64h.02l.03-.55h.59ZM213.29,145.32c0-.11,0-.21-.04-.3-.12-.39-.45-.71-.93-.71-.64,0-1.09.54-1.09,1.39,0,.72.36,1.32,1.09,1.32.41,0,.78-.26.93-.68.04-.11.05-.24.05-.36v-.66Z"/>
        <path class="cls-10" d="M215.21,144.86c0-.38,0-.69-.03-1h.59l.04.61h.02c.18-.35.61-.69,1.22-.69.51,0,1.3.3,1.3,1.57v2.2h-.67v-2.12c0-.59-.22-1.09-.85-1.09-.44,0-.78.31-.9.69-.03.08-.05.2-.05.31v2.21h-.67v-2.68Z"/>
        <path class="cls-10" d="M221.65,147.55l-.05-.46h-.02c-.21.29-.6.55-1.12.55-.75,0-1.13-.53-1.13-1.06,0-.89.79-1.38,2.21-1.37v-.08c0-.3-.08-.85-.84-.85-.34,0-.7.11-.96.27l-.15-.44c.3-.2.75-.33,1.21-.33,1.13,0,1.4.77,1.4,1.5v1.38c0,.32.01.63.06.88h-.61ZM221.56,145.67c-.73-.02-1.56.11-1.56.83,0,.43.29.64.63.64.48,0,.78-.3.89-.62l.04-.21v-.64Z"/>
        <path class="cls-10" d="M224.25,142.81v1.06h.96v.51h-.96v1.98c0,.46.13.71.5.71.18,0,.3-.02.39-.05l.03.5c-.13.05-.33.09-.59.09-.31,0-.56-.1-.72-.28-.19-.2-.26-.52-.26-.96v-2.01h-.57v-.51h.57v-.88l.65-.17Z"/>
        <path class="cls-10" d="M229.23,146.54c0,.38,0,.71.03,1h-.59l-.04-.6h-.02c-.18.3-.56.69-1.22.69-.58,0-1.27-.32-1.27-1.61v-2.15h.67v2.04c0,.7.21,1.17.82,1.17.45,0,.76-.31.88-.61.04-.1.06-.22.06-.34v-2.26h.67v2.68Z"/>
        <path class="cls-10" d="M230.53,145.02c0-.43,0-.81-.03-1.15h.59l.02.72h.03c.17-.49.57-.81,1.02-.81l.19.02v.63c-.07-.01-.14-.02-.23-.02-.47,0-.81.36-.9.86-.02.09-.03.2-.03.31v1.96h-.66v-2.53Z"/>
        <path class="cls-10" d="M233.5,145.83c.01.91.59,1.28,1.26,1.28.48,0,.77-.08,1.02-.19l.11.48c-.24.11-.64.23-1.22.23-1.13,0-1.81-.75-1.81-1.86s.65-1.98,1.73-1.98c1.2,0,1.52,1.06,1.52,1.73,0,.14-.01.24-.02.31h-2.58ZM235.46,145.35c0-.43-.17-1.09-.93-1.09-.68,0-.97.62-1.03,1.09h1.95Z"/>
      </g>
    </g>
    <g id="Layer_6" data-name="Layer 6">
      <g>
        <rect class="cls-7" x="30.54" y="54.88" width="31.28" height="24.46" rx="3.67" ry="3.67"/>
        <g class="cls-9">
          <g class="cls-11">
            <path class="cls-4" d="M30.99,70.83h11.78s1.73-.06,2.54,1.28.38,2.64.38,2.64l-2.73,4.86"/>
            <path class="cls-4" d="M62.15,70.83h-11.78s-1.73-.06-2.54,1.28c-.81,1.34-.38,2.64-.38,2.64l2.73,4.86"/>
            <path class="cls-4" d="M62.15,63.93h-11.78s-1.73.06-2.54-1.28c-.81-1.34-.38-2.64-.38-2.64l2.88-5.13"/>
            <path class="cls-4" d="M30.99,63.93h11.78s1.73.06,2.54-1.28.38-2.64.38-2.64l-2.73-4.86"/>
            <line class="cls-4" x1="42.77" y1="63.93" x2="42.77" y2="70.79"/>
            <line class="cls-4" x1="50.23" y1="63.93" x2="50.23" y2="70.79"/>
          </g>
        </g>
        <rect class="cls-2" x="30.54" y="54.88" width="31.28" height="24.46" rx="3.67" ry="3.67"/>
        <g>
          <path class="cls-3" d="M30.61,70.56h11.78s1.73-.06,2.54,1.28.38,2.64.38,2.64l-2.73,4.86"/>
          <path class="cls-3" d="M61.77,70.56h-11.78s-1.73-.06-2.54,1.28-.38,2.64-.38,2.64l2.73,4.86"/>
          <path class="cls-3" d="M61.77,63.66h-11.78s-1.73.06-2.54-1.28c-.81-1.34-.38-2.64-.38-2.64l2.73-4.86"/>
          <path class="cls-3" d="M30.61,63.66h11.78s1.73.06,2.54-1.28.38-2.64.38-2.64l-2.73-4.86"/>
          <line class="cls-3" x1="42.39" y1="63.66" x2="42.39" y2="70.52"/>
          <line class="cls-3" x1="49.85" y1="63.66" x2="49.85" y2="70.52"/>
        </g>
      </g>
    </g>
    <g id="Logo">
      <g>
        <path class="cls-10" d="M186.44,39.64c-.21-.86-.72-1.48-1.74-1.48-1.5,0-2.12,1.41-2.12,2.84s.63,2.84,2.12,2.84c1.08,0,1.68-.87,1.78-1.95h1.19c-.1,1.79-1.28,3.02-2.97,3.02-2.09,0-3.34-1.78-3.34-3.91s1.25-3.91,3.34-3.91c1.57.01,2.81.94,2.96,2.55h-1.22Z"/>
        <path class="cls-10" d="M188.39,39.33h1.05v1.04h.02c.13-.57.79-1.19,1.48-1.19.25,0,.32.02.42.03v1.15c-.16-.02-.32-.05-.48-.05-.76,0-1.37.66-1.37,1.85v2.57h-1.11v-5.4h0Z"/>
        <path class="cls-10" d="M195.05,41.55c-.04-.75-.52-1.43-1.27-1.43s-1.3.63-1.33,1.43h2.6ZM192.45,42.34c0,.85.43,1.6,1.36,1.6.65,0,1.04-.3,1.23-.9h1.06c-.24,1.18-1.18,1.84-2.29,1.84-1.58,0-2.47-1.18-2.47-2.84,0-1.54.94-2.85,2.44-2.85,1.59,0,2.57,1.54,2.38,3.16h-3.71Z"/>
        <path class="cls-10" d="M199.04,43.93c1,0,1.42-.97,1.42-1.91,0-1.19-.54-1.9-1.4-1.9-1.05,0-1.42.99-1.42,1.96s.43,1.85,1.4,1.85h0ZM201.53,44.73h-1.06v-.73h-.02c-.29.62-.93.88-1.56.88-1.59,0-2.37-1.26-2.37-2.88,0-1.95,1.08-2.81,2.19-2.81.64,0,1.34.25,1.68.85h.02v-2.76h1.11v7.46h0Z"/>
        <path class="cls-10" d="M202.53,39.33h1.11v5.4h-1.11v-5.4h0ZM202.53,37.27h1.11v1.13h-1.11v-1.13h0Z"/>
        <path class="cls-10" d="M204.1,39.33h.84v-1.62h1.11v1.62h1.01v.89h-1.01v2.88c0,.49.04.74.54.74.16,0,.31,0,.47-.04v.92c-.24.02-.48.06-.72.06-1.16,0-1.38-.48-1.4-1.38v-3.19h-.84v-.89h0Z"/>
        <path class="cls-10" d="M209.93,37.27h1.22v4.35c0,1,.06,2.16,1.64,2.16s1.64-1.16,1.64-2.16v-4.35h1.22v4.77c0,1.91-1.14,2.86-2.86,2.86s-2.86-.95-2.86-2.86v-4.77h0Z"/>
        <path class="cls-10" d="M216.56,39.33h1.06v.79l.02.02c.33-.6.91-.96,1.57-.96,1.09,0,1.79.63,1.79,1.84v3.71h-1.11v-3.4c-.02-.85-.33-1.21-.99-1.21-.74,0-1.22.63-1.22,1.42v3.19h-1.11v-5.4h0Z"/>
        <path class="cls-10" d="M221.96,39.33h1.11v5.4h-1.11v-5.4h0ZM221.96,37.27h1.11v1.13h-1.11v-1.13h0Z"/>
        <path class="cls-10" d="M227.7,42.02c0-.93-.44-1.9-1.44-1.9s-1.44.97-1.44,1.9.44,1.91,1.44,1.91,1.44-.97,1.44-1.91h0ZM223.71,42.02c0-1.65.93-2.84,2.55-2.84s2.55,1.19,2.55,2.84-.93,2.85-2.55,2.85-2.55-1.19-2.55-2.85h0Z"/>
        <path class="cls-10" d="M229.4,39.33h1.06v.79l.02.02c.33-.6.91-.96,1.57-.96,1.09,0,1.79.63,1.79,1.84v3.71h-1.11v-3.4c-.02-.85-.33-1.21-.99-1.21-.74,0-1.22.63-1.22,1.42v3.19h-1.11v-5.4h0Z"/>
        <polygon class="cls-10" points="181.53 23.43 187.41 23.43 187.41 25.14 183.82 25.14 183.82 27.21 187.16 27.21 187.16 28.92 183.82 28.92 183.82 32.29 181.53 32.29 181.53 23.43 181.53 23.43"/>
        <polygon class="cls-10" points="188 23.43 194.24 23.43 194.24 25.13 190.28 25.13 190.28 26.97 194.01 26.97 194.01 28.67 190.28 28.67 190.28 30.56 194.33 30.56 194.33 32.29 188 32.29 188 23.43 188 23.43"/>
        <path class="cls-10" d="M197.38,30.58h.99c1.53-.01,2.51-.71,2.51-2.78,0-2.69-1.89-2.69-2.59-2.69h-.91s0,5.47,0,5.47h0ZM195.02,23.41h3.51c.99,0,2.3.11,3.16.74,1.23.9,1.56,2.36,1.56,3.68,0,1.97-.59,3.42-2.27,4.12-.85.34-1.86.34-2.44.34h-3.53v-8.88h0Z"/>
        <polygon class="cls-10" points="203.83 23.43 210.07 23.43 210.07 25.13 206.11 25.13 206.11 26.97 209.84 26.97 209.84 28.67 206.11 28.67 206.11 30.56 210.16 30.56 210.16 32.29 203.83 32.29 203.83 23.43 203.83 23.43"/>
        <path class="cls-10" d="M213.08,27.22h.86c.51,0,.76,0,.95-.07.51-.17.61-.73.61-1.01,0-1.09-.9-1.09-1.56-1.09h-.86v2.18h0ZM210.77,23.41h3.84c1.5,0,2.06.1,2.55.64.25.27.58.76.58,1.72s-.37,1.39-.76,1.65c-.53.36-1.04.42-1.27.45v.05c1.61.05,1.7.81,1.89,2.18.08.6.2,1.56.39,2.19h-2.5c-.14-.54-.2-1.22-.28-2-.1-1.07-.14-1.46-1.17-1.46h-.97v3.47h-2.31v-8.88h0Z"/>
        <path class="cls-10" d="M223.81,28.87l-1.07-3.73h-.03l-1.15,3.73h2.25ZM221.43,23.41h2.81l3.28,8.88h-2.6l-.58-1.78h-3.32l-.56,1.78h-2.3l3.28-8.88h0Z"/>
        <polygon class="cls-10" points="227.76 23.41 230.1 23.41 230.1 30.54 233.82 30.54 233.82 32.29 227.76 32.29 227.76 23.41 227.76 23.41"/>
        <polygon class="cls-10" points="181.53 13.58 184.71 13.58 187.51 20.2 187.49 13.58 189.5 13.58 189.5 22.46 186.4 22.46 183.53 15.56 183.56 22.46 181.53 22.46 181.53 13.58 181.53 13.58"/>
        <path class="cls-10" d="M195.78,19.04l-1.07-3.73h-.03l-1.15,3.73h2.25ZM193.4,13.58h2.81l3.28,8.88h-2.6l-.58-1.78h-3.32l-.56,1.78h-2.3l3.28-8.88h0Z"/>
        <polygon class="cls-10" points="197.76 13.58 200.31 13.58 202.19 20.02 204.18 13.58 206.47 13.58 203.45 22.46 200.7 22.46 197.76 13.58 197.76 13.58"/>
        <polygon class="cls-10" points="209.06 13.58 210.87 17.31 212.75 13.58 215.12 13.58 211.87 19.33 211.87 22.46 209.55 22.46 209.55 19.22 206.39 13.58 209.06 13.58 209.06 13.58"/>
        <polygon class="cls-10" points="233.82 35.65 233.82 33.32 181.53 33.32 181.53 35.65 233.82 35.65 233.82 35.65"/>
        <path class="cls-10" d="M225.77,21.38h-.16c.36-.41.66-.9.89-1.44h.51c-.32.56-.74,1.05-1.24,1.44h0ZM225.3,21.71h0s0,0,0,0h0ZM220.29,21.71h0,0ZM218.58,19.94h.51c.23.54.53,1.03.89,1.44h-.16c-.5-.39-.93-.88-1.24-1.44h0ZM219.82,13.74h.16c-.27.3-.51.65-.71,1.04h0s-.07.15-.07.15l-.07.15h0s-.03.07-.05.11h-.51c.09-.15.18-.3.28-.44.28-.38.6-.72.97-1h0ZM225.3,13.41h0s0,0,0,0h0ZM227.02,15.18h-.51c-.23-.54-.53-1.03-.89-1.44h.16c.5.39.93.88,1.24,1.44h0ZM226.97,17.72h.67c-.02.67-.18,1.31-.45,1.89h-.55c.2-.58.32-1.22.34-1.89h0ZM225.02,19.61c.11-.58.18-1.22.19-1.89h1.43c-.02.67-.14,1.31-.36,1.89h-1.26ZM224.26,21.71h.54c-.29.22-.6.4-.93.52.14-.15.27-.32.4-.52h0ZM221.33,21.71c.12.2.26.37.4.52-.33-.12-.64-.29-.93-.52h.54ZM218.95,17.72h1.43c0,.67.07,1.31.19,1.89h-1.26c-.22-.58-.34-1.22-.36-1.89h0ZM218.62,17.39h-.66c.02-.66.17-1.3.45-1.89h.55c-.21.59-.32,1.24-.34,1.89h0ZM220.57,15.5c-.12.59-.18,1.24-.19,1.89h-1.43c.02-.66.14-1.3.36-1.89h1.27ZM224.26,13.41c-.12-.2-.26-.37-.4-.52.33.12.64.3.93.52h-.54ZM222.96,17.39v-1.89h1.73c.12.58.19,1.22.2,1.89h-1.93ZM222.96,19.61v-1.89h1.93c-.01.67-.08,1.31-.2,1.89h-1.73ZM222.96,21.38v-1.44h1.65c-.14.56-.32,1.05-.54,1.44h-1.11ZM222.96,21.71h.91c-.27.38-.58.63-.91.69v-.69h0ZM222.63,21.71v.69c-.33-.06-.64-.31-.91-.69h.91ZM222.63,19.94v1.44h-1.11c-.22-.39-.4-.88-.54-1.44h1.65ZM222.63,17.72v1.89h-1.72c-.12-.58-.19-1.22-.2-1.89h1.92ZM222.63,15.5v1.89h-1.92c0-.66.08-1.3.2-1.89h1.73ZM224.07,13.74c.22.39.4.89.54,1.44h-1.65v-1.44h1.11ZM222.96,13.41v-.69c.33.06.64.31.91.69h-.91ZM222.63,12.72v.69h-.91c.28-.39.59-.63.91-.69h0ZM221.33,13.41h-.53c.29-.22.59-.39.92-.51-.14.14-.27.31-.39.51h0ZM221.01,15.06c.14-.52.31-.96.51-1.32h1.11v1.44h-1.65s.02-.08.03-.12h0ZM226.64,17.39h-1.43c0-.67-.08-1.31-.19-1.89h1.26c.21.58.34,1.22.36,1.89h0ZM227.64,17.39h-.67c-.02-.67-.14-1.31-.34-1.89h.55c.27.58.43,1.22.45,1.89h0ZM226.15,15.18h-1.2c-.13-.55-.3-1.03-.51-1.44h.72c.4.39.73.88.98,1.44h0ZM219.49,15.06c.25-.52.57-.96.94-1.33h.72c-.16.31-.3.68-.41,1.08h0s-.04.16-.04.16l-.04.16h0s0,.03-.01.04h-1.2s.03-.08.05-.11h0ZM217.95,17.72h.66c.02.67.14,1.31.34,1.89h-.55c-.27-.58-.43-1.22-.45-1.89h0ZM219.44,19.94h1.2c.13.55.3,1.03.51,1.44h-.73c-.4-.39-.73-.88-.98-1.44h0ZM225.17,21.38h-.72c.21-.41.38-.9.51-1.44h1.2c-.25.56-.59,1.05-.98,1.44h0ZM227.97,17.56c0-2.7-2.07-4.92-4.71-5.15-.15-.02-.3-.03-.46-.03-.15,0-.29.01-.43.03-1.45.12-2.79.85-3.68,2.02h0s-.1.13-.1.13l-.09.13h0c-.57.86-.87,1.84-.87,2.87,0,2.7,2.08,4.92,4.71,5.15.15.02.3.03.46.03s.31-.01.46-.03c2.64-.23,4.71-2.45,4.71-5.15h0Z"/>
        <path class="cls-10" d="M235.43,34.31h.16c.18,0,.34-.07.34-.24,0-.12-.09-.24-.34-.24-.07,0-.12,0-.16.01v.47h0ZM235.43,35.08h-.22v-1.39c.12-.02.23-.03.39-.03.21,0,.35.04.43.11s.13.16.13.29c0,.18-.12.29-.27.34h0c.12.03.21.14.23.35.03.22.07.3.09.34h-.23s-.07-.17-.09-.36c-.03-.18-.12-.24-.3-.24h-.16v.6h0ZM235.66,33.29c-.55,0-1,.47-1,1.06s.45,1.06,1.01,1.06c.56,0,1-.47,1-1.06s-.44-1.06-1-1.06h0ZM235.67,33.1c.68,0,1.23.56,1.23,1.25s-.54,1.26-1.23,1.26-1.24-.55-1.24-1.26.56-1.25,1.24-1.25h0Z"/>
      </g>
    </g>
  </g>
</svg>