<svg xmlns="http://www.w3.org/2000/svg" xmlns:xlink="http://www.w3.org/1999/xlink" width="96" height="96" viewBox="0 0 96 96">
  <defs>
    <clipPath id="clip-path">
      <rect id="Rectangle_8878" data-name="Rectangle 8878" width="82.271" height="55.322" transform="translate(0 0)" fill="none"/>
    </clipPath>
    <clipPath id="clip-credit-score-plus">
      <rect width="96" height="96"/>
    </clipPath>
  </defs>
  <g id="credit-score-plus" clip-path="url(#clip-credit-score-plus)">
    <g id="Group_41619" data-name="Group 41619" transform="translate(7 21)">
      <g id="Group_41618" data-name="Group 41618" clip-path="url(#clip-path)">
        <path id="Path_44109" data-name="Path 44109" d="M45.742,20.774a2,2,0,0,0-2.585,1.149L38.73,33.429a6.943,6.943,0,1,0,3.735,1.433l4.426-11.5a2,2,0,0,0-1.149-2.585M40.965,41.426a2.958,2.958,0,1,1-.058-2.263,2.942,2.942,0,0,1,.058,2.263" fill="#ed780f"/>
        <path id="Path_44110" data-name="Path 44110" d="M22.685,26.269A20.49,20.49,0,0,1,36,21.323a2.037,2.037,0,0,0,2-2,2,2,0,0,0-1.994-2,24.439,24.439,0,0,0-15.97,5.949A24.643,24.643,0,0,0,12,41.866a2,2,0,0,0,2,1.96h.041A2,2,0,0,0,16,41.786c-.031-1.577.142-9.732,6.685-15.517" fill="#0f3d70"/>
        <path id="Path_44111" data-name="Path 44111" d="M82.271,15.661a15.656,15.656,0,0,0-30.684-4.394A36.091,36.091,0,0,0,38,8.663c-18.42,0-33.454,13.588-33.975,30.47A1.831,1.831,0,0,0,4,39.379V51.322H2a2,2,0,0,0,0,4H62a2,2,0,0,0,0-4H8V40.035C8,24.943,21.458,12.663,38,12.663a32.042,32.042,0,0,1,12.964,2.694c0,.1-.016.2-.016.3A15.674,15.674,0,0,0,66.437,31.313,25.123,25.123,0,0,1,68,40.035v9.287a2,2,0,0,0,4,0V40.035a29.106,29.106,0,0,0-1.5-9.222,15.676,15.676,0,0,0,11.77-15.152M66.61,27.322A11.661,11.661,0,1,1,78.271,15.661,11.674,11.674,0,0,1,66.61,27.322" fill="#0f3d70"/>
        <path id="Path_44112" data-name="Path 44112" d="M71.443,13.8h-2.82v-2.82a2,2,0,1,0-4,0V13.8H61.8a2,2,0,0,0,0,4h2.819v2.82a2,2,0,1,0,4,0V17.8h2.82a2,2,0,1,0,0-4" fill="#ed780f"/>
      </g>
    </g>
  </g>
</svg>
