<?xml version="1.0" encoding="UTF-8"?>
<svg id="Layer_2" data-name="Layer 2" xmlns="http://www.w3.org/2000/svg" viewBox="0 0 96 96">
  <defs>
    <style>
      .cls-1 {
        fill: none;
      }

      .cls-2 {
        fill: #fd6f00;
      }

      .cls-3 {
        fill: #003e74;
      }
    </style>
  </defs>
  <polygon class="cls-1" points="51.39 15.95 49.33 23.92 77.49 23.92 75.42 15.95 73.16 15.95 53.66 15.95 51.39 15.95"/>
  <polygon class="cls-1" points="41.78 23.92 45.19 23.92 45.82 21.51 42.59 21.51 41.78 23.92"/>
  <path class="cls-1" d="M47.46,27.92l-3.83,5.2v6.88h39.53v-6.9l-3.81-5.18h-31.89ZM69.74,37.31h-13.17c-1.1,0-2-.9-2-2s.9-2,2-2h13.17c1.1,0,2,.9,2,2s-.9,2-2,2Z"/>
  <polygon class="cls-1" points="85.04 23.92 84.23 21.51 81 21.51 81.62 23.92 85.04 23.92"/>
  <polygon class="cls-1" points="31.81 87.8 61.54 87.8 56.55 78.96 36.79 78.96 31.81 87.8"/>
  <path class="cls-1" d="M10.18,66.41v6.27c0,1.26,1.02,2.28,2.28,2.28h68.43c.61,0,1.18-.24,1.61-.67.63-.63.67-1.45.67-1.61v-6.27H10.18Z"/>
  <polygon class="cls-1" points="43.64 44.01 43.64 47.31 46.37 47.31 46.37 44.01 44.87 44.01 43.64 44.01"/>
  <polygon class="cls-1" points="83.17 44.01 81.39 44.01 80.44 44.01 80.44 47.31 83.17 47.31 83.17 44.01"/>
  <path class="cls-3" d="M89.54,26.94c.04-.06.07-.12.1-.18.02-.05.04-.11.06-.17.02-.07.05-.13.06-.2.01-.05.02-.11.03-.17.01-.08.02-.15.02-.23,0-.02,0-.04,0-.07,0-.04,0-.07-.01-.1,0-.07,0-.15-.02-.22-.01-.07-.03-.13-.04-.2-.01-.04-.01-.08-.03-.12l-2.16-6.41s-.02-.04-.03-.07c-.02-.07-.05-.13-.09-.19-.03-.06-.06-.11-.09-.17-.03-.05-.07-.1-.11-.15-.04-.06-.08-.11-.13-.16-.04-.04-.08-.08-.13-.12-.05-.05-.1-.09-.16-.13-.05-.04-.1-.06-.15-.1-.06-.03-.12-.07-.18-.1-.06-.03-.11-.05-.17-.07-.06-.02-.13-.04-.19-.06-.06-.01-.12-.02-.18-.03-.07-.01-.14-.02-.22-.02-.02,0-.05,0-.07,0h-5.71l-1.05-4.07c-.25-.95-1.13-1.56-2.07-1.49-.02,0-.05,0-.07,0h-26.72s-.05,0-.07,0c-.94-.06-1.82.54-2.07,1.49l-1.05,4.07h-5.71s-.04,0-.06,0c-.08,0-.17.01-.25.03-.05,0-.1.01-.15.03-.08.02-.15.04-.22.07-.05.02-.1.03-.15.06-.07.03-.13.07-.2.11-.05.03-.09.05-.13.08-.06.04-.12.09-.17.14-.04.04-.08.07-.12.11-.05.05-.09.11-.14.17-.04.05-.07.09-.1.14-.03.06-.06.11-.09.17-.03.06-.06.12-.09.19,0,.02-.02.04-.03.07l-2.16,6.41s-.02.08-.03.11c-.02.07-.03.13-.05.2-.01.07-.02.14-.02.21,0,.04-.01.07-.01.11,0,.02,0,.05,0,.07,0,.07.01.14.02.22,0,.06.02.12.03.18.02.06.04.12.06.19.02.06.04.12.07.18.03.06.06.11.09.16.03.06.06.11.1.16.04.05.08.1.12.15.04.05.08.09.13.14.05.04.1.08.15.12.05.04.1.08.16.11.05.03.1.06.16.09.07.03.13.06.2.09.02,0,.04.02.06.03.02,0,.04,0,.06.01.18.05.36.09.56.09,0,0,.01,0,.02,0,0,0,0,0,0,0h3.5l-2.47,3.36c-.25.34-.39.76-.39,1.18v16.84c0,1.1.9,2,2,2h6.73c1.1,0,2-.9,2-2v-5.29h26.07v5.29c0,1.1.9,2,2,2h4.72v11.1H10.18V30.2c0-1.26,1.02-2.28,2.28-2.28h16.92c1.1,0,2-.9,2-2s-.9-2-2-2H12.46c-3.46,0-6.28,2.82-6.28,6.28v42.49c0,3.46,2.82,6.28,6.28,6.28h19.74l-5.56,9.85c-.35.62-.34,1.38.01,1.99.36.61,1.02.99,1.73.99h36.58c.71,0,1.37-.38,1.73-.99.36-.61.36-1.37.01-1.99l-5.56-9.85h19.74c1.68,0,3.25-.65,4.44-1.84,1.66-1.66,1.84-3.66,1.84-4.44v-23.25s.01-.09.01-.13-.01-.09-.01-.13v-16.58c.03-.45-.09-.92-.38-1.31l-2.47-3.36h3.49s0,0,.01,0c.01,0,.02,0,.03,0,.19,0,.37-.04.54-.09.02,0,.05,0,.07-.01.02,0,.05-.02.07-.03.06-.02.12-.05.18-.08.06-.03.12-.06.18-.1.05-.03.09-.07.14-.1.06-.04.12-.09.17-.14.04-.04.07-.08.11-.12.05-.05.1-.11.14-.17.03-.05.06-.1.09-.15ZM84.23,21.51l.81,2.41h-3.42l-.62-2.41h3.23ZM83.17,40.01h-39.53v-6.88l3.83-5.2h31.89l3.81,5.18v6.9ZM73.16,15.95h2.27l2.07,7.97h-28.16l2.07-7.97h21.76ZM45.19,23.92h-3.42l.81-2.41h3.23l-.62,2.41ZM46.37,47.31h-2.73v-3.29h2.73v3.29ZM80.44,44.01h2.72v3.29h-2.72v-3.29ZM61.54,87.8h-29.73l4.99-8.83h19.76l4.99,8.83ZM82.5,74.3c-.43.43-1,.67-1.61.67H12.46c-1.26,0-2.28-1.02-2.28-2.28v-6.27h72.99v6.27c0,.16-.03.98-.67,1.61Z"/>
  <path class="cls-2" d="M69.74,33.31h-13.17c-1.1,0-2,.9-2,2s.9,2,2,2h13.17c1.1,0,2-.9,2-2s-.9-2-2-2Z"/>
  <path class="cls-2" d="M20.3,45.2c1.1,0,2-.9,2-2v-2.1h2.1c1.1,0,2-.9,2-2s-.9-2-2-2h-2.1v-2.1c0-1.1-.9-2-2-2s-2,.9-2,2v2.1h-2.1c-1.1,0-2,.9-2,2s.9,2,2,2h2.1v2.1c0,1.1.9,2,2,2Z"/>
  <path class="cls-3" d="M21.68,16.1h2.1v2.1c0,1.1.9,2,2,2s2-.9,2-2v-2.1h2.1c1.1,0,2-.9,2-2s-.9-2-2-2h-2.1v-2.1c0-1.1-.9-2-2-2s-2,.9-2,2v2.1h-2.1c-1.1,0-2,.9-2,2s.9,2,2,2Z"/>
  <path class="cls-3" d="M31.4,49.2c0-1.1-.9-2-2-2s-2,.9-2,2v2.1h-2.1c-1.1,0-2,.9-2,2s.9,2,2,2h2.1v2.1c0,1.1.9,2,2,2s2-.9,2-2v-2.1h2.1c1.1,0,2-.9,2-2s-.9-2-2-2h-2.1v-2.1Z"/>
</svg>