<svg xmlns="http://www.w3.org/2000/svg" xmlns:xlink="http://www.w3.org/1999/xlink" width="96" height="96" viewBox="0 0 96 96">
  <defs>
    <clipPath id="clip-path">
      <rect id="Rectangle_8678" data-name="Rectangle 8678" width="82.018" height="84" fill="none"/>
    </clipPath>
    <clipPath id="clip-money-paper">
      <rect width="96" height="96"/>
    </clipPath>
  </defs>
  <g id="money-paper" clip-path="url(#clip-money-paper)">
    <g id="Group_41217" data-name="Group 41217" transform="translate(7 6)">
      <g id="Group_41216" data-name="Group 41216" clip-path="url(#clip-path)">
        <path id="Path_43192" data-name="Path 43192" d="M71.617,13.667l5.694,5.076a1.2,1.2,0,0,0,1.7-.1l2.707-3.036a1.2,1.2,0,0,0-.1-1.7L75.923,8.837a1.2,1.2,0,0,0-1.7.1L71.52,11.97a1.2,1.2,0,0,0,.1,1.7" fill="#ed780f"/>
        <path id="Path_43193" data-name="Path 43193" d="M79.353,17.33l-6.565-5.854a3.2,3.2,0,0,0-4.519.259L56.9,24.491a3.2,3.2,0,0,0-.514,3.465L46.208,39.37a3.172,3.172,0,0,0-.049,4.187l-2.253,5.2a1.209,1.209,0,0,0,1.714,1.528l4.906-2.831a3.184,3.184,0,0,0,4.155-.527l10.18-11.42a3.156,3.156,0,0,0,.988.167c.062,0,.125,0,.187-.005a3.179,3.179,0,0,0,2.2-1.065L79.613,21.846a3.2,3.2,0,0,0-.26-4.516M52.226,43.666l-2.5-2.23L59.189,30.82l2.5,2.23ZM65.788,31.343l-4.132-3.684-.4-.358h0l-.837-.746,10.306-11.56,5.371,4.789Z" fill="#0f3d70"/>
        <path id="Path_43194" data-name="Path 43194" d="M50.072,28.724a2,2,0,0,0,2-2V6a6.009,6.009,0,0,0-6-6H6A6.009,6.009,0,0,0,0,6V62a6.011,6.011,0,0,0,6,6H8.265c-.862,3.619-.933,6.8-.234,8.866C10.138,83.087,18.284,84,25.4,84q.363,0,.72,0c7.279-.059,15.9-.955,17.974-7.421.665-2.074.53-5.172-.3-8.576h2.269a6.011,6.011,0,0,0,6-6V55.675a2,2,0,0,0-4,0V62a2.005,2.005,0,0,1-2,2h-3.51c-.006-.016-.01-.031-.016-.046a37.761,37.761,0,0,0-9.208-13.8A21.429,21.429,0,0,1,38,45.03a2,2,0,0,0,.027-3.11,19.625,19.625,0,0,0-2.367-1.67,2,2,0,0,0-1.148-1.963,21.87,21.87,0,0,0-17.273.123,2,2,0,0,0-1.1,1.357,1.974,1.974,0,0,0-.041.675,19.624,19.624,0,0,0-2.282,1.672,2,2,0,0,0,.077,3.109,21.479,21.479,0,0,1,4.638,4.9A37.79,37.79,0,0,0,9.5,64H6a2.007,2.007,0,0,1-2-2V6A2.006,2.006,0,0,1,6,4H46.069a2,2,0,0,1,2,2V26.724a2,2,0,0,0,2,2M22.837,49.462a25.447,25.447,0,0,0-4.509-5.7q.654-.4,1.349-.745a2,2,0,0,0,1.116-1.7,18.163,18.163,0,0,1,10.175-.035,2.051,2.051,0,0,0,.069.354,2,2,0,0,0,1.075,1.257q.732.342,1.421.752a25.582,25.582,0,0,0-4.367,5.685,2,2,0,0,0,.3,2.731c8.914,7.594,12.073,19.4,10.823,23.3-.994,3.1-5.505,4.573-14.2,4.643-8.65.081-13.225-1.333-14.269-4.414-1.127-3.329,1.121-15.375,10.6-23.6a2,2,0,0,0,.417-2.516" fill="#0f3d70"/>
        <path id="Path_43195" data-name="Path 43195" d="M33.98,16H10.038a2,2,0,0,1,0-4H33.98a2,2,0,0,1,0,4" fill="#0f3d70"/>
        <path id="Path_43196" data-name="Path 43196" d="M27.98,24H10.038a2,2,0,1,1,0-4H27.98a2,2,0,0,1,0,4" fill="#ed780f"/>
        <path id="Path_43197" data-name="Path 43197" d="M25,74.276V72.409a7.946,7.946,0,0,1-3.33-.842l.585-2.29a7.074,7.074,0,0,0,3.26.859c1.117,0,1.885-.442,1.885-1.216,0-.75-.629-1.21-2.087-1.7-2.1-.709-3.528-1.694-3.528-3.587,0-1.736,1.212-3.09,3.315-3.495V58.276h1.928v1.732a7.023,7.023,0,0,1,2.84.641l-.584,2.216a6.283,6.283,0,0,0-2.817-.677c-1.262,0-1.677.561-1.677,1.109,0,.639.684,1.061,2.347,1.677,2.336.82,3.267,1.9,3.267,3.678,0,1.744-1.224,3.22-3.477,3.611v2.013Z" fill="#ed780f"/>
      </g>
    </g>
  </g>
</svg>
