<svg xmlns="http://www.w3.org/2000/svg" xmlns:xlink="http://www.w3.org/1999/xlink" width="96" height="96" viewBox="0 0 96 96">
  <defs>
    <clipPath id="clip-path">
      <rect id="Rectangle_8703" data-name="Rectangle 8703" width="67.667" height="79.784" transform="translate(0 0)" fill="#fff"/>
    </clipPath>
    <clipPath id="clip-woman-headset-circle_2">
      <rect width="96" height="96"/>
    </clipPath>
  </defs>
  <g id="woman-headset-circle_2" data-name="woman-headset-circle – 2" clip-path="url(#clip-woman-headset-circle_2)">
    <g id="Group_41267" data-name="Group 41267" transform="translate(15 9)">
      <g id="Group_41266" data-name="Group 41266" clip-path="url(#clip-path)">
        <path id="Path_43299" data-name="Path 43299" d="M48.541,72.552H39.27a2,2,0,0,1,0-4h9.271a2,2,0,0,1,0,4" fill="#ed780f"/>
        <path id="Path_43300" data-name="Path 43300" d="M63.407,28.119c0-.169.016-.336.016-.506C63.423,12.387,50.148,0,33.833,0S4.244,12.387,4.244,27.613c0,.168.02.336.022.5A6.075,6.075,0,0,0,0,33.777v8.03a6.235,6.235,0,0,0,6.387,6.006h3.4c2.259,4.741,7.764,8.293,15.53,9.836a28.162,28.162,0,0,0-10.83,3.23,1.4,1.4,0,0,0-.118.076c-4.62,2.633-5.6,6.186-5.6,8.673a34.631,34.631,0,0,0,.879,8.606,2,2,0,0,0,2.143,1.53c.026,0,.048.008.075.008H55.744c.029,0,.057-.008.088-.009.061,0,.122.021.182.021a2,2,0,0,0,1.948-1.55,34.6,34.6,0,0,0,.879-8.561c0-6.524-6.049-10.742-17.028-11.922,8.066-1.484,13.763-5.077,16.067-9.938h3.4A6.234,6.234,0,0,0,67.667,41.8v-8.03a6.072,6.072,0,0,0-4.26-5.652m-8.566,41.6a30.691,30.691,0,0,1-.467,6.053H13.244a31.02,31.02,0,0,1-.467-6.1c0-2.2,1.215-3.936,3.714-5.319a2.3,2.3,0,0,0,.2-.124,25.475,25.475,0,0,1,9.467-2.659l6.478,5.65a2,2,0,0,0,2.606.02l6.481-5.485c5.259.6,13.123,2.428,13.123,7.963m-16.15-18.51a2,2,0,0,0-1.03,1.6,21.952,21.952,0,0,0,.458,6.754l-4.154,3.516-4.3-3.749a22.88,22.88,0,0,0,.478-6.725,2.006,2.006,0,0,0-.993-1.565c-3.048-1.761-5.608-5.209-7.027-9.461a1.892,1.892,0,0,0-1.5-1.323,3.106,3.106,0,0,1-1.083-1.873,1.228,1.228,0,0,0-.034-.129,1.15,1.15,0,0,1,.069-.827,1.971,1.971,0,0,0,.138-.371c1.429-5.51,4.274-6.613,7.288-7.781A15.991,15.991,0,0,0,30.466,27.6c2.372,2.671,5.325,5.987,9.662,8.089a21.675,21.675,0,0,0,8.113,2.075,4.208,4.208,0,0,1,0,.931,4.567,4.567,0,0,1-.732,1.721A2,2,0,0,0,45.892,41.7c-.25.667-.558,1.385-.9,2.115H34.561a2,2,0,0,0,0,4h7.991a12.9,12.9,0,0,1-3.861,3.4m3.694,2.344a19.691,19.691,0,0,0,5-5.74H53.2c-2.287,2.882-6.445,4.75-10.817,5.74m12.563-9.74h-5.26a4.788,4.788,0,0,0,1.149-1.181,8.667,8.667,0,0,0,1.34-3.235,1.681,1.681,0,0,0,.026-.171c.4-3.587-1.287-4.842-2.032-5.215a2.009,2.009,0,0,0-.9-.212h-.3a17.833,17.833,0,0,1-7.107-1.71c-3.631-1.76-6.183-4.632-8.433-7.167-.555-.625-.994-1.154-1.278-1.508a2,2,0,0,0-3.221.147c-.6.9-1.829,1.38-3.382,1.983-3.254,1.261-7.7,2.985-9.67,10.333a5.153,5.153,0,0,0-.237,3.434,6.992,6.992,0,0,0,3,4.424,21.454,21.454,0,0,0,7.263,9.949C19.2,52.293,12.64,48.816,12.64,42.752c0-16.817,9.46-30.5,21.089-30.5,11.743,0,21.3,13.682,21.3,30.5a8.173,8.173,0,0,1-.079,1.061m8.719-2.018a2.24,2.24,0,0,1-2.387,2.018H58.965c.03-.351.062-.7.062-1.061,0-19.023-11.348-34.5-25.3-34.5C19.66,8.253,8.64,23.406,8.64,42.752c0,.359.031.71.061,1.061H6.391A2.239,2.239,0,0,1,4,41.8V33.783a2.239,2.239,0,0,1,2.391-2.018c.013,0,.026,0,.039,0,.029,0,.058,0,.089,0s.038-.009.059-.011a1.965,1.965,0,0,0,1.741-2.472c-.042-.553-.075-1.109-.075-1.661C8.244,14.593,19.723,4,33.833,4s25.59,10.593,25.59,23.613q0,.7-.044,1.4c0,.05,0,.1,0,.147a1.976,1.976,0,0,0,1.893,2.606,2.24,2.24,0,0,1,2.391,2.012Z" fill="#fff"/>
        <path id="Path_43301" data-name="Path 43301" d="M37.931,45.813a3.618,3.618,0,1,1-3.618-3.618,3.618,3.618,0,0,1,3.618,3.618" fill="#ed780f"/>
      </g>
    </g>
  </g>
</svg>
