<svg id="Layer_1" data-name="Layer 1" xmlns="http://www.w3.org/2000/svg" xmlns:xlink="http://www.w3.org/1999/xlink" viewBox="0 0 96 96"><defs><style>.cls-1{fill:none;}.cls-2{clip-path:url(#clip-path);}.cls-3{fill:#e8f2f9;}.cls-4{fill:#c0d6e2;}.cls-5{fill:#0f3d70;}.cls-6{clip-path:url(#clip-path-2);}.cls-7{fill:#ea7923;}.cls-8{fill:#1a5387;}.cls-9{fill:#fff;}</style><clipPath id="clip-path"><path class="cls-1" d="M86.37,38.78H6.4s1.85,4.32,1.85,12c0,7.29-1.85,11-1.85,11h80A5.43,5.43,0,0,0,92,56.49V44A5.44,5.44,0,0,0,86.37,38.78Z"/></clipPath><clipPath id="clip-path-2"><path class="cls-1" d="M87.62,65.46H2.42s2,5,2,13.79c0,8.38-2,12.64-2,12.64h85.2a6,6,0,0,0,6-6V71.44a6,6,0,0,0-6-6Z"/></clipPath></defs><title>book-paper-money</title><g id="Group_12166" data-name="Group 12166"><g id="Group_11672" data-name="Group 11672"><g id="Group_7538" data-name="Group 7538"><g class="cls-2"><g id="Group_7537" data-name="Group 7537"><path id="Path_3975" data-name="Path 3975" class="cls-3" d="M6.4,40.61H92v4.11H6.4Z"/><rect id="Rectangle_2748" data-name="Rectangle 2748" class="cls-4" x="6.4" y="44.72" width="85.61" height="3.73"/><rect id="Rectangle_2749" data-name="Rectangle 2749" class="cls-3" x="6.4" y="48.44" width="85.61" height="3.73"/><path id="Path_3974" data-name="Path 3974" class="cls-4" d="M6.4,52.17H92v4.11H6.4Z"/><path id="Path_3976" data-name="Path 3976" class="cls-3" d="M6.4,55.9H92V60H6.4Z"/></g></g></g><g id="Group_7539" data-name="Group 7539"><path id="Path_3971" data-name="Path 3971" class="cls-5" d="M86.24,63.82H6.56a2.08,2.08,0,0,1-.26-4.16H86.24a3.27,3.27,0,0,0,3.37-3.13V44a3.26,3.26,0,0,0-3.37-3.13H6.56A2.08,2.08,0,0,1,6.3,36.7H86.24A7.57,7.57,0,0,1,94.08,44V56.49A7.61,7.61,0,0,1,86.24,63.82Z"/></g><g id="Group_7542" data-name="Group 7542"><g class="cls-6"><g id="Group_7541" data-name="Group 7541"><path id="Path_3979" data-name="Path 3979" class="cls-3" d="M2.42,67.59H93.59v4.67H2.42Z"/><path id="Path_3978" data-name="Path 3978" class="cls-4" d="M2.42,71.88H93.59v4.67H2.42Z"/><path id="Path_3977" data-name="Path 3977" class="cls-3" d="M2.42,76.2H93.59v4.67H2.42Z"/><path id="Path_3980" data-name="Path 3980" class="cls-4" d="M2.42,80.49H93.59v4.67H2.42Z"/><path id="Path_3981" data-name="Path 3981" class="cls-3" d="M2.42,85.16H93.59v4.67H2.42Z"/></g></g></g><g id="Group_7543" data-name="Group 7543"><path id="Path_3973" data-name="Path 3973" class="cls-7" d="M87.62,94.26H2.43a2.39,2.39,0,1,1,0-4.78H87.62a3.61,3.61,0,0,0,3.6-3.6V71.44a3.6,3.6,0,0,0-3.6-3.6H2.43a2.38,2.38,0,1,1-.11-4.75h85.3A8.39,8.39,0,0,1,96,71.47V85.92A8.38,8.38,0,0,1,87.62,94.26Z"/></g></g><g id="Group_12164" data-name="Group 12164"><g id="Group_11544" data-name="Group 11544"><path id="Path_4783" data-name="Path 4783" class="cls-5" d="M41.48,12.78a12.34,12.34,0,0,0-4.59-2.16l0,6.46c5.13,1.25,7.33,3.26,7.36,6.86V24c0,3.67-2.86,6.15-7.14,6.57l0,3.31H34.23l0-3.36a15.66,15.66,0,0,1-8-3.29l2.14-3.11a12.23,12.23,0,0,0,5.94,2.92l0-6.63c-4.92-1.25-7.22-3.05-7.24-6.86V13.5c0-3.6,2.82-6.08,7-6.47l0-2,2.93,0,0,2a13.18,13.18,0,0,1,6.34,2.52Zm-7.22,3.61,0-6c-2.16.22-3.23,1.34-3.21,2.82v0c0,1.41.65,2.32,3.24,3.11ZM37,21.06l0,6.13c2.15-.25,3.33-1.3,3.32-2.92v-.06c0-1.49-.76-2.39-3.35-3.15Z"/><g id="Group_11543" data-name="Group 11543"><g id="Group_8878" data-name="Group 8878"><path id="Path_4829" data-name="Path 4829" class="cls-5" d="M48.52,1.63l20,0L82.17,16.9h0L82.1,94.4l-67.35-.07L14.84,1.6l33.68,0"/><path id="Path_4830" data-name="Path 4830" class="cls-8" d="M68.51,1.65V16.89H82.17Z"/></g></g></g><g id="Group_11546" data-name="Group 11546"><path id="Path_4783-2" data-name="Path 4783-2" class="cls-9" d="M68,60.81A10,10,0,0,0,64.28,59l0,5.29c4.2,1,6,2.67,6,5.62V70c0,3-2.34,5-5.85,5.38l0,2.71h-2.4l0-2.76a12.65,12.65,0,0,1-6.53-2.69l1.75-2.55a10.13,10.13,0,0,0,4.87,2.4l0-5.43c-4-1-5.92-2.5-5.94-5.62V61.4c0-2.95,2.31-5,5.76-5.3V54.5h2.4v1.65a10.84,10.84,0,0,1,5.2,2.06Zm-5.92,3,0-4.89c-1.76.18-2.64,1.1-2.63,2.3v0c0,1.16.54,1.9,2.66,2.55Zm2.21,3.81,0,5c1.76-.21,2.72-1.07,2.71-2.4v0c0-1.22-.61-2-2.73-2.58Z"/><path id="Path_4849" data-name="Path 4849" class="cls-9" d="M50.63,29h-29a1.32,1.32,0,0,1,0-2.63h29a1.32,1.32,0,1,1,0,2.63Z"/><path id="Path_4850" data-name="Path 4850" class="cls-9" d="M50.63,35.11h-29a1.32,1.32,0,0,1,0-2.63h29a1.32,1.32,0,1,1,0,2.63Z"/><path id="Path_4851" data-name="Path 4851" class="cls-9" d="M50.63,41.26h-29a1.32,1.32,0,0,1-.05-2.63h29A1.3,1.3,0,0,1,52,39.91a1.32,1.32,0,0,1-1.29,1.35Z"/><path id="Path_4852" data-name="Path 4852" class="cls-9" d="M50.63,47.4h-29a1.32,1.32,0,0,1,0-2.63h29a1.32,1.32,0,1,1,0,2.63Z"/><path id="Path_4854" data-name="Path 4854" class="cls-9" d="M67.31,29h-7a1.32,1.32,0,1,1,0-2.63h7a1.32,1.32,0,0,1,0,2.63Z"/><path id="Path_4855" data-name="Path 4855" class="cls-9" d="M67.31,35.11h-7a1.32,1.32,0,1,1,0-2.63h7a1.32,1.32,0,0,1,0,2.63Z"/><path id="Path_4856" data-name="Path 4856" class="cls-9" d="M67.31,41.26h-7a1.32,1.32,0,1,1,0-2.63h7a1.3,1.3,0,0,1,1.34,1.28,1.32,1.32,0,0,1-1.29,1.35Z"/><path id="Path_4857" data-name="Path 4857" class="cls-9" d="M67.31,47.4h-7a1.32,1.32,0,1,1,0-2.63h7a1.32,1.32,0,0,1,0,2.63Z"/></g></g></g></svg>