<svg id="Layer_1" data-name="Layer 1" xmlns="http://www.w3.org/2000/svg" viewBox="0 0 112 112"><defs><style>.cls-1{fill:#0f3d70;}.cls-2{fill:#ea7923;}.cls-3{fill:#c65d17;}.cls-4{fill:#1a5387;}.cls-5{fill:#fff;}</style></defs><title>two-paper</title><g id="Group_11817" data-name="Group 11817"><g id="Group_11544" data-name="Group 11544"><path id="Path_4783" data-name="Path 4783" class="cls-1" d="M40.07,10.46a11.64,11.64,0,0,0-4.3-2l0,6.05c4.8,1.16,6.86,3,6.88,6.42V21c0,3.44-2.68,5.75-6.68,6.15l0,3.09-2.74,0,0-3.15A14.53,14.53,0,0,1,25.81,24l2-2.91a11.5,11.5,0,0,0,5.56,2.75l0-6.21c-4.61-1.17-6.76-2.86-6.78-6.42v-.07c0-3.37,2.64-5.69,6.58-6.06V3.26l2.74,0V5.13a12.38,12.38,0,0,1,5.94,2.35Zm-6.76,3.39,0-5.58c-2,.2-3,1.25-3,2.63v0c0,1.32.61,2.16,3,2.91Zm2.52,4.36,0,5.73c2-.23,3.11-1.21,3.1-2.73v-.06c0-1.39-.71-2.24-3.14-2.94Z"/><g id="Group_11543" data-name="Group 11543"><g id="Group_8878" data-name="Group 8878"><path id="Path_4827" data-name="Path 4827" class="cls-2" d="M70.21,20l18.07,4.86L96.94,42h0L78.11,112,17.24,95.63l22.54-83.8L70.21,20"/><path id="Path_4828" data-name="Path 4828" class="cls-3" d="M88.28,24.87l-3.7,13.77L96.94,42Z"/><path id="Path_4829" data-name="Path 4829" class="cls-1" d="M46.66,0l18.71,0L78.15,14.32h0l-.06,72.52-63-.06L15.14,0,46.66,0"/><path id="Path_4830" data-name="Path 4830" class="cls-4" d="M65.37.05l0,14.26h12.8Z"/></g></g></g><g id="Group_11546" data-name="Group 11546"><path id="Path_4783-2" data-name="Path 4783-2" class="cls-5" d="M64.93,55.41a9.5,9.5,0,0,0-3.52-1.66l0,5c3.93.95,5.61,2.49,5.63,5.26v0c0,2.82-2.19,4.72-5.47,5l0,2.52-2.24,0,0-2.58a12,12,0,0,1-6.12-2.52l1.64-2.38a9.56,9.56,0,0,0,4.56,2.24l0-5.09c-3.77-1-5.54-2.34-5.56-5.26v0c0-2.76,2.16-4.66,5.39-5V49.5h2.25V51A10.13,10.13,0,0,1,66.35,53Zm-5.54,2.77,0-4.57c-1.65.16-2.48,1-2.46,2.16v0c0,1.08.5,1.78,2.49,2.39Zm2.06,3.57,0,4.7c1.65-.19,2.55-1,2.54-2.24v0c0-1.14-.58-1.83-2.57-2.41Z"/><path id="Path_4849" data-name="Path 4849" class="cls-5" d="M48.64,25.61H21.53a1.23,1.23,0,0,1,0-2.46H48.64a1.23,1.23,0,0,1,0,2.46Z"/><path id="Path_4850" data-name="Path 4850" class="cls-5" d="M48.64,31.36H21.53a1.23,1.23,0,0,1,0-2.46H48.64a1.23,1.23,0,0,1,0,2.46Z"/><path id="Path_4851" data-name="Path 4851" class="cls-5" d="M48.64,37.11H21.53a1.23,1.23,0,1,1-.11-2.46H48.64a1.21,1.21,0,0,1,1.22,1.23,1.23,1.23,0,0,1-1.18,1.23Z"/><path id="Path_4852" data-name="Path 4852" class="cls-5" d="M48.64,42.86H21.53a1.24,1.24,0,0,1-1.2-1.27,1.25,1.25,0,0,1,1.2-1.2H48.64a1.24,1.24,0,0,1,0,2.47Z"/><path id="Path_4854" data-name="Path 4854" class="cls-5" d="M64.24,25.61H57.67a1.23,1.23,0,0,1,0-2.46h6.57a1.23,1.23,0,0,1,0,2.46Z"/><path id="Path_4855" data-name="Path 4855" class="cls-5" d="M64.24,31.36H57.67a1.23,1.23,0,0,1,0-2.46h6.57a1.23,1.23,0,0,1,0,2.46Z"/><path id="Path_4856" data-name="Path 4856" class="cls-5" d="M64.24,37.11H57.67a1.23,1.23,0,0,1,0-2.46h6.57a1.23,1.23,0,0,1,.05,2.46Z"/><path id="Path_4857" data-name="Path 4857" class="cls-5" d="M64.24,42.86H57.67a1.23,1.23,0,0,1-1.19-1.27,1.24,1.24,0,0,1,1.19-1.2h6.57a1.24,1.24,0,0,1,0,2.47Z"/></g></g></svg>