<svg xmlns="http://www.w3.org/2000/svg" xmlns:xlink="http://www.w3.org/1999/xlink" width="96" height="96" viewBox="0 0 96 96">
  <defs>
    <clipPath id="clip-path">
      <rect id="Rectangle_8692" data-name="Rectangle 8692" width="76.778" height="76.775" transform="translate(0 0)" fill="none"/>
    </clipPath>
    <clipPath id="clip-military-members">
      <rect width="96" height="96"/>
    </clipPath>
  </defs>
  <g id="military-members" clip-path="url(#clip-military-members)">
    <g id="Group_41245" data-name="Group 41245" transform="translate(10 10)">
      <g id="Group_41244" data-name="Group 41244" clip-path="url(#clip-path)">
        <path id="Path_43268" data-name="Path 43268" d="M76.516,60.108a2.152,2.152,0,0,0,.1-.189c.023-.055.035-.114.053-.17a2.03,2.03,0,0,0,.064-.205c.012-.059.012-.121.019-.182a1.926,1.926,0,0,0,.022-.216v-.008h0c0-.953-.176-9.129-7.051-13.629a15.549,15.549,0,0,0-9.85-2.364l-1.287-1.257a2.007,2.007,0,0,0-.452-.322,14,14,0,0,1-.353-3.666,18.791,18.791,0,0,0,6.578-8.76,6.12,6.12,0,0,0,2.568-4.275,5.081,5.081,0,0,0-.825-4.068,4.91,4.91,0,0,0,.3-1.219,1.782,1.782,0,0,0,.011-.207V18.027a30.43,30.43,0,0,0,.614-4.833,38.456,38.456,0,0,0-1.072-6.239c-.312-3.327-3.5-5.2-6.373-5.842A38.1,38.1,0,0,0,50.688,0a.877.877,0,0,0-.1,0,61.635,61.635,0,0,0-6.67.778c-.651.1-1.3.2-1.979.3-3.744.592-6.294,2.9-6.546,5.916-.174.85-.93,4.6-1.059,6.018-.006.06-.009.12-.009.181A39.717,39.717,0,0,0,34.9,18.21a1.512,1.512,0,0,0,.041.164v1.051a4.774,4.774,0,0,0,.384,1.749,1.981,1.981,0,0,0-.4.6,5.087,5.087,0,0,0-.285,3.182,6.356,6.356,0,0,0,2.734,4.1,18.763,18.763,0,0,0,6.5,8.855,17.039,17.039,0,0,1-.3,3.642,2,2,0,0,0-.481.338l-1.3,1.271a16.239,16.239,0,0,0-2.314-.025C37.848,30.41,29.65,20.7,19.805,20.7,8.7,20.7,0,32.586,0,47.76,0,53.022,4.126,57.2,10.983,59.152a19.6,19.6,0,0,0-6.247,2.193c-.034.02-.067.041-.1.063C.9,63.547.106,66.448.106,68.475A27.242,27.242,0,0,0,.8,75.225,2,2,0,0,0,2.9,76.76c.019,0,.036.006.055.006h33.83c.024,0,.045-.006.068-.007.048,0,.1.016.142.016a2,2,0,0,0,1.947-1.55,27.139,27.139,0,0,0,.69-6.7c0-4.776-3.909-8.02-11.074-9.3,7-1.921,11.217-6.115,11.217-11.459,0-.213-.009-.422-.012-.633a11.852,11.852,0,0,1,2.438.107,2,2,0,0,0,1.7-.546l.735-.718,4.341,3.383a2,2,0,0,0,1.229.422h1.272a2,2,0,0,0,1.23-.423l4.339-3.384.724.707a2,2,0,0,0,1.713.544,11.642,11.642,0,0,1,8.054,1.635,12.145,12.145,0,0,1,5.046,8.283H67.609a2,2,0,0,0,0,4h7.168a2.055,2.055,0,0,0,.4-.04c.06-.013.116-.037.175-.054s.136-.036.2-.062.106-.058.158-.086a1.985,1.985,0,0,0,.182-.1c.046-.031.085-.071.129-.106a2.006,2.006,0,0,0,.167-.138,1.581,1.581,0,0,0,.1-.126,1.885,1.885,0,0,0,.14-.17c.032-.046.054-.1.082-.149M9.31,44.291c-.009-.043-.02-.086-.033-.128a.435.435,0,0,1,.026-.311,2,2,0,0,0,.137-.37c1.043-4.022,3.035-4.794,5.343-5.688a14.515,14.515,0,0,0,2.424-1.12,23.753,23.753,0,0,0,7.333,6.052,17,17,0,0,0,6.014,1.613c0,.067-.007.141-.014.222a3.388,3.388,0,0,1-.383.984,2,2,0,0,0-1.4,1.242c-.895,2.387-2.548,5.556-5.344,7.094a2,2,0,0,0-1.03,1.6,18.093,18.093,0,0,0,.3,5.076l-2.688,2.275-2.813-2.454a18.62,18.62,0,0,0,.318-5.058,2,2,0,0,0-.992-1.564,12.687,12.687,0,0,1-5.213-7.044A2,2,0,0,0,9.878,45.4a2.307,2.307,0,0,1-.568-1.112M35.628,68.566a23.289,23.289,0,0,1-.288,4.2H4.393a23.508,23.508,0,0,1-.287-4.245c0-.965.272-2.4,2.627-3.7a1.693,1.693,0,0,0,.174-.108,18.982,18.982,0,0,1,6.908-1.959l4.842,4.224a2,2,0,0,0,2.607.019l4.845-4.1c3.4.418,9.519,1.717,9.519,5.672M28.258,55.14a18.92,18.92,0,0,0,3.877-6.029,3.958,3.958,0,0,0,1.237-1.18,7.168,7.168,0,0,0,1.108-2.668c.011-.057.02-.114.026-.171.34-3.051-1.157-4.15-1.816-4.481a2,2,0,0,0-.9-.212h-.212a13.286,13.286,0,0,1-5.3-1.274,21.037,21.037,0,0,1-6.361-5.419c-.423-.475-.756-.879-.974-1.148a2,2,0,0,0-3.218.15,5.026,5.026,0,0,1-2.392,1.355c-2.451.95-6.143,2.38-7.726,8.246a4.418,4.418,0,0,0-.192,2.911A5.961,5.961,0,0,0,7.8,48.828a17.893,17.893,0,0,0,4.159,6.442C7.7,54.025,4,51.6,4,47.76,4,35.044,11.09,24.7,19.805,24.7c8.8,0,15.966,10.345,15.966,23.061,0,3.715-3.422,6.1-7.513,7.38m29.41-36.15a41.724,41.724,0,0,0-6.852-.755,42.1,42.1,0,0,0-6.751.731A47.453,47.453,0,0,1,39,19.614a.574.574,0,0,1-.065-.245V17.951c3.906-1.57,7.937-3.164,11.74-3.164,3.237,0,6.693,1.31,10.035,2.577.569.216,1.137.431,1.7.64V19.24a3.663,3.663,0,0,1-.106.37,45.5,45.5,0,0,1-4.64-.62M39.335,7.672a2.222,2.222,0,0,0,.038-.292c.076-1.375,1.764-2.125,3.158-2.345.665-.095,1.329-.2,2-.3A58.828,58.828,0,0,1,50.714,4a34.226,34.226,0,0,1,7.955,1.005c1.6.355,3.245,1.286,3.309,2.379a2,2,0,0,0,.053.354,38.079,38.079,0,0,1,1,5.454c0,.086-.009.308-.054.741-.283-.106-.562-.2-.845-.311-3.679-1.395-7.483-2.837-11.453-2.837-4.23,0-8.477,1.557-12.316,3.087-.023-.276-.034-.472-.037-.593.127-1.184.768-4.427,1.012-5.609m11.5,38.063L47.3,42.978a19.417,19.417,0,0,0,.538-6.273,2,2,0,0,0-1.017-1.662c-2.508-1.413-4.691-4.387-5.989-8.159a2,2,0,0,0-1.5-1.31,2.684,2.684,0,0,1-.806-1.506,1.114,1.114,0,0,1,0-.474c.1.008.2.029.3.029.051,0,.1,0,.155,0a49.15,49.15,0,0,0,5.723-.7,38.513,38.513,0,0,1,6.106-.679,38.663,38.663,0,0,1,6.193.7,46.448,46.448,0,0,0,5.348.683,2.189,2.189,0,0,0,.229,0,3.857,3.857,0,0,0,.43-.072,2.45,2.45,0,0,1-.031.66,3.421,3.421,0,0,1-.523,1.349,2,2,0,0,0-1.519,1.306c-1.33,3.805-3.5,6.7-6.11,8.165a2,2,0,0,0-1.023,1.669,18.5,18.5,0,0,0,.576,6.275Z" fill="#0f3d70"/>
        <path id="Path_43269" data-name="Path 43269" d="M58.186,74.629a2,2,0,0,1-.972-.252L50,70.361a2,2,0,0,1-1.027-1.747V55.762a2,2,0,0,1,2-2H65.4a2,2,0,0,1,2,2V68.613a2,2,0,0,1-1.027,1.748l-7.214,4.016a2,2,0,0,1-.973.252m-5.213-7.191,5.213,2.9,5.214-2.9V57.762H52.973Z" fill="#ed780f"/>
      </g>
    </g>
  </g>
</svg>
