<?xml version="1.0" encoding="UTF-8"?>
<!-- Generator: Adobe Illustrator 22.0.1, SVG Export Plug-In . SVG Version: 6.00 Build 0)  -->
<svg version="1.1" id="Layer_1" xmlns="http://www.w3.org/2000/svg" xmlns:xlink="http://www.w3.org/1999/xlink" x="0px" y="0px" viewBox="0 0 80 80" style="enable-background:new 0 0 80 80;" xml:space="preserve">
<style type="text/css">
	.st0{fill:#0667BA;}
</style>
<g>
	<g id="arrow-down-circle-border">
		<g id="Group_8468" transform="translate(3984 -2203)">
			<g id="Group_8031" transform="translate(-3975 2212)">
				<g id="Group_8030" transform="translate(0)">
					<path id="Path_4245" class="st0" d="M31.1,62.1C13.9,62.1,0,48.2,0,31.1C0,13.9,13.9,0,31.1,0c17.2,0,31.1,13.9,31.1,31.1       C62.1,48.2,48.2,62.1,31.1,62.1z M31.1,4.4C16.4,4.4,4.4,16.4,4.4,31.1c0,14.7,11.9,26.6,26.7,26.7c14.7,0,26.6-11.9,26.7-26.7       C57.7,16.4,45.8,4.4,31.1,4.4L31.1,4.4z"/>
					<path id="Path_4246" class="st0" d="M31.6,45.8c-0.5,0-1-0.2-1.3-0.5L19.9,35c-0.7-0.7-0.8-1.9,0-2.7c0.7-0.7,1.9-0.8,2.7,0       l8.9,8.8l7.9-9.2c0.7-0.8,1.9-0.9,2.7-0.2c0.8,0.7,0.9,1.9,0.2,2.7L33,45.1C32.7,45.5,32.2,45.8,31.6,45.8L31.6,45.8z"/>
				</g>
				<path id="Path_4247" class="st0" d="M31.4,44.7c-1,0-1.9-0.9-1.9-1.9V19.5c0-1,0.9-1.9,1.9-1.9s1.9,0.9,1.9,1.9v23.3      C33.3,43.8,32.5,44.7,31.4,44.7z"/>
			</g>
		</g>
	</g>
</g>
</svg>