<?xml version="1.0" encoding="UTF-8"?>
<svg xmlns="http://www.w3.org/2000/svg" xmlns:xlink="http://www.w3.org/1999/xlink" viewBox="0 0 248.46 160.29">
  <defs>
    <style>
      .cls-1, .cls-2, .cls-3, .cls-4 {
        fill: none;
      }

      .cls-5 {
        fill: url(#linear-gradient-7);
      }

      .cls-6 {
        fill: url(#linear-gradient-5);
      }

      .cls-7 {
        fill: url(#linear-gradient-6);
      }

      .cls-8 {
        fill: url(#linear-gradient-4);
      }

      .cls-9 {
        fill: url(#linear-gradient-3);
      }

      .cls-10 {
        fill: url(#linear-gradient-2);
      }

      .cls-11 {
        fill: #00a7e0;
      }

      .cls-12 {
        fill: url(#linear-gradient);
      }

      .cls-2, .cls-3, .cls-13 {
        stroke: #414141;
      }

      .cls-2, .cls-3, .cls-13, .cls-4 {
        stroke-miterlimit: 10;
      }

      .cls-2, .cls-13 {
        stroke-width: .46px;
      }

      .cls-3, .cls-4 {
        stroke-width: .47px;
      }

      .cls-14 {
        isolation: isolate;
      }

      .cls-15 {
        clip-path: url(#clippath-1);
      }

      .cls-16 {
        fill: #fff;
      }

      .cls-17 {
        fill: #8dc6e7;
      }

      .cls-18 {
        mix-blend-mode: screen;
      }

      .cls-13 {
        fill: url(#linear-gradient-8);
      }

      .cls-4 {
        stroke: #c7c7c7;
      }

      .cls-19 {
        fill: #0071b9;
      }

      .cls-20 {
        clip-path: url(#clippath);
      }
    </style>
    <clipPath id="clippath">
      <path class="cls-1" d="M235.7,2.3H14.61C8.4,2.3,3.31,7.39,3.31,13.6v131.35c0,6.21,5.08,11.3,11.3,11.3h221.09c6.21,0,11.3-5.08,11.3-11.3V13.6c0-6.21-5.08-11.3-11.3-11.3Z"/>
    </clipPath>
    <linearGradient id="linear-gradient" x1="59.37" y1="209.4" x2="274.37" y2="21.53" gradientUnits="userSpaceOnUse">
      <stop offset="0" stop-color="#003775"/>
      <stop offset=".12" stop-color="#005da6"/>
      <stop offset=".14" stop-color="#006db3"/>
      <stop offset=".18" stop-color="#0086c6"/>
      <stop offset=".21" stop-color="#0098d4"/>
      <stop offset=".25" stop-color="#00a3dd"/>
      <stop offset=".29" stop-color="#00a7e0"/>
      <stop offset=".37" stop-color="#00b0e5"/>
      <stop offset=".48" stop-color="#00b4e7"/>
      <stop offset=".62" stop-color="#00a8e1"/>
      <stop offset=".64" stop-color="#00a7e0"/>
      <stop offset=".81" stop-color="#005da6"/>
      <stop offset="1" stop-color="#002d64"/>
    </linearGradient>
    <linearGradient id="linear-gradient-2" x1="21.89" y1="166.5" x2="236.89" y2="-21.36" gradientUnits="userSpaceOnUse">
      <stop offset="0" stop-color="#005da6"/>
      <stop offset="0" stop-color="#005ea7"/>
      <stop offset=".14" stop-color="#007ec0"/>
      <stop offset=".27" stop-color="#0094d1"/>
      <stop offset=".39" stop-color="#00a2dc"/>
      <stop offset=".5" stop-color="#00a7e0"/>
      <stop offset=".78" stop-color="#0071b9"/>
      <stop offset="1" stop-color="#005da6"/>
    </linearGradient>
    <linearGradient id="linear-gradient-3" x1="23.01" y1="167.79" x2="238.01" y2="-20.08" xlink:href="#linear-gradient-2"/>
    <linearGradient id="linear-gradient-4" x1="26.11" y1="171.33" x2="241.11" y2="-16.53" xlink:href="#linear-gradient-2"/>
    <linearGradient id="linear-gradient-5" x1="20.21" y1="164.58" x2="235.21" y2="-23.28" xlink:href="#linear-gradient-2"/>
    <linearGradient id="linear-gradient-6" x1="24.23" y1="169.19" x2="239.23" y2="-18.68" xlink:href="#linear-gradient-2"/>
    <linearGradient id="linear-gradient-7" x1="63.65" y1="214.3" x2="278.65" y2="26.44" xlink:href="#linear-gradient-2"/>
    <linearGradient id="linear-gradient-8" x1="30.54" y1="67.11" x2="61.82" y2="67.11" gradientUnits="userSpaceOnUse">
      <stop offset="0" stop-color="#e6e6e6"/>
      <stop offset="1" stop-color="#bdbdbd"/>
    </linearGradient>
    <clipPath id="clippath-1">
      <rect class="cls-1" x="30.54" y="54.88" width="31.28" height="24.46" rx="3.67" ry="3.67"/>
    </clipPath>
  </defs>
  <g class="cls-14">
    <g id="GoRewards_Backl" data-name="GoRewards Backl">
      <g>
        <path class="cls-11" d="M235.62,2.31H12.98C6.73,2.31,1.61,7.46,1.61,13.75v132.91c0,6.29,5.12,11.43,11.38,11.43h222.64c6.26,0,11.38-5.15,11.38-11.43V13.75c0-6.29-5.12-11.43-11.38-11.43Z"/>
        <path class="cls-19" d="M235.7,2.31H14.61C8.4,2.31,3.31,7.4,3.31,13.61v131.35c0,6.21,5.08,11.3,11.3,11.3h221.09c6.21,0,11.3-5.08,11.3-11.3V13.61c0-6.21-5.08-11.3-11.3-11.3Z"/>
        <g class="cls-20">
          <g>
            <path class="cls-12" d="M253.63,163.93c1.27-.22,2.54-.45,3.8-.7,0-.2,0-.4.01-.6-1.37.27-2.75.52-4.13.77-2.85-4.81-5.96-9.45-9.32-13.89,4.64-.61,9.25-1.42,13.82-2.43,0-.2,0-.4.01-.6-4.7,1.04-9.45,1.87-14.24,2.5-2.55-3.35-5.25-6.58-8.07-9.7,7.59-.66,15.13-1.86,22.56-3.61,0-.2,0-.39.01-.59-7.59,1.8-15.3,3.02-23.06,3.67-4.78-5.22-9.92-10.1-15.4-14.59,6.02.1,12.08-.19,18.17-.87,7.03-.79,13.92-2.09,20.63-3.88,0-.2,0-.41.01-.61-6.74,1.8-13.65,3.11-20.71,3.91-6.31.71-12.6.99-18.84.85-5.08-4.11-10.43-7.9-16.03-11.32,6.39.96,12.83,1.44,19.27,1.44,12.32,0,24.64-1.75,36.54-5.23,0-.2,0-.41.01-.61-11.9,3.5-24.22,5.26-36.55,5.26-6.88,0-13.76-.55-20.58-1.65-14.66-8.76-30.96-15.06-48.31-18.32-3.37-2.14-6.67-4.45-9.88-6.94-6.62-5.14-12.78-10.98-18.31-17.36-23.39-26.98-33.52-61.01-30.97-94.08-.2,0-.39,0-.59,0-2.54,33.2,7.63,67.37,31.12,94.46,5.56,6.41,11.75,12.28,18.39,17.44,2.84,2.21,5.75,4.28,8.73,6.21-4.2-.74-8.45-1.32-12.77-1.7-2.29-.32-4.59-.55-6.91-.7-13.08-11.12-23.83-24.36-32-39.42l-3.82-7.06-10.14-.47-4.19,8.25,3.82,7.05c6.49,11.97,14.44,22.91,23.75,32.7-4.03.45-8.02,1.07-11.97,1.84-15.93-18.38-27.69-40.04-34.35-63.54l-2.18-7.71-8.71-3.09-6.98,7.52,2.19,7.72c6.57,23.23,17.7,44.83,32.61,63.64-3.34,1.09-6.63,2.3-9.87,3.62C44.45,68.23,30.46,27.72,30.38-14.93c0-3.43.08-6.84.26-10.25-.2,0-.39,0-.59,0-.17,3.4-.26,6.82-.26,10.24.08,42.72,14.08,83.31,39.84,116.64-4.77,1.96-9.44,4.17-13.98,6.62C29.13,72.88,14.74,30.09,14.66-14.9c0-3.43.07-6.85.23-10.25-.2,0-.39,0-.59,0-.16,3.4-.24,6.82-.23,10.25.08,45.08,14.49,87.97,41.05,123.51-3.12,1.7-6.18,3.52-9.18,5.44C18.46,76.87,3.55,32.13,3.47-14.88c0-3.43.07-6.85.22-10.26-.2,0-.39,0-.59,0-.15,3.41-.23,6.82-.22,10.26.09,47.12,15.02,91.97,42.57,129.24-4.66,3.01-9.15,6.29-13.46,9.81C12.75,97.41-.63,67.18-7.47,35.1l-.12,2.54C-.57,68.94,12.67,98.41,31.5,124.6c-8.59,7.09-16.43,15.18-23.31,24.17,0,0-2.16,2.75-2.83,3.71-.68.96-2.57,3.92-2.57,3.92-16.27,24.36-24.98,52.62-24.98,82.15,0,77.19,59.39,140.75,134.89,147.42,4.31.61,8.71.92,13.13.92s8.83-.31,13.13-.92c75.52-6.66,134.89-70.23,134.89-147.42,0-27.2-7.38-52.7-20.23-74.61ZM130.49,297.32v-54.1h55.1c-.3,19.15-2.3,37.51-5.74,54.1h-49.36ZM177.7,306.65c-3.97,15.93-9.27,29.96-15.46,41.25h-31.75v-41.25h47.21ZM130.49,233.87v-54.09h49.36c3.45,16.62,5.45,34.94,5.74,54.09h-55.1ZM162.23,129.19c6.2,11.3,11.49,25.35,15.46,41.25h-47.21v-41.25h31.75ZM156.46,105.05c9.49,3.46,18.42,8.46,26.68,14.78h-15.35c-3.56-5.67-7.33-10.63-11.33-14.78ZM173,129.19h20.72c11.4,11.24,21.01,25.27,28.16,41.25h-34.38c-3.67-15.61-8.58-29.56-14.51-41.25ZM194.97,233.87c-.28-19.27-2.16-37.51-5.42-54.09h36.17c6.13,16.51,9.75,34.82,10.26,54.09h-41.01ZM235.98,243.22c-.51,19.25-4.14,37.56-10.26,54.1h-36.17c3.26-16.59,5.15-34.85,5.42-54.1h41.01ZM235.61,179.79h15.8c7.78,16.51,12.33,34.82,12.98,54.09h-19.06c-.51-19.15-3.88-37.42-9.73-54.09ZM211,129.19c14.38,11.24,26.51,25.26,35.6,41.25h-14.6c-6.5-15.58-15.12-29.53-25.47-41.25h4.47ZM156.43,119.83h-25.94v-19.79c9.39,1.78,18.23,8.78,25.94,19.79ZM48.02,34.07l-2.1-7.41,6.5-7,8.06,2.86,2.1,7.42c6.64,23.48,18.37,45.13,34.25,63.52-5.48,1.1-10.87,2.51-16.16,4.21-14.94-18.78-26.07-40.38-32.65-63.61ZM95.01,105.25c-3.91,4.08-7.63,8.98-11.09,14.58h-15.12c8.18-6.25,16.99-11.15,26.21-14.58ZM64.55,169.23c-.08.4-.21.8-.31,1.21H29.78c.48-1.09.94-2.21,1.44-3.28,7.06-14.83,16.21-27.59,26.81-37.97h20.73c-4.53,8.96-8.49,19.38-11.84,31.02l-.05-.02-1.2,4.52-1.19,4.52h.08ZM56.71,233.87H15.71c.51-18.79,4.01-37.19,10.25-54.09h36.26c-3.35,17-5.22,35.38-5.51,54.09ZM62.13,297.32H25.95c-6.17-16.54-9.77-34.85-10.29-54.1h41.05c.25,19.25,2.16,37.51,5.42,54.1ZM12.96,157.93c7.89-10.98,17.23-20.63,27.66-28.74h4.54c-7.72,8.7-14.57,18.69-20.24,29.79l-.12-.03-2.01,4.21-2,4.23.13.06c-.43.98-.9,1.96-1.33,2.99H5.08c2.44-4.29,5.01-8.5,7.88-12.51ZM.26,179.79h15.77c-5.94,17.02-9.18,35.38-9.7,54.09H-12.66c.57-18.92,4.99-37.22,12.92-54.09ZM-12.72,243.22H6.31c.5,19.15,3.91,37.44,9.72,54.1H.26c-7.77-16.53-12.38-34.85-12.98-54.1ZM40.68,347.9c-14.39-11.23-26.54-25.24-35.61-41.25h14.58c6.48,15.56,15.13,29.53,25.48,41.25h-4.46ZM54.2,357.29s0-.02-.02-.02h.02v.02ZM29.77,306.65h34.36c3.68,15.62,8.62,29.56,14.54,41.25h-20.79c-11.34-11.24-20.94-25.24-28.12-41.25ZM68.54,357.27h15.34c3.5,5.65,7.3,10.62,11.31,14.77-9.46-3.46-18.43-8.44-26.65-14.77ZM121.15,377.05c-9.36-1.78-18.2-8.78-25.96-19.78h25.96v19.78ZM121.15,347.9h-31.71c-6.22-11.29-11.52-25.32-15.5-41.25h47.21v41.25ZM121.15,297.32h-49.32c-3.45-16.59-5.48-34.96-5.74-54.1h55.07v54.1ZM121.15,233.87h-55.07c.26-18.76,2.21-37.14,5.68-54.09h49.38v54.09ZM121.15,170.44h-47.29c.3-1.13.54-2.28.84-3.35,3.89-14.8,8.91-27.51,14.62-37.9h31.83v41.25ZM121.15,119.83h-26.02c7.93-11.12,16.82-18.01,26.02-19.76v19.76ZM113.44,91.1c-1.08.09-2.16.2-3.24.32-9.41-9.84-17.44-20.85-23.97-32.91l-3.67-6.78,3.88-7.63,9.43.43,3.67,6.76c8.08,14.9,18.68,28.02,31.55,39.09-1.74-.1-3.49-.16-5.26-.16-4.15,0-8.29.34-12.38.87ZM130.49,377.05v-19.78h25.94c-7.71,11-16.55,18-25.94,19.78ZM156.46,372.04c4.01-4.15,7.77-9.11,11.33-14.77h15.35c-8.26,6.33-17.19,11.3-26.68,14.77ZM173,347.9c5.93-11.69,10.84-25.63,14.51-41.25h34.38c-7.15,16.01-16.76,30.01-28.16,41.25h-20.72ZM211,347.9h-4.47c10.35-11.72,18.96-25.69,25.47-41.25h14.6c-9.09,16.01-21.21,30.02-35.6,41.25ZM251.41,297.32h-15.8c5.84-16.67,9.22-34.96,9.73-54.1h19.06c-.65,19.25-5.2,37.57-12.98,54.1Z"/>
            <path class="cls-10" d="M191.24,24.56c7.86,6.1,17.32,9.71,27.36,10.42,1.23.09,2.46.13,3.68.13,12.16,0,23.76-4.31,33.02-12.34,1.73-1.5,3.33-3.11,4.81-4.78,0-.3,0-.59,0-.89-1.58,1.84-3.31,3.59-5.2,5.23-10.07,8.73-22.95,13.02-36.27,12.06-9.92-.71-19.27-4.27-27.04-10.3-2.58-2.01-4.99-4.29-7.16-6.79-8.73-10.07-13.01-22.95-12.06-36.28.16-2.21.47-4.39.9-6.52-.2,0-.4,0-.6,0-.43,2.12-.73,4.28-.89,6.48-.96,13.48,3.37,26.51,12.2,36.7,2.19,2.53,4.63,4.84,7.24,6.87Z"/>
            <path class="cls-9" d="M184.77,32.8c10.99,8.54,24.2,12.78,37.39,12.77,13.4,0,26.78-4.38,37.8-13.06,0-.25,0-.51,0-.76-21.67,17.36-52.77,17.73-74.84.58-3.11-2.42-6.01-5.16-8.61-8.16-10.56-12.18-15.74-27.76-14.59-43.88.14-1.94.37-3.85.69-5.74-.2,0-.4,0-.59,0-.31,1.88-.54,3.78-.68,5.7-1.16,16.28,4.07,32.01,14.73,44.31,2.63,3.03,5.55,5.8,8.69,8.24Z"/>
            <path class="cls-8" d="M152.64,74.2c20.43,15.87,44.98,23.74,69.5,23.74,12.48,0,24.95-2.04,36.87-6.11,0-.21,0-.42.01-.63-35.19,12.09-75.29,6.4-106.01-17.47-5.81-4.52-11.22-9.64-16.07-15.24-20.82-24.02-29.67-54.4-27.08-83.82-.2,0-.39,0-.59,0-2.59,29.55,6.31,60.07,27.23,84.2,4.88,5.62,10.31,10.78,16.15,15.32Z"/>
            <path class="cls-6" d="M219.72,19.3c.85.06,1.7.09,2.54.09,8.38,0,16.37-2.97,22.74-8.49,10.82-9.38,14.44-24.01,10.37-36.87-.2,0-.4,0-.61.01,4.08,12.68.54,27.15-10.15,36.41-6.9,5.98-15.73,8.91-24.86,8.26-9.14-.65-17.46-4.81-23.44-11.7-5.98-6.9-8.91-15.72-8.26-24.86.19-2.65.68-5.22,1.44-7.7-.2,0-.41,0-.61,0-.74,2.46-1.22,5.02-1.41,7.65-.66,9.29,2.32,18.27,8.4,25.28,6.08,7.01,14.54,11.24,23.84,11.91Z"/>
            <path class="cls-7" d="M175.13,45.22c13.82,10.74,30.43,16.07,47.02,16.06,12.98,0,25.94-3.28,37.55-9.77,0-.23,0-.45.01-.68-11.59,6.55-24.56,9.86-37.56,9.86-16.46,0-32.95-5.29-46.66-15.94-3.92-3.04-7.57-6.5-10.85-10.29-14.84-17.11-20.67-39.02-17.91-59.88-.2,0-.39,0-.59,0-2.75,21,3.13,43.04,18.06,60.26,3.3,3.81,6.98,7.3,10.93,10.36Z"/>
            <path class="cls-5" d="M198.63,67.91c6.29,1.96,12.85,3.2,19.48,3.69,14.39,1.07,28.52-1.4,41.39-7.06,0-.21,0-.43.01-.64-12.85,5.7-26.97,8.18-41.35,7.11-6.59-.49-13.1-1.72-19.35-3.67l-7.66-2.38-6.68,5.63,1.81,9.94,7.68,2.39c7.43,2.31,15.17,3.78,22.99,4.36,2.57.19,5.15.29,7.72.29,4.22,0,8.44-.26,12.6-.77,7.52-.93,14.87-2.68,21.93-5.21,0-.21,0-.42.01-.63-7.08,2.56-14.46,4.33-22.01,5.26-6.66.82-13.45.98-20.2.48-7.78-.57-15.47-2.03-22.86-4.33l-7.34-2.28-1.69-9.25,6.17-5.2,7.35,2.29Z"/>
          </g>
        </g>
        <g id="GoRewards_Name" data-name="GoRewards Name">
          <path class="cls-17" d="M101.18,63.25h4.54c.67,0,1.26.1,1.78.29.52.19.94.45,1.27.78.26.26.46.56.6.9.14.35.22.71.22,1.1v.03c0,.45-.08.86-.24,1.21-.16.36-.38.66-.66.92-.28.26-.62.47-1,.63-.39.16-.81.27-1.26.33l3.57,4.62h-1.02l-3.45-4.48h-3.54v4.48h-.8v-10.82ZM105.62,68.86c.45,0,.87-.06,1.26-.17.39-.11.72-.28,1-.49.28-.21.5-.47.66-.78.16-.3.24-.65.24-1.05v-.03c0-.73-.27-1.31-.81-1.74-.54-.42-1.31-.64-2.29-.64h-3.69v4.88h3.65Z"/>
          <path class="cls-17" d="M111.85,63.25h7.69v.73h-6.89v4.28h6.2v.73h-6.2v4.36h6.97v.73h-7.77v-10.82Z"/>
          <path class="cls-17" d="M120.98,63.25h.9l3.4,9.63,3.17-9.66h.62l3.17,9.66,3.4-9.63h.83l-3.92,10.89h-.65l-3.17-9.39-3.17,9.39h-.65l-3.92-10.89Z"/>
          <path class="cls-17" d="M141.01,63.17h.77l5.04,10.89h-.88l-1.38-3.03h-6.38l-1.38,3.03h-.83l5.04-10.89ZM144.22,70.31l-2.84-6.26-2.86,6.26h5.7Z"/>
          <path class="cls-17" d="M148.58,63.25h4.54c.67,0,1.26.1,1.78.29.51.19.94.45,1.27.78.26.26.46.56.6.9.14.35.22.71.22,1.1v.03c0,.45-.08.86-.24,1.21-.16.36-.38.66-.66.92-.28.26-.62.47-1,.63-.39.16-.81.27-1.26.33l3.57,4.62h-1.02l-3.45-4.48h-3.54v4.48h-.8v-10.82ZM153.02,68.86c.45,0,.87-.06,1.26-.17.39-.11.72-.28,1-.49.28-.21.5-.47.66-.78.16-.3.24-.65.24-1.05v-.03c0-.73-.27-1.31-.81-1.74-.54-.42-1.31-.64-2.29-.64h-3.69v4.88h3.65Z"/>
          <path class="cls-17" d="M158.97,63.25h3.6c.84,0,1.62.14,2.33.41.7.27,1.31.65,1.82,1.14.51.48.9,1.05,1.18,1.71.28.65.42,1.36.42,2.12v.03c0,.76-.14,1.47-.42,2.13-.28.66-.67,1.23-1.18,1.71-.51.48-1.12.87-1.82,1.14-.71.28-1.48.42-2.33.42h-3.6v-10.82ZM162.57,73.34c.75,0,1.43-.12,2.04-.36.61-.24,1.12-.57,1.54-.99.42-.42.75-.91.98-1.47.23-.56.35-1.17.35-1.82v-.03c0-.64-.12-1.25-.35-1.81-.23-.57-.56-1.06-.98-1.49-.42-.42-.94-.76-1.54-1.01-.61-.25-1.29-.37-2.04-.37h-2.8v9.36h2.8Z"/>
          <path class="cls-17" d="M173.56,74.22c-.87,0-1.65-.14-2.34-.43-.7-.29-1.37-.72-2.02-1.3l.53-.6c.3.28.6.52.89.72.29.2.6.37.9.49.31.13.63.23.97.29.34.07.71.1,1.11.1s.77-.05,1.11-.16c.34-.11.63-.26.87-.45.24-.19.42-.42.56-.68.13-.26.2-.55.2-.86v-.03c0-.29-.04-.55-.13-.77-.09-.23-.25-.43-.48-.62-.23-.19-.54-.35-.93-.5-.39-.15-.9-.29-1.51-.41-.65-.13-1.21-.29-1.67-.47-.46-.18-.84-.39-1.14-.63-.29-.24-.51-.52-.64-.84-.13-.32-.2-.69-.2-1.1v-.03c0-.4.09-.77.26-1.12.18-.34.42-.65.73-.9.31-.26.67-.46,1.1-.6.42-.14.89-.22,1.39-.22.78,0,1.46.11,2.03.32.57.22,1.13.55,1.68.99l-.51.63c-.51-.44-1.03-.76-1.55-.94-.52-.19-1.08-.28-1.68-.28-.4,0-.76.05-1.09.16-.32.11-.6.25-.83.44-.23.19-.41.4-.53.65-.12.25-.19.51-.19.79v.03c0,.29.04.55.13.78.09.23.25.44.48.63.23.19.55.36.97.52.41.15.94.3,1.58.43,1.26.26,2.16.62,2.72,1.09.56.47.83,1.1.83,1.89v.03c0,.43-.09.83-.27,1.2-.18.37-.43.68-.74.93-.31.26-.69.46-1.13.6-.44.14-.92.22-1.45.22Z"/>
          <path class="cls-17" d="M180.38,66.68c-.24,0-.47-.05-.68-.14-.21-.09-.39-.21-.55-.37-.15-.16-.28-.34-.37-.55-.09-.21-.13-.43-.13-.67h0c0-.25.04-.47.13-.68.09-.21.21-.39.37-.55.16-.16.34-.28.55-.38.21-.09.44-.14.68-.14s.47.05.68.14c.21.09.39.21.55.37.15.16.28.34.37.55.09.21.13.43.13.67h0c0,.25-.05.47-.13.68-.09.21-.21.39-.37.55-.16.16-.34.28-.55.38-.21.09-.44.14-.68.14ZM180.38,66.55c.23,0,.44-.04.63-.13.19-.08.36-.2.51-.34.14-.15.25-.31.34-.51.08-.19.12-.4.12-.62h0c0-.23-.04-.44-.12-.63-.08-.19-.19-.36-.33-.51-.14-.14-.31-.26-.5-.34-.19-.08-.4-.12-.63-.12s-.44.04-.63.13c-.19.08-.36.2-.51.35-.14.15-.25.31-.34.51s-.12.4-.12.62h0c0,.23.04.44.12.63.08.19.19.36.33.51.14.14.31.26.5.34.19.08.4.12.63.12ZM179.72,64.03h.79c.11,0,.21.02.3.05.09.03.16.08.22.13.04.04.07.09.1.14.03.06.04.12.04.18h0c0,.15-.04.27-.13.35-.09.08-.2.14-.35.16l.58.74h-.27l-.56-.7h-.51v.7h-.21v-1.75ZM180.47,64.88c.13,0,.25-.03.33-.08.09-.06.13-.14.13-.25h0c0-.11-.04-.18-.12-.24-.08-.06-.19-.09-.32-.09h-.57v.66h.55Z"/>
          <path class="cls-17" d="M75.09,74.2c-.84,0-1.61-.14-2.32-.41-.71-.27-1.33-.65-1.85-1.14-.52-.49-.93-1.08-1.23-1.76-.3-.68-.44-1.43-.44-2.25v-.03c0-.78.14-1.51.44-2.19.29-.68.69-1.27,1.2-1.78.51-.51,1.12-.9,1.83-1.19.71-.29,1.48-.43,2.31-.43.95,0,1.77.14,2.46.41.69.28,1.32.66,1.9,1.15l-1.75,2.1c-.39-.33-.79-.58-1.19-.75-.4-.17-.87-.26-1.4-.26-.39,0-.75.08-1.08.23-.33.15-.62.36-.87.63s-.44.58-.58.94c-.14.36-.21.74-.21,1.15v.03c0,.43.07.83.22,1.2.14.37.35.68.61.94.26.26.57.47.92.61.35.15.75.22,1.18.22.7,0,1.27-.15,1.72-.45v-1.3h-2.12v-2.18h4.94v4.83c-.57.47-1.25.87-2.03,1.18-.78.32-1.66.48-2.64.48Z"/>
          <path class="cls-17" d="M86.52,74.2c-.83,0-1.6-.15-2.3-.44-.71-.29-1.31-.69-1.83-1.19-.51-.5-.91-1.09-1.2-1.76-.29-.68-.44-1.4-.44-2.16v-.03c0-.77.15-1.49.44-2.17.29-.68.7-1.27,1.22-1.78.52-.51,1.14-.91,1.84-1.2.71-.29,1.47-.44,2.3-.44s1.6.15,2.3.44c.71.29,1.31.69,1.83,1.19.51.5.91,1.09,1.2,1.76.29.68.44,1.4.44,2.16v.03c0,.77-.15,1.49-.44,2.17-.29.68-.7,1.27-1.22,1.78-.52.51-1.14.91-1.84,1.2-.71.29-1.47.44-2.3.44ZM86.54,71.52c.41,0,.78-.08,1.12-.23.34-.15.63-.36.86-.62.24-.26.42-.57.55-.91.13-.35.2-.72.2-1.11v-.03c0-.39-.07-.76-.2-1.11-.13-.35-.32-.65-.57-.92-.25-.27-.54-.48-.88-.64-.34-.16-.71-.24-1.12-.24s-.78.08-1.12.23c-.33.15-.62.36-.86.62-.24.26-.43.57-.55.91-.13.35-.19.72-.19,1.1v.03c0,.39.07.76.2,1.1.13.35.32.65.56.92.24.27.53.48.87.64.34.16.71.24,1.12.24Z"/>
          <polygon class="cls-17" points="94 65.23 99.21 68.68 94 72.13 94 65.23"/>
        </g>
      </g>
      <g>
        <rect class="cls-13" x="30.54" y="54.88" width="31.28" height="24.46" rx="3.67" ry="3.67"/>
        <g class="cls-15">
          <g class="cls-18">
            <path class="cls-4" d="M30.99,70.83h11.78s1.73-.06,2.54,1.28.38,2.64.38,2.64l-2.73,4.86"/>
            <path class="cls-4" d="M62.15,70.83h-11.78s-1.73-.06-2.54,1.28c-.81,1.34-.38,2.64-.38,2.64l2.73,4.86"/>
            <path class="cls-4" d="M62.15,63.93h-11.78s-1.73.06-2.54-1.28c-.81-1.34-.38-2.64-.38-2.64l2.88-5.13"/>
            <path class="cls-4" d="M30.99,63.93h11.78s1.73.06,2.54-1.28.38-2.64.38-2.64l-2.73-4.86"/>
            <line class="cls-4" x1="42.77" y1="63.93" x2="42.77" y2="70.79"/>
            <line class="cls-4" x1="50.23" y1="63.93" x2="50.23" y2="70.79"/>
          </g>
        </g>
        <rect class="cls-2" x="30.54" y="54.88" width="31.28" height="24.46" rx="3.67" ry="3.67"/>
        <g>
          <path class="cls-3" d="M30.61,70.56h11.78s1.73-.06,2.54,1.28.38,2.64.38,2.64l-2.73,4.86"/>
          <path class="cls-3" d="M61.77,70.56h-11.78s-1.73-.06-2.54,1.28-.38,2.64-.38,2.64l2.73,4.86"/>
          <path class="cls-3" d="M61.77,63.66h-11.78s-1.73.06-2.54-1.28c-.81-1.34-.38-2.64-.38-2.64l2.73-4.86"/>
          <path class="cls-3" d="M30.61,63.66h11.78s1.73.06,2.54-1.28.38-2.64.38-2.64l-2.73-4.86"/>
          <line class="cls-3" x1="42.39" y1="63.66" x2="42.39" y2="70.52"/>
          <line class="cls-3" x1="49.85" y1="63.66" x2="49.85" y2="70.52"/>
        </g>
      </g>
    </g>
    <g id="Layer_7" data-name="Layer 7">
      <g>
        <path class="cls-16" d="M186.73,40.27c-.21-.86-.72-1.48-1.74-1.48-1.5,0-2.12,1.41-2.12,2.84s.63,2.84,2.12,2.84c1.08,0,1.68-.87,1.78-1.95h1.19c-.1,1.79-1.28,3.02-2.97,3.02-2.09,0-3.34-1.78-3.34-3.91s1.25-3.91,3.34-3.91c1.57.01,2.81.94,2.96,2.55h-1.22Z"/>
        <path class="cls-16" d="M188.68,39.95h1.05v1.04h.02c.13-.57.79-1.19,1.48-1.19.25,0,.32.02.42.03v1.15c-.16-.02-.32-.05-.48-.05-.76,0-1.37.66-1.37,1.85v2.57h-1.11v-5.4h0Z"/>
        <path class="cls-16" d="M195.34,42.18c-.04-.75-.52-1.43-1.27-1.43s-1.3.63-1.33,1.43h2.6ZM192.74,42.96c0,.85.43,1.6,1.36,1.6.65,0,1.04-.3,1.23-.9h1.06c-.24,1.18-1.18,1.84-2.29,1.84-1.58,0-2.47-1.18-2.47-2.84,0-1.54.94-2.85,2.44-2.85,1.59,0,2.57,1.54,2.38,3.16h-3.71Z"/>
        <path class="cls-16" d="M199.33,44.56c1,0,1.42-.97,1.42-1.91,0-1.19-.54-1.9-1.4-1.9-1.05,0-1.42.99-1.42,1.96s.43,1.85,1.4,1.85h0ZM201.82,45.35h-1.06v-.73h-.02c-.29.62-.93.88-1.56.88-1.59,0-2.37-1.26-2.37-2.88,0-1.95,1.08-2.81,2.19-2.81.64,0,1.34.25,1.68.85h.02v-2.76h1.11v7.46h0Z"/>
        <path class="cls-16" d="M202.82,39.95h1.11v5.4h-1.11v-5.4h0ZM202.82,37.9h1.11v1.13h-1.11v-1.13h0Z"/>
        <path class="cls-16" d="M204.39,39.95h.84v-1.62h1.11v1.62h1.01v.89h-1.01v2.88c0,.49.04.74.54.74.16,0,.31,0,.47-.04v.92c-.24.02-.48.06-.72.06-1.16,0-1.38-.48-1.4-1.38v-3.19h-.84v-.89h0Z"/>
        <path class="cls-16" d="M210.22,37.9h1.22v4.35c0,1,.06,2.16,1.64,2.16s1.64-1.16,1.64-2.16v-4.35h1.22v4.77c0,1.91-1.14,2.86-2.86,2.86s-2.86-.95-2.86-2.86v-4.77h0Z"/>
        <path class="cls-16" d="M216.85,39.95h1.06v.79l.02.02c.33-.6.91-.96,1.57-.96,1.09,0,1.79.63,1.79,1.84v3.71h-1.11v-3.4c-.02-.85-.33-1.21-.99-1.21-.74,0-1.22.63-1.22,1.42v3.19h-1.11v-5.4h0Z"/>
        <path class="cls-16" d="M222.25,39.95h1.11v5.4h-1.11v-5.4h0ZM222.25,37.9h1.11v1.13h-1.11v-1.13h0Z"/>
        <path class="cls-16" d="M227.98,42.65c0-.93-.44-1.9-1.44-1.9s-1.44.97-1.44,1.9.44,1.91,1.44,1.91,1.44-.97,1.44-1.91h0ZM224,42.65c0-1.65.93-2.84,2.55-2.84s2.55,1.19,2.55,2.84-.93,2.85-2.55,2.85-2.55-1.19-2.55-2.85h0Z"/>
        <path class="cls-16" d="M229.69,39.95h1.06v.79l.02.02c.33-.6.91-.96,1.57-.96,1.09,0,1.79.63,1.79,1.84v3.71h-1.11v-3.4c-.02-.85-.33-1.21-.99-1.21-.74,0-1.22.63-1.22,1.42v3.19h-1.11v-5.4h0Z"/>
        <polygon class="cls-16" points="181.82 24.06 187.7 24.06 187.7 25.77 184.11 25.77 184.11 27.83 187.44 27.83 187.44 29.54 184.11 29.54 184.11 32.91 181.82 32.91 181.82 24.06 181.82 24.06"/>
        <polygon class="cls-16" points="188.29 24.06 194.53 24.06 194.53 25.75 190.57 25.75 190.57 27.6 194.3 27.6 194.3 29.3 190.57 29.3 190.57 31.19 194.62 31.19 194.62 32.91 188.29 32.91 188.29 24.06 188.29 24.06"/>
        <path class="cls-16" d="M197.67,31.2h.99c1.53-.01,2.51-.71,2.51-2.78,0-2.69-1.89-2.69-2.59-2.69h-.91s0,5.47,0,5.47h0ZM195.31,24.03h3.51c.99,0,2.3.11,3.16.74,1.23.9,1.56,2.36,1.56,3.68,0,1.97-.59,3.42-2.27,4.12-.85.34-1.86.34-2.44.34h-3.53v-8.88h0Z"/>
        <polygon class="cls-16" points="204.12 24.06 210.36 24.06 210.36 25.75 206.4 25.75 206.4 27.6 210.13 27.6 210.13 29.3 206.4 29.3 206.4 31.19 210.45 31.19 210.45 32.91 204.12 32.91 204.12 24.06 204.12 24.06"/>
        <path class="cls-16" d="M213.37,27.85h.86c.51,0,.76,0,.95-.07.51-.17.61-.73.61-1.01,0-1.09-.9-1.09-1.56-1.09h-.86v2.18h0ZM211.06,24.03h3.84c1.5,0,2.06.1,2.55.64.25.27.58.76.58,1.72s-.37,1.39-.76,1.65c-.53.36-1.04.42-1.27.45v.05c1.61.05,1.7.81,1.89,2.18.08.6.2,1.56.39,2.19h-2.5c-.14-.54-.2-1.22-.28-2-.1-1.07-.14-1.46-1.17-1.46h-.97v3.47h-2.31v-8.88h0Z"/>
        <path class="cls-16" d="M224.1,29.49l-1.07-3.73h-.03l-1.15,3.73h2.25ZM221.72,24.03h2.81l3.28,8.88h-2.6l-.58-1.78h-3.32l-.56,1.78h-2.3l3.28-8.88h0Z"/>
        <polygon class="cls-16" points="228.05 24.03 230.38 24.03 230.38 31.17 234.11 31.17 234.11 32.91 228.05 32.91 228.05 24.03 228.05 24.03"/>
        <polygon class="cls-16" points="181.82 14.21 184.99 14.21 187.8 20.83 187.78 14.21 189.79 14.21 189.79 23.09 186.68 23.09 183.82 16.19 183.84 23.09 181.82 23.09 181.82 14.21 181.82 14.21"/>
        <path class="cls-16" d="M196.07,19.67l-1.07-3.73h-.03l-1.15,3.73h2.25ZM193.69,14.21h2.81l3.28,8.88h-2.6l-.58-1.78h-3.32l-.56,1.78h-2.3l3.28-8.88h0Z"/>
        <polygon class="cls-16" points="198.05 14.21 200.59 14.21 202.48 20.64 204.47 14.21 206.76 14.21 203.74 23.09 200.99 23.09 198.05 14.21 198.05 14.21"/>
        <polygon class="cls-16" points="209.34 14.21 211.16 17.94 213.04 14.21 215.41 14.21 212.16 19.95 212.16 23.09 209.84 23.09 209.84 19.84 206.67 14.21 209.34 14.21 209.34 14.21"/>
        <polygon class="cls-16" points="234.11 36.28 234.11 33.94 181.82 33.94 181.82 36.28 234.11 36.28 234.11 36.28"/>
        <path class="cls-16" d="M226.06,22h-.16c.36-.41.66-.9.89-1.44h.51c-.32.56-.74,1.05-1.24,1.44h0ZM225.59,22.33h0s0,0,0,0h0ZM220.58,22.33h0,0ZM218.86,20.56h.51c.23.54.53,1.03.89,1.44h-.16c-.5-.39-.93-.88-1.24-1.44h0ZM220.11,14.36h.16c-.27.3-.51.65-.71,1.04h0s-.07.15-.07.15l-.07.15h0s-.03.07-.05.11h-.51c.09-.15.18-.3.28-.44.28-.38.6-.72.97-1h0ZM225.59,14.04h0s0,0,0,0h0ZM227.3,15.8h-.51c-.23-.54-.53-1.03-.89-1.44h.16c.5.39.93.88,1.24,1.44h0ZM227.26,18.35h.67c-.02.67-.18,1.31-.45,1.89h-.55c.2-.58.32-1.22.34-1.89h0ZM225.31,20.24c.11-.58.18-1.22.19-1.89h1.43c-.02.67-.14,1.31-.36,1.89h-1.26ZM224.55,22.33h.54c-.29.22-.6.4-.93.52.14-.15.27-.32.4-.52h0ZM221.62,22.33c.12.2.26.37.4.52-.33-.12-.64-.29-.93-.52h.54ZM219.23,18.35h1.43c0,.67.07,1.31.19,1.89h-1.26c-.22-.58-.34-1.22-.36-1.89h0ZM218.91,18.02h-.66c.02-.66.17-1.3.45-1.89h.55c-.21.59-.32,1.24-.34,1.89h0ZM220.86,16.13c-.12.59-.18,1.24-.19,1.89h-1.43c.02-.66.14-1.3.36-1.89h1.27ZM224.55,14.04c-.12-.2-.26-.37-.4-.52.33.12.64.3.93.52h-.54ZM223.25,18.02v-1.89h1.73c.12.58.19,1.22.2,1.89h-1.93ZM223.25,20.24v-1.89h1.93c-.01.67-.08,1.31-.2,1.89h-1.73ZM223.25,22v-1.44h1.65c-.14.56-.32,1.05-.54,1.44h-1.11ZM223.25,22.33h.91c-.27.38-.58.63-.91.69v-.69h0ZM222.92,22.33v.69c-.33-.06-.64-.31-.91-.69h.91ZM222.92,20.56v1.44h-1.11c-.22-.39-.4-.88-.54-1.44h1.65ZM222.92,18.35v1.89h-1.72c-.12-.58-.19-1.22-.2-1.89h1.92ZM222.92,16.13v1.89h-1.92c0-.66.08-1.3.2-1.89h1.73ZM224.35,14.36c.22.39.4.89.54,1.44h-1.65v-1.44h1.11ZM223.25,14.04v-.69c.33.06.64.31.91.69h-.91ZM222.92,13.34v.69h-.91c.28-.39.59-.63.91-.69h0ZM221.62,14.04h-.53c.29-.22.59-.39.92-.51-.14.14-.27.31-.39.51h0ZM221.3,15.69c.14-.52.31-.96.51-1.32h1.11v1.44h-1.65s.02-.08.03-.12h0ZM226.93,18.02h-1.43c0-.67-.08-1.31-.19-1.89h1.26c.21.58.34,1.22.36,1.89h0ZM227.92,18.02h-.67c-.02-.67-.14-1.31-.34-1.89h.55c.27.58.43,1.22.45,1.89h0ZM226.44,15.8h-1.2c-.13-.55-.3-1.03-.51-1.44h.72c.4.39.73.88.98,1.44h0ZM219.78,15.69c.25-.52.57-.96.94-1.33h.72c-.16.31-.3.68-.41,1.08h0s-.04.16-.04.16l-.04.16h0s0,.03-.01.04h-1.2s.03-.08.05-.11h0ZM218.24,18.35h.66c.02.67.14,1.31.34,1.89h-.55c-.27-.58-.43-1.22-.45-1.89h0ZM219.73,20.56h1.2c.13.55.3,1.03.51,1.44h-.73c-.4-.39-.73-.88-.98-1.44h0ZM225.46,22h-.72c.21-.41.38-.9.51-1.44h1.2c-.25.56-.59,1.05-.98,1.44h0ZM228.25,18.18c0-2.7-2.07-4.92-4.71-5.15-.15-.02-.3-.03-.46-.03-.15,0-.29.01-.43.03-1.45.12-2.79.85-3.68,2.02h0s-.1.13-.1.13l-.09.13h0c-.57.86-.87,1.84-.87,2.87,0,2.7,2.08,4.92,4.71,5.15.15.02.3.03.46.03s.31-.01.46-.03c2.64-.23,4.71-2.45,4.71-5.15h0Z"/>
        <path class="cls-16" d="M235.72,34.93h.16c.18,0,.34-.07.34-.24,0-.12-.09-.24-.34-.24-.07,0-.12,0-.16.01v.47h0ZM235.72,35.71h-.22v-1.39c.12-.02.23-.03.39-.03.21,0,.35.04.43.11s.13.16.13.29c0,.18-.12.29-.27.34h0c.12.03.21.14.23.35.03.22.07.3.09.34h-.23s-.07-.17-.09-.36c-.03-.18-.12-.24-.3-.24h-.16v.6h0ZM235.95,33.92c-.55,0-1,.47-1,1.06s.45,1.06,1.01,1.06c.56,0,1-.47,1-1.06s-.44-1.06-1-1.06h0ZM235.96,33.73c.68,0,1.23.56,1.23,1.25s-.54,1.26-1.23,1.26-1.24-.55-1.24-1.26.56-1.25,1.24-1.25h0Z"/>
      </g>
    </g>
  </g>
</svg>