<?xml version="1.0" encoding="utf-8"?>
<!-- Generator: Adobe Illustrator 22.0.1, SVG Export Plug-In . SVG Version: 6.00 Build 0)  -->
<svg version="1.1" id="Layer_1" xmlns="http://www.w3.org/2000/svg" xmlns:xlink="http://www.w3.org/1999/xlink" x="0px" y="0px"
	 viewBox="0 0 64 64" style="enable-background:new 0 0 64 64;" xml:space="preserve">
<style type="text/css">
	.st0{clip-path:url(#SVGID_2_);}
	.st1{fill:none;}
	.st2{fill:none;stroke:#0667BA;stroke-width:4;}
	.st3{fill:#0667BA;}
</style>
<g>
	<defs>
		<rect id="SVGID_1_" width="64" height="64"/>
	</defs>
	<clipPath id="SVGID_2_">
		<use xlink:href="#SVGID_1_"  style="overflow:visible;"/>
	</clipPath>
	<g id="gift-star" class="st0">
		<g id="gfit-star" transform="translate(-8 -8.001)">
			<g id="Group_5460" transform="translate(8 8.001)">
				<g id="Group_2089" transform="translate(0 0)">
					<g id="Group_1287" transform="translate(0)">
						<g id="Group_1279">
							<g id="Ellipse_123">
								<circle class="st1" cx="32" cy="32" r="32"/>
								<circle class="st2" cx="32" cy="32" r="30"/>
							</g>
						</g>
					</g>
				</g>
			</g>
			<g id="Group_3830" transform="translate(21.879 21.818)">
				<path id="Path_1459" class="st1" d="M14.7,2c-1.3,0-2.4,0.9-2.7,2.2h5.4C17.2,2.9,16,2,14.7,2z"/>
				<path id="Path_1460" class="st1" d="M22.1,2c-1.3,0-2.4,0.9-2.7,2.2h5.4C24.5,2.9,23.4,2,22.1,2z"/>
				<path id="Path_1461" class="st3" d="M26.8,4.2C26.5,1.8,24.5,0,22.1,0c-1.4,0-2.8,0.6-3.7,1.7c-1.6-2-4.6-2.4-6.7-0.7
					c-1,0.8-1.6,1.9-1.7,3.2H0v8.1h1.9v22.6c0,0.9,0.7,1.6,1.6,1.6h29.6c0.9,0,1.6-0.7,1.6-1.6V12.3h1.9V4.2H26.8z M22.1,2
					c1.3,0,2.4,0.9,2.7,2.2h-5.4C19.7,2.9,20.8,2,22.1,2L22.1,2z M14.7,2c1.3,0,2.5,0.9,2.7,2.2H12C12.3,2.9,13.4,2,14.7,2L14.7,2z
					 M24.6,30.5l-5.9-3.1l-5.9,3.1l1.1-6.6L9,19.2l6.7-1l3-6l3,6l6.7,1l-4.8,4.7L24.6,30.5z"/>
			</g>
		</g>
	</g>
</g>
</svg>
