<?xml version="1.0" encoding="UTF-8"?>
<svg id="Layer_4" data-name="Layer 4" xmlns="http://www.w3.org/2000/svg" xmlns:xlink="http://www.w3.org/1999/xlink" viewBox="0 0 96 96">
  <defs>
    <style>
      .cls-1 {
        fill: none;
      }

      .cls-2 {
        fill: #fd6f00;
      }

      .cls-3 {
        clip-path: url(#clippath-1);
      }

      .cls-4 {
        fill: #0f3d70;
      }

      .cls-5 {
        clip-path: url(#clippath);
      }
    </style>
    <clipPath id="clippath">
      <rect class="cls-1" x="0" y=".73" width="96" height="96"/>
    </clipPath>
    <clipPath id="clippath-1">
      <rect class="cls-1" x="6" y="6.73" width="85.38" height="85.26"/>
    </clipPath>
  </defs>
  <g class="cls-5">
    <g id="new-used">
      <g id="Group_41524" data-name="Group 41524">
        <g class="cls-3">
          <g id="Group_41523" data-name="Group 41523">
            <path id="Path_43914" data-name="Path 43914" class="cls-2" d="M84.83,22.04c1.1,0,2-.9,2-2s-.9-2-2-2h-9.72c-1.09,0-1.98.87-2,1.96l-.19,9.72c-.02,1.1.85,2.02,1.96,2.04h.04c1.09,0,1.98-.87,2-1.96l.11-5.36c10.66,11.98,13.35,29.08,6.87,43.75-.45,1.01,0,2.19,1.02,2.64,1.01.45,2.19,0,2.64-1.02h0c7.06-15.99,4.21-34.63-7.32-47.77h4.59Z"/>
            <path id="Path_43915" data-name="Path 43915" class="cls-2" d="M22.92,62.67h-6.64s-.09,0-.14.01-.09-.01-.14-.01c-1.1,0-2,.9-2,2v7.02c0,1.1.9,2,2,2h6.91c1.1,0,2-.9,2-2v-7.02c0-1.1-.9-2-2-2M18.01,66.67h2.91v3.02h-2.91v-3.02Z"/>
            <path id="Path_43916" data-name="Path 43916" class="cls-2" d="M69.18,62.67h-6.64c-1.1,0-2,.9-2,2v7.02c0,1.1.9,2,2,2h6.91c1.1,0,2-.9,2-2v-7.02c0-1.1-.9-2-2-2-.05,0-.09,0-.13.01s-.09-.01-.13-.01M67.45,69.68h-2.91v-3.02h2.91v3.02Z"/>
            <path id="Path_43917" data-name="Path 43917" class="cls-4" d="M79.44,53.37c0-.17-.04-.33-.1-.48-.01-.03-.01-.06-.03-.09v-.02s-.02-.02-.02-.02l-3.34-8.31h0c-.04-.1-.08-.18-.13-.26-.02-.03-.04-.07-.06-.11-.04-.05-.08-.1-.12-.15-.2-.25-.46-.45-.76-.58-.02,0-.05-.01-.07-.02-.1-.04-.2-.07-.3-.09-.02,0-.05,0-.07,0-.11-.02-.21-.03-.32-.03h-6.01l-2.28-8.81c-.25-.95-1.14-1.57-2.12-1.48-.05,0-.09-.01-.14-.01H21.9s-.09.01-.14.01c-.97-.09-1.87.54-2.11,1.48l-2.28,8.81h-6.01c-.09,0-.18.01-.27.03-.04,0-.09,0-.13.01-.06.02-.13.04-.19.06-.06.02-.12.03-.18.06-.03.01-.05.03-.07.04-.09.04-.18.09-.26.14-.09.06-.17.13-.25.21-.01.01-.03.02-.04.04-.05.04-.08.1-.12.15s-.09.1-.13.15c-.02.03-.04.07-.06.11-.05.08-.09.16-.13.24h0s-3.35,8.33-3.35,8.33h0s-.01.04-.01.04c-.02.04-.02.08-.03.12-.03.08-.05.16-.07.25-.01.08-.02.16-.02.24,0,.05-.01.09-.01.14h0c0,.11.01.2.03.29,0,.04,0,.08.01.12.02.07.04.14.06.21.02.06.03.11.05.17.03.07.06.13.1.19.03.05.05.1.08.14.12.17.26.32.42.44.04.03.08.07.12.1s.09.05.13.07c.07.04.15.08.22.12h.01c.07.03.13.05.2.07.05.01.1.03.16.05.13.03.26.04.39.04h4.34l-5.17,7.03c-.25.34-.39.76-.39,1.19v26.25c0,1.1.9,2,2,2h10.5c1.1,0,2-.9,2-2v-9.37h42.89v9.37c0,1.1.9,2,2,2h10.5c1.1,0,2-.9,2-2v-26.25c0-.43-.14-.84-.39-1.19l-5.16-7.02h4.34c.13,0,.26-.01.39-.04.06-.01.11-.03.17-.05.06-.02.13-.03.19-.06,0,0,0,0,.01,0,.08-.04.16-.08.24-.12.04-.02.08-.04.11-.06.06-.04.11-.09.16-.13.05-.04.1-.07.14-.11s.08-.1.12-.15.08-.1.12-.15c.12-.18.2-.37.26-.57.01-.05.03-.09.04-.13s.01-.11.02-.16c.01-.08.02-.16.02-.24v-.02c0-.06-.01-.11-.02-.17M72.74,47.19l1.76,4.35h-4.24l-1.13-4.35h3.61ZM57.92,36.88h4.4l3.8,14.67H19.33l3.8-14.67h34.8ZM15.2,51.54h-4.24l1.75-4.35h3.61l-1.12,4.35ZM17.29,88h-6.5v-7.37h6.5v7.37ZM74.67,88h-6.5v-7.37h6.5v7.37ZM74.67,76.63H10.79v-12.22l6.52-8.86h50.85l6.52,8.86v12.22Z"/>
            <path id="Path_43918" data-name="Path 43918" class="cls-4" d="M52.6,66.18h-20.53c-1.1,0-2,.9-2,2s.9,2,2,2h20.53c1.1,0,2-.9,2-2s-.9-2-2-2"/>
            <path id="Path_43919" data-name="Path 43919" class="cls-2" d="M46.48,10.73c7.09,0,14.06,1.84,20.22,5.34.95.56,2.18.25,2.74-.7.56-.95.25-2.18-.7-2.74-.02-.01-.04-.02-.05-.03C50.44,2.23,27.44,5.88,13.31,21.39l-.08-5.06c-.03-1.1-.93-1.98-2.04-1.97-1.1.02-1.99.93-1.97,2.03,0,0,0,0,0,0l.15,9.72c.02,1.09.9,1.96,1.99,1.97l9.72.05h.01c1.1,0,2-.89,2-2,0-1.1-.89-2-1.99-2l-4.86-.02c7.73-8.54,18.72-13.4,30.24-13.37"/>
          </g>
        </g>
      </g>
    </g>
  </g>
</svg>