<svg xmlns="http://www.w3.org/2000/svg" xmlns:xlink="http://www.w3.org/1999/xlink" width="320" height="15" viewBox="0 0 320 15">
  <defs>
    <clipPath id="clip-nfis-header-logo">
      <rect width="320" height="15"/>
    </clipPath>
  </defs>
  <g id="nfis-header-logo" clip-path="url(#clip-nfis-header-logo)">
    <g id="Group_9919" data-name="Group 9919" transform="translate(-304 -129.5)">
      <rect id="Rectangle_6689" data-name="Rectangle 6689" width="3" height="12" transform="translate(314.4 131)" fill="#3b93d0"/>
      <rect id="Rectangle_6690" data-name="Rectangle 6690" width="3" height="10" transform="translate(309.7 133)" fill="#7ab4e2"/>
      <rect id="Rectangle_6691" data-name="Rectangle 6691" width="3" height="6" transform="translate(305 137)" fill="#dcebf8"/>
    </g>
    <path id="Path_5727" data-name="Path 5727" d="M1.519,0H3.55V-5.234C3.55-6.57,3.4-8.052,3.276-9.3h.073A26.689,26.689,0,0,0,4.575-6.588L8.162,0h2.324V-11.968H8.455v5.234c0,1.318.146,2.782.274,4.063H8.656A26.689,26.689,0,0,0,7.43-5.38L3.843-11.968H1.519ZM15.994-6.332c.384-1.263.732-2.617,1.043-3.934h.073c.348,1.3.7,2.672,1.08,3.934l.4,1.427h-3ZM11.968,0h2.214L15.1-3.2h3.971L19.984,0h2.306L18.41-11.968H15.848Zm13.56,0h2.58l3.77-11.968H29.646l-1.7,5.984C27.56-4.63,27.3-3.459,26.9-2.1h-.073c-.4-1.354-.677-2.525-1.043-3.88l-1.592-5.984H21.887Zm9.791,0H37.5V-4.429l3.605-7.54H38.833L37.552-8.93c-.348.878-.714,1.72-1.1,2.635H36.38c-.366-.915-.714-1.757-1.061-2.635l-1.281-3.038H31.714l3.605,7.54Zm10.87,0h2.178V-4.959h4.319v-1.83H48.367v-3.349h5.069v-1.83H46.189ZM55.54,0h7.412V-1.83H57.718V-5.307H62v-1.83H57.718v-3h5.051v-1.83H55.54ZM65.4,0h3.312c3.55,0,5.746-2.05,5.746-6.039,0-3.971-2.2-5.929-5.856-5.929H65.4Zm2.178-1.757v-8.436h.878c2.379,0,3.751,1.226,3.751,4.154,0,2.946-1.372,4.282-3.751,4.282ZM76.86,0h7.411V-1.83H79.038V-5.307H83.32v-1.83H79.038v-3h5.051v-1.83H76.86Zm9.864,0H88.9V-4.648h1.775L93.238,0h2.434L92.836-4.978A3.351,3.351,0,0,0,95.2-8.4c0-2.69-1.922-3.568-4.429-3.568H86.724ZM88.9-6.387V-10.23h1.647c1.629,0,2.507.476,2.507,1.83,0,1.336-.878,2.013-2.507,2.013Zm11.053.055c.384-1.263.732-2.617,1.043-3.934h.073c.348,1.3.7,2.672,1.08,3.934l.4,1.427h-3ZM95.929,0h2.214l.915-3.2h3.971l.915,3.2h2.306l-3.88-11.968H99.808Zm11.8,0h7.119V-1.83H109.91V-11.968h-2.178ZM120.6,0h2.178V-11.968H120.6Zm5.2,0h2.031V-5.234c0-1.336-.146-2.818-.274-4.063h.073a26.686,26.686,0,0,0,1.226,2.708L132.437,0h2.324V-11.968H132.73v5.234c0,1.318.146,2.782.275,4.063h-.073a26.689,26.689,0,0,0-1.226-2.708l-3.587-6.588h-2.324Zm14.054,0h2.58l3.77-11.968h-2.233l-1.7,5.984c-.384,1.354-.641,2.525-1.043,3.88h-.073c-.4-1.354-.677-2.525-1.043-3.88l-1.592-5.984h-2.306Zm7.8,0h7.411V-1.83h-5.234V-5.307H154.1v-1.83h-4.282v-3h5.051v-1.83h-7.229ZM161,.22c2.708,0,4.319-1.629,4.319-3.568a3.328,3.328,0,0,0-2.416-3.239l-1.61-.659c-.988-.421-1.885-.75-1.885-1.665,0-.86.714-1.372,1.83-1.372a3.923,3.923,0,0,1,2.544,1.006l1.171-1.427a5.4,5.4,0,0,0-3.715-1.482c-2.342,0-4.026,1.482-4.026,3.4a3.421,3.421,0,0,0,2.416,3.166l1.629.714c1.08.457,1.848.769,1.848,1.72,0,.915-.732,1.519-2.05,1.519a4.723,4.723,0,0,1-3.2-1.3l-1.171,1.427A5.983,5.983,0,0,0,161,.22ZM169.531,0h2.178V-10.138h3.44v-1.83h-9.059v1.83h3.44Zm7.594,0H179.1V-5.453a33.946,33.946,0,0,0-.329-3.88h.073l.952,2.891L181.7-1.1h1.427l1.94-5.344.952-2.891h.073a33.946,33.946,0,0,0-.329,3.88V0h2.013V-11.968h-2.562l-2.05,5.856c-.256.769-.439,1.464-.659,2.342h-.073c-.22-.878-.439-1.574-.7-2.342l-2.05-5.856h-2.562ZM190.8,0h7.411V-1.83h-5.234V-5.307h4.282v-1.83h-4.282v-3h5.051v-1.83H190.8Zm9.864,0h2.031V-5.234c0-1.336-.146-2.818-.275-4.063h.073a26.689,26.689,0,0,0,1.226,2.708L207.3,0h2.324V-11.968H207.6v5.234c0,1.318.146,2.782.274,4.063H207.8A26.686,26.686,0,0,0,206.57-5.38l-3.587-6.588H200.66Zm14.4,0h2.178V-10.138h3.44v-1.83h-9.059v1.83h3.44ZM229.83.22c2.708,0,4.319-1.629,4.319-3.568a3.328,3.328,0,0,0-2.416-3.239l-1.61-.659c-.988-.421-1.885-.75-1.885-1.665,0-.86.714-1.372,1.83-1.372a3.923,3.923,0,0,1,2.544,1.006l1.171-1.427a5.4,5.4,0,0,0-3.715-1.482c-2.342,0-4.026,1.482-4.026,3.4a3.421,3.421,0,0,0,2.416,3.166l1.629.714c1.08.457,1.848.769,1.848,1.72,0,.915-.732,1.519-2.05,1.519a4.723,4.723,0,0,1-3.2-1.3l-1.171,1.427A5.983,5.983,0,0,0,229.83.22Zm6.5-.22h7.411V-1.83H238.5V-5.307h4.282v-1.83H238.5v-3h5.051v-1.83h-7.229Zm9.864,0h2.178V-4.648h1.775L252.7,0h2.434L252.3-4.978A3.351,3.351,0,0,0,254.663-8.4c0-2.69-1.922-3.568-4.429-3.568H246.19Zm2.178-6.387V-10.23h1.647c1.629,0,2.507.476,2.507,1.83,0,1.336-.878,2.013-2.507,2.013ZM259.018,0h2.58l3.77-11.968h-2.233l-1.7,5.984c-.384,1.354-.64,2.525-1.043,3.88h-.073c-.4-1.354-.677-2.525-1.043-3.88l-1.592-5.984h-2.306Zm7.8,0h2.178V-11.968h-2.178Zm9.974.22a4.8,4.8,0,0,0,3.788-1.738l-1.171-1.3a3.266,3.266,0,0,1-2.525,1.153c-1.995,0-3.257-1.647-3.257-4.337,0-2.672,1.391-4.282,3.294-4.282a3.106,3.106,0,0,1,2.269.952l1.153-1.336a4.683,4.683,0,0,0-3.459-1.519c-3.038,0-5.49,2.324-5.49,6.24C271.389-1.976,273.786.22,276.787.22ZM282.57,0h7.411V-1.83h-5.234V-5.307h4.282v-1.83h-4.282v-3H289.8v-1.83H282.57Zm13.359.22c2.708,0,4.319-1.629,4.319-3.568a3.328,3.328,0,0,0-2.416-3.239l-1.61-.659c-.988-.421-1.885-.75-1.885-1.665,0-.86.714-1.372,1.83-1.372a3.923,3.923,0,0,1,2.544,1.006l1.171-1.427a5.4,5.4,0,0,0-3.715-1.482c-2.342,0-4.026,1.482-4.026,3.4a3.421,3.421,0,0,0,2.416,3.166l1.629.714c1.08.457,1.848.769,1.848,1.72,0,.915-.732,1.519-2.05,1.519a4.723,4.723,0,0,1-3.2-1.3l-1.171,1.427A5.982,5.982,0,0,0,295.929.22Z" transform="translate(19 13.5)" fill="#dcebf8"/>
  </g>
</svg>
