<svg xmlns="http://www.w3.org/2000/svg" xmlns:xlink="http://www.w3.org/1999/xlink" width="96" height="96" viewBox="0 0 96 96">
  <defs>
    <clipPath id="clip-path">
      <rect id="Rectangle_8804" data-name="Rectangle 8804" width="82.71" height="63.149" transform="translate(0 0)" fill="none"/>
    </clipPath>
    <clipPath id="clip-credit-card-contactless-hand">
      <rect width="96" height="96"/>
    </clipPath>
  </defs>
  <g id="credit-card-contactless-hand" clip-path="url(#clip-credit-card-contactless-hand)">
    <g id="Group_41470" data-name="Group 41470" transform="translate(7 17)">
      <g id="Group_41469" data-name="Group 41469" clip-path="url(#clip-path)">
        <path id="Path_43765" data-name="Path 43765" d="M22,47.149H10a2,2,0,0,1-2-2v-8a2,2,0,0,1,2-2H22a2,2,0,0,1,2,2v8a2,2,0,0,1-2,2m-10-4h8v-4H12Z" fill="#ed780f"/>
        <path id="Path_43766" data-name="Path 43766" d="M58,63.149H6a6.007,6.007,0,0,1-6-6v-32a6.007,6.007,0,0,1,6-6H58a6.008,6.008,0,0,1,6,6v32a6.008,6.008,0,0,1-6,6m-52-40a2,2,0,0,0-2,2v32a2,2,0,0,0,2,2H58a2,2,0,0,0,2-2v-32a2,2,0,0,0-2-2Z" fill="#0f3d70"/>
        <path id="Path_43767" data-name="Path 43767" d="M34,55.149H10a2,2,0,0,1,0-4H34a2,2,0,0,1,0,4" fill="#0f3d70"/>
        <path id="Path_43768" data-name="Path 43768" d="M68.373,23.149A2,2,0,0,1,66.4,21.48a6.125,6.125,0,0,0-.572-1.744,6.015,6.015,0,0,0-1.117-1.548,5.931,5.931,0,0,0-1.536-1.051A6.117,6.117,0,0,0,61.42,16.6,2,2,0,0,1,62,12.643a10.148,10.148,0,0,1,2.9.884,9.961,9.961,0,0,1,2.613,1.8,10.107,10.107,0,0,1,2.835,5.487,2,2,0,0,1-1.975,2.332" fill="#ed780f"/>
        <path id="Path_43769" data-name="Path 43769" d="M74.4,20.179A1.959,1.959,0,0,1,72.5,18.723c-.005-.018-.025-.1-.029-.118a10.94,10.94,0,0,0-3.051-5.335,11.663,11.663,0,0,0-5.44-2.964,2,2,0,1,1,.882-3.9,15.725,15.725,0,0,1,7.335,3.986,14.932,14.932,0,0,1,4.165,7.289,2.03,2.03,0,0,1-1.447,2.436,2.114,2.114,0,0,1-.507.063" fill="#ed780f"/>
        <path id="Path_43770" data-name="Path 43770" d="M80.705,17.313a1.978,1.978,0,0,1-1.894-1.387c-.01-.033-.029-.1-.038-.132a16.629,16.629,0,0,0-4.436-7.567A16.9,16.9,0,0,0,66.648,3.94,2,2,0,0,1,67.621.06a20.917,20.917,0,0,1,9.512,5.3,20.661,20.661,0,0,1,5.509,9.411,2.008,2.008,0,0,1-1.937,2.537" fill="#ed780f"/>
      </g>
    </g>
  </g>
</svg>
