<svg xmlns="http://www.w3.org/2000/svg" xmlns:xlink="http://www.w3.org/1999/xlink" viewBox="-6571 6157 80 80">
  <defs>
    <style>
      .cls-1 {
        clip-path: url(#clip-car);
      }

      .cls-2 {
        fill: #003056;
      }

      .cls-3 {
        fill: #2280bf;
      }

      .cls-4 {
        fill: #fff;
      }

      .cls-5 {
        fill: #ea7923;
      }
    </style>
    <clipPath id="clip-car">
      <rect x="-6571" y="6157" width="80" height="80"/>
    </clipPath>
  </defs>
  <g id="car" class="cls-1">
    <g id="Group_3564" data-name="Group 3564" transform="translate(-6564.194 6171.19)">
      <path id="Path_469" data-name="Path 469" class="cls-2" d="M18.123,120.8H5.7v10.336a1.767,1.767,0,0,0,1.756,1.756h8.878a1.767,1.767,0,0,0,1.756-1.756V120.8Z" transform="translate(-3.812 -80.783)"/>
      <path id="Path_470" data-name="Path 470" class="cls-2" d="M175.189,120.8H162.8v10.336a1.767,1.767,0,0,0,1.756,1.756h8.878a1.767,1.767,0,0,0,1.756-1.756Z" transform="translate(-108.869 -80.783)"/>
      <path id="Path_471" data-name="Path 471" class="cls-3" d="M67.728,0H31.917c-3.28,0-6.029,2.981-6.327,6.857L24,22.294H75.678L74.088,6.857C73.79,2.981,71.04,0,67.728,0Z" transform="translate(-16.05 0)"/>
      <path id="Path_472" data-name="Path 472" class="cls-4" d="M33.2,25.467l1.325-11.992C34.691,11.223,36.215,9.5,38.07,9.5H73.88c1.855,0,3.379,1.689,3.545,3.975L78.75,25.467Z" transform="translate(-22.202 -6.353)"/>
      <path id="Path_473" data-name="Path 473" class="cls-3" d="M61.892,64.291,57.651,62.8H14.487l-4.24,1.491s-6.659,5.963-6.659,7.851c0,1.259-.3,6-.066,9.673a3.514,3.514,0,0,0,3.511,3.28H65.171a3.521,3.521,0,0,0,3.511-3.147,72.07,72.07,0,0,0-.133-9.806C68.55,70.22,61.892,64.291,61.892,64.291Z" transform="translate(-2.296 -41.996)"/>
      <path id="Path_474" data-name="Path 474" class="cls-3" d="M9.077,48.01H7.719L6.89,46.121A3,3,0,0,0,4.207,44.2H2.12A2.32,2.32,0,0,0,0,46.685v.928A2.316,2.316,0,0,0,2.087,50.1H9.541Z" transform="translate(0 -29.558)"/>
      <path id="Path_475" data-name="Path 475" class="cls-3" d="M176.23,48.21h1.358l.828-1.888A3.052,3.052,0,0,1,181.1,44.4h2.087a2.316,2.316,0,0,1,2.087,2.485v.928a2.341,2.341,0,0,1-2.12,2.485H175.7Z" transform="translate(-117.496 -29.692)"/>
      <path id="Path_476" data-name="Path 476" class="cls-5" d="M84.055,104.6l-28.655.1,1.789,5.234,25.11-.1Z" transform="translate(-37.048 -69.949)"/>
      <path id="Path_477" data-name="Path 477" class="cls-4" d="M22.326,101H15.8v3.346a3.407,3.407,0,0,0,3.412,3.412h5.963a1.38,1.38,0,0,0,1.292-1.822l-.994-2.716A3.392,3.392,0,0,0,22.326,101Z" transform="translate(-10.566 -67.542)"/>
      <path id="Path_478" data-name="Path 478" class="cls-4" d="M161.828,101h6.493v3.346a3.407,3.407,0,0,1-3.412,3.412h-5.963a1.381,1.381,0,0,1-1.292-1.822l.994-2.716A3.4,3.4,0,0,1,161.828,101Z" transform="translate(-105.38 -67.542)"/>
    </g>
  </g>
</svg>
