<?xml version="1.0" encoding="UTF-8"?>
<svg id="Layer_1" data-name="Layer 1" xmlns="http://www.w3.org/2000/svg" xmlns:xlink="http://www.w3.org/1999/xlink" viewBox="0 0 1654.46 299.32">
  <defs>
    <style>
      .cls-1 {
        clip-path: url(#clippath);
      }

      .cls-2, .cls-3, .cls-4, .cls-5, .cls-6 {
        fill: none;
      }

      .cls-2, .cls-7, .cls-8 {
        stroke-width: 0px;
      }

      .cls-3, .cls-6 {
        stroke: #c8da2c;
        stroke-width: 2.02px;
      }

      .cls-4 {
        stroke-width: 80.41px;
      }

      .cls-4, .cls-5 {
        stroke: #8fc200;
      }

      .cls-5 {
        stroke-width: 80.64px;
      }

      .cls-6 {
        stroke-linecap: round;
        stroke-linejoin: round;
      }

      .cls-7 {
        fill: #a6d920;
      }

      .cls-8 {
        fill: #8fc200;
      }
    </style>
    <clipPath id="clippath">
      <rect class="cls-2" width="1654.46" height="299.32"/>
    </clipPath>
  </defs>
  <g class="cls-1">
    <rect class="cls-8" x="-66.74" y="-118.3" width="2416.1" height="613.82"/>
    <g>
      <path class="cls-7" d="M74.56,158.59v-.34c0-32.69,24.56-61.31,60.63-61.31s60.29,28.29,60.29,60.97v.34c0,32.68-24.56,61.3-60.63,61.3s-60.29-28.28-60.29-60.97M181.59,158.59v-.34c0-26.93-19.65-48.94-46.74-48.94s-46.41,21.68-46.41,48.61v.34c0,26.92,19.65,48.94,46.75,48.94s46.4-21.68,46.4-48.61"/>
      <path class="cls-4" d="M74.56,158.59v-.34c0-32.69,24.56-61.31,60.63-61.31s60.29,28.29,60.29,60.97v.34c0,32.68-24.56,61.3-60.63,61.3s-60.29-28.28-60.29-60.97ZM181.59,158.59v-.34c0-26.93-19.64-48.94-46.74-48.94s-46.4,21.68-46.4,48.61v.34c0,26.92,19.64,48.94,46.74,48.94s46.4-21.68,46.4-48.61ZM-127.68,158.59v-.34c0-32.52,23.88-61.31,59.44-61.31,19.99,0,32.35,5.76,44.2,15.75l-8.64,10.16c-9.15-7.96-19.31-13.55-36.07-13.55-26.25,0-45.05,22.19-45.05,48.61v.34c0,28.28,18.12,49.28,46.91,49.28,13.55,0,26.08-5.25,34.21-11.85v-29.46h-36.07v-12.03H-19.8v47.25c-11.01,9.82-27.61,18.12-47.59,18.12-37.26,0-60.29-27.1-60.29-60.97Z"/>
      <path class="cls-3" d="M134.85,259.88c-56.42,0-100.61-44.49-100.61-101.29v-.34c0-56.99,44.34-101.63,100.96-101.63s100.61,44.49,100.61,101.29v.34c0,56.99-44.34,101.63-100.96,101.63ZM134.85,149.63c-5.49,0-6.08,5.79-6.08,8.28v.34c0,.88.18,8.62,6.42,8.62,5.49,0,6.08-5.79,6.08-8.28v-.34c0-.88-.18-8.62-6.42-8.62ZM-67.39,259.88c-57.36,0-100.61-43.54-100.61-101.29v-.34c0-56.99,43.82-101.63,99.77-101.63,27.46,0,49.76,8.02,70.19,25.24l30.96,26.1-12.38,14.57v96.96l-13.48,12.03c-20.49,18.28-46.93,28.36-74.44,28.36ZM134.85,246.44c-48.88,0-87.17-38.59-87.17-87.85v-.34c0-49.45,38.44-88.19,87.51-88.19s87.17,38.59,87.17,87.85v.34c0,49.45-38.44,88.19-87.51,88.19ZM134.85,136.19c-13.41,0-19.52,11.26-19.52,21.72v.34c0,10.96,6.82,22.06,19.86,22.06s19.52-11.26,19.52-21.72v-.34c0-10.97-6.82-22.06-19.86-22.06ZM-67.39,246.44c-50.51,0-87.17-36.94-87.17-87.85v-.34c0-49.45,37.92-88.19,86.32-88.19,24.44,0,43.42,6.81,61.53,22.08l20.64,17.4L-1.17,127.3H7.09v86.17l-8.98,8.01c-18.03,16.09-41.29,24.94-65.49,24.94ZM134.85,233c-41.35,0-73.73-32.68-73.73-74.41v-.34c0-41.92,32.53-74.75,74.07-74.75s73.73,32.68,73.73,74.41v.34c0,41.92-32.54,74.75-74.07,74.75ZM134.85,122.75c-19.1,0-32.96,14.79-32.96,35.16v.34c0,20.24,14.32,35.5,33.3,35.5s32.96-14.79,32.96-35.16v-.34c0-20.24-14.32-35.5-33.3-35.5ZM-67.39,233c-42.72,0-73.73-31.29-73.73-74.41v-.34c0-41.92,32.01-74.75,72.88-74.75,21.33,0,37.14,5.66,52.86,18.92l10.32,8.69-25.18,29.63H-6.35v66.71l-4.49,4.01c-9.02,8.04-28.35,21.53-56.54,21.53ZM-68.74,122.75c-18.02,0-31.61,15.12-31.61,35.16v.34c0,21.77,13.14,35.84,33.47,35.84,8.08,0,15.38-2.49,20.77-5.51v-8.93h-36.07v-38.91h49.59l-8.9-7.75c-7.27-6.33-14.36-10.25-27.24-10.25ZM74.56,158.59v-.34c0-32.69,24.56-61.31,60.63-61.31s60.29,28.29,60.29,60.97v.34c0,32.68-24.56,61.3-60.63,61.3s-60.29-28.28-60.29-60.97ZM181.59,158.59v-.34c0-26.93-19.64-48.94-46.74-48.94s-46.4,21.68-46.4,48.61v.34c0,26.92,19.64,48.94,46.74,48.94s46.4-21.68,46.4-48.61ZM-127.68,158.59v-.34c0-32.52,23.88-61.31,59.44-61.31,19.99,0,32.35,5.76,44.2,15.75l-8.64,10.16c-9.15-7.96-19.31-13.55-36.07-13.55-26.25,0-45.05,22.19-45.05,48.61v.34c0,28.28,18.12,49.28,46.91,49.28,13.55,0,26.08-5.25,34.21-11.85v-29.46h-36.07v-12.03H-19.8v47.25c-11.01,9.82-27.61,18.12-47.59,18.12-37.26,0-60.29-27.1-60.29-60.97Z"/>
      <path class="cls-7" d="M-46.25-1.04v-.34c0-32.52,23.88-61.31,59.44-61.31,19.99,0,32.35,5.76,44.2,15.75l-8.64,10.16c-9.15-7.96-19.31-13.55-36.07-13.55-26.25,0-45.05,22.19-45.05,48.61v.34c0,28.28,18.12,49.28,46.91,49.28,13.55,0,26.08-5.25,34.21-11.85V6.59H12.69V-5.44h48.94v47.25c-11.01,9.82-27.61,18.12-47.59,18.12-37.26,0-60.29-27.1-60.29-60.97"/>
      <path class="cls-7" d="M155.99-1.04v-.34c0-32.69,24.56-61.31,60.63-61.31s60.29,28.29,60.29,60.97v.34c0,32.68-24.56,61.3-60.63,61.3S155.99,31.65,155.99-1.04M263.02-1.04v-.34c0-26.93-19.65-48.94-46.74-48.94S169.87-28.64,169.87-1.71v.34c0,26.92,19.65,48.94,46.75,48.94s46.4-21.68,46.4-48.61"/>
      <path class="cls-4" d="M155.99-1.04v-.34c0-32.69,24.56-61.31,60.63-61.31s60.29,28.29,60.29,60.97v.34c0,32.68-24.56,61.3-60.63,61.3S155.99,31.65,155.99-1.04ZM263.02-1.04v-.34c0-26.93-19.64-48.94-46.74-48.94S169.87-28.64,169.87-1.71v.34c0,26.92,19.64,48.94,46.74,48.94s46.4-21.68,46.4-48.61ZM-46.25-1.04v-.34c0-32.52,23.88-61.31,59.44-61.31,19.99,0,32.35,5.76,44.2,15.75l-8.64,10.16c-9.15-7.96-19.31-13.55-36.07-13.55-26.25,0-45.05,22.19-45.05,48.61v.34c0,28.28,18.12,49.28,46.91,49.28,13.55,0,26.08-5.25,34.21-11.85V6.59H12.69V-5.44h48.94v47.25c-11.01,9.82-27.61,18.12-47.59,18.12-37.26,0-60.29-27.1-60.29-60.97Z"/>
      <path class="cls-3" d="M216.27,100.25c-56.42,0-100.61-44.49-100.61-101.29v-.34c0-56.99,44.34-101.63,100.96-101.63S317.23-58.51,317.23-1.71v.34c0,56.99-44.34,101.63-100.96,101.63ZM216.27-10c-5.49,0-6.08,5.79-6.08,8.28v.34c0,.88.18,8.62,6.42,8.62,5.49,0,6.08-5.79,6.08-8.28v-.34c0-.88-.18-8.62-6.42-8.62ZM14.04,100.25c-57.36,0-100.61-43.54-100.61-101.29v-.34c0-56.99,43.82-101.63,99.77-101.63,27.46,0,49.76,8.02,70.19,25.24l30.96,26.1-12.38,14.57V59.87l-13.48,12.03c-20.49,18.28-46.93,28.36-74.44,28.36ZM216.27,86.81c-48.88,0-87.17-38.59-87.17-87.85v-.34c0-49.45,38.44-88.19,87.51-88.19S303.79-50.98,303.79-1.71v.34c0,49.45-38.44,88.19-87.51,88.19ZM216.27-23.44c-13.41,0-19.52,11.26-19.52,21.72v.34c0,10.96,6.82,22.06,19.86,22.06s19.52-11.26,19.52-21.72v-.34c0-10.97-6.82-22.06-19.86-22.06ZM14.04,86.81c-50.51,0-87.17-36.94-87.17-87.85v-.34c0-49.45,37.92-88.19,86.32-88.19,24.44,0,43.42,6.81,61.53,22.08l20.64,17.4-15.1,17.76h8.25V53.85l-8.98,8.01c-18.03,16.09-41.29,24.94-65.49,24.94ZM216.27,73.37c-41.35,0-73.73-32.68-73.73-74.41v-.34c0-41.92,32.53-74.75,74.07-74.75S290.35-43.44,290.35-1.71v.34c0,41.92-32.54,74.75-74.07,74.75ZM216.27-36.88c-19.1,0-32.96,14.79-32.96,35.16v.34c0,20.24,14.32,35.5,33.3,35.5s32.96-14.79,32.96-35.16v-.34c0-20.24-14.32-35.5-33.3-35.5ZM14.04,73.37C-28.68,73.37-59.69,42.08-59.69-1.04v-.34c0-41.92,32.01-74.75,72.88-74.75,21.33,0,37.14,5.66,52.86,18.92l10.32,8.69-25.18,29.63h23.88V47.83l-4.49,4.01c-9.02,8.04-28.35,21.53-56.54,21.53ZM12.69-36.88c-18.02,0-31.61,15.12-31.61,35.16v.34c0,21.77,13.14,35.84,33.47,35.84,8.08,0,15.38-2.49,20.77-5.51v-8.93H-.75V-18.88h49.59l-8.9-7.75c-7.27-6.33-14.36-10.25-27.24-10.25ZM155.99-1.04v-.34c0-32.69,24.56-61.31,60.63-61.31s60.29,28.29,60.29,60.97v.34c0,32.68-24.56,61.3-60.63,61.3S155.99,31.65,155.99-1.04ZM263.02-1.04v-.34c0-26.93-19.64-48.94-46.74-48.94S169.87-28.64,169.87-1.71v.34c0,26.92,19.64,48.94,46.74,48.94s46.4-21.68,46.4-48.61ZM-46.25-1.04v-.34c0-32.52,23.88-61.31,59.44-61.31,19.99,0,32.35,5.76,44.2,15.75l-8.64,10.16c-9.15-7.96-19.31-13.55-36.07-13.55-26.25,0-45.05,22.19-45.05,48.61v.34c0,28.28,18.12,49.28,46.91,49.28,13.55,0,26.08-5.25,34.21-11.85V6.59H12.69V-5.44h48.94v47.25c-11.01,9.82-27.61,18.12-47.59,18.12-37.26,0-60.29-27.1-60.29-60.97Z"/>
      <path class="cls-7" d="M699.94,158.59v-.34c0-32.52,23.88-61.31,59.44-61.31,19.99,0,32.35,5.76,44.2,15.75l-8.64,10.16c-9.15-7.96-19.31-13.55-36.07-13.55-26.25,0-45.05,22.19-45.05,48.61v.34c0,28.28,18.12,49.28,46.91,49.28,13.55,0,26.08-5.25,34.21-11.85v-29.46h-36.07v-12.03h48.94v47.25c-11.01,9.82-27.61,18.12-47.59,18.12-37.26,0-60.29-27.1-60.29-60.97"/>
      <path class="cls-7" d="M902.18,158.59v-.34c0-32.69,24.56-61.31,60.63-61.31s60.29,28.29,60.29,60.97v.34c0,32.68-24.56,61.3-60.63,61.3s-60.29-28.28-60.29-60.97M1009.21,158.59v-.34c0-26.93-19.65-48.94-46.74-48.94s-46.41,21.68-46.41,48.61v.34c0,26.92,19.65,48.94,46.75,48.94s46.4-21.68,46.4-48.61"/>
      <path class="cls-4" d="M902.18,158.59v-.34c0-32.69,24.56-61.31,60.63-61.31s60.29,28.29,60.29,60.97v.34c0,32.68-24.56,61.3-60.63,61.3s-60.29-28.28-60.29-60.97ZM1009.21,158.59v-.34c0-26.93-19.64-48.94-46.74-48.94s-46.4,21.68-46.4,48.61v.34c0,26.92,19.64,48.94,46.74,48.94s46.4-21.68,46.4-48.61ZM699.94,158.59v-.34c0-32.52,23.88-61.31,59.44-61.31,19.99,0,32.35,5.76,44.2,15.75l-8.64,10.16c-9.15-7.96-19.31-13.55-36.07-13.55-26.25,0-45.05,22.19-45.05,48.61v.34c0,28.28,18.12,49.28,46.91,49.28,13.55,0,26.08-5.25,34.21-11.85v-29.46h-36.07v-12.03h48.94v47.25c-11.01,9.82-27.61,18.12-47.59,18.12-37.26,0-60.29-27.1-60.29-60.97Z"/>
      <path class="cls-3" d="M962.47,259.88c-56.42,0-100.61-44.49-100.61-101.29v-.34c0-56.99,44.34-101.63,100.96-101.63s100.61,44.49,100.61,101.29v.34c0,56.99-44.34,101.63-100.96,101.63ZM962.47,149.63c-5.49,0-6.08,5.79-6.08,8.28v.34c0,.88.18,8.62,6.42,8.62,5.49,0,6.08-5.79,6.08-8.28v-.34c0-.88-.18-8.62-6.42-8.62ZM760.23,259.88c-57.36,0-100.61-43.54-100.61-101.29v-.34c0-56.99,43.82-101.63,99.77-101.63,27.46,0,49.76,8.02,70.19,25.24l30.96,26.1-12.38,14.57v96.96l-13.48,12.03c-20.49,18.28-46.93,28.36-74.44,28.36ZM962.47,246.44c-48.88,0-87.17-38.59-87.17-87.85v-.34c0-49.45,38.44-88.19,87.51-88.19s87.17,38.59,87.17,87.85v.34c0,49.45-38.44,88.19-87.51,88.19ZM962.47,136.19c-13.41,0-19.52,11.26-19.52,21.72v.34c0,10.96,6.82,22.06,19.86,22.06s19.52-11.26,19.52-21.72v-.34c0-10.97-6.82-22.06-19.86-22.06ZM760.23,246.44c-50.51,0-87.17-36.94-87.17-87.85v-.34c0-49.45,37.92-88.19,86.32-88.19,24.44,0,43.42,6.81,61.53,22.08l20.64,17.4-15.1,17.76h8.25v86.17l-8.98,8.01c-18.03,16.09-41.29,24.94-65.49,24.94ZM962.47,233c-41.35,0-73.73-32.68-73.73-74.41v-.34c0-41.92,32.53-74.75,74.07-74.75s73.73,32.68,73.73,74.41v.34c0,41.92-32.54,74.75-74.07,74.75ZM962.47,122.75c-19.1,0-32.96,14.79-32.96,35.16v.34c0,20.24,14.32,35.5,33.3,35.5s32.96-14.79,32.96-35.16v-.34c0-20.24-14.32-35.5-33.3-35.5ZM760.23,233c-42.72,0-73.73-31.29-73.73-74.41v-.34c0-41.92,32.01-74.75,72.88-74.75,21.33,0,37.14,5.66,52.86,18.92l10.32,8.69-25.18,29.63h23.88v66.71l-4.49,4.01c-9.02,8.04-28.35,21.53-56.54,21.53ZM758.88,122.75c-18.02,0-31.61,15.12-31.61,35.16v.34c0,21.77,13.14,35.84,33.47,35.84,8.08,0,15.38-2.49,20.77-5.51v-8.93h-36.07v-38.91h49.59l-8.9-7.75c-7.27-6.33-14.36-10.25-27.24-10.25ZM902.18,158.59v-.34c0-32.69,24.56-61.31,60.63-61.31s60.29,28.29,60.29,60.97v.34c0,32.68-24.56,61.3-60.63,61.3s-60.29-28.28-60.29-60.97ZM1009.21,158.59v-.34c0-26.93-19.64-48.94-46.74-48.94s-46.4,21.68-46.4,48.61v.34c0,26.92,19.64,48.94,46.74,48.94s46.4-21.68,46.4-48.61ZM699.94,158.59v-.34c0-32.52,23.88-61.31,59.44-61.31,19.99,0,32.35,5.76,44.2,15.75l-8.64,10.16c-9.15-7.96-19.31-13.55-36.07-13.55-26.25,0-45.05,22.19-45.05,48.61v.34c0,28.28,18.12,49.28,46.91,49.28,13.55,0,26.08-5.25,34.21-11.85v-29.46h-36.07v-12.03h48.94v47.25c-11.01,9.82-27.61,18.12-47.59,18.12-37.26,0-60.29-27.1-60.29-60.97Z"/>
      <path class="cls-7" d="M781.37-1.04v-.34c0-32.52,23.88-61.31,59.44-61.31,19.99,0,32.35,5.76,44.2,15.75l-8.64,10.16c-9.15-7.96-19.31-13.55-36.07-13.55-26.25,0-45.05,22.19-45.05,48.61v.34c0,28.28,18.12,49.28,46.91,49.28,13.55,0,26.08-5.25,34.21-11.85V6.59h-36.07V-5.44h48.94v47.25c-11.01,9.82-27.61,18.12-47.59,18.12-37.26,0-60.29-27.1-60.29-60.97"/>
      <path class="cls-7" d="M983.61-1.04v-.34c0-32.69,24.56-61.31,60.63-61.31s60.29,28.29,60.29,60.97v.34c0,32.68-24.56,61.3-60.63,61.3s-60.29-28.28-60.29-60.97M1090.64-1.04v-.34c0-26.93-19.65-48.94-46.74-48.94s-46.41,21.68-46.41,48.61v.34c0,26.92,19.65,48.94,46.75,48.94s46.4-21.68,46.4-48.61"/>
      <path class="cls-4" d="M983.6-1.04v-.34c0-32.69,24.56-61.31,60.63-61.31s60.29,28.29,60.29,60.97v.34c0,32.68-24.56,61.3-60.63,61.3s-60.29-28.28-60.29-60.97ZM1090.64-1.04v-.34c0-26.93-19.64-48.94-46.74-48.94s-46.4,21.68-46.4,48.61v.34c0,26.92,19.64,48.94,46.74,48.94s46.4-21.68,46.4-48.61ZM781.37-1.04v-.34c0-32.52,23.88-61.31,59.44-61.31,19.99,0,32.35,5.76,44.2,15.75l-8.64,10.16c-9.15-7.96-19.31-13.55-36.07-13.55-26.25,0-45.05,22.19-45.05,48.61v.34c0,28.28,18.12,49.28,46.91,49.28,13.55,0,26.08-5.25,34.21-11.85V6.59h-36.07V-5.44h48.94v47.25c-11.01,9.82-27.61,18.12-47.59,18.12-37.26,0-60.29-27.1-60.29-60.97Z"/>
      <path class="cls-3" d="M1043.89,100.25c-56.42,0-100.61-44.49-100.61-101.29v-.34c0-56.99,44.34-101.63,100.96-101.63s100.61,44.49,100.61,101.29v.34c0,56.99-44.34,101.63-100.96,101.63ZM1043.89-10c-5.49,0-6.08,5.79-6.08,8.28v.34c0,.88.18,8.62,6.42,8.62,5.49,0,6.08-5.79,6.08-8.28v-.34c0-.88-.18-8.62-6.42-8.62ZM841.66,100.25c-57.36,0-100.61-43.54-100.61-101.29v-.34c0-56.99,43.82-101.63,99.77-101.63,27.46,0,49.76,8.02,70.19,25.24l30.96,26.1-12.38,14.57V59.87l-13.48,12.03c-20.49,18.28-46.93,28.36-74.44,28.36ZM1043.89,86.81c-48.88,0-87.17-38.59-87.17-87.85v-.34c0-49.45,38.44-88.19,87.51-88.19s87.17,38.59,87.17,87.85v.34c0,49.45-38.44,88.19-87.51,88.19ZM1043.89-23.44c-13.41,0-19.52,11.26-19.52,21.72v.34c0,10.96,6.82,22.06,19.86,22.06s19.52-11.26,19.52-21.72v-.34c0-10.97-6.82-22.06-19.86-22.06ZM841.66,86.81c-50.51,0-87.17-36.94-87.17-87.85v-.34c0-49.45,37.92-88.19,86.32-88.19,24.44,0,43.42,6.81,61.53,22.08l20.64,17.4-15.1,17.76h8.25V53.85l-8.98,8.01c-18.03,16.09-41.29,24.94-65.49,24.94ZM1043.89,73.37c-41.35,0-73.73-32.68-73.73-74.41v-.34c0-41.92,32.53-74.75,74.07-74.75s73.73,32.68,73.73,74.41v.34c0,41.92-32.54,74.75-74.07,74.75ZM1043.89-36.88c-19.1,0-32.96,14.79-32.96,35.16v.34c0,20.24,14.32,35.5,33.3,35.5s32.96-14.79,32.96-35.16v-.34c0-20.24-14.32-35.5-33.3-35.5ZM841.66,73.37c-42.72,0-73.73-31.29-73.73-74.41v-.34c0-41.92,32.01-74.75,72.88-74.75,21.33,0,37.14,5.66,52.86,18.92l10.32,8.69-25.18,29.63h23.88V47.83l-4.49,4.01c-9.02,8.04-28.35,21.53-56.54,21.53ZM840.31-36.88c-18.02,0-31.61,15.12-31.61,35.16v.34c0,21.77,13.14,35.84,33.47,35.84,8.08,0,15.38-2.49,20.77-5.51v-8.93h-36.07V-18.88h49.59l-8.9-7.75c-7.27-6.33-14.36-10.25-27.24-10.25ZM983.6-1.04v-.34c0-32.69,24.56-61.31,60.63-61.31s60.29,28.29,60.29,60.97v.34c0,32.68-24.56,61.3-60.63,61.3s-60.29-28.28-60.29-60.97ZM1090.64-1.04v-.34c0-26.93-19.64-48.94-46.74-48.94s-46.4,21.68-46.4,48.61v.34c0,26.92,19.64,48.94,46.74,48.94s46.4-21.68,46.4-48.61ZM781.37-1.04v-.34c0-32.52,23.88-61.31,59.44-61.31,19.99,0,32.35,5.76,44.2,15.75l-8.64,10.16c-9.15-7.96-19.31-13.55-36.07-13.55-26.25,0-45.05,22.19-45.05,48.61v.34c0,28.28,18.12,49.28,46.91,49.28,13.55,0,26.08-5.25,34.21-11.85V6.59h-36.07V-5.44h48.94v47.25c-11.01,9.82-27.61,18.12-47.59,18.12-37.26,0-60.29-27.1-60.29-60.97Z"/>
      <path class="cls-7" d="M287.42,125.08v-.34c0-32.52,23.88-61.31,59.44-61.31,19.99,0,32.35,5.76,44.2,15.75l-8.64,10.16c-9.15-7.96-19.31-13.55-36.07-13.55-26.25,0-45.05,22.19-45.05,48.61v.34c0,28.28,18.12,49.28,46.91,49.28,13.55,0,26.08-5.25,34.21-11.85v-29.46h-36.07v-12.03h48.94v47.25c-11.01,9.82-27.61,18.12-47.59,18.12-37.26,0-60.29-27.1-60.29-60.97"/>
      <path class="cls-7" d="M489.65,125.08v-.34c0-32.69,24.56-61.31,60.63-61.31s60.29,28.29,60.29,60.97v.34c0,32.68-24.56,61.3-60.63,61.3s-60.29-28.28-60.29-60.97M596.69,125.08v-.34c0-26.93-19.65-48.94-46.74-48.94s-46.41,21.68-46.41,48.61v.34c0,26.92,19.65,48.94,46.75,48.94s46.4-21.68,46.4-48.61"/>
      <path class="cls-4" d="M489.65,125.08v-.34c0-32.69,24.56-61.31,60.63-61.31s60.29,28.29,60.29,60.97v.34c0,32.68-24.56,61.3-60.63,61.3s-60.29-28.28-60.29-60.97ZM596.68,125.08v-.34c0-26.93-19.64-48.94-46.74-48.94s-46.4,21.68-46.4,48.61v.34c0,26.92,19.64,48.94,46.74,48.94s46.4-21.68,46.4-48.61ZM287.42,125.08v-.34c0-32.52,23.88-61.31,59.44-61.31,19.99,0,32.35,5.76,44.2,15.75l-8.64,10.16c-9.15-7.96-19.31-13.55-36.07-13.55-26.25,0-45.05,22.19-45.05,48.61v.34c0,28.28,18.12,49.28,46.91,49.28,13.55,0,26.08-5.25,34.21-11.85v-29.46h-36.07v-12.03h48.94v47.25c-11.01,9.82-27.61,18.12-47.59,18.12-37.26,0-60.29-27.1-60.29-60.97Z"/>
      <path class="cls-3" d="M549.94,226.37c-56.42,0-100.61-44.49-100.61-101.29v-.34c0-56.99,44.34-101.63,100.96-101.63s100.61,44.49,100.61,101.29v.34c0,56.99-44.34,101.63-100.96,101.63ZM549.94,116.12c-5.49,0-6.08,5.79-6.08,8.28v.34c0,.88.18,8.62,6.42,8.62,5.49,0,6.08-5.79,6.08-8.28v-.34c0-.88-.18-8.62-6.42-8.62ZM347.71,226.37c-57.36,0-100.61-43.54-100.61-101.29v-.34c0-56.99,43.82-101.63,99.77-101.63,27.46,0,49.76,8.02,70.19,25.24l30.96,26.1-12.38,14.57v96.96l-13.48,12.03c-20.49,18.28-46.93,28.36-74.44,28.36ZM549.94,212.93c-48.88,0-87.17-38.59-87.17-87.85v-.34c0-49.45,38.44-88.19,87.51-88.19s87.17,38.59,87.17,87.85v.34c0,49.45-38.44,88.19-87.51,88.19ZM549.94,102.68c-13.41,0-19.52,11.26-19.52,21.72v.34c0,10.96,6.82,22.06,19.86,22.06s19.52-11.26,19.52-21.72v-.34c0-10.97-6.82-22.06-19.86-22.06ZM347.71,212.93c-50.51,0-87.17-36.94-87.17-87.85v-.34c0-49.45,37.92-88.19,86.32-88.19,24.44,0,43.42,6.81,61.53,22.08l20.64,17.4-15.1,17.76h8.25v86.17l-8.98,8.01c-18.03,16.09-41.29,24.94-65.49,24.94ZM549.94,199.49c-41.35,0-73.73-32.68-73.73-74.41v-.34c0-41.92,32.53-74.75,74.07-74.75s73.73,32.68,73.73,74.41v.34c0,41.92-32.54,74.75-74.07,74.75ZM549.94,89.24c-19.1,0-32.96,14.79-32.96,35.16v.34c0,20.24,14.32,35.5,33.3,35.5s32.96-14.79,32.96-35.16v-.34c0-20.24-14.32-35.5-33.3-35.5ZM347.71,199.49c-42.72,0-73.73-31.29-73.73-74.41v-.34c0-41.92,32.01-74.75,72.88-74.75,21.33,0,37.14,5.66,52.86,18.92l10.32,8.69-25.18,29.63h23.88v66.71l-4.49,4.01c-9.02,8.04-28.35,21.53-56.54,21.53ZM346.35,89.24c-18.02,0-31.61,15.12-31.61,35.16v.34c0,21.77,13.14,35.84,33.47,35.84,8.08,0,15.38-2.49,20.77-5.51v-8.93h-36.07v-38.91h49.59l-8.9-7.75c-7.27-6.33-14.36-10.25-27.24-10.25ZM489.65,125.08v-.34c0-32.69,24.56-61.31,60.63-61.31s60.29,28.29,60.29,60.97v.34c0,32.68-24.56,61.3-60.63,61.3s-60.29-28.28-60.29-60.97ZM596.68,125.08v-.34c0-26.93-19.64-48.94-46.74-48.94s-46.4,21.68-46.4,48.61v.34c0,26.92,19.64,48.94,46.74,48.94s46.4-21.68,46.4-48.61ZM287.42,125.08v-.34c0-32.52,23.88-61.31,59.44-61.31,19.99,0,32.35,5.76,44.2,15.75l-8.64,10.16c-9.15-7.96-19.31-13.55-36.07-13.55-26.25,0-45.05,22.19-45.05,48.61v.34c0,28.28,18.12,49.28,46.91,49.28,13.55,0,26.08-5.25,34.21-11.85v-29.46h-36.07v-12.03h48.94v47.25c-11.01,9.82-27.61,18.12-47.59,18.12-37.26,0-60.29-27.1-60.29-60.97Z"/>
      <path class="cls-5" d="M566.34-38.07v-.49c0-46.99,34.69-89.07,86.86-89.07s86.37,41.59,86.37,88.58v.49c0,47-34.69,89.07-86.86,89.07s-86.36-41.58-86.36-88.58ZM726.27-38.07v-.49c0-42.57-31-77.51-73.57-77.51s-73.08,34.45-73.08,77.02v.49c0,42.57,31,77.51,73.57,77.51s73.08-34.45,73.08-77.02ZM321.28-38.07v-.49c0-46.51,33.71-89.07,85.13-89.07,28.05,0,45.77,8.37,62.99,22.64l-8.36,9.6c-13.53-11.81-29.28-20.67-55.36-20.67-41.83,0-71.11,35.43-71.11,77.02v.49c0,44.54,27.8,77.75,73.82,77.75,21.9,0,42.32-9.1,54.87-19.68V-29.95h-57.58v-11.81h69.88V24.68c-15.5,13.78-39.61,25.84-67.66,25.84-54.38,0-86.61-40.11-86.61-88.58Z"/>
      <path class="cls-3" d="M652.7,77.39c-63.5,0-113.25-50.72-113.25-115.46v-.49c0-65.02,49.96-115.96,113.74-115.96s113.25,50.72,113.25,115.46v.49c0,65.02-49.96,115.96-113.74,115.96ZM652.7-89.19c-26.77,0-46.19,21.08-46.19,50.13v.49c0,28.86,20.07,50.63,46.69,50.63s46.2-21.08,46.2-50.13v-.49c0-28.86-20.07-50.63-46.69-50.63ZM407.89,77.39c-65.76,0-113.49-48.56-113.49-115.46v-.49c0-65.02,49.2-115.96,112.02-115.96,31.8,0,55.77,8.62,80.14,28.82l21.22,17.59-34.4,39.47h29.06V36.75l-9.02,8.02c-23.33,20.74-54.5,32.63-85.53,32.63ZM405.68-89.19c-28.73,0-44.23,25.83-44.23,50.13v.49c0,31.85,17.54,50.87,46.93,50.87,10.62,0,20.44-3.16,27.99-7.08V-3.07h-57.58v-65.58h72.02l-7.45-6.5c-9.93-8.67-19.7-14.04-37.68-14.04ZM652.7,63.95c-56.9,0-99.81-43.86-99.81-102.02v-.49c0-57.49,44.06-102.51,100.3-102.51s99.81,43.86,99.81,102.02v.49c0,57.49-44.05,102.51-100.3,102.51ZM652.7-102.63c-34,0-59.64,27.33-59.64,63.57v.49c0,36.52,25.85,64.07,60.13,64.07s59.64-27.33,59.64-63.57v-.49c0-36.52-25.85-64.07-60.13-64.07ZM407.89,63.95c-57.97,0-100.05-42.91-100.05-102.02v-.49c0-50.39,36.87-102.51,98.58-102.51,28.4,0,49.8,7.69,71.57,25.73l10.61,8.79-26.25,30.12-10.14-8.85c-10.33-9.01-23.11-17.35-46.52-17.35-32.88,0-57.67,27.33-57.67,63.57v.49c0,39.07,23.7,64.31,60.38,64.31,16.67,0,31.53-6.16,41.43-12.91v-29.35h-57.58v-38.69h96.76V30.71l-4.51,4.01c-20.9,18.58-48.81,29.23-76.59,29.23ZM566.34-38.07v-.49c0-46.99,34.69-89.07,86.86-89.07s86.37,41.59,86.37,88.58v.49c0,47-34.69,89.07-86.86,89.07s-86.36-41.58-86.36-88.58ZM726.27-38.07v-.49c0-42.57-31-77.51-73.57-77.51s-73.08,34.45-73.08,77.02v.49c0,42.57,31,77.51,73.57,77.51s73.08-34.45,73.08-77.02ZM321.28-38.07v-.49c0-46.51,33.71-89.07,85.13-89.07,28.05,0,45.77,8.37,62.99,22.64l-8.36,9.6c-13.53-11.81-29.28-20.67-55.36-20.67-41.83,0-71.11,35.43-71.11,77.02v.49c0,44.54,27.8,77.75,73.82,77.75,21.9,0,42.32-9.1,54.87-19.68V-29.95h-57.58v-11.81h69.88V24.68c-15.5,13.78-39.61,25.84-67.66,25.84-54.38,0-86.61-40.11-86.61-88.58Z"/>
      <path class="cls-6" d="M652.7,90.83c-71.04,0-126.69-56.62-126.69-128.9v-.49c0-72.56,55.86-129.4,127.18-129.4s126.69,56.62,126.69,128.91v.49c0,72.56-55.87,129.39-127.18,129.39ZM652.7-75.75c-21.51,0-32.75,18.46-32.75,36.7v.49c0,18.48,11.42,37.18,33.24,37.18s32.76-18.46,32.76-36.69v-.49c0-18.48-11.42-37.19-33.25-37.19ZM407.89,90.83c-73.55,0-126.93-54.21-126.93-128.9v-.49c0-72.56,55.11-129.4,125.45-129.4,34.73,0,62.09,9.84,88.72,31.91l31.83,26.38-24.04,27.58h12.96V42.78l-13.53,12.03c-25.76,22.89-60.18,36.02-94.46,36.02Z"/>
      <path class="cls-7" d="M1526.79,158.59v-.34c0-32.52,23.88-61.31,59.44-61.31,19.99,0,32.35,5.76,44.2,15.75l-8.64,10.16c-9.15-7.96-19.31-13.55-36.07-13.55-26.25,0-45.05,22.19-45.05,48.61v.34c0,28.28,18.12,49.28,46.91,49.28,13.55,0,26.08-5.25,34.21-11.85v-29.46h-36.07v-12.03h48.94v47.25c-11.01,9.82-27.61,18.12-47.59,18.12-37.26,0-60.29-27.1-60.29-60.97"/>
      <path class="cls-4" d="M1729.03,158.59v-.34c0-32.69,24.56-61.31,60.63-61.31s60.29,28.29,60.29,60.97v.34c0,32.68-24.56,61.3-60.63,61.3s-60.29-28.28-60.29-60.97ZM1836.06,158.59v-.34c0-26.93-19.64-48.94-46.74-48.94s-46.4,21.68-46.4,48.61v.34c0,26.92,19.64,48.94,46.74,48.94s46.4-21.68,46.4-48.61ZM1526.79,158.59v-.34c0-32.52,23.88-61.31,59.44-61.31,19.99,0,32.35,5.76,44.2,15.75l-8.64,10.16c-9.15-7.96-19.31-13.55-36.07-13.55-26.25,0-45.05,22.19-45.05,48.61v.34c0,28.28,18.12,49.28,46.91,49.28,13.55,0,26.08-5.25,34.21-11.85v-29.46h-36.07v-12.03h48.94v47.25c-11.01,9.82-27.61,18.12-47.59,18.12-37.26,0-60.29-27.1-60.29-60.97Z"/>
      <path class="cls-3" d="M1789.32,259.88c-56.42,0-100.61-44.49-100.61-101.29v-.34c0-56.99,44.34-101.63,100.96-101.63s100.61,44.49,100.61,101.29v.34c0,56.99-44.34,101.63-100.96,101.63ZM1789.32,149.63c-5.49,0-6.08,5.79-6.08,8.28v.34c0,.88.18,8.62,6.42,8.62,5.49,0,6.08-5.79,6.08-8.28v-.34c0-.88-.18-8.62-6.42-8.62ZM1587.08,259.88c-57.36,0-100.61-43.54-100.61-101.29v-.34c0-56.99,43.82-101.63,99.77-101.63,27.46,0,49.76,8.02,70.19,25.24l30.96,26.1-12.38,14.57v96.96l-13.48,12.03c-20.49,18.28-46.93,28.36-74.44,28.36ZM1789.32,246.44c-48.88,0-87.17-38.59-87.17-87.85v-.34c0-49.45,38.44-88.19,87.51-88.19s87.17,38.59,87.17,87.85v.34c0,49.45-38.44,88.19-87.51,88.19ZM1789.32,136.19c-13.41,0-19.52,11.26-19.52,21.72v.34c0,10.96,6.82,22.06,19.86,22.06s19.52-11.26,19.52-21.72v-.34c0-10.97-6.82-22.06-19.86-22.06ZM1587.08,246.44c-50.51,0-87.17-36.94-87.17-87.85v-.34c0-49.45,37.92-88.19,86.32-88.19,24.44,0,43.42,6.81,61.53,22.08l20.64,17.4-15.1,17.76h8.25v86.17l-8.98,8.01c-18.03,16.09-41.29,24.94-65.49,24.94ZM1789.32,233c-41.35,0-73.73-32.68-73.73-74.41v-.34c0-41.92,32.53-74.75,74.07-74.75s73.73,32.68,73.73,74.41v.34c0,41.92-32.54,74.75-74.07,74.75ZM1789.32,122.75c-19.1,0-32.96,14.79-32.96,35.16v.34c0,20.24,14.32,35.5,33.3,35.5s32.96-14.79,32.96-35.16v-.34c0-20.24-14.32-35.5-33.3-35.5ZM1587.08,233c-42.72,0-73.73-31.29-73.73-74.41v-.34c0-41.92,32.01-74.75,72.88-74.75,21.33,0,37.14,5.66,52.86,18.92l10.32,8.69-25.18,29.63h23.88v66.71l-4.49,4.01c-9.02,8.04-28.35,21.53-56.54,21.53ZM1585.73,122.75c-18.02,0-31.61,15.12-31.61,35.16v.34c0,21.77,13.14,35.84,33.47,35.84,8.08,0,15.38-2.49,20.77-5.51v-8.93h-36.07v-38.91h49.59l-8.9-7.75c-7.27-6.33-14.36-10.25-27.24-10.25ZM1729.03,158.59v-.34c0-32.69,24.56-61.31,60.63-61.31s60.29,28.29,60.29,60.97v.34c0,32.68-24.56,61.3-60.63,61.3s-60.29-28.28-60.29-60.97ZM1836.06,158.59v-.34c0-26.93-19.64-48.94-46.74-48.94s-46.4,21.68-46.4,48.61v.34c0,26.92,19.64,48.94,46.74,48.94s46.4-21.68,46.4-48.61ZM1526.79,158.59v-.34c0-32.52,23.88-61.31,59.44-61.31,19.99,0,32.35,5.76,44.2,15.75l-8.64,10.16c-9.15-7.96-19.31-13.55-36.07-13.55-26.25,0-45.05,22.19-45.05,48.61v.34c0,28.28,18.12,49.28,46.91,49.28,13.55,0,26.08-5.25,34.21-11.85v-29.46h-36.07v-12.03h48.94v47.25c-11.01,9.82-27.61,18.12-47.59,18.12-37.26,0-60.29-27.1-60.29-60.97Z"/>
      <path class="cls-7" d="M1608.22-1.04v-.34c0-32.52,23.88-61.31,59.44-61.31,19.99,0,32.35,5.76,44.2,15.75l-8.64,10.16c-9.15-7.96-19.31-13.55-36.07-13.55-26.25,0-45.05,22.19-45.05,48.61v.34c0,28.28,18.12,49.28,46.91,49.28,13.55,0,26.08-5.25,34.21-11.85V6.59h-36.07V-5.44h48.94v47.25c-11.01,9.82-27.61,18.12-47.59,18.12-37.26,0-60.29-27.1-60.29-60.97"/>
      <path class="cls-4" d="M1810.46-1.04v-.34c0-32.69,24.56-61.31,60.63-61.31s60.29,28.29,60.29,60.97v.34c0,32.68-24.56,61.3-60.63,61.3s-60.29-28.28-60.29-60.97ZM1917.49-1.04v-.34c0-26.93-19.64-48.94-46.74-48.94s-46.4,21.68-46.4,48.61v.34c0,26.92,19.64,48.94,46.74,48.94s46.4-21.68,46.4-48.61ZM1608.22-1.04v-.34c0-32.52,23.88-61.31,59.44-61.31,19.99,0,32.35,5.76,44.2,15.75l-8.64,10.16c-9.15-7.96-19.31-13.55-36.07-13.55-26.25,0-45.05,22.19-45.05,48.61v.34c0,28.28,18.12,49.28,46.91,49.28,13.55,0,26.08-5.25,34.21-11.85V6.59h-36.07V-5.44h48.94v47.25c-11.01,9.82-27.61,18.12-47.59,18.12-37.26,0-60.29-27.1-60.29-60.97Z"/>
      <path class="cls-3" d="M1870.75,100.25c-56.42,0-100.61-44.49-100.61-101.29v-.34c0-56.99,44.34-101.63,100.96-101.63s100.61,44.49,100.61,101.29v.34c0,56.99-44.34,101.63-100.96,101.63ZM1870.75-10c-5.49,0-6.08,5.79-6.08,8.28v.34c0,.88.18,8.62,6.42,8.62,5.49,0,6.08-5.79,6.08-8.28v-.34c0-.88-.18-8.62-6.42-8.62ZM1668.51,100.25c-57.36,0-100.61-43.54-100.61-101.29v-.34c0-56.99,43.82-101.63,99.77-101.63,27.46,0,49.76,8.02,70.19,25.24l30.96,26.1-12.38,14.57V59.87l-13.48,12.03c-20.49,18.28-46.93,28.36-74.44,28.36ZM1870.75,86.81c-48.88,0-87.17-38.59-87.17-87.85v-.34c0-49.45,38.44-88.19,87.51-88.19s87.17,38.59,87.17,87.85v.34c0,49.45-38.44,88.19-87.51,88.19ZM1870.75-23.44c-13.41,0-19.52,11.26-19.52,21.72v.34c0,10.96,6.82,22.06,19.86,22.06s19.52-11.26,19.52-21.72v-.34c0-10.97-6.82-22.06-19.86-22.06ZM1668.51,86.81c-50.51,0-87.17-36.94-87.17-87.85v-.34c0-49.45,37.92-88.19,86.32-88.19,24.44,0,43.42,6.81,61.53,22.08l20.64,17.4-15.1,17.76h8.25V53.85l-8.98,8.01c-18.03,16.09-41.29,24.94-65.49,24.94ZM1870.75,73.37c-41.35,0-73.73-32.68-73.73-74.41v-.34c0-41.92,32.53-74.75,74.07-74.75s73.73,32.68,73.73,74.41v.34c0,41.92-32.54,74.75-74.07,74.75ZM1870.75-36.88c-19.1,0-32.96,14.79-32.96,35.16v.34c0,20.24,14.32,35.5,33.3,35.5s32.96-14.79,32.96-35.16v-.34c0-20.24-14.32-35.5-33.3-35.5ZM1668.51,73.37c-42.72,0-73.73-31.29-73.73-74.41v-.34c0-41.92,32.01-74.75,72.88-74.75,21.33,0,37.14,5.66,52.86,18.92l10.32,8.69-25.18,29.63h23.88V47.83l-4.49,4.01c-9.02,8.04-28.35,21.53-56.54,21.53ZM1667.16-36.88c-18.02,0-31.61,15.12-31.61,35.16v.34c0,21.77,13.14,35.84,33.47,35.84,8.08,0,15.38-2.49,20.77-5.51v-8.93h-36.07V-18.88h49.59l-8.9-7.75c-7.27-6.33-14.36-10.25-27.24-10.25ZM1810.46-1.04v-.34c0-32.69,24.56-61.31,60.63-61.31s60.29,28.29,60.29,60.97v.34c0,32.68-24.56,61.3-60.63,61.3s-60.29-28.28-60.29-60.97ZM1917.49-1.04v-.34c0-26.93-19.64-48.94-46.74-48.94s-46.4,21.68-46.4,48.61v.34c0,26.92,19.64,48.94,46.74,48.94s46.4-21.68,46.4-48.61ZM1608.22-1.04v-.34c0-32.52,23.88-61.31,59.44-61.31,19.99,0,32.35,5.76,44.2,15.75l-8.64,10.16c-9.15-7.96-19.31-13.55-36.07-13.55-26.25,0-45.05,22.19-45.05,48.61v.34c0,28.28,18.12,49.28,46.91,49.28,13.55,0,26.08-5.25,34.21-11.85V6.59h-36.07V-5.44h48.94v47.25c-11.01,9.82-27.61,18.12-47.59,18.12-37.26,0-60.29-27.1-60.29-60.97Z"/>
      <path class="cls-7" d="M1114.27,125.08v-.34c0-32.52,23.88-61.31,59.44-61.31,19.99,0,32.35,5.76,44.2,15.75l-8.64,10.16c-9.15-7.96-19.31-13.55-36.07-13.55-26.25,0-45.05,22.19-45.05,48.61v.34c0,28.28,18.12,49.28,46.91,49.28,13.55,0,26.08-5.25,34.21-11.85v-29.46h-36.07v-12.03h48.94v47.25c-11.01,9.82-27.61,18.12-47.59,18.12-37.26,0-60.29-27.1-60.29-60.97"/>
      <path class="cls-7" d="M1316.5,125.08v-.34c0-32.69,24.56-61.31,60.63-61.31s60.29,28.29,60.29,60.97v.34c0,32.68-24.56,61.3-60.63,61.3s-60.29-28.28-60.29-60.97M1423.54,125.08v-.34c0-26.93-19.65-48.94-46.74-48.94s-46.41,21.68-46.41,48.61v.34c0,26.92,19.65,48.94,46.75,48.94s46.4-21.68,46.4-48.61"/>
      <path class="cls-4" d="M1316.5,125.08v-.34c0-32.69,24.56-61.31,60.63-61.31s60.29,28.29,60.29,60.97v.34c0,32.68-24.56,61.3-60.63,61.3s-60.29-28.28-60.29-60.97ZM1423.54,125.08v-.34c0-26.93-19.64-48.94-46.74-48.94s-46.4,21.68-46.4,48.61v.34c0,26.92,19.64,48.94,46.74,48.94s46.4-21.68,46.4-48.61ZM1114.27,125.08v-.34c0-32.52,23.88-61.31,59.44-61.31,19.99,0,32.35,5.76,44.2,15.75l-8.64,10.16c-9.15-7.96-19.31-13.55-36.07-13.55-26.25,0-45.05,22.19-45.05,48.61v.34c0,28.28,18.12,49.28,46.91,49.28,13.55,0,26.08-5.25,34.21-11.85v-29.46h-36.07v-12.03h48.94v47.25c-11.01,9.82-27.61,18.12-47.59,18.12-37.26,0-60.29-27.1-60.29-60.97Z"/>
      <path class="cls-3" d="M1376.79,226.37c-56.42,0-100.61-44.49-100.61-101.29v-.34c0-56.99,44.34-101.63,100.96-101.63s100.61,44.49,100.61,101.29v.34c0,56.99-44.34,101.63-100.96,101.63ZM1376.79,116.12c-5.49,0-6.08,5.79-6.08,8.28v.34c0,.88.18,8.62,6.42,8.62,5.49,0,6.08-5.79,6.08-8.28v-.34c0-.88-.18-8.62-6.42-8.62ZM1174.56,226.37c-57.36,0-100.61-43.54-100.61-101.29v-.34c0-56.99,43.82-101.63,99.77-101.63,27.46,0,49.76,8.02,70.19,25.24l30.96,26.1-12.38,14.57v96.96l-13.48,12.03c-20.49,18.28-46.93,28.36-74.44,28.36ZM1376.79,212.93c-48.88,0-87.17-38.59-87.17-87.85v-.34c0-49.45,38.44-88.19,87.51-88.19s87.17,38.59,87.17,87.85v.34c0,49.45-38.44,88.19-87.51,88.19ZM1376.79,102.68c-13.41,0-19.52,11.26-19.52,21.72v.34c0,10.96,6.82,22.06,19.86,22.06s19.52-11.26,19.52-21.72v-.34c0-10.97-6.82-22.06-19.86-22.06ZM1174.56,212.93c-50.51,0-87.17-36.94-87.17-87.85v-.34c0-49.45,37.92-88.19,86.32-88.19,24.44,0,43.42,6.81,61.53,22.08l20.64,17.4-15.1,17.76h8.25v86.17l-8.98,8.01c-18.03,16.09-41.29,24.94-65.49,24.94ZM1376.79,199.49c-41.35,0-73.73-32.68-73.73-74.41v-.34c0-41.92,32.53-74.75,74.07-74.75s73.73,32.68,73.73,74.41v.34c0,41.92-32.54,74.75-74.07,74.75ZM1376.79,89.24c-19.1,0-32.96,14.79-32.96,35.16v.34c0,20.24,14.32,35.5,33.3,35.5s32.96-14.79,32.96-35.16v-.34c0-20.24-14.32-35.5-33.3-35.5ZM1174.56,199.49c-42.72,0-73.73-31.29-73.73-74.41v-.34c0-41.92,32.01-74.75,72.88-74.75,21.33,0,37.14,5.66,52.86,18.92l10.32,8.69-25.18,29.63h23.88v66.71l-4.49,4.01c-9.02,8.04-28.35,21.53-56.54,21.53ZM1173.21,89.24c-18.02,0-31.61,15.12-31.61,35.16v.34c0,21.77,13.14,35.84,33.47,35.84,8.08,0,15.38-2.49,20.77-5.51v-8.93h-36.07v-38.91h49.59l-8.9-7.75c-7.27-6.33-14.36-10.25-27.24-10.25ZM1316.5,125.08v-.34c0-32.69,24.56-61.31,60.63-61.31s60.29,28.29,60.29,60.97v.34c0,32.68-24.56,61.3-60.63,61.3s-60.29-28.28-60.29-60.97ZM1423.54,125.08v-.34c0-26.93-19.64-48.94-46.74-48.94s-46.4,21.68-46.4,48.61v.34c0,26.92,19.64,48.94,46.74,48.94s46.4-21.68,46.4-48.61ZM1114.27,125.08v-.34c0-32.52,23.88-61.31,59.44-61.31,19.99,0,32.35,5.76,44.2,15.75l-8.64,10.16c-9.15-7.96-19.31-13.55-36.07-13.55-26.25,0-45.05,22.19-45.05,48.61v.34c0,28.28,18.12,49.28,46.91,49.28,13.55,0,26.08-5.25,34.21-11.85v-29.46h-36.07v-12.03h48.94v47.25c-11.01,9.82-27.61,18.12-47.59,18.12-37.26,0-60.29-27.1-60.29-60.97Z"/>
      <path class="cls-5" d="M1393.19-38.07v-.49c0-46.99,34.69-89.07,86.86-89.07s86.37,41.59,86.37,88.58v.49c0,47-34.69,89.07-86.86,89.07s-86.36-41.58-86.36-88.58ZM1553.13-38.07v-.49c0-42.57-31-77.51-73.57-77.51s-73.08,34.45-73.08,77.02v.49c0,42.57,31,77.51,73.57,77.51s73.08-34.45,73.08-77.02ZM1148.13-38.07v-.49c0-46.51,33.71-89.07,85.13-89.07,28.05,0,45.77,8.37,62.99,22.64l-8.36,9.6c-13.53-11.81-29.28-20.67-55.36-20.67-41.83,0-71.11,35.43-71.11,77.02v.49c0,44.54,27.8,77.75,73.82,77.75,21.9,0,42.32-9.1,54.87-19.68V-29.95h-57.58v-11.81h69.88V24.68c-15.5,13.78-39.61,25.84-67.66,25.84-54.38,0-86.61-40.11-86.61-88.58Z"/>
      <path class="cls-3" d="M1479.55,77.39c-63.5,0-113.25-50.72-113.25-115.46v-.49c0-65.02,49.96-115.96,113.74-115.96s113.25,50.72,113.25,115.46v.49c0,65.02-49.96,115.96-113.74,115.96ZM1479.55-89.19c-26.77,0-46.19,21.08-46.19,50.13v.49c0,28.86,20.07,50.63,46.69,50.63s46.2-21.08,46.2-50.13v-.49c0-28.86-20.07-50.63-46.69-50.63ZM1234.74,77.39c-65.76,0-113.49-48.56-113.49-115.46v-.49c0-65.02,49.2-115.96,112.02-115.96,31.8,0,55.77,8.62,80.14,28.82l21.22,17.59-34.4,39.47h29.06V36.75l-9.02,8.02c-23.33,20.74-54.5,32.63-85.53,32.63ZM1232.53-89.19c-28.73,0-44.23,25.83-44.23,50.13v.49c0,31.85,17.54,50.87,46.93,50.87,10.62,0,20.44-3.16,27.99-7.08V-3.07h-57.58v-65.58h72.02l-7.45-6.5c-9.93-8.67-19.7-14.04-37.68-14.04ZM1479.55,63.95c-56.9,0-99.81-43.86-99.81-102.02v-.49c0-57.49,44.06-102.51,100.3-102.51s99.81,43.86,99.81,102.02v.49c0,57.49-44.05,102.51-100.3,102.51ZM1479.55-102.63c-34,0-59.64,27.33-59.64,63.57v.49c0,36.52,25.85,64.07,60.13,64.07s59.64-27.33,59.64-63.57v-.49c0-36.52-25.85-64.07-60.13-64.07ZM1234.74,63.95c-57.97,0-100.05-42.91-100.05-102.02v-.49c0-50.39,36.87-102.51,98.58-102.51,28.4,0,49.8,7.69,71.57,25.73l10.61,8.79-26.25,30.12-10.14-8.85c-10.33-9.01-23.11-17.35-46.52-17.35-32.88,0-57.67,27.33-57.67,63.57v.49c0,39.07,23.7,64.31,60.38,64.31,16.67,0,31.53-6.16,41.43-12.91v-29.35h-57.58v-38.69h96.76V30.71l-4.51,4.01c-20.9,18.58-48.81,29.23-76.59,29.23ZM1393.19-38.07v-.49c0-46.99,34.69-89.07,86.86-89.07s86.37,41.59,86.37,88.58v.49c0,47-34.69,89.07-86.86,89.07s-86.36-41.58-86.36-88.58ZM1553.13-38.07v-.49c0-42.57-31-77.51-73.57-77.51s-73.08,34.45-73.08,77.02v.49c0,42.57,31,77.51,73.57,77.51s73.08-34.45,73.08-77.02ZM1148.13-38.07v-.49c0-46.51,33.71-89.07,85.13-89.07,28.05,0,45.77,8.37,62.99,22.64l-8.36,9.6c-13.53-11.81-29.28-20.67-55.36-20.67-41.83,0-71.11,35.43-71.11,77.02v.49c0,44.54,27.8,77.75,73.82,77.75,21.9,0,42.32-9.1,54.87-19.68V-29.95h-57.58v-11.81h69.88V24.68c-15.5,13.78-39.61,25.84-67.66,25.84-54.38,0-86.61-40.11-86.61-88.58Z"/>
      <path class="cls-6" d="M1479.55,90.83c-71.04,0-126.69-56.62-126.69-128.9v-.49c0-72.56,55.86-129.4,127.18-129.4s126.69,56.62,126.69,128.91v.49c0,72.56-55.87,129.39-127.18,129.39ZM1479.55-75.75c-21.51,0-32.75,18.46-32.75,36.7v.49c0,18.48,11.42,37.18,33.24,37.18s32.76-18.46,32.76-36.69v-.49c0-18.48-11.42-37.19-33.25-37.19ZM1234.74,90.83c-73.55,0-126.93-54.21-126.93-128.9v-.49c0-72.56,55.11-129.4,125.45-129.4,34.73,0,62.09,9.84,88.72,31.91l31.83,26.38-24.04,27.58h12.96V42.78l-13.53,12.03c-25.76,22.89-60.18,36.02-94.46,36.02Z"/>
    </g>
    <g>
      <path class="cls-7" d="M-46.25,298.93v-.34c0-32.52,23.88-61.31,59.44-61.31,19.99,0,32.35,5.76,44.2,15.75l-8.64,10.16c-9.15-7.96-19.31-13.55-36.07-13.55-26.25,0-45.05,22.19-45.05,48.61v.34c0,28.28,18.12,49.28,46.91,49.28,13.55,0,26.08-5.25,34.21-11.85v-29.46H12.69v-12.03h48.94v47.25c-11.01,9.82-27.61,18.12-47.59,18.12-37.26,0-60.29-27.1-60.29-60.97"/>
      <path class="cls-7" d="M155.99,298.93v-.34c0-32.69,24.56-61.31,60.63-61.31s60.29,28.29,60.29,60.97v.34c0,32.68-24.56,61.3-60.63,61.3s-60.29-28.28-60.29-60.97M263.02,298.93v-.34c0-26.93-19.65-48.94-46.74-48.94s-46.41,21.68-46.41,48.61v.34c0,26.92,19.65,48.94,46.75,48.94s46.4-21.68,46.4-48.61"/>
      <path class="cls-4" d="M155.99,298.93v-.34c0-32.69,24.56-61.31,60.63-61.31s60.29,28.29,60.29,60.97v.34c0,32.68-24.56,61.3-60.63,61.3s-60.29-28.28-60.29-60.97ZM263.02,298.93v-.34c0-26.93-19.64-48.94-46.74-48.94s-46.4,21.68-46.4,48.61v.34c0,26.92,19.64,48.94,46.74,48.94s46.4-21.68,46.4-48.61ZM-46.25,298.93v-.34c0-32.52,23.88-61.31,59.44-61.31,19.99,0,32.35,5.76,44.2,15.75l-8.64,10.16c-9.15-7.96-19.31-13.55-36.07-13.55-26.25,0-45.05,22.19-45.05,48.61v.34c0,28.28,18.12,49.28,46.91,49.28,13.55,0,26.08-5.25,34.21-11.85v-29.46H12.69v-12.03h48.94v47.25c-11.01,9.82-27.61,18.12-47.59,18.12-37.26,0-60.29-27.1-60.29-60.97Z"/>
      <path class="cls-3" d="M216.27,400.22c-56.42,0-100.61-44.49-100.61-101.29v-.34c0-56.99,44.34-101.63,100.96-101.63s100.61,44.49,100.61,101.29v.34c0,56.99-44.34,101.63-100.96,101.63ZM216.27,289.97c-5.49,0-6.08,5.79-6.08,8.28v.34c0,.88.18,8.62,6.42,8.62,5.49,0,6.08-5.79,6.08-8.28v-.34c0-.88-.18-8.62-6.42-8.62ZM14.04,400.22c-57.36,0-100.61-43.54-100.61-101.29v-.34c0-56.99,43.82-101.63,99.77-101.63,27.46,0,49.76,8.02,70.19,25.24l30.96,26.1-12.38,14.57v96.96l-13.48,12.03c-20.49,18.28-46.93,28.36-74.44,28.36ZM216.27,386.78c-48.88,0-87.17-38.59-87.17-87.85v-.34c0-49.45,38.44-88.19,87.51-88.19s87.17,38.59,87.17,87.85v.34c0,49.45-38.44,88.19-87.51,88.19ZM216.27,276.53c-13.41,0-19.52,11.26-19.52,21.72v.34c0,10.96,6.82,22.06,19.86,22.06s19.52-11.26,19.52-21.72v-.34c0-10.97-6.82-22.06-19.86-22.06ZM14.04,386.78c-50.51,0-87.17-36.94-87.17-87.85v-.34c0-49.45,37.92-88.19,86.32-88.19,24.44,0,43.42,6.81,61.53,22.08l20.64,17.4-15.1,17.76h8.25v86.17l-8.98,8.01c-18.03,16.09-41.29,24.94-65.49,24.94ZM216.27,373.34c-41.35,0-73.73-32.68-73.73-74.41v-.34c0-41.92,32.53-74.75,74.07-74.75s73.73,32.68,73.73,74.41v.34c0,41.92-32.54,74.75-74.07,74.75ZM216.27,263.09c-19.1,0-32.96,14.79-32.96,35.16v.34c0,20.24,14.32,35.5,33.3,35.5s32.96-14.79,32.96-35.16v-.34c0-20.24-14.32-35.5-33.3-35.5ZM14.04,373.34c-42.72,0-73.73-31.29-73.73-74.41v-.34c0-41.92,32.01-74.75,72.88-74.75,21.33,0,37.14,5.66,52.86,18.92l10.32,8.69-25.18,29.63h23.88v66.71l-4.49,4.01c-9.02,8.04-28.35,21.53-56.54,21.53ZM12.69,263.09c-18.02,0-31.61,15.12-31.61,35.16v.34c0,21.77,13.14,35.84,33.47,35.84,8.08,0,15.38-2.49,20.77-5.51v-8.93H-.75v-38.91h49.59l-8.9-7.75c-7.27-6.33-14.36-10.25-27.24-10.25ZM155.99,298.93v-.34c0-32.69,24.56-61.31,60.63-61.31s60.29,28.29,60.29,60.97v.34c0,32.68-24.56,61.3-60.63,61.3s-60.29-28.28-60.29-60.97ZM263.02,298.93v-.34c0-26.93-19.64-48.94-46.74-48.94s-46.4,21.68-46.4,48.61v.34c0,26.92,19.64,48.94,46.74,48.94s46.4-21.68,46.4-48.61ZM-46.25,298.93v-.34c0-32.52,23.88-61.31,59.44-61.31,19.99,0,32.35,5.76,44.2,15.75l-8.64,10.16c-9.15-7.96-19.31-13.55-36.07-13.55-26.25,0-45.05,22.19-45.05,48.61v.34c0,28.28,18.12,49.28,46.91,49.28,13.55,0,26.08-5.25,34.21-11.85v-29.46H12.69v-12.03h48.94v47.25c-11.01,9.82-27.61,18.12-47.59,18.12-37.26,0-60.29-27.1-60.29-60.97Z"/>
      <path class="cls-7" d="M781.37,298.93v-.34c0-32.52,23.88-61.31,59.44-61.31,19.99,0,32.35,5.76,44.2,15.75l-8.64,10.16c-9.15-7.96-19.31-13.55-36.07-13.55-26.25,0-45.05,22.19-45.05,48.61v.34c0,28.28,18.12,49.28,46.91,49.28,13.55,0,26.08-5.25,34.21-11.85v-29.46h-36.07v-12.03h48.94v47.25c-11.01,9.82-27.61,18.12-47.59,18.12-37.26,0-60.29-27.1-60.29-60.97"/>
      <path class="cls-7" d="M983.61,298.93v-.34c0-32.69,24.56-61.31,60.63-61.31s60.29,28.29,60.29,60.97v.34c0,32.68-24.56,61.3-60.63,61.3s-60.29-28.28-60.29-60.97M1090.64,298.93v-.34c0-26.93-19.65-48.94-46.74-48.94s-46.41,21.68-46.41,48.61v.34c0,26.92,19.65,48.94,46.75,48.94s46.4-21.68,46.4-48.61"/>
      <path class="cls-4" d="M983.6,298.93v-.34c0-32.69,24.56-61.31,60.63-61.31s60.29,28.29,60.29,60.97v.34c0,32.68-24.56,61.3-60.63,61.3s-60.29-28.28-60.29-60.97ZM1090.64,298.93v-.34c0-26.93-19.64-48.94-46.74-48.94s-46.4,21.68-46.4,48.61v.34c0,26.92,19.64,48.94,46.74,48.94s46.4-21.68,46.4-48.61ZM781.37,298.93v-.34c0-32.52,23.88-61.31,59.44-61.31,19.99,0,32.35,5.76,44.2,15.75l-8.64,10.16c-9.15-7.96-19.31-13.55-36.07-13.55-26.25,0-45.05,22.19-45.05,48.61v.34c0,28.28,18.12,49.28,46.91,49.28,13.55,0,26.08-5.25,34.21-11.85v-29.46h-36.07v-12.03h48.94v47.25c-11.01,9.82-27.61,18.12-47.59,18.12-37.26,0-60.29-27.1-60.29-60.97Z"/>
      <path class="cls-3" d="M1043.89,400.22c-56.42,0-100.61-44.49-100.61-101.29v-.34c0-56.99,44.34-101.63,100.96-101.63s100.61,44.49,100.61,101.29v.34c0,56.99-44.34,101.63-100.96,101.63ZM1043.89,289.97c-5.49,0-6.08,5.79-6.08,8.28v.34c0,.88.18,8.62,6.42,8.62,5.49,0,6.08-5.79,6.08-8.28v-.34c0-.88-.18-8.62-6.42-8.62ZM841.66,400.22c-57.36,0-100.61-43.54-100.61-101.29v-.34c0-56.99,43.82-101.63,99.77-101.63,27.46,0,49.76,8.02,70.19,25.24l30.96,26.1-12.38,14.57v96.96l-13.48,12.03c-20.49,18.28-46.93,28.36-74.44,28.36ZM1043.89,386.78c-48.88,0-87.17-38.59-87.17-87.85v-.34c0-49.45,38.44-88.19,87.51-88.19s87.17,38.59,87.17,87.85v.34c0,49.45-38.44,88.19-87.51,88.19ZM1043.89,276.53c-13.41,0-19.52,11.26-19.52,21.72v.34c0,10.96,6.82,22.06,19.86,22.06s19.52-11.26,19.52-21.72v-.34c0-10.97-6.82-22.06-19.86-22.06ZM841.66,386.78c-50.51,0-87.17-36.94-87.17-87.85v-.34c0-49.45,37.92-88.19,86.32-88.19,24.44,0,43.42,6.81,61.53,22.08l20.64,17.4-15.1,17.76h8.25v86.17l-8.98,8.01c-18.03,16.09-41.29,24.94-65.49,24.94ZM1043.89,373.34c-41.35,0-73.73-32.68-73.73-74.41v-.34c0-41.92,32.53-74.75,74.07-74.75s73.73,32.68,73.73,74.41v.34c0,41.92-32.54,74.75-74.07,74.75ZM1043.89,263.09c-19.1,0-32.96,14.79-32.96,35.16v.34c0,20.24,14.32,35.5,33.3,35.5s32.96-14.79,32.96-35.16v-.34c0-20.24-14.32-35.5-33.3-35.5ZM841.66,373.34c-42.72,0-73.73-31.29-73.73-74.41v-.34c0-41.92,32.01-74.75,72.88-74.75,21.33,0,37.14,5.66,52.86,18.92l10.32,8.69-25.18,29.63h23.88v66.71l-4.49,4.01c-9.02,8.04-28.35,21.53-56.54,21.53ZM840.31,263.09c-18.02,0-31.61,15.12-31.61,35.16v.34c0,21.77,13.14,35.84,33.47,35.84,8.08,0,15.38-2.49,20.77-5.51v-8.93h-36.07v-38.91h49.59l-8.9-7.75c-7.27-6.33-14.36-10.25-27.24-10.25ZM983.6,298.93v-.34c0-32.69,24.56-61.31,60.63-61.31s60.29,28.29,60.29,60.97v.34c0,32.68-24.56,61.3-60.63,61.3s-60.29-28.28-60.29-60.97ZM1090.64,298.93v-.34c0-26.93-19.64-48.94-46.74-48.94s-46.4,21.68-46.4,48.61v.34c0,26.92,19.64,48.94,46.74,48.94s46.4-21.68,46.4-48.61ZM781.37,298.93v-.34c0-32.52,23.88-61.31,59.44-61.31,19.99,0,32.35,5.76,44.2,15.75l-8.64,10.16c-9.15-7.96-19.31-13.55-36.07-13.55-26.25,0-45.05,22.19-45.05,48.61v.34c0,28.28,18.12,49.28,46.91,49.28,13.55,0,26.08-5.25,34.21-11.85v-29.46h-36.07v-12.03h48.94v47.25c-11.01,9.82-27.61,18.12-47.59,18.12-37.26,0-60.29-27.1-60.29-60.97Z"/>
      <path class="cls-5" d="M566.34,261.9v-.49c0-46.99,34.69-89.07,86.86-89.07s86.37,41.59,86.37,88.58v.49c0,47-34.69,89.07-86.86,89.07s-86.36-41.58-86.36-88.58ZM726.27,261.9v-.49c0-42.57-31-77.51-73.57-77.51s-73.08,34.45-73.08,77.02v.49c0,42.57,31,77.51,73.57,77.51s73.08-34.45,73.08-77.02ZM321.28,261.9v-.49c0-46.51,33.71-89.07,85.13-89.07,28.05,0,45.77,8.37,62.99,22.64l-8.36,9.6c-13.53-11.81-29.28-20.67-55.36-20.67-41.83,0-71.11,35.43-71.11,77.02v.49c0,44.54,27.8,77.75,73.82,77.75,21.9,0,42.32-9.1,54.87-19.68v-49.46h-57.58v-11.81h69.88v66.44c-15.5,13.78-39.61,25.84-67.66,25.84-54.38,0-86.61-40.11-86.61-88.58Z"/>
      <path class="cls-3" d="M652.7,377.36c-63.5,0-113.25-50.72-113.25-115.46v-.49c0-65.02,49.96-115.96,113.74-115.96s113.25,50.72,113.25,115.46v.49c0,65.02-49.96,115.96-113.74,115.96ZM652.7,210.78c-26.77,0-46.19,21.08-46.19,50.13v.49c0,28.86,20.07,50.63,46.69,50.63s46.2-21.08,46.2-50.13v-.49c0-28.86-20.07-50.63-46.69-50.63ZM407.89,377.36c-65.76,0-113.49-48.56-113.49-115.46v-.49c0-65.02,49.2-115.96,112.02-115.96,31.8,0,55.77,8.62,80.14,28.82l21.22,17.59-34.4,39.47h29.06v105.39l-9.02,8.02c-23.33,20.74-54.5,32.63-85.53,32.63ZM405.68,210.78c-28.73,0-44.23,25.83-44.23,50.13v.49c0,31.85,17.54,50.87,46.93,50.87,10.62,0,20.44-3.16,27.99-7.08v-8.29h-57.58v-65.58h72.02l-7.45-6.5c-9.93-8.67-19.7-14.04-37.68-14.04ZM652.7,363.92c-56.9,0-99.81-43.86-99.81-102.02v-.49c0-57.49,44.06-102.51,100.3-102.51s99.81,43.86,99.81,102.02v.49c0,57.49-44.05,102.51-100.3,102.51ZM652.7,197.34c-34,0-59.64,27.33-59.64,63.57v.49c0,36.52,25.85,64.07,60.13,64.07s59.64-27.33,59.64-63.57v-.49c0-36.52-25.85-64.07-60.13-64.07ZM407.89,363.92c-57.97,0-100.05-42.91-100.05-102.02v-.49c0-50.39,36.87-102.51,98.58-102.51,28.4,0,49.8,7.69,71.57,25.73l10.61,8.79-26.25,30.12-10.14-8.85c-10.33-9.01-23.11-17.35-46.52-17.35-32.88,0-57.67,27.33-57.67,63.57v.49c0,39.07,23.7,64.31,60.38,64.31,16.67,0,31.53-6.16,41.43-12.91v-29.35h-57.58v-38.69h96.76v85.91l-4.51,4.01c-20.9,18.58-48.81,29.23-76.59,29.23ZM566.34,261.9v-.49c0-46.99,34.69-89.07,86.86-89.07s86.37,41.59,86.37,88.58v.49c0,47-34.69,89.07-86.86,89.07s-86.36-41.58-86.36-88.58ZM726.27,261.9v-.49c0-42.57-31-77.51-73.57-77.51s-73.08,34.45-73.08,77.02v.49c0,42.57,31,77.51,73.57,77.51s73.08-34.45,73.08-77.02ZM321.28,261.9v-.49c0-46.51,33.71-89.07,85.13-89.07,28.05,0,45.77,8.37,62.99,22.64l-8.36,9.6c-13.53-11.81-29.28-20.67-55.36-20.67-41.83,0-71.11,35.43-71.11,77.02v.49c0,44.54,27.8,77.75,73.82,77.75,21.9,0,42.32-9.1,54.87-19.68v-49.46h-57.58v-11.81h69.88v66.44c-15.5,13.78-39.61,25.84-67.66,25.84-54.38,0-86.61-40.11-86.61-88.58Z"/>
      <path class="cls-6" d="M652.7,390.8c-71.04,0-126.69-56.62-126.69-128.9v-.49c0-72.56,55.86-129.4,127.18-129.4s126.69,56.62,126.69,128.91v.49c0,72.56-55.87,129.39-127.18,129.39ZM652.7,224.22c-21.51,0-32.75,18.46-32.75,36.7v.49c0,18.48,11.42,37.18,33.24,37.18s32.76-18.46,32.76-36.69v-.49c0-18.48-11.42-37.19-33.25-37.19ZM407.89,390.8c-73.55,0-126.93-54.21-126.93-128.9v-.49c0-72.56,55.11-129.4,125.45-129.4,34.73,0,62.09,9.84,88.72,31.91l31.83,26.38-24.04,27.58h12.96v124.86l-13.53,12.03c-25.76,22.89-60.18,36.02-94.46,36.02Z"/>
      <path class="cls-7" d="M1608.22,298.93v-.34c0-32.52,23.88-61.31,59.44-61.31,19.99,0,32.35,5.76,44.2,15.75l-8.64,10.16c-9.15-7.96-19.31-13.55-36.07-13.55-26.25,0-45.05,22.19-45.05,48.61v.34c0,28.28,18.12,49.28,46.91,49.28,13.55,0,26.08-5.25,34.21-11.85v-29.46h-36.07v-12.03h48.94v47.25c-11.01,9.82-27.61,18.12-47.59,18.12-37.26,0-60.29-27.1-60.29-60.97"/>
      <path class="cls-4" d="M1810.46,298.93v-.34c0-32.69,24.56-61.31,60.63-61.31s60.29,28.29,60.29,60.97v.34c0,32.68-24.56,61.3-60.63,61.3s-60.29-28.28-60.29-60.97ZM1917.49,298.93v-.34c0-26.93-19.64-48.94-46.74-48.94s-46.4,21.68-46.4,48.61v.34c0,26.92,19.64,48.94,46.74,48.94s46.4-21.68,46.4-48.61ZM1608.22,298.93v-.34c0-32.52,23.88-61.31,59.44-61.31,19.99,0,32.35,5.76,44.2,15.75l-8.64,10.16c-9.15-7.96-19.31-13.55-36.07-13.55-26.25,0-45.05,22.19-45.05,48.61v.34c0,28.28,18.12,49.28,46.91,49.28,13.55,0,26.08-5.25,34.21-11.85v-29.46h-36.07v-12.03h48.94v47.25c-11.01,9.82-27.61,18.12-47.59,18.12-37.26,0-60.29-27.1-60.29-60.97Z"/>
      <path class="cls-3" d="M1870.75,400.22c-56.42,0-100.61-44.49-100.61-101.29v-.34c0-56.99,44.34-101.63,100.96-101.63s100.61,44.49,100.61,101.29v.34c0,56.99-44.34,101.63-100.96,101.63ZM1870.75,289.97c-5.49,0-6.08,5.79-6.08,8.28v.34c0,.88.18,8.62,6.42,8.62,5.49,0,6.08-5.79,6.08-8.28v-.34c0-.88-.18-8.62-6.42-8.62ZM1668.51,400.22c-57.36,0-100.61-43.54-100.61-101.29v-.34c0-56.99,43.82-101.63,99.77-101.63,27.46,0,49.76,8.02,70.19,25.24l30.96,26.1-12.38,14.57v96.96l-13.48,12.03c-20.49,18.28-46.93,28.36-74.44,28.36ZM1870.75,386.78c-48.88,0-87.17-38.59-87.17-87.85v-.34c0-49.45,38.44-88.19,87.51-88.19s87.17,38.59,87.17,87.85v.34c0,49.45-38.44,88.19-87.51,88.19ZM1870.75,276.53c-13.41,0-19.52,11.26-19.52,21.72v.34c0,10.96,6.82,22.06,19.86,22.06s19.52-11.26,19.52-21.72v-.34c0-10.97-6.82-22.06-19.86-22.06ZM1668.51,386.78c-50.51,0-87.17-36.94-87.17-87.85v-.34c0-49.45,37.92-88.19,86.32-88.19,24.44,0,43.42,6.81,61.53,22.08l20.64,17.4-15.1,17.76h8.25v86.17l-8.98,8.01c-18.03,16.09-41.29,24.94-65.49,24.94ZM1870.75,373.34c-41.35,0-73.73-32.68-73.73-74.41v-.34c0-41.92,32.53-74.75,74.07-74.75s73.73,32.68,73.73,74.41v.34c0,41.92-32.54,74.75-74.07,74.75ZM1870.75,263.09c-19.1,0-32.96,14.79-32.96,35.16v.34c0,20.24,14.32,35.5,33.3,35.5s32.96-14.79,32.96-35.16v-.34c0-20.24-14.32-35.5-33.3-35.5ZM1668.51,373.34c-42.72,0-73.73-31.29-73.73-74.41v-.34c0-41.92,32.01-74.75,72.88-74.75,21.33,0,37.14,5.66,52.86,18.92l10.32,8.69-25.18,29.63h23.88v66.71l-4.49,4.01c-9.02,8.04-28.35,21.53-56.54,21.53ZM1667.16,263.09c-18.02,0-31.61,15.12-31.61,35.16v.34c0,21.77,13.14,35.84,33.47,35.84,8.08,0,15.38-2.49,20.77-5.51v-8.93h-36.07v-38.91h49.59l-8.9-7.75c-7.27-6.33-14.36-10.25-27.24-10.25ZM1810.46,298.93v-.34c0-32.69,24.56-61.31,60.63-61.31s60.29,28.29,60.29,60.97v.34c0,32.68-24.56,61.3-60.63,61.3s-60.29-28.28-60.29-60.97ZM1917.49,298.93v-.34c0-26.93-19.64-48.94-46.74-48.94s-46.4,21.68-46.4,48.61v.34c0,26.92,19.64,48.94,46.74,48.94s46.4-21.68,46.4-48.61ZM1608.22,298.93v-.34c0-32.52,23.88-61.31,59.44-61.31,19.99,0,32.35,5.76,44.2,15.75l-8.64,10.16c-9.15-7.96-19.31-13.55-36.07-13.55-26.25,0-45.05,22.19-45.05,48.61v.34c0,28.28,18.12,49.28,46.91,49.28,13.55,0,26.08-5.25,34.21-11.85v-29.46h-36.07v-12.03h48.94v47.25c-11.01,9.82-27.61,18.12-47.59,18.12-37.26,0-60.29-27.1-60.29-60.97Z"/>
      <path class="cls-5" d="M1393.19,261.9v-.49c0-46.99,34.69-89.07,86.86-89.07s86.37,41.59,86.37,88.58v.49c0,47-34.69,89.07-86.86,89.07s-86.36-41.58-86.36-88.58ZM1553.13,261.9v-.49c0-42.57-31-77.51-73.57-77.51s-73.08,34.45-73.08,77.02v.49c0,42.57,31,77.51,73.57,77.51s73.08-34.45,73.08-77.02ZM1148.13,261.9v-.49c0-46.51,33.71-89.07,85.13-89.07,28.05,0,45.77,8.37,62.99,22.64l-8.36,9.6c-13.53-11.81-29.28-20.67-55.36-20.67-41.83,0-71.11,35.43-71.11,77.02v.49c0,44.54,27.8,77.75,73.82,77.75,21.9,0,42.32-9.1,54.87-19.68v-49.46h-57.58v-11.81h69.88v66.44c-15.5,13.78-39.61,25.84-67.66,25.84-54.38,0-86.61-40.11-86.61-88.58Z"/>
      <path class="cls-3" d="M1479.55,377.36c-63.5,0-113.25-50.72-113.25-115.46v-.49c0-65.02,49.96-115.96,113.74-115.96s113.25,50.72,113.25,115.46v.49c0,65.02-49.96,115.96-113.74,115.96ZM1479.55,210.78c-26.77,0-46.19,21.08-46.19,50.13v.49c0,28.86,20.07,50.63,46.69,50.63s46.2-21.08,46.2-50.13v-.49c0-28.86-20.07-50.63-46.69-50.63ZM1234.74,377.36c-65.76,0-113.49-48.56-113.49-115.46v-.49c0-65.02,49.2-115.96,112.02-115.96,31.8,0,55.77,8.62,80.14,28.82l21.22,17.59-34.4,39.47h29.06v105.39l-9.02,8.02c-23.33,20.74-54.5,32.63-85.53,32.63ZM1232.53,210.78c-28.73,0-44.23,25.83-44.23,50.13v.49c0,31.85,17.54,50.87,46.93,50.87,10.62,0,20.44-3.16,27.99-7.08v-8.29h-57.58v-65.58h72.02l-7.45-6.5c-9.93-8.67-19.7-14.04-37.68-14.04ZM1479.55,363.92c-56.9,0-99.81-43.86-99.81-102.02v-.49c0-57.49,44.06-102.51,100.3-102.51s99.81,43.86,99.81,102.02v.49c0,57.49-44.05,102.51-100.3,102.51ZM1479.55,197.34c-34,0-59.64,27.33-59.64,63.57v.49c0,36.52,25.85,64.07,60.13,64.07s59.64-27.33,59.64-63.57v-.49c0-36.52-25.85-64.07-60.13-64.07ZM1234.74,363.92c-57.97,0-100.05-42.91-100.05-102.02v-.49c0-50.39,36.87-102.51,98.58-102.51,28.4,0,49.8,7.69,71.57,25.73l10.61,8.79-26.25,30.12-10.14-8.85c-10.33-9.01-23.11-17.35-46.52-17.35-32.88,0-57.67,27.33-57.67,63.57v.49c0,39.07,23.7,64.31,60.38,64.31,16.67,0,31.53-6.16,41.43-12.91v-29.35h-57.58v-38.69h96.76v85.91l-4.51,4.01c-20.9,18.58-48.81,29.23-76.59,29.23ZM1393.19,261.9v-.49c0-46.99,34.69-89.07,86.86-89.07s86.37,41.59,86.37,88.58v.49c0,47-34.69,89.07-86.86,89.07s-86.36-41.58-86.36-88.58ZM1553.13,261.9v-.49c0-42.57-31-77.51-73.57-77.51s-73.08,34.45-73.08,77.02v.49c0,42.57,31,77.51,73.57,77.51s73.08-34.45,73.08-77.02ZM1148.13,261.9v-.49c0-46.51,33.71-89.07,85.13-89.07,28.05,0,45.77,8.37,62.99,22.64l-8.36,9.6c-13.53-11.81-29.28-20.67-55.36-20.67-41.83,0-71.11,35.43-71.11,77.02v.49c0,44.54,27.8,77.75,73.82,77.75,21.9,0,42.32-9.1,54.87-19.68v-49.46h-57.58v-11.81h69.88v66.44c-15.5,13.78-39.61,25.84-67.66,25.84-54.38,0-86.61-40.11-86.61-88.58Z"/>
      <path class="cls-6" d="M1479.55,390.8c-71.04,0-126.69-56.62-126.69-128.9v-.49c0-72.56,55.86-129.4,127.18-129.4s126.69,56.62,126.69,128.91v.49c0,72.56-55.87,129.39-127.18,129.39ZM1479.55,224.22c-21.51,0-32.75,18.46-32.75,36.7v.49c0,18.48,11.42,37.18,33.24,37.18s32.76-18.46,32.76-36.69v-.49c0-18.48-11.42-37.19-33.25-37.19ZM1234.74,390.8c-73.55,0-126.93-54.21-126.93-128.9v-.49c0-72.56,55.11-129.4,125.45-129.4,34.73,0,62.09,9.84,88.72,31.91l31.83,26.38-24.04,27.58h12.96v124.86l-13.53,12.03c-25.76,22.89-60.18,36.02-94.46,36.02Z"/>
    </g>
  </g>
</svg>