<?xml version="1.0" encoding="UTF-8"?>
<svg id="Layer_4" data-name="Layer 4" xmlns="http://www.w3.org/2000/svg" viewBox="0 0 96 96">
  <defs>
    <style>
      .cls-1 {
        fill: none;
      }

      .cls-2 {
        fill: #fd6f00;
      }

      .cls-3 {
        fill: #003e74;
      }
    </style>
  </defs>
  <path class="cls-1" d="M78.14,21.26c1.14,0,2.07-.93,2.07-2.07s-.93-2.07-2.07-2.07-2.07.93-2.07,2.07.93,2.07,2.07,2.07Z"/>
  <path class="cls-1" d="M72.06,19.19c0-.86.18-1.68.51-2.42-6.68-5.5-15.23-8.82-24.57-8.82-10.55,0-20.11,4.24-27.08,11.08.5.88.78,1.89.78,2.97,0,3.35-2.72,6.07-6.07,6.07-.5,0-.98-.07-1.44-.18-3,5.44-4.73,11.66-4.73,18.29,0,18.91,13.92,34.64,32.13,37.68.87-2.29,3.08-3.93,5.68-3.93s4.94,1.74,5.75,4.14c18.89-2.45,33.53-18.5,33.53-37.89,0-7.85-2.41-15.14-6.52-21.22-.6.2-1.23.31-1.89.31-3.35,0-6.07-2.72-6.07-6.07ZM75.52,45.75c0,.06-.02.11-.03.17-.02.07-.04.14-.06.2-.02.06-.04.11-.06.16-.03.06-.06.12-.1.18-.03.05-.06.1-.09.15-.04.06-.09.11-.14.17-.04.04-.07.08-.11.12-.05.05-.11.09-.17.14-.05.04-.09.07-.14.1-.06.04-.12.07-.18.1-.06.03-.12.06-.18.08-.02,0-.05.02-.07.03-.02,0-.05,0-.07.01-.17.05-.35.09-.54.09-.01,0-.02,0-.03,0,0,0,0,0-.01,0h-3.92l2.75,3.74c.25.34.39.76.39,1.18v17.79c0,1.1-.9,2-2,2h-7.12c-1.1,0-2-.9-2-2v-5.71h-27.78v5.71c0,1.1-.9,2-2,2h-7.12c-1.1,0-2-.9-2-2v-17.79c0-.43.14-.84.39-1.18l2.75-3.73h-3.92s0,0,0,0c0,0-.01,0-.02,0-.2,0-.38-.04-.56-.09-.02,0-.04,0-.06-.01-.02,0-.04-.02-.06-.03-.07-.03-.13-.06-.2-.09-.06-.03-.11-.06-.16-.09-.05-.03-.1-.07-.16-.11-.05-.04-.11-.08-.15-.13-.04-.04-.08-.09-.12-.13-.04-.05-.09-.1-.13-.16-.04-.05-.07-.1-.1-.16-.03-.06-.07-.11-.09-.17-.03-.06-.05-.11-.07-.17-.02-.07-.05-.13-.06-.2-.01-.06-.02-.11-.03-.17-.01-.08-.02-.15-.02-.23,0-.02,0-.04,0-.07,0-.04,0-.07.01-.11,0-.07,0-.15.02-.22.01-.07.03-.13.04-.2.01-.04.01-.08.03-.12l2.28-6.77s.02-.04.03-.07c.02-.07.05-.13.09-.19.03-.06.06-.12.09-.17.03-.05.07-.1.11-.15.04-.06.08-.11.13-.16.04-.04.08-.08.12-.12.05-.05.11-.09.16-.14.05-.03.1-.06.15-.09.06-.04.12-.07.18-.1.05-.02.11-.04.16-.06.07-.02.14-.05.21-.06.05-.01.11-.02.16-.03.08-.01.16-.02.23-.02.02,0,.04,0,.06,0h6.12l1.14-4.38c.25-.95,1.13-1.56,2.07-1.49.03,0,.05,0,.08,0h1.94c-.05-.45-.08-.9-.08-1.36,0-6.76,5.5-12.25,12.25-12.25s12.25,5.5,12.25,12.25c0,.46-.03.91-.08,1.36h1.94s.05,0,.08,0c.94-.07,1.83.54,2.07,1.49l1.14,4.38h6.12s.04,0,.07,0c.08,0,.15.01.22.02.06,0,.12.02.17.03.07.02.13.04.19.06.06.02.12.04.17.07.06.03.11.06.17.09.06.03.11.06.16.1.05.04.1.08.15.12.05.04.1.08.14.13.04.05.08.1.12.15.04.05.08.11.12.17.03.05.06.1.08.15.03.07.07.14.09.21,0,.02.02.04.03.06l2.28,6.77s.02.07.03.11c.02.07.03.13.05.2.01.07.02.15.02.22,0,.04.01.07.01.11,0,.02,0,.04,0,.07,0,.08-.01.15-.02.23Z"/>
  <polygon class="cls-1" points="26.75 64.45 26.75 68.16 29.86 68.16 29.86 64.45 28.16 64.45 26.75 64.45"/>
  <path class="cls-1" d="M30.85,47.45l-4.1,5.58v7.42h42.01v-7.42l-4.1-5.58H30.85ZM54.45,57.37h-13.92c-1.1,0-2-.9-2-2s.9-2,2-2h13.92c1.1,0,2,.9,2,2s-.9,2-2,2Z"/>
  <polygon class="cls-1" points="65.64 64.45 65.64 68.16 68.76 68.16 68.76 64.45 66.75 64.45 65.64 64.45"/>
  <polygon class="cls-1" points="70.77 43.45 69.83 40.68 66.19 40.68 66.91 43.45 70.77 43.45"/>
  <polygon class="cls-1" points="24.74 43.45 28.59 43.45 29.31 40.68 25.67 40.68 24.74 43.45"/>
  <path class="cls-1" d="M34.97,34.8l-2.24,8.65h30.05l-2.24-8.65h-1.78c-1.99,4.07-6.17,6.89-11,6.89s-9.01-2.82-11-6.89h-1.78Z"/>
  <path class="cls-1" d="M47.75,37.7c4.55,0,8.25-3.7,8.25-8.25s-3.7-8.25-8.25-8.25-8.25,3.7-8.25,8.25,3.7,8.25,8.25,8.25ZM47.23,30.12c-1.51-.51-2.54-1.22-2.54-2.58,0-1.25.87-2.22,2.38-2.51v-1.34h1.39v1.25c.93.03,1.57.24,2.04.46l-.42,1.59c-.36-.16-1.01-.49-2.03-.49-.91,0-1.21.4-1.21.8,0,.46.49.76,1.69,1.21,1.68.59,2.35,1.37,2.35,2.65s-.88,2.32-2.5,2.6v1.45h-1.39v-1.34c-.94-.04-1.87-.3-2.39-.61l.42-1.65c.6.32,1.43.62,2.34.62.8,0,1.36-.32,1.36-.87s-.45-.87-1.5-1.22Z"/>
  <path class="cls-1" d="M47.26,83.93c-1.14,0-2.07.93-2.07,2.07s.93,2.07,2.07,2.07,2.07-.93,2.07-2.07-.93-2.07-2.07-2.07Z"/>
  <path class="cls-1" d="M15.63,24.07c1.14,0,2.07-.93,2.07-2.07s-.93-2.07-2.07-2.07-2.07.93-2.07,2.07.93,2.07,2.07,2.07Z"/>
  <path class="cls-3" d="M41.59,83.86c-18.21-3.04-32.13-18.77-32.13-37.68,0-6.63,1.73-12.85,4.73-18.29-1.36-.33-2.53-1.11-3.36-2.19-3.41,6.07-5.37,13.04-5.37,20.47,0,21.09,15.66,38.6,36.04,41.71-.2-.6-.31-1.23-.31-1.89,0-.75.14-1.47.4-2.14Z"/>
  <path class="cls-3" d="M20.92,19.03c6.97-6.84,16.53-11.08,27.08-11.08,9.34,0,17.89,3.32,24.57,8.82.55-1.26,1.51-2.3,2.72-2.94-7.39-6.16-16.91-9.88-27.29-9.88-11.74,0-22.38,4.77-30.08,12.43,1.27.52,2.33,1.46,3,2.65Z"/>
  <path class="cls-3" d="M90.54,46.18c0-8.76-2.72-16.9-7.34-23.65-.75,1.13-1.86,2-3.18,2.43,4.11,6.08,6.52,13.37,6.52,21.22,0,19.39-14.64,35.44-33.53,37.89.2.61.32,1.26.32,1.93,0,.74-.14,1.45-.39,2.11,21.13-2.44,37.59-20.31,37.59-41.93Z"/>
  <path class="cls-2" d="M14.19,27.89c.46.11.94.18,1.44.18,3.35,0,6.07-2.72,6.07-6.07,0-1.08-.29-2.09-.78-2.97-.67-1.19-1.73-2.13-3-2.65-.71-.29-1.48-.45-2.29-.45-3.35,0-6.07,2.72-6.07,6.07,0,1.4.48,2.68,1.27,3.71.83,1.07,2.01,1.85,3.36,2.19ZM15.63,19.93c1.14,0,2.07.93,2.07,2.07s-.93,2.07-2.07,2.07-2.07-.93-2.07-2.07.93-2.07,2.07-2.07Z"/>
  <path class="cls-2" d="M72.57,16.77c-.32.74-.51,1.56-.51,2.42,0,3.35,2.72,6.07,6.07,6.07.66,0,1.3-.11,1.89-.31,1.31-.43,2.43-1.3,3.18-2.43.63-.96,1-2.1,1-3.33,0-3.35-2.72-6.07-6.07-6.07-1.03,0-2,.26-2.85.71-1.21.64-2.17,1.68-2.72,2.94ZM78.14,17.12c1.14,0,2.07.93,2.07,2.07s-.93,2.07-2.07,2.07-2.07-.93-2.07-2.07.93-2.07,2.07-2.07Z"/>
  <path class="cls-2" d="M53.02,84.07c-.81-2.4-3.08-4.14-5.75-4.14s-4.81,1.64-5.68,3.93c-.25.67-.4,1.39-.4,2.14,0,.66.11,1.3.31,1.89.8,2.42,3.08,4.18,5.77,4.18s4.82-1.65,5.68-3.96c.25-.66.39-1.37.39-2.11,0-.68-.12-1.32-.32-1.93ZM47.26,88.07c-1.14,0-2.07-.93-2.07-2.07s.93-2.07,2.07-2.07,2.07.93,2.07,2.07-.93,2.07-2.07,2.07Z"/>
  <path class="cls-3" d="M75.54,45.35c0-.07,0-.14-.02-.22-.01-.07-.03-.14-.05-.2-.01-.04-.01-.07-.03-.11l-2.28-6.77s-.02-.04-.03-.06c-.03-.07-.06-.14-.09-.21-.03-.05-.05-.1-.08-.15-.04-.06-.08-.11-.12-.17-.04-.05-.08-.1-.12-.15-.04-.05-.09-.09-.14-.13-.05-.04-.1-.09-.15-.12-.05-.04-.11-.07-.16-.1-.06-.03-.11-.07-.17-.09-.06-.03-.12-.05-.17-.07-.06-.02-.13-.04-.19-.06-.06-.01-.11-.02-.17-.03-.07-.01-.15-.02-.22-.02-.02,0-.04,0-.07,0h-6.12l-1.14-4.38c-.25-.95-1.13-1.56-2.07-1.49-.03,0-.05,0-.08,0h-1.94c.05-.45.08-.9.08-1.36,0-6.76-5.5-12.25-12.25-12.25s-12.25,5.5-12.25,12.25c0,.46.03.91.08,1.36h-1.94s-.05,0-.08,0c-.94-.07-1.83.54-2.07,1.49l-1.14,4.38h-6.12s-.04,0-.06,0c-.08,0-.16.01-.23.02-.05,0-.11.02-.16.03-.07.02-.14.04-.21.06-.05.02-.11.04-.16.06-.06.03-.12.06-.18.1-.05.03-.1.06-.15.09-.06.04-.11.09-.16.14-.04.04-.09.07-.12.12-.05.05-.09.11-.13.16-.04.05-.07.1-.11.15-.03.05-.06.11-.09.17-.03.06-.06.12-.09.19,0,.02-.02.04-.03.07l-2.28,6.77s-.02.08-.03.12c-.02.06-.03.13-.04.2-.01.07-.02.15-.02.22,0,.04-.01.07-.01.11,0,.02,0,.04,0,.07,0,.08.01.15.02.23,0,.06.02.11.03.17.02.07.04.13.06.2.02.06.04.12.07.17.03.06.06.12.09.17.03.05.06.11.1.16.04.05.08.1.13.16.04.05.08.09.12.13.05.05.1.09.15.13.05.04.1.08.16.11.05.03.11.06.16.09.06.03.13.06.2.09.02,0,.04.02.06.03.02,0,.04,0,.06.01.18.05.36.09.56.09,0,0,.01,0,.02,0,0,0,0,0,0,0h3.92l-2.75,3.73c-.25.34-.39.76-.39,1.18v17.79c0,1.1.9,2,2,2h7.12c1.1,0,2-.9,2-2v-5.71h27.78v5.71c0,1.1.9,2,2,2h7.12c1.1,0,2-.9,2-2v-17.79c0-.43-.14-.84-.39-1.18l-2.75-3.74h3.92s0,0,.01,0c.01,0,.02,0,.03,0,.19,0,.37-.04.54-.09.02,0,.05,0,.07-.01.03,0,.05-.02.07-.03.06-.02.12-.05.18-.08.06-.03.12-.06.18-.1.05-.03.09-.07.14-.1.06-.04.11-.09.17-.14.04-.04.08-.08.11-.12.05-.05.1-.11.14-.17.03-.05.06-.1.09-.15.04-.06.07-.12.1-.18.02-.05.04-.11.06-.16.02-.07.05-.13.06-.2.01-.05.02-.11.03-.17.01-.08.02-.15.02-.23,0-.02,0-.04,0-.07,0-.04,0-.07-.01-.11ZM69.83,40.68l.93,2.77h-3.86l-.72-2.77h3.64ZM47.75,21.19c4.55,0,8.25,3.7,8.25,8.25s-3.7,8.25-8.25,8.25-8.25-3.7-8.25-8.25,3.7-8.25,8.25-8.25ZM47.75,41.7c4.83,0,9.01-2.82,11-6.89h1.78l2.24,8.65h-30.05l2.24-8.65h1.78c1.99,4.07,6.17,6.89,11,6.89ZM28.59,43.45h-3.86l.93-2.77h3.64l-.72,2.77ZM29.86,68.16h-3.12v-3.71h3.12v3.71ZM68.76,68.16h-3.12v-3.71h3.12v3.71ZM68.76,60.45H26.75v-7.42l4.1-5.58h33.81l4.1,5.58v7.42Z"/>
  <path class="cls-3" d="M54.45,53.37h-13.92c-1.1,0-2,.9-2,2s.9,2,2,2h13.92c1.1,0,2-.9,2-2s-.9-2-2-2Z"/>
  <path class="cls-2" d="M47.38,32.22c-.91,0-1.75-.3-2.34-.62l-.42,1.65c.53.3,1.45.57,2.39.61v1.34h1.39v-1.45c1.62-.28,2.5-1.34,2.5-2.6s-.67-2.06-2.35-2.65c-1.2-.44-1.69-.75-1.69-1.21,0-.39.3-.8,1.21-.8,1.01,0,1.67.33,2.03.49l.42-1.59c-.47-.22-1.11-.43-2.04-.46v-1.25h-1.39v1.34c-1.51.29-2.38,1.26-2.38,2.51,0,1.36,1.03,2.07,2.54,2.58,1.05.35,1.5.68,1.5,1.22s-.55.87-1.36.87Z"/>
</svg>