<svg xmlns="http://www.w3.org/2000/svg" width="168" height="138" viewBox="0 0 168 138">
    <g data-name="Group 41693">
        <path data-name="Path 41104" d="M151.463 114.41c-1.76-9.254-9.867-16.5-19.275-16.5a20.034 20.034 0 0 0-12.108 4.145V77.276l3.316 2.956a4 4 0 0 0 5.59-.26l13.7-14.71a3.973 3.973 0 0 0-.312-5.717L74.574.973a4 4 0 0 0-5.208-.021L1.4 58.711a3.972 3.972 0 0 0-.42 5.642L14.461 79.81a4 4 0 0 0 5.66.37l4.053-3.573v56.858a3.988 3.988 0 0 0 3.995 3.981h87.917a3.988 3.988 0 0 0 3.995-3.981v-15.772c0-6.295 5.658-11.817 12.108-11.817 5.109 0 9.694 3.889 11.158 8.911-8.739 2.23-15.416 10.089-15.416 19.159a4.03 4.03 0 0 0 8.059 0c0-6.276 5.772-11.782 12.352-11.782a11.725 11.725 0 0 1 11.6 11.819 4.029 4.029 0 0 0 8.058 0 19.806 19.806 0 0 0-16.537-19.574M17.847 71.555l-8.192-9.392 62.281-52.93 62.082 53.632-8.218 8.826-51.1-45.548a4 4 0 0 0-5.31-.015zm94.245 57.928H88.06V81.734H56.1v47.75H32.164V69.565l39.855-35.127L112.21 70.26a3.924 3.924 0 0 0-.118.919z" style="fill:#71b9f8"/>
    </g>
</svg>
