<svg xmlns="http://www.w3.org/2000/svg" width="64" height="30" viewBox="0 0 64 30">
    <path data-name="Path 417" d="M0 0v30h64V0zm61.736 27.762h-.356l-59.033-.048.023-25.357h.356L61.76 2.4z" style="fill:#fff"/>
    <path data-name="Path 418" d="M426.561 103 425 107.8h3.108L426.6 103z" transform="translate(-374.837 -90.915)" style="fill:#fff"/>
    <path data-name="Path 419" d="M83.261 25.847 25.823 25.8 25.8 49.227l57.437.047zM40.679 43.714h-3.335L33.022 36h-.035v7.7h-3.053V31.336h3.335l4.322 7.623h.035l.012-7.623h3.053zm7.974-2.506a2.3 2.3 0 0 0 2.513-2.284h3.241c-.176 3.182-2.537 5.058-5.7 5.058a6.114 6.114 0 0 1-6.207-6.445 6.1 6.1 0 0 1 6.223-6.437c2.689 0 5.6 1.7 5.684 4.685h-3.241a2.261 2.261 0 0 0-2.513-1.911c-2.09 0-2.9 1.83-2.9 3.671.011 1.822.81 3.655 2.9 3.663zm18.261-2.587c0 3.59-1.668 5.373-5.437 5.361s-5.425-1.783-5.425-5.373l.012-7.261H59.3l-.008 7.452c0 1.6.587 2.413 2.184 2.413s2.184-.816 2.184-2.4l.012-7.448h3.241zm10.123 5.117-.763-2.215h-4.346l-.787 2.215h-3.335l4.674-12.367h3.3l4.65 12.378z" transform="translate(-22.472 -22.472)" style="fill:#fff"/>
</svg>
