<svg xmlns="http://www.w3.org/2000/svg" width="40" height="40" viewBox="0 0 40 40">
    <defs>
        <clipPath id="c8wgq1onra">
            <path data-name="Rectangle 17941" style="fill:#fff" d="M0 0h31v31H0z"/>
        </clipPath>
    </defs>
    <g data-name="social-linkedin">
        <g data-name="Group 42585" style="clip-path:url(#c8wgq1onra)" transform="translate(4 5)">
            <path data-name="Path 41523" d="M17.735 13.628v-.073c-.015.024-.036.048-.048.073zM28.038 0H2.961A2.945 2.945 0 0 0 0 2.94v25.111A2.948 2.948 0 0 0 2.961 31h25.077A2.957 2.957 0 0 0 31 28.051V2.94A2.954 2.954 0 0 0 28.038 0M7.894 5.887a2.138 2.138 0 0 1 2.189 2.254 2.145 2.145 0 0 1-2.215 2.247H7.85a2.136 2.136 0 0 1-2.177-2.247 2.15 2.15 0 0 1 2.22-2.255zm2.435 19.237H5.9V11.789h4.426zm16.232 0h-4.378v-6.955c0-1.764-.493-2.956-2.078-2.956a2.4 2.4 0 0 0-2.238 1.574 3.34 3.34 0 0 0-.131 1.073v7.264h-4.517s.057-12.174 0-13.389h4.517v1.82a4.35 4.35 0 0 1 3.928-2.134c2.877 0 4.9 2.231 4.9 6.247v7.455z" style="fill:#fff"/>
        </g>
    </g>
</svg>
