<svg xmlns="http://www.w3.org/2000/svg" width="40" height="40" viewBox="0 0 40 40">
    <defs>
        <clipPath id="oe62vx4rda">
            <path data-name="Rectangle 17084" transform="translate(.28)" style="fill:none" d="M0 0h31v31H0z"/>
        </clipPath>
    </defs>
    <g data-name="Group 41997" transform="translate(4.72 5)" style="clip-path:url(#oe62vx4rda)">
        <path data-name="Path 41128" d="M9.132.109a11.37 11.37 0 0 0-3.781.732 7.629 7.629 0 0 0-2.758 1.8A7.636 7.636 0 0 0 .8 5.407a11.453 11.453 0 0 0-.717 3.785C.01 10.851-.006 11.385 0 15.618s.027 4.764.107 6.427a11.4 11.4 0 0 0 .732 3.781 7.636 7.636 0 0 0 1.8 2.758 7.628 7.628 0 0 0 2.765 1.793 11.444 11.444 0 0 0 3.784.717c1.659.073 2.193.089 6.425.081s4.765-.027 6.427-.106a11.405 11.405 0 0 0 3.78-.732 7.967 7.967 0 0 0 4.55-4.568 11.4 11.4 0 0 0 .717-3.783c.073-1.664.09-2.2.082-6.428s-.027-4.763-.106-6.425a11.385 11.385 0 0 0-.732-3.782 7.653 7.653 0 0 0-1.8-2.758A7.607 7.607 0 0 0 25.769.8a11.407 11.407 0 0 0-3.784-.716C20.326.012 19.792-.006 15.558 0s-4.763.028-6.426.109m.182 28.179a8.65 8.65 0 0 1-2.9-.53 4.854 4.854 0 0 1-1.8-1.163 4.8 4.8 0 0 1-1.169-1.79 8.633 8.633 0 0 1-.542-2.894c-.077-1.643-.094-2.136-.1-6.3s.007-4.654.079-6.3a8.627 8.627 0 0 1 .53-2.894 4.827 4.827 0 0 1 1.17-1.79 4.812 4.812 0 0 1 1.79-1.169 8.632 8.632 0 0 1 2.893-.542c1.644-.078 2.136-.094 6.3-.1s4.655.007 6.3.079a8.621 8.621 0 0 1 2.894.53 4.82 4.82 0 0 1 1.795 1.163 4.81 4.81 0 0 1 1.17 1.791 8.588 8.588 0 0 1 .542 2.892c.078 1.644.1 2.137.1 6.3s-.007 4.655-.079 6.3a8.661 8.661 0 0 1-.53 2.9 5.163 5.163 0 0 1-2.957 2.952 8.634 8.634 0 0 1-2.892.542c-1.644.077-2.136.094-6.3.1s-4.654-.008-6.3-.079M22.022 7.257a1.871 1.871 0 1 0 1.868-1.874 1.871 1.871 0 0 0-1.867 1.874M7.584 15.6a8 8 0 1 0 7.988-8.02 8 8 0 0 0-7.988 8.02m2.808-.006a5.2 5.2 0 1 1 5.208 5.19 5.2 5.2 0 0 1-5.208-5.184" style="fill:#fff"/>
    </g>
</svg>
