<?xml version="1.0" encoding="utf-8"?>
<!-- Generator: Adobe Illustrator 25.2.1, SVG Export Plug-In . SVG Version: 6.00 Build 0)  -->
<svg version="1.1" id="Layer_1" xmlns="http://www.w3.org/2000/svg" xmlns:xlink="http://www.w3.org/1999/xlink" x="0px" y="0px"
	 viewBox="0 0 600 600" style="enable-background:new 0 0 600 600;" xml:space="preserve">
<style type="text/css">
	.st0{opacity:0.15;}
	.st1{fill:#4E8ECB;}
</style>
<g class="st0">
	<rect x="345.5" y="169.9" class="st1" width="0" height="0"/>
	<path class="st1" d="M300,0C134.3,0,0,134.3,0,300s134.3,300,300,300s300-134.3,300-300S465.7,0,300,0z M156.2,303.9l0-0.8
		c0.8-77.8,59.6-141.7,140.5-140.9c5.7,0.1,11.1,0.4,16.3,0.9l-7.7,28.3c-3-0.2-6.1-0.5-9.3-0.5c-60.9-0.6-107,48.5-107.6,111.8
		l0,0.8c-0.4,45.7,23,84.5,58.6,103l-7.9,29.3C188.6,414.1,155.6,363.6,156.2,303.9z M242.8,488.9l-2-0.5
		c-8.3-2.3-13.2-10.8-10.9-19.1l9.1-33.7c10,4.2,20.7,7.2,31.9,9.1l-9,33.3C259.7,486.3,251.1,491.2,242.8,488.9z M395.4,407.2
		c-27.4,24.5-57.4,39.9-102.6,39.5c-7.5-0.1-14.7-0.9-21.8-2l7.6-28c5,0.8,10.1,1.3,15.3,1.4c34.2,0.3,58.3-11.2,82.1-32.6
		c2.4-2.3,5.9-4.3,9.9-4.2c7.9,0.1,14.9,7.2,14.8,15.1C400.5,401,398.1,404.9,395.4,407.2z M384.9,226.7c-4.3,0-7.8-2-10.2-3.6
		c-11.2-10.2-23.3-18.5-37.1-24.1l7.9-29c-9.8-3.3-20.5-5.7-32.5-6.9l11.1-41c2.2-8.3,10.8-13.2,19.1-10.9l2,0.5
		c8.3,2.2,13.2,10.8,10.9,19.1l-10.6,39.3c19,6.5,34.6,16.6,49.1,29c3.1,2.8,6.2,7.1,6.2,12.6C400.7,219.8,393.2,226.8,384.9,226.7z
		"/>
</g>
</svg>
