<svg xmlns="http://www.w3.org/2000/svg" width="48" height="48" viewBox="0 0 48 48">
    <g transform="translate(-1020.683 -1938)">
        <g data-name="Group 20597">
            <path data-name="Path 4484" d="M971.137 292.724a18.623 18.623 0 0 1 16.25-26.37v-5.177a23.978 23.978 0 0 0 .3 47.946v-5.554a18.6 18.6 0 0 1-16.55-10.845z" transform="translate(56.667 1676.854)" style="fill:#fff"/>
            <path data-name="Path 4487" d="M979.734 261.162h-.081c-.077 0-.151.011-.227.012v5.177c.1 0 .2-.015.309-.015h.048a18.633 18.633 0 0 1 0 37.266h-.048c-.1 0-.2-.014-.309-.015v5.554c.1 0 .2.015.309.015.409.008.819.012 1.227 0a24 24 0 0 0-1.227-47.988z" transform="translate(64.495 1676.843)" style="fill:#e8e8e8"/>
        </g>
        <ellipse data-name="Ellipse 1796" cx="18.954" cy="18.996" rx="18.954" ry="18.996" transform="translate(1025.359 1942.935)" style="fill:green"/>
        <path data-name="Path 17375" d="M993.4 273.168a1.97 1.97 0 0 0-2.781.152l-3.667 4.124-3.114 3.5-.332.373-.325.367-.624.7-1.645 1.85-1.6-1.85-2.646-3.054a1.34 1.34 0 0 0-.069-.081 1.972 1.972 0 0 0-2.914 2.659l.415.476 4.517 5.2.781.9a1.982 1.982 0 0 0 1.467.661 2.155 2.155 0 0 0 1.465-.609l.849-.951.33-.372.332-.373 3.114-3.492 6.6-7.4a1.97 1.97 0 0 0-.153-2.78z" transform="translate(61.074 1682.041)" style="fill:#fff"/>
    </g>
</svg>
