<svg xmlns="http://www.w3.org/2000/svg" width="66" height="54" viewBox="0 0 66 54">
    <defs>
        <clipPath id="clip-path">
            <ellipse id="Ellipse_437" data-name="Ellipse 437" cx="20.583" cy="20.854" rx="20.583" ry="20.854"/>
        </clipPath>
        <style>
            
        </style>
    </defs>
    <g id="congrats-check" transform="translate(-692.141 -4338.661)">
        <g id="Group_20605" data-name="Group 20605" transform="translate(692.141 4338.661)">
            <g id="Group_20603" data-name="Group 20603">
                <g id="Group_10655" data-name="Group 10655">
                    <g id="Group_7573" data-name="Group 7573">
                        <g id="Group_7402" data-name="Group 7402">
                            <g id="Group_7398" data-name="Group 7398">
                                <g id="Group_7397" data-name="Group 7397">
                                    <g id="Group_7396" data-name="Group 7396">
                                        <path id="Path_3895" data-name="Path 3895" d="M419.226 187.679a26.991 26.991 0 1 1 .061-53.979" transform="translate(-392 -133.7)" style="fill:#1b68b2"/>
                                        <path id="Path_3896" data-name="Path 3896" d="M525.861 133.8a26.991 26.991 0 1 1-.061 53.979" transform="translate(-499.651 -133.78)" style="fill:#7ab4e2"/>
                                    </g>
                                </g>
                            </g>
                            <g id="Group_7401" data-name="Group 7401" transform="translate(3.967 4.272)">
                                <ellipse id="Ellipse_435" data-name="Ellipse 435" cx="20.583" cy="20.854" rx="20.583" ry="20.854" transform="translate(1.65 2.077)" style="fill:#044d96"/>
                                <g id="Group_7400" data-name="Group 7400">
                                    <path id="Ellipse_438" data-name="Ellipse 438" d="M20.16-2.5a22.29 22.29 0 0 1 8.822 1.8 22.569 22.569 0 0 1 7.2 4.914 23.168 23.168 0 0 1 4.854 25.139 22.869 22.869 0 0 1-4.854 7.288 22.569 22.569 0 0 1-7.2 4.914 22.48 22.48 0 0 1-17.644 0 22.569 22.569 0 0 1-7.2-4.914A23.168 23.168 0 0 1-.719 11.506a22.869 22.869 0 0 1 4.855-7.288A22.569 22.569 0 0 1 11.338-.7a22.29 22.29 0 0 1 8.822-1.8zm0 41.709a18.236 18.236 0 0 0 7.218-1.474 18.478 18.478 0 0 0 5.9-4.024 18.911 18.911 0 0 0 0-26.558 18.478 18.478 0 0 0-5.9-4.024 18.406 18.406 0 0 0-14.435 0 18.478 18.478 0 0 0-5.9 4.024 18.911 18.911 0 0 0 0 26.558 18.478 18.478 0 0 0 5.9 4.024 18.235 18.235 0 0 0 7.217 1.474z" transform="translate(2.5 2.5)" style="fill:#fff"/>
                                </g>
                            </g>
                        </g>
                    </g>
                    <g id="Group_7381" data-name="Group 7381" transform="translate(41.093 15.865)">
                        <g id="Group_7380" data-name="Group 7380">
                            <g id="Group_7379" data-name="Group 7379">
                                <g id="Group_7378" data-name="Group 7378">
                                    <circle id="Ellipse_427" data-name="Ellipse 427" cx="12.454" cy="12.454" r="12.454" style="fill:#e37b3d"/>
                                </g>
                            </g>
                            <path id="Path_3880" data-name="Path 3880" d="M418.524 352.838a1.237 1.237 0 0 1-.912-.409l-3.554-4.088a1.226 1.226 0 0 1 1.856-1.6l2.642 3.051 6.037-6.792a1.225 1.225 0 0 1 1.824 1.635l-6.982 7.831a1.337 1.337 0 0 1-.911.372z" transform="translate(-407.957 -334.221)" style="fill:#fff"/>
                        </g>
                    </g>
                </g>
            </g>
            <g id="Group_20604" data-name="Group 20604" transform="translate(15.981 20.303)">
                <g id="Group_20594" data-name="Group 20594">
                    <g id="Group_7361" data-name="Group 7361">
                        <path id="Path_3832" data-name="Path 3832" d="M447.105 117.435h-1.575a.422.422 0 0 1-.43-.43v-1.575a.422.422 0 0 1 .43-.43h1.575a.422.422 0 0 1 .43.43v1.575a.422.422 0 0 1-.43.43z" transform="translate(-445.1 -115)" style="fill:#fafbfc"/>
                    </g>
                </g>
                <g id="Group_20595" data-name="Group 20595" transform="translate(0 5.188)">
                    <g id="Group_7363" data-name="Group 7363">
                        <path id="Path_3833" data-name="Path 3833" d="M447.105 156.435h-1.575a.422.422 0 0 1-.43-.43v-1.575a.422.422 0 0 1 .43-.43h1.575a.422.422 0 0 1 .43.43v1.575a.422.422 0 0 1-.43.43z" transform="translate(-445.1 -154)" style="fill:#fafbfc"/>
                    </g>
                </g>
                <g id="Group_20596" data-name="Group 20596" transform="translate(0 10.376)">
                    <g id="Group_7365" data-name="Group 7365">
                        <path id="Path_3834" data-name="Path 3834" d="M447.105 195.435h-1.575a.422.422 0 0 1-.43-.43v-1.575a.422.422 0 0 1 .43-.43h1.575a.422.422 0 0 1 .43.43v1.575a.422.422 0 0 1-.43.43z" transform="translate(-445.1 -193)" style="fill:#fafbfc"/>
                    </g>
                </g>
                <g id="Group_20597" data-name="Group 20597" transform="translate(4.149 .148)">
                    <path id="Path_17373" data-name="Path 17373" d="M14.462-1.056H-2.12a.784.784 0 0 1-.663-.864.784.784 0 0 1 .663-.864h16.582a.784.784 0 0 1 .663.864.784.784 0 0 1-.663.864z" transform="translate(2.783 13.335)" style="fill:#fafbfc"/>
                    <path id="Path_17373-2" data-name="Path 17373" d="M14.462-1.056H-2.12a.784.784 0 0 1-.663-.864.784.784 0 0 1 .663-.864h16.582a.784.784 0 0 1 .663.864.784.784 0 0 1-.663.864z" transform="translate(2.783 8.059)" style="fill:#fafbfc"/>
                    <path id="Path_17373-3" data-name="Path 17373" d="M14.462-1.056H-2.12a.784.784 0 0 1-.663-.864.784.784 0 0 1 .663-.864h16.582a.784.784 0 0 1 .663.864.784.784 0 0 1-.663.864z" transform="translate(2.783 2.783)" style="fill:#fafbfc"/>
                </g>
                <path id="Path_17372" data-name="Path 17372" d="M570.195 267.148h-8.021a1.082 1.082 0 0 1-1.074-1.074 1.082 1.082 0 0 1 1.074-1.074h8.021a1.082 1.082 0 0 1 1.074 1.074 1.073 1.073 0 0 1-1.074 1.074z" transform="translate(-556.899 -249.067)" style="fill:#ed780f"/>
            </g>
        </g>
    </g>
</svg>
