<svg xmlns="http://www.w3.org/2000/svg" width="48" height="48" viewBox="0 0 48 48">
    <g data-name="Group 20601" transform="translate(-1020.683 -1938)">
        <ellipse data-name="Ellipse 1796" cx="18.954" cy="18.996" rx="18.954" ry="18.996" transform="translate(1025.359 1942.936)" style="fill:#d31313"/>
        <g data-name="Group 20600">
            <g data-name="Group 20597">
                <path data-name="Path 4484" d="M971.137 292.724a18.623 18.623 0 0 1 16.25-26.37v-5.177a23.978 23.978 0 0 0 .3 47.946v-5.554a18.6 18.6 0 0 1-16.55-10.845z" transform="translate(56.667 1676.854)" style="fill:#fff"/>
                <path data-name="Path 4487" d="M979.734 261.162h-.081c-.077 0-.151.011-.227.012v5.177c.1 0 .2-.015.309-.015h.048a18.633 18.633 0 0 1 0 37.266h-.048c-.1 0-.2-.014-.309-.015v5.554c.1 0 .2.015.309.015.409.008.819.012 1.227 0a24 24 0 0 0-1.227-47.988z" transform="translate(64.495 1676.843)" style="fill:#e8e8e8"/>
            </g>
            <path data-name="Path 17376" d="m54.262 53.688-5.972-6.167 5.369-5.515a2.162 2.162 0 0 0 .6-1.542 2.292 2.292 0 0 0-.6-1.542 2.067 2.067 0 0 0-2.957 0l-5.369 5.544-5.341-5.515a2.067 2.067 0 0 0-2.957 0 2.162 2.162 0 0 0-.6 1.542 2.292 2.292 0 0 0 .6 1.542l5.341 5.515-5.976 6.138a2.162 2.162 0 0 0-.6 1.542 2.292 2.292 0 0 0 .6 1.542 2.025 2.025 0 0 0 1.493.623 2.146 2.146 0 0 0 1.493-.623l5.944-6.2 5.97 6.17a2.025 2.025 0 0 0 1.493.623 2.094 2.094 0 0 0 2.1-2.164 2.069 2.069 0 0 0-.631-1.513z" transform="translate(998.73 1914.76)" style="fill:#fff"/>
        </g>
    </g>
</svg>
