<?xml version="1.0" encoding="utf-8"?>
<!-- Generator: Adobe Illustrator 25.2.1, SVG Export Plug-In . SVG Version: 6.00 Build 0)  -->
<svg version="1.1" id="Layer_1" xmlns="http://www.w3.org/2000/svg" xmlns:xlink="http://www.w3.org/1999/xlink" x="0px" y="0px"
	 viewBox="0 0 293 53.8" style="enable-background:new 0 0 293 53.8;" xml:space="preserve">
<style type="text/css">
	.st0{fill:#EB7923;}
	.st1{fill:#4E8ECB;}
</style>
<g>
	<path class="st0" d="M193.1,15c0.3,0.2,0.8,0.5,1.4,0.5c1.1,0,2.1-0.9,2.1-2c0-0.7-0.4-1.3-0.8-1.7c-1.9-1.7-4-3-6.6-3.9l-1.1,3.9
		C190,12.6,191.6,13.7,193.1,15"/>
	<path class="st0" d="M168.2,25.8l0-0.1c0.1-8.5,6.2-15,14.4-14.9c0.4,0,0.8,0,1.2,0.1l1-3.8c-0.7-0.1-1.4-0.1-2.2-0.1
		c-10.8-0.1-18.7,8.4-18.8,18.8l0,0.1c-0.1,8,4.3,14.7,11.1,17.6l1.1-3.9C171.3,37.1,168.1,31.9,168.2,25.8"/>
	<path class="st0" d="M194.6,36.2c-0.5,0-1,0.3-1.3,0.6c-3.2,2.9-6.4,4.4-11,4.4c-0.7,0-1.4-0.1-2-0.2l-1,3.7
		c0.9,0.2,1.9,0.3,2.9,0.3c6,0.1,10.1-2,13.7-5.3c0.4-0.3,0.7-0.8,0.7-1.5C196.6,37.1,195.6,36.2,194.6,36.2"/>
	<path class="st0" d="M190.6,2.7c0.3-1.1-0.4-2.2-1.5-2.5l-0.3-0.1c-1.1-0.3-2.2,0.4-2.5,1.5L184.9,7c1.6,0.2,3,0.5,4.3,0.9
		L190.6,2.7z"/>
	<path class="st0" d="M173.8,48c-0.3,1.1,0.4,2.2,1.5,2.5l0.3,0.1c1.1,0.3,2.2-0.4,2.5-1.5l1.2-4.5c-1.5-0.2-2.9-0.6-4.3-1.2
		L173.8,48z"/>
	<path class="st0" d="M220.3,29.6c-0.4-4.9-3.2-9.3-8.6-9.3c-4.7,0-8.3,3.9-8.9,9.2L220.3,29.6z M212.1,45.3
		c-7.5-0.1-13.5-5.9-13.4-14.3l0-0.1c0.1-7.8,5.7-14.1,13.2-14c8,0.1,12.5,6.7,12.5,13.9c0,1.1-0.9,1.9-1.9,1.9l-19.6-0.2
		c0.5,5.9,4.6,9.2,9.5,9.3c3.4,0,5.8-1.3,7.9-3.1c0.3-0.3,0.7-0.5,1.2-0.5c1,0,1.8,0.8,1.8,1.8c0,0.5-0.2,0.9-0.6,1.3
		C219.8,43.7,216.7,45.3,212.1,45.3"/>
	<path class="st0" d="M228.1,19.5c0-1.1,0.9-2,2-2c1.2,0,2,0.9,2,2.1l0,2.9c1.8-2.9,4.7-5.3,9.4-5.2c6.6,0.1,10.4,4.5,10.3,11
		l-0.1,15.1c0,1.2-0.9,2-2,2c-1.2,0-2-0.9-2-2.1l0.1-14.1c0-5-2.7-8.2-7.4-8.3c-4.7,0-8.2,3.3-8.2,8.4l-0.1,13.8c0,1.2-0.9,2-2,2
		c-1.2,0-2-0.9-2-2.1L228.1,19.5z"/>
	<path class="st0" d="M257.2,38l0.2-16.4l-2.2,0c-0.9,0-1.8-0.9-1.8-1.8c0-1,0.9-1.8,1.8-1.8l2.2,0l0.1-6.4c0-1.1,0.9-2,2-2
		c1.1,0,2,1,2,2.1l-0.1,6.4l7,0.1c1,0,1.8,0.9,1.8,1.8c0,1-0.9,1.8-1.9,1.8l-7-0.1l-0.2,15.9c0,3.3,1.8,4.5,4.5,4.6
		c1.4,0,2.2-0.3,2.5-0.3c0.9,0,1.7,0.8,1.7,1.8c0,0.7-0.5,1.3-1.2,1.6c-1.2,0.5-2.4,0.7-4,0.7C260.5,45.7,257.2,43.5,257.2,38"/>
	<path class="st0" d="M272.9,42.5c-0.4-0.3-0.7-0.8-0.7-1.5c0-0.9,0.8-1.7,1.8-1.7c0.4,0,0.7,0.1,1,0.3c2.8,1.9,5.6,2.9,8.6,3
		c3.3,0,5.6-1.6,5.7-4.3l0-0.1c0-2.7-3.2-3.8-6.7-4.8c-4.2-1.3-9-2.8-8.9-7.8l0-0.1c0-4.7,4-7.7,9.3-7.7c2.9,0,6,1,8.6,2.4
		c0.5,0.3,1,0.9,1,1.7c0,0.9-0.8,1.7-1.8,1.7c-0.4,0-0.7-0.1-0.9-0.2c-2.3-1.3-4.8-2.1-7.1-2.2c-3.2,0-5.3,1.6-5.3,3.9v0.1
		c0,2.6,3.3,3.6,6.9,4.7c4.2,1.3,8.7,3,8.6,7.9l0,0.1c-0.1,5.1-4.3,8.1-9.7,8C279.7,46,275.8,44.6,272.9,42.5"/>
	<path class="st1" d="M0.1,8.3c0-1.1,1-2.1,2.1-2.1l0.5,0c0.9,0,1.6,0.5,2,1.1l13.5,20.5L31.9,7.4c0.4-0.7,1.1-1.1,2-1.1l0.5,0
		c1.1,0,2.1,1,2.1,2.1l-0.1,34.2c0,1.2-1,2.2-2.1,2.2c-1.2,0-2.2-1-2.2-2.2l0.1-28.4L20,32.1c-0.5,0.7-1,1.1-1.8,1.1
		c-0.8,0-1.4-0.4-1.8-1.1L4.3,14.2L4.2,42.6c0,1.2-0.9,2.1-2.1,2.1c-1.1,0-2.1-0.9-2.1-2.1L0.1,8.3z"/>
	<path class="st1" d="M59.7,34.3l0-2.6c-2-0.6-4.7-1.2-8-1.2c-5.1-0.1-7.9,2.1-8,5.5l0,0.1c0,3.4,3.1,5.4,6.8,5.5
		C55.6,41.6,59.7,38.6,59.7,34.3 M39.7,36.2l0-0.1c0.1-5.7,4.8-8.7,11.7-8.6c3.5,0,5.9,0.5,8.3,1.2l0-0.9c0-4.9-2.9-7.4-8-7.5
		c-2.7,0-5,0.6-7,1.5c-0.3,0.1-0.5,0.2-0.7,0.2c-0.9,0-1.8-0.8-1.8-1.7c0-0.8,0.6-1.5,1.1-1.7c2.7-1.1,5.4-1.8,8.9-1.7
		c3.8,0,6.8,1.1,8.7,3.1c1.8,1.9,2.7,4.5,2.7,7.9l-0.1,14.8c0,1.2-0.9,2-2,2c-1.2,0-1.9-0.9-1.9-1.9l0-2.5c-1.9,2.4-5.1,4.6-9.8,4.6
		C44.7,44.7,39.7,41.8,39.7,36.2"/>
	<path class="st1" d="M68.1,8.2c0-1.1,0.9-2,2-2c1.2,0,2,1,2,2.1l-0.2,24.8l14.8-14.8c0.5-0.5,1-0.8,1.6-0.8c1.1,0,1.8,0.9,1.8,1.9
		c0,0.6-0.3,1-0.8,1.6l-8.9,8.6L90,41.9c0.4,0.5,0.5,0.8,0.5,1.4c0,1.1-0.9,1.9-2,1.9c-0.7,0-1.2-0.3-1.7-1l-9.3-11.9l-5.7,5.5
		l-0.1,5.2c0,1.2-0.9,2-2,2c-1.2,0-2-0.9-2-2.1L68.1,8.2z"/>
	<path class="st1" d="M95.2,9c0-1.3,1.1-2.1,2.4-2.1C99,6.8,100,7.7,100,9l0,0.7c0,1.3-1.1,2.1-2.4,2.1c-1.3,0-2.3-0.9-2.3-2.2
		L95.2,9z M95.5,19.2c0-1.1,0.9-2,2-2c1.2,0,2,0.9,2,2.1l-0.2,23.5c0,1.2-0.9,2-2,2c-1.2,0-2-0.9-2-2.1L95.5,19.2z"/>
	<path class="st1" d="M104.5,19.5c0-1.1,0.9-2,2-2c1.2,0,2,0.9,2,2.1l0,2.9c1.8-2.9,4.7-5.2,9.3-5.2c6.6,0.1,10.3,4.5,10.3,11
		l-0.1,15c0,1.2-0.9,2-2,2c-1.2,0-2-0.9-2-2.1l0.1-14c0-5-2.6-8.2-7.4-8.2c-4.7,0-8.2,3.3-8.2,8.4l-0.1,13.7c0,1.2-0.9,2-2,2
		c-1.2,0-2-0.9-2-2.1L104.5,19.5z"/>
	<path class="st1" d="M155,30.6l0-0.1c0.1-5.6-4.7-9.2-9.9-9.3c-5.1-0.1-9.4,3.5-9.5,9l0,0.1c-0.1,5.5,4.3,9.3,9.3,9.3
		C150.1,39.7,155,36,155,30.6 M133.6,50.5c-0.6-0.3-1-1-1-1.7c0-0.9,0.9-1.8,1.9-1.8c0.4,0,0.6,0.1,0.9,0.3c2.8,1.9,6.1,3,9.6,3
		c6,0.1,9.9-3.2,9.9-9.5l0-3.2c-2.4,3.1-5.7,5.7-10.7,5.6c-6.5-0.1-12.7-5-12.6-12.8l0-0.1c0.1-7.9,6.4-12.7,12.9-12.7
		c5.1,0.1,8.4,2.6,10.5,5.6l0-3.1c0-1.1,0.9-2,2-2c1.2,0,2,1,2,2.1l-0.2,20.6c0,4.2-1.3,7.4-3.6,9.6c-2.4,2.4-6.1,3.6-10.4,3.5
		C140.8,53.8,137,52.6,133.6,50.5"/>
</g>
</svg>
