<?xml version="1.0" encoding="utf-8"?>
<!-- Generator: Adobe Illustrator 26.0.1, SVG Export Plug-In . SVG Version: 6.00 Build 0)  -->
<svg version="1.1" id="Layer_1" xmlns="http://www.w3.org/2000/svg" xmlns:xlink="http://www.w3.org/1999/xlink" x="0px" y="0px"
	 viewBox="0 0 1240 140" style="enable-background:new 0 0 1240 140;" xml:space="preserve">
<style type="text/css">
	.st0{fill:#0C549D;}
	.st1{fill:#1D64AC;}
</style>
<rect class="st0" width="1240" height="140"/>
<g>
	<g>
		<circle class="st1" cx="93.392" cy="101.076" r="8.124"/>
		<circle class="st1" cx="93.299" cy="78.209" r="8.124"/>
		<circle class="st1" cx="93.205" cy="55.341" r="8.124"/>
		<circle class="st1" cx="66.188" cy="101.076" r="8.124"/>
		<circle class="st1" cx="66.095" cy="78.209" r="8.124"/>
		<circle class="st1" cx="66.001" cy="55.341" r="8.124"/>
		<circle class="st1" cx="65.907" cy="32.474" r="8.124"/>
		<circle class="st1" cx="119.085" cy="101.076" r="8.124"/>
		<circle class="st1" cx="118.991" cy="78.209" r="8.124"/>
		<circle class="st1" cx="144.778" cy="101.076" r="8.124"/>
		<circle class="st1" cx="168.959" cy="101.076" r="8.124"/>
		<circle class="st1" cx="14.803" cy="101.076" r="8.124"/>
		<circle class="st1" cx="144.684" cy="78.209" r="8.124"/>
		<circle class="st1" cx="40.495" cy="101.076" r="8.124"/>
		<circle class="st1" cx="40.402" cy="78.209" r="8.124"/>
		<circle class="st1" cx="247.143" cy="101.076" r="8.124"/>
		<circle class="st1" cx="247.05" cy="78.209" r="8.124"/>
		<circle class="st1" cx="246.956" cy="55.341" r="8.124"/>
		<circle class="st1" cx="219.939" cy="101.076" r="8.124"/>
		<circle class="st1" cx="219.846" cy="78.209" r="8.124"/>
		<circle class="st1" cx="219.752" cy="55.341" r="8.124"/>
		<circle class="st1" cx="272.836" cy="101.076" r="8.124"/>
		<circle class="st1" cx="272.742" cy="78.209" r="8.124"/>
		<circle class="st1" cx="298.529" cy="101.076" r="8.124"/>
		<circle class="st1" cx="322.71" cy="101.076" r="8.124"/>
		<circle class="st1" cx="168.554" cy="101.076" r="8.124"/>
		<circle class="st1" cx="298.435" cy="78.209" r="8.124"/>
		<circle class="st1" cx="194.247" cy="101.076" r="8.124"/>
		<circle class="st1" cx="194.153" cy="78.209" r="8.124"/>
		<circle class="st1" cx="272.649" cy="55.341" r="8.124"/>
		<circle class="st1" cx="400.803" cy="101.076" r="8.124"/>
		<circle class="st1" cx="400.71" cy="78.209" r="8.124"/>
		<circle class="st1" cx="400.616" cy="55.341" r="8.124"/>
		<circle class="st1" cx="373.599" cy="101.076" r="8.124"/>
		<circle class="st1" cx="373.506" cy="78.209" r="8.124"/>
		<circle class="st1" cx="373.412" cy="55.341" r="8.124"/>
		<circle class="st1" cx="426.496" cy="101.076" r="8.124"/>
		<circle class="st1" cx="426.402" cy="78.209" r="8.124"/>
		<circle class="st1" cx="452.189" cy="101.076" r="8.124"/>
		<circle class="st1" cx="476.37" cy="101.076" r="8.124"/>
		<circle class="st1" cx="452.095" cy="78.209" r="8.124"/>
		<circle class="st1" cx="347.907" cy="101.076" r="8.124"/>
		<circle class="st1" cx="347.813" cy="78.209" r="8.124"/>
		<circle class="st1" cx="426.309" cy="55.341" r="8.124"/>
		<circle class="st1" cx="426.215" cy="32.474" r="8.124"/>
		<circle class="st1" cx="247.257" cy="32.474" r="8.124"/>
		<circle class="st1" cx="555.409" cy="101.076" r="8.124"/>
		<circle class="st1" cx="555.315" cy="78.209" r="8.124"/>
		<circle class="st1" cx="528.205" cy="101.076" r="8.124"/>
		<circle class="st1" cx="528.111" cy="78.209" r="8.124"/>
		<circle class="st1" cx="528.018" cy="55.341" r="8.124"/>
		<circle class="st1" cx="502.512" cy="101.076" r="8.124"/>
		<circle class="st1" cx="502.419" cy="78.209" r="8.124"/>
	</g>
	<g>
		<circle class="st1" cx="476.928" cy="125.73" r="8.124"/>
		<circle class="st1" cx="504.132" cy="125.73" r="8.124"/>
		<circle class="st1" cx="451.235" cy="125.73" r="8.124"/>
		<circle class="st1" cx="425.542" cy="125.73" r="8.124"/>
		<circle class="st1" cx="401.361" cy="125.73" r="8.124"/>
		<circle class="st1" cx="555.517" cy="125.73" r="8.124"/>
		<circle class="st1" cx="529.824" cy="125.73" r="8.124"/>
		<circle class="st1" cx="323.176" cy="125.73" r="8.124"/>
		<circle class="st1" cx="350.38" cy="125.73" r="8.124"/>
		<circle class="st1" cx="297.484" cy="125.73" r="8.124"/>
		<circle class="st1" cx="271.791" cy="125.73" r="8.124"/>
		<circle class="st1" cx="247.61" cy="125.73" r="8.124"/>
		<circle class="st1" cx="401.766" cy="125.73" r="8.124"/>
		<circle class="st1" cx="376.073" cy="125.73" r="8.124"/>
		<circle class="st1" cx="169.516" cy="125.73" r="8.124"/>
		<circle class="st1" cx="196.72" cy="125.73" r="8.124"/>
		<circle class="st1" cx="143.824" cy="125.73" r="8.124"/>
		<circle class="st1" cx="118.131" cy="125.73" r="8.124"/>
		<circle class="st1" cx="93.95" cy="125.73" r="8.124"/>
		<circle class="st1" cx="222.413" cy="125.73" r="8.124"/>
		<circle class="st1" cx="14.911" cy="125.73" r="8.124"/>
		<circle class="st1" cx="42.115" cy="125.73" r="8.124"/>
		<circle class="st1" cx="67.807" cy="125.73" r="8.124"/>
	</g>
</g>
<g>
	<g>
		<circle class="st1" cx="1041.913" cy="101.076" r="8.124"/>
		<circle class="st1" cx="1042.007" cy="78.209" r="8.124"/>
		<circle class="st1" cx="1042.1" cy="55.341" r="8.124"/>
		<circle class="st1" cx="1069.117" cy="101.076" r="8.124"/>
		<circle class="st1" cx="1069.211" cy="78.209" r="8.124"/>
		<circle class="st1" cx="1069.304" cy="55.341" r="8.124"/>
		<circle class="st1" cx="1069.398" cy="32.474" r="8.124"/>
		<circle class="st1" cx="1016.221" cy="101.076" r="8.124"/>
		<circle class="st1" cx="1016.314" cy="78.209" r="8.124"/>
		<circle class="st1" cx="990.528" cy="101.076" r="8.124"/>
		<circle class="st1" cx="966.347" cy="101.076" r="8.124"/>
		<circle class="st1" cx="1120.503" cy="101.076" r="8.124"/>
		<circle class="st1" cx="990.622" cy="78.209" r="8.124"/>
		<circle class="st1" cx="1094.81" cy="101.076" r="8.124"/>
		<circle class="st1" cx="1094.904" cy="78.209" r="8.124"/>
		<circle class="st1" cx="888.162" cy="101.076" r="8.124"/>
		<circle class="st1" cx="888.256" cy="78.209" r="8.124"/>
		<circle class="st1" cx="888.349" cy="55.341" r="8.124"/>
		<circle class="st1" cx="915.366" cy="101.076" r="8.124"/>
		<circle class="st1" cx="915.46" cy="78.209" r="8.124"/>
		<circle class="st1" cx="915.553" cy="55.341" r="8.124"/>
		<circle class="st1" cx="862.469" cy="101.076" r="8.124"/>
		<circle class="st1" cx="862.563" cy="78.209" r="8.124"/>
		<circle class="st1" cx="836.777" cy="101.076" r="8.124"/>
		<circle class="st1" cx="812.595" cy="101.076" r="8.124"/>
		<circle class="st1" cx="966.752" cy="101.076" r="8.124"/>
		<circle class="st1" cx="836.87" cy="78.209" r="8.124"/>
		<circle class="st1" cx="941.059" cy="101.076" r="8.124"/>
		<circle class="st1" cx="941.152" cy="78.209" r="8.124"/>
		<circle class="st1" cx="862.657" cy="55.341" r="8.124"/>
		<circle class="st1" cx="734.502" cy="101.076" r="8.124"/>
		<circle class="st1" cx="734.596" cy="78.209" r="8.124"/>
		<circle class="st1" cx="734.689" cy="55.341" r="8.124"/>
		<circle class="st1" cx="761.706" cy="101.076" r="8.124"/>
		<circle class="st1" cx="761.8" cy="78.209" r="8.124"/>
		<circle class="st1" cx="761.893" cy="55.341" r="8.124"/>
		<circle class="st1" cx="708.81" cy="101.076" r="8.124"/>
		<circle class="st1" cx="708.903" cy="78.209" r="8.124"/>
		<circle class="st1" cx="683.117" cy="101.076" r="8.124"/>
		<circle class="st1" cx="658.935" cy="101.076" r="8.124"/>
		<circle class="st1" cx="683.21" cy="78.209" r="8.124"/>
		<circle class="st1" cx="787.399" cy="101.076" r="8.124"/>
		<circle class="st1" cx="787.492" cy="78.209" r="8.124"/>
		<circle class="st1" cx="708.997" cy="55.341" r="8.124"/>
		<circle class="st1" cx="709.09" cy="32.474" r="8.124"/>
		<circle class="st1" cx="888.048" cy="32.474" r="8.124"/>
		<circle class="st1" cx="579.897" cy="101.076" r="8.124"/>
		<circle class="st1" cx="579.99" cy="78.209" r="8.124"/>
		<circle class="st1" cx="607.101" cy="101.076" r="8.124"/>
		<circle class="st1" cx="607.194" cy="78.209" r="8.124"/>
		<circle class="st1" cx="607.288" cy="55.341" r="8.124"/>
		<circle class="st1" cx="632.793" cy="101.076" r="8.124"/>
		<circle class="st1" cx="632.887" cy="78.209" r="8.124"/>
	</g>
	<g>
		<circle class="st1" cx="658.378" cy="125.73" r="8.124"/>
		<circle class="st1" cx="631.174" cy="125.73" r="8.124"/>
		<circle class="st1" cx="684.071" cy="125.73" r="8.124"/>
		<circle class="st1" cx="709.763" cy="125.73" r="8.124"/>
		<circle class="st1" cx="733.945" cy="125.73" r="8.124"/>
		<circle class="st1" cx="579.789" cy="125.73" r="8.124"/>
		<circle class="st1" cx="605.481" cy="125.73" r="8.124"/>
		<circle class="st1" cx="812.129" cy="125.73" r="8.124"/>
		<circle class="st1" cx="784.925" cy="125.73" r="8.124"/>
		<circle class="st1" cx="837.822" cy="125.73" r="8.124"/>
		<circle class="st1" cx="863.515" cy="125.73" r="8.124"/>
		<circle class="st1" cx="887.696" cy="125.73" r="8.124"/>
		<circle class="st1" cx="733.54" cy="125.73" r="8.124"/>
		<circle class="st1" cx="759.232" cy="125.73" r="8.124"/>
		<circle class="st1" cx="965.789" cy="125.73" r="8.124"/>
		<circle class="st1" cx="938.585" cy="125.73" r="8.124"/>
		<circle class="st1" cx="991.482" cy="125.73" r="8.124"/>
		<circle class="st1" cx="1017.175" cy="125.73" r="8.124"/>
		<circle class="st1" cx="1041.356" cy="125.73" r="8.124"/>
		<circle class="st1" cx="912.892" cy="125.73" r="8.124"/>
		<circle class="st1" cx="1120.395" cy="125.73" r="8.124"/>
		<circle class="st1" cx="1093.191" cy="125.73" r="8.124"/>
		<circle class="st1" cx="1067.498" cy="125.73" r="8.124"/>
	</g>
</g>
<g>
	<g>
		<circle class="st1" cx="1226.935" cy="101.076" r="8.124"/>
		<circle class="st1" cx="1147.896" cy="101.076" r="8.124"/>
		<circle class="st1" cx="1147.99" cy="78.209" r="8.124"/>
		<circle class="st1" cx="1175.101" cy="101.076" r="8.124"/>
		<circle class="st1" cx="1175.194" cy="78.209" r="8.124"/>
		<circle class="st1" cx="1175.288" cy="55.341" r="8.124"/>
		<circle class="st1" cx="1200.793" cy="101.076" r="8.124"/>
		<circle class="st1" cx="1200.887" cy="78.209" r="8.124"/>
	</g>
	<g>
		<circle class="st1" cx="1226.378" cy="125.73" r="8.124"/>
		<circle class="st1" cx="1199.174" cy="125.73" r="8.124"/>
		<circle class="st1" cx="1147.789" cy="125.73" r="8.124"/>
		<circle class="st1" cx="1173.481" cy="125.73" r="8.124"/>
	</g>
</g>
</svg>
