<svg xmlns="http://www.w3.org/2000/svg" xmlns:xlink="http://www.w3.org/1999/xlink" width="96" height="96" viewBox="0 0 96 96">
  <defs>
    <clipPath id="clip-path">
      <rect id="Rectangle_8812" data-name="Rectangle 8812" width="80.117" height="80.114" transform="translate(0 0.001)" fill="none"/>
    </clipPath>
    <clipPath id="clip-card-balance-transfer">
      <rect width="96" height="96"/>
    </clipPath>
  </defs>
  <g id="card-balance-transfer" clip-path="url(#clip-card-balance-transfer)">
    <g id="Group_41486" data-name="Group 41486" transform="translate(8 8)">
      <g id="Group_41485" data-name="Group 41485" clip-path="url(#clip-path)">
        <path id="Path_43811" data-name="Path 43811" d="M65.007,66.321,55.571,65.5a2,2,0,1,0-.345,3.984l5.019.435A36.051,36.051,0,0,1,10.433,19.508,2,2,0,1,0,7.15,17.222,40.056,40.056,0,0,0,36.589,79.963q1.765.153,3.517.152A39.713,39.713,0,0,0,62.4,73.292l-.371,4.285a2,2,0,0,0,1.82,2.165,1.707,1.707,0,0,0,.175.008,2,2,0,0,0,1.99-1.827l.817-9.437a2,2,0,0,0-1.82-2.165" fill="#0f3d70"/>
        <path id="Path_43812" data-name="Path 43812" d="M43.528.154A39.756,39.756,0,0,0,17.722,6.816l.371-4.276a2,2,0,0,0-3.985-.346l-.818,9.437A2,2,0,0,0,15.11,13.8l9.436.817a1.721,1.721,0,0,0,.175.008,2,2,0,0,0,.17-3.992l-5.019-.435A36.053,36.053,0,0,1,70.29,59.711a2,2,0,1,0,3.35,2.183A40.055,40.055,0,0,0,43.528.154" fill="#ed780f"/>
        <path id="Path_43813" data-name="Path 43813" d="M22.058,44.058h4a2,2,0,0,0,2-2v-4a2,2,0,0,0-2-2h-4a2,2,0,0,0-2,2v4a2,2,0,0,0,2,2" fill="#ed780f"/>
        <path id="Path_43814" data-name="Path 43814" d="M38.058,48.058h-16a2,2,0,1,0,0,4h16a2,2,0,0,0,0-4" fill="#0f3d70"/>
        <path id="Path_43815" data-name="Path 43815" d="M62.074,20.058H26.042a5.992,5.992,0,0,0-5.984,5.985v2.015H18.042a5.992,5.992,0,0,0-5.984,5.985V54.074a5.991,5.991,0,0,0,5.984,5.984H54.074a5.991,5.991,0,0,0,5.984-5.984V52.058h2.016a5.991,5.991,0,0,0,5.984-5.984V26.043a5.992,5.992,0,0,0-5.984-5.985M56.058,54.074a1.986,1.986,0,0,1-1.984,1.984H18.042a1.986,1.986,0,0,1-1.984-1.984V34.043a1.987,1.987,0,0,1,1.984-1.985H54.074a1.987,1.987,0,0,1,1.984,1.985Zm8-8a1.986,1.986,0,0,1-1.984,1.984H60.058V34.043a5.992,5.992,0,0,0-5.984-5.985H24.058V26.043a1.987,1.987,0,0,1,1.984-1.985H62.074a1.987,1.987,0,0,1,1.984,1.985Z" fill="#0f3d70"/>
      </g>
    </g>
  </g>
</svg>
