<?xml version="1.0" encoding="UTF-8"?>
<svg id="Layer_3" data-name="Layer 3" xmlns="http://www.w3.org/2000/svg" viewBox="0 0 96 96">
  <defs>
    <style>
      .cls-1 {
        fill: none;
      }

      .cls-2 {
        fill: #fd6f00;
      }

      .cls-3 {
        fill: #003e74;
      }

      .cls-4 {
        fill: #0f3d70;
      }
    </style>
  </defs>
  <polygon class="cls-1" points="32.7 81.21 54.6 81.21 55.5 79.94 31.65 79.92 32.7 81.21"/>
  <path class="cls-1" d="M75.02,60l-4.63-6.08H16.78l-5.02,6.12v10.54h63.26v-10.58ZM20.23,67.91c-2.97,0-5.39-2.42-5.39-5.39s2.42-5.39,5.39-5.39,5.39,2.42,5.39,5.39-2.42,5.39-5.39,5.39ZM34.77,66.2c0,1.1-.9,2-2,2s-2-.9-2-2v-7.29c0-1.1.9-2,2-2s2,.9,2,2v7.29ZM41.85,66.2c0,1.1-.9,2-2,2s-2-.9-2-2v-7.29c0-1.1.9-2,2-2s2,.9,2,2v7.29ZM48.93,66.12c0,1.1-.9,2-2,2s-2-.9-2-2v-7.29c0-1.1.9-2,2-2s2,.9,2,2v7.29ZM56.01,66.12c0,1.1-.9,2-2,2s-2-.9-2-2v-7.29c0-1.1.9-2,2-2s2,.9,2,2v7.29ZM66.55,67.91c-2.97,0-5.39-2.42-5.39-5.39s2.42-5.39,5.39-5.39,5.39,2.42,5.39,5.39-2.42,5.39-5.39,5.39Z"/>
  <rect class="cls-1" x="15.3" y="79.92" width="3.77" height="6.58"/>
  <path class="cls-1" d="M66.55,61.12c-.77,0-1.39.62-1.39,1.39s.62,1.39,1.39,1.39,1.39-.62,1.39-1.39-.62-1.39-1.39-1.39Z"/>
  <path class="cls-1" d="M21.54,49.3l43.73.02-.4-2.57-4.45-3.9c-.42-.36-.73-.81-.95-1.34-.1-.21-.18-.42-.24-.63l-2.58-9.55-32.14-.02-2.97,17.99Z"/>
  <rect class="cls-1" x="8.34" y="41.94" width="3.68" height="3.07"/>
  <path class="cls-1" d="M20.23,61.12c-.77,0-1.39.62-1.39,1.39s.62,1.39,1.39,1.39,1.39-.62,1.39-1.39-.62-1.39-1.39-1.39Z"/>
  <rect class="cls-1" x="68.27" y="79.92" width="3.08" height="6.58"/>
  <path class="cls-1" d="M87.64,37.67l-12.75-11.17s-.09-.03-.13-.04l.67-1.88-.68,1.88-15.56-2.06c-.05.02-.19.17-.19.25l4.11,15.19s.03.05.04.07l12.76,11.17s.05-.04.07-.06l11.62-13.27s.04-.05.05-.08ZM78.39,42.6l-1.2-1.05c-.77.81-1.73,1.43-2.41,1.67l-1.14-1.66c.75-.29,1.67-.79,2.39-1.61.63-.72.78-1.46.28-1.89-.48-.42-1.13-.28-2.27.38-1.64.95-3.07,1.31-4.29.25-1.12-.98-1.3-2.52-.38-4.1l-1.2-1.05,1.08-1.24,1.11.97c.76-.81,1.44-1.22,2.01-1.46l1.1,1.62c-.42.19-1.23.52-2.02,1.43-.71.81-.58,1.39-.23,1.7.41.36,1.07.16,2.4-.56,1.84-1.04,3.06-1.03,4.2-.03,1.12.98,1.38,2.6.36,4.26l1.29,1.13-1.08,1.24Z"/>
  <polygon class="cls-1" points="9.82 75.92 13.3 75.92 21.08 75.92 27.43 75.92 27.43 75.92 76.96 75.92 76.96 74.61 9.82 74.61 9.82 75.92"/>
  <path class="cls-2" d="M32.77,56.91c-1.1,0-2,.9-2,2v7.29c0,1.1.9,2,2,2s2-.9,2-2v-7.29c0-1.1-.9-2-2-2Z"/>
  <path class="cls-2" d="M39.85,56.91c-1.1,0-2,.9-2,2v7.29c0,1.1.9,2,2,2s2-.9,2-2v-7.29c0-1.1-.9-2-2-2Z"/>
  <path class="cls-2" d="M46.93,56.83c-1.1,0-2,.9-2,2v7.29c0,1.1.9,2,2,2s2-.9,2-2v-7.29c0-1.1-.9-2-2-2Z"/>
  <path class="cls-2" d="M54.01,56.83c-1.1,0-2,.9-2,2v7.29c0,1.1.9,2,2,2s2-.9,2-2v-7.29c0-1.1-.9-2-2-2Z"/>
  <path class="cls-2" d="M20.23,57.12c-2.97,0-5.39,2.42-5.39,5.39s2.42,5.39,5.39,5.39,5.39-2.42,5.39-5.39-2.42-5.39-5.39-5.39ZM20.23,63.91c-.77,0-1.39-.62-1.39-1.39s.62-1.39,1.39-1.39,1.39.62,1.39,1.39-.62,1.39-1.39,1.39Z"/>
  <path class="cls-2" d="M66.55,57.12c-2.97,0-5.39,2.42-5.39,5.39s2.42,5.39,5.39,5.39,5.39-2.42,5.39-5.39-2.42-5.39-5.39-5.39ZM66.55,63.91c-.77,0-1.39-.62-1.39-1.39s.62-1.39,1.39-1.39,1.39.62,1.39,1.39-.62,1.39-1.39,1.39Z"/>
  <path class="cls-4" d="M73.41,54.22l-8.53-7.47.4,2.57-43.73-.02,2.97-17.99,32.14.02-1.08-4-32.75-.02h0c-.98,0-1.81.71-1.97,1.67l-3.46,20.94h-1.55c-.15,0-.29.02-.44.05l-.99-.99c.92-.18,1.61-.99,1.61-1.96v-7.07c0-1.1-.9-2-2-2h-7.68c-1.1,0-2,.9-2,2v7.07c0,1.1.9,2,2,2h2.46l3.76,3.76-4.33,5.28c-.29.36-.45.81-.45,1.27v11.29c-1.08.03-1.94.91-1.94,1.99v5.31c0,1.1.9,2,2,2h3.48v8.58c0,1.1.9,2,2,2h7.77c1.1,0,2-.9,2-2v-8.58h3.41l3.72,4.56c.38.46.95.73,1.55.73h23.88c.65,0,1.26-.32,1.64-.85l3.13-4.44h3.86v8.58c0,1.1.9,2,2,2h7.08c1.1,0,2-.9,2-2v-8.58h3.61c1.1,0,2-.9,2-2v-5.31c0-1.08-.86-1.96-1.94-1.99v-11.29c0-.44-.14-.86-.41-1.21l-2.31-3.03c-.16.02-.32.03-.47.03-.9,0-1.76-.31-2.43-.9ZM12.02,45.01h-3.68v-3.07h3.68v3.07ZM11.76,60.04l5.02-6.12h53.61l4.63,6.08v10.58H11.76v-10.54ZM19.08,86.5h-3.77v-6.58h3.77v6.58ZM54.6,81.21h-21.9l-1.05-1.29h23.85s-.9,1.29-.9,1.29ZM71.35,86.5h-3.08v-6.58h3.08v6.58ZM76.96,74.61v1.31H9.82v-1.31h67.14Z"/>
  <path class="cls-2" d="M57.71,20.68c-2.83-4.74-8.17-7.57-13.75-7.14-5.82.45-10.82,4.31-12.74,9.82-.36,1.04.19,2.18,1.23,2.55.22.08.44.11.66.11.83,0,1.6-.52,1.89-1.34,1.4-4.01,5.03-6.82,9.27-7.15,4.44-.35,8.67,2.14,10.53,6.19.06.13.14.26.22.37.11-.8.46-1.57,1.03-2.22.47-.53,1.04-.93,1.66-1.18Z"/>
  <path class="cls-2" d="M77.82,35.96c-1.14-1-2.36-1.01-4.2.03-1.33.72-1.99.92-2.4.56-.35-.31-.48-.89.23-1.7.79-.9,1.6-1.23,2.02-1.43l-1.1-1.62c-.57.25-1.25.66-2.01,1.46l-1.11-.97-1.08,1.24,1.2,1.05c-.92,1.58-.73,3.12.38,4.1,1.22,1.06,2.65.7,4.29-.25,1.13-.66,1.78-.81,2.27-.38.5.44.35,1.18-.28,1.89-.72.82-1.63,1.33-2.39,1.61l1.14,1.66c.68-.24,1.64-.86,2.41-1.67l1.2,1.05,1.08-1.24-1.29-1.13c1.02-1.67.76-3.28-.36-4.26Z"/>
  <path class="cls-3" d="M78.97,53.65l11.62-13.27c.68-.78,1.06-1.77,1.07-2.77,0-1.1-.45-2.13-1.24-2.82l-12.98-11.37c-.42-.36-.9-.62-1.45-.77-.22-.07-.44-.12-.66-.15l-15.63-2.07c-.68-.09-1.36,0-1.99.25-.62.25-1.19.65-1.66,1.18-.57.65-.91,1.42-1.03,2.22-.07.53-.05,1.06.09,1.58l.45,1.66,1.08,4,2.58,9.55c.06.21.14.42.24.63.22.53.54.98.95,1.34l4.45,3.9,8.53,7.47c.66.58,1.53.9,2.43.9.16,0,.31-.01.47-.03.02,0,.04,0,.06,0,1-.14,1.92-.64,2.61-1.42ZM75.96,51.02s-.05.05-.07.06l-12.76-11.17s-.02-.04-.04-.07l-4.11-15.19c0-.08.14-.23.19-.25l15.56,2.06.68-1.88-.67,1.88s.09.03.13.04l12.75,11.17s-.03.05-.05.08l-11.62,13.27Z"/>
</svg>