<svg xmlns="http://www.w3.org/2000/svg" width="32" height="32" viewBox="0 0 32 32">
    <g transform="translate(-64 -573)">
        <circle data-name="Ellipse 2062" cx="16" cy="16" r="16" transform="translate(64 573)" style="fill:#0f3d70"/>
        <g data-name="branch-icon">
            <g data-name="Group 42076">
                <path data-name="Path 41132" d="M10 0a10 10 0 1 0 10 10A10.011 10.011 0 0 0 10 0m3.427 18.293-.1-.176a.024.024 0 0 1 0-.029 11.476 11.476 0 0 0 2.021-4.988.024.024 0 0 1 .024-.02h2.823l.022.032a8.848 8.848 0 0 1-4.859 5.017zm.682-5.188c-.583 2.974-1.915 5.113-3.483 5.585l-.024-.024V13.1a.024.024 0 0 1 .024-.024h3.46zm.3-3.1a16.621 16.621 0 0 1-.105 1.85.023.023 0 0 1-.024.021h-3.654a.024.024 0 0 1-.024-.024V8.154a.024.024 0 0 1 .024-.024h3.654a.023.023 0 0 1 .024.021A16.608 16.608 0 0 1 14.409 10m3.785-3.076h-2.823a.024.024 0 0 1-.024-.019 11.475 11.475 0 0 0-2.019-4.993.024.024 0 0 1 0-.029.023.023 0 0 1 .019-.009h.009a8.846 8.846 0 0 1 4.859 5.018l-.022.032M10.6 6.9l.01-5.586a.024.024 0 0 1 .014 0h.007c1.561.47 2.893 2.611 3.476 5.584l-.023.028h-3.46A.023.023 0 0 1 10.6 6.9m7.957 5-.043-.012a.413.413 0 0 0-.109-.019h-2.863l-.024-.026a18.172 18.172 0 0 0 .1-1.845c0-.6-.031-1.2-.09-1.863a.023.023 0 0 1 .017-.007h2.865a.437.437 0 0 0 .115-.021l.04-.01.023.019a8.623 8.623 0 0 1 0 3.766l.178.039zm-12.666-5c.583-2.974 1.915-5.114 3.476-5.584h.007l.024.024V6.9a.023.023 0 0 1-.024.024h-3.46zm-.3 3.1a16.674 16.674 0 0 1 .1-1.849.024.024 0 0 1 .024-.021h3.659a.024.024 0 0 1 .024.024v3.693a.024.024 0 0 1-.024.024H5.719a.024.024 0 0 1-.019-.021A16.687 16.687 0 0 1 5.6 10m1.08-8.089A11.482 11.482 0 0 0 4.652 6.9a.023.023 0 0 1-.023.019H1.806l-.022-.032a8.845 8.845 0 0 1 4.858-5.012h.01l.019.01a.023.023 0 0 1 0 .029M1.592 8.13h2.866l.024.026a17.808 17.808 0 0 0 0 3.688l-.024.026H1.592a.433.433 0 0 0-.115.021l-.04.01-.024-.019A8.838 8.838 0 0 1 1.206 10a8.416 8.416 0 0 1 .219-1.9.024.024 0 0 1 .012 0l.039.01a.442.442 0 0 0 .117.021m.213 4.946h2.823a.024.024 0 0 1 .023.019 11.485 11.485 0 0 0 2.019 4.993.023.023 0 0 1 0 .028l-.028.008a8.812 8.812 0 0 1-4.857-5.038.024.024 0 0 1 .02-.011m4.108 0h3.46a.024.024 0 0 1 .026.024v5.566l-.03.023c-1.561-.47-2.893-2.61-3.471-5.6a.024.024 0 0 1 .018-.009" style="fill:#fff" transform="translate(70 579.001)"/>
            </g>
        </g>
    </g>
</svg>
