<svg xmlns="http://www.w3.org/2000/svg" width="32" height="32" viewBox="0 0 32 32">
    <g transform="translate(-330 -573)">
        <circle data-name="Ellipse 2061" cx="16" cy="16" r="16" transform="translate(330 573)" style="fill:#963cf0"/>
        <g data-name="Group 42063">
            <path data-name="Path 41126" d="M16.65 0H1.35A1.347 1.347 0 0 0 0 1.342v10.737a1.347 1.347 0 0 0 1.35 1.342H5.4V17h7.2v-3.579h4.05A1.347 1.347 0 0 0 18 12.079V1.342A1.347 1.347 0 0 0 16.65 0M11.7 15.11a.812.812 0 0 0-.112-.011.785.785 0 0 0-.787.783.767.767 0 0 0 .037.224H7.276a.767.767 0 0 0 .037-.224.777.777 0 0 0-1.013-.747V9.842h5.4zm5.4-3.031a.449.449 0 0 1-.45.447H12.6V9.842h.9v.895h.9v-1.79H3.6v1.789h.9v-.894h.9v2.684H1.35a.449.449 0 0 1-.45-.447V1.342a.449.449 0 0 1 .45-.447h15.3a.449.449 0 0 1 .45.447z" style="fill:#fff" transform="translate(337 581)"/>
            <path data-name="Path 41127" d="m10.593 12-1.431 4.7h1.272l.231-1h1.315l.231 1h1.315L12.1 12zm.3 2.738.079-.325q.087-.339.174-.737t.159-.751h.029q.086.354.173.751t.173.737l.08.325z" transform="translate(329.976 571.642)" style="fill:#fff"/>
            <path data-name="Path 41128" d="M29.942 13.04h1.243v3.66h1.243v-3.66h1.242V12h-3.728z" transform="translate(313.733 571.643)" style="fill:#fff"/>
            <path data-name="Path 41129" d="M52.989 13.922q-.065.195-.123.4t-.123.419h-.029q-.065-.209-.123-.419t-.123-.4L51.76 12h-1.329v4.7h1.113v-1.39q0-.239-.029-.539t-.065-.6l-.065-.535h.029l.376 1.127.578 1.554h.665l.578-1.554.389-1.13h.029l-.065.535q-.036.304-.065.6-.029.3-.029.539V16.7H55V12h-1.33z" transform="translate(297.669 571.642)" style="fill:#fff"/>
        </g>
    </g>
</svg>
