<svg xmlns="http://www.w3.org/2000/svg" width="32" height="32" viewBox="0 0 32 32">
    <path data-name="Union 95" d="m21.112 24.532-5.6-5.561a10.007 10.007 0 0 1-5.246 1.429A10.243 10.243 0 0 1 0 10.2a10.119 10.119 0 0 1 2.982-7.239A10.314 10.314 0 0 1 20.529 10.2a10.329 10.329 0 0 1-1.59 5.346l5.575 5.538a1.2 1.2 0 0 1 .484.951 1.532 1.532 0 0 1-.621 1.239L23.14 24.5a1.193 1.193 0 0 1-.975.5 1.5 1.5 0 0 1-1.053-.468zM5.842 5.668a6.185 6.185 0 0 0 0 8.778 6.246 6.246 0 0 0 4.424 1.816 6.312 6.312 0 0 0 6.249-6.205 6.15 6.15 0 0 0-1.828-4.389 6.293 6.293 0 0 0-8.845 0z" transform="translate(3.5 3.5)" style="fill:#939395"/>
</svg>
