<svg xmlns="http://www.w3.org/2000/svg" width="380" height="350" viewBox="0 0 380 350">
    <defs>
        <clipPath id="uuvn6wmmya">
            <path data-name="Rectangle 17868" style="fill:none" d="M0 0h124.206v150.525H0z"/>
        </clipPath>
    </defs>
    <path data-name="Path 41521" d="M340.632 200.745A157.483 157.483 0 1 1 183.149 43.229a157.5 157.5 0 0 1 157.483 157.516" transform="translate(-4.904 -8.261)" style="fill:#f4f5f8"/>
    <path data-name="Path 41520" d="M33.656 95h78.078a9.369 9.369 0 0 1 9.369 9.369v12.493a9.369 9.369 0 0 1-9.369 9.369H33.656a9.369 9.369 0 0 1-9.369-9.369v-12.493A9.369 9.369 0 0 1 33.656 95" transform="translate(-19.444 9.714)" style="fill:#d3d3d4"/>
    <path data-name="Path 41522" d="M33.769 95h79.015a9.481 9.481 0 0 1 9.482 9.482v12.642a9.481 9.481 0 0 1-9.482 9.482H33.769a9.481 9.481 0 0 1-9.482-9.482v-12.642A9.481 9.481 0 0 1 33.769 95" transform="translate(257.735 57.278)" style="fill:#d3d3d4"/>
    <path data-name="Path 41523" d="M38.7 237.087a21.9 21.9 0 1 1 28.069-13.1 21.9 21.9 0 0 1-28.069 13.1" transform="translate(3.615 4.972)" style="fill:#fff"/>
    <path data-name="Path 41524" d="M38.7 237.087a21.9 21.9 0 1 1 28.069-13.1 21.9 21.9 0 0 1-28.069 13.1" transform="translate(146.278 -151.054)" style="fill:#d3d3d4"/>
    <g data-name="Group 42351">
        <g data-name="Group 42346">
            <g data-name="Group 42352">
                <path data-name="Path 41489" d="M27.729 13.864A13.864 13.864 0 1 1 13.864 0a13.865 13.865 0 0 1 13.865 13.864" transform="rotate(24 -75.91 709.086)" style="fill:#d3d3d4"/>
                <path data-name="Path 41490" d="M10.668 5.334A5.334 5.334 0 1 1 5.334 0a5.334 5.334 0 0 1 5.334 5.334" transform="rotate(24 -49.561 769.416)" style="fill:#d3d3d4"/>
                <path data-name="Path 41491" d="M11.59 283.924A17.6 17.6 0 1 1 34.149 273.4a17.6 17.6 0 0 1-22.559 10.524" transform="translate(.001 -48.232)" style="fill:#d3d3d4"/>
                <path data-name="Path 41492" d="M46.638 309.929a6.772 6.772 0 1 1 8.679-4.049 6.771 6.771 0 0 1-8.679 4.049" transform="translate(-8.06 -57.269)" style="fill:#d3d3d4"/>
                <path data-name="Path 41493" d="M342.419 50.531A50.532 50.532 0 1 1 291.887 0a50.532 50.532 0 0 1 50.531 50.531" transform="translate(-46.687)" style="fill:#959593"/>
                <path data-name="Path 41494" d="M293.6 66.959h10.03c-1.267-12.464 13.828-16.75 13.828-29.117 0-10.614-7.3-16.165-17.529-16.165a23.321 23.321 0 0 0-17.723 8.472l6.427 5.843c2.824-2.922 5.94-4.967 9.835-4.967 4.967 0 7.887 3.116 7.887 7.593 0 8.67-14.8 14.221-12.756 28.34m5.068 22.3a7.407 7.407 0 0 0 7.407-7.408c0-.1 0-.19-.006-.286a7.433 7.433 0 0 0-7.066-7.783c-.112 0-.223-.008-.335-.008a7.356 7.356 0 0 0-7.317 7.394c0 .133 0 .265.013.4a7.329 7.329 0 0 0 6.953 7.685c.117.006.234.009.351.009" transform="translate(-54.461 -4.143)" style="fill:#fff"/>
                <path data-name="Line 3147" d="M83.789 5H0a5 5 0 0 1-5-5 5 5 0 0 1 5-5h83.789a5 5 0 0 1 5 5 5 5 0 0 1-5 5z" transform="translate(8.742 151.724)" style="fill:#959593"/>
                <path data-name="Line 3148" d="M48.078 5H0a5 5 0 0 1-5-5 5 5 0 0 1 5-5h48.078a5 5 0 0 1 5 5 5 5 0 0 1-5 5z" transform="translate(8.742 175.776)" style="fill:#959593"/>
                <path data-name="Line 3149" d="M83.789 5H0a5 5 0 0 1-5-5 5 5 0 0 1 5-5h83.789a5 5 0 0 1 5 5 5 5 0 0 1-5 5z" transform="translate(285.561 199.704)" style="fill:#959593"/>
                <path data-name="Line 3150" d="M48.078 5H0a5 5 0 0 1-5-5 5 5 0 0 1 5-5h48.078a5 5 0 0 1 5 5 5 5 0 0 1-5 5z" transform="translate(285.561 223.756)" style="fill:#959593"/>
                <g data-name="Group 42344" style="opacity:.33">
                    <g data-name="Group 42343">
                        <g data-name="Group 42342" style="clip-path:url(#uuvn6wmmya)" transform="translate(126.628 117.092)">
                            <path data-name="Path 41495" d="M282.678 208.174c0 34.694-28.126 89.442-62.819 89.442s-62.82-54.747-62.82-89.442a62.82 62.82 0 0 1 125.639 0" transform="translate(-154.463 -142.234)" style="fill:#959593"/>
                        </g>
                    </g>
                </g>
                <path data-name="Path 41496" d="M208.8 130.254a69.613 69.613 0 0 1 69.534 69.534c0 38.258-31.151 96.883-69.534 96.883s-69.534-58.624-69.534-96.883a69.613 69.613 0 0 1 69.534-69.534zm0 156.417c32.288 0 59.534-53.366 59.534-86.883a59.534 59.534 0 1 0-119.068 0c-.002 33.512 27.244 86.883 59.534 86.883z" transform="translate(-27.945 -26.314)" style="fill:#959593"/>
                <path data-name="Path 41497" d="M219.262 183.488a26.229 26.229 0 1 1-26.23 26.229 26.259 26.259 0 0 1 26.23-26.229zm0 42.459a16.229 16.229 0 1 0-16.23-16.229 16.248 16.248 0 0 0 16.23 16.229z" transform="translate(-38.224 -36.407)" style="fill:#959593"/>
                <path data-name="Path 41498" d="M326.873 387.351H57.2a5 5 0 0 1-4.647-6.845l28.139-70.894a5 5 0 0 1 4.647-3.155h43.151a5 5 0 0 1 0 10H88.73l-24.17 60.894h254.8l-25.449-60.894h-39.177a5 5 0 1 1 0-10h42.51a5 5 0 0 1 4.613 3.072l29.629 70.894a5 5 0 0 1-4.613 6.928z" transform="translate(-10.93 -60.231)" style="fill:#959593"/>
            </g>
        </g>
    </g>
</svg>
