<svg xmlns="http://www.w3.org/2000/svg" width="40" height="48" viewBox="0 0 40 48">
    <g data-name="marker/atm">
        <path data-name="Path 41098" d="M20 0A19.991 19.991 0 0 0 0 19.983c0 8.526 8.667 18.06 15.432 25.435 3.522 3.84 6.254 3.142 9.552-.417C31.692 37.764 40 28.619 40 19.983A19.992 19.992 0 0 0 20 0z" style="fill:#b54e00;fill-rule:evenodd"/>
        <g data-name="Group 42095">
            <path data-name="Path 41130" d="M16.7 32.812q-.131-.6-.262-1.137h-.044q-.109.536-.241 1.137t-.262 1.115l-.12.492h1.312l-.12-.492q-.131-.513-.262-1.115" transform="translate(-3.664 -13.236)" style="fill:#fff"/>
            <path data-name="Path 41131" d="M23.547 6.642A11.733 11.733 0 0 0 13.043 0 11.733 11.733 0 0 0 2.54 6.642H0V18.6h3.241a11.594 11.594 0 0 0 19.6 0H26V6.642zm-6.594-4.383a.026.026 0 0 1 .022-.011h.011a10.45 10.45 0 0 1 4.936 4.392h-2.96a12.67 12.67 0 0 0-2.008-4.348.029.029 0 0 1 0-.035m-3.191-.681a.027.027 0 0 1 .016 0h.008c1.539.474 2.886 2.364 3.685 5.068h-3.718zm-1.463 0h.008l.028.028v5.038H8.615c.8-2.7 2.145-4.594 3.685-5.068m-3.2.677a.027.027 0 0 1 .011 0l.022.012a.028.028 0 0 1 0 .034 12.679 12.679 0 0 0-2.007 4.345H4.165A10.448 10.448 0 0 1 9.1 2.251M4.49 15.887H2.719L4.712 9.2H6.8l2 6.687H6.965l-.322-1.419H4.812zM9.1 21.75a10.327 10.327 0 0 1-4.091-3.15h2.506a11.682 11.682 0 0 0 1.619 3.109.028.028 0 0 1 0 .034l-.033.01m3.234.649-.036.027c-1.29-.4-2.445-1.789-3.254-3.829h3.29zm.6-11.716v5.2H11.2v-5.2H9.472V9.2h5.193v1.48zm.845 11.744-.028-.028V18.6h3.295c-.812 2.036-1.97 3.432-3.267 3.83m3.207-.677.082.2-.115-.211a.029.029 0 0 1 0-.035 11.673 11.673 0 0 0 1.618-3.107h2.511a10.376 10.376 0 0 1-4.1 3.153m5.505-5.864h-1.57v-1.976q0-.34.04-.766t.091-.858q.05-.432.09-.761H21.1l-.543 1.6-.805 2.211h-.926l-.805-2.211-.523-1.6h-.04l.091.761q.051.432.09.858.04.427.04.766v1.974h-1.55V9.2h1.852l.986 2.735q.09.277.171.576t.171.6h.04q.091-.3.171-.6t.171-.576l.948-2.735h1.852z" transform="translate(7 8)" style="fill:#fff"/>
        </g>
    </g>
</svg>
