<svg xmlns="http://www.w3.org/2000/svg" width="40" height="48" viewBox="0 0 40 48">
    <g data-name="marker/atm-coop">
        <path data-name="Path 41098" d="M20 0A19.991 19.991 0 0 0 0 19.983c0 8.526 8.667 18.06 15.432 25.435 3.522 3.84 6.254 3.142 9.552-.417C31.692 37.764 40 28.619 40 19.983A19.992 19.992 0 0 0 20 0z" style="fill:#963cf0;fill-rule:evenodd"/>
        <path data-name="Path 41126" d="M22.267 0H1.805A1.807 1.807 0 0 0 0 1.805v14.444a1.807 1.807 0 0 0 1.805 1.805h5.417v4.814h9.628v-4.814h5.416a1.807 1.807 0 0 0 1.805-1.805V1.805A1.807 1.807 0 0 0 22.267 0m-6.62 20.326a1.08 1.08 0 0 0-.15-.015 1.053 1.053 0 0 0-1.053 1.053 1.038 1.038 0 0 0 .049.3H9.73a1.038 1.038 0 0 0 .049-.3 1.053 1.053 0 0 0-1.053-1.053 1.038 1.038 0 0 0-.3.049v-7.12h7.222zm7.222-4.077a.6.6 0 0 1-.6.6H16.85V13.24h1.2v1.2h1.2v-2.404H4.814v2.407h1.2v-1.2h1.2v3.607H1.805a.6.6 0 0 1-.6-.6V1.805a.6.6 0 0 1 .6-.6h20.462a.6.6 0 0 1 .6.6z" style="fill:#fff" transform="translate(8 11.281)"/>
        <path data-name="Path 41127" d="m11.007 12-1.845 6.056H10.8l.3-1.286h1.7l.3 1.286h1.7L12.945 12zm.382 3.531.1-.419q.112-.437.224-.95t.2-.969h.037q.111.457.224.969t.224.95l.1.419z" transform="translate(1.595 2.892)" style="fill:#fff"/>
        <path data-name="Path 41128" d="M29.942 13.341h1.6v4.714h1.6v-4.714h1.6V12h-4.8z" transform="translate(-12.932 2.892)" style="fill:#fff"/>
        <path data-name="Path 41129" d="M53.729 14.478q-.084.251-.159.522t-.158.54h-.037q-.083-.27-.158-.54t-.158-.522L52.145 12h-1.714v6.056h1.435v-1.789q0-.308-.037-.694t-.084-.778l-.084-.689h.039l.484 1.453.745 2h.857l.746-2 .5-1.453h.037l-.084.689q-.047.389-.084.778-.037.387-.037.694v1.789h1.454V12H54.6z" transform="translate(-27.256 2.892)" style="fill:#fff"/>
    </g>
</svg>
