<svg xmlns="http://www.w3.org/2000/svg" width="40" height="48" viewBox="0 0 40 48">
    <g data-name="marker/branch">
        <path data-name="Path 41098" d="M20 0A19.991 19.991 0 0 0 0 19.983c0 8.526 8.667 18.06 15.432 25.435 3.522 3.84 6.254 3.142 9.552-.417C31.692 37.764 40 28.619 40 19.983A19.992 19.992 0 0 0 20 0z" style="fill:#0f3d70;fill-rule:evenodd"/>
        <path data-name="Path 41134" d="M12 0a12 12 0 1 0 12 12A12.014 12.014 0 0 0 12 0m4.112 21.952L16 21.741a.028.028 0 0 1 0-.034 13.772 13.772 0 0 0 2.422-5.991.029.029 0 0 1 .028-.024h3.388l.027.039a10.617 10.617 0 0 1-5.831 6.02zm.819-6.226c-.7 3.568-2.3 6.136-4.18 6.7l-.028-.029V15.72a.028.028 0 0 1 .028-.028H16.9zm.36-3.726a19.945 19.945 0 0 1-.126 2.219.028.028 0 0 1-.028.025h-4.385a.028.028 0 0 1-.028-.028V9.784a.028.028 0 0 1 .028-.028h4.385a.028.028 0 0 1 .028.025A19.93 19.93 0 0 1 17.291 12m4.542-3.691h-3.387a.028.028 0 0 1-.028-.023A13.77 13.77 0 0 0 16 2.293a.028.028 0 0 1 0-.035.028.028 0 0 1 .022-.011h.011a10.616 10.616 0 0 1 5.827 6.024l-.027.038m-9.11-.028.012-6.7a.028.028 0 0 1 .017-.005h.008c1.874.565 3.472 3.133 4.171 6.7l-.028.034h-4.151a.028.028 0 0 1-.028-.028m9.549 6-.052-.014a.5.5 0 0 0-.131-.023h-3.439l-.029-.031A21.806 21.806 0 0 0 18.738 12c0-.72-.038-1.444-.108-2.235a.027.027 0 0 1 .021-.009h3.439a.524.524 0 0 0 .138-.025l.048-.012.028.022a10.347 10.347 0 0 1 0 4.519l.213.046zM7.069 8.275c.7-3.569 2.3-6.137 4.171-6.7h.008l.028.028v6.68a.028.028 0 0 1-.028.028H7.1zM6.709 12a20.009 20.009 0 0 1 .126-2.219.028.028 0 0 1 .028-.025h4.385a.028.028 0 0 1 .028.028v4.432a.028.028 0 0 1-.028.028H6.863a.029.029 0 0 1-.028-.025A20.024 20.024 0 0 1 6.709 12M8 2.293a13.778 13.778 0 0 0-2.418 5.992.028.028 0 0 1-.028.023H2.167l-.027-.037A10.614 10.614 0 0 1 7.97 2.25h.012L8 2.259a.028.028 0 0 1 0 .034M1.911 9.756h3.438l.028.031a21.369 21.369 0 0 0 0 4.426l-.028.031H1.911a.519.519 0 0 0-.138.025l-.048.012-.025-.021A10.605 10.605 0 0 1 1.447 12a10.1 10.1 0 0 1 .263-2.278.029.029 0 0 1 .015 0l.047.012a.531.531 0 0 0 .14.026m.256 5.936h3.386a.028.028 0 0 1 .028.023A13.782 13.782 0 0 0 8 21.707a.027.027 0 0 1 0 .034l-.034.01A10.574 10.574 0 0 1 2.143 15.7a.028.028 0 0 1 .024-.013m4.93 0h4.152a.028.028 0 0 1 .028.028V22.4l-.036.027c-1.874-.565-3.472-3.132-4.166-6.724a.028.028 0 0 1 .022-.01" transform="translate(8 8)" style="fill:#fff"/>
    </g>
</svg>
