<svg xmlns="http://www.w3.org/2000/svg" width="32" height="32" viewBox="0 0 32 32">
    <g transform="translate(-41 -573)">
        <circle data-name="Ellipse 2060" cx="16" cy="16" r="16" transform="translate(41 573)" style="fill:#b54e00"/>
        <g data-name="Group 42073">
            <path data-name="Path 41130" d="M16.451 32.513q-.1-.443-.193-.838h-.032q-.08.395-.177.838t-.193.822l-.089.363h.968l-.089-.363q-.1-.378-.193-.822" transform="translate(35.168 556.171)" style="fill:#fff"/>
            <path data-name="Path 41131" d="M18.113 4.981a9.043 9.043 0 0 0-16.159 0H0v8.967h2.493a9.042 9.042 0 0 0 15.08 0H20V4.981zm-5.072-3.287a.02.02 0 0 1 .017-.008h.008a7.975 7.975 0 0 1 3.8 3.294h-2.281a9.4 9.4 0 0 0-1.544-3.26.021.021 0 0 1 0-.026m-2.454-.511a.021.021 0 0 1 .012 0h.006c1.184.356 2.22 1.773 2.834 3.8H10.58zm-1.125 0h.006l.021.021v3.777H6.627c.614-2.028 1.65-3.445 2.834-3.8M7 1.688h.009l.017.009a.021.021 0 0 1 0 .025 9.4 9.4 0 0 0-1.545 3.259H3.2A7.973 7.973 0 0 1 7 1.688M3.454 11.915H2.091L3.624 6.9h1.61l1.533 5.013H5.358l-.248-1.062H3.7zM7 16.313a7.922 7.922 0 0 1-3.148-2.365H5.78a8.688 8.688 0 0 0 1.246 2.332.021.021 0 0 1 0 .026L7 16.313m2.488.487-.028.02a4.575 4.575 0 0 1-2.5-2.872h2.529zm.46-8.787v3.9h-1.33v-3.9H7.286V6.9h3.994v1.11zm.65 8.808-.021-.021v-2.852h2.534a4.587 4.587 0 0 1-2.511 2.873m2.467-.508.063.151-.088-.158a.022.022 0 0 1 0-.026 8.681 8.681 0 0 0 1.246-2.332h1.932a7.96 7.96 0 0 1-3.152 2.365m4.235-4.4h-1.21v-1.48q0-.255.031-.575t.07-.644l.069-.571h-.031l-.418 1.2-.614 1.663h-.712l-.619-1.658-.4-1.2h-.039l.07.571q.039.324.069.644.031.32.031.575v1.48h-1.192V6.9h1.424l.759 2.051q.069.208.132.432t.131.447h.031q.07-.223.132-.447t.132-.432l.727-2.051H17.3z" transform="translate(47 580)" style="fill:#fff"/>
        </g>
    </g>
</svg>
