<svg xmlns="http://www.w3.org/2000/svg" width="32" height="32" viewBox="0 0 32 32">
    <g transform="translate(-330.003 -573)">
        <circle data-name="Ellipse 2061" cx="16" cy="16" r="16" transform="translate(330.003 573)" style="fill:#f9cfe1"/>
        <path d="M14.25 6.652h-1.5V2.217A2.236 2.236 0 0 0 10.5 0h-6a2.236 2.236 0 0 0-2.25 2.217v4.435H.75a.745.745 0 0 0-.75.739v8.87A.745.745 0 0 0 .75 17h13.5a.745.745 0 0 0 .75-.739v-8.87a.745.745 0 0 0-.75-.739m-6 5.385V14.1h-1.5v-2.063a1.32 1.32 0 0 1-.6-1.1 1.346 1.346 0 0 1 2.692 0 1.32 1.32 0 0 1-.6 1.1m3-5.385H3.75V2.217a.745.745 0 0 1 .75-.739h6a.745.745 0 0 1 .75.739z" transform="translate(339.003 580)" style="fill:#1a1718"/>
    </g>
</svg>
