<svg xmlns="http://www.w3.org/2000/svg" width="24" height="24" viewBox="0 0 24 24">
    <path data-name="(i)" d="M19009 12988a8 8 0 1 1 5.652-2.342 7.958 7.958 0 0 1-5.652 2.342zm-1.244-9.06a.506.506 0 0 1 .365.122.46.46 0 0 1 .119.241 2.814 2.814 0 0 1-.082.545l-.014.07-.023.112-.973 3.34a3.116 3.116 0 0 0-.121.665.907.907 0 0 0 .244.669.957.957 0 0 0 .729.24c.775 0 1.51-.595 2.244-1.818l-.244-.121c-.031.045-.062.09-.094.133l-.031.045a3.37 3.37 0 0 1-.6.73.461.461 0 0 1-.242.122c-.062 0-.062 0-.121-.06a.181.181 0 0 1-.062-.121 3.66 3.66 0 0 1 .092-.43c.01-.035.02-.076.029-.117l1.457-4.975h-.428l-2.365.363-.123.243zm2.186-3.882a1.031 1.031 0 1 0 .727 1.759 1 1 0 0 0 .3-.728.808.808 0 0 0-.3-.729 1.01 1.01 0 0 0-.731-.303z" transform="translate(-18997 -12968)" style="fill:#69686a"/>
</svg>
