<svg width="48" height="48" viewBox="0 0 48 48" fill="none" xmlns="http://www.w3.org/2000/svg">
    <path d="M23.931 44a19.895 19.895 0 0 1-19.93-19.93 20.205 20.205 0 0 1 1.563-7.846A19.853 19.853 0 0 1 23.931 4.001a20.17 20.17 0 0 1 7.847 1.566 19.925 19.925 0 0 1 10.65 10.65 20.164 20.164 0 0 1 1.566 7.847A19.893 19.893 0 0 1 31.77 42.428 20.209 20.209 0 0 1 23.932 44zm.127-17.115 6.364 6.366 2.829-2.83-6.366-6.365 6.366-6.363-2.829-2.829-6.364 6.364-6.363-6.364-2.828 2.829 6.364 6.364-6.364 6.364 2.828 2.83 6.363-6.364v-.002z" fill="#fff"/>
</svg>
