<?xml version="1.0" encoding="utf-8"?>
<!-- Generator: Adobe Illustrator 25.2.1, SVG Export Plug-In . SVG Version: 6.00 Build 0)  -->
<svg version="1.1" id="Layer_1" xmlns="http://www.w3.org/2000/svg" xmlns:xlink="http://www.w3.org/1999/xlink" x="0px" y="0px"
	 viewBox="0 0 80 80" style="enable-background:new 0 0 80 80;" xml:space="preserve">
<style type="text/css">
	.st0{fill:none;}
	.st1{fill:#051A3C;}
	.st2{fill:#FFFFFF;}
	.st3{fill:#237D26;}
	.st4{fill:#41A62A;}
</style>
<g>
	<path class="st0" d="M53,63.3h4.7c2.6-2.7,4.8-5.8,6.3-9.3h-7.7C55.6,57.3,54.5,60.4,53,63.3z"/>
	<path class="st0" d="M45.5,65.5c0.6,0,1.2,0,1.8,0L45.5,65.5C45.4,65.4,45.4,65.4,45.5,65.5C45.4,65.5,45.5,65.5,45.5,65.5
		C45.5,65.5,45.5,65.5,45.5,65.5z"/>
	<path class="st0" d="M58,39.7c0,4.1-0.4,8.2-1.2,12.2h8.1c1.4-3.9,2.2-8,2.3-12.2H58z"/>
	<path class="st0" d="M69.3,37.7h4.3c-0.1-4.2-1.1-8.3-2.9-12.1h-3.5C68.5,29.5,69.2,33.6,69.3,37.7z"/>
	<path class="st0" d="M69.6,54h-3.3c-1.3,3.2-3.1,6.2-5.4,8.8c0.8-0.3,1.6-0.6,2.3-0.9C65.8,59.6,68,56.9,69.6,54z"/>
	<path class="st0" d="M69.3,39.8c-0.1,4.1-0.8,8.2-2.2,12.1h3.5c1.8-3.8,2.8-8,2.9-12.2L69.3,39.8L69.3,39.8z"/>
	<path class="st0" d="M67.2,37.7c-0.1-4.1-0.8-8.2-2.2-12.1h-8.1c0.8,4,1.2,8.1,1.2,12.1H67.2z"/>
	<path class="st0" d="M41.6,25.6H30.5c-0.7,3.3-1.1,6.7-1.2,10.1c1.7,0.6,3.4,1.3,5.1,2.1h7.2V25.6z"/>
	<path class="st0" d="M69.6,23.4c-2-3.6-4.7-6.7-7.9-9.3h-1c2.4,2.8,4.3,5.9,5.7,9.3H69.6z"/>
	<path class="st0" d="M20.3,25.6c-0.8,2.2-1.4,4.4-1.8,6.7c2.9,0.9,5.8,1.7,8.8,2.7c0.2-3.1,0.5-6.3,1.1-9.4H20.3z"/>
	<path class="st0" d="M54.3,54.1h-6.1c0.6,3.8,0.3,7.5,0,9.3h2.6C52.4,60.4,53.5,57.3,54.3,54.1z"/>
	<path class="st0" d="M38.1,39.8c1.2,0.8,2.4,1.7,3.5,2.7v-2.7H38.1z"/>
	<path class="st0" d="M56.1,39.8H43.7v4.9c0.7,0.8,1.3,1.6,2,2.6c1,1.5,1.7,3.1,2.1,4.7h7C55.6,48,56,43.9,56.1,39.8z"/>
	<path class="st0" d="M14.6,25.6c-0.7,1.5-1.3,3-1.7,4.6c1.2,0.5,2.3,1,3.6,1.4c0.4-2,1-4,1.7-6H14.6z"/>
	<path class="st0" d="M35.6,8.8c-2.1,0.8-4.1,1.9-5.9,3.3h3.3C33.8,10.9,34.7,9.8,35.6,8.8z"/>
	<path class="st0" d="M41.6,7.7l-0.1,0c-2.4,0.7-4.4,2.3-5.7,4.4h5.8V7.7z"/>
	<path class="st0" d="M21.2,22.7c-0.1,0.2-0.2,0.4-0.3,0.8h7.8c0-0.1,0-0.2,0-0.3l0.3-1l0.3-1c0.7-2.4,1.6-4.7,2.7-7h-4.6
		C24.8,16.7,22.7,19.5,21.2,22.7L21.2,22.7z"/>
	<path class="st0" d="M18.9,22.8l0.4-0.9l0.5-0.9c1.2-2.4,2.7-4.7,4.5-6.8h-1v0.1c-2.4,1.8-4.5,4-6.3,6.4c-0.6,0.9-1.2,1.9-1.7,2.8
		h3.3C18.7,23.2,18.9,23,18.9,22.8z"/>
	<path class="st0" d="M55.6,12.1c-1.8-1.4-3.8-2.6-6-3.4c1,1,1.8,2.2,2.6,3.4H55.6z"/>
	<path class="st0" d="M50.8,14.2h-7.1v9.3h10.6C53.5,20.2,52.4,17.1,50.8,14.2z"/>
	<path class="st0" d="M56.4,23.5h7.7c-1.5-3.5-3.6-6.6-6.3-9.3h-4.7C54.6,17.1,55.7,20.3,56.4,23.5z"/>
	<path class="st0" d="M43.7,7.7v4.4h5.8C48.2,9.9,46.1,8.3,43.7,7.7z"/>
	<path class="st0" d="M54.7,25.6h-11v12.1H56C56,33.6,55.5,29.6,54.7,25.6z"/>
	<path class="st0" d="M31.1,22.7c-0.1,0.2-0.2,0.5-0.2,0.8h10.6v-9.3h-7.1C32.9,16.9,31.8,19.8,31.1,22.7z"/>
	<path class="st1" d="M14.6,25.6h3.5c-0.7,2-1.3,4-1.7,6c0.7,0.3,1.4,0.5,2.2,0.7c0.4-2.3,1-4.5,1.8-6.7h8.1c-0.6,3.1-1,6.2-1.1,9.4
		c0.7,0.2,1.3,0.4,1.9,0.7c0.1-3.4,0.5-6.8,1.2-10.1h11.1v12.1h-7.2c1.3,0.6,2.5,1.3,3.7,2.1h3.5v2.7c0.7,0.7,1.4,1.4,2.1,2.2v-4.9
		h12.4C56,43.9,55.6,48,54.8,52h-7c0.2,0.7,0.3,1.4,0.5,2.1h6.1c-0.8,3.2-1.9,6.3-3.5,9.3h-2.6C48.1,64,48,64.4,48,64.4
		c-0.9,0-1.7-0.1-2.5-0.1c0,0.5,0,0.9-0.1,1.1h1.9c4.8-0.1,9.3-1.1,13.6-2.6c2.2-2.7,4.1-5.6,5.4-8.8h3.3c-1.7,3-3.8,5.6-6.3,7.9
		c1.5-0.7,3-1.4,4.4-2.2c0,0,0,0.1,0,0.1c-0.8,1.2-1.6,2.2-2.5,3.1c0,0,0,0,0,0c0,0.1-0.1,0.1-0.1,0.2c6.6-6.1,10.6-14.8,10.6-24.4
		c0-17.2-13.2-31.6-30.3-33.1c-1-0.1-2-0.2-3-0.2c-0.9,0-1.9,0.1-2.8,0.2c-9.4,0.8-17.9,5.5-23.7,12.9l-0.6,0.9l-0.6,0.8
		c-1.9,2.8-3.3,5.8-4.2,8.8c0.7,0.4,1.5,0.7,2.2,1.1C13.3,28.6,13.9,27.1,14.6,25.6z M57.8,63.3H53c1.4-2.9,2.5-6.1,3.3-9.3H64
		C62.5,57.5,60.4,60.6,57.8,63.3z M64.9,51.9h-8.1c0.8-4,1.2-8.1,1.2-12.2h9.2C67.1,43.9,66.4,48,64.9,51.9z M56.9,25.6H65
		c1.4,3.9,2.2,8,2.2,12.1h-9.2C58.1,33.6,57.7,29.6,56.9,25.6z M70.7,51.9h-3.5c1.3-3.9,2.1-8,2.2-12.1v-0.1h4.3
		C73.5,43.9,72.5,48.1,70.7,51.9z M73.6,37.7h-4.3c-0.1-4.1-0.8-8.2-2.2-12.1h3.5C72.5,29.4,73.5,33.5,73.6,37.7z M61.6,14.1
		c3.2,2.5,5.9,5.7,7.9,9.3h-3.2C65,20,63,16.9,60.6,14.1H61.6z M64.1,23.5h-7.7c-0.7-3.2-1.8-6.3-3.3-9.3h4.7
		C60.4,16.9,62.6,20,64.1,23.5z M55.6,12.1h-3.4c-0.7-1.2-1.6-2.4-2.6-3.4C51.7,9.5,53.8,10.7,55.6,12.1z M43.7,7.7
		c2.4,0.7,4.5,2.3,5.8,4.4h-5.8V7.7z M43.7,14.2h7.1c1.5,2.9,2.7,6,3.5,9.3H43.7V14.2z M43.7,25.6h11c0.8,4,1.2,8.1,1.3,12.1H43.7
		V25.6z M41.5,23.5H30.9c0-0.4,0.1-0.6,0.2-0.8c0.8-2.9,1.9-5.8,3.3-8.4h7.1V23.5z M41.4,7.7l0.1,0v4.4h-5.8
		C37,10,39.1,8.4,41.4,7.7z M35.6,8.8c-1,1-1.8,2.1-2.6,3.3h-3.3C31.5,10.7,33.5,9.6,35.6,8.8z M31.9,14.2c-1.1,2.2-2,4.6-2.7,7
		l-0.3,1l-0.3,1c0,0.1,0,0.2,0,0.3h-7.8c0.1-0.3,0.2-0.5,0.3-0.8v0c1.5-3.2,3.5-6.1,6-8.5H31.9z M17.1,20.6c1.8-2.4,3.9-4.6,6.3-6.4
		v-0.1h1c-1.8,2-3.3,4.3-4.5,6.8l-0.5,0.9l-0.4,0.9c0,0.2-0.2,0.4-0.3,0.7h-3.3C15.9,22.5,16.5,21.5,17.1,20.6z"/>
	<path class="st2" d="M11.8,40C11.9,40,11.9,40,11.8,40c0-0.1,0-0.1,0-0.1C11.8,39.9,11.8,39.9,11.8,40z"/>
	<path class="st3" d="M67.7,59.7c-1.4,0.8-2.9,1.5-4.4,2.2c-0.8,0.3-1.6,0.6-2.3,0.9c-4.3,1.6-8.9,2.5-13.6,2.6c-0.6,0-1.2,0-1.8,0
		c0,0,0,0,0,0c0,0,0,0-0.1,0c0,0.3,0,0.5,0,0.5C44.8,66,44.2,66,43.7,66c-0.7,0-1.4,0-2.1,0c-1.4-0.1-2.8-0.3-4.1-0.6
		c-2.2-0.5-4.3-1.2-6.3-2.1c-0.2-0.1-0.5-0.2-0.7-0.3c-2.6-1.2-5-2.8-7.1-4.4c-1.6-1.2-3.1-2.5-4.4-3.7c-0.3-0.3-0.6-0.6-0.9-0.9
		c-0.7-0.7-1.3-1.4-1.9-2c-1.6-1.8-2.8-3.3-3.6-4.3c-0.5-0.7-0.8-1.2-0.8-1.2c0.4,0.8,0.8,1.6,1.2,2.5c0.5,1,1.1,2,1.8,3
		c0.4,0.7,0.9,1.3,1.4,2c1.7,2.4,3.8,4.8,6.3,7c2.3,1.9,4.9,3.7,7.9,5.1c1.3,0.6,2.7,1.2,4.2,1.6c1.4,0.4,2.8,0.8,4.3,1.1
		c0,0,0.1,0,0.1,0c0.8,0.2,1.7,0.3,2.6,0.4c0.7,0.1,1.4,0.1,2.1,0.1c0.3,0,0.6,0,0.9,0c0,0,0,0,0,0c0.3,0,0.7,0,1-0.1
		c1.3-0.1,2.5-0.2,3.8-0.4c0,0,0.1,0,0.1,0c0.7-0.1,1.3-0.2,2-0.4c5-1,9.6-2.9,13.7-5.5c0,0,0,0,0,0.1C66.1,62,66.9,60.9,67.7,59.7
		C67.7,59.8,67.7,59.7,67.7,59.7z"/>
	<path class="st3" d="M46.4,54.1c-0.1-0.7-0.3-1.4-0.5-2.1c-0.5-1.7-1.2-3.3-2.3-4.8c0,0-0.1-0.1-0.1-0.1c-0.6-0.8-1.3-1.6-2-2.3
		c-2.2-2.2-4.5-3.8-7.1-4.9c-2.3-1.1-4.8-1.9-7.3-2.5c-3-0.8-6.1-1.4-9.1-2.2c-0.8-0.2-1.5-0.4-2.3-0.7c-1.3-0.4-2.6-0.9-3.8-1.4
		c-0.8-0.3-1.5-0.7-2.2-1.1c-2.1-1.2-4-2.7-5.7-4.7c0,0-0.2,3.3,0.4,8.1c1.4,1.5,2.9,2.6,4.6,3.5c0.6,0.3,1.2,0.6,1.8,0.9
		c0.1,0.1,0.3,0.1,0.4,0.2c0.1,0,0.2,0.1,0.3,0.1c0,0,0.1,0,0.1,0c0,0,0-0.1,0-0.1c0,0,0,0.1,0.1,0.1c1.2,0.5,2.5,0.9,3.8,1.2
		c0.7,0.2,1.4,0.4,2.2,0.5c3.1,0.7,6.3,1.2,9.5,1.9c0.7,0.2,1.4,0.3,2,0.5c4.4,1.3,8.6,3.2,12.2,7.3c0.1,0.2,0.3,0.3,0.4,0.5
		c0.7,0.8,1.2,1.7,1.7,2.7c1.2,2.5,1.6,5.3,1.8,7.4c0.4,0,0.7,0,1.1,0C46.5,62,47.1,58.3,46.4,54.1z"/>
	<path class="st4" d="M65.1,63.1c0-0.1,0.1-0.1,0.1-0.2c0,0,0,0,0,0c0,0,0,0,0-0.1c-4.1,2.6-8.8,4.5-13.7,5.5
		c-0.7,0.1-1.3,0.3-2,0.4c0,0-0.1,0-0.1,0c-1.2,0.2-2.5,0.3-3.8,0.4c-0.3,0-0.7,0-1,0.1c0,0,0,0,0,0c-0.3,0-0.6,0-0.9,0
		c-0.7,0-1.4,0-2.1-0.1c-0.9-0.1-1.7-0.2-2.6-0.4c0,0-0.1,0-0.1,0c-1.5-0.3-2.9-0.7-4.3-1.1c-1.5-0.5-2.8-1-4.2-1.6
		c-3.1-1.4-5.7-3.2-7.9-5.1c-2.6-2.2-4.7-4.6-6.3-7c-0.5-0.7-0.9-1.3-1.4-2c-0.7-1-1.2-2-1.8-3c-0.5-0.9-0.9-1.7-1.2-2.5
		c0,0,0.3,0.4,0.8,1.2c0.7,1,1.9,2.5,3.6,4.3c0.6,0.6,1.2,1.3,1.9,2c0.3,0.3,0.6,0.6,0.9,0.9c1.3,1.2,2.8,2.5,4.4,3.7
		c2.1,1.6,4.5,3.1,7.1,4.4c0.2,0.1,0.5,0.2,0.7,0.3c2,0.9,4.1,1.6,6.3,2.1c1.3,0.3,2.7,0.5,4.1,0.6c0.7,0,1.4,0,2.1,0
		c0.6,0,1.1,0,1.7-0.1c0,0,0-0.2,0-0.5c0,0,0,0,0,0c0-0.3,0-0.7,0.1-1.1c0-0.3,0-0.6,0-1c0-0.4,0-0.8,0-1.3
		c-0.1-2.2-0.6-4.9-1.8-7.4c-0.4-0.9-1-1.8-1.7-2.7c-0.1-0.2-0.3-0.3-0.4-0.5c-3.5-4-7.7-6-12.2-7.3c-0.7-0.2-1.3-0.4-2-0.5
		c-3.2-0.8-6.4-1.2-9.5-1.9c-0.7-0.2-1.5-0.3-2.2-0.5c-1.3-0.3-2.6-0.7-3.8-1.2c0,0,0,0,0,0c0,0-0.1,0-0.1,0c-0.1,0-0.2-0.1-0.3-0.1
		c-0.1-0.1-0.3-0.1-0.4-0.2c-0.6-0.3-1.2-0.6-1.8-0.9c-1.6-0.9-3.2-2.1-4.6-3.5c-0.1-0.1-0.3-0.3-0.4-0.4c0,0-0.2,8,3,16.7
		c2,5.4,5.3,11,10.7,15.4c3.6,2.9,7.8,4.9,12.2,6.2c2.9,0.9,8.1,1.8,13.8,1.4c6.4-0.4,13.3-2.4,18.3-7.6
		C63.3,65.8,64.2,64.5,65.1,63.1z"/>
</g>
</svg>
