<?xml version="1.0" encoding="utf-8"?>
<!-- Generator: Adobe Illustrator 27.8.1, SVG Export Plug-In . SVG Version: 6.00 Build 0)  -->
<svg version="1.1" id="Layer_1" xmlns="http://www.w3.org/2000/svg" xmlns:xlink="http://www.w3.org/1999/xlink" x="0px" y="0px"
	 viewBox="0 0 600 600" style="enable-background:new 0 0 600 600;" xml:space="preserve">
<style type="text/css">
	.st0{fill:#FDB07B;}
	.st1{fill:#ED780F;}
	.st2{fill:#03467C;}
	.st3{fill:#F2F2F2;}
	.st4{fill:#0F3D70;}
	.st5{fill:#1B68B2;}
	.st6{fill:#085696;}
	.st7{fill:#2484BA;}
	.st8{fill:#3B93D0;}
	.st9{fill:#257ABE;}
	.st10{fill:#003366;}
	.st11{fill:#E37B3D;}
	.st12{clip-path:url(#SVGID_00000134945541624183876510000003704791720363532212_);}
	.st13{fill:#E8F2F9;}
	.st14{fill:#C0D6E2;}
	.st15{fill:#E37B3D;stroke:#F2F2F2;stroke-width:9;stroke-miterlimit:10;}
	.st16{fill:#FFFFFF;}
	.st17{fill:#EA7923;}
	.st18{fill:#DCEBF8;}
	.st19{opacity:0.25;}
	.st20{fill:#FCC190;}
	.st21{fill:#2C4577;}
	.st22{fill:#F78B41;}
	.st23{fill:#7AB4E2;}
	.st24{opacity:0.4;fill:#DCEBF8;enable-background:new    ;}
	.st25{opacity:0.16;fill:#2B9BE0;enable-background:new    ;}
	.st26{clip-path:url(#SVGID_00000042714795630777088360000000445546314651842730_);}
	.st27{fill:#CFE6FA;}
	.st28{fill:#3D93D0;}
	.st29{fill:#E8F4FD;}
	.st30{opacity:0.23;fill:#FCC190;enable-background:new    ;}
	.st31{fill:#C65D17;}
	.st32{clip-path:url(#SVGID_00000041276463286420975890000018077897818554448530_);}
	.st33{fill:#125993;}
	.st34{opacity:0.23;fill:#EB7923;enable-background:new    ;}
	.st35{clip-path:url(#SVGID_00000027592856815301428340000007995498418113058235_);}
	.st36{fill:#FC993F;}
	.st37{opacity:0.15;}
	.st38{clip-path:url(#SVGID_00000142887149198327359090000011561506349743850144_);}
	.st39{fill:#F5A155;}
	.st40{opacity:0.2;}
	.st41{clip-path:url(#SVGID_00000086675862618318256250000010435165091190023823_);}
	.st42{clip-path:url(#SVGID_00000099627573650338928060000001354924968073270166_);}
	.st43{fill:#135EA5;}
	.st44{opacity:0.1;}
	.st45{clip-path:url(#SVGID_00000171706137827413405980000002137358057725398669_);}
	.st46{clip-path:url(#SVGID_00000083048963920909452090000014982523512193683856_);}
	.st47{clip-path:url(#SVGID_00000134209959475891523630000014537888635139007148_);}
	.st48{clip-path:url(#SVGID_00000052073514038875862830000007477338418352454787_);}
	.st49{clip-path:url(#SVGID_00000005964575691506348420000007841142647480925332_);}
	.st50{clip-path:url(#SVGID_00000071532458320509079000000011575914478748247686_);}
	.st51{clip-path:url(#SVGID_00000100355499792911221340000000136515748212719519_);}
	.st52{clip-path:url(#SVGID_00000176009222904029227280000009117220618688746679_);}
	.st53{clip-path:url(#SVGID_00000128462878800206098620000001755950075660679090_);}
	.st54{clip-path:url(#SVGID_00000040563355492841925970000014298663156951935387_);}
	.st55{clip-path:url(#SVGID_00000069373528641486418340000009429003643151687326_);}
	.st56{clip-path:url(#SVGID_00000077290019423859844520000010064234806703698590_);}
	.st57{fill:#FFD600;}
	.st58{clip-path:url(#SVGID_00000050622886735082575030000000207239712835732116_);}
	.st59{clip-path:url(#SVGID_00000093874802116579115630000004469119874070279348_);}
	.st60{clip-path:url(#SVGID_00000026847244933476849470000005562379281392997523_);}
	.st61{clip-path:url(#SVGID_00000120538706761853791050000016380472615492427415_);}
	.st62{clip-path:url(#SVGID_00000166655210583098926650000016544693229896324763_);}
	.st63{clip-path:url(#SVGID_00000073686410170624472990000018093723554195326640_);}
	.st64{clip-path:url(#SVGID_00000042012938803584818490000010529752961325203385_);}
	.st65{clip-path:url(#SVGID_00000119076208242208628600000009718346950772861849_);}
	.st66{clip-path:url(#SVGID_00000129900799558236316140000013007856135671063733_);}
	.st67{clip-path:url(#SVGID_00000154390374734225987750000015779075167720257930_);}
	.st68{clip-path:url(#SVGID_00000067950556258993202670000003271465073013454236_);}
	.st69{fill:#F9B373;}
	.st70{opacity:0.23;fill:#2B9BE0;enable-background:new    ;}
	.st71{clip-path:url(#SVGID_00000183232170600895177920000007890722591466768798_);}
	.st72{fill:#EB7923;}
	.st73{clip-path:url(#SVGID_00000103234024656046162600000003187332426650746249_);}
	.st74{fill:#C45800;}
	.st75{fill:#F4F5F8;}
	.st76{opacity:0.4;}
	.st77{fill:#CE5F13;}
	.st78{fill:#B5500B;}
	.st79{fill:#F7C194;}
	.st80{fill:none;stroke:#C45800;stroke-width:1.5;stroke-miterlimit:10;}
	.st81{fill:none;stroke:#E88C4D;stroke-width:1.5;stroke-miterlimit:10;}
	.st82{fill:#1A5387;}
	.st83{fill:#CCE5FA;}
	.st84{opacity:0.23;enable-background:new    ;}
	.st85{fill:#2B9BE0;}
	.st86{clip-path:url(#SVGID_00000057122556364918938190000011360900405861412238_);}
	.st87{fill:#F79842;}
	.st88{fill:none;stroke:#E88C4D;stroke-width:4;stroke-miterlimit:10;}
	.st89{fill:none;stroke:#C45800;stroke-width:4;stroke-miterlimit:10;}
	.st90{clip-path:url(#SVGID_00000153699021698267472240000008136633385173907645_);}
	.st91{clip-path:url(#SVGID_00000062160503192787623890000002247353843024320408_);}
</style>
<g>
	<g>
		<path id="Path_3982_00000090258349250017694210000004992797925469388430_" class="st4" d="M444.1,288.2l150.4-70.5L297.3,104
			l-1.2,219.5L444.1,288.2z"/>
		<path id="Path_3983_00000168803974424911109980000013528062047168240528_" class="st5" d="M153.5,288.2l-148-69.7L297.3,104v217.2
			L153.5,288.2z"/>
		<path id="Path_3984_00000099638431730836719020000014079796756981296003_" class="st5" d="M134,375.9V264.7
			c0,0,46.2-39.9,165.3-40.7v130.8C300,354.8,184.1,358.7,134,375.9z"/>
		<path id="Path_3985_00000090976243037246966820000011910886500035492498_" class="st4" d="M464.9,374.7V263.4
			c0,0-47-39.9-167.6-40.7v130.8C297.3,353.5,406.9,355.9,464.9,374.7z"/>
		<path id="Path_3986_00000089532782791561798840000006492742976090181761_" class="st6" d="M465.3,264.7v29.8
			c0,0-47.4-41.4-168-42.2v-29.5C417.9,223.5,465.3,264.7,465.3,264.7z"/>
		<path id="Path_3987_00000170978862418762379700000007337111925368067993_" class="st7" d="M297.3,222.7v29.5
			C178.2,253,134,294.5,134,294.5v-30.4C133.2,264.1,178.2,223.5,297.3,222.7z"/>
		<path id="Path_3989_00000174564699877980033910000004175458982676054704_" class="st11" d="M84.7,238.5c0,8.6,7,15.7,15.7,15.7
			s15.7-7,15.7-15.7s-7-15.7-15.7-15.7C91.8,222.8,84.7,229.8,84.7,238.5z"/>
		<path id="Path_3988_00000063609870394034388140000003859668468836761473_" class="st1" d="M99.6,245.5
			c6.3,0.8,13.3,149.6,14.9,162.9c2.3,13.3-14.9,15.7-14.9,15.7s-18-3.1-15.7-15.7C87.1,395.1,93.3,246.3,99.6,245.5z"/>
	</g>
	<g>
		<g id="Group_7426" transform="translate(0 44.395)">
			<g id="Group_7424" transform="translate(1.689 1.667)">
				<g>
					<g>
						<defs>
							<path id="SVGID_1_" d="M478.4,303.7H82c7,20.4,10.2,42.3,9.4,64.2c0,39.2-9.4,58.7-9.4,58.7h396.3
								c15.7,0,27.4-12.5,27.4-27.4v-68.1C505.8,316.2,493.3,303.7,478.4,303.7z"/>
						</defs>
						<clipPath id="SVGID_00000181073101300262971950000012899392022887017893_">
							<use xlink:href="#SVGID_1_"  style="overflow:visible;"/>
						</clipPath>
						<g id="Group_7423" style="clip-path:url(#SVGID_00000181073101300262971950000012899392022887017893_);">
							<rect id="Rectangle_2985" x="82" y="315.5" class="st13" width="423.7" height="20.4"/>
							<rect id="Rectangle_2986" x="82" y="335" class="st14" width="423.7" height="20.4"/>
							<rect id="Rectangle_2987" x="82" y="355.4" class="st13" width="423.7" height="20.4"/>
							<rect id="Rectangle_2988" x="82" y="375" class="st14" width="423.7" height="20.4"/>
							<rect id="Rectangle_2989" x="82" y="395.4" class="st13" width="423.7" height="20.4"/>
						</g>
					</g>
				</g>
			</g>
			<g id="Group_7425">
				<path id="Path_4036" class="st10" d="M480.1,438.8H83.8c-6.3,0-11-4.7-11-11c0-6.3,4.7-11,11-11h396.3c9.4,0,16.4-7,16.4-16.4
					l0,0V333c0-9.4-7-16.4-16.4-16.4l0,0H83.8c-6.3,0-11-4.7-11-11l0,0c0-6.3,4.7-11,11-11l0,0h396.3c21.1,0,39.2,17.2,39.2,39.2
					v67.4C518.5,421.6,501.3,438.8,480.1,438.8z"/>
			</g>
		</g>
	</g>
	<circle class="st15" cx="497.3" cy="456.2" r="80.6"/>
	<path class="st16" d="M454.3,466.7c7.8,8.6,15.7,17.2,23.5,25.7c1.1,1.2,2.2,2.4,3.4,3.7c3,3.3,9.7,3.7,12.7,0
		c5.7-6.9,11.3-13.8,17-20.7c9-11,18-22,27-33.1c2.1-2.5,4.2-5.1,6.2-7.6c1.6-1.9,2.6-3.8,2.6-6.4c0-2.2-1-4.8-2.6-6.4
		c-1.7-1.6-4-2.7-6.4-2.6c-2.2,0.1-4.9,0.8-6.4,2.6c-5.7,6.9-11.3,13.8-17,20.7c-9,11-18,22-27,33.1c-2.1,2.5-4.2,5.1-6.2,7.6
		c4.2,0,8.5,0,12.7,0c-7.8-8.6-15.7-17.2-23.5-25.7c-1.1-1.2-2.2-2.4-3.4-3.7c-3.2-3.5-9.5-3.5-12.7,0
		C450.9,457.7,450.9,462.9,454.3,466.7L454.3,466.7z"/>
	<path id="Path_3988_00000134209639605427020720000014094643012500524701_" class="st1" d="M99.6,245.5
		c6.3,0.8,13.3,149.6,14.9,162.9c2.3,13.3-14.9,15.7-14.9,15.7s-18-3.1-15.7-15.7C87.1,395.1,93.3,246.3,99.6,245.5z"/>
</g>
</svg>
