<?xml version="1.0" encoding="utf-8"?>
<!-- Generator: Adobe Illustrator 27.8.1, SVG Export Plug-In . SVG Version: 6.00 Build 0)  -->
<svg version="1.1" id="Layer_1" xmlns="http://www.w3.org/2000/svg" xmlns:xlink="http://www.w3.org/1999/xlink" x="0px" y="0px"
	 viewBox="0 0 600 600" style="enable-background:new 0 0 600 600;" xml:space="preserve">
<style type="text/css">
	.st0{fill:#FDB07B;}
	.st1{fill:#ED780F;}
	.st2{fill:#03467C;}
	.st3{fill:#F2F2F2;}
	.st4{fill:#0F3D70;}
	.st5{fill:#1B68B2;}
	.st6{fill:#085696;}
	.st7{fill:#2484BA;}
	.st8{fill:#3B93D0;}
	.st9{fill:#257ABE;}
	.st10{fill:#003366;}
	.st11{fill:#E37B3D;}
	.st12{clip-path:url(#SVGID_00000095303444253703434970000003219440939896218555_);}
	.st13{fill:#E8F2F9;}
	.st14{fill:#C0D6E2;}
	.st15{fill:#E37B3D;stroke:#F2F2F2;stroke-width:9;stroke-miterlimit:10;}
	.st16{fill:#FFFFFF;}
	.st17{fill:#EA7923;}
	.st18{fill:#DCEBF8;}
	.st19{opacity:0.25;}
	.st20{fill:#FCC190;}
	.st21{fill:#2C4577;}
	.st22{fill:#F78B41;}
	.st23{fill:#7AB4E2;}
	.st24{opacity:0.4;fill:#DCEBF8;enable-background:new    ;}
	.st25{opacity:0.16;fill:#2B9BE0;enable-background:new    ;}
	.st26{clip-path:url(#SVGID_00000012448298401318833820000005350856711702470050_);}
	.st27{fill:#CFE6FA;}
	.st28{fill:#3D93D0;}
	.st29{fill:#E8F4FD;}
	.st30{opacity:0.23;fill:#FCC190;enable-background:new    ;}
	.st31{fill:#C65D17;}
	.st32{clip-path:url(#SVGID_00000085965195778858552250000006156580364595879344_);}
	.st33{fill:#125993;}
	.st34{opacity:0.23;fill:#EB7923;enable-background:new    ;}
	.st35{clip-path:url(#SVGID_00000068652863965888111650000009736722088618008230_);}
	.st36{fill:#FC993F;}
	.st37{opacity:0.15;}
	.st38{clip-path:url(#SVGID_00000028327270201113595120000013427106004959289782_);}
	.st39{fill:#F5A155;}
	.st40{opacity:0.2;}
	.st41{clip-path:url(#SVGID_00000020356478067668759180000011497871048814670526_);}
	.st42{clip-path:url(#SVGID_00000067948213705256774530000007348671036361066655_);}
	.st43{fill:#135EA5;}
	.st44{opacity:0.1;}
	.st45{clip-path:url(#SVGID_00000132777002982724639910000004564640338181805984_);}
	.st46{clip-path:url(#SVGID_00000175294229991354728600000013547504801401272509_);}
	.st47{clip-path:url(#SVGID_00000165922172372270064510000003932498077988539794_);}
	.st48{clip-path:url(#SVGID_00000037674382152299046160000002317733877021413822_);}
	.st49{clip-path:url(#SVGID_00000053514648802345646190000001029439021429168047_);}
	.st50{clip-path:url(#SVGID_00000126312450653829079200000001246935326477331843_);}
	.st51{clip-path:url(#SVGID_00000062874969043678668150000011568361163512123558_);}
	.st52{clip-path:url(#SVGID_00000173127829631029298970000017265517851880024752_);}
	.st53{clip-path:url(#SVGID_00000151543198767164270040000007462498372582504328_);}
	.st54{clip-path:url(#SVGID_00000139269323145615654070000010620348689874095778_);}
	.st55{clip-path:url(#SVGID_00000129884729755867502880000008144908384802709666_);}
	.st56{clip-path:url(#SVGID_00000084513053763705247880000008928663920183521460_);}
	.st57{fill:#FFD600;}
	.st58{clip-path:url(#SVGID_00000095315781466741169550000002737459443389705401_);}
	.st59{clip-path:url(#SVGID_00000006665748364326594120000014775871005650974088_);}
	.st60{clip-path:url(#SVGID_00000058578282675726663310000010136118318613084067_);}
	.st61{clip-path:url(#SVGID_00000112625374922916196050000009496162447447431567_);}
	.st62{clip-path:url(#SVGID_00000092445594521642561890000014620640062712712887_);}
	.st63{clip-path:url(#SVGID_00000124160073643185550160000001570769440608075908_);}
	.st64{clip-path:url(#SVGID_00000096752506392946917050000003645840023128878780_);}
	.st65{clip-path:url(#SVGID_00000061444064557790980340000001321255995853519516_);}
	.st66{clip-path:url(#SVGID_00000004545728768030238990000009712352295018859668_);}
	.st67{clip-path:url(#SVGID_00000016767245255269215520000006415571759407089291_);}
	.st68{clip-path:url(#SVGID_00000183940530505157168020000016729916171367140248_);}
	.st69{fill:#F9B373;}
	.st70{opacity:0.23;fill:#2B9BE0;enable-background:new    ;}
	.st71{clip-path:url(#SVGID_00000047046468600646862590000009492965471828968856_);}
	.st72{fill:#EB7923;}
	.st73{clip-path:url(#SVGID_00000069385064251676734180000003400124717746868630_);}
	.st74{fill:#C45800;}
	.st75{fill:#F4F5F8;}
	.st76{opacity:0.4;}
	.st77{fill:#CE5F13;}
	.st78{fill:#B5500B;}
	.st79{fill:#F7C194;}
	.st80{fill:none;stroke:#C45800;stroke-width:1.5;stroke-miterlimit:10;}
	.st81{fill:none;stroke:#E88C4D;stroke-width:1.5;stroke-miterlimit:10;}
	.st82{fill:#1A5387;}
	.st83{fill:#CCE5FA;}
	.st84{opacity:0.23;enable-background:new    ;}
	.st85{fill:#2B9BE0;}
	.st86{clip-path:url(#SVGID_00000055672281121021971050000001407578748159628719_);}
	.st87{fill:#F79842;}
	.st88{fill:none;stroke:#E88C4D;stroke-width:4;stroke-miterlimit:10;}
	.st89{fill:none;stroke:#C45800;stroke-width:4;stroke-miterlimit:10;}
	.st90{clip-path:url(#SVGID_00000077314648668366493990000000224541967600157833_);}
	.st91{clip-path:url(#SVGID_00000096748881952218849960000017112833543269876624_);}
</style>
<g>
	<path class="st17" d="M83.8,407.5l-68.9-41.8c0,0-17.2-13.1-3.3-32.8c13.9-19.7,35.3-4.9,35.3-4.9l101.7,62.3
		C148.6,390.2,92.8,384.5,83.8,407.5z"/>
	<path class="st17" d="M67.4,328.7l102.5,63.1h36.9L96.9,323C96.9,323,81.3,314.8,67.4,328.7z"/>
	<path class="st17" d="M128.9,332.8c0,0,7.4-9,23.8,0c16.4,9,93.5,56.6,93.5,56.6h-24.6L128.9,332.8z"/>
	
		<rect x="472.5" y="409.9" transform="matrix(0.2867 -0.958 0.958 0.2867 -31.7441 835.3535)" class="st4" width="145.1" height="58.2"/>
	<g id="Group_11691_00000057844427791098739980000002318618447028834443_">
		<g id="Group_11689_00000121255017108151744200000003316691991425416110_">
			<g id="Group_3512_00000152252189385088312860000000164285151784235449_">
				<path id="Path_1347_00000054960547384819078970000017485043715587218358_" class="st18" d="M277.8,173.7v237.3
					c65.4,0,118.7-41.6,118.7-107S343.1,173.7,277.8,173.7z"/>
			</g>
			<g id="Group_3513_00000150099708392391043880000004927243323821270657_">
				<path id="Path_1348_00000071545109346267871500000005509630267809878418_" class="st3" d="M277.8,173.7
					c-65.3,0-118.6,64.6-118.6,130.3s53.3,107,118.6,107V173.7z"/>
			</g>
		</g>
		<g id="Group_11690_00000062159928059473950360000012417574207791771526_">
			<g id="Group_3515_00000044138067342648333210000007552576033029334442_">
				<path id="Path_1349_00000006681059620617366730000005366723009544298116_" class="st17" d="M310.7,260.8
					c-7.3-5.6-15.6-9.5-24.5-11.7v34.1c27.4,6.9,38.7,17.1,38.7,36.8l0,0c0,19.4-15.3,32.5-38.4,34.7v17.1h-15.4v-17.9
					c-15.5-1.3-30.3-7-42.6-16.4l11.3-17.1c8.8,8.1,19.6,13.6,31.3,15.9V301c-26.3-7-38.3-16.5-38.3-36.9l0,0
					c0-19.4,15.3-32.1,37.6-34.1v-10.2h15.7v10.7c12.2,1.3,23.8,5.9,33.6,13.3L310.7,260.8z M272.3,279.8v-31.7
					c-11.3,1.1-17.1,7-17.1,15l0,0C255.2,270.8,258.4,275.5,272.3,279.8L272.3,279.8z M286.2,304.6v32.9
					c11.3-1.1,17.9-6.9,17.9-15.3l0,0C304,313.4,300,308.7,286.2,304.6L286.2,304.6z"/>
			</g>
		</g>
	</g>
	<g id="Group_11699_00000113340951466551846830000010437562810249752481_">
		<path id="Path_3982_00000083772761795680859230000017941503780926658464_" class="st4" d="M333.1,158.5l55.7-25.6L277.9,90.3v81.5
			L333.1,158.5z"/>
		<path id="Path_3983_00000095306858940472960690000001207564843195586209_" class="st5" d="M225.4,158.5l-54.8-25.6l107.3-42.6
			v77.1L225.4,158.5z"/>
		<path id="Path_3984_00000146480392156519943930000002736504363938470805_" class="st5" d="M208.6,200l9.6-50
			c0,0,17.1-14.7,61.2-15.1l-1.4,45C277.9,179.9,249,180.1,208.6,200z"/>
		<path id="Path_3985_00000169539454362908525150000007216106531457490853_" class="st4" d="M347.5,200l-6.4-52.2
			c0,0-18.1-21.4-63.2-21.8v53.9C298.9,180.3,323.2,182.9,347.5,200z"/>
		<path id="Path_3986_00000114794862313441147860000016599734189299213219_" class="st10" d="M340.9,150l1.8,11
			c0,0-18.9-14.7-64-15.1v-11C323.5,135.2,340.9,150,340.9,150z"/>
		<path id="Path_3987_00000139987519057357587350000014775255807123040925_" class="st10" d="M279.6,134.9v11
			c-44.2,0-63.8,16-63.8,16l2.5-11.9C218.4,150,235.5,135.2,279.6,134.9z"/>
		<path id="Path_3988_00000092437719819957277340000012653182361236974491_" class="st1" d="M361.8,145.4c2.3,0,4.9,55.4,5.5,60.3
			c0.6,4.9-5.5,5.9-5.5,5.9s-6.7-1.2-5.9-5.9C356.8,201,359.4,145.6,361.8,145.4z"/>
		<path id="Path_3989_00000001636273479668177090000016754238693972078495_" class="st11" d="M356.4,142.7c0,3.2,2.6,5.8,5.8,5.8
			s5.8-2.6,5.8-5.8c0-3.2-2.6-5.8-5.8-5.8l0,0C359,136.9,356.4,139.5,356.4,142.7L356.4,142.7z"/>
	</g>
	<path class="st17" d="M538.1,373c0,0-89.4-26.2-132-26.2s-86.1,39.4-107.4,45.1s-174.7,9-182.1,9s-41,9-26.2,46.7l173,4.1
		c0,0-11.5,9-20.5,9c-9,0-77.9,0-77.9,0s58.2,32.8,100.9,45.1c42.6,12.3,43.5,18,102.5-4.1s86.9-28.7,106.6-23
		c19.7,5.7,27.9,10.7,27.9,10.7L538.1,373z"/>
</g>
</svg>
