<?xml version="1.0" encoding="utf-8"?>
<!-- Generator: Adobe Illustrator 27.8.1, SVG Export Plug-In . SVG Version: 6.00 Build 0)  -->
<svg version="1.1" id="Layer_1" xmlns="http://www.w3.org/2000/svg" xmlns:xlink="http://www.w3.org/1999/xlink" x="0px" y="0px"
	 viewBox="0 0 600 600" style="enable-background:new 0 0 600 600;" xml:space="preserve">
<style type="text/css">
	.st0{fill:#FDB07B;}
	.st1{fill:#ED780F;}
	.st2{fill:#03467C;}
	.st3{fill:#F2F2F2;}
	.st4{fill:#0F3D70;}
	.st5{fill:#1B68B2;}
	.st6{fill:#085696;}
	.st7{fill:#2484BA;}
	.st8{fill:#3B93D0;}
	.st9{fill:#257ABE;}
	.st10{fill:#003366;}
	.st11{fill:#E37B3D;}
	.st12{clip-path:url(#SVGID_00000013192874096745826490000016711583987219395500_);}
	.st13{fill:#E8F2F9;}
	.st14{fill:#C0D6E2;}
	.st15{fill:#E37B3D;stroke:#F2F2F2;stroke-width:9;stroke-miterlimit:10;}
	.st16{fill:#FFFFFF;}
	.st17{fill:#EA7923;}
	.st18{fill:#DCEBF8;}
	.st19{opacity:0.25;}
	.st20{fill:#FCC190;}
	.st21{fill:#2C4577;}
	.st22{fill:#F78B41;}
	.st23{fill:#7AB4E2;}
	.st24{opacity:0.4;fill:#DCEBF8;enable-background:new    ;}
	.st25{opacity:0.16;fill:#2B9BE0;enable-background:new    ;}
	.st26{clip-path:url(#SVGID_00000113315958655848338820000001551511365993798571_);}
	.st27{fill:#CFE6FA;}
	.st28{fill:#3D93D0;}
	.st29{fill:#E8F4FD;}
	.st30{opacity:0.23;fill:#FCC190;enable-background:new    ;}
	.st31{fill:#C65D17;}
	.st32{clip-path:url(#SVGID_00000102520689977895684340000000508768991285974462_);}
	.st33{fill:#125993;}
	.st34{opacity:0.23;fill:#EB7923;enable-background:new    ;}
	.st35{clip-path:url(#SVGID_00000058567126181804486690000007245172410823154071_);}
	.st36{fill:#FC993F;}
	.st37{opacity:0.15;}
	.st38{clip-path:url(#SVGID_00000156556952679691270550000012669343120567615368_);}
	.st39{fill:#F5A155;}
	.st40{opacity:0.2;}
	.st41{clip-path:url(#SVGID_00000179610914669075783750000013135912911229462449_);}
	.st42{clip-path:url(#SVGID_00000134251703229337637910000009503851382198416789_);}
	.st43{fill:#135EA5;}
	.st44{opacity:0.1;}
	.st45{clip-path:url(#SVGID_00000110433008177587578840000011966007262280121987_);}
	.st46{clip-path:url(#SVGID_00000155107898444931083170000001281988578097395866_);}
	.st47{clip-path:url(#SVGID_00000053504561009403291260000001027812568064251069_);}
	.st48{clip-path:url(#SVGID_00000010305125053739396300000012148366679252982438_);}
	.st49{clip-path:url(#SVGID_00000016766328361812167000000007521796143196929438_);}
	.st50{clip-path:url(#SVGID_00000103254100091263021590000013103716671598338749_);}
	.st51{clip-path:url(#SVGID_00000031177268835590338250000003826546459090369214_);}
	.st52{clip-path:url(#SVGID_00000002370459422753491950000018052647561440134828_);}
	.st53{clip-path:url(#SVGID_00000060025060139350976180000017916446255028190389_);}
	.st54{clip-path:url(#SVGID_00000024718711764392231830000011728678330003503791_);}
	.st55{clip-path:url(#SVGID_00000039132067129373401060000008228074313481353094_);}
	.st56{clip-path:url(#SVGID_00000002379839847206452040000004040267273066653880_);}
	.st57{fill:#FFD600;}
	.st58{clip-path:url(#SVGID_00000165950391379819277190000003751085936319331251_);}
	.st59{clip-path:url(#SVGID_00000014634599786473776540000010654401192049679531_);}
	.st60{clip-path:url(#SVGID_00000072966197457361098270000017160604393403093178_);}
	.st61{clip-path:url(#SVGID_00000156571464769641867850000003586113707807373460_);}
	.st62{clip-path:url(#SVGID_00000094600623749935023750000007820614886318845579_);}
	.st63{clip-path:url(#SVGID_00000026869132112232250870000006556131128890997404_);}
	.st64{clip-path:url(#SVGID_00000092419488038918989730000009606264022769375397_);}
	.st65{clip-path:url(#SVGID_00000047776701157378785370000000794893029596335270_);}
	.st66{clip-path:url(#SVGID_00000109715399535012861640000001333427164287433893_);}
	.st67{clip-path:url(#SVGID_00000098908492592897899700000007007006012804206516_);}
	.st68{clip-path:url(#SVGID_00000162337529388047688990000006614273265573131150_);}
	.st69{fill:#F9B373;}
	.st70{opacity:0.23;fill:#2B9BE0;enable-background:new    ;}
	.st71{clip-path:url(#SVGID_00000164482305790064685210000008852191585714367117_);}
	.st72{fill:#EB7923;}
	.st73{clip-path:url(#SVGID_00000144316190155336260730000006869119487168881060_);}
	.st74{fill:#C45800;}
	.st75{fill:#F4F5F8;}
	.st76{opacity:0.4;}
	.st77{fill:#CE5F13;}
	.st78{fill:#B5500B;}
	.st79{fill:#F7C194;}
	.st80{fill:none;stroke:#C45800;stroke-width:1.5;stroke-miterlimit:10;}
	.st81{fill:none;stroke:#E88C4D;stroke-width:1.5;stroke-miterlimit:10;}
	.st82{fill:#1A5387;}
	.st83{fill:#CCE5FA;}
	.st84{opacity:0.23;enable-background:new    ;}
	.st85{fill:#2B9BE0;}
	.st86{clip-path:url(#SVGID_00000165925067040183182230000014500433121020785540_);}
	.st87{fill:#F79842;}
	.st88{fill:none;stroke:#E88C4D;stroke-width:4;stroke-miterlimit:10;}
	.st89{fill:none;stroke:#C45800;stroke-width:4;stroke-miterlimit:10;}
	.st90{clip-path:url(#SVGID_00000159463239454513005580000011864795272245509039_);}
	.st91{clip-path:url(#SVGID_00000070115781951428453070000003202191483247394745_);}
</style>
<g>
	<g id="Group_8782">
		<path id="Rectangle_3510" class="st0" d="M138.4,438.7h344.8c1.7,0,3,1.3,3,3v31.4c0,1.7-1.3,3-3,3H138.4c-1.7,0-3-1.3-3-3v-31.4
			C135.4,440.4,136.7,438.7,138.4,438.7z"/>
		<path id="Rectangle_3511_00000015338607787375722530000012325516081720213915_" class="st1" d="M122.9,471h344.8c1.7,0,3,1.3,3,3
			v31.4c0,1.7-1.3,3-3,3H122.9c-1.7,0-3-1.3-3-3V474C119.9,472.2,121.2,471,122.9,471z"/>
		<path id="Rectangle_3512_00000133519871781398548560000012708730329976324249_" class="st0" d="M138.4,507.9h344.8
			c1.7,0,3,1.3,3,3v31.4c0,1.7-1.3,3-3,3H138.4c-1.7,0-3-1.3-3-3v-31.4C135.4,509.2,136.7,507.9,138.4,507.9z"/>
		<path id="Rectangle_3513" class="st1" d="M130.6,539.7h344.8c1.7,0,3,1.3,3,3v31.4c0,1.7-1.3,3-3,3H130.6c-1.7,0-3-1.3-3-3v-31.4
			C127.6,541,128.9,539.7,130.6,539.7z"/>
		<g id="Group_8780">
			<rect id="Rectangle_3514" x="237.3" y="432.7" class="st2" width="142.3" height="75.2"/>
		</g>
		<g id="Group_8781">
			<path id="Path_4683" class="st3" d="M339.1,497.6h-18.1l-0.4-8.6c-3-0.9-6.4-1.3-9.5-1.3c-3.9,0-10.3,1.3-10.3,6.4
				s5.2,6.4,12.5,7.3c14.6,1.3,30.5,6,30.5,24.1c0,13.8-11.2,21.5-24.5,23.6v9h-17.2v-8.6c-8.6-0.9-16.3-4.3-22.8-9.9v-18.9h18.5
				l0.4,8.6c4.3,1.7,8.6,2.1,12.9,2.6c6.9,0,12-2.6,12-6.9c0-4.3-4.3-5.6-12.5-6.4c-15-1.3-30.5-5.6-30.5-24.1
				c0-13.3,11.2-20.6,22.8-22.8v-9h17.2v8.6c7.3,1.3,13.8,3.9,19.8,8.6L339.1,497.6z"/>
		</g>
	</g>
	<g>
		<path id="Path_3982_00000025402691610667039300000001128486496567247286_" class="st4" d="M357.8,117.4l76.6-35.9L283,23.5
			l-0.6,111.9L357.8,117.4z"/>
		<path id="Path_3983_00000146483357953633308120000017242947637736934050_" class="st5" d="M209.7,117.4l-75.4-35.5L283,23.5v110.7
			L209.7,117.4z"/>
		<path id="Path_3984_00000111908930362583569540000009293731068367169167_" class="st5" d="M199.8,162.1v-56.7
			c0,0,23.6-20.4,84.2-20.8v66.7C284.4,151.3,225.3,153.3,199.8,162.1z"/>
		<path id="Path_3985_00000049909679454763921710000006412208357574401933_" class="st4" d="M368.4,161.5v-56.7
			c0,0-24-20.4-85.4-20.8v66.7C283,150.7,338.9,151.9,368.4,161.5z"/>
		<path id="Path_3986_00000062167407362448498180000008413962171515300252_" class="st6" d="M368.6,105.4v15.2
			c0,0-24.2-21.1-85.6-21.5V84C344.5,84.4,368.6,105.4,368.6,105.4z"/>
		<path id="Path_3987_00000088813108975524599370000011593526444242042044_" class="st7" d="M283,84v15
			c-60.7,0.4-82.8,21.5-82.8,21.5v-15.2C199.8,105.4,222.3,84.4,283,84z"/>
	</g>
	<g>
		<g id="Group_8779_1_">
			<g id="Group_8777_1_">
				<path id="Path_4679_1_" class="st8" d="M509.4,279.6L509.4,279.6c0-73.5-70.6-130.4-143.7-130.4l-166.6-0.1
					c-35.7,11.6-69.4,42.7-84.8,77.1c-3.4-1.3-6.9-2.1-10.3-2.1h-6c-13.8,0-25.4,11.2-25.8,25.8v34h436.4
					C509.4,282.2,509.4,280.9,509.4,279.6z"/>
				<path id="Path_4680_1_" class="st9" d="M98.8,339.4h6c4.3,0,8.2-1.3,11.6-3c16.3,34,46,60.2,82.5,70.9v21.5
					c0.4,12,10.7,21.9,23.2,21.5c11.2-0.4,21.1-9.5,21.5-21.5v-16.3h131.6V428c0.4,12,10.7,21.9,23.2,21.5
					c11.2-0.4,21.1-9.5,21.5-21.5v-23.2c52.5-18.1,88.1-66.6,89.9-121.7H73v30.1C73,327.8,84.2,339.4,98.8,339.4L98.8,339.4z"/>
			</g>
		</g>
		<g id="Group_8782_1_">
			<path id="Rectangle_3510_1_" class="st0" d="M140.1,439.6h349.5c1.7,0,3,1.3,3,3v31.8c0,1.7-1.3,3-3,3H140.1c-1.7,0-3-1.3-3-3
				v-31.8C137.1,441.3,138.4,439.6,140.1,439.6z"/>
			<path id="Rectangle_3511_1_" class="st1" d="M124.6,472.2h349.5c1.7,0,3,1.3,3,3v31.8c0,1.7-1.3,3-3,3H124.6c-1.7,0-3-1.3-3-3
				v-31.8C121.6,473.5,122.9,472.2,124.6,472.2z"/>
			<path id="Rectangle_3512_1_" class="st0" d="M140.1,509.6h349.5c1.7,0,3,1.3,3,3v31.8c0,1.7-1.3,3-3,3H140.1c-1.7,0-3-1.3-3-3
				v-31.8C137.1,510.9,138.4,509.6,140.1,509.6z"/>
			<path id="Rectangle_3513_1_" class="st1" d="M132.4,541.9h349.5c1.7,0,3,1.3,3,3v31.8c0,1.7-1.3,3-3,3H132.4c-1.7,0-3-1.3-3-3
				v-31.8C129.3,543.2,130.6,541.9,132.4,541.9z"/>
			<g id="Group_8780_1_">
				<rect id="Rectangle_3514_1_" x="240.3" y="433.5" class="st2" width="144.5" height="76.1"/>
				<rect id="Rectangle_3515_1_" x="240.3" y="509.6" class="st10" width="144.5" height="76.1"/>
			</g>
			<g id="Group_8781_1_">
				<path id="Path_4683_1_" class="st3" d="M343.9,499.3h-18.5l-0.4-8.6c-3-0.9-6.4-1.3-9.5-1.3c-3.9,0-10.3,1.3-10.3,6.4
					c0,5.2,5.2,6.4,12.5,7.3c14.6,1.3,31,6,31,24.5c0,13.8-11.2,21.9-24.9,24.1v9H306v-8.6c-8.6-0.9-16.8-4.3-23.2-9.9V523h18.9
					l0.4,8.6c4.3,1.7,8.6,2.1,12.9,2.6c6.9,0,12-2.6,12-6.9s-4.3-5.6-12.5-6.4c-15-1.3-31-5.6-31-24.5c0-13.3,11.2-21.1,23.2-23.2
					v-9h17.6v8.6c7.3,1.3,13.8,3.9,20.2,8.6L343.9,499.3z"/>
			</g>
		</g>
		<g id="Group_4" transform="translate(112.778 50.231)">
			<path id="Path_2" class="st8" d="M378.5,218.8c-1.7,0-3,0-4.7-0.4c-4.3-0.4-7.7-4.3-7.3-8.6s4.3-7.7,8.6-7.3h0.4
				c10.7,0.4,21.5-3,29.7-9.9c1.3-1.3,2.6-2.1,3.9-3.4c-6.9-4.3-12-10.7-14.2-18.5c-3.4-8.6-1.3-18.5,5.2-24.5
				c6-4.7,14.2-5.2,21.1-1.7c9,4.7,13.3,15,12.5,28.8c8.2-3.4,14.6-9,19.3-16.3c2.1-4.3,6.9-5.6,10.7-3.4c3.9,2.1,5.2,6.9,3,10.7
				c-8.6,14.2-23.2,24.5-39.6,27.1c-3,5.6-6.9,9.9-11.6,13.8C405.1,213.6,392.2,218.4,378.5,218.8z M411.1,158.6
				c-0.4,0-0.9,0-0.9,0.4c-0.9,0.4-1.3,3,0,6.9c0.9,3.9,3.4,6.9,6.9,8.6c0-0.4,0-0.4,0-0.9c0.9-8.6-1.7-13.3-4.3-14.6
				C412.4,158.6,412,158.6,411.1,158.6L411.1,158.6z"/>
		</g>
	</g>
	<path id="Path_3989_00000034085490527537279210000016248092284931613091_" class="st11" d="M172.5,89.2c0,4.4,3.6,8,8,8s8-3.6,8-8
		c0-4.4-3.6-8-8-8C176.1,81.2,172.5,84.8,172.5,89.2z"/>
	<path id="Path_3988_00000063623031937892817530000007551620126661851067_" class="st1" d="M180.1,92.8c3.2,0.4,6.8,76.2,7.6,83
		c1.2,6.8-7.6,8-7.6,8s-9.2-1.6-8-8C173.7,169.1,176.9,93.2,180.1,92.8z"/>
</g>
</svg>
