<svg xmlns="http://www.w3.org/2000/svg" width="88" height="80" viewBox="0 0 88 80">
    <g data-name="Group 45191">
        <g data-name="Group 45194">
            <g data-name="Group 45195">
                <path data-name="Path 41756" d="M39.066 0A35.268 35.268 0 0 0 3.9 35.293v7.943H1.954a1.954 1.954 0 0 0 0 3.908h58.424a1.954 1.954 0 0 0 0-3.908H7.8v-7.943a31.264 31.264 0 1 1 62.528 0v6.948a1.95 1.95 0 1 0 3.9 0v-6.948A35.268 35.268 0 0 0 39.066 0" transform="translate(6 17.792)" style="fill:#0f3d70"/>
                <path data-name="Path 41757" d="M66.03 23.207a1.954 1.954 0 0 0 1.391-3.652 27.509 27.509 0 0 0-36.882 21.134 1.954 1.954 0 0 0 3.853.657A23.6 23.6 0 0 1 66.03 23.207" transform="translate(-11.887 7.378)" style="fill:#0f3d70"/>
                <path data-name="Path 41758" d="M106.2 41.25a1.954 1.954 0 0 0-2.721-.485L88.864 50.949a7.864 7.864 0 1 0 1.91 3.432l14.939-10.41a1.954 1.954 0 0 0 .486-2.72m-22.92 18.94a3.866 3.866 0 1 1 3.843-3.866 3.86 3.86 0 0 1-3.843 3.866" transform="translate(-38.276 -5.899)" style="fill:#ed780f"/>
            </g>
        </g>
    </g>
</svg>
