<?xml version="1.0" encoding="utf-8"?>
<!-- Generator: Adobe Illustrator 25.2.1, SVG Export Plug-In . SVG Version: 6.00 Build 0)  -->
<svg version="1.1" id="Group_10217" xmlns="http://www.w3.org/2000/svg" xmlns:xlink="http://www.w3.org/1999/xlink" x="0px"
	 y="0px" viewBox="0 0 496 312" style="enable-background:new 0 0 496 312;" xml:space="preserve">
<style type="text/css">
	.st0{clip-path:url(#SVGID_2_);}
	.st1{fill:#DDDFE0;}
	.st2{clip-path:url(#SVGID_4_);}
	.st3{fill:none;stroke:#CED2D5;stroke-width:0.64;stroke-miterlimit:10;}
	.st4{clip-path:url(#SVGID_6_);}
	.st5{fill:#CED2D5;}
	.st6{fill:#231F20;}
	.st7{clip-path:url(#SVGID_8_);}
	.st8{clip-path:url(#SVGID_10_);}
	.st9{fill:#00AF9C;}
	.st10{clip-path:url(#SVGID_12_);}
	.st11{clip-path:url(#SVGID_17_);}
	.st12{clip-path:url(#SVGID_18_);}
	.st13{fill:url(#SVGID_19_);}
	.st14{fill:#414141;}
	.st15{clip-path:url(#SVGID_21_);}
	.st16{fill:#C7C7C7;}
</style>
<g id="Layer_7">
	<g>
		<g>
			<g>
				<g>
					<defs>
						<polygon id="SVGID_1_" points="501.3,-9.5 -11.5,-9.5 -11.5,14.6 -11.5,319.6 12.3,319.8 477.5,319.8 502,319.6 501.3,14.6 
													"/>
					</defs>
					<clipPath id="SVGID_2_">
						<use xlink:href="#SVGID_1_"  style="overflow:visible;"/>
					</clipPath>
					<g class="st0">
						<rect x="-31.5" y="-19.3" class="st1" width="536.9" height="368.9"/>
						<g>
							<g>
								<g>
									<g>
										<defs>
											<polygon id="SVGID_3_" points="-33.7,-22.5 -33.7,325.5 18,269.2 123,210.4 230,192 313.7,209 401.3,245.7 470.3,307.8 
												489,335 504.2,335 504.2,-22.5 											"/>
										</defs>
										<clipPath id="SVGID_4_">
											<use xlink:href="#SVGID_3_"  style="overflow:visible;"/>
										</clipPath>
										<g class="st2">
											<path class="st3" d="M-27.4-286.3C-67.7-434-27.4-592.2,78-701.4c-71.4-19-146.5-18.2-217.6,1.9
												c-223.8,63.1-354.9,299.4-293,527.5S-139,190,84.8,126.8c71.2-19.9,136-58.7,187.7-112.4
												C126.9-23.9,12.6-138.6-27.4-286.3z M-32.6-237.5c-76.2-132-77.5-295.5-3.5-428.7c-73.8,0.5-146.2,21-209.7,59.2
												C-446-486.9-512.8-224.1-395-20.2S-19.5,252,180.6,132c63.7-38.1,116.3-92.7,152.6-158.1C183-24.9,43.5-105.4-32.6-237.5
												z M335.6-30.3c-72.5,134.1-209.8,218.6-360,221.5c38,64.5,92.2,117.5,156.8,153.8c203.3,114.4,459.1,39.1,571.3-168.1
												s38.4-468-164.9-582.4c-64.6-36.5-137.4-54.8-211.2-53.3C405.1-327.7,408.2-164.4,335.6-30.3z M-14-180.2
												c-107.1-107.4-149.9-264.9-112.2-413.2c-71.1,20-135.9,58.8-187.6,112.6c-162.7,168.8-160.7,440.2,5,606.2
												s431.8,163.8,594.6-5c51.8-53.5,88.9-120.2,107.3-193C248.2-31.6,93-72.8-14-180.2z M26.3-118.2
												c-130.8-75.5-212-216.3-213.3-369.4c-63.7,38.1-116.3,92.7-152.6,158.2C-454-123.5-383,138.3-181,254.9
												s458.8,44.3,573.1-161.6c36.5-65.5,55.4-139.6,54.7-214.8C317.4-44,157-42.6,26.3-118.2z M72.2-57.6
												C-73.1-95.9-187.5-210.5-227.5-358.2c-51.8,53.5-88.8,120.2-107.2,193.1C-392.9,64.1-258,298.1-33.2,357.4
												S421,279.2,479.3,49.9c18.6-72.8,18-149.4-1.8-221.9C372.3-62.6,217.7-19.1,72.2-57.6z M120.9-2.9
												C-29.3-1.5-168.9-82-245-214.1c-36.5,65.5-55.3,139.6-54.6,214.7c2,236.7,191.7,427,423.9,425.1s418.9-195.4,417-432.2
												c-0.5-75.3-20.5-149-58-213.9C409.3-86.9,271-4,120.9-2.9L120.9-2.9z M170.4,28.2c-144.9,41-300,0-407.2-107.5
												c-18.6,72.8-17.9,149.4,1.9,221.9c62,228.1,293.6,361.9,517.5,298.7s355-299.3,293-527.5
												c-19.5-72.5-57.6-138.5-110.3-191.2C427.7-129.1,315.2-12.7,170.4,28.2L170.4,28.2z M464.1-280.2
												C572.4-174,616.9-17,580.8,131.6C651.7,110.9,716,71.3,767.1,17c161-170.7,155.8-442-11.5-606.1S322.1-748,161.1-577.4
												c-51.3,54.2-87.6,121.2-105.3,194.3C200.2-425.7,355.9-386.4,464.1-280.2z M218.2,33.5c-129.4,77.8-289.8,79.2-420.5,3.6
												c0.5,75.3,20.6,149,58.1,213.8C-26.3,454.9,231.3,523,431.4,403s267-382.9,149.2-587c-37.3-64.9-90.9-118.6-155.1-155.6
												C426.8-186.4,347.8-44.1,218.2,33.5z M423.7-341.9C555.2-268,638.1-128,640.9,25.2c63.3-38.8,115.3-94,150.9-159.9
												C904.1-342,830.2-602.7,627-717.2S167.7-756.2,55.5-549C19.8-483.1,1.7-408.8,3.3-333.6
												C131.9-412.8,292.1-416,423.7-341.9z M-27.4-286.3C-67.7-434-27.4-592.2,78-701.4c-71.4-19-146.5-18.2-217.6,1.9
												c-223.8,63.1-354.9,299.4-293,527.5S-139,190,84.8,126.8c71.2-19.9,136-58.7,187.7-112.4
												C126.9-23.9,12.6-138.6-27.4-286.3z M274.6,12.2C170.4,122.6,16.5,168-129.4,131.1c20.4,72.4,59.2,137.9,112.5,190
												C150.5,485.2,416.6,480,577.6,309.4s155.8-442-11.5-606.1C513-349,447.3-386,375.6-403.9
												C417.3-256.8,378.8-98.2,274.6,12.2z M-32.6-237.5c-76.2-132-77.5-295.5-3.5-428.7c-73.8,0.5-146.2,21-209.7,59.2
												C-446-486.9-512.8-224.1-395-20.2S-19.5,252,180.6,132c63.7-38.1,116.3-92.7,152.6-158.1C183-24.9,43.5-105.4-32.6-237.5
												z M-14.1-180.2C-121.2-287.6-164-445.1-126.3-593.4c-71.1,20-135.9,58.8-187.6,112.6c-162.7,168.8-160.7,440.2,5,606.2
												s431.8,163.8,594.6-5C337.5,66.9,374.6,0.3,393-72.5C248.2-31.6,93-72.8-14.1-180.2L-14.1-180.2z M394.8-77.3
												c-36.1,148.7-147.2,266.5-291.6,309c53.1,52.2,118.9,89.2,190.6,107.1c225.4,56.8,453.4-83.3,509.1-313.2
												c55.7-229.9-81.8-462.2-307.1-519c-71.7-18.1-146.7-16.7-217.6,4.3C386.4-383,430.9-225.9,394.8-77.3z M26.3-118.2
												c-130.8-75.5-212-216.3-213.3-369.4c-63.7,38.1-116.3,92.7-152.6,158.2C-454-123.5-383,138.3-181,254.9
												s458.8,44.3,573.1-161.6c36.5-65.5,55.4-139.6,54.7-214.8C317.4-44,157-42.6,26.3-118.2z M446.1-126.3
												c3,153.2-74.5,296.2-203.2,375.4c64.6,36.5,137.5,54.8,211.2,53.2c232.2-4.5,416.8-200.2,412.2-436.8
												S670.1-559.4,437.9-554.9c-73.8,1.4-146,22.6-209.2,61.5C360.4-419.3,443.3-279.5,446.1-126.3z M72.2-57.6
												C-73.1-95.9-187.5-210.5-227.5-358.2c-51.8,53.5-88.8,120.2-107.2,193.1C-392.9,64.1-258,298.1-33.2,357.4
												S421,279.2,479.3,49.9c18.6-72.8,18-149.4-1.8-221.9C372.3-62.6,217.7-19.1,72.2-57.6z M474.7-174.9
												c41.8,147.1,3.2,305.8-100.9,416.2c71.7,18.1,146.7,16.7,217.6-4.3c223.1-65.8,351.7-303.4,287.3-530.8
												S581.1-652.4,358-586.7c-70.9,20.8-135.2,60.3-186.4,114.6C317.6-435.5,433.1-322,474.7-174.9z M120.8-2.9
												C-29.4-1.5-169-82-245.1-214.1c-36.4,65.5-55.2,139.6-54.5,214.7c2,236.7,191.7,427,423.9,425.1s418.9-195.4,417-432.2
												c-0.5-75.3-20.5-149-58-213.9C409.3-86.9,271-4,120.8-2.9z M480.5-223.2c77.6,131.1,80.7,294.5,8.1,428.6
												c73.8-1.4,145.9-22.7,209.1-61.7C896.5,21.5,960.4-242,840.4-444.6S462-712.6,263.3-590.2
												c-63.3,38.8-115.4,93.9-151,159.8C262.6-433.4,402.9-354.4,480.5-223.2z M118.4-431.7C192-565.3,330-648.5,480.3-650.2
												c-37.5-64.8-91.2-118.4-155.6-155.2c-202.4-116-458.7-42.7-572.6,163.5S-290.1-174.2-87.6-58.1c64.3,37,137,56,210.7,55
												C46.6-134.8,44.8-298.2,118.4-431.7z M170.4,28.2c-144.7,40.9-299.9-0.1-407-107.5c-18.6,72.8-17.9,149.4,1.9,221.9
												c61.9,228.1,293.5,361.9,517.4,298.7S637.6,142,575.6-86.2c-19.5-72.5-57.6-138.5-110.3-191.2
												C427.7-129.1,315.2-12.7,170.4,28.2z M464.1-280.2C572.4-174,616.9-17,580.8,131.6C651.7,110.9,716,71.3,767.1,17
												c161-170.7,155.8-442-11.5-606.1S322.1-748,161.1-577.4c-51.3,54.2-87.6,121.2-105.3,194.3
												C200.2-425.7,355.9-386.4,464.1-280.2z M60.3-385.6c37.2-148.4,149.3-265.3,294-306.5c-52.7-52.7-118.2-90.1-189.7-108.8
												c-225-58.7-454,79.6-511.6,309S-268.9-29.1-44,29.7c71.4,18.8,146.5,18,217.5-2.3C66.2-79.8,23-237.3,60.3-385.6z
												 M218.2,33.5c-129.4,77.8-289.8,79.2-420.5,3.6c0.5,75.3,20.6,149,58.1,213.8C-26.3,454.9,231.3,523,431.4,403
												s267-382.9,149.2-587c-37.3-64.9-90.9-118.6-155.1-155.6C426.8-186.4,347.8-44.1,218.2,33.5z M423.7-341.9
												C555.2-268,638.1-128,640.9,25.2c63.3-38.8,115.3-94,150.9-159.9C904.1-342,830.2-602.7,627-717.2S167.7-756.2,55.5-549
												C19.8-483.1,1.7-408.8,3.3-333.6C131.9-412.8,292.1-416,423.7-341.9z M6.2-336.8C4.4-490,83.1-632.5,212.3-710.5
												c-64.3-37-137-56-210.8-55c-232.2,2.7-418.3,196.7-415.7,433.4c2.6,236.7,192.9,426.5,425,424
												c73.8-0.8,146.1-21.4,209.6-59.8C89.5-43,7.8-183.6,6.2-336.8z"/>
										</g>
									</g>
								</g>
							</g>
						</g>
						<g>
							<g>
								<g>
									<g>
										<defs>
											<rect id="SVGID_5_" x="-32.6" y="-30.7" width="537.8" height="357.4"/>
										</defs>
										<clipPath id="SVGID_6_">
											<use xlink:href="#SVGID_5_"  style="overflow:visible;"/>
										</clipPath>
										<g class="st4">
											<path class="st5" d="M563.9,517.5c0-178.9-134.9-326.2-306.7-341.6c-9.8-1.4-29.6-2.7-58,0
												c-94.6,8.2-181.6,56.7-239.3,133.7l-0.2-0.2l-6.2,8.7l-6.1,8.7l0.3,0.2c-37.1,56.3-56.9,122.6-56.8,190.4
												c0,178.9,135,326.2,306.7,341.6c19.9,2.8,39.9,2.8,59.8,0C428.8,843.9,563.9,696.5,563.9,517.5 M381.7,771h-47
												c13.4-27.1,24.6-59.3,33-95.6H446C430.4,711.1,408.7,743.5,381.7,771 M8.9,675.4h78.3c8.5,36.2,19.6,68.5,33.1,95.6H72.8
												C46,743.4,24.4,711.1,8.9,675.4 M-87.6,528.4h43.2c0.9,42.7,8.5,85.1,22.1,125.4h-35.8
												C-76.3,614.5-86.3,571.8-87.6,528.4 M12.3,352.1c15.1-32.8,35.7-62.5,60.9-88h47.1c-11.2,23.1-20.2,47.1-26.9,71.9h-0.1
												l-2.7,10.4l-2.7,10.4h0.2c-0.2,0.9-0.5,1.9-0.7,2.8H9C10.1,357.2,11.1,354.7,12.3,352.1 M445.7,359.7h-78.3
												c-8.4-36.2-19.5-68.5-33-95.6h47.1C408.7,291.7,430.4,324.1,445.7,359.7 M542.3,506.8H499c-0.9-42.7-8.4-85-22.1-125.3
												h36c18.1,39.3,28.2,81.9,29.6,125.3 M477.8,506.8h-93.3c-0.4-42.1-4.5-84-12.3-125.3h82.2
												C468.9,421.6,476.8,464,477.8,506.8 M111.1,352c7.5-30.6,18.7-60.1,33.3-87.8h72.5v95.6H109.3
												C109.9,357.1,110.4,354.5,111.1,352 M132.1,242.4H97.8c18.1-14.2,38.2-25.6,59.6-33.8C147.7,219,139.2,230.3,132.1,242.4
												 M216.7,196.7v45.9h-59C175.8,216.8,196,200.9,216.7,196.7 M238,242.4v-45.9c21.4,4.1,41.5,20.3,58.9,45.9H238z
												 M310,264.1c14.1,26.2,26.2,58.7,35.2,95.6H238v-95.6H310L310,264.1z M216.8,381.5v125.3H91.6
												c0.4-42.1,4.8-84.1,12.9-125.3H216.8z M216.8,528.4v125.4h-112c-8.3-41.3-12.6-83.3-13-125.4H216.8z M216.8,675.4V771
												h-72.2c-14.2-26.2-26.2-58.6-35.3-95.6H216.8z M216.8,792.8v45.9c-21.3-4.1-41.4-20.3-59-45.9H216.8z M238,792.8h58.9
												c-17.6,25.5-37.6,41.7-58.9,45.9V792.8z M238,771v-95.6h107.2c-9,36.9-21.1,69.5-35.2,95.6H238z M238,653.8V528.4h125.3
												c-0.5,42.2-4.9,84.1-13,125.4L238,653.8L238,653.8z M238,506.8V381.5h112.2c8.2,41.3,12.5,83.3,13,125.3H238z
												 M322.7,242.4c-7.4-12.3-16-23.8-25.7-34.4c21.8,8.2,42.3,19.8,60.7,34.3L322.7,242.4z M82.8,381.5
												c-7.9,41.3-12,83.3-12.5,125.3H-23c1-42.8,8.9-85.2,23.3-125.3H82.8z M-44.3,506.8h-43.2c1.3-43.4,11.4-86,29.5-125.3h36
												c-13.6,40.4-21.1,82.6-22,125.3 M-23,528.3h93.3c0.4,42.2,4.5,84.1,12.3,125.5H0.3C-14.2,613.6-22.1,571.2-23,528.3
												 M132,792.8c7.3,12.3,16,23.7,25.7,34.2c-21.8-8.2-42.2-19.7-60.6-34.2H132z M322.7,792.8h34.8
												c-18.4,14.4-38.9,26-60.7,34.2C306.7,816.5,315.3,805,322.7,792.8 M372.2,653.8c7.8-41.3,11.9-83.3,12.3-125.4h93.3
												c-0.9,42.8-8.8,85.2-23.3,125.4H372.2z M499,528.4h43.3c-1.3,43.4-11.5,86.1-29.6,125.4h-36
												c13.8-40.4,21.2-82.6,22.1-125.4 M501.8,359.7h-33.2c-14.1-34.9-33.5-67.1-57.8-95.6H421c32.9,26.1,60.3,58.6,81,95.6
												 M390.2,242.4L390.2,242.4 M33.7,264.1H44c-18.1,20.9-33.6,44.1-46,69h-0.3l-4.5,9.8l-4.7,9.8l0.3,0.1
												c-0.9,2.3-2.1,4.5-3,7h-33c5.5-10,11.5-19.6,17.9-29C-11.5,305.6,9.7,283.1,33.7,264.1 M-47.2,675.4H-14
												c14.1,34.9,33.6,67.1,57.9,95.6H33.8C0.9,744.9-26.6,712.4-47.2,675.4 M64.5,792.8L64.5,792.8 M390.2,792.8L390.2,792.8
												 M421,771h-10.1c24.3-28.5,43.8-60.7,57.9-95.6H502C481.3,712.3,453.8,744.9,421,771"/>
										</g>
									</g>
								</g>
							</g>
						</g>
					</g>
				</g>
			</g>
		</g>
	</g>
</g>
<path class="st6" d="M345.8,44.5h13v3.8h-7.9v4.6h7.3v3.7h-7.3V64h-5.1V44.5z"/>
<path class="st6" d="M360.1,44.5h13.7v3.7h-8.7v4.1h8.2V56h-8.2v4.1h8.9V64h-13.9V44.5z"/>
<path class="st6" d="M375.5,44.5h7.7c2.4-0.2,4.9,0.4,7,1.6c2.4,2,3.7,5.1,3.5,8.2c0,4.3-1.3,7.5-5,9.1c-1.7,0.6-3.6,0.8-5.4,0.8
	h-7.8L375.5,44.5L375.5,44.5z M380.7,60.3h2.2c3.4,0,5.5-1.6,5.5-6.1c0-5.9-4.1-5.9-5.7-5.9h-2V60.3z"/>
<path class="st6" d="M394.9,44.5h13.7v3.7h-8.7v4.1h8.2V56h-8.2v4.1h9V64H395L394.9,44.5z"/>
<path class="st6" d="M410.2,44.5h8.5c3.3,0,4.5,0.2,5.6,1.4c0.9,1,1.4,2.4,1.3,3.8c0.2,1.4-0.5,2.8-1.7,3.6c-0.8,0.5-1.8,0.9-2.8,1
	v0.1c3.5,0.1,3.7,1.8,4.1,4.8c0.2,1.6,0.5,3.2,0.9,4.8h-5.5c-0.3-1.5-0.5-2.9-0.6-4.4c-0.2-2.4-0.3-3.2-2.6-3.2h-2V64h-5.1
	L410.2,44.5z M415.3,52.8h1.8c0.7,0.1,1.4,0,2-0.2c0.9-0.4,1.4-1.3,1.3-2.2c0-2.4-2-2.4-3.4-2.4h-1.9L415.3,52.8z"/>
<path class="st6" d="M433.7,44.5h6.1L447,64h-5.7l-1.3-3.9h-7.3l-1.2,3.9h-5.1L433.7,44.5z M438.9,56.5l-2.4-8.2l0,0l-2.5,8.2H438.9
	z"/>
<path class="st6" d="M447.6,44.5h5.2v15.7h8.2V64h-13.4L447.6,44.5z"/>
<path class="st6" d="M345.8,22.8h7l6.1,14.6V22.8h4.4v19.5h-6.8l-6.3-15.2v15.2h-4.5L345.8,22.8z"/>
<path class="st6" d="M371.9,22.8h6.1l7.2,19.5h-5.7l-1.3-3.9h-7.3l-1.2,3.9h-5.1L371.9,22.8z M377.2,34.9l-2.4-8.2l0,0l-2.5,8.2
	H377.2z"/>
<path class="st6" d="M381.5,22.8h5.6l4.1,14.2l4.4-14.2h5.1L394,42.3h-6.1L381.5,22.8z"/>
<path class="st6" d="M406.4,22.8l4.1,8.2l4.1-8.2h5.2l-7.1,12.6v6.9h-5.1v-7.2l-7-12.4L406.4,22.8z"/>
<rect x="345.8" y="66.3" class="st6" width="115.2" height="5.1"/>
<path class="st6" d="M447.9,31.2c0-5.9-4.5-10.8-10.4-11.3c-0.3,0-0.7,0-1,0s-0.6,0-1,0c-3.2,0.3-6.2,1.9-8.2,4.4l0,0l-0.2,0.3
	l-0.2,0.3l0,0c-3.5,5.2-2.2,12.3,3,15.8c1.6,1.1,3.5,1.8,5.5,1.9c0.7,0.1,1.4,0.1,2,0C443.5,42.2,448,37.2,447.9,31.2z M441.8,39.7
	h-1.6c0.5-1,0.9-2.1,1.1-3.2h2.7C443.4,37.7,442.7,38.7,441.8,39.7L441.8,39.7z M429.1,36.6h2.7c0.2,1.1,0.6,2.2,1.1,3.2h-1.5
	C430.5,38.8,429.7,37.7,429.1,36.6z M425.9,31.7h1.4c0,1.4,0.3,2.8,0.8,4.1h-1.2C426.3,34.5,425.9,33,425.9,31.7L425.9,31.7z
	 M429.4,25.8c0.5-1.1,1.2-2.1,2-2.9h1.6c-0.4,0.8-0.7,1.6-0.9,2.4l0,0v0.3l-0.1,0.3l0,0V26h-2.7L429.4,25.8z M444,26h-2.7
	c-0.2-1.1-0.6-2.2-1.1-3.2h1.6c0.9,0.9,1.6,2,2.1,3.2H444z M447.3,30.9h-1.6c0-1.4-0.3-2.8-0.8-4.1h1.2c0.6,1.3,1,2.7,1,4.1H447.3z
	 M445.1,30.9H442c0-1.4-0.2-2.7-0.4-4.1h2.8C444.8,28.1,445.1,29.5,445.1,30.9L445.1,30.9z M432.7,25.7c0.2-1,0.6-2,1.1-2.9h2.4V26
	h-3.6c0-0.1,0-0.2,0-0.3H432.7z M433.4,22.1h-1.2c0.6-0.5,1.3-0.8,2-1.1c-0.4,0.3-0.7,0.7-1,1.1H433.4z M436.3,20.6v1.5h-2
	c0.4-0.7,1.1-1.3,1.9-1.5H436.3z M437,22.1v-1.5c0.9,0.2,1.6,0.8,2,1.5H437z M439.4,22.8c0.5,1,0.9,2.1,1.2,3.2H437v-3.2H439.4z
	 M436.3,26.7v4.1H432c0-1.4,0.2-2.7,0.4-4.1H436.3z M436.3,31.6v4.1h-3.8c-0.3-1.3-0.4-2.7-0.4-4.1H436.3z M436.3,36.5v3.2h-2.4
	c-0.5-1-0.9-2.1-1.2-3.2H436.3z M436.3,40.4v1.5c-0.9-0.2-1.6-0.8-2-1.5H436.3z M437,40.4h2c-0.5,0.8-1.2,1.3-2,1.5V40.4z M437,39.7
	v-3.1h3.6c-0.3,1.1-0.7,2.2-1.2,3.2L437,39.7z M437,35.8v-4.1h4.2c0,1.4-0.2,2.7-0.4,4.1H437z M437,30.9v-4.1h3.8
	c0.3,1.3,0.4,2.7,0.4,4.1H437z M439.9,22.1c-0.2-0.4-0.5-0.8-0.9-1.1c0.7,0.3,1.4,0.7,2,1.1H439.9z M431.7,26.7
	c-0.3,1.3-0.4,2.7-0.4,4.1h-3.2c0.1-1.4,0.3-2.8,0.8-4.1H431.7z M427.4,30.8h-1.5c0.1-1.4,0.4-2.8,1-4.1h1.2
	C427.6,28.1,427.4,29.5,427.4,30.8L427.4,30.8z M428.1,31.5h3.2c0,1.4,0.2,2.7,0.4,4.1h-2.8C428.4,34.3,428.1,33,428.1,31.5
	L428.1,31.5z M433.4,40.3c0.3,0.4,0.5,0.8,0.9,1.1c-0.7-0.3-1.4-0.7-2-1.1H433.4z M439.8,40.3h1.2c-0.6,0.5-1.3,0.9-2,1.1
	C439.3,41.1,439.5,40.8,439.8,40.3L439.8,40.3z M441.5,35.7c0.3-1.3,0.4-2.7,0.4-4.1h3.2c0,1.4-0.3,2.8-0.8,4.1H441.5z M445.8,31.6
	h1.5c-0.1,1.4-0.4,2.8-1,4.1H445C445.5,34.4,445.7,33,445.8,31.6L445.8,31.6z M445.9,26h-1.1c-0.5-1.2-1.2-2.2-2-3.2h0.3
	C444.2,23.7,445.1,24.8,445.9,26L445.9,26z M430,22.8h0.3c-0.6,0.7-1.1,1.5-1.6,2.3l0,0l-0.2,0.3l-0.1,0.3l0,0
	c0,0.1-0.1,0.1-0.1,0.2h-1.1c0.2-0.3,0.4-0.7,0.6-1C428.5,24.2,429.2,23.5,430,22.8L430,22.8z M427.3,36.6h1.1
	c0.5,1.2,1.2,2.2,2,3.2h-0.3C429,38.9,428,37.8,427.3,36.6z M443.2,39.7h-0.3c0.8-0.9,1.5-2,2-3.2h1.1
	C445.3,37.8,444.3,38.8,443.2,39.7L443.2,39.7z"/>
<path class="st6" d="M466.2,66.3c1.4,0,2.6,1.1,2.6,2.6c0,1.4-1.1,2.6-2.6,2.6c-1.4,0-2.6-1.1-2.6-2.6l0,0
	C463.6,67.4,464.7,66.3,466.2,66.3C466.1,66.3,466.2,66.3,466.2,66.3z M466.2,66.7c-1.2-0.1-2.3,0.8-2.4,2s0.8,2.3,2,2.4
	s2.3-0.8,2.4-2c0-0.1,0-0.1,0-0.2c0.1-1.1-0.7-2.1-1.9-2.2C466.3,66.7,466.2,66.7,466.2,66.7z M465.7,70.4h-0.5v-2.9
	c0.3,0,0.5,0,0.8,0s0.6,0.1,0.9,0.2c0.2,0.1,0.3,0.4,0.3,0.6c0,0.3-0.2,0.6-0.6,0.7l0,0c0.2,0,0.4,0.3,0.5,0.7
	c0,0.2,0.1,0.5,0.2,0.7h-0.5c-0.1-0.2-0.2-0.5-0.2-0.7c0-0.3-0.3-0.5-0.5-0.5c0,0,0,0-0.1,0h-0.3L465.7,70.4z M465.7,68.8h0.3
	c0.4,0,0.7-0.1,0.7-0.5s-0.2-0.5-0.7-0.5h-0.3V68.8z"/>
<path class="st6" d="M350.2,74h0.9c0.3,0,0.6,0,0.9,0s0.6,0.1,0.9,0.1c0.2,0,0.5,0.1,0.7,0.3c0.4,0.3,0.8,0.6,1,1
	c0.3,0.5,0.4,1,0.4,1.6s-0.2,1.2-0.5,1.7s-0.8,0.9-1.4,1.1l0,0c0.7,0.1,1.3,0.5,1.8,1c0.4,0.6,0.7,1.3,0.6,2c0,0.5-0.1,0.9-0.2,1.3
	c-0.2,0.4-0.4,0.8-0.7,1.1c-0.3,0.4-0.7,0.6-1.2,0.8c-0.5,0.2-1.1,0.3-1.6,0.3h-6.1V74H350.2z M350.6,79.4c0.7,0.1,1.4-0.1,2-0.5
	c0.4-0.4,0.7-0.9,0.6-1.5c0-0.4-0.1-0.7-0.2-1c-0.1-0.2-0.3-0.5-0.6-0.6c-0.3-0.2-0.5-0.3-0.8-0.3s-0.7,0-1,0h-3.3v4L350.6,79.4z
	 M351.4,85.1c0.6,0,1.3-0.2,1.7-0.6c0.6-0.7,0.8-1.8,0.4-2.7c-0.1-0.3-0.4-0.5-0.6-0.6c-0.3-0.2-0.6-0.3-0.9-0.3s-0.7,0-1,0h-3.8
	v4.3L351.4,85.1z"/>
<path class="st6" d="M362.3,86.5v-1.4l0,0c-0.3,0.5-0.7,0.9-1.2,1.2c-0.5,0.3-1.1,0.4-1.7,0.4c-0.5,0-1-0.1-1.5-0.2
	c-0.4-0.1-0.7-0.4-1-0.7c-0.2-0.3-0.4-0.7-0.5-1c-0.1-0.4-0.2-0.9-0.1-1.3v-5.9h1.5v6.1c-0.1,0.9,0.6,1.7,1.6,1.8c0.1,0,0.2,0,0.3,0
	c0.4,0,0.8-0.1,1.2-0.2c0.3-0.1,0.6-0.3,0.8-0.6c0.2-0.3,0.4-0.6,0.5-0.9c0.1-0.4,0.2-0.7,0.2-1.1v-5.1h1.5v9.1h-1.6L362.3,86.5
	L362.3,86.5z"/>
<path class="st6" d="M366.2,84.5c0.1,0.2,0.3,0.4,0.6,0.5c0.2,0.1,0.5,0.3,0.8,0.3s0.6,0,0.9,0h0.7c0.2,0,0.5-0.1,0.7-0.2
	s0.4-0.2,0.5-0.4c0.1-0.2,0.2-0.4,0.2-0.7c0-0.3-0.1-0.7-0.4-0.9c-0.3-0.2-0.7-0.4-1.1-0.5s-0.9-0.2-1.4-0.3c-0.5-0.1-1-0.2-1.4-0.4
	c-0.4-0.2-0.8-0.4-1.1-0.8c-0.3-0.4-0.5-0.9-0.4-1.4c0-0.4,0.1-0.8,0.3-1.2c0.2-0.3,0.5-0.6,0.8-0.8c0.3-0.2,0.7-0.4,1.1-0.4
	c0.4-0.1,0.8-0.2,1.2-0.2c0.5,0,0.9,0.1,1.4,0.1c0.4,0.1,0.8,0.2,1.1,0.4c0.3,0.2,0.6,0.5,0.8,0.9c0.2,0.4,0.3,0.9,0.3,1.4h-1.5
	c0-0.3-0.1-0.5-0.2-0.7s-0.3-0.4-0.5-0.5s-0.4-0.2-0.7-0.2c-0.2,0-0.5,0-0.7,0h-0.7c-0.2,0-0.4,0.1-0.6,0.2s-0.3,0.2-0.4,0.3
	c-0.1,0.2-0.2,0.4-0.2,0.6s0.1,0.5,0.3,0.7c0.2,0.2,0.4,0.3,0.7,0.4c0.3,0.1,0.6,0.2,0.9,0.3l1,0.2c0.4,0.1,0.7,0.2,1.1,0.3
	c0.3,0.1,0.7,0.3,0.9,0.5c0.3,0.2,0.5,0.4,0.7,0.7c0.2,0.3,0.3,0.7,0.2,1.1c0,0.5-0.1,1-0.3,1.4c-0.2,0.4-0.5,0.7-0.9,0.9
	c-0.4,0.2-0.8,0.4-1.2,0.5c-0.5,0.1-0.9,0.1-1.4,0.1s-1,0-1.5-0.1c-0.4-0.1-0.8-0.3-1.2-0.5c-0.4-0.2-0.6-0.6-0.8-0.9
	c-0.2-0.4-0.3-0.9-0.3-1.4h1.5C366,84,366.1,84.2,366.2,84.5z"/>
<path class="st6" d="M373.1,75.8V74h1.5v1.8H373.1z M374.6,77.4v9.1h-1.5v-9.1H374.6z"/>
<path class="st6" d="M377.5,77.4v1.4l0,0c0.6-1.1,1.7-1.7,2.9-1.7c0.5,0,1,0.1,1.5,0.2c0.4,0.2,0.7,0.4,1,0.7c0.3,0.3,0.4,0.7,0.5,1
	c0.1,0.4,0.2,0.9,0.2,1.3v6H382v-6.1c0-0.5-0.2-1-0.5-1.3c-0.4-0.3-0.9-0.5-1.3-0.5s-0.8,0.1-1.2,0.2c-0.3,0.1-0.6,0.3-0.8,0.6
	c-0.2,0.3-0.4,0.6-0.5,0.9c-0.1,0.4-0.2,0.8-0.2,1.1v5.1H376v-9.1h1.5V77.4z"/>
<path class="st6" d="M391,85.9c-0.7,0.5-1.6,0.8-2.6,0.8c-0.7,0-1.3-0.1-1.9-0.3c-0.5-0.2-1-0.6-1.3-1c-0.4-0.4-0.7-1-0.8-1.5
	c-0.2-0.6-0.3-1.3-0.3-1.9s0.1-1.3,0.3-1.9c0.2-0.5,0.5-1,0.9-1.5c0.4-0.4,0.8-0.8,1.3-1s1.1-0.4,1.7-0.4c0.7,0,1.4,0.1,2,0.5
	c0.5,0.3,1,0.8,1.3,1.3s0.6,1.1,0.7,1.7s0.2,1.2,0.1,1.7h-6.8c0,0.4,0,0.8,0.1,1.1c0.1,0.4,0.3,0.7,0.5,1s0.6,0.5,0.9,0.7
	c0.4,0.2,0.8,0.3,1.3,0.2c0.6,0,1.1-0.1,1.6-0.4c0.4-0.3,0.7-0.8,0.8-1.3h1.5C392.2,84.5,391.8,85.4,391,85.9z M390.7,80.1
	c-0.1-0.3-0.3-0.6-0.5-0.8c-0.2-0.2-0.5-0.4-0.8-0.5s-0.7-0.2-1-0.2c-0.4,0-0.7,0.1-1,0.2s-0.6,0.3-0.8,0.6
	c-0.2,0.2-0.4,0.5-0.5,0.8s-0.2,0.7-0.2,1h5.2C390.9,80.8,390.8,80.4,390.7,80.1z"/>
<path class="st6" d="M394.6,84.5c0.1,0.2,0.3,0.4,0.6,0.5c0.2,0.1,0.5,0.3,0.8,0.3s0.6,0,0.9,0h0.7c0.2,0,0.5-0.1,0.7-0.2
	s0.4-0.2,0.5-0.4c0.1-0.2,0.2-0.4,0.2-0.7c0-0.3-0.1-0.7-0.4-0.9c-0.3-0.2-0.7-0.4-1.1-0.5s-0.9-0.2-1.4-0.3c-0.5-0.1-1-0.2-1.4-0.4
	c-0.4-0.2-0.8-0.4-1.1-0.8c-0.3-0.4-0.5-0.9-0.4-1.4c0-0.4,0.1-0.8,0.3-1.2c0.2-0.3,0.5-0.6,0.8-0.8c0.3-0.2,0.7-0.4,1.1-0.4
	c0.4-0.1,0.8-0.2,1.2-0.2c0.5,0,0.9,0.1,1.4,0.1c0.4,0.1,0.8,0.2,1.1,0.4c0.3,0.2,0.6,0.5,0.8,0.9c0.2,0.4,0.3,0.9,0.4,1.4h-1.5
	c0-0.3-0.1-0.5-0.2-0.7s-0.3-0.3-0.5-0.5c-0.2-0.1-0.4-0.2-0.7-0.2c-0.2,0-0.5,0-0.7,0H396c-0.2,0-0.4,0.1-0.6,0.2s-0.3,0.2-0.4,0.3
	c-0.1,0.2-0.2,0.4-0.2,0.6s0.1,0.5,0.3,0.7c0.2,0.2,0.4,0.3,0.7,0.4c0.3,0.1,0.6,0.2,0.9,0.3l1,0.2c0.4,0.1,0.7,0.1,1.1,0.2
	c0.3,0.1,0.7,0.3,0.9,0.5c0.3,0.2,0.5,0.4,0.7,0.7c0.2,0.3,0.3,0.7,0.2,1.1c0,0.5-0.1,1-0.3,1.4c-0.2,0.4-0.5,0.7-0.9,0.9
	c-0.4,0.2-0.8,0.4-1.2,0.5c-0.5,0.1-0.9,0.1-1.4,0.1s-1,0-1.5-0.1c-0.4-0.1-0.8-0.3-1.2-0.5c-0.4-0.2-0.6-0.6-0.8-0.9
	c-0.2-0.4-0.3-0.9-0.3-1.4h1.5C394.4,83.9,394.4,84.2,394.6,84.5z"/>
<path class="st6" d="M402.6,84.5c0.1,0.2,0.3,0.4,0.6,0.5c0.2,0.1,0.5,0.2,0.8,0.3c0.3,0,0.6,0,0.9,0c0.2,0,0.5,0,0.7,0
	s0.5-0.1,0.7-0.2s0.4-0.2,0.5-0.4c0.2-0.2,0.2-0.4,0.2-0.7c0-0.4-0.2-0.7-0.4-0.9c-0.3-0.2-0.7-0.4-1.1-0.5l-1.4-0.3
	c-0.5-0.1-1-0.2-1.4-0.4c-0.4-0.2-0.8-0.4-1.1-0.8c-0.3-0.4-0.5-0.9-0.4-1.4c0-0.4,0.1-0.8,0.3-1.2c0.2-0.3,0.5-0.6,0.8-0.8
	c0.3-0.2,0.7-0.4,1.1-0.4c0.4-0.1,0.8-0.2,1.2-0.2c0.5,0,1,0.1,1.4,0.1c0.4,0.1,0.8,0.2,1.1,0.4c0.3,0.2,0.6,0.5,0.8,0.9
	c0.2,0.4,0.3,0.9,0.3,1.4h-1.5c0-0.3-0.1-0.5-0.2-0.7s-0.3-0.4-0.5-0.5s-0.4-0.2-0.7-0.2c-0.2,0-0.5,0-0.7,0h-0.7
	c-0.2,0-0.4,0.1-0.6,0.2s-0.3,0.2-0.4,0.3c-0.1,0.2-0.2,0.4-0.2,0.6s0.1,0.5,0.3,0.7c0.2,0.2,0.4,0.3,0.7,0.4
	c0.3,0.1,0.6,0.2,0.9,0.3l1.1,0.2c0.4,0.1,0.7,0.2,1.1,0.3c0.3,0.1,0.7,0.3,1,0.5s0.5,0.4,0.7,0.7c0.2,0.3,0.3,0.7,0.3,1.1
	c0,0.5-0.1,1-0.3,1.4c-0.2,0.4-0.5,0.7-0.9,0.9c-0.4,0.2-0.8,0.4-1.2,0.5c-0.5,0.1-0.9,0.1-1.4,0.1s-1,0-1.4-0.1s-0.8-0.3-1.2-0.5
	c-0.4-0.2-0.6-0.6-0.8-0.9c-0.2-0.4-0.4-0.9-0.4-1.4h1.5C402.4,83.9,402.5,84.2,402.6,84.5z"/>
<path class="st6" d="M419.6,75.7c-0.6-0.4-1.4-0.6-2.1-0.6c-0.3,0-0.7,0-1,0c-0.3,0.1-0.6,0.2-0.9,0.3c-0.3,0.2-0.5,0.4-0.6,0.7
	c-0.2,0.3-0.3,0.7-0.2,1c0,0.3,0.1,0.7,0.3,0.9c0.3,0.3,0.6,0.5,0.9,0.6c0.4,0.2,0.8,0.3,1.3,0.4l1.5,0.3l1.5,0.4
	c0.5,0.2,0.9,0.4,1.3,0.7c0.4,0.3,0.7,0.6,0.9,1c0.2,0.5,0.4,1,0.3,1.6c0,0.6-0.1,1.2-0.4,1.7s-0.7,0.9-1.1,1.2
	c-0.5,0.3-1,0.5-1.6,0.7c-0.6,0.1-1.1,0.2-1.7,0.2c-0.7,0-1.4-0.1-2-0.3c-0.6-0.2-1.2-0.4-1.7-0.8s-0.9-0.8-1.1-1.4
	c-0.3-0.6-0.4-1.3-0.4-2h1.6c0,0.5,0.1,0.9,0.3,1.4c0.2,0.4,0.5,0.7,0.8,0.9c0.3,0.3,0.7,0.4,1.2,0.5c0.4,0.1,0.9,0.2,1.3,0.2
	s0.8,0,1.1,0c0.4-0.1,0.7-0.2,1-0.4c0.3-0.2,0.6-0.4,0.7-0.7c0.2-0.3,0.3-0.7,0.3-1.1s-0.1-0.7-0.3-1c-0.3-0.3-0.6-0.5-0.9-0.7
	c-0.4-0.2-0.8-0.3-1.3-0.4l-1.5-0.3c-0.5,0-1-0.2-1.5-0.4c-0.4-0.1-0.9-0.3-1.3-0.6c-0.4-0.2-0.7-0.6-0.9-0.9
	c-0.2-0.4-0.3-0.8-0.2-1.3c0-0.6,0.1-1.1,0.4-1.6c0.2-0.5,0.6-0.8,1-1.1c0.4-0.3,0.9-0.5,1.5-0.7c0.5-0.1,1.1-0.2,1.7-0.2
	s1.2,0.1,1.8,0.2c0.5,0.1,1,0.4,1.5,0.7c0.4,0.3,0.7,0.8,1,1.2c0.3,0.6,0.4,1.2,0.4,1.8h-1.6C420.6,76.9,420.2,76.2,419.6,75.7z"/>
<path class="st6" d="M423.7,80.1c0.2-0.5,0.5-1.1,0.8-1.5c0.4-0.4,0.9-0.8,1.4-1c1.2-0.5,2.6-0.5,3.8,0c0.5,0.2,1,0.6,1.4,1
	s0.7,0.9,0.8,1.5c0.2,0.6,0.3,1.2,0.3,1.9c0,0.6-0.1,1.3-0.3,1.9c-0.2,0.5-0.5,1.1-0.8,1.5c-0.4,0.4-0.8,0.8-1.4,1
	c-1.2,0.5-2.6,0.5-3.8,0c-0.5-0.2-1-0.6-1.4-1s-0.7-0.9-0.8-1.5c-0.2-0.6-0.3-1.2-0.3-1.9C423.4,81.3,423.5,80.7,423.7,80.1z
	 M425.2,83.4c0.1,0.4,0.3,0.8,0.6,1.1c0.3,0.3,0.6,0.5,0.9,0.7c0.3,0.1,0.7,0.2,1.1,0.2s0.7-0.1,1.1-0.2c0.3-0.2,0.7-0.4,0.9-0.7
	c0.3-0.3,0.5-0.7,0.6-1.1c0.2-0.5,0.2-1,0.2-1.5s-0.1-1-0.2-1.5c-0.1-0.4-0.3-0.8-0.6-1.1c-0.2-0.3-0.6-0.5-0.9-0.7
	c-0.3-0.1-0.7-0.2-1.1-0.2s-0.8,0.1-1.1,0.2c-0.3,0.1-0.7,0.4-0.9,0.7c-0.3,0.3-0.5,0.7-0.6,1.1c-0.1,0.5-0.2,1-0.2,1.5
	C425,82.5,425.1,83,425.2,83.4L425.2,83.4z"/>
<path class="st6" d="M434.7,74v12.5h-1.5V74H434.7z"/>
<path class="st6" d="M442.3,86.5v-1.4l0,0c-0.3,0.5-0.7,0.9-1.2,1.2c-0.5,0.3-1.1,0.4-1.7,0.4c-0.5,0-1-0.1-1.5-0.2
	c-0.4-0.1-0.7-0.4-1-0.7c-0.2-0.3-0.4-0.7-0.5-1c-0.1-0.4-0.2-0.9-0.1-1.3v-5.9h1.5v6.1c-0.1,0.9,0.6,1.7,1.6,1.8c0.1,0,0.2,0,0.3,0
	c0.4,0,0.8-0.1,1.2-0.2c0.3-0.1,0.6-0.3,0.8-0.6c0.2-0.3,0.4-0.6,0.5-0.9c0.1-0.4,0.2-0.7,0.2-1.1v-5.1h1.4v9.1h-1.5L442.3,86.5
	L442.3,86.5z"/>
<path class="st6" d="M449.3,77.4v1.3h-1.8v5.6c0,0.1,0,0.3,0,0.4s0.1,0.2,0.2,0.2c0.1,0.1,0.2,0.1,0.3,0.1h0.6h0.7v1.3h-1.1
	c-0.3,0-0.7,0-1,0c-0.2,0-0.5-0.1-0.7-0.3c-0.2-0.2-0.3-0.4-0.4-0.6c-0.1-0.3-0.1-0.7-0.1-1v-5.8h-1.5v-1.3h1.5v-2.7h1.5v2.7h1.8
	V77.4z"/>
<path class="st6" d="M450.5,75.8V74h1.5v1.8H450.5z M452,77.4v9.1h-1.5v-9.1H452z"/>
<path class="st6" d="M453.3,80.1c0.2-0.5,0.5-1.1,0.8-1.5c0.4-0.4,0.9-0.8,1.4-1c0.6-0.3,1.2-0.4,1.9-0.4c0.7,0,1.3,0.1,1.9,0.4
	c0.5,0.2,1,0.6,1.4,1s0.7,0.9,0.8,1.5c0.2,0.6,0.3,1.2,0.3,1.9c0,0.6-0.1,1.3-0.3,1.9c-0.2,0.5-0.5,1.1-0.8,1.5
	c-0.4,0.4-0.9,0.8-1.4,1c-0.6,0.2-1.3,0.4-1.9,0.3c-0.6,0-1.3-0.1-1.9-0.3c-0.5-0.2-1-0.6-1.4-1s-0.7-0.9-0.8-1.5
	c-0.2-0.6-0.3-1.2-0.3-1.9C453,81.3,453.1,80.7,453.3,80.1z M454.8,83.4c0.1,0.4,0.3,0.8,0.6,1.1c0.2,0.3,0.6,0.5,0.9,0.7
	c0.7,0.3,1.5,0.3,2.2,0c0.3-0.2,0.7-0.4,0.9-0.7c0.3-0.3,0.5-0.7,0.6-1.1c0.1-0.5,0.2-1,0.2-1.5s-0.1-1-0.2-1.5
	c-0.1-0.4-0.3-0.8-0.6-1.1c-0.2-0.3-0.6-0.5-0.9-0.7c-0.7-0.3-1.5-0.3-2.2,0c-0.3,0.1-0.7,0.4-0.9,0.7c-0.3,0.3-0.5,0.7-0.6,1.1
	c-0.2,0.5-0.2,1-0.2,1.5C454.6,82.5,454.7,83,454.8,83.4L454.8,83.4z"/>
<path class="st6" d="M464.1,77.4v1.4l0,0c0.6-1.1,1.7-1.7,2.9-1.7c0.5,0,1,0.1,1.5,0.2c0.4,0.1,0.7,0.4,1,0.7c0.3,0.3,0.4,0.7,0.5,1
	c0.1,0.4,0.2,0.9,0.1,1.3v6h-1.5v-6.1c0-0.5-0.2-1-0.5-1.3c-0.4-0.3-0.9-0.5-1.3-0.5s-0.8,0.1-1.2,0.2c-0.3,0.1-0.6,0.3-0.8,0.6
	c-0.2,0.3-0.4,0.6-0.5,0.9c-0.1,0.4-0.2,0.8-0.2,1.1v5.1h-1.5v-9.1h1.5V77.4z"/>
<path class="st6" d="M472.8,84.5c0.1,0.2,0.3,0.4,0.6,0.5c0.2,0.1,0.5,0.3,0.8,0.3s0.6,0,0.9,0c0.2,0,0.5,0,0.7,0s0.5-0.1,0.7-0.2
	s0.4-0.2,0.5-0.4c0.1-0.2,0.2-0.4,0.2-0.7c0-0.3-0.1-0.7-0.4-0.9c-0.3-0.2-0.7-0.4-1.1-0.5s-0.9-0.2-1.4-0.3c-0.5-0.1-1-0.2-1.4-0.4
	c-0.4-0.2-0.8-0.4-1.1-0.8c-0.3-0.4-0.5-0.9-0.4-1.4c0-0.4,0.1-0.8,0.3-1.2c0.2-0.3,0.5-0.6,0.8-0.8c0.3-0.2,0.7-0.4,1.1-0.4
	c0.4-0.1,0.8-0.2,1.2-0.2c0.5,0,1,0.1,1.4,0.1c0.4,0.1,0.8,0.2,1.1,0.4c0.3,0.2,0.6,0.5,0.8,0.9c0.2,0.4,0.3,0.9,0.3,1.4h-1.5
	c0-0.3-0.1-0.5-0.2-0.7s-0.3-0.4-0.5-0.5s-0.4-0.2-0.7-0.2c-0.2,0-0.5,0-0.7,0h-0.7c-0.2,0-0.4,0.1-0.6,0.2s-0.3,0.2-0.5,0.3
	c-0.1,0.2-0.2,0.4-0.2,0.6s0.1,0.5,0.3,0.7c0.2,0.2,0.4,0.3,0.7,0.4c0.3,0.1,0.6,0.2,0.9,0.3l1.1,0.2c0.4,0.1,0.7,0.2,1.1,0.3
	c0.3,0.1,0.7,0.3,1,0.5s0.5,0.4,0.7,0.7c0.2,0.3,0.3,0.7,0.3,1.1c0,0.5-0.1,1-0.3,1.4c-0.2,0.4-0.5,0.7-0.9,0.9
	c-0.4,0.2-0.8,0.4-1.2,0.5c-0.5,0.1-0.9,0.1-1.4,0.1s-1,0-1.4-0.1s-0.8-0.3-1.2-0.5c-0.4-0.2-0.7-0.6-0.9-0.9
	c-0.2-0.4-0.3-0.9-0.3-1.4h1.5C472.6,83.9,472.6,84.2,472.8,84.5z"/>
<g>
	<g>
		<g>
			<g>
				<defs>
					<rect id="SVGID_7_" x="134.8" y="115.4" width="314.9" height="45.3"/>
				</defs>
				<clipPath id="SVGID_8_">
					<use xlink:href="#SVGID_7_"  style="overflow:visible;"/>
				</clipPath>
				<g class="st7">
					<path class="st6" d="M210.1,121.9h11.2c2.5-0.2,5,0.7,6.9,2.3c1.1,1.1,1.7,2.6,1.7,4.1l0,0c0.1,2.7-1.6,5.2-4.1,6.1
						c3.1,0.9,5.6,2.7,5.6,6.3l0,0c0,4.5-3.8,7.2-9.5,7.2h-11.7L210.1,121.9z M227,128.8c0-2.6-2-4.3-5.8-4.3H213v9h7.8
						C224.4,133.6,227,132,227,128.8L227,128.8z M221.4,136.2h-8.2v9.3h8.8c4,0,6.4-1.8,6.4-4.7l0,0c0-2.8-2.4-4.5-7-4.5"/>
					<rect x="237.5" y="121.9" class="st6" width="3" height="26.2"/>
				</g>
			</g>
		</g>
	</g>
</g>
<g>
	<g>
		<g>
			<g>
				<defs>
					<rect id="SVGID_9_" x="141.7" y="121" width="249.6" height="29.2"/>
				</defs>
				<clipPath id="SVGID_10_">
					<use xlink:href="#SVGID_9_"  style="overflow:visible;"/>
				</clipPath>
				<g class="st8">
					<polygon class="st6" points="246.9,146.1 263.9,124.6 247.5,124.6 247.5,121.9 267.9,121.9 267.9,123.9 250.9,145.5 
						267.9,145.5 267.9,148.1 246.9,148.1 					"/>
					<path class="st9" d="M190.1,122.2c-7.5-3.3-16.2,0.1-19.4,7.6c-0.7,1.6-1,3.3-1.1,5.1l7.9,3.4c-0.7-1.8-0.6-3.8,0.1-5.5
						c1.7-3.7,6-5.4,9.8-3.7c3.7,1.7,5.4,6,3.7,9.8c-1.6,3.7-5.9,5.3-9.6,3.8l-0.3-0.1l0,0c-1.7-0.8-9.5-4.1-9.5-4.1
						c-1.5-0.6-3.2-0.4-4.4,0.6l-4.1,3.3l15.6,6.9l0,0c7.4,3.1,15.9-0.3,19.1-7.7C201,133.9,197.5,125.3,190.1,122.2"/>
					<path class="st9" d="M158.8,135.5l-3.1,2.3l6.5,2.7c-2.7,3-7.4,3.2-10.4,0.5c-2.3-2.1-3-5.3-1.9-8.2c1.6-3.8,5.9-5.6,9.7-4.1
						l0,0c0.7,0.3,4.9,2.3,7.4,3.4c0.2-1.1,0.6-2.2,1-3.2c0.5-1.1,1.1-2.2,1.8-3.2l-7.5-3.4c-7.5-2.9-15.9,0.8-18.8,8.3
						c-2.9,7.5,0.8,15.9,8.3,18.8c7.2,2.8,15.3-0.6,18.5-7.6l1.5-3.4l-8.2-3.4C162,134.3,160.2,134.5,158.8,135.5"/>
				</g>
			</g>
		</g>
	</g>
</g>
<g>
	<g>
		<g>
			<g>
				<defs>
					<rect id="SVGID_11_" x="134.8" y="115.4" width="314.9" height="45.3"/>
				</defs>
				<clipPath id="SVGID_12_">
					<use xlink:href="#SVGID_11_"  style="overflow:visible;"/>
				</clipPath>
				<g class="st10">
					<path class="st6" d="M284.9,134h6.1c1.5-0.1,3,0.4,4.1,1.4c0.7,0.8,1.1,1.8,1.1,2.8l0,0c0,2.2-1.7,4-3.8,4.1l4.4,5.8h-2
						l-4.1-5.5h-4.1v5.5H285L284.9,134z M290.9,141.3c2,0,3.6-1.1,3.6-2.9l0,0c0-1.8-1.3-2.8-3.6-2.8h-4.4v5.7H290.9z"/>
					<polygon class="st6" points="299.5,134 309.8,134 309.8,135.5 301.1,135.5 301.1,140.3 308.9,140.3 308.9,141.8 301.1,141.8 
						301.1,146.8 309.9,146.8 309.9,148.2 299.5,148.2 					"/>
					<polygon class="st6" points="311.9,134 313.7,134 317.7,145.8 321.6,134 322.9,134 326.8,145.8 330.9,134 332.5,134 
						327.5,148.3 326.1,148.3 322.2,136.8 318.3,148.3 317,148.3 					"/>
					<path class="st6" d="M340.6,133.9h1.5l6.5,14.3h-1.7l-1.7-3.7h-7.8l-1.7,3.7H334L340.6,133.9z M344.5,143l-3.2-7.2L338,143
						H344.5z"/>
					<path class="st6" d="M351.3,134h6.1c1.5-0.1,3,0.4,4.1,1.4c0.7,0.8,1.1,1.8,1.1,2.8l0,0c0,2.2-1.7,4-3.8,4.1l4.4,5.8h-2
						l-4.1-5.5H353v5.5h-1.6V134H351.3z M357.2,141.3c2,0,3.7-1.1,3.7-2.9l0,0c0-1.8-1.3-2.8-3.6-2.8h-4.4v5.7H357.2z"/>
					<path class="st6" d="M365.8,134h4.9c3.9-0.2,7.3,2.7,7.5,6.6c0,0.1,0,0.3,0,0.4l0,0c0,3.9-3.2,7.1-7.1,7.1c-0.1,0-0.3,0-0.4,0
						h-4.9V134z M367.4,135.5v11.2h3.3c3,0.2,5.7-2.1,5.9-5.1c0-0.2,0-0.3,0-0.5l0,0c0.1-3-2.4-5.6-5.4-5.6c-0.2,0-0.3,0-0.5,0
						L367.4,135.5z"/>
					<path class="st6" d="M380.7,146.1l1-1.2c1.3,1.3,3,2,4.8,2c1.9,0,3.1-1,3.1-2.4l0,0c0-1.3-0.7-2-3.7-2.7s-4.8-1.8-4.8-4.1l0,0
						c0.1-2.3,2-4,4.3-3.9c0.1,0,0.3,0,0.4,0c1.8-0.1,3.6,0.6,5,1.7l-0.9,1.2c-1.1-1-2.6-1.5-4.1-1.5c-1.8,0-3,1-3,2.3l0,0
						c0,1.3,0.7,2,3.8,2.8s4.6,1.8,4.6,4.1l0,0c0,2.4-2,4.1-4.8,4.1c-2.1,0-4.2-0.8-5.8-2.3"/>
				</g>
			</g>
		</g>
	</g>
</g>
<g id="Chip">
	<g>
		<g>
			<g>
				<g>
					<defs>
						<rect id="SVGID_13_" x="20.2" y="64.3" width="169.5" height="146.7"/>
					</defs>
					<clipPath id="SVGID_14_">
						<use xlink:href="#SVGID_13_"  style="overflow:visible;"/>
					</clipPath>
				</g>
				<g>
					<defs>
						<rect id="SVGID_15_" x="20.2" y="64.3" width="169.5" height="146.7"/>
					</defs>
					<defs>
						<path id="SVGID_16_" d="M63.1,109.3c0,0-9.3,0-9.3,9.3v31c0,0,0,9.3,9.3,9.3h46.5c0,0,9.3,0,9.3-9.3v-31c0,0,0-9.3-9.3-9.3
							H63.1z"/>
					</defs>
					<clipPath id="SVGID_17_">
						<use xlink:href="#SVGID_15_"  style="overflow:visible;"/>
					</clipPath>
					<clipPath id="SVGID_18_" class="st11">
						<use xlink:href="#SVGID_16_"  style="overflow:visible;"/>
					</clipPath>
					<g class="st12">
					</g>
				</g>
			</g>
		</g>
	</g>
</g>
<g>
	<path d="M274.1,123c0,1.1-0.9,2-2,2s-2-0.9-2-2s0.9-2,2-2S274.1,121.9,274.1,123z M270.6,123c0,0.9,0.6,1.6,1.5,1.6
		s1.5-0.7,1.5-1.6s-0.6-1.6-1.5-1.6S270.6,122.1,270.6,123z M271.8,124h-0.5v-2c0.2,0,0.4-0.1,0.8-0.1s0.5,0.1,0.7,0.1
		c0.1,0.1,0.2,0.2,0.2,0.4c0,0.2-0.2,0.4-0.4,0.5l0,0c0.2,0.1,0.3,0.2,0.4,0.5s0.1,0.4,0.1,0.5h-0.5c-0.1-0.1-0.1-0.3-0.2-0.5
		c0-0.2-0.2-0.3-0.4-0.3h-0.2V124z M271.8,122.9h0.2c0.3,0,0.5-0.1,0.5-0.3c0-0.2-0.1-0.3-0.4-0.3c-0.1,0-0.2,0-0.3,0L271.8,122.9
		L271.8,122.9z"/>
</g>
<g>
	<g>
		
			<linearGradient id="SVGID_19_" gradientUnits="userSpaceOnUse" x1="518.975" y1="640.8047" x2="572.1193" y2="640.8047" gradientTransform="matrix(1 0 0 1 -456.1949 -506.705)">
			<stop  offset="0" style="stop-color:#E6E6E6"/>
			<stop  offset="1" style="stop-color:#BDBDBD"/>
		</linearGradient>
		<path class="st13" d="M109.7,154.9H69c-3.4,0-6.2-2.8-6.2-6.2v-29.1c0-3.4,2.8-6.2,6.2-6.2h40.7c3.4,0,6.2,2.8,6.2,6.2v29.1
			C115.9,152.1,113.1,154.9,109.7,154.9z"/>
		<path class="st14" d="M109.7,155.3H69c-3.7,0-6.6-3-6.6-6.6v-29.1c0-3.7,3-6.6,6.6-6.6h40.7c3.7,0,6.6,3,6.6,6.6v29.1
			C116.3,152.3,113.3,155.3,109.7,155.3z M69,113.7c-3.2,0-5.8,2.6-5.8,5.8v29.1c0,3.2,2.6,5.8,5.8,5.8h40.7c3.2,0,5.8-2.6,5.8-5.8
			v-29.1c0-3.2-2.6-5.8-5.8-5.8H69z"/>
	</g>
	<g>
		<defs>
			<path id="SVGID_20_" d="M109.7,154.9H69c-3.4,0-6.2-2.8-6.2-6.2v-29.1c0-3.4,2.8-6.2,6.2-6.2h40.7c3.4,0,6.2,2.8,6.2,6.2v29.1
				C115.9,152.1,113.1,154.9,109.7,154.9z"/>
		</defs>
		<clipPath id="SVGID_21_">
			<use xlink:href="#SVGID_20_"  style="overflow:visible;"/>
		</clipPath>
		<g class="st15">
			<g>
				<path class="st16" d="M84.2,155.5l-0.7-0.4l4.6-8.3l0,0c0,0,0.6-2-0.6-4.1c-1.2-2-3.9-2-4-2h-20V140h20c0.1,0,3.2-0.1,4.7,2.4
					c1.4,2.4,0.7,4.7,0.7,4.8L84.2,155.5z"/>
			</g>
			<g>
				<path class="st16" d="M95.8,155.5l-4.6-8.3c-0.1-0.2-0.8-2.5,0.6-4.9c1.5-2.5,4.5-2.4,4.7-2.4h20v0.8h-20c0,0-2.7-0.1-4,2
					c-1.3,2.1-0.6,4.1-0.6,4.1l4.6,8.2L95.8,155.5z"/>
			</g>
			<g>
				<path class="st16" d="M96.4,129.1c-0.5,0-3.2-0.1-4.6-2.4c-1.4-2.4-0.7-4.7-0.7-4.8l4.9-8.8l0.7,0.4l-4.9,8.7l0,0
					c0,0-0.6,2,0.6,4.1c1.2,2,3.9,2,4,2h20v0.8L96.4,129.1C96.5,129.1,96.4,129.1,96.4,129.1z"/>
			</g>
			<g>
				<path class="st16" d="M83.6,129.1C83.6,129.1,83.6,129.1,83.6,129.1l-20.1,0v-0.8h20c0,0,2.7,0.1,4-2c1.3-2.1,0.6-4.1,0.6-4.1
					l-4.6-8.2l0.7-0.4l4.6,8.3c0.1,0.2,0.8,2.5-0.6,4.9C86.8,129,84.1,129.1,83.6,129.1z"/>
			</g>
			<g>
				<rect x="83.2" y="128.7" class="st16" width="0.8" height="11.7"/>
			</g>
			<g>
				<rect x="95.8" y="128.7" class="st16" width="0.8" height="11.7"/>
			</g>
		</g>
	</g>
	<g>
		<path class="st14" d="M109.7,155.3H69c-3.7,0-6.6-3-6.6-6.6v-29.1c0-3.7,3-6.6,6.6-6.6h40.7c3.7,0,6.6,3,6.6,6.6v29.1
			C116.3,152.3,113.3,155.3,109.7,155.3z M69,113.7c-3.2,0-5.8,2.6-5.8,5.8v29.1c0,3.2,2.6,5.8,5.8,5.8h40.7c3.2,0,5.8-2.6,5.8-5.8
			v-29.1c0-3.2-2.6-5.8-5.8-5.8H69z"/>
	</g>
	<g>
		<g>
			<path class="st14" d="M83.6,155.1l-0.7-0.4l4.6-8.3l0,0c0,0,0.6-2-0.6-4.1c-1.2-2-3.9-2-4-2h-20v-0.8h20c0.1,0,3.2-0.1,4.7,2.4
				c1.4,2.4,0.7,4.7,0.7,4.8L83.6,155.1z"/>
		</g>
		<g>
			<path class="st14" d="M95.2,155.1l-4.6-8.3c-0.1-0.2-0.8-2.5,0.6-4.9c1.5-2.5,4.5-2.4,4.7-2.4h20v0.8h-20c0,0-2.7-0.1-4,2
				c-1.3,2.1-0.6,4.1-0.6,4.1l4.6,8.2L95.2,155.1z"/>
		</g>
		<g>
			<path class="st14" d="M95.7,128.6c-0.5,0-3.2-0.1-4.6-2.4c-1.4-2.4-0.7-4.7-0.7-4.8l4.7-8.3l0.7,0.4l-4.6,8.3l0,0
				c0,0-0.6,2,0.6,4.1c1.2,2,3.9,2,4,2h20v0.8L95.7,128.6C95.8,128.6,95.8,128.6,95.7,128.6z"/>
		</g>
		<g>
			<path class="st14" d="M83,128.6C82.9,128.6,82.9,128.6,83,128.6l-20.1,0v-0.8h20c0,0,2.7,0.1,4-2c1.3-2.1,0.6-4.1,0.6-4.1
				l-4.6-8.2l0.7-0.4l4.6,8.3c0.1,0.2,0.8,2.5-0.6,4.9C86.2,128.5,83.5,128.6,83,128.6z"/>
		</g>
		<g>
			<rect x="82.5" y="128.2" class="st14" width="0.8" height="11.7"/>
		</g>
		<g>
			<rect x="95.2" y="128.2" class="st14" width="0.8" height="11.7"/>
		</g>
	</g>
</g>
</svg>
