<svg xmlns="http://www.w3.org/2000/svg" xmlns:xlink="http://www.w3.org/1999/xlink" width="96" height="96" viewBox="0 0 96 96">
  <defs>
    <clipPath id="clip-path">
      <rect id="Rectangle_8925" data-name="Rectangle 8925" width="71.83" height="72.617" transform="translate(0 0)" fill="none"/>
    </clipPath>
    <clipPath id="clip-hand-money">
      <rect width="96" height="96"/>
    </clipPath>
  </defs>
  <g id="hand-money" clip-path="url(#clip-hand-money)">
    <g id="Group_41713" data-name="Group 41713" transform="translate(13 12)">
      <g id="Group_41712" data-name="Group 41712" clip-path="url(#clip-path)">
        <path id="Path_44361" data-name="Path 44361" d="M70.323,41.293a5.535,5.535,0,0,0-7.811-.555l-8.244,7.15a5.841,5.841,0,0,0-4.923-2.642H33.032a8.79,8.79,0,0,1-2.476-.284,10.321,10.321,0,0,1-1.97-.709c-.422-.187-.87-.384-1.423-.591a14.75,14.75,0,0,0-5.148-1.155h-.064c-2.956,0-5.126,1.323-7.225,2.6a22.589,22.589,0,0,0-3.36,2.514L11,47.163a2,2,0,0,0-2.811-.318L.754,52.762a2,2,0,0,0-.318,2.81L13.4,71.863a2,2,0,0,0,1.339.741,1.9,1.9,0,0,0,.226.013,2,2,0,0,0,1.245-.435l7.433-5.917a2,2,0,0,0,.319-2.811l-.388-.488H53.039a1.99,1.99,0,0,0,.376-.038c.045-.009.087-.024.132-.036a1.825,1.825,0,0,0,.225-.07c.051-.02.1-.045.146-.069s.124-.062.184-.1.1-.068.144-.1.07-.045.1-.073L69.768,49.1a5.543,5.543,0,0,0,.555-7.81M15.288,67.807,4.811,54.645l4.3-3.425L19.591,64.381ZM67.147,46.082,52.292,58.966H20.47c-.025,0-.047.006-.071.007l-6.533-8.206a18.568,18.568,0,0,1,2.944-2.242c1.847-1.127,3.309-2.018,5.143-2.018h.037a11.093,11.093,0,0,1,3.773.9c.466.174.845.343,1.2.5a14.1,14.1,0,0,0,2.659.942,15.266,15.266,0,0,0,3.4.392H49.345a1.554,1.554,0,1,1,0,3.073H34.725a2,2,0,0,0,0,4h14.62a5.789,5.789,0,0,0,5.391-3.542l10.4-9.017a1.536,1.536,0,0,1,1.116-.372,1.519,1.519,0,0,1,1.051.526,1.538,1.538,0,0,1-.153,2.168" fill="#0f3d70"/>
        <path id="Path_44362" data-name="Path 44362" d="M19.846,24.628A2.628,2.628,0,1,0,17.218,22a2.628,2.628,0,0,0,2.628,2.628" fill="#0f3d70"/>
        <path id="Path_44363" data-name="Path 44363" d="M51.846,24.628A2.628,2.628,0,1,0,49.218,22a2.628,2.628,0,0,0,2.628,2.628" fill="#0f3d70"/>
        <path id="Path_44364" data-name="Path 44364" d="M35.845,30.348A8.347,8.347,0,1,0,27.5,22a8.347,8.347,0,0,0,8.347,8.347m-.466-7.739c-1.352-.457-2.272-1.091-2.272-2.31a2.326,2.326,0,0,1,2.135-2.251v-1.2h1.241v1.115a4.547,4.547,0,0,1,1.83.413L37.937,19.8a4.042,4.042,0,0,0-1.814-.436c-.813,0-1.081.361-1.081.714,0,.411.44.683,1.512,1.08,1.5.529,2.1,1.224,2.1,2.369a2.4,2.4,0,0,1-2.239,2.325v1.3H35.177v-1.2a5.115,5.115,0,0,1-2.144-.542l.376-1.476a4.562,4.562,0,0,0,2.1.554c.719,0,1.214-.285,1.214-.783s-.4-.78-1.344-1.1" fill="#ed780f"/>
        <path id="Path_44365" data-name="Path 44365" d="M69.83,0h-52a2,2,0,0,0-2,2V8H9.846a2,2,0,0,0-2,2V34a2,2,0,0,0,2,2h52a2,2,0,0,0,2-2V28H69.83a2,2,0,0,0,2-2V2a2,2,0,0,0-2-2M59.846,32h-48V12h48Zm7.984-8H63.846V10a2,2,0,0,0-2-2H19.83V4h48Z" fill="#0f3d70"/>
      </g>
    </g>
  </g>
</svg>
