<?xml version="1.0" encoding="UTF-8"?>
<svg id="Layer_1" xmlns="http://www.w3.org/2000/svg" version="1.1" viewBox="0 0 150 150">
  <!-- Generator: Adobe Illustrator 29.6.0, SVG Export Plug-In . SVG Version: 2.1.1 Build 207)  -->
  <defs>
    <style>
      .st0 {
        fill: none;
      }

      .st1 {
        fill: #05525f;
      }

      .st2 {
        fill: #06515f;
      }

      .st3 {
        fill: #fff;
      }

      .st4 {
        fill: #dcebf8;
      }

      .st5 {
        fill: #01af9a;
      }

      .st6 {
        fill: #0a6b71;
      }
    </style>
  </defs>
  <rect class="st0" width="150" height="150"/>
  <path id="Path_2800" class="st1" d="M43.6,125.4C15.6,106.8,8,69,26.6,41,45.2,13,83,5.4,111,24.1c.1,0,.2.1.3.2l1.1.8"/>
  <path id="Path_2801" class="st6" d="M112.4,25c28,18.9,35.3,56.9,16.4,84.9h0c-19.3,27.7-57.4,34.7-85.3,15.5"/>
  <path id="Path_2802" class="st3" d="M78.3,129.5c-29.7.3-54.1-23.6-54.4-53.3s23.6-54.1,53.3-54.4c.1,0,.2,0,.4,0h1.2"/>
  <path id="Path_2803" class="st4" d="M78.8,21.7c29.8-.3,54.1,23.6,54.4,53.3.3,29.8-23.6,54.1-53.3,54.4-.1,0-.2,0-.4,0h-1.2"/>
  <path id="Path_2804" class="st2" d="M94.7,58.7c-3.4-2.6-7.3-4.5-11.5-5.5v16.4c12.8,3.3,18.3,8.5,18.3,17.6h0c-.1,9.4-7.5,15.7-18.3,16.6v8.3h-7.5v-8.6c-7.4-.9-14.3-3.8-20.1-8.5l5.6-7.9c4.2,3.9,9.4,6.5,15,7.6v-16.8c-12.4-3.3-18.1-7.9-18.1-17.6h0c.1-9.3,7.4-15.5,18-16.4v-5h7.5v5.1c5.8.8,11.3,3,16,6.5l-4.9,8.1ZM76.2,67.8v-15.1c-5.3.6-8.1,3.3-8.1,7.1h0c-.2,3.6,1.5,6,8,8.1h0ZM82.9,79.7v15.6c5.3-.6,8.3-3.2,8.3-7.4h0c.1-3.8-1.8-6.3-8.3-8.2h0Z"/>
  <path id="Path_2805" class="st5" d="M140.1,8.9l6.5,39.5-39.6-6.4,11.3-11.2c-24.5-22.6-62.6-21-85.1,3.4-22.6,24.5-21,62.6,3.4,85.1,23.8,21.9,60.6,21.2,83.4-1.7l10.4,10.4c-29.3,29.3-76.8,29.2-106.1,0-29.3-29.3-29.2-76.8,0-106.1,28.6-28.6,74.7-29.3,104.2-1.7l11.3-11.3Z"/>
  <rect class="st0" x="200.3" y="-53" width="249.7" height="249.5"/>
</svg>