<svg xmlns="http://www.w3.org/2000/svg" xmlns:xlink="http://www.w3.org/1999/xlink" width="150" height="150" viewBox="0 0 150 150">
  <defs>
    <clipPath id="clip-clipboard-business_1">
      <rect width="150" height="150"/>
    </clipPath>
  </defs>
  <g id="clipboard-business_1" data-name="clipboard-business – 1" clip-path="url(#clip-clipboard-business_1)">
    <g id="Group_11546" data-name="Group 11546" transform="translate(0.49 0.136)">
      <path id="Path_10742" data-name="Path 10742" d="M103.25,20.87H32.46a3.74,3.74,0,0,0-3.95,3.53V129.13h78.71V25.25a4.18,4.18,0,0,0-3.94-4.38Z" transform="translate(0)" fill="#00af9a"/>
      <rect id="Rectangle_5169" data-name="Rectangle 5169" width="64.58" height="92.52" transform="matrix(0.995, -0.097, 0.097, 0.995, 32.036, 34.997)" fill="#dcebf8"/>
      <rect id="Rectangle_5170" data-name="Rectangle 5170" width="64.58" height="92.52" transform="translate(36.37 31.65)" fill="#fff"/>
      <line id="Line_990" data-name="Line 990" x2="26.29" transform="translate(55.77 45.13)" fill="none" stroke="#2280bf" stroke-linecap="round" stroke-linejoin="round" stroke-width="2"/>
      <g id="Group_11545" data-name="Group 11545" transform="translate(48.19 53.85)">
        <line id="Line_989" data-name="Line 989" x2="40.74" transform="translate(0 0)" fill="none" stroke="#dcebf8" stroke-linecap="round" stroke-linejoin="round" stroke-width="2"/>
        <line id="Line_991" data-name="Line 991" x2="40.74" transform="translate(0 20.21)" fill="none" stroke="#dcebf8" stroke-linecap="round" stroke-linejoin="round" stroke-width="2"/>
        <line id="Line_992" data-name="Line 992" x2="40.74" transform="translate(0 40.43)" fill="none" stroke="#dcebf8" stroke-linecap="round" stroke-linejoin="round" stroke-width="2"/>
        <line id="Line_993" data-name="Line 993" x2="40.74" transform="translate(0 5.11)" fill="none" stroke="#dcebf8" stroke-linecap="round" stroke-linejoin="round" stroke-width="2"/>
        <line id="Line_994" data-name="Line 994" x2="40.74" transform="translate(0 25.32)" fill="none" stroke="#dcebf8" stroke-linecap="round" stroke-linejoin="round" stroke-width="2"/>
        <line id="Line_995" data-name="Line 995" x2="40.74" transform="translate(0 45.54)" fill="none" stroke="#dcebf8" stroke-linecap="round" stroke-linejoin="round" stroke-width="2"/>
        <line id="Line_996" data-name="Line 996" x2="40.74" transform="translate(0 50.29)" fill="none" stroke="#dcebf8" stroke-linecap="round" stroke-linejoin="round" stroke-width="2"/>
        <line id="Line_997" data-name="Line 997" x2="40.74" transform="translate(0 10.16)" fill="none" stroke="#dcebf8" stroke-linecap="round" stroke-linejoin="round" stroke-width="2"/>
        <line id="Line_998" data-name="Line 998" x2="40.74" transform="translate(0 30.38)" fill="none" stroke="#dcebf8" stroke-linecap="round" stroke-linejoin="round" stroke-width="2"/>
        <line id="Line_999" data-name="Line 999" x2="40.74" transform="translate(0 15.27)" fill="none" stroke="#dcebf8" stroke-linecap="round" stroke-linejoin="round" stroke-width="2"/>
        <line id="Line_1000" data-name="Line 1000" x2="40.74" transform="translate(0 35.49)" fill="none" stroke="#dcebf8" stroke-linecap="round" stroke-linejoin="round" stroke-width="2"/>
        <g id="Group_11539" data-name="Group 11539" transform="translate(16.94 56.41)">
          <line id="Line_255" data-name="Line 255" x2="25.18" stroke-width="2" stroke="#dcebf8" stroke-linecap="round" stroke-linejoin="round" fill="none"/>
        </g>
      </g>
      <g id="Group_11540" data-name="Group 11540" transform="translate(87.14 43.24)">
        <path id="Path_1268" data-name="Path 1268" d="M112.68,48l2.14-3.81a1.86,1.86,0,0,1,2.5-.73l3.23,1.77a1.87,1.87,0,0,1,.73,2.51l-2.08,3.75Z" transform="translate(-87.14 -43.24)" fill="#00af9a"/>
        <g id="Group_3112" data-name="Group 3112" transform="translate(0.62 4.54)">
          <path id="Path_1269" data-name="Path 1269" d="M91,94.69l3.23,1.77,25-45.09L116,49.6" transform="translate(-87.76 -47.78)" fill="#1669a0"/>
          <path id="Path_1270" data-name="Path 1270" d="M116,49.6l-3.24-1.82-25,45.08L91,94.69" transform="translate(-87.76 -47.78)" fill="#2280bf"/>
        </g>
        <path id="Path_1271" data-name="Path 1271" d="M91,94.69l-3.24-1.83-.62,8.76" transform="translate(-87.14 -43.239)" fill="#7adee2"/>
        <path id="Path_1272" data-name="Path 1272" d="M87.14,101.62l7.09-5.16L91,94.69" transform="translate(-87.14 -43.239)" fill="#b0dbf7"/>
      </g>
      <g id="Ellipse_602" data-name="Ellipse 602" transform="translate(39.95 53.47)">
        <circle id="Ellipse_1" data-name="Ellipse 1" cx="1.5" cy="1.5" r="1.5" transform="translate(0 0)" fill="#2280bf"/>
        <circle id="Ellipse_2" data-name="Ellipse 2" cx="1.12" cy="1.12" r="1.12" transform="translate(0.38 0.38)" fill="none" stroke="#2280bf" stroke-width="1"/>
      </g>
      <g id="Ellipse_603" data-name="Ellipse 603" transform="translate(39.95 64.69)">
        <circle id="Ellipse_3" data-name="Ellipse 3" cx="1.5" cy="1.5" r="1.5" transform="translate(0 0)" fill="#2280bf"/>
        <circle id="Ellipse_4" data-name="Ellipse 4" cx="1.12" cy="1.12" r="1.12" transform="translate(0.38 0.38)" fill="none" stroke="#2280bf" stroke-width="1"/>
      </g>
      <g id="Ellipse_604" data-name="Ellipse 604" transform="translate(39.95 76.67)">
        <circle id="Ellipse_5" data-name="Ellipse 5" cx="1.5" cy="1.5" r="1.5" fill="#2280bf"/>
        <circle id="Ellipse_6" data-name="Ellipse 6" cx="1.12" cy="1.12" r="1.12" transform="translate(0.38 0.38)" fill="none" stroke="#2280bf" stroke-width="1"/>
      </g>
      <g id="Ellipse_605" data-name="Ellipse 605" transform="translate(39.95 88.64)">
        <circle id="Ellipse_7" data-name="Ellipse 7" cx="1.5" cy="1.5" r="1.5" fill="#2280bf"/>
        <circle id="Ellipse_8" data-name="Ellipse 8" cx="1.12" cy="1.12" r="1.12" transform="translate(0.38 0.38)" fill="none" stroke="#2280bf" stroke-width="1"/>
      </g>
      <g id="Ellipse_606" data-name="Ellipse 606" transform="translate(39.95 100.61)">
        <circle id="Ellipse_9" data-name="Ellipse 9" cx="1.5" cy="1.5" r="1.5" fill="#2280bf"/>
        <circle id="Ellipse_10" data-name="Ellipse 10" cx="1.12" cy="1.12" r="1.12" transform="translate(0.38 0.38)" fill="none" stroke="#2280bf" stroke-width="1"/>
      </g>
    </g>
  </g>
</svg>
