<svg xmlns="http://www.w3.org/2000/svg" xmlns:xlink="http://www.w3.org/1999/xlink" width="150" height="150" viewBox="0 0 150 150">
  <defs>
    <clipPath id="clip-coins-business_1">
      <rect width="150" height="150"/>
    </clipPath>
  </defs>
  <g id="coins-business_1" data-name="coins-business – 1" clip-path="url(#clip-coins-business_1)">
    <g id="Group_25" data-name="Group 25" transform="translate(-5542.583 746.655)">
      <path id="Rectangle_3511" data-name="Rectangle 3511" d="M97.49,64.419,136.9,122.229c.188.277-.119.822-.7,1.219l-10.97,7.482c-.575.386-1.2.486-1.387.208L84.43,73.317c-.188-.277.129-.813.7-1.209L96.1,64.627C96.687,64.23,97.3,64.141,97.49,64.419Z" transform="translate(5547.664 -746.555)" fill="#00af9a"/>
      <line id="Line_902" data-name="Line 902" x1="13.07" y2="8.908" transform="translate(5640.308 -670.087)" fill="none" stroke="#06515f" stroke-miterlimit="10" stroke-width="4"/>
      <line id="Line_903" data-name="Line 903" x1="13.07" y2="8.908" transform="translate(5635.81 -676.687)" fill="none" stroke="#06515f" stroke-miterlimit="10" stroke-width="4"/>
      <line id="Line_904" data-name="Line 904" x1="13.06" y2="8.899" transform="translate(5644.658 -663.706)" fill="none" stroke="#06515f" stroke-miterlimit="10" stroke-width="4"/>
      <line id="Line_905" data-name="Line 905" x1="13.06" y2="8.908" transform="translate(5649.009 -657.334)" fill="none" stroke="#06515f" stroke-miterlimit="10" stroke-width="4"/>
      <line id="Line_906" data-name="Line 906" x1="13.06" y2="8.899" transform="translate(5653.349 -650.952)" fill="none" stroke="#06515f" stroke-miterlimit="10" stroke-width="4"/>
      <line id="Line_907" data-name="Line 907" x1="13.06" y2="8.908" transform="translate(5657.699 -644.581)" fill="none" stroke="#06515f" stroke-miterlimit="10" stroke-width="4"/>
      <line id="Line_908" data-name="Line 908" x1="13.07" y2="8.899" transform="translate(5662.04 -638.199)" fill="none" stroke="#06515f" stroke-miterlimit="10" stroke-width="4"/>
      <line id="Line_909" data-name="Line 909" x1="13.06" y2="8.908" transform="translate(5666.39 -631.827)" fill="none" stroke="#06515f" stroke-miterlimit="10" stroke-width="4"/>
      <line id="Line_910" data-name="Line 910" x1="13.06" y2="8.899" transform="translate(5670.74 -625.446)" fill="none" stroke="#06515f" stroke-miterlimit="10" stroke-width="4"/>
      <path id="Path_1185-2" data-name="Path 1185-2" d="M51.662,91.528a36.722,36.722,0,1,1-.347-73.442l.347,0" transform="translate(5548.296 -746.137)" fill="#cfe6fa"/>
      <path id="Path_1186-2" data-name="Path 1186-2" d="M52,18.09a36.664,36.664,0,0,1,0,73.329" transform="translate(5547.958 -746.137)" fill="#e8f4fd"/>
      <circle id="Ellipse_278-2" data-name="Ellipse 278-2" cx="27.409" cy="27.409" r="27.409" transform="translate(5572.221 -718.742)" fill="#2280bf"/>
      <path id="Path_1189-2" data-name="Path 1189-2" d="M58.728,47.457a14.478,14.478,0,0,0-5.282-2.517V52.4c5.9,1.467,8.463,3.805,8.463,8v.079c0,4.271-3.339,7.075-8.314,7.531v3.815H50.176V67.89A17.619,17.619,0,0,1,41,64.006l2.487-3.567a13.962,13.962,0,0,0,6.837,3.419v-7.62c-5.668-1.476-8.334-3.577-8.334-8.007v-.079c0-4.192,3.339-7,8.155-7.462V38.44h3.429v2.329a15.31,15.31,0,0,1,7.3,2.973ZM50.335,51.58V44.643c-2.487.238-3.726,1.556-3.726,3.27h0c0,1.625.694,2.715,3.726,3.647Zm3.112,5.361v7.065c2.487-.317,3.884-1.476,3.884-3.339v-.079c-.079-1.714-.931-2.725-3.884-3.657Z" transform="translate(5548.058 -746.321)" fill="#fff"/>
      <path id="Rectangle_3512" data-name="Rectangle 3512" d="M22.913,110.57h83.615c.4,0,.723.674.723,1.516v15.855c0,.832-.327,1.516-.723,1.516H22.913c-.4,0-.713-.684-.713-1.516V112.086C22.2,111.244,22.517,110.57,22.913,110.57Z" transform="translate(5548.228 -746.975)" fill="#00af9a"/>
      <line id="Line_911" data-name="Line 911" y2="17.916" transform="translate(5574.917 -635.94)" fill="none" stroke="#008c95" stroke-miterlimit="10" stroke-width="4"/>
      <line id="Line_912" data-name="Line 912" y2="17.916" transform="translate(5582.735 -635.94)" fill="none" stroke="#008c95" stroke-miterlimit="10" stroke-width="4"/>
      <line id="Line_913" data-name="Line 913" y2="17.916" transform="translate(5590.544 -635.94)" fill="none" stroke="#008c95" stroke-miterlimit="10" stroke-width="4"/>
      <line id="Line_914" data-name="Line 914" y2="17.916" transform="translate(5598.352 -635.94)" fill="none" stroke="#008c95" stroke-miterlimit="10" stroke-width="4"/>
      <line id="Line_915" data-name="Line 915" y2="17.916" transform="translate(5606.171 -635.94)" fill="none" stroke="#008c95" stroke-miterlimit="10" stroke-width="4"/>
      <line id="Line_916" data-name="Line 916" y2="17.916" transform="translate(5613.979 -635.94)" fill="none" stroke="#008c95" stroke-miterlimit="10" stroke-width="4"/>
      <line id="Line_917" data-name="Line 917" y2="17.916" transform="translate(5621.797 -635.94)" fill="none" stroke="#008c95" stroke-miterlimit="10" stroke-width="4"/>
      <line id="Line_918" data-name="Line 918" y2="17.916" transform="translate(5629.606 -635.94)" fill="none" stroke="#008c95" stroke-miterlimit="10" stroke-width="4"/>
      <line id="Line_919" data-name="Line 919" y2="17.916" transform="translate(5637.415 -635.94)" fill="none" stroke="#008c95" stroke-miterlimit="10" stroke-width="4"/>
      <line id="Line_920" data-name="Line 920" y2="17.916" transform="translate(5645.233 -635.94)" fill="none" stroke="#008c95" stroke-miterlimit="10" stroke-width="4"/>
      <line id="Line_921" data-name="Line 921" y2="17.916" transform="translate(5653.042 -635.94)" fill="none" stroke="#008c95" stroke-miterlimit="10" stroke-width="4"/>
      <path id="Rectangle_3511-2" data-name="Rectangle 3511-2" d="M13.283,92.82H96.9c.4,0,.713.674.713,1.516v15.855c0,.832-.327,1.516-.713,1.516H13.283c-.4,0-.723-.684-.723-1.516V94.336C12.56,93.494,12.887,92.82,13.283,92.82Z" transform="translate(5548.315 -746.814)" fill="#00af9a"/>
      <g id="Group_24" data-name="Group 24" transform="translate(5565.275 -653.994)">
        <line id="Line_922" data-name="Line 922" y2="18.887" transform="translate(9.543)" fill="none" stroke="#06515f" stroke-miterlimit="10" stroke-width="4"/>
        <line id="Line_923" data-name="Line 923" y2="18.887" fill="none" stroke="#06515f" stroke-miterlimit="10" stroke-width="4"/>
        <line id="Line_924" data-name="Line 924" y2="18.887" transform="translate(18.758)" fill="none" stroke="#06515f" stroke-miterlimit="10" stroke-width="4"/>
        <line id="Line_925" data-name="Line 925" y2="18.887" transform="translate(27.984)" fill="none" stroke="#06515f" stroke-miterlimit="10" stroke-width="4"/>
        <line id="Line_926" data-name="Line 926" y2="18.887" transform="translate(37.2)" fill="none" stroke="#06515f" stroke-miterlimit="10" stroke-width="4"/>
        <line id="Line_927" data-name="Line 927" y2="18.887" transform="translate(46.425)" fill="none" stroke="#06515f" stroke-miterlimit="10" stroke-width="4"/>
        <line id="Line_928" data-name="Line 928" y2="18.887" transform="translate(55.65)" fill="none" stroke="#06515f" stroke-miterlimit="10" stroke-width="4"/>
        <line id="Line_929" data-name="Line 929" y2="18.887" transform="translate(64.866)" fill="none" stroke="#06515f" stroke-miterlimit="10" stroke-width="4"/>
        <line id="Line_930" data-name="Line 930" y2="18.887" transform="translate(74.092)" fill="none" stroke="#06515f" stroke-miterlimit="10" stroke-width="4"/>
      </g>
    </g>
  </g>
</svg>
