<?xml version="1.0" encoding="UTF-8"?>
<svg id="Layer_1" xmlns="http://www.w3.org/2000/svg" version="1.1" viewBox="0 0 150 150">
  <!-- Generator: Adobe Illustrator 29.6.0, SVG Export Plug-In . SVG Version: 2.1.1 Build 207)  -->
  <defs>
    <style>
      .st0 {
        fill: none;
      }

      .st1 {
        fill: #05525f;
      }

      .st2 {
        fill: #038c95;
      }

      .st3 {
        fill: #06515f;
      }

      .st4 {
        fill: #fff;
      }

      .st5 {
        fill: #dcebf8;
      }

      .st6 {
        fill: #01af9a;
      }

      .st7 {
        fill: #0a6b71;
      }
    </style>
  </defs>
  <rect class="st0" x="200.3" y="-53" width="249.7" height="249.5"/>
  <g>
    <path id="Path_1181" class="st6" d="M33.5,108.9h-7.5c-1.6,0-2.9,1.2-3,2.8,0,0,0,0,0,.1v34.1c0,1.6,1.2,2.9,2.8,3,0,0,0,0,.1,0h7.5"/>
    <path id="Path_1182" class="st2" d="M33.1,149h7.5c1.6,0,2.9-1.2,3-2.8,0,0,0,0,0-.1v-34.1c0-1.6-1.2-2.9-2.8-3,0,0,0,0-.1,0h-7.5"/>
    <path id="Path_1181-2" class="st6" d="M60.4,88h-7.5c-1.6,0-2.9,1.2-3,2.8,0,0,0,0,0,.1v54.8c0,1.6,1.2,2.9,2.8,3,0,0,0,0,.1,0h7.5"/>
    <path id="Path_1182-2" class="st2" d="M60,149h7.5c1.6,0,2.9-1.2,3-2.8,0,0,0,0,0-.1v-54.8c0-1.6-1.2-2.9-2.8-3,0,0,0,0-.1,0h-7.5"/>
    <path id="Path_1181-3" class="st6" d="M87,67.4h-7.5c-1.6,0-2.9,1.2-3,2.8,0,0,0,0,0,.1v75.4c0,1.6,1.2,2.9,2.8,3,0,0,0,0,.1,0h7.5"/>
    <path id="Path_1182-3" class="st2" d="M86.8,149h7.5c1.6,0,2.9-1.2,3-2.8,0,0,0,0,0-.1v-75.6c0-1.6-1.2-2.9-2.8-3,0,0,0,0-.1,0h-7.5"/>
    <path id="Path_1181-4" class="st6" d="M113.9,50.1h-7.5c-1.6,0-2.9,1.2-3,2.8,0,0,0,0,0,.1v92.7c0,1.6,1.2,2.9,2.8,3,0,0,0,0,.1,0h7.5"/>
    <path id="Path_1182-4" class="st2" d="M113.5,149h7.5c1.6,0,2.9-1.2,3-2.8,0,0,0,0,0-.1V53.1c0-1.6-1.2-2.9-2.8-3,0,0,0,0-.1,0h-7.5"/>
    <path id="Path_4414" class="st1" d="M89.8,36c-.5-.4-1.1-.5-1.7-.2l-14.1,6.2c-.9.4-1.2,1.5-.9,2.3.3.8,1.2,1.2,2,.9,0,0,0,0,.1,0l7.9-3.4c-11.3,19.4-28.1,32.2-40.5,39.4-8,4.8-16.5,8.7-25.4,11.5-.9.2-1.5,1.2-1.3,2.1.2.9,1.2,1.5,2.1,1.3h0c9.1-3,17.8-7,26-11.9,12.8-7.5,30.5-20.9,42-41.1l-1.1,9.6c-.2.9.6,1.7,1.5,1.9h.2c.9,0,1.6-.6,1.7-1.5l1.7-15.6c.2-.5,0-1.2-.4-1.5Z"/>
    <g id="Group_43997">
      <path id="Path_2800" class="st1" d="M101.7,38.4c-9.5-6.4-12-19.3-5.6-28.8h0c6.5-9.4,19.4-11.8,28.9-5.3"/>
      <path id="Path_2801" class="st7" d="M125.1,4.4c9.5,6.5,12,19.5,5.6,28.8-6.6,9.4-19.5,11.7-28.9,5.2"/>
      <path id="Path_2802" class="st4" d="M113.5,39.8c-10.1.1-18.4-7.9-18.5-18-.1-10.1,7.9-18.4,18-18.5h.7"/>
      <path id="Path_2803" class="st5" d="M113.7,3.2c10.1,0,18.3,8.1,18.4,18.2,0,10-8,18.2-18.1,18.3h-.5"/>
      <g id="Group_5413">
        <path id="Path_2804" class="st3" d="M119.1,15.8c-1.2-.9-2.5-1.5-3.9-1.9v5.6c4.3,1.1,6.2,2.9,6.2,6h0c0,3.2-2.5,5.3-6.2,5.7v2.8h-2.5v-2.9c-2.5-.3-4.9-1.3-6.8-2.9l1.9-2.7c1.4,1.3,3.2,2.2,5.1,2.6v-5.7c-4.2-1.1-6.1-2.7-6.1-6h0c0-3.2,2.5-5.3,6.1-5.6v-1.7h2.5v1.7c2,.3,3.8,1,5.4,2.2l-1.6,2.7ZM112.8,18.9v-5.1c-1.8.2-2.7,1.1-2.7,2.4h0c0,1.2.5,2,2.7,2.7h0ZM115,22.9v5.3c1.8-.2,2.8-1.1,2.8-2.5h0c0-1.3-.6-2.1-2.8-2.8h0Z"/>
      </g>
    </g>
  </g>
</svg>