<svg xmlns="http://www.w3.org/2000/svg" xmlns:xlink="http://www.w3.org/1999/xlink" width="150" height="150" viewBox="0 0 150 150">
  <defs>
    <clipPath id="clip-piggy-bank-business_1">
      <rect width="150" height="150"/>
    </clipPath>
  </defs>
  <g id="piggy-bank-business_1" data-name="piggy-bank-business – 1" clip-path="url(#clip-piggy-bank-business_1)">
    <g id="piggy-bank" transform="translate(-0.09 1)">
      <g id="Group_8779" data-name="Group 8779" transform="translate(18.09 27.045)">
        <g id="Group_8777" data-name="Group 8777">
          <path id="Path_4679" data-name="Path 4679" d="M116.157,63.932h0a29.993,29.993,0,0,0-29.9-29.914H55.838a7.618,7.618,0,0,0-2.115-5.239c-1.684-1.547-4.23-1.89-7.559-.979a.871.871,0,0,0-.636.832v6.943A30.159,30.159,0,0,0,27.49,51.966a5.807,5.807,0,0,0-2.33-.48H23.818a5.767,5.767,0,0,0-5.728,5.738v7.648h98.037C116.127,64.539,116.157,64.216,116.157,63.932Z" transform="translate(-18.09 -27.301)" fill="#008c95"/>
          <path id="Path_4680" data-name="Path 4680" d="M23.877,78.115h1.332a5.709,5.709,0,0,0,2.683-.705,30.14,30.14,0,0,0,18.507,16v4.8a5,5,0,0,0,10,0V94.634H85.919v3.554a5,5,0,0,0,10,0V93A30.022,30.022,0,0,0,116.127,65.64H18.09v6.737a5.758,5.758,0,0,0,5.787,5.738Z" transform="translate(-18.09 -28.098)" fill="#00af9a"/>
        </g>
        <g id="Group_8778" data-name="Group 8778" transform="translate(39.276 10.79)">
          <path id="Path_4681" data-name="Path 4681" d="M83.346,43.882c1.146-.548,1.812-1.175,1.812-1.851,0-2.047-6.032-3.711-13.474-3.711S58.2,39.965,58.2,42.031c0,.676.666,1.3,1.821,1.851,2.33-1.106,6.678-1.851,11.662-1.851S81.015,42.775,83.346,43.882Z" transform="translate(-58.2 -38.32)" fill="#032435"/>
          <path id="Path_4682" data-name="Path 4682" d="M83.385,43.961c-2.33-1.106-6.678-1.851-11.633-1.851s-9.332.744-11.662,1.851c2.33,1.106,6.678,1.851,11.662,1.851S81.055,45.067,83.385,43.961Z" transform="translate(-58.239 -38.399)" fill="#064f76"/>
        </g>
      </g>
      <g id="Group_8782" data-name="Group 8782" transform="translate(28.988 98.193)">
        <rect id="Rectangle_3510" data-name="Rectangle 3510" width="79.893" height="8.47" rx="0.69" transform="translate(3.535 1.459)" fill="#1669a0"/>
        <rect id="Rectangle_3511" data-name="Rectangle 3511" width="79.893" height="8.47" rx="0.69" transform="translate(0 8.754)" fill="#2280bf"/>
        <rect id="Rectangle_3512" data-name="Rectangle 3512" width="79.893" height="8.47" rx="0.69" transform="translate(3.535 17.156)" fill="#1669a0"/>
        <rect id="Rectangle_3513" data-name="Rectangle 3513" width="79.893" height="8.47" rx="0.69" transform="translate(1.772 24.451)" fill="#2280bf"/>
        <g id="Group_8780" data-name="Group 8780" transform="translate(26.683)">
          <rect id="Rectangle_3514" data-name="Rectangle 3514" width="32.431" height="17.156" fill="#e8f4fd"/>
          <rect id="Rectangle_3515" data-name="Rectangle 3515" width="32.431" height="17.156" transform="translate(0 17.156)" fill="#cfe6fa"/>
        </g>
        <g id="Group_8781" data-name="Group 8781" transform="translate(36.279 6.815)">
          <path id="Path_4683" data-name="Path 4683" d="M79.881,114.969H75.719l-.078-1.958a7.667,7.667,0,0,0-2.164-.264c-.9,0-2.36.294-2.36,1.439s1.165,1.459,2.869,1.625c3.339.343,6.972,1.42,6.972,5.435,0,3.163-2.507,4.9-5.532,5.386v2.017H71.509V126.69a9.488,9.488,0,0,1-5.239-2.262v-4.269h4.171l.069,1.958a8.558,8.558,0,0,0,2.938.539c1.606,0,2.7-.568,2.7-1.537s-.979-1.263-2.879-1.459c-3.457-.323-6.991-1.293-6.991-5.5,0-3.026,2.536-4.651,5.239-5.17V106.92h3.917v1.958a9.293,9.293,0,0,1,4.455,1.958Z" transform="translate(-66.27 -106.92)" fill="#00af9a"/>
        </g>
      </g>
      <g id="Group_8784" data-name="Group 8784" transform="translate(58.213 15)">
        <path id="Path_4684" data-name="Path 4684" d="M79.226,17.736a12.818,12.818,0,1,0,5.013,17.43h0a12.827,12.827,0,0,0-5.013-17.43Z" transform="translate(-59.089 -15.024)" fill="#1669a0"/>
        <g id="Group_8783" data-name="Group 8783">
          <path id="Path_4685" data-name="Path 4685" d="M65.679,39.039A12.82,12.82,0,0,1,78.1,16.606" transform="translate(-59.065 -15)" fill="#2280bf"/>
          <path id="Path_4686" data-name="Path 4686" d="M78.236,16.64A12.82,12.82,0,0,1,65.82,39.073" transform="translate(-59.206 -15.034)" fill="#4ca2db"/>
        </g>
      </g>
      <g id="Group_4" data-name="Group 4" transform="translate(112.778 50.231)">
        <path id="Path_2" data-name="Path 2" d="M111.876,59.661a7.231,7.231,0,0,1-.839-.046,1.483,1.483,0,1,1,.327-2.947,7.84,7.84,0,0,0,5.383-1.843,7.686,7.686,0,0,0,.743-.678,5.363,5.363,0,0,1-2.659-3.348,4,4,0,0,1,.97-4.438,3.388,3.388,0,0,1,3.772-.306c1.638.879,2.5,2.823,2.349,5.246a7.6,7.6,0,0,0,3.586-3.07,1.482,1.482,0,1,1,2.594,1.436,10.389,10.389,0,0,1-7.259,4.977,9.868,9.868,0,0,1-2.236,2.49A11.144,11.144,0,0,1,111.876,59.661Zm6-11.072a.3.3,0,0,0-.193.059c-.16.133-.238.588-.024,1.273a2.393,2.393,0,0,0,1.257,1.618c.008-.055.015-.111.021-.165.168-1.6-.287-2.446-.769-2.706a.63.63,0,0,0-.291-.08Z" transform="translate(-109.718 -45.621)" fill="#008c95"/>
      </g>
    </g>
  </g>
</svg>
