<svg xmlns="http://www.w3.org/2000/svg" xmlns:xlink="http://www.w3.org/1999/xlink" width="96" height="96" viewBox="0 0 96 96">
  <defs>
    <clipPath id="clip-path">
      <rect id="Rectangle_8698" data-name="Rectangle 8698" width="77.21" height="86.021" transform="translate(0 0)" fill="none"/>
    </clipPath>
    <clipPath id="clip-person-24-7">
      <rect width="96" height="96"/>
    </clipPath>
  </defs>
  <g id="person-24-7" clip-path="url(#clip-person-24-7)">
    <g id="Group_41257" data-name="Group 41257" transform="translate(10 5)">
      <g id="Group_41256" data-name="Group 41256" clip-path="url(#clip-path)">
        <path id="Path_43280" data-name="Path 43280" d="M39.226,25.15l3.4-2.595c.844-.663,1.182-1.091,1.182-1.636a.913.913,0,0,0-1.026-.934c-.61,0-1.09.364-1.8,1.181l-1.7-1.414a4.219,4.219,0,0,1,3.7-1.947c1.986,0,3.348,1.18,3.348,2.893v.027c0,1.454-.753,2.206-2.1,3.179L42.665,25h3.75v2.05H39.226Z" fill="#ed780f"/>
        <path id="Path_43281" data-name="Path 43281" d="M51.7,25.279H47.29l-.4-1.778L51.6,17.9h2.531v5.5h1.155v1.882H54.129v1.765H51.7Zm0-1.869V20.788l-2.18,2.622Z" fill="#ed780f"/>
        <path id="Path_43282" data-name="Path 43282" d="M60.648,16.689h2L56.9,28.7h-2Z" fill="#ed780f"/>
        <path id="Path_43283" data-name="Path 43283" d="M67.01,20.076h-4.2V17.961H69.8v1.894l-4.01,7.19H63.013Z" fill="#ed780f"/>
        <path id="Path_43284" data-name="Path 43284" d="M38.833,75.433H34.2a2,2,0,1,0,0,4h4.635a2,2,0,0,0,0-4" fill="#ed780f"/>
        <path id="Path_43285" data-name="Path 43285" d="M54.513,0a22.723,22.723,0,0,0-22.7,22.7c0,.484.018.968.049,1.45a15.962,15.962,0,0,0-6.931-1.655C13.154,22.492,3.2,35.978,3.2,51.94c0,3.741,2.11,9.6,5.371,15.121-.673.223-1.3.458-1.881.708l-.119.055c-.36.159-.7.322-1.029.491-.067.035-.128.072-.2.107-.284.153-.558.307-.814.466-.083.051-.158.1-.238.156-.224.145-.443.292-.646.442-.088.064-.169.13-.253.2-.177.139-.35.278-.511.419-.088.078-.17.157-.254.235-.139.131-.275.263-.4.4-.084.088-.162.177-.24.265-.11.126-.215.251-.314.377-.076.1-.149.195-.219.292-.085.119-.165.238-.241.358-.067.1-.132.208-.192.312s-.126.228-.184.343S.731,72.9.682,73s-.095.222-.139.333-.087.218-.124.327-.069.22-.1.331-.064.213-.09.319-.049.227-.071.34-.042.2-.058.3c-.02.128-.032.253-.046.379-.009.08-.021.162-.027.241q-.024.3-.025.593v.007H0c-.007,1.858.111,6.434,1.351,8.783a2,2,0,0,0,1.77,1.067c.044,0,.087-.013.13-.016s.1.015.152.015H46.731l.009,0a1.939,1.939,0,0,0,.472-.063c.042-.01.082-.025.124-.039a1.947,1.947,0,0,0,.339-.143c.038-.02.076-.038.113-.061a2,2,0,0,0,.372-.294c.018-.018.032-.041.049-.06a2.018,2.018,0,0,0,.252-.348c.011-.021.029-.035.04-.056.024-.045.044-.1.067-.142l.01-.02c1.167-2.391,1.282-6.805,1.274-8.622-.009-2.418-1.076-5.513-5.492-7.829-.038-.023-.071-.052-.111-.074-.274-.146-.547-.275-.858-.418l-.127-.056c-.255-.114-.505-.222-.756-.31-.089-.034-.178-.067-.279-.112-.032-.014-.064-.027-.1-.039-.282-.108-.559-.2-.837-.289,3.261-5.522,5.37-11.378,5.37-15.119a34.716,34.716,0,0,0-6.492-20.692,25.573,25.573,0,0,0-3.84-4.132c0-.013,0-.027-.005-.04A18.7,18.7,0,1,1,54.513,41.394a18.976,18.976,0,0,1-2.3-.14,2,2,0,1,0-.486,3.97A22.71,22.71,0,0,0,77.21,22.7,22.723,22.723,0,0,0,54.513,0M13.006,46.476a32.192,32.192,0,0,0,5.511-4.251,32.2,32.2,0,0,0,3.668-4.2,25.85,25.85,0,0,0,14.5,8.227,1.119,1.119,0,0,1-.052,2.12,2,2,0,0,0-1.276,1.244c-1.333,3.815-3.608,6.85-6.244,8.326a2,2,0,0,0-1.021,1.674c-.182,5.135.686,7.121,1.476,8.1l-4.643,7.424-4.433-7.254c.828-1.069,1.679-3.307,1.45-8.281a2,2,0,0,0-1.006-1.645c-2.615-1.493-4.79-4.455-6.127-8.34a2,2,0,0,0-1.327-1.269,1.222,1.222,0,0,1-.949-1.078,1.3,1.3,0,0,1,.478-.8h0M45.325,82.02H4.528A25.689,25.689,0,0,1,4,76.186a3.707,3.707,0,0,1,.1-.832c.005-.023.008-.048.014-.071a3.789,3.789,0,0,1,.293-.777l.026-.052c.835-1.591,2.883-2.875,6.118-3.831.46-.134.936-.264,1.444-.385a46.514,46.514,0,0,1,4.737-.819l6.431,10.523c.015.024.062.094.077.117a2,2,0,0,0,3.323,0c.012-.017.055-.082.066-.1L33.22,69.42l.3.038c.144.018.288.036.528.07l.144.02c.092.014.185.027.277.038l.907.138c.281.042.562.082.833.14l1.257.263a2.55,2.55,0,0,0,.34.085c.334.072.668.16.969.242.118.033.241.072.361.106.042.016.081.039.125.052a19.1,19.1,0,0,1,2.851,1.064l.036.017c2.451,1.18,3.694,2.685,3.7,4.493a25.69,25.69,0,0,1-.528,5.834m-2.66-30.095c0,3.165-2.2,8.86-5.321,13.927l-.275-.057c-.036-.008-.073-.015-.11-.02-.157-.023-.314-.052-.469-.079l-1.658-.256c-.112-.017-.225-.033-.338-.045-.407-.04-.649-.08-.76-.1l-.116-.018c-.232-.034-.56-.084-.963-.161l-.031-.006c-.176-.346-.573-1.445-.56-4.3a19.166,19.166,0,0,0,6.766-9.065A5.117,5.117,0,0,0,37.751,42.4c-.067-.02-.136-.036-.206-.05a21.9,21.9,0,0,1-7.035-2.608,22.206,22.206,0,0,1-6.845-6.256,2,2,0,0,0-3.341.127,28.118,28.118,0,0,1-4.579,5.733,28.379,28.379,0,0,1-4.893,3.765A5.249,5.249,0,0,0,8.53,47.191a5.112,5.112,0,0,0,2.8,4.593,19.168,19.168,0,0,0,6.637,9.039,12.9,12.9,0,0,1-.493,4.328,49.9,49.9,0,0,0-4.95.725C9.4,60.807,7.2,55.107,7.2,51.94c0-15,9.346-25.448,17.733-25.448,4.268,0,8.653,2.6,12.032,7.132a30.7,30.7,0,0,1,5.7,18.3" fill="#0f3d70"/>
      </g>
    </g>
  </g>
</svg>
