<svg xmlns="http://www.w3.org/2000/svg" xmlns:xlink="http://www.w3.org/1999/xlink" width="96" height="96" viewBox="0 0 96 96">
  <defs>
    <clipPath id="clip-path">
      <rect id="Rectangle_8662" data-name="Rectangle 8662" width="52.073" height="76.288" transform="translate(0 0)" fill="none"/>
    </clipPath>
    <clipPath id="clip-certificates_">
      <rect width="96" height="96"/>
    </clipPath>
  </defs>
  <g id="certificates_" data-name="certificates " clip-path="url(#clip-certificates_)">
    <g id="Group_41185" data-name="Group 41185" transform="translate(22 10)">
      <g id="Group_41184" data-name="Group 41184" clip-path="url(#clip-path)">
        <path id="Path_43116" data-name="Path 43116" d="M46.069,68H42.036a2,2,0,0,1,0-4h4.033a2.007,2.007,0,0,0,2-2V6a2.007,2.007,0,0,0-2-2H6A2.006,2.006,0,0,0,4,6V62a2.006,2.006,0,0,0,2,2H27.7a2,2,0,0,1,0,4H6a6.01,6.01,0,0,1-6-6V6A6.01,6.01,0,0,1,6,0H46.069a6.01,6.01,0,0,1,6,6V62a6.01,6.01,0,0,1-6,6" fill="#0f3d70"/>
        <path id="Path_43117" data-name="Path 43117" d="M28.778,60H13.645a2,2,0,0,1-2-2c0-1.254-.709-2.255-1.549-2.255a2.053,2.053,0,0,1-2.059-2V14.256a2,2,0,0,1,2-2c.9,0,1.609-1,1.608-2.185a2.081,2.081,0,0,1,.586-1.45A2.036,2.036,0,0,1,13.645,8H38.584A2.017,2.017,0,0,1,40.6,9.987c.008,1.139.7,2.125,1.505,2.155a2,2,0,0,1,1.928,2V45.013a2,2,0,0,1-4,0V15.683A5.92,5.92,0,0,1,36.908,12H15.358a5.966,5.966,0,0,1-3.321,3.865V52.147A5.966,5.966,0,0,1,15.369,56H28.778a2,2,0,0,1,0,4" fill="#0f3d70"/>
        <path id="Path_43118" data-name="Path 43118" d="M42.778,57.6a10.742,10.742,0,1,0-16,0V74.287c0,.01,0,.019,0,.028a2.042,2.042,0,0,0,.023.233c.007.054.009.109.021.161a1.774,1.774,0,0,0,.058.188c.02.061.035.124.06.183s.055.1.082.151a1.928,1.928,0,0,0,.106.188c.029.042.066.08.1.12a1.933,1.933,0,0,0,.157.182c.007.006.011.014.018.021.034.032.073.054.109.083a2.031,2.031,0,0,0,.181.14c.052.034.107.059.162.088a1.756,1.756,0,0,0,.185.09,1.7,1.7,0,0,0,.184.057,1.773,1.773,0,0,0,.19.051,1.88,1.88,0,0,0,.212.021c.05,0,.1.015.15.015a.275.275,0,0,0,.03,0,1.9,1.9,0,0,0,.213-.021,1.791,1.791,0,0,0,.181-.023c.055-.012.109-.033.163-.05a2.006,2.006,0,0,0,.207-.068c.045-.019.085-.047.129-.07a2,2,0,0,0,.211-.119c.037-.026.07-.059.106-.088a1.942,1.942,0,0,0,.195-.168l.019-.017,4.546-4.815,4.546,4.815c.006.006.013.01.019.017a1.962,1.962,0,0,0,.235.2c.025.019.047.043.073.06a1.966,1.966,0,0,0,.731.309c.018,0,.037,0,.056.006a2,2,0,0,0,.34.034c.019,0,.037-.005.056-.005a1.992,1.992,0,0,0,.327-.033c.057-.011.109-.031.164-.047a1.831,1.831,0,0,0,.2-.063c.059-.024.112-.055.168-.084s.116-.058.172-.094a1.967,1.967,0,0,0,.163-.126c.039-.032.082-.058.12-.093.007-.007.012-.015.018-.021a1.932,1.932,0,0,0,.157-.182c.033-.04.07-.078.1-.12.041-.059.072-.125.107-.188s.059-.1.081-.151a1.7,1.7,0,0,0,.06-.183c.02-.062.045-.124.059-.188s.013-.107.02-.161a2.042,2.042,0,0,0,.023-.233c0-.009,0-.018,0-.028Zm-8-13.885a6.742,6.742,0,1,1-6.742,6.741,6.749,6.749,0,0,1,6.742-6.741M33.324,66.558l-2.546,2.7V60.416a10.634,10.634,0,0,0,8,0v8.839l-2.546-2.7a2.062,2.062,0,0,0-2.908,0" fill="#ed780f"/>
        <path id="Path_43119" data-name="Path 43119" d="M34.036,24h-16a2,2,0,0,1,0-4h16a2,2,0,0,1,0,4" fill="#0f3d70"/>
        <path id="Path_43120" data-name="Path 43120" d="M26.037,32h-8a2,2,0,0,1,0-4h8a2,2,0,0,1,0,4" fill="#0f3d70"/>
      </g>
    </g>
  </g>
</svg>
