<svg xmlns="http://www.w3.org/2000/svg" xmlns:xlink="http://www.w3.org/1999/xlink" width="96" height="96" viewBox="0 0 96 96">
  <defs>
    <clipPath id="clip-path">
      <rect id="Rectangle_8681" data-name="Rectangle 8681" width="74.369" height="68" fill="none"/>
    </clipPath>
    <clipPath id="clip-document-signature">
      <rect width="96" height="96"/>
    </clipPath>
  </defs>
  <g id="document-signature" clip-path="url(#clip-document-signature)">
    <g id="Group_41223" data-name="Group 41223" transform="translate(11 14)">
      <g id="Group_41222" data-name="Group 41222" clip-path="url(#clip-path)">
        <path id="Path_43218" data-name="Path 43218" d="M31.97,20H10a2,2,0,0,0,0,4H31.97a2,2,0,1,0,0-4" fill="#ed780f"/>
        <path id="Path_43219" data-name="Path 43219" d="M72.229,46.062H51.741V40.074H72.369a2,2,0,0,0,0-4H51.741V30.085H72.229a2,2,0,0,0,0-4H49.741c-.064,0-.123.013-.184.018s-.1.007-.147.015a1.954,1.954,0,0,0-.392.107c-.012,0-.025,0-.036.009l-.014.006-.011.005L24.584,36.223a2,2,0,0,0,0,3.7L48.952,49.9l.02.008.01,0c.034.014.07.019.106.032a2.1,2.1,0,0,0,.26.078,2.01,2.01,0,0,0,.37.037l.022,0H72.229a2,2,0,0,0,0-4m-24.488-.979-5.512-2.256V33.321l5.512-2.256ZM38.229,34.959v6.23l-7.607-3.115Z" fill="#0f3d70"/>
        <path id="Path_43220" data-name="Path 43220" d="M50.072,21.784a2,2,0,0,0,2-2V6a6.01,6.01,0,0,0-6-6H6A6.01,6.01,0,0,0,0,6V62a6.011,6.011,0,0,0,6,6H46.069a6.011,6.011,0,0,0,6-6V56a2,2,0,0,0-4,0v6a2.005,2.005,0,0,1-2,2H6a2.006,2.006,0,0,1-2-2V6A2.005,2.005,0,0,1,6,4H46.069a2,2,0,0,1,2,2V19.784a2,2,0,0,0,2,2" fill="#0f3d70"/>
        <path id="Path_43221" data-name="Path 43221" d="M33.972,12H10a2,2,0,0,0,0,4H39.778a2,2,0,0,0,0-4Z" fill="#0f3d70"/>
      </g>
    </g>
  </g>
</svg>
