<svg xmlns="http://www.w3.org/2000/svg" xmlns:xlink="http://www.w3.org/1999/xlink" width="96" height="96" viewBox="0 0 96 96">
  <defs>
    <clipPath id="clip-path">
      <rect id="Rectangle_8887" data-name="Rectangle 8887" width="83.842" height="83.457" fill="none"/>
    </clipPath>
    <clipPath id="clip-quick-timer">
      <rect width="96" height="96"/>
    </clipPath>
  </defs>
  <g id="quick-timer" clip-path="url(#clip-quick-timer)">
    <g id="Group_41637" data-name="Group 41637" transform="translate(7 7)">
      <g id="Group_41636" data-name="Group 41636" clip-path="url(#clip-path)">
        <path id="Path_44147" data-name="Path 44147" d="M50.092,47.332a2,2,0,0,1-2-2V32.774a2,2,0,1,1,4,0V45.332a2,2,0,0,1-2,2" fill="#0f3d70"/>
        <path id="Path_44148" data-name="Path 44148" d="M67.025,51.707H54.467a2,2,0,0,1,0-4H67.025a2,2,0,0,1,0,4" fill="#0f3d70"/>
        <path id="Path_44149" data-name="Path 44149" d="M50.1,56.083h-.018a6.376,6.376,0,0,1,.009-12.751H50.1a6.376,6.376,0,0,1,0,12.751m-.012-4h.01a2.376,2.376,0,0,0,0-4.751h0a2.376,2.376,0,0,0,0,4.751" fill="#ed780f"/>
        <path id="Path_44150" data-name="Path 44150" d="M73.122,25.067l2.408-2.856,1.75,1.476a2,2,0,0,0,2.58-3.058L73.3,15.1a2,2,0,0,0-2.579,3.057l1.751,1.476-2.427,2.877a33.563,33.563,0,0,0-17.954-6.488V12h8a2,2,0,0,0,2-2V2a2,2,0,0,0-2-2h-20a2,2,0,0,0-2,2v8a2,2,0,0,0,2,2h8v4.021a33.563,33.563,0,0,0-17.954,6.488l-2.426-2.877,1.75-1.476A2,2,0,1,0,26.883,15.1l-6.558,5.53A2,2,0,0,0,22.9,23.687l1.75-1.476,2.409,2.856a33.75,33.75,0,1,0,46.059,0M42.092,4h16V8h-16Zm8,75.457a29.75,29.75,0,1,1,29.75-29.75,29.784,29.784,0,0,1-29.75,29.75" fill="#0f3d70"/>
        <path id="Path_44151" data-name="Path 44151" d="M50.092,23.774A25.933,25.933,0,1,0,76.026,49.707,25.962,25.962,0,0,0,50.092,23.774m0,47.867A21.933,21.933,0,1,1,72.026,49.707,21.958,21.958,0,0,1,50.092,71.641" fill="#0f3d70"/>
        <path id="Path_44152" data-name="Path 44152" d="M28.092,7.729H14.609a2,2,0,1,1,0-4H28.092a2,2,0,0,1,0,4" fill="#ed780f"/>
        <path id="Path_44153" data-name="Path 44153" d="M7.72,7.729H2a2,2,0,0,1,0-4H7.72a2,2,0,1,1,0,4" fill="#ed780f"/>
        <path id="Path_44154" data-name="Path 44154" d="M18.081,15.729H4.841a2,2,0,0,1,0-4h13.24a2,2,0,0,1,0,4" fill="#ed780f"/>
        <path id="Path_44155" data-name="Path 44155" d="M11.092,23.729h-9a2,2,0,1,1,0-4h9a2,2,0,1,1,0,4" fill="#ed780f"/>
      </g>
    </g>
  </g>
</svg>
