<svg xmlns="http://www.w3.org/2000/svg" xmlns:xlink="http://www.w3.org/1999/xlink" viewBox="-6723 5170 80 80">
  <defs>
    <style>
      .cls-1 {
        clip-path: url(#clip-hand-credit-card);
      }

      .cls-2 {
        fill: #3b93d0;
      }

      .cls-3 {
        fill: #ea7923;
      }

      .cls-4 {
        fill: #f78b41;
      }

      .cls-5 {
        fill: #003056;
      }

      .cls-6 {
        fill: #fff;
      }

      .cls-7 {
        fill: #7ab4e2;
      }
    </style>
    <clipPath id="clip-hand-credit-card">
      <rect x="-6723" y="5170" width="80" height="80"/>
    </clipPath>
  </defs>
  <g id="hand-credit-card" class="cls-1">
    <g id="Group_3853" data-name="Group 3853" transform="translate(-6716.036 5175.759)">
      <path id="Path_1455" data-name="Path 1455" class="cls-2" d="M70.751,65.455,62.5,76.476l.231.346a3.343,3.343,0,0,0,4.616,1.039l.519-.289a3.973,3.973,0,0,0,1.673-4.558,3.551,3.551,0,0,0,1.1.115,3.855,3.855,0,0,0,1.9-.577,3.973,3.973,0,0,0,1.269-5.366h0a3.933,3.933,0,0,0,1.212.115,3.883,3.883,0,0,0,3.347-5.6,3.968,3.968,0,0,0-4.212-1.039Z" transform="translate(-26.421 -25.605)"/>
      <g id="Group_3774" data-name="Group 3774" transform="translate(13.082 -0.054)">
        <path id="Path_1456" data-name="Path 1456" class="cls-3" d="M56.779,47.024,40.623,57.583a2.309,2.309,0,0,1-3.174-.635l-14.426-22.1a2.309,2.309,0,0,1,.635-3.174L39.988,21" transform="translate(-22.646 -8.851)"/>
        <path id="Path_1457" data-name="Path 1457" class="cls-4" d="M52.4,12.21,70.576.323A2.309,2.309,0,0,1,73.75.958l14.483,22.1a2.309,2.309,0,0,1-.635,3.174L69.365,38.118" transform="translate(-35.231 0.054)"/>
        <rect id="Rectangle_1696" data-name="Rectangle 1696" class="cls-5" width="45.527" height="3.924" transform="translate(1.704 27.999) rotate(-33.229)"/>
        <rect id="Rectangle_1697" data-name="Rectangle 1697" class="cls-6" width="12.118" height="1.443" transform="translate(9.698 31.912) rotate(-33.229)"/>
        <rect id="Rectangle_1698" data-name="Rectangle 1698" class="cls-6" width="36.814" height="1.443" transform="translate(11.303 34.433) rotate(-33.229)"/>
        <rect id="Rectangle_1699" data-name="Rectangle 1699" class="cls-6" width="36.814" height="1.443" transform="translate(12.982 36.959) rotate(-33.229)"/>
      </g>
      <g id="Group_3775" data-name="Group 3775" transform="translate(0.036 26.405)">
        <path id="Path_1458" data-name="Path 1458" class="cls-7" d="M11.383,47.7c-1.1,1.269-6.636,19.157-6.636,19.157L1.054,69.977c-.923.866-1.327,1.212-.75,2.366l8.944,15.58c.692,1.154,1.443.692,2.712.115a37.2,37.2,0,0,1,9.232-2.827c2.712-.462,6-3.289,6.463-4.039,1.673-2.193,18.234-23.023,18.234-23.023a4.945,4.945,0,0,0-1.327-7.1,5.155,5.155,0,0,0-6.751,1.327L29.732,63.111a2.885,2.885,0,0,1-4.789-.173l-4.732-7.271L16.4,49.839,13.748,45.8A13.785,13.785,0,0,0,11.383,47.7Z" transform="translate(-0.036 -45.8)"/>
      </g>
    </g>
  </g>
</svg>
